M48
; DRILL file {KiCad 8.0.8} date 2025-02-21T18:34:43-0500
; FORMAT={-:-/ absolute / inch / decimal}
; #@! TF.CreationDate,2025-02-21T18:34:43-05:00
; #@! TF.GenerationSoftware,Kicad,Pcbnew,8.0.8
; #@! TF.FileFunction,Plated,1,2,PTH
FMAT,2
INCH
; #@! TA.AperFunction,Plated,PTH,ViaDrill
T1C0.0118
; #@! TA.AperFunction,Plated,PTH,ComponentDrill
T2C0.0394
%
G90
G05
T1
X4.6283Y-3.1102
X4.648Y-3.4252
X4.6874Y-3.0906
X4.6874Y-3.4449
X4.7556Y-3.5431
X4.7714Y-2.7379
X4.7974Y-2.8096
X4.8055Y-3.6024
X4.8189Y-3.501
X4.8641Y-3.3368
X4.8816Y-3.028
X4.8857Y-2.9518
X4.9056Y-3.2729
X5.0811Y-2.5886
X5.0811Y-3.0866
X5.1205Y-2.0276
X5.1205Y-3.0512
X5.3173Y-2.9134
X5.3173Y-3.2229
X5.3545Y-3.3072
X5.3764Y-3.6024
X5.3832Y-3.2943
X5.4157Y-3.2874
X5.4184Y-3.0217
X5.4748Y-2.5197
X5.4748Y-3.4646
X5.4748Y-3.7795
X5.4748Y-3.9961
X5.4781Y-2.851
X5.4802Y-2.3504
X5.4802Y-2.6654
X5.4802Y-3.2953
X5.4802Y-3.6102
X5.4802Y-3.9252
X5.4804Y-2.9803
X5.5142Y-2.9528
X5.5142Y-3.3465
X5.548Y-3.3189
X5.5481Y-2.374
X5.5481Y-2.689
X5.5481Y-3.0039
X5.5481Y-3.6339
X5.5481Y-3.9488
X5.5535Y-2.5197
X5.5535Y-2.8543
X5.5535Y-3.4646
X5.5535Y-3.7795
X5.6126Y-2.979
X5.6126Y-3.2566
X5.652Y-3.2283
X5.652Y-3.9961
X5.9276Y-3.0118
X5.9276Y-3.4055
X6.0063Y-2.5787
X6.0063Y-3.0965
X6.0063Y-3.2028
X6.0063Y-3.7201
X6.1239Y-3.0219
X6.1415Y-3.3429
X6.1455Y-3.2668
X6.1655Y-2.9579
X6.2123Y-2.7951
X6.2281Y-3.4859
X6.2541Y-3.5577
X6.2622Y-3.4055
X6.2756Y-2.7525
X6.3213Y-3.1063
X6.3213Y-3.189
X6.3606Y-3.1102
X6.3606Y-3.1594
T2
X4.5756Y-2.8386
X4.5756Y-3.4607
X4.6256Y-2.752
X4.6256Y-3.5473
X4.6756Y-2.6654
X4.6756Y-3.6339
X4.7256Y-2.5788
X4.7256Y-3.7205
X4.7756Y-2.4921
X4.7756Y-3.8071
X5.3142Y-2.1811
X5.3142Y-4.1181
X5.4142Y-2.1811
X5.4142Y-4.1181
X5.5142Y-2.1811
X5.5142Y-4.1181
X5.6142Y-2.1811
X5.6142Y-4.1181
X5.7142Y-2.1811
X5.7142Y-4.1181
X6.2552Y-2.4912
X6.2567Y-3.8067
X6.3052Y-2.5778
X6.3067Y-3.7201
X6.3552Y-2.6644
X6.3567Y-3.6335
X6.4052Y-2.751
X6.4067Y-3.5469
X6.4552Y-2.8376
X6.4567Y-3.4603
M30
