%TF.GenerationSoftware,KiCad,Pcbnew,8.0.8*%
%TF.CreationDate,2025-02-21T18:34:30-05:00*%
%TF.ProjectId,pcb_tile_game,7063625f-7469-46c6-955f-67616d652e6b,0.1*%
%TF.SameCoordinates,Original*%
%TF.FileFunction,Paste,Bot*%
%TF.FilePolarity,Positive*%
%FSLAX46Y46*%
G04 Gerber Fmt 4.6, Leading zero omitted, Abs format (unit mm)*
G04 Created by KiCad (PCBNEW 8.0.8) date 2025-02-21 18:34:30*
%MOMM*%
%LPD*%
G01*
G04 APERTURE LIST*
G04 Aperture macros list*
%AMRotRect*
0 Rectangle, with rotation*
0 The origin of the aperture is its center*
0 $1 length*
0 $2 width*
0 $3 Rotation angle, in degrees counterclockwise*
0 Add horizontal line*
21,1,$1,$2,0,0,$3*%
G04 Aperture macros list end*
%ADD10R,0.700000X0.700000*%
%ADD11RotRect,0.700000X0.700000X255.000000*%
%ADD12RotRect,0.700000X0.700000X308.000000*%
%ADD13RotRect,0.700000X0.700000X285.000000*%
%ADD14RotRect,0.700000X0.700000X232.000000*%
G04 APERTURE END LIST*
D10*
%TO.C,D5*%
X140975000Y-67450000D03*
X140975000Y-68550000D03*
X139145000Y-68550000D03*
X139145000Y-67450000D03*
%TD*%
%TO.C,D6*%
X140975000Y-59450000D03*
X140975000Y-60550000D03*
X139145000Y-60550000D03*
X139145000Y-59450000D03*
%TD*%
D11*
%TO.C,D9*%
X155765561Y-74973827D03*
X156828077Y-75258528D03*
X156354439Y-77026173D03*
X155291923Y-76741472D03*
%TD*%
D10*
%TO.C,D2*%
X140975000Y-91450000D03*
X140975000Y-92550000D03*
X139145000Y-92550000D03*
X139145000Y-91450000D03*
%TD*%
D12*
%TO.C,D14*%
X120563264Y-70117584D03*
X121430075Y-69440356D03*
X122556736Y-70882416D03*
X121689925Y-71559644D03*
%TD*%
D10*
%TO.C,D1*%
X140975000Y-99450000D03*
X140975000Y-100550000D03*
X139145000Y-100550000D03*
X139145000Y-99450000D03*
%TD*%
D13*
%TO.C,D13*%
X123291921Y-75258528D03*
X124354440Y-74973827D03*
X124828079Y-76741472D03*
X123765560Y-77026173D03*
%TD*%
D10*
%TO.C,D3*%
X140975000Y-83450000D03*
X140975000Y-84550000D03*
X139145000Y-84550000D03*
X139145000Y-83450000D03*
%TD*%
D13*
%TO.C,D8*%
X155291921Y-83258528D03*
X156354440Y-82973827D03*
X156828079Y-84741472D03*
X155765560Y-85026173D03*
%TD*%
D12*
%TO.C,D7*%
X158689924Y-90559644D03*
X159556736Y-89882416D03*
X158430076Y-88440356D03*
X157563264Y-89117584D03*
%TD*%
D10*
%TO.C,D4*%
X140975000Y-75450000D03*
X140975000Y-76550000D03*
X139145000Y-76550000D03*
X139145000Y-75450000D03*
%TD*%
D11*
%TO.C,D12*%
X123765560Y-82973827D03*
X124828079Y-83258528D03*
X124354440Y-85026173D03*
X123291921Y-84741472D03*
%TD*%
D14*
%TO.C,D11*%
X121689924Y-88440356D03*
X122556736Y-89117584D03*
X121430076Y-90559644D03*
X120563264Y-89882416D03*
%TD*%
%TO.C,D10*%
X157563264Y-70882416D03*
X158430075Y-71559644D03*
X159556736Y-70117584D03*
X158689925Y-69440356D03*
%TD*%
M02*
