M48
; DRILL file {KiCad 8.0.8} date 2025-04-07T12:48:44-0400
; FORMAT={-:-/ absolute / inch / decimal}
; #@! TF.CreationDate,2025-04-07T12:48:44-04:00
; #@! TF.GenerationSoftware,Kicad,Pcbnew,8.0.8
; #@! TF.FileFunction,Plated,1,2,PTH
FMAT,2
INCH
; #@! TA.AperFunction,Plated,PTH,ViaDrill
T1C0.0118
; #@! TA.AperFunction,Plated,PTH,ComponentDrill
T2C0.0236
%
G90
G05
T1
X1.3929Y-2.1417
X1.3929Y-2.3425
X1.3929Y-4.5039
X1.3929Y-4.7047
X1.3929Y-11.5906
X1.3929Y-11.7913
X1.4008Y-9.5472
X1.4205Y-6.3701
X1.4362Y-9.5728
X1.4402Y-9.3858
X1.4441Y-9.4985
X1.4559Y-6.3465
X1.4628Y-9.5984
X1.4717Y-9.3701
X1.5235Y-2.5851
X1.5235Y-4.9473
X1.5235Y-12.0339
X1.5386Y-9.3504
X1.5798Y-6.8087
X1.5819Y-1.878
X1.5819Y-4.2402
X1.5819Y-11.3268
X1.5937Y-6.6658
X1.5977Y-9.1339
X1.6055Y-6.7402
X1.6055Y-6.8346
X1.6062Y-2.013
X1.6062Y-4.3752
X1.6062Y-11.4618
X1.6095Y-2.685
X1.6095Y-5.0472
X1.6095Y-12.1339
X1.6215Y-6.4037
X1.6215Y-6.6063
X1.6252Y-1.8465
X1.6252Y-1.9843
X1.6252Y-4.2087
X1.6252Y-4.3465
X1.6252Y-11.2953
X1.6252Y-11.4331
X1.6292Y-6.8661
X1.6317Y-8.8411
X1.6351Y-9.2933
X1.6429Y-9.565
X1.6449Y-9.7756
X1.6488Y-1.2402
X1.6488Y-3.6024
X1.6488Y-5.9646
X1.6488Y-8.3268
X1.6488Y-10.689
X1.6508Y-1.7972
X1.6508Y-4.1594
X1.6508Y-11.2461
X1.6528Y-7.0197
X1.6592Y-1.9665
X1.6592Y-4.3287
X1.6592Y-11.4154
X1.6646Y-2.3898
X1.6646Y-2.8504
X1.6646Y-4.752
X1.6646Y-5.2126
X1.6646Y-11.8386
X1.6646Y-12.2992
X1.6764Y-10.3543
X1.6764Y-9.5972
X1.6902Y-9.2596
X1.6921Y-1.937
X1.6921Y-4.2992
X1.6921Y-11.3858
X1.7016Y-10.3299
X1.704Y-9.6179
X1.7075Y-6.3007
X1.7118Y-2.1147
X1.7118Y-4.4769
X1.7118Y-11.5635
X1.7181Y-9.2411
X1.7236Y-1.8661
X1.7236Y-2.2559
X1.7236Y-4.2283
X1.7236Y-4.6181
X1.7236Y-11.315
X1.7236Y-11.7047
X1.7256Y-2.4477
X1.7256Y-4.8099
X1.7256Y-11.8965
X1.7272Y-6.5054
X1.7276Y-7.4803
X1.7295Y-9.6437
X1.7315Y-7.7165
X1.7315Y-7.6063
X1.7315Y-10.315
X1.7355Y-9.2894
X1.739Y-6.2411
X1.7473Y-2.1811
X1.7473Y-4.5433
X1.7473Y-11.6299
X1.7512Y-2.5157
X1.7512Y-4.878
X1.7512Y-11.9646
X1.7551Y-9.5516
X1.7591Y-10.2087
X1.7669Y-9.2953
X1.7748Y-9.2126
X1.7784Y-2.1555
X1.7784Y-2.5827
X1.7784Y-4.5177
X1.7784Y-4.9449
X1.7784Y-11.6043
X1.7784Y-12.0315
X1.7866Y-8.5256
X1.7906Y-6.8031
X1.7937Y-6.5463
X1.7945Y-10.0
X1.8063Y-2.1772
X1.8063Y-2.878
X1.8063Y-4.5394
X1.8063Y-5.2402
X1.8063Y-7.3189
X1.8063Y-8.5512
X1.8063Y-11.626
X1.8063Y-12.3268
X1.8207Y-6.8245
X1.8216Y-6.5679
X1.832Y-7.0789
X1.8378Y-6.9122
X1.8418Y-2.2008
X1.8418Y-2.9331
X1.8418Y-4.563
X1.8418Y-5.2953
X1.8418Y-11.6496
X1.8418Y-12.3819
X1.8457Y-8.5787
X1.8492Y-6.8425
X1.8571Y-6.5915
X1.8654Y-9.5945
X1.8654Y-10.0276
X1.8811Y-2.2126
X1.8811Y-2.6102
X1.8811Y-4.5748
X1.8811Y-4.9724
X1.8811Y-11.6614
X1.8811Y-12.0591
X1.9008Y-8.9252
X1.9008Y-9.2008
X1.9362Y-6.626
X1.9439Y-1.8699
X1.9439Y-4.2321
X1.9439Y-11.3187
X1.9461Y-2.2134
X1.9461Y-4.5756
X1.9461Y-11.6622
X1.9592Y-6.2607
X1.9736Y-2.234
X1.9736Y-4.5962
X1.9736Y-11.6828
X1.9795Y-1.8504
X1.9795Y-4.2126
X1.9795Y-11.2992
X1.9815Y-8.9409
X1.9874Y-6.6299
X1.9949Y-6.2411
X1.9992Y-2.2598
X1.9992Y-4.622
X1.9992Y-11.7087
X2.0051Y-1.9055
X2.0051Y-4.2677
X2.0051Y-11.3543
X2.015Y-6.6496
X2.0205Y-6.2963
X2.0248Y-2.1677
X2.0248Y-4.5299
X2.0248Y-11.6165
X2.0309Y-3.0569
X2.0309Y-5.4191
X2.0309Y-12.5057
X2.0366Y-3.8976
X2.0366Y-4.0551
X2.0366Y-8.622
X2.0366Y-8.7795
X2.0366Y-10.9843
X2.0366Y-11.1417
X2.0386Y-6.7205
X2.0402Y-6.5584
X2.0464Y-7.6378
X2.0504Y-7.3661
X2.0544Y-4.5827
X2.0544Y-11.6693
X2.0583Y-12.4764
X2.0583Y-9.9764
X2.0622Y-5.3898
X2.0622Y-6.2835
X2.0662Y-7.4331
X2.0701Y-7.0945
X2.0819Y-5.0472
X2.0819Y-5.1732
X2.0819Y-5.3504
X2.0819Y-9.8976
X2.0819Y-10.0748
X2.0839Y-11.6142
X2.0858Y-4.7205
X2.0858Y-4.8543
X2.0858Y-9.5197
X2.0858Y-9.5787
X2.0898Y-4.5354
X2.0898Y-7.3543
X2.0898Y-9.2598
X2.0898Y-12.437
X2.0937Y-6.3425
X2.1095Y-11.4094
X2.1134Y-7.1024
X2.1154Y-12.3642
X2.137Y-11.3504
X2.137Y-11.9173
X2.1449Y-1.5118
X2.1488Y-7.0197
X2.1488Y-7.1811
X2.1509Y-9.7756
X2.1528Y-8.815
X2.1528Y-8.9016
X2.1685Y-12.5197
X2.1725Y-12.1417
X2.2118Y-11.6654
X2.2118Y-12.3307
X2.2236Y-11.7953
X2.2236Y-11.9409
X2.3181Y-2.9016
X2.3299Y-7.1024
X2.3303Y-7.156
X2.3536Y-9.8189
X2.3571Y-6.6949
X2.3575Y-6.8504
X2.3575Y-7.3327
X2.3575Y-7.4803
X2.3575Y-7.6535
X2.3575Y-7.7953
X2.3575Y-8.8543
X2.3575Y-9.1732
X2.3732Y-9.7756
X2.4008Y-9.0591
X2.4008Y-9.2034
X2.4008Y-11.2717
X2.4087Y-7.626
X2.4166Y-4.0551
X2.4166Y-4.2756
X2.4166Y-8.7795
X2.4166Y-9.0
X2.4205Y-7.3583
X2.4205Y-7.5276
X2.4244Y-6.3346
X2.4244Y-6.5118
X2.4284Y-5.3543
X2.4284Y-5.5512
X2.4284Y-10.0787
X2.4284Y-10.2756
X2.4323Y-4.7244
X2.4323Y-5.2323
X2.4323Y-6.251
X2.4323Y-7.8401
X2.4323Y-9.9567
X2.4362Y-4.5945
X2.4362Y-4.9134
X2.4362Y-5.0512
X2.4362Y-6.5787
X2.4362Y-9.3189
X2.4362Y-9.5197
X2.4362Y-9.6378
X2.4402Y-4.122
X2.4402Y-6.8976
X2.4402Y-8.8189
X2.4441Y-10.9803
X2.4481Y-1.9134
X2.452Y-12.5236
X2.452Y-12.6614
X2.4717Y-11.7047
X2.4795Y-11.1417
X2.4795Y-11.4134
X2.4914Y-12.1457
X2.4943Y-8.9331
X2.4953Y-9.5197
X2.4992Y-3.2283
X2.511Y-12.5472
X2.5347Y-1.4948
X2.5465Y-4.8425
X2.5465Y-2.7323
X2.5504Y-4.2047
X2.5504Y-4.5236
X2.5504Y-5.1575
X2.5504Y-9.9567
X2.5544Y-3.8898
X2.5544Y-8.6142
X2.5583Y-5.4803
X2.5583Y-10.2047
X2.562Y-12.284
X2.5898Y-9.6811
X2.5937Y-3.1654
X2.5977Y-10.0157
X2.6134Y-3.2087
X2.6173Y-4.439
X2.6173Y-5.2283
X2.6252Y-1.5609
X2.6252Y-11.2402
X2.6252Y-11.4606
X2.6292Y-9.6811
X2.6292Y-9.9803
X2.641Y-11.9449
X2.6488Y-4.4173
X2.6488Y-5.1929
X2.6488Y-12.2795
X2.6528Y-7.6969
X2.6567Y-7.3031
X2.6567Y-7.4646
X2.6606Y-11.2638
X2.6606Y-11.4803
X2.6646Y-6.4882
X2.6646Y-7.3289
X2.6882Y-1.6417
X2.6882Y-3.1457
X2.6921Y-4.3307
X2.6921Y-5.1496
X2.7197Y-11.9764
X2.7276Y-4.7165
X2.7315Y-1.5866
X2.7315Y-4.5748
X2.7433Y-3.0512
X2.7433Y-6.4646
X2.7473Y-11.9331
X2.7512Y-4.7717
X2.7669Y-4.8661
X2.7709Y-4.3504
X2.7748Y-4.1535
X2.7748Y-3.0945
X2.7788Y-6.4488
X2.7984Y-1.6772
X2.7984Y-11.5079
X2.7984Y-11.685
X2.8024Y-9.0
X2.8024Y-9.1142
X2.8063Y-1.9488
X2.8063Y-5.1929
X2.8221Y-6.4291
X2.8221Y-6.6339
X2.8299Y-2.6496
X2.8299Y-11.2874
X2.8299Y-11.8701
X2.8339Y-4.2362
X2.8339Y-4.5197
X2.8339Y-8.878
X2.8378Y-2.0098
X2.8536Y-6.4055
X2.8536Y-6.5945
X2.8536Y-11.8268
X2.8573Y-3.0155
X2.8732Y-5.3898
X2.889Y-6.3819
X2.889Y-6.5157
X2.8929Y-10.0472
X2.9008Y-1.7205
X2.9047Y-4.3465
X2.9047Y-12.4803
X2.9087Y-1.6593
X2.9087Y-12.437
X2.9284Y-2.0149
X2.9323Y-4.3937
X2.9362Y-7.115
X2.9362Y-11.5394
X2.9362Y-11.7677
X2.9612Y-7.4816
X2.9638Y-12.0827
X2.9992Y-2.0945
X3.012Y-12.1083
X3.0386Y-2.0807
X3.0504Y-9.3701
X3.0622Y-12.0827
X3.074Y-9.4803
X3.0799Y-2.063
X3.0937Y-4.937
X3.0956Y-9.3898
X3.0977Y-11.5551
X3.1016Y-9.4606
X3.1134Y-4.5236
X3.1134Y-4.6378
X3.1134Y-4.7165
X3.1173Y-4.8622
X3.1228Y-9.4064
X3.141Y-11.685
X3.1528Y-4.937
X3.1528Y-9.437
X3.1528Y-11.7677
X3.1557Y-6.9065
X3.1961Y-4.7362
X3.2Y-4.5394
X3.2Y-4.6378
T2
X1.3205Y-2.0512
X1.3205Y-2.6733
X1.3205Y-4.4134
X1.3205Y-5.0355
X1.3205Y-6.7756
X1.3205Y-7.3977
X1.3205Y-9.1378
X1.3205Y-9.7599
X1.3205Y-11.5
X1.3205Y-12.1221
X1.3705Y-1.9646
X1.3705Y-2.7599
X1.3705Y-4.3268
X1.3705Y-5.1221
X1.3705Y-6.689
X1.3705Y-7.4843
X1.3705Y-9.0512
X1.3705Y-9.8465
X1.3705Y-11.4134
X1.3705Y-12.2087
X1.4205Y-1.878
X1.4205Y-2.8465
X1.4205Y-4.2402
X1.4205Y-5.2087
X1.4205Y-6.6024
X1.4205Y-7.5709
X1.4205Y-8.9646
X1.4205Y-9.9331
X1.4205Y-11.3268
X1.4205Y-12.2953
X1.4705Y-1.7914
X1.4705Y-2.9331
X1.4705Y-4.1536
X1.4705Y-5.2953
X1.4705Y-6.5158
X1.4705Y-7.6575
X1.4705Y-8.878
X1.4705Y-10.0197
X1.4705Y-11.2402
X1.4705Y-12.3819
X1.5205Y-1.7047
X1.5205Y-3.0197
X1.5205Y-4.067
X1.5205Y-5.3819
X1.5205Y-6.4292
X1.5205Y-7.7441
X1.5205Y-8.7914
X1.5205Y-10.1063
X1.5205Y-11.1536
X1.5205Y-12.4685
X2.0591Y-1.3937
X2.0591Y-3.3307
X2.0591Y-3.7559
X2.0591Y-5.6929
X2.0591Y-6.1181
X2.0591Y-8.0551
X2.0591Y-8.4803
X2.0591Y-10.4173
X2.0591Y-10.8425
X2.0591Y-12.7795
X2.1591Y-1.3937
X2.1591Y-3.3307
X2.1591Y-3.7559
X2.1591Y-5.6929
X2.1591Y-6.1181
X2.1591Y-8.0551
X2.1591Y-8.4803
X2.1591Y-10.4173
X2.1591Y-10.8425
X2.1591Y-12.7795
X2.2591Y-1.3937
X2.2591Y-3.3307
X2.2591Y-3.7559
X2.2591Y-5.6929
X2.2591Y-6.1181
X2.2591Y-8.0551
X2.2591Y-8.4803
X2.2591Y-10.4173
X2.2591Y-10.8425
X2.2591Y-12.7795
X2.3591Y-1.3937
X2.3591Y-3.3307
X2.3591Y-3.7559
X2.3591Y-5.6929
X2.3591Y-6.1181
X2.3591Y-8.0551
X2.3591Y-8.4803
X2.3591Y-10.4173
X2.3591Y-10.8425
X2.3591Y-12.7795
X2.4591Y-1.3937
X2.4591Y-3.3307
X2.4591Y-3.7559
X2.4591Y-5.6929
X2.4591Y-6.1181
X2.4591Y-8.0551
X2.4591Y-8.4803
X2.4591Y-10.4173
X2.4591Y-10.8425
X2.4591Y-12.7795
X3.0002Y-1.7038
X3.0002Y-4.066
X3.0002Y-6.4282
X3.0002Y-8.7904
X3.0002Y-11.1526
X3.0016Y-3.0193
X3.0016Y-5.3815
X3.0016Y-7.7437
X3.0016Y-10.1059
X3.0016Y-12.4681
X3.0502Y-1.7904
X3.0502Y-4.1526
X3.0502Y-6.5148
X3.0502Y-8.877
X3.0502Y-11.2392
X3.0516Y-2.9327
X3.0516Y-5.2949
X3.0516Y-7.6571
X3.0516Y-10.0193
X3.0516Y-12.3815
X3.1002Y-1.877
X3.1002Y-4.2392
X3.1002Y-6.6014
X3.1002Y-8.9636
X3.1002Y-11.3258
X3.1016Y-2.8461
X3.1016Y-5.2083
X3.1016Y-7.5705
X3.1016Y-9.9327
X3.1016Y-12.2949
X3.1502Y-1.9636
X3.1502Y-4.3258
X3.1502Y-6.688
X3.1502Y-9.0502
X3.1502Y-11.4124
X3.1516Y-2.7595
X3.1516Y-5.1217
X3.1516Y-7.4839
X3.1516Y-9.8461
X3.1516Y-12.2083
X3.2002Y-2.0502
X3.2002Y-4.4124
X3.2002Y-6.7746
X3.2002Y-9.1368
X3.2002Y-11.4991
X3.2016Y-2.6729
X3.2016Y-5.0351
X3.2016Y-7.3973
X3.2016Y-9.7595
X3.2016Y-12.1217
M30
