%TF.GenerationSoftware,KiCad,Pcbnew,8.0.8*%
%TF.CreationDate,2025-04-07T12:48:12-04:00*%
%TF.ProjectId,pcb_tile_game_tile_panelized,7063625f-7469-46c6-955f-67616d655f74,rev?*%
%TF.SameCoordinates,Original*%
%TF.FileFunction,Soldermask,Bot*%
%TF.FilePolarity,Negative*%
%FSLAX46Y46*%
G04 Gerber Fmt 4.6, Leading zero omitted, Abs format (unit mm)*
G04 Created by KiCad (PCBNEW 8.0.8) date 2025-04-07 12:48:12*
%MOMM*%
%LPD*%
G01*
G04 APERTURE LIST*
G04 Aperture macros list*
%AMHorizOval*
0 Thick line with rounded ends*
0 $1 width*
0 $2 $3 position (X,Y) of the first rounded end (center of the circle)*
0 $4 $5 position (X,Y) of the second rounded end (center of the circle)*
0 Add line between two ends*
20,1,$1,$2,$3,$4,$5,0*
0 Add two circle primitives to create the rounded ends*
1,1,$1,$2,$3*
1,1,$1,$4,$5*%
%AMRotRect*
0 Rectangle, with rotation*
0 The origin of the aperture is its center*
0 $1 length*
0 $2 width*
0 $3 Rotation angle, in degrees counterclockwise*
0 Add horizontal line*
21,1,$1,$2,0,0,$3*%
G04 Aperture macros list end*
%ADD10R,1.700000X1.700000*%
%ADD11O,1.700000X1.700000*%
%ADD12RotRect,1.700000X1.700000X150.000000*%
%ADD13HorizOval,1.700000X0.000000X0.000000X0.000000X0.000000X0*%
%ADD14RotRect,1.700000X1.700000X330.000000*%
%ADD15HorizOval,1.700000X0.000000X0.000000X0.000000X0.000000X0*%
%ADD16RotRect,1.700000X1.700000X210.000000*%
%ADD17HorizOval,1.700000X0.000000X0.000000X0.000000X0.000000X0*%
%ADD18RotRect,1.700000X1.700000X30.000000*%
%ADD19HorizOval,1.700000X0.000000X0.000000X0.000000X0.000000X0*%
G04 APERTURE END LIST*
D10*
%TO.C,J2*%
X52300508Y-84600000D03*
D11*
X54840508Y-84600000D03*
X57380508Y-84600000D03*
X59920508Y-84600000D03*
X62460508Y-84600000D03*
%TD*%
D12*
%TO.C,J3*%
X76240508Y-76689409D03*
D13*
X77510508Y-74489704D03*
X78780508Y-72290000D03*
X80050508Y-70090295D03*
X81320508Y-67890591D03*
%TD*%
D14*
%TO.C,J6*%
X38620508Y-43300591D03*
D15*
X37350508Y-45500296D03*
X36080508Y-47700000D03*
X34810508Y-49899705D03*
X33540508Y-52099409D03*
%TD*%
D16*
%TO.C,J4*%
X81283857Y-52075928D03*
D17*
X80013857Y-49876223D03*
X78743857Y-47676519D03*
X77473857Y-45476814D03*
X76203857Y-43277110D03*
%TD*%
D18*
%TO.C,J1*%
X33540508Y-67900591D03*
D19*
X34810508Y-70100296D03*
X36080508Y-72300000D03*
X37350508Y-74499705D03*
X38620508Y-76699409D03*
%TD*%
D10*
%TO.C,J5*%
X62460508Y-35400000D03*
D11*
X59920508Y-35400000D03*
X57380508Y-35400000D03*
X54840508Y-35400000D03*
X52300508Y-35400000D03*
%TD*%
D10*
%TO.C,J2*%
X52300508Y-144600000D03*
D11*
X54840508Y-144600000D03*
X57380508Y-144600000D03*
X59920508Y-144600000D03*
X62460508Y-144600000D03*
%TD*%
D12*
%TO.C,J3*%
X76240508Y-136689409D03*
D13*
X77510508Y-134489704D03*
X78780508Y-132290000D03*
X80050508Y-130090295D03*
X81320508Y-127890591D03*
%TD*%
D14*
%TO.C,J6*%
X38620508Y-103300591D03*
D15*
X37350508Y-105500296D03*
X36080508Y-107700000D03*
X34810508Y-109899705D03*
X33540508Y-112099409D03*
%TD*%
D16*
%TO.C,J4*%
X81283857Y-112075928D03*
D17*
X80013857Y-109876223D03*
X78743857Y-107676519D03*
X77473857Y-105476814D03*
X76203857Y-103277110D03*
%TD*%
D18*
%TO.C,J1*%
X33540508Y-127900591D03*
D19*
X34810508Y-130100296D03*
X36080508Y-132300000D03*
X37350508Y-134499705D03*
X38620508Y-136699409D03*
%TD*%
D10*
%TO.C,J5*%
X62460508Y-95400000D03*
D11*
X59920508Y-95400000D03*
X57380508Y-95400000D03*
X54840508Y-95400000D03*
X52300508Y-95400000D03*
%TD*%
D10*
%TO.C,J2*%
X52300508Y-204600000D03*
D11*
X54840508Y-204600000D03*
X57380508Y-204600000D03*
X59920508Y-204600000D03*
X62460508Y-204600000D03*
%TD*%
D12*
%TO.C,J3*%
X76240508Y-196689409D03*
D13*
X77510508Y-194489704D03*
X78780508Y-192290000D03*
X80050508Y-190090295D03*
X81320508Y-187890591D03*
%TD*%
D14*
%TO.C,J6*%
X38620508Y-163300591D03*
D15*
X37350508Y-165500296D03*
X36080508Y-167700000D03*
X34810508Y-169899705D03*
X33540508Y-172099409D03*
%TD*%
D16*
%TO.C,J4*%
X81283857Y-172075928D03*
D17*
X80013857Y-169876223D03*
X78743857Y-167676519D03*
X77473857Y-165476814D03*
X76203857Y-163277110D03*
%TD*%
D18*
%TO.C,J1*%
X33540508Y-187900591D03*
D19*
X34810508Y-190100296D03*
X36080508Y-192300000D03*
X37350508Y-194499705D03*
X38620508Y-196699409D03*
%TD*%
D10*
%TO.C,J5*%
X62460508Y-155400000D03*
D11*
X59920508Y-155400000D03*
X57380508Y-155400000D03*
X54840508Y-155400000D03*
X52300508Y-155400000D03*
%TD*%
D10*
%TO.C,J2*%
X52300508Y-264600000D03*
D11*
X54840508Y-264600000D03*
X57380508Y-264600000D03*
X59920508Y-264600000D03*
X62460508Y-264600000D03*
%TD*%
D12*
%TO.C,J3*%
X76240508Y-256689409D03*
D13*
X77510508Y-254489704D03*
X78780508Y-252290000D03*
X80050508Y-250090295D03*
X81320508Y-247890591D03*
%TD*%
D14*
%TO.C,J6*%
X38620508Y-223300591D03*
D15*
X37350508Y-225500296D03*
X36080508Y-227700000D03*
X34810508Y-229899705D03*
X33540508Y-232099409D03*
%TD*%
D16*
%TO.C,J4*%
X81283857Y-232075928D03*
D17*
X80013857Y-229876223D03*
X78743857Y-227676519D03*
X77473857Y-225476814D03*
X76203857Y-223277110D03*
%TD*%
D18*
%TO.C,J1*%
X33540508Y-247900591D03*
D19*
X34810508Y-250100296D03*
X36080508Y-252300000D03*
X37350508Y-254499705D03*
X38620508Y-256699409D03*
%TD*%
D10*
%TO.C,J5*%
X62460508Y-215400000D03*
D11*
X59920508Y-215400000D03*
X57380508Y-215400000D03*
X54840508Y-215400000D03*
X52300508Y-215400000D03*
%TD*%
D10*
%TO.C,J2*%
X52300508Y-324600000D03*
D11*
X54840508Y-324600000D03*
X57380508Y-324600000D03*
X59920508Y-324600000D03*
X62460508Y-324600000D03*
%TD*%
D12*
%TO.C,J3*%
X76240508Y-316689409D03*
D13*
X77510508Y-314489704D03*
X78780508Y-312290000D03*
X80050508Y-310090295D03*
X81320508Y-307890591D03*
%TD*%
D14*
%TO.C,J6*%
X38620508Y-283300591D03*
D15*
X37350508Y-285500296D03*
X36080508Y-287700000D03*
X34810508Y-289899705D03*
X33540508Y-292099409D03*
%TD*%
D16*
%TO.C,J4*%
X81283857Y-292075928D03*
D17*
X80013857Y-289876223D03*
X78743857Y-287676519D03*
X77473857Y-285476814D03*
X76203857Y-283277110D03*
%TD*%
D18*
%TO.C,J1*%
X33540508Y-307900591D03*
D19*
X34810508Y-310100296D03*
X36080508Y-312300000D03*
X37350508Y-314499705D03*
X38620508Y-316699409D03*
%TD*%
D10*
%TO.C,J5*%
X62460508Y-275400000D03*
D11*
X59920508Y-275400000D03*
X57380508Y-275400000D03*
X54840508Y-275400000D03*
X52300508Y-275400000D03*
%TD*%
M02*
