%TF.GenerationSoftware,KiCad,Pcbnew,8.0.8*%
%TF.CreationDate,2025-04-07T12:59:42-04:00*%
%TF.ProjectId,pcb_tile_game_tile_aaa,7063625f-7469-46c6-955f-67616d655f74,1.0*%
%TF.SameCoordinates,Original*%
%TF.FileFunction,Profile,NP*%
%FSLAX46Y46*%
G04 Gerber Fmt 4.6, Leading zero omitted, Abs format (unit mm)*
G04 Created by KiCad (PCBNEW 8.0.8) date 2025-04-07 12:59:42*
%MOMM*%
%LPD*%
G01*
G04 APERTURE LIST*
%TA.AperFunction,Profile*%
%ADD10C,0.200000*%
%TD*%
%TA.AperFunction,Profile*%
%ADD11C,0.100000*%
%TD*%
G04 APERTURE END LIST*
D10*
X122739492Y-110000000D02*
X157380508Y-110000000D01*
X157380508Y-110000000D02*
X174701016Y-80000000D01*
X174701016Y-80000000D02*
X157380508Y-50000000D01*
X122739492Y-50000000D02*
X105418984Y-80000000D01*
X105418984Y-80000000D02*
X122739492Y-110000000D01*
X157380508Y-50000000D02*
X122739492Y-50000000D01*
D11*
%TO.C,LED2*%
X149840787Y-66431357D02*
X150635239Y-65055325D01*
X151295730Y-68317003D02*
X150078372Y-67614161D01*
X151778371Y-64669677D02*
X152995729Y-65372519D01*
X153233315Y-66555324D02*
X152438863Y-67931356D01*
X149840787Y-66431357D02*
G75*
G02*
X149655509Y-66615669I-433018J250006D01*
G01*
X149865808Y-67548578D02*
G75*
G02*
X149655510Y-66615671I37436J498595D01*
G01*
X149865808Y-67548578D02*
G75*
G02*
X150078372Y-67614159I-37220J-497914D01*
G01*
X150702219Y-64802712D02*
G75*
G02*
X150635239Y-65055324I-500002J-2610D01*
G01*
X150702219Y-64802712D02*
G75*
G02*
X151615292Y-64518382I499994J2610D01*
G01*
X151295730Y-68317003D02*
G75*
G02*
X151458809Y-68468298I-249869J-432870D01*
G01*
X151778371Y-64669677D02*
G75*
G02*
X151615292Y-64518382I249982J432991D01*
G01*
X152371882Y-68183968D02*
G75*
G02*
X151458813Y-68468294I-499989J-2615D01*
G01*
X152371882Y-68183968D02*
G75*
G02*
X152438863Y-67931356I500046J2596D01*
G01*
X153208293Y-65438102D02*
G75*
G02*
X152995730Y-65372519I37433J498586D01*
G01*
X153208293Y-65438102D02*
G75*
G02*
X153418591Y-66371011I-37435J-498596D01*
G01*
X153233315Y-66555324D02*
G75*
G02*
X153418592Y-66371012I433013J-250002D01*
G01*
%TO.C,LED10*%
X120910001Y-83882842D02*
X120910001Y-82477158D01*
X121815547Y-81680001D02*
X123404452Y-81680001D01*
X123404452Y-84680000D02*
X121815548Y-84680000D01*
X124309999Y-82477158D02*
X124309999Y-83882842D01*
X120860516Y-82260280D02*
G75*
G02*
X120910003Y-82477157I-449816J-216724D01*
G01*
X120860516Y-82260280D02*
G75*
G02*
X121563287Y-81611705I450514J216876D01*
G01*
X120910001Y-83882842D02*
G75*
G02*
X120860514Y-84099719I-499701J-62D01*
G01*
X121563289Y-84748299D02*
G75*
G02*
X120860522Y-84099722I-252259J431695D01*
G01*
X121563289Y-84748299D02*
G75*
G02*
X121815548Y-84679999I252261J-431705D01*
G01*
X121815547Y-81680001D02*
G75*
G02*
X121563289Y-81611702I3J500007D01*
G01*
X123404452Y-84680000D02*
G75*
G02*
X123656710Y-84748299I-3J-500009D01*
G01*
X123656711Y-81611701D02*
G75*
G02*
X123404453Y-81680000I-252261J431710D01*
G01*
X123656711Y-81611701D02*
G75*
G02*
X124359484Y-82260280I252258J-431701D01*
G01*
X124309999Y-82477158D02*
G75*
G02*
X124359484Y-82260280I499990J2D01*
G01*
X124359484Y-84099720D02*
G75*
G02*
X123656711Y-84748297I-450515J-216877D01*
G01*
X124359484Y-84099720D02*
G75*
G02*
X124309999Y-83882843I450505J216876D01*
G01*
%TO.C,LED8*%
X155677838Y-92435387D02*
X156472292Y-91059356D01*
X157132782Y-94321035D02*
X155915425Y-93618192D01*
X157615422Y-90673708D02*
X158832782Y-91376549D01*
X159070365Y-92559354D02*
X158275914Y-93935386D01*
X155677838Y-92435387D02*
G75*
G02*
X155492562Y-92619698I-433042J250030D01*
G01*
X155702859Y-93552609D02*
G75*
G02*
X155492562Y-92619701I37439J498596D01*
G01*
X155702859Y-93552609D02*
G75*
G02*
X155915423Y-93618191I-37410J-498524D01*
G01*
X156539270Y-90806744D02*
G75*
G02*
X156472294Y-91059357I-499971J-2626D01*
G01*
X156539270Y-90806744D02*
G75*
G02*
X157452341Y-90522417I499990J2616D01*
G01*
X157132782Y-94321035D02*
G75*
G02*
X157295861Y-94472328I-249946J-432955D01*
G01*
X157615422Y-90673708D02*
G75*
G02*
X157452345Y-90522412I249798J432785D01*
G01*
X158208933Y-94187998D02*
G75*
G02*
X157295861Y-94472328I-499992J-2614D01*
G01*
X158208933Y-94187998D02*
G75*
G02*
X158275915Y-93935387I500014J2603D01*
G01*
X159045348Y-91442133D02*
G75*
G02*
X158832782Y-91376549I37494J498793D01*
G01*
X159045348Y-91442133D02*
G75*
G02*
X159255644Y-92375039I-37439J-498595D01*
G01*
X159070365Y-92559354D02*
G75*
G02*
X159255646Y-92375043I432972J-249967D01*
G01*
%TO.C,LED1*%
X156208370Y-66601720D02*
X157425728Y-65898878D01*
X156765238Y-69160557D02*
X155970785Y-67784525D01*
X158568861Y-66284525D02*
X159363313Y-67660557D01*
X159125727Y-68843362D02*
X157908369Y-69546204D01*
X155785506Y-67600212D02*
G75*
G02*
X155970784Y-67784525I-247741J-434320D01*
G01*
X155785506Y-67600212D02*
G75*
G02*
X155995806Y-66667302I247736J434313D01*
G01*
X156208370Y-66601720D02*
G75*
G02*
X155995806Y-66667303I-249996J433004D01*
G01*
X156765238Y-69160557D02*
G75*
G02*
X156832218Y-69413168I-433021J-250001D01*
G01*
X157588807Y-65747583D02*
G75*
G02*
X157425729Y-65898877I-413062J281696D01*
G01*
X157588807Y-65747583D02*
G75*
G02*
X158501878Y-66031914I413078J-281720D01*
G01*
X157745290Y-69697499D02*
G75*
G02*
X156832220Y-69413168I-413078J281719D01*
G01*
X157745290Y-69697499D02*
G75*
G02*
X157908367Y-69546204I412596J-281190D01*
G01*
X158568861Y-66284525D02*
G75*
G02*
X158501880Y-66031914I433033J250007D01*
G01*
X159125727Y-68843362D02*
G75*
G02*
X159338291Y-68777779I249886J-432652D01*
G01*
X159548591Y-67844870D02*
G75*
G02*
X159338290Y-68777772I-247730J-434310D01*
G01*
X159548591Y-67844870D02*
G75*
G02*
X159363312Y-67660557I247737J434317D01*
G01*
%TO.C,LED3*%
X144687935Y-63456357D02*
X145482387Y-62080325D01*
X146142878Y-65342003D02*
X144925520Y-64639161D01*
X146625519Y-61694677D02*
X147842877Y-62397519D01*
X148080463Y-63580324D02*
X147286011Y-64956356D01*
X144687935Y-63456357D02*
G75*
G02*
X144502657Y-63640669I-433018J250006D01*
G01*
X144712956Y-64573578D02*
G75*
G02*
X144502658Y-63640671I37436J498595D01*
G01*
X144712956Y-64573578D02*
G75*
G02*
X144925520Y-64639159I-37220J-497914D01*
G01*
X145549367Y-61827712D02*
G75*
G02*
X145482387Y-62080324I-500002J-2610D01*
G01*
X145549367Y-61827712D02*
G75*
G02*
X146462440Y-61543382I499994J2610D01*
G01*
X146142878Y-65342003D02*
G75*
G02*
X146305957Y-65493298I-249869J-432870D01*
G01*
X146625519Y-61694677D02*
G75*
G02*
X146462440Y-61543382I249982J432991D01*
G01*
X147219030Y-65208968D02*
G75*
G02*
X146305961Y-65493294I-499989J-2615D01*
G01*
X147219030Y-65208968D02*
G75*
G02*
X147286011Y-64956356I500046J2596D01*
G01*
X148055441Y-62463102D02*
G75*
G02*
X147842878Y-62397519I37433J498586D01*
G01*
X148055441Y-62463102D02*
G75*
G02*
X148265739Y-63396011I-37435J-498596D01*
G01*
X148080463Y-63580324D02*
G75*
G02*
X148265740Y-63396012I433013J-250002D01*
G01*
%TO.C,LED5*%
X140227151Y-101945310D02*
X140227151Y-100539626D01*
X141132698Y-99742470D02*
X142721602Y-99742469D01*
X142721603Y-102742468D02*
X141132697Y-102742468D01*
X143627150Y-100539626D02*
X143627149Y-101945310D01*
X140177667Y-100322748D02*
G75*
G02*
X140227149Y-100539624I-451617J-217124D01*
G01*
X140177667Y-100322748D02*
G75*
G02*
X140880436Y-99674173I450513J216876D01*
G01*
X140227151Y-101945310D02*
G75*
G02*
X140177664Y-102162187I-499701J-62D01*
G01*
X140880439Y-102810767D02*
G75*
G02*
X140177660Y-102162184I-252259J431705D01*
G01*
X140880439Y-102810767D02*
G75*
G02*
X141132697Y-102742469I252251J-431685D01*
G01*
X141132698Y-99742470D02*
G75*
G02*
X140880439Y-99674168I12J500028D01*
G01*
X142721603Y-102742468D02*
G75*
G02*
X142973860Y-102810767I-2J-500001D01*
G01*
X142973862Y-99674168D02*
G75*
G02*
X142721603Y-99742468I-252259J431696D01*
G01*
X142973862Y-99674168D02*
G75*
G02*
X143676634Y-100322749I252254J-431705D01*
G01*
X143627150Y-100539626D02*
G75*
G02*
X143676634Y-100322749I499923J18D01*
G01*
X143676635Y-102162188D02*
G75*
G02*
X142973862Y-102810764I-450515J-216876D01*
G01*
X143676635Y-102162188D02*
G75*
G02*
X143627149Y-101945310I450401J216855D01*
G01*
%TO.C,LED12*%
X118904217Y-71234683D02*
X119698669Y-69858651D01*
X120359160Y-73120329D02*
X119141802Y-72417487D01*
X120841801Y-69473003D02*
X122059159Y-70175845D01*
X122296745Y-71358650D02*
X121502293Y-72734682D01*
X118904217Y-71234683D02*
G75*
G02*
X118718939Y-71418995I-433018J250006D01*
G01*
X118929238Y-72351904D02*
G75*
G02*
X118718940Y-71418997I37436J498595D01*
G01*
X118929238Y-72351904D02*
G75*
G02*
X119141802Y-72417485I-37220J-497914D01*
G01*
X119765649Y-69606038D02*
G75*
G02*
X119698669Y-69858650I-500002J-2610D01*
G01*
X119765649Y-69606038D02*
G75*
G02*
X120678722Y-69321708I499994J2610D01*
G01*
X120359160Y-73120329D02*
G75*
G02*
X120522238Y-73271625I-249797J-432785D01*
G01*
X120841801Y-69473003D02*
G75*
G02*
X120678722Y-69321708I249982J432991D01*
G01*
X121435312Y-72987294D02*
G75*
G02*
X120522243Y-73271620I-499989J-2615D01*
G01*
X121435312Y-72987294D02*
G75*
G02*
X121502293Y-72734682I500046J2596D01*
G01*
X122271723Y-70241428D02*
G75*
G02*
X122059160Y-70175845I37433J498586D01*
G01*
X122271723Y-70241428D02*
G75*
G02*
X122482021Y-71174337I-37435J-498596D01*
G01*
X122296745Y-71358650D02*
G75*
G02*
X122482022Y-71174338I433013J-250002D01*
G01*
%TO.C,LED6*%
X144597989Y-95427513D02*
X145815347Y-94724671D01*
X145154855Y-97986350D02*
X144360403Y-96610318D01*
X146958478Y-95110318D02*
X147752931Y-96486350D01*
X147515346Y-97669155D02*
X146297988Y-98371997D01*
X144175125Y-96426005D02*
G75*
G02*
X144360404Y-96610318I-247737J-434317D01*
G01*
X144175125Y-96426005D02*
G75*
G02*
X144385426Y-95493103I247730J434310D01*
G01*
X144597989Y-95427513D02*
G75*
G02*
X144385425Y-95493096I-249886J432652D01*
G01*
X145154855Y-97986350D02*
G75*
G02*
X145221836Y-98238961I-433033J-250007D01*
G01*
X145978426Y-94573376D02*
G75*
G02*
X145815349Y-94724671I-412596J281190D01*
G01*
X145978426Y-94573376D02*
G75*
G02*
X146891496Y-94857707I413078J-281719D01*
G01*
X146134909Y-98523292D02*
G75*
G02*
X145221838Y-98238961I-413078J281720D01*
G01*
X146134909Y-98523292D02*
G75*
G02*
X146297987Y-98371998I413062J-281696D01*
G01*
X146958478Y-95110318D02*
G75*
G02*
X146891498Y-94857707I433021J250001D01*
G01*
X147515346Y-97669155D02*
G75*
G02*
X147727910Y-97603572I249996J-433004D01*
G01*
X147938210Y-96670663D02*
G75*
G02*
X147727910Y-97603573I-247736J-434313D01*
G01*
X147938210Y-96670663D02*
G75*
G02*
X147752932Y-96486350I247741J434320D01*
G01*
%TO.C,LED9*%
X119001802Y-87942513D02*
X120219160Y-87239671D01*
X119558669Y-90501350D02*
X118764216Y-89125319D01*
X121362291Y-87625318D02*
X122156744Y-89001350D01*
X121919159Y-90184155D02*
X120701801Y-90886997D01*
X118578938Y-88941005D02*
G75*
G02*
X118764216Y-89125319I-247695J-434270D01*
G01*
X118578938Y-88941005D02*
G75*
G02*
X118789239Y-88008103I247730J434310D01*
G01*
X119001802Y-87942513D02*
G75*
G02*
X118789237Y-88008094I-249904J432723D01*
G01*
X119558669Y-90501350D02*
G75*
G02*
X119625649Y-90753961I-433015J-249999D01*
G01*
X120382239Y-87088377D02*
G75*
G02*
X120219162Y-87239672I-412596J281191D01*
G01*
X120382239Y-87088377D02*
G75*
G02*
X121295309Y-87372707I413078J-281718D01*
G01*
X120538722Y-91038292D02*
G75*
G02*
X119625651Y-90753961I-413078J281720D01*
G01*
X120538722Y-91038292D02*
G75*
G02*
X120701800Y-90886998I413062J-281696D01*
G01*
X121362291Y-87625318D02*
G75*
G02*
X121295311Y-87372707I433021J250001D01*
G01*
X121919159Y-90184155D02*
G75*
G02*
X122131724Y-90118572I249966J-432912D01*
G01*
X122342023Y-89185663D02*
G75*
G02*
X122131724Y-90118573I-247735J-434313D01*
G01*
X122342023Y-89185663D02*
G75*
G02*
X122156745Y-89001350I247741J434320D01*
G01*
%TO.C,LED4*%
X140670097Y-59420478D02*
X140670097Y-58014794D01*
X141575643Y-57217637D02*
X143164548Y-57217637D01*
X143164548Y-60217636D02*
X141575644Y-60217636D01*
X144070095Y-58014794D02*
X144070095Y-59420478D01*
X140620612Y-57797916D02*
G75*
G02*
X140670099Y-58014793I-449816J-216724D01*
G01*
X140620612Y-57797916D02*
G75*
G02*
X141323383Y-57149341I450514J216876D01*
G01*
X140670097Y-59420478D02*
G75*
G02*
X140620610Y-59637355I-499701J-62D01*
G01*
X141323385Y-60285935D02*
G75*
G02*
X140620618Y-59637358I-252259J431695D01*
G01*
X141323385Y-60285935D02*
G75*
G02*
X141575644Y-60217635I252261J-431705D01*
G01*
X141575643Y-57217637D02*
G75*
G02*
X141323385Y-57149338I3J500007D01*
G01*
X143164548Y-60217636D02*
G75*
G02*
X143416806Y-60285935I-3J-500009D01*
G01*
X143416807Y-57149337D02*
G75*
G02*
X143164549Y-57217636I-252261J431710D01*
G01*
X143416807Y-57149337D02*
G75*
G02*
X144119580Y-57797916I252258J-431701D01*
G01*
X144070095Y-58014794D02*
G75*
G02*
X144119580Y-57797916I499990J2D01*
G01*
X144119580Y-59637356D02*
G75*
G02*
X143416807Y-60285933I-450515J-216877D01*
G01*
X144119580Y-59637356D02*
G75*
G02*
X144070095Y-59420479I450505J216876D01*
G01*
%TO.C,LED7*%
X149750841Y-92452513D02*
X150968199Y-91749671D01*
X150307707Y-95011350D02*
X149513255Y-93635318D01*
X152111330Y-92135318D02*
X152905783Y-93511350D01*
X152668198Y-94694155D02*
X151450840Y-95396997D01*
X149327977Y-93451005D02*
G75*
G02*
X149513256Y-93635318I-247737J-434317D01*
G01*
X149327977Y-93451005D02*
G75*
G02*
X149538278Y-92518103I247730J434310D01*
G01*
X149750841Y-92452513D02*
G75*
G02*
X149538277Y-92518096I-249886J432652D01*
G01*
X150307707Y-95011350D02*
G75*
G02*
X150374688Y-95263961I-433033J-250007D01*
G01*
X151131278Y-91598376D02*
G75*
G02*
X150968201Y-91749671I-412596J281190D01*
G01*
X151131278Y-91598376D02*
G75*
G02*
X152044348Y-91882707I413078J-281719D01*
G01*
X151287761Y-95548292D02*
G75*
G02*
X150374690Y-95263961I-413078J281720D01*
G01*
X151287761Y-95548292D02*
G75*
G02*
X151450839Y-95396998I413062J-281696D01*
G01*
X152111330Y-92135318D02*
G75*
G02*
X152044350Y-91882707I433021J250001D01*
G01*
X152668198Y-94694155D02*
G75*
G02*
X152880762Y-94628572I249996J-433004D01*
G01*
X153091062Y-93695663D02*
G75*
G02*
X152880762Y-94628573I-247736J-434313D01*
G01*
X153091062Y-93695663D02*
G75*
G02*
X152905784Y-93511350I247741J434320D01*
G01*
%TO.C,LED11*%
X120910001Y-77942842D02*
X120910001Y-76537158D01*
X121815547Y-75740001D02*
X123404452Y-75740001D01*
X123404452Y-78740000D02*
X121815548Y-78740000D01*
X124309999Y-76537158D02*
X124309999Y-77942842D01*
X120860516Y-76320280D02*
G75*
G02*
X120910003Y-76537157I-449816J-216724D01*
G01*
X120860516Y-76320280D02*
G75*
G02*
X121563287Y-75671705I450514J216876D01*
G01*
X120910001Y-77942842D02*
G75*
G02*
X120860514Y-78159719I-499701J-62D01*
G01*
X121563289Y-78808299D02*
G75*
G02*
X120860522Y-78159722I-252259J431695D01*
G01*
X121563289Y-78808299D02*
G75*
G02*
X121815548Y-78739999I252261J-431705D01*
G01*
X121815547Y-75740001D02*
G75*
G02*
X121563289Y-75671702I3J500007D01*
G01*
X123404452Y-78740000D02*
G75*
G02*
X123656710Y-78808299I-3J-500009D01*
G01*
X123656711Y-75671701D02*
G75*
G02*
X123404453Y-75740000I-252261J431710D01*
G01*
X123656711Y-75671701D02*
G75*
G02*
X124359484Y-76320280I252258J-431701D01*
G01*
X124309999Y-76537158D02*
G75*
G02*
X124359484Y-76320280I499990J2D01*
G01*
X124359484Y-78159720D02*
G75*
G02*
X123656711Y-78808297I-450515J-216877D01*
G01*
X124359484Y-78159720D02*
G75*
G02*
X124309999Y-77942843I450505J216876D01*
G01*
%TD*%
M02*
