%TF.GenerationSoftware,KiCad,Pcbnew,8.0.8*%
%TF.CreationDate,2025-04-07T12:59:42-04:00*%
%TF.ProjectId,pcb_tile_game_tile_aaa,7063625f-7469-46c6-955f-67616d655f74,1.0*%
%TF.SameCoordinates,Original*%
%TF.FileFunction,Legend,Top*%
%TF.FilePolarity,Positive*%
%FSLAX46Y46*%
G04 Gerber Fmt 4.6, Leading zero omitted, Abs format (unit mm)*
G04 Created by KiCad (PCBNEW 8.0.8) date 2025-04-07 12:59:42*
%MOMM*%
%LPD*%
G01*
G04 APERTURE LIST*
%ADD10C,0.400000*%
%ADD11C,0.200000*%
%ADD12C,0.150000*%
%ADD13C,0.120000*%
%ADD14C,0.000000*%
%ADD15C,0.100000*%
G04 APERTURE END LIST*
D10*
X142417142Y-82404438D02*
X141750475Y-81452057D01*
X141274285Y-82404438D02*
X141274285Y-80404438D01*
X141274285Y-80404438D02*
X142036190Y-80404438D01*
X142036190Y-80404438D02*
X142226666Y-80499676D01*
X142226666Y-80499676D02*
X142321904Y-80594914D01*
X142321904Y-80594914D02*
X142417142Y-80785390D01*
X142417142Y-80785390D02*
X142417142Y-81071104D01*
X142417142Y-81071104D02*
X142321904Y-81261580D01*
X142321904Y-81261580D02*
X142226666Y-81356819D01*
X142226666Y-81356819D02*
X142036190Y-81452057D01*
X142036190Y-81452057D02*
X141274285Y-81452057D01*
X144036190Y-82309200D02*
X143845714Y-82404438D01*
X143845714Y-82404438D02*
X143464761Y-82404438D01*
X143464761Y-82404438D02*
X143274285Y-82309200D01*
X143274285Y-82309200D02*
X143179047Y-82118723D01*
X143179047Y-82118723D02*
X143179047Y-81356819D01*
X143179047Y-81356819D02*
X143274285Y-81166342D01*
X143274285Y-81166342D02*
X143464761Y-81071104D01*
X143464761Y-81071104D02*
X143845714Y-81071104D01*
X143845714Y-81071104D02*
X144036190Y-81166342D01*
X144036190Y-81166342D02*
X144131428Y-81356819D01*
X144131428Y-81356819D02*
X144131428Y-81547295D01*
X144131428Y-81547295D02*
X143179047Y-81737771D01*
X144798095Y-81071104D02*
X145274285Y-82404438D01*
X145274285Y-82404438D02*
X145750476Y-81071104D01*
X149083810Y-82404438D02*
X147940953Y-82404438D01*
X148512381Y-82404438D02*
X148512381Y-80404438D01*
X148512381Y-80404438D02*
X148321905Y-80690152D01*
X148321905Y-80690152D02*
X148131429Y-80880628D01*
X148131429Y-80880628D02*
X147940953Y-80975866D01*
X149940953Y-82213961D02*
X150036191Y-82309200D01*
X150036191Y-82309200D02*
X149940953Y-82404438D01*
X149940953Y-82404438D02*
X149845715Y-82309200D01*
X149845715Y-82309200D02*
X149940953Y-82213961D01*
X149940953Y-82213961D02*
X149940953Y-82404438D01*
X151274286Y-80404438D02*
X151464763Y-80404438D01*
X151464763Y-80404438D02*
X151655239Y-80499676D01*
X151655239Y-80499676D02*
X151750477Y-80594914D01*
X151750477Y-80594914D02*
X151845715Y-80785390D01*
X151845715Y-80785390D02*
X151940953Y-81166342D01*
X151940953Y-81166342D02*
X151940953Y-81642533D01*
X151940953Y-81642533D02*
X151845715Y-82023485D01*
X151845715Y-82023485D02*
X151750477Y-82213961D01*
X151750477Y-82213961D02*
X151655239Y-82309200D01*
X151655239Y-82309200D02*
X151464763Y-82404438D01*
X151464763Y-82404438D02*
X151274286Y-82404438D01*
X151274286Y-82404438D02*
X151083810Y-82309200D01*
X151083810Y-82309200D02*
X150988572Y-82213961D01*
X150988572Y-82213961D02*
X150893334Y-82023485D01*
X150893334Y-82023485D02*
X150798096Y-81642533D01*
X150798096Y-81642533D02*
X150798096Y-81166342D01*
X150798096Y-81166342D02*
X150893334Y-80785390D01*
X150893334Y-80785390D02*
X150988572Y-80594914D01*
X150988572Y-80594914D02*
X151083810Y-80499676D01*
X151083810Y-80499676D02*
X151274286Y-80404438D01*
D11*
X123036191Y-53452219D02*
X123036191Y-54261742D01*
X123036191Y-54261742D02*
X123083810Y-54356980D01*
X123083810Y-54356980D02*
X123131429Y-54404600D01*
X123131429Y-54404600D02*
X123226667Y-54452219D01*
X123226667Y-54452219D02*
X123417143Y-54452219D01*
X123417143Y-54452219D02*
X123512381Y-54404600D01*
X123512381Y-54404600D02*
X123560000Y-54356980D01*
X123560000Y-54356980D02*
X123607619Y-54261742D01*
X123607619Y-54261742D02*
X123607619Y-53452219D01*
X124083810Y-54452219D02*
X124083810Y-53452219D01*
X124083810Y-53452219D02*
X124464762Y-53452219D01*
X124464762Y-53452219D02*
X124560000Y-53499838D01*
X124560000Y-53499838D02*
X124607619Y-53547457D01*
X124607619Y-53547457D02*
X124655238Y-53642695D01*
X124655238Y-53642695D02*
X124655238Y-53785552D01*
X124655238Y-53785552D02*
X124607619Y-53880790D01*
X124607619Y-53880790D02*
X124560000Y-53928409D01*
X124560000Y-53928409D02*
X124464762Y-53976028D01*
X124464762Y-53976028D02*
X124083810Y-53976028D01*
X125083810Y-54452219D02*
X125083810Y-53452219D01*
X125083810Y-53452219D02*
X125321905Y-53452219D01*
X125321905Y-53452219D02*
X125464762Y-53499838D01*
X125464762Y-53499838D02*
X125560000Y-53595076D01*
X125560000Y-53595076D02*
X125607619Y-53690314D01*
X125607619Y-53690314D02*
X125655238Y-53880790D01*
X125655238Y-53880790D02*
X125655238Y-54023647D01*
X125655238Y-54023647D02*
X125607619Y-54214123D01*
X125607619Y-54214123D02*
X125560000Y-54309361D01*
X125560000Y-54309361D02*
X125464762Y-54404600D01*
X125464762Y-54404600D02*
X125321905Y-54452219D01*
X125321905Y-54452219D02*
X125083810Y-54452219D01*
X126083810Y-54452219D02*
X126083810Y-53452219D01*
D10*
X135798094Y-78104438D02*
X135798094Y-76104438D01*
X135798094Y-76104438D02*
X136559999Y-76104438D01*
X136559999Y-76104438D02*
X136750475Y-76199676D01*
X136750475Y-76199676D02*
X136845713Y-76294914D01*
X136845713Y-76294914D02*
X136940951Y-76485390D01*
X136940951Y-76485390D02*
X136940951Y-76771104D01*
X136940951Y-76771104D02*
X136845713Y-76961580D01*
X136845713Y-76961580D02*
X136750475Y-77056819D01*
X136750475Y-77056819D02*
X136559999Y-77152057D01*
X136559999Y-77152057D02*
X135798094Y-77152057D01*
X138940951Y-77913961D02*
X138845713Y-78009200D01*
X138845713Y-78009200D02*
X138559999Y-78104438D01*
X138559999Y-78104438D02*
X138369523Y-78104438D01*
X138369523Y-78104438D02*
X138083808Y-78009200D01*
X138083808Y-78009200D02*
X137893332Y-77818723D01*
X137893332Y-77818723D02*
X137798094Y-77628247D01*
X137798094Y-77628247D02*
X137702856Y-77247295D01*
X137702856Y-77247295D02*
X137702856Y-76961580D01*
X137702856Y-76961580D02*
X137798094Y-76580628D01*
X137798094Y-76580628D02*
X137893332Y-76390152D01*
X137893332Y-76390152D02*
X138083808Y-76199676D01*
X138083808Y-76199676D02*
X138369523Y-76104438D01*
X138369523Y-76104438D02*
X138559999Y-76104438D01*
X138559999Y-76104438D02*
X138845713Y-76199676D01*
X138845713Y-76199676D02*
X138940951Y-76294914D01*
X140464761Y-77056819D02*
X140750475Y-77152057D01*
X140750475Y-77152057D02*
X140845713Y-77247295D01*
X140845713Y-77247295D02*
X140940951Y-77437771D01*
X140940951Y-77437771D02*
X140940951Y-77723485D01*
X140940951Y-77723485D02*
X140845713Y-77913961D01*
X140845713Y-77913961D02*
X140750475Y-78009200D01*
X140750475Y-78009200D02*
X140559999Y-78104438D01*
X140559999Y-78104438D02*
X139798094Y-78104438D01*
X139798094Y-78104438D02*
X139798094Y-76104438D01*
X139798094Y-76104438D02*
X140464761Y-76104438D01*
X140464761Y-76104438D02*
X140655237Y-76199676D01*
X140655237Y-76199676D02*
X140750475Y-76294914D01*
X140750475Y-76294914D02*
X140845713Y-76485390D01*
X140845713Y-76485390D02*
X140845713Y-76675866D01*
X140845713Y-76675866D02*
X140750475Y-76866342D01*
X140750475Y-76866342D02*
X140655237Y-76961580D01*
X140655237Y-76961580D02*
X140464761Y-77056819D01*
X140464761Y-77056819D02*
X139798094Y-77056819D01*
X143036190Y-76104438D02*
X144179047Y-76104438D01*
X143607618Y-78104438D02*
X143607618Y-76104438D01*
X144845714Y-78104438D02*
X144845714Y-76771104D01*
X144845714Y-76104438D02*
X144750476Y-76199676D01*
X144750476Y-76199676D02*
X144845714Y-76294914D01*
X144845714Y-76294914D02*
X144940952Y-76199676D01*
X144940952Y-76199676D02*
X144845714Y-76104438D01*
X144845714Y-76104438D02*
X144845714Y-76294914D01*
X146083809Y-78104438D02*
X145893333Y-78009200D01*
X145893333Y-78009200D02*
X145798095Y-77818723D01*
X145798095Y-77818723D02*
X145798095Y-76104438D01*
X147607619Y-78009200D02*
X147417143Y-78104438D01*
X147417143Y-78104438D02*
X147036190Y-78104438D01*
X147036190Y-78104438D02*
X146845714Y-78009200D01*
X146845714Y-78009200D02*
X146750476Y-77818723D01*
X146750476Y-77818723D02*
X146750476Y-77056819D01*
X146750476Y-77056819D02*
X146845714Y-76866342D01*
X146845714Y-76866342D02*
X147036190Y-76771104D01*
X147036190Y-76771104D02*
X147417143Y-76771104D01*
X147417143Y-76771104D02*
X147607619Y-76866342D01*
X147607619Y-76866342D02*
X147702857Y-77056819D01*
X147702857Y-77056819D02*
X147702857Y-77247295D01*
X147702857Y-77247295D02*
X146750476Y-77437771D01*
X151131429Y-76199676D02*
X150940953Y-76104438D01*
X150940953Y-76104438D02*
X150655239Y-76104438D01*
X150655239Y-76104438D02*
X150369524Y-76199676D01*
X150369524Y-76199676D02*
X150179048Y-76390152D01*
X150179048Y-76390152D02*
X150083810Y-76580628D01*
X150083810Y-76580628D02*
X149988572Y-76961580D01*
X149988572Y-76961580D02*
X149988572Y-77247295D01*
X149988572Y-77247295D02*
X150083810Y-77628247D01*
X150083810Y-77628247D02*
X150179048Y-77818723D01*
X150179048Y-77818723D02*
X150369524Y-78009200D01*
X150369524Y-78009200D02*
X150655239Y-78104438D01*
X150655239Y-78104438D02*
X150845715Y-78104438D01*
X150845715Y-78104438D02*
X151131429Y-78009200D01*
X151131429Y-78009200D02*
X151226667Y-77913961D01*
X151226667Y-77913961D02*
X151226667Y-77247295D01*
X151226667Y-77247295D02*
X150845715Y-77247295D01*
X152940953Y-78104438D02*
X152940953Y-77056819D01*
X152940953Y-77056819D02*
X152845715Y-76866342D01*
X152845715Y-76866342D02*
X152655239Y-76771104D01*
X152655239Y-76771104D02*
X152274286Y-76771104D01*
X152274286Y-76771104D02*
X152083810Y-76866342D01*
X152940953Y-78009200D02*
X152750477Y-78104438D01*
X152750477Y-78104438D02*
X152274286Y-78104438D01*
X152274286Y-78104438D02*
X152083810Y-78009200D01*
X152083810Y-78009200D02*
X151988572Y-77818723D01*
X151988572Y-77818723D02*
X151988572Y-77628247D01*
X151988572Y-77628247D02*
X152083810Y-77437771D01*
X152083810Y-77437771D02*
X152274286Y-77342533D01*
X152274286Y-77342533D02*
X152750477Y-77342533D01*
X152750477Y-77342533D02*
X152940953Y-77247295D01*
X153893334Y-78104438D02*
X153893334Y-76771104D01*
X153893334Y-76961580D02*
X153988572Y-76866342D01*
X153988572Y-76866342D02*
X154179048Y-76771104D01*
X154179048Y-76771104D02*
X154464763Y-76771104D01*
X154464763Y-76771104D02*
X154655239Y-76866342D01*
X154655239Y-76866342D02*
X154750477Y-77056819D01*
X154750477Y-77056819D02*
X154750477Y-78104438D01*
X154750477Y-77056819D02*
X154845715Y-76866342D01*
X154845715Y-76866342D02*
X155036191Y-76771104D01*
X155036191Y-76771104D02*
X155321905Y-76771104D01*
X155321905Y-76771104D02*
X155512382Y-76866342D01*
X155512382Y-76866342D02*
X155607620Y-77056819D01*
X155607620Y-77056819D02*
X155607620Y-78104438D01*
X157321906Y-78009200D02*
X157131430Y-78104438D01*
X157131430Y-78104438D02*
X156750477Y-78104438D01*
X156750477Y-78104438D02*
X156560001Y-78009200D01*
X156560001Y-78009200D02*
X156464763Y-77818723D01*
X156464763Y-77818723D02*
X156464763Y-77056819D01*
X156464763Y-77056819D02*
X156560001Y-76866342D01*
X156560001Y-76866342D02*
X156750477Y-76771104D01*
X156750477Y-76771104D02*
X157131430Y-76771104D01*
X157131430Y-76771104D02*
X157321906Y-76866342D01*
X157321906Y-76866342D02*
X157417144Y-77056819D01*
X157417144Y-77056819D02*
X157417144Y-77247295D01*
X157417144Y-77247295D02*
X156464763Y-77437771D01*
D12*
X155188073Y-58124127D02*
X155205502Y-58189176D01*
X155205502Y-58189176D02*
X155175313Y-58336703D01*
X155175313Y-58336703D02*
X155127694Y-58419182D01*
X155127694Y-58419182D02*
X155015026Y-58519090D01*
X155015026Y-58519090D02*
X154884929Y-58553950D01*
X154884929Y-58553950D02*
X154778640Y-58547570D01*
X154778640Y-58547570D02*
X154589874Y-58493571D01*
X154589874Y-58493571D02*
X154466156Y-58422143D01*
X154466156Y-58422143D02*
X154325008Y-58285665D01*
X154325008Y-58285665D02*
X154266339Y-58196807D01*
X154266339Y-58196807D02*
X154231479Y-58066709D01*
X154231479Y-58066709D02*
X154261669Y-57919182D01*
X154261669Y-57919182D02*
X154309288Y-57836703D01*
X154309288Y-57836703D02*
X154421956Y-57736795D01*
X154421956Y-57736795D02*
X154487004Y-57719365D01*
X154677481Y-57389451D02*
X154660051Y-57324402D01*
X154660051Y-57324402D02*
X154666431Y-57218114D01*
X154666431Y-57218114D02*
X154785478Y-57011917D01*
X154785478Y-57011917D02*
X154874337Y-56953248D01*
X154874337Y-56953248D02*
X154939385Y-56935818D01*
X154939385Y-56935818D02*
X155045674Y-56942198D01*
X155045674Y-56942198D02*
X155128152Y-56989817D01*
X155128152Y-56989817D02*
X155228061Y-57102485D01*
X155228061Y-57102485D02*
X155437218Y-57883071D01*
X155437218Y-57883071D02*
X155746742Y-57346960D01*
X131392142Y-78859582D02*
X131344523Y-78907202D01*
X131344523Y-78907202D02*
X131201666Y-78954821D01*
X131201666Y-78954821D02*
X131106428Y-78954821D01*
X131106428Y-78954821D02*
X130963571Y-78907202D01*
X130963571Y-78907202D02*
X130868333Y-78811963D01*
X130868333Y-78811963D02*
X130820714Y-78716725D01*
X130820714Y-78716725D02*
X130773095Y-78526249D01*
X130773095Y-78526249D02*
X130773095Y-78383392D01*
X130773095Y-78383392D02*
X130820714Y-78192916D01*
X130820714Y-78192916D02*
X130868333Y-78097678D01*
X130868333Y-78097678D02*
X130963571Y-78002440D01*
X130963571Y-78002440D02*
X131106428Y-77954821D01*
X131106428Y-77954821D02*
X131201666Y-77954821D01*
X131201666Y-77954821D02*
X131344523Y-78002440D01*
X131344523Y-78002440D02*
X131392142Y-78050059D01*
X132344523Y-78954821D02*
X131773095Y-78954821D01*
X132058809Y-78954821D02*
X132058809Y-77954821D01*
X132058809Y-77954821D02*
X131963571Y-78097678D01*
X131963571Y-78097678D02*
X131868333Y-78192916D01*
X131868333Y-78192916D02*
X131773095Y-78240535D01*
X133296904Y-78954821D02*
X132725476Y-78954821D01*
X133011190Y-78954821D02*
X133011190Y-77954821D01*
X133011190Y-77954821D02*
X132915952Y-78097678D01*
X132915952Y-78097678D02*
X132820714Y-78192916D01*
X132820714Y-78192916D02*
X132725476Y-78240535D01*
X152988074Y-56724127D02*
X153005503Y-56789176D01*
X153005503Y-56789176D02*
X152975314Y-56936703D01*
X152975314Y-56936703D02*
X152927695Y-57019182D01*
X152927695Y-57019182D02*
X152815027Y-57119090D01*
X152815027Y-57119090D02*
X152684930Y-57153950D01*
X152684930Y-57153950D02*
X152578641Y-57147570D01*
X152578641Y-57147570D02*
X152389875Y-57093571D01*
X152389875Y-57093571D02*
X152266157Y-57022143D01*
X152266157Y-57022143D02*
X152125009Y-56885665D01*
X152125009Y-56885665D02*
X152066340Y-56796807D01*
X152066340Y-56796807D02*
X152031480Y-56666709D01*
X152031480Y-56666709D02*
X152061670Y-56519182D01*
X152061670Y-56519182D02*
X152109289Y-56436703D01*
X152109289Y-56436703D02*
X152221957Y-56336795D01*
X152221957Y-56336795D02*
X152287005Y-56319365D01*
X152371194Y-55983071D02*
X152680717Y-55446960D01*
X152680717Y-55446960D02*
X152843965Y-55926111D01*
X152843965Y-55926111D02*
X152915394Y-55802393D01*
X152915394Y-55802393D02*
X153004252Y-55743724D01*
X153004252Y-55743724D02*
X153069301Y-55726295D01*
X153069301Y-55726295D02*
X153175589Y-55732674D01*
X153175589Y-55732674D02*
X153381786Y-55851722D01*
X153381786Y-55851722D02*
X153440455Y-55940580D01*
X153440455Y-55940580D02*
X153457884Y-56005629D01*
X153457884Y-56005629D02*
X153451505Y-56111917D01*
X153451505Y-56111917D02*
X153308647Y-56359353D01*
X153308647Y-56359353D02*
X153219789Y-56418022D01*
X153219789Y-56418022D02*
X153154740Y-56435452D01*
X131876666Y-104054819D02*
X131876666Y-104769104D01*
X131876666Y-104769104D02*
X131829047Y-104911961D01*
X131829047Y-104911961D02*
X131733809Y-105007200D01*
X131733809Y-105007200D02*
X131590952Y-105054819D01*
X131590952Y-105054819D02*
X131495714Y-105054819D01*
X132305238Y-104150057D02*
X132352857Y-104102438D01*
X132352857Y-104102438D02*
X132448095Y-104054819D01*
X132448095Y-104054819D02*
X132686190Y-104054819D01*
X132686190Y-104054819D02*
X132781428Y-104102438D01*
X132781428Y-104102438D02*
X132829047Y-104150057D01*
X132829047Y-104150057D02*
X132876666Y-104245295D01*
X132876666Y-104245295D02*
X132876666Y-104340533D01*
X132876666Y-104340533D02*
X132829047Y-104483390D01*
X132829047Y-104483390D02*
X132257619Y-105054819D01*
X132257619Y-105054819D02*
X132876666Y-105054819D01*
X126043333Y-68717319D02*
X125710000Y-68241128D01*
X125471905Y-68717319D02*
X125471905Y-67717319D01*
X125471905Y-67717319D02*
X125852857Y-67717319D01*
X125852857Y-67717319D02*
X125948095Y-67764938D01*
X125948095Y-67764938D02*
X125995714Y-67812557D01*
X125995714Y-67812557D02*
X126043333Y-67907795D01*
X126043333Y-67907795D02*
X126043333Y-68050652D01*
X126043333Y-68050652D02*
X125995714Y-68145890D01*
X125995714Y-68145890D02*
X125948095Y-68193509D01*
X125948095Y-68193509D02*
X125852857Y-68241128D01*
X125852857Y-68241128D02*
X125471905Y-68241128D01*
X126995714Y-68717319D02*
X126424286Y-68717319D01*
X126710000Y-68717319D02*
X126710000Y-67717319D01*
X126710000Y-67717319D02*
X126614762Y-67860176D01*
X126614762Y-67860176D02*
X126519524Y-67955414D01*
X126519524Y-67955414D02*
X126424286Y-68003033D01*
X156172792Y-101889137D02*
X156107743Y-101871707D01*
X156107743Y-101871707D02*
X155995075Y-101771799D01*
X155995075Y-101771799D02*
X155947456Y-101689320D01*
X155947456Y-101689320D02*
X155917267Y-101541793D01*
X155917267Y-101541793D02*
X155952127Y-101411695D01*
X155952127Y-101411695D02*
X156010796Y-101322837D01*
X156010796Y-101322837D02*
X156151943Y-101186359D01*
X156151943Y-101186359D02*
X156275661Y-101114931D01*
X156275661Y-101114931D02*
X156464428Y-101060932D01*
X156464428Y-101060932D02*
X156570716Y-101054552D01*
X156570716Y-101054552D02*
X156700814Y-101089412D01*
X156700814Y-101089412D02*
X156813482Y-101189320D01*
X156813482Y-101189320D02*
X156861101Y-101271799D01*
X156861101Y-101271799D02*
X156891290Y-101419326D01*
X156891290Y-101419326D02*
X156873860Y-101484375D01*
X156870900Y-102145913D02*
X156864520Y-102039625D01*
X156864520Y-102039625D02*
X156881950Y-101974576D01*
X156881950Y-101974576D02*
X156940619Y-101885718D01*
X156940619Y-101885718D02*
X156981858Y-101861908D01*
X156981858Y-101861908D02*
X157088146Y-101855529D01*
X157088146Y-101855529D02*
X157153195Y-101872958D01*
X157153195Y-101872958D02*
X157242053Y-101931628D01*
X157242053Y-101931628D02*
X157337291Y-102096585D01*
X157337291Y-102096585D02*
X157343671Y-102202873D01*
X157343671Y-102202873D02*
X157326241Y-102267922D01*
X157326241Y-102267922D02*
X157267572Y-102356780D01*
X157267572Y-102356780D02*
X157226333Y-102380590D01*
X157226333Y-102380590D02*
X157120045Y-102386969D01*
X157120045Y-102386969D02*
X157054996Y-102369540D01*
X157054996Y-102369540D02*
X156966138Y-102310870D01*
X156966138Y-102310870D02*
X156870900Y-102145913D01*
X156870900Y-102145913D02*
X156782041Y-102087244D01*
X156782041Y-102087244D02*
X156716992Y-102069814D01*
X156716992Y-102069814D02*
X156610704Y-102076194D01*
X156610704Y-102076194D02*
X156445747Y-102171432D01*
X156445747Y-102171432D02*
X156387078Y-102260291D01*
X156387078Y-102260291D02*
X156369648Y-102325339D01*
X156369648Y-102325339D02*
X156376028Y-102431628D01*
X156376028Y-102431628D02*
X156471266Y-102596585D01*
X156471266Y-102596585D02*
X156560124Y-102655254D01*
X156560124Y-102655254D02*
X156625173Y-102672684D01*
X156625173Y-102672684D02*
X156731461Y-102666304D01*
X156731461Y-102666304D02*
X156896418Y-102571066D01*
X156896418Y-102571066D02*
X156955088Y-102482207D01*
X156955088Y-102482207D02*
X156972517Y-102417159D01*
X156972517Y-102417159D02*
X156966138Y-102310870D01*
X126639580Y-73492857D02*
X126687200Y-73540476D01*
X126687200Y-73540476D02*
X126734819Y-73683333D01*
X126734819Y-73683333D02*
X126734819Y-73778571D01*
X126734819Y-73778571D02*
X126687200Y-73921428D01*
X126687200Y-73921428D02*
X126591961Y-74016666D01*
X126591961Y-74016666D02*
X126496723Y-74064285D01*
X126496723Y-74064285D02*
X126306247Y-74111904D01*
X126306247Y-74111904D02*
X126163390Y-74111904D01*
X126163390Y-74111904D02*
X125972914Y-74064285D01*
X125972914Y-74064285D02*
X125877676Y-74016666D01*
X125877676Y-74016666D02*
X125782438Y-73921428D01*
X125782438Y-73921428D02*
X125734819Y-73778571D01*
X125734819Y-73778571D02*
X125734819Y-73683333D01*
X125734819Y-73683333D02*
X125782438Y-73540476D01*
X125782438Y-73540476D02*
X125830057Y-73492857D01*
X126734819Y-72540476D02*
X126734819Y-73111904D01*
X126734819Y-72826190D02*
X125734819Y-72826190D01*
X125734819Y-72826190D02*
X125877676Y-72921428D01*
X125877676Y-72921428D02*
X125972914Y-73016666D01*
X125972914Y-73016666D02*
X126020533Y-73111904D01*
X126068152Y-71683333D02*
X126734819Y-71683333D01*
X125687200Y-71921428D02*
X126401485Y-72159523D01*
X126401485Y-72159523D02*
X126401485Y-71540476D01*
X151451054Y-103877070D02*
X151386005Y-103859640D01*
X151386005Y-103859640D02*
X151273337Y-103759732D01*
X151273337Y-103759732D02*
X151225718Y-103677253D01*
X151225718Y-103677253D02*
X151195529Y-103529726D01*
X151195529Y-103529726D02*
X151230389Y-103399628D01*
X151230389Y-103399628D02*
X151289058Y-103310770D01*
X151289058Y-103310770D02*
X151430205Y-103174292D01*
X151430205Y-103174292D02*
X151553923Y-103102864D01*
X151553923Y-103102864D02*
X151742690Y-103048865D01*
X151742690Y-103048865D02*
X151848978Y-103042485D01*
X151848978Y-103042485D02*
X151979076Y-103077345D01*
X151979076Y-103077345D02*
X152091744Y-103177253D01*
X152091744Y-103177253D02*
X152139363Y-103259732D01*
X152139363Y-103259732D02*
X152169552Y-103407259D01*
X152169552Y-103407259D02*
X152152122Y-103472308D01*
X152663172Y-104166996D02*
X152567934Y-104002039D01*
X152567934Y-104002039D02*
X152479076Y-103943370D01*
X152479076Y-103943370D02*
X152414027Y-103925940D01*
X152414027Y-103925940D02*
X152242690Y-103914890D01*
X152242690Y-103914890D02*
X152053923Y-103968889D01*
X152053923Y-103968889D02*
X151724009Y-104159365D01*
X151724009Y-104159365D02*
X151665340Y-104248224D01*
X151665340Y-104248224D02*
X151647910Y-104313272D01*
X151647910Y-104313272D02*
X151654290Y-104419561D01*
X151654290Y-104419561D02*
X151749528Y-104584518D01*
X151749528Y-104584518D02*
X151838386Y-104643187D01*
X151838386Y-104643187D02*
X151903435Y-104660617D01*
X151903435Y-104660617D02*
X152009723Y-104654237D01*
X152009723Y-104654237D02*
X152215920Y-104535189D01*
X152215920Y-104535189D02*
X152274589Y-104446331D01*
X152274589Y-104446331D02*
X152292019Y-104381282D01*
X152292019Y-104381282D02*
X152285639Y-104274994D01*
X152285639Y-104274994D02*
X152190401Y-104110037D01*
X152190401Y-104110037D02*
X152101542Y-104051368D01*
X152101542Y-104051368D02*
X152036494Y-104033938D01*
X152036494Y-104033938D02*
X151930205Y-104040318D01*
X157743915Y-98161192D02*
X157386772Y-98779782D01*
X157386772Y-98779782D02*
X157274104Y-98879690D01*
X157274104Y-98879690D02*
X157144006Y-98914550D01*
X157144006Y-98914550D02*
X156996479Y-98884360D01*
X156996479Y-98884360D02*
X156914000Y-98836741D01*
X158073829Y-98351669D02*
X158609940Y-98661192D01*
X158609940Y-98661192D02*
X158130789Y-98824440D01*
X158130789Y-98824440D02*
X158254507Y-98895869D01*
X158254507Y-98895869D02*
X158313176Y-98984727D01*
X158313176Y-98984727D02*
X158330606Y-99049776D01*
X158330606Y-99049776D02*
X158324226Y-99156064D01*
X158324226Y-99156064D02*
X158205178Y-99362261D01*
X158205178Y-99362261D02*
X158116320Y-99420930D01*
X158116320Y-99420930D02*
X158051271Y-99438359D01*
X158051271Y-99438359D02*
X157944983Y-99431980D01*
X157944983Y-99431980D02*
X157697547Y-99289122D01*
X157697547Y-99289122D02*
X157638878Y-99200264D01*
X157638878Y-99200264D02*
X157621448Y-99135215D01*
X130117142Y-65859580D02*
X130069523Y-65907200D01*
X130069523Y-65907200D02*
X129926666Y-65954819D01*
X129926666Y-65954819D02*
X129831428Y-65954819D01*
X129831428Y-65954819D02*
X129688571Y-65907200D01*
X129688571Y-65907200D02*
X129593333Y-65811961D01*
X129593333Y-65811961D02*
X129545714Y-65716723D01*
X129545714Y-65716723D02*
X129498095Y-65526247D01*
X129498095Y-65526247D02*
X129498095Y-65383390D01*
X129498095Y-65383390D02*
X129545714Y-65192914D01*
X129545714Y-65192914D02*
X129593333Y-65097676D01*
X129593333Y-65097676D02*
X129688571Y-65002438D01*
X129688571Y-65002438D02*
X129831428Y-64954819D01*
X129831428Y-64954819D02*
X129926666Y-64954819D01*
X129926666Y-64954819D02*
X130069523Y-65002438D01*
X130069523Y-65002438D02*
X130117142Y-65050057D01*
X131069523Y-65954819D02*
X130498095Y-65954819D01*
X130783809Y-65954819D02*
X130783809Y-64954819D01*
X130783809Y-64954819D02*
X130688571Y-65097676D01*
X130688571Y-65097676D02*
X130593333Y-65192914D01*
X130593333Y-65192914D02*
X130498095Y-65240533D01*
X131450476Y-65050057D02*
X131498095Y-65002438D01*
X131498095Y-65002438D02*
X131593333Y-64954819D01*
X131593333Y-64954819D02*
X131831428Y-64954819D01*
X131831428Y-64954819D02*
X131926666Y-65002438D01*
X131926666Y-65002438D02*
X131974285Y-65050057D01*
X131974285Y-65050057D02*
X132021904Y-65145295D01*
X132021904Y-65145295D02*
X132021904Y-65240533D01*
X132021904Y-65240533D02*
X131974285Y-65383390D01*
X131974285Y-65383390D02*
X131402857Y-65954819D01*
X131402857Y-65954819D02*
X132021904Y-65954819D01*
X131354642Y-81059580D02*
X131307023Y-81107200D01*
X131307023Y-81107200D02*
X131164166Y-81154819D01*
X131164166Y-81154819D02*
X131068928Y-81154819D01*
X131068928Y-81154819D02*
X130926071Y-81107200D01*
X130926071Y-81107200D02*
X130830833Y-81011961D01*
X130830833Y-81011961D02*
X130783214Y-80916723D01*
X130783214Y-80916723D02*
X130735595Y-80726247D01*
X130735595Y-80726247D02*
X130735595Y-80583390D01*
X130735595Y-80583390D02*
X130783214Y-80392914D01*
X130783214Y-80392914D02*
X130830833Y-80297676D01*
X130830833Y-80297676D02*
X130926071Y-80202438D01*
X130926071Y-80202438D02*
X131068928Y-80154819D01*
X131068928Y-80154819D02*
X131164166Y-80154819D01*
X131164166Y-80154819D02*
X131307023Y-80202438D01*
X131307023Y-80202438D02*
X131354642Y-80250057D01*
X132307023Y-81154819D02*
X131735595Y-81154819D01*
X132021309Y-81154819D02*
X132021309Y-80154819D01*
X132021309Y-80154819D02*
X131926071Y-80297676D01*
X131926071Y-80297676D02*
X131830833Y-80392914D01*
X131830833Y-80392914D02*
X131735595Y-80440533D01*
X132926071Y-80154819D02*
X133021309Y-80154819D01*
X133021309Y-80154819D02*
X133116547Y-80202438D01*
X133116547Y-80202438D02*
X133164166Y-80250057D01*
X133164166Y-80250057D02*
X133211785Y-80345295D01*
X133211785Y-80345295D02*
X133259404Y-80535771D01*
X133259404Y-80535771D02*
X133259404Y-80773866D01*
X133259404Y-80773866D02*
X133211785Y-80964342D01*
X133211785Y-80964342D02*
X133164166Y-81059580D01*
X133164166Y-81059580D02*
X133116547Y-81107200D01*
X133116547Y-81107200D02*
X133021309Y-81154819D01*
X133021309Y-81154819D02*
X132926071Y-81154819D01*
X132926071Y-81154819D02*
X132830833Y-81107200D01*
X132830833Y-81107200D02*
X132783214Y-81059580D01*
X132783214Y-81059580D02*
X132735595Y-80964342D01*
X132735595Y-80964342D02*
X132687976Y-80773866D01*
X132687976Y-80773866D02*
X132687976Y-80535771D01*
X132687976Y-80535771D02*
X132735595Y-80345295D01*
X132735595Y-80345295D02*
X132783214Y-80250057D01*
X132783214Y-80250057D02*
X132830833Y-80202438D01*
X132830833Y-80202438D02*
X132926071Y-80154819D01*
X122668915Y-60262893D02*
X122311772Y-60881483D01*
X122311772Y-60881483D02*
X122199104Y-60981391D01*
X122199104Y-60981391D02*
X122069006Y-61016251D01*
X122069006Y-61016251D02*
X121921479Y-60986061D01*
X121921479Y-60986061D02*
X121839000Y-60938442D01*
X123452462Y-60715274D02*
X123287504Y-60620036D01*
X123287504Y-60620036D02*
X123181216Y-60613656D01*
X123181216Y-60613656D02*
X123116168Y-60631086D01*
X123116168Y-60631086D02*
X122962260Y-60707185D01*
X122962260Y-60707185D02*
X122825783Y-60848333D01*
X122825783Y-60848333D02*
X122635307Y-61178247D01*
X122635307Y-61178247D02*
X122628927Y-61284535D01*
X122628927Y-61284535D02*
X122646357Y-61349584D01*
X122646357Y-61349584D02*
X122705026Y-61438443D01*
X122705026Y-61438443D02*
X122869983Y-61533681D01*
X122869983Y-61533681D02*
X122976271Y-61540060D01*
X122976271Y-61540060D02*
X123041320Y-61522631D01*
X123041320Y-61522631D02*
X123130178Y-61463962D01*
X123130178Y-61463962D02*
X123249226Y-61257765D01*
X123249226Y-61257765D02*
X123255606Y-61151477D01*
X123255606Y-61151477D02*
X123238176Y-61086428D01*
X123238176Y-61086428D02*
X123179507Y-60997570D01*
X123179507Y-60997570D02*
X123014550Y-60902332D01*
X123014550Y-60902332D02*
X122908262Y-60895952D01*
X122908262Y-60895952D02*
X122843213Y-60913382D01*
X122843213Y-60913382D02*
X122754354Y-60972051D01*
X149302601Y-104989618D02*
X149237552Y-104972188D01*
X149237552Y-104972188D02*
X149124884Y-104872280D01*
X149124884Y-104872280D02*
X149077265Y-104789801D01*
X149077265Y-104789801D02*
X149047076Y-104642274D01*
X149047076Y-104642274D02*
X149081936Y-104512176D01*
X149081936Y-104512176D02*
X149140605Y-104423318D01*
X149140605Y-104423318D02*
X149281752Y-104286840D01*
X149281752Y-104286840D02*
X149405470Y-104215412D01*
X149405470Y-104215412D02*
X149594237Y-104161413D01*
X149594237Y-104161413D02*
X149700525Y-104155033D01*
X149700525Y-104155033D02*
X149830623Y-104189893D01*
X149830623Y-104189893D02*
X149943291Y-104289801D01*
X149943291Y-104289801D02*
X149990910Y-104372280D01*
X149990910Y-104372280D02*
X150021099Y-104519807D01*
X150021099Y-104519807D02*
X150003669Y-104584856D01*
X150538529Y-105320784D02*
X150300434Y-104908391D01*
X150300434Y-104908391D02*
X149864231Y-105105247D01*
X149864231Y-105105247D02*
X149929280Y-105122676D01*
X149929280Y-105122676D02*
X150018138Y-105181345D01*
X150018138Y-105181345D02*
X150137186Y-105387542D01*
X150137186Y-105387542D02*
X150143566Y-105493830D01*
X150143566Y-105493830D02*
X150126136Y-105558879D01*
X150126136Y-105558879D02*
X150067467Y-105647737D01*
X150067467Y-105647737D02*
X149861270Y-105766785D01*
X149861270Y-105766785D02*
X149754982Y-105773165D01*
X149754982Y-105773165D02*
X149689933Y-105755735D01*
X149689933Y-105755735D02*
X149601075Y-105697066D01*
X149601075Y-105697066D02*
X149482027Y-105490869D01*
X149482027Y-105490869D02*
X149475648Y-105384581D01*
X149475648Y-105384581D02*
X149493077Y-105319532D01*
X157188073Y-59424127D02*
X157205502Y-59489176D01*
X157205502Y-59489176D02*
X157175313Y-59636703D01*
X157175313Y-59636703D02*
X157127694Y-59719182D01*
X157127694Y-59719182D02*
X157015026Y-59819090D01*
X157015026Y-59819090D02*
X156884929Y-59853950D01*
X156884929Y-59853950D02*
X156778640Y-59847570D01*
X156778640Y-59847570D02*
X156589874Y-59793571D01*
X156589874Y-59793571D02*
X156466156Y-59722143D01*
X156466156Y-59722143D02*
X156325008Y-59585665D01*
X156325008Y-59585665D02*
X156266339Y-59496807D01*
X156266339Y-59496807D02*
X156231479Y-59366709D01*
X156231479Y-59366709D02*
X156261669Y-59219182D01*
X156261669Y-59219182D02*
X156309288Y-59136703D01*
X156309288Y-59136703D02*
X156421956Y-59036795D01*
X156421956Y-59036795D02*
X156487004Y-59019365D01*
X157746742Y-58646960D02*
X157461027Y-59141832D01*
X157603885Y-58894396D02*
X156737859Y-58394396D01*
X156737859Y-58394396D02*
X156813958Y-58548303D01*
X156813958Y-58548303D02*
X156848818Y-58678401D01*
X156848818Y-58678401D02*
X156842438Y-58784689D01*
X165665473Y-74138735D02*
X165046884Y-74495878D01*
X165046884Y-74495878D02*
X164899356Y-74526067D01*
X164899356Y-74526067D02*
X164769259Y-74491207D01*
X164769259Y-74491207D02*
X164656591Y-74391299D01*
X164656591Y-74391299D02*
X164608972Y-74308820D01*
X165829179Y-75088948D02*
X165251829Y-75422282D01*
X166040046Y-74692276D02*
X165302409Y-74843222D01*
X165302409Y-74843222D02*
X165611933Y-75379333D01*
X153757728Y-102706125D02*
X153692679Y-102688695D01*
X153692679Y-102688695D02*
X153580011Y-102588787D01*
X153580011Y-102588787D02*
X153532392Y-102506308D01*
X153532392Y-102506308D02*
X153502203Y-102358781D01*
X153502203Y-102358781D02*
X153537063Y-102228683D01*
X153537063Y-102228683D02*
X153595732Y-102139825D01*
X153595732Y-102139825D02*
X153736879Y-102003347D01*
X153736879Y-102003347D02*
X153860597Y-101931919D01*
X153860597Y-101931919D02*
X154049364Y-101877920D01*
X154049364Y-101877920D02*
X154155652Y-101871540D01*
X154155652Y-101871540D02*
X154285750Y-101906400D01*
X154285750Y-101906400D02*
X154398418Y-102006308D01*
X154398418Y-102006308D02*
X154446037Y-102088787D01*
X154446037Y-102088787D02*
X154476226Y-102236314D01*
X154476226Y-102236314D02*
X154458796Y-102301363D01*
X154707942Y-102542419D02*
X155041275Y-103119769D01*
X155041275Y-103119769D02*
X153960964Y-103248616D01*
X114493734Y-85577278D02*
X114850877Y-86195867D01*
X114850877Y-86195867D02*
X114881066Y-86343395D01*
X114881066Y-86343395D02*
X114846206Y-86473492D01*
X114846206Y-86473492D02*
X114746298Y-86586160D01*
X114746298Y-86586160D02*
X114663819Y-86633779D01*
X115859759Y-85943303D02*
X115364888Y-86229017D01*
X115612324Y-86086160D02*
X115112324Y-85220135D01*
X115112324Y-85220135D02*
X115101274Y-85391472D01*
X115101274Y-85391472D02*
X115066414Y-85521569D01*
X115066414Y-85521569D02*
X115007745Y-85610428D01*
X151088073Y-55024127D02*
X151105502Y-55089176D01*
X151105502Y-55089176D02*
X151075313Y-55236703D01*
X151075313Y-55236703D02*
X151027694Y-55319182D01*
X151027694Y-55319182D02*
X150915026Y-55419090D01*
X150915026Y-55419090D02*
X150784929Y-55453950D01*
X150784929Y-55453950D02*
X150678640Y-55447570D01*
X150678640Y-55447570D02*
X150489874Y-55393571D01*
X150489874Y-55393571D02*
X150366156Y-55322143D01*
X150366156Y-55322143D02*
X150225008Y-55185665D01*
X150225008Y-55185665D02*
X150166339Y-55096807D01*
X150166339Y-55096807D02*
X150131479Y-54966709D01*
X150131479Y-54966709D02*
X150161669Y-54819182D01*
X150161669Y-54819182D02*
X150209288Y-54736703D01*
X150209288Y-54736703D02*
X150321956Y-54636795D01*
X150321956Y-54636795D02*
X150387004Y-54619365D01*
X151021772Y-53996105D02*
X151599123Y-54329439D01*
X150572810Y-54011826D02*
X151072352Y-54575165D01*
X151072352Y-54575165D02*
X151381876Y-54039054D01*
X147136666Y-54854819D02*
X147136666Y-55569104D01*
X147136666Y-55569104D02*
X147089047Y-55711961D01*
X147089047Y-55711961D02*
X146993809Y-55807200D01*
X146993809Y-55807200D02*
X146850952Y-55854819D01*
X146850952Y-55854819D02*
X146755714Y-55854819D01*
X148089047Y-54854819D02*
X147612857Y-54854819D01*
X147612857Y-54854819D02*
X147565238Y-55331009D01*
X147565238Y-55331009D02*
X147612857Y-55283390D01*
X147612857Y-55283390D02*
X147708095Y-55235771D01*
X147708095Y-55235771D02*
X147946190Y-55235771D01*
X147946190Y-55235771D02*
X148041428Y-55283390D01*
X148041428Y-55283390D02*
X148089047Y-55331009D01*
X148089047Y-55331009D02*
X148136666Y-55426247D01*
X148136666Y-55426247D02*
X148136666Y-55664342D01*
X148136666Y-55664342D02*
X148089047Y-55759580D01*
X148089047Y-55759580D02*
X148041428Y-55807200D01*
X148041428Y-55807200D02*
X147946190Y-55854819D01*
X147946190Y-55854819D02*
X147708095Y-55854819D01*
X147708095Y-55854819D02*
X147612857Y-55807200D01*
X147612857Y-55807200D02*
X147565238Y-55759580D01*
X131798095Y-67954819D02*
X131798095Y-68764342D01*
X131798095Y-68764342D02*
X131845714Y-68859580D01*
X131845714Y-68859580D02*
X131893333Y-68907200D01*
X131893333Y-68907200D02*
X131988571Y-68954819D01*
X131988571Y-68954819D02*
X132179047Y-68954819D01*
X132179047Y-68954819D02*
X132274285Y-68907200D01*
X132274285Y-68907200D02*
X132321904Y-68859580D01*
X132321904Y-68859580D02*
X132369523Y-68764342D01*
X132369523Y-68764342D02*
X132369523Y-67954819D01*
X132798095Y-68050057D02*
X132845714Y-68002438D01*
X132845714Y-68002438D02*
X132940952Y-67954819D01*
X132940952Y-67954819D02*
X133179047Y-67954819D01*
X133179047Y-67954819D02*
X133274285Y-68002438D01*
X133274285Y-68002438D02*
X133321904Y-68050057D01*
X133321904Y-68050057D02*
X133369523Y-68145295D01*
X133369523Y-68145295D02*
X133369523Y-68240533D01*
X133369523Y-68240533D02*
X133321904Y-68383390D01*
X133321904Y-68383390D02*
X132750476Y-68954819D01*
X132750476Y-68954819D02*
X133369523Y-68954819D01*
X123639580Y-73492857D02*
X123687200Y-73540476D01*
X123687200Y-73540476D02*
X123734819Y-73683333D01*
X123734819Y-73683333D02*
X123734819Y-73778571D01*
X123734819Y-73778571D02*
X123687200Y-73921428D01*
X123687200Y-73921428D02*
X123591961Y-74016666D01*
X123591961Y-74016666D02*
X123496723Y-74064285D01*
X123496723Y-74064285D02*
X123306247Y-74111904D01*
X123306247Y-74111904D02*
X123163390Y-74111904D01*
X123163390Y-74111904D02*
X122972914Y-74064285D01*
X122972914Y-74064285D02*
X122877676Y-74016666D01*
X122877676Y-74016666D02*
X122782438Y-73921428D01*
X122782438Y-73921428D02*
X122734819Y-73778571D01*
X122734819Y-73778571D02*
X122734819Y-73683333D01*
X122734819Y-73683333D02*
X122782438Y-73540476D01*
X122782438Y-73540476D02*
X122830057Y-73492857D01*
X123734819Y-72540476D02*
X123734819Y-73111904D01*
X123734819Y-72826190D02*
X122734819Y-72826190D01*
X122734819Y-72826190D02*
X122877676Y-72921428D01*
X122877676Y-72921428D02*
X122972914Y-73016666D01*
X122972914Y-73016666D02*
X123020533Y-73111904D01*
X122734819Y-72207142D02*
X122734819Y-71588095D01*
X122734819Y-71588095D02*
X123115771Y-71921428D01*
X123115771Y-71921428D02*
X123115771Y-71778571D01*
X123115771Y-71778571D02*
X123163390Y-71683333D01*
X123163390Y-71683333D02*
X123211009Y-71635714D01*
X123211009Y-71635714D02*
X123306247Y-71588095D01*
X123306247Y-71588095D02*
X123544342Y-71588095D01*
X123544342Y-71588095D02*
X123639580Y-71635714D01*
X123639580Y-71635714D02*
X123687200Y-71683333D01*
X123687200Y-71683333D02*
X123734819Y-71778571D01*
X123734819Y-71778571D02*
X123734819Y-72064285D01*
X123734819Y-72064285D02*
X123687200Y-72159523D01*
X123687200Y-72159523D02*
X123639580Y-72207142D01*
X128468333Y-89759580D02*
X128420714Y-89807200D01*
X128420714Y-89807200D02*
X128277857Y-89854819D01*
X128277857Y-89854819D02*
X128182619Y-89854819D01*
X128182619Y-89854819D02*
X128039762Y-89807200D01*
X128039762Y-89807200D02*
X127944524Y-89711961D01*
X127944524Y-89711961D02*
X127896905Y-89616723D01*
X127896905Y-89616723D02*
X127849286Y-89426247D01*
X127849286Y-89426247D02*
X127849286Y-89283390D01*
X127849286Y-89283390D02*
X127896905Y-89092914D01*
X127896905Y-89092914D02*
X127944524Y-88997676D01*
X127944524Y-88997676D02*
X128039762Y-88902438D01*
X128039762Y-88902438D02*
X128182619Y-88854819D01*
X128182619Y-88854819D02*
X128277857Y-88854819D01*
X128277857Y-88854819D02*
X128420714Y-88902438D01*
X128420714Y-88902438D02*
X128468333Y-88950057D01*
X128944524Y-89854819D02*
X129135000Y-89854819D01*
X129135000Y-89854819D02*
X129230238Y-89807200D01*
X129230238Y-89807200D02*
X129277857Y-89759580D01*
X129277857Y-89759580D02*
X129373095Y-89616723D01*
X129373095Y-89616723D02*
X129420714Y-89426247D01*
X129420714Y-89426247D02*
X129420714Y-89045295D01*
X129420714Y-89045295D02*
X129373095Y-88950057D01*
X129373095Y-88950057D02*
X129325476Y-88902438D01*
X129325476Y-88902438D02*
X129230238Y-88854819D01*
X129230238Y-88854819D02*
X129039762Y-88854819D01*
X129039762Y-88854819D02*
X128944524Y-88902438D01*
X128944524Y-88902438D02*
X128896905Y-88950057D01*
X128896905Y-88950057D02*
X128849286Y-89045295D01*
X128849286Y-89045295D02*
X128849286Y-89283390D01*
X128849286Y-89283390D02*
X128896905Y-89378628D01*
X128896905Y-89378628D02*
X128944524Y-89426247D01*
X128944524Y-89426247D02*
X129039762Y-89473866D01*
X129039762Y-89473866D02*
X129230238Y-89473866D01*
X129230238Y-89473866D02*
X129325476Y-89426247D01*
X129325476Y-89426247D02*
X129373095Y-89378628D01*
X129373095Y-89378628D02*
X129420714Y-89283390D01*
D13*
%TO.C,C2*%
X153156524Y-59768329D02*
X153010257Y-60021671D01*
X154039869Y-60278329D02*
X153893602Y-60531671D01*
%TO.C,C11*%
X128943767Y-79310002D02*
X128651232Y-79310001D01*
X128943768Y-78290001D02*
X128651233Y-78290000D01*
%TO.C,C3*%
X150991461Y-58518329D02*
X150845194Y-58771671D01*
X151874806Y-59028329D02*
X151728539Y-59281671D01*
%TO.C,J2*%
X133650000Y-103270000D02*
X134980000Y-103270000D01*
X133650000Y-104600000D02*
X133650000Y-103270000D01*
X136250000Y-103270000D02*
X146470000Y-103270000D01*
X136250000Y-105930000D02*
X136250000Y-103270000D01*
X136250000Y-105930000D02*
X146470000Y-105930000D01*
X146470000Y-105930000D02*
X146470000Y-103270000D01*
%TO.C,R1*%
X127187500Y-68095276D02*
X127187500Y-68604724D01*
X128232500Y-68095276D02*
X128232500Y-68604724D01*
%TO.C,C8*%
X154517743Y-99323344D02*
X154371476Y-99070004D01*
X155401088Y-98813344D02*
X155254821Y-98560004D01*
%TO.C,C14*%
X127200000Y-72996267D02*
X127200000Y-72703733D01*
X128220000Y-72996267D02*
X128220000Y-72703733D01*
%TO.C,C6*%
X150187616Y-101823345D02*
X150041349Y-101570003D01*
X151070961Y-101313345D02*
X150924694Y-101060003D01*
%TO.C,J3*%
X158403186Y-94924557D02*
X163513186Y-86073777D01*
X159406814Y-98506223D02*
X158255000Y-97841223D01*
X160071814Y-97354409D02*
X159406814Y-98506223D01*
X160706814Y-96254557D02*
X158403186Y-94924557D01*
X160706814Y-96254557D02*
X165816814Y-87403777D01*
X165816814Y-87403777D02*
X163513186Y-86073777D01*
%TO.C,C12*%
X127668766Y-64890001D02*
X127376233Y-64890002D01*
X127668767Y-65910000D02*
X127376234Y-65910001D01*
%TO.C,C10*%
X128906267Y-80490000D02*
X128613733Y-80490000D01*
X128906267Y-81510000D02*
X128613733Y-81510000D01*
%TO.C,J6*%
X114403186Y-72586223D02*
X116706814Y-73916223D01*
X119513186Y-63735443D02*
X114403186Y-72586223D01*
X119513186Y-63735443D02*
X121816814Y-65065443D01*
X121816814Y-65065443D02*
X116706814Y-73916223D01*
X121965000Y-62148777D02*
X123116814Y-62813777D01*
X123116814Y-62813777D02*
X122451814Y-63965591D01*
%TO.C,C5*%
X148022552Y-103073344D02*
X147876285Y-102820004D01*
X148905897Y-102563344D02*
X148759630Y-102310004D01*
%TO.C,C1*%
X155321588Y-61018329D02*
X155175321Y-61271671D01*
X156204933Y-61528329D02*
X156058666Y-61781671D01*
D14*
%TO.C,G\u002A\u002A\u002A*%
G36*
X136690576Y-81828035D02*
G01*
X136557229Y-81828035D01*
X136557229Y-81705355D01*
X136690576Y-81705355D01*
X136690576Y-81828035D01*
G37*
G36*
X136690576Y-82446767D02*
G01*
X136557229Y-82446767D01*
X136557229Y-81924045D01*
X136690576Y-81924045D01*
X136690576Y-82446767D01*
G37*
G36*
X137589337Y-80755922D02*
G01*
X137805360Y-80755922D01*
X137805359Y-80886603D01*
X137589337Y-80886603D01*
X137589337Y-81278645D01*
X137453323Y-81278644D01*
X137453323Y-80886603D01*
X137293306Y-80886603D01*
X137293306Y-80755923D01*
X137453323Y-80755922D01*
X137453323Y-80587905D01*
X137589337Y-80587905D01*
X137589337Y-80755922D01*
G37*
G36*
X137219965Y-81359986D02*
G01*
X137213704Y-81378654D01*
X137204511Y-81402069D01*
X137193548Y-81421883D01*
X137179803Y-81439776D01*
X137171674Y-81448424D01*
X137160068Y-81459356D01*
X137149037Y-81467788D01*
X137136375Y-81475283D01*
X137127440Y-81479806D01*
X137118328Y-81484172D01*
X137110074Y-81487858D01*
X137102136Y-81490917D01*
X137093976Y-81493410D01*
X137085050Y-81495395D01*
X137074823Y-81496930D01*
X137062751Y-81498072D01*
X137048295Y-81498881D01*
X137030916Y-81499415D01*
X137010072Y-81499731D01*
X136985223Y-81499889D01*
X136955830Y-81499946D01*
X136940602Y-81499954D01*
X136815922Y-81500000D01*
X136815922Y-81366653D01*
X136939269Y-81366643D01*
X136968232Y-81366630D01*
X136992344Y-81366585D01*
X137012088Y-81366488D01*
X137027948Y-81366321D01*
X137040406Y-81366067D01*
X137049946Y-81365706D01*
X137057049Y-81365221D01*
X137062201Y-81364592D01*
X137065883Y-81363801D01*
X137068578Y-81362830D01*
X137070770Y-81361660D01*
X137070829Y-81361623D01*
X137073461Y-81360113D01*
X137075808Y-81358772D01*
X137077888Y-81357304D01*
X137079717Y-81355412D01*
X137081311Y-81352803D01*
X137082686Y-81349179D01*
X137083857Y-81344243D01*
X137084842Y-81337701D01*
X137085657Y-81329255D01*
X137086317Y-81318610D01*
X137086838Y-81305470D01*
X137087235Y-81289538D01*
X137087529Y-81270519D01*
X137087732Y-81248117D01*
X137087859Y-81222035D01*
X137087929Y-81191979D01*
X137087958Y-81157649D01*
X137087959Y-81118752D01*
X137087953Y-81074991D01*
X137087951Y-81046883D01*
X137087951Y-80755922D01*
X137221451Y-80755922D01*
X137219965Y-81359986D01*
G37*
G36*
X136775922Y-80935275D02*
G01*
X136775920Y-80971724D01*
X136775933Y-81003226D01*
X136775994Y-81030165D01*
X136776133Y-81052927D01*
X136776383Y-81071896D01*
X136776776Y-81087461D01*
X136777346Y-81100006D01*
X136778122Y-81109914D01*
X136779137Y-81117576D01*
X136780423Y-81123373D01*
X136782013Y-81127691D01*
X136783937Y-81130919D01*
X136786229Y-81133439D01*
X136788919Y-81135638D01*
X136792041Y-81137902D01*
X136792779Y-81138440D01*
X136794690Y-81139731D01*
X136796912Y-81140807D01*
X136799925Y-81141692D01*
X136804210Y-81142409D01*
X136810245Y-81142981D01*
X136818513Y-81143430D01*
X136829490Y-81143780D01*
X136843660Y-81144052D01*
X136861501Y-81144272D01*
X136883495Y-81144461D01*
X136910119Y-81144643D01*
X136924126Y-81144731D01*
X137047947Y-81145498D01*
X137047947Y-81278644D01*
X136927267Y-81278330D01*
X136901920Y-81278219D01*
X136877828Y-81278027D01*
X136855599Y-81277765D01*
X136835838Y-81277444D01*
X136819153Y-81277076D01*
X136806148Y-81276670D01*
X136797432Y-81276238D01*
X136794136Y-81275915D01*
X136762625Y-81268228D01*
X136734112Y-81256398D01*
X136708852Y-81240603D01*
X136687103Y-81221030D01*
X136669119Y-81197851D01*
X136659748Y-81181300D01*
X136656589Y-81174794D01*
X136653843Y-81168632D01*
X136651480Y-81162404D01*
X136649474Y-81155702D01*
X136647794Y-81148118D01*
X136646408Y-81139243D01*
X136645295Y-81128669D01*
X136644419Y-81115984D01*
X136643754Y-81100782D01*
X136643271Y-81082654D01*
X136642941Y-81061191D01*
X136642735Y-81035983D01*
X136642624Y-81006623D01*
X136642579Y-80972702D01*
X136642571Y-80938374D01*
X136642571Y-80755922D01*
X136775918Y-80755922D01*
X136775922Y-80935275D01*
G37*
G36*
X139139054Y-81977255D02*
G01*
X139170601Y-81984350D01*
X139199684Y-81995773D01*
X139226057Y-82011079D01*
X139249465Y-82029819D01*
X139269663Y-82051548D01*
X139286399Y-82075817D01*
X139299425Y-82102182D01*
X139308492Y-82130191D01*
X139313350Y-82159401D01*
X139313750Y-82189364D01*
X139309442Y-82219632D01*
X139300178Y-82249760D01*
X139296220Y-82259092D01*
X139280553Y-82287438D01*
X139260991Y-82312469D01*
X139238015Y-82333875D01*
X139212109Y-82351344D01*
X139183755Y-82364569D01*
X139153436Y-82373239D01*
X139121635Y-82377047D01*
X139112163Y-82377195D01*
X139098701Y-82376704D01*
X139085070Y-82375562D01*
X139073640Y-82373989D01*
X139070826Y-82373427D01*
X139040157Y-82363973D01*
X139011526Y-82349983D01*
X138985501Y-82331907D01*
X138962650Y-82310198D01*
X138943544Y-82285304D01*
X138930986Y-82262652D01*
X138921165Y-82238061D01*
X138915195Y-82213864D01*
X138912732Y-82188272D01*
X138912878Y-82173593D01*
X139021721Y-82173593D01*
X139022793Y-82193682D01*
X139025501Y-82205591D01*
X139033321Y-82222828D01*
X139045307Y-82238721D01*
X139060296Y-82252097D01*
X139077122Y-82261787D01*
X139083884Y-82264299D01*
X139100128Y-82267384D01*
X139118423Y-82267671D01*
X139136326Y-82265235D01*
X139146067Y-82262422D01*
X139156740Y-82257511D01*
X139166831Y-82250441D01*
X139178000Y-82240062D01*
X139186688Y-82230815D01*
X139192488Y-82223115D01*
X139196580Y-82215064D01*
X139200147Y-82204760D01*
X139200351Y-82204089D01*
X139204595Y-82183065D01*
X139203928Y-82163189D01*
X139198258Y-82143358D01*
X139194814Y-82135688D01*
X139183361Y-82117848D01*
X139168803Y-82103787D01*
X139151878Y-82093582D01*
X139133321Y-82087312D01*
X139113871Y-82085053D01*
X139094263Y-82086885D01*
X139075234Y-82092883D01*
X139057521Y-82103127D01*
X139041859Y-82117694D01*
X139040434Y-82119394D01*
X139030791Y-82135014D01*
X139024470Y-82153558D01*
X139021721Y-82173593D01*
X138912878Y-82173593D01*
X138912932Y-82168153D01*
X138914592Y-82146287D01*
X138917682Y-82127776D01*
X138922675Y-82110728D01*
X138930046Y-82093251D01*
X138933408Y-82086419D01*
X138950030Y-82059209D01*
X138970356Y-82035293D01*
X138993838Y-82014963D01*
X139019927Y-81998510D01*
X139048071Y-81986225D01*
X139077722Y-81978400D01*
X139108332Y-81975328D01*
X139139054Y-81977255D01*
G37*
G36*
X137058427Y-81924047D02*
G01*
X137094094Y-81924058D01*
X137125120Y-81924086D01*
X137151847Y-81924138D01*
X137174622Y-81924223D01*
X137193788Y-81924349D01*
X137209692Y-81924522D01*
X137222678Y-81924752D01*
X137233094Y-81925046D01*
X137241282Y-81925411D01*
X137247589Y-81925856D01*
X137252360Y-81926388D01*
X137255939Y-81927016D01*
X137258673Y-81927746D01*
X137260905Y-81928587D01*
X137262985Y-81929548D01*
X137263120Y-81929613D01*
X137277457Y-81939281D01*
X137288667Y-81952315D01*
X137296378Y-81967675D01*
X137300222Y-81984319D01*
X137299827Y-82001209D01*
X137294823Y-82017303D01*
X137294524Y-82017911D01*
X137291965Y-82021184D01*
X137285926Y-82027905D01*
X137276712Y-82037764D01*
X137264626Y-82050447D01*
X137249971Y-82065641D01*
X137233049Y-82083036D01*
X137214164Y-82102315D01*
X137193620Y-82123170D01*
X137171718Y-82145285D01*
X137148761Y-82168349D01*
X137147043Y-82170071D01*
X137003961Y-82313419D01*
X137295973Y-82313419D01*
X137295973Y-82446767D01*
X137065949Y-82446526D01*
X137030085Y-82446461D01*
X136995923Y-82446344D01*
X136963839Y-82446182D01*
X136934214Y-82445977D01*
X136907425Y-82445733D01*
X136883851Y-82445456D01*
X136863872Y-82445148D01*
X136847864Y-82444815D01*
X136836209Y-82444461D01*
X136829283Y-82444089D01*
X136827563Y-82443862D01*
X136811462Y-82436657D01*
X136798019Y-82425666D01*
X136787690Y-82411810D01*
X136780934Y-82396007D01*
X136778212Y-82379176D01*
X136779981Y-82362237D01*
X136782696Y-82354005D01*
X136785195Y-82350263D01*
X136790871Y-82343497D01*
X136799807Y-82333621D01*
X136812084Y-82320551D01*
X136827783Y-82304203D01*
X136846984Y-82284493D01*
X136869769Y-82261335D01*
X136896219Y-82234646D01*
X136926415Y-82204341D01*
X136929379Y-82201374D01*
X136952208Y-82178497D01*
X136973907Y-82156702D01*
X136994186Y-82136285D01*
X137012754Y-82117541D01*
X137029319Y-82100766D01*
X137043591Y-82086254D01*
X137055279Y-82074300D01*
X137064092Y-82065200D01*
X137069740Y-82059249D01*
X137071931Y-82056742D01*
X137071949Y-82056693D01*
X137069363Y-82056322D01*
X137061929Y-82055973D01*
X137050133Y-82055655D01*
X137034461Y-82055372D01*
X137015398Y-82055132D01*
X136993431Y-82054942D01*
X136969046Y-82054808D01*
X136942728Y-82054735D01*
X136927934Y-82054725D01*
X136783920Y-82054725D01*
X136783919Y-81924045D01*
X137017768Y-81924045D01*
X137058427Y-81924047D01*
G37*
G36*
X136418547Y-82054725D02*
G01*
X136261864Y-82054991D01*
X136233263Y-82055070D01*
X136206123Y-82055205D01*
X136180936Y-82055388D01*
X136158196Y-82055613D01*
X136138394Y-82055875D01*
X136122022Y-82056166D01*
X136109574Y-82056480D01*
X136101542Y-82056811D01*
X136098538Y-82057106D01*
X136092164Y-82061370D01*
X136088640Y-82068842D01*
X136088601Y-82077878D01*
X136089393Y-82080728D01*
X136091969Y-82088062D01*
X136213254Y-82089610D01*
X136242884Y-82090013D01*
X136267686Y-82090415D01*
X136288160Y-82090838D01*
X136304809Y-82091304D01*
X136318138Y-82091836D01*
X136328649Y-82092455D01*
X136336847Y-82093183D01*
X136343233Y-82094043D01*
X136348311Y-82095056D01*
X136350539Y-82095633D01*
X136378214Y-82105929D01*
X136403454Y-82120436D01*
X136425651Y-82138660D01*
X136444199Y-82160107D01*
X136457748Y-82182739D01*
X136467634Y-82205634D01*
X136474008Y-82227081D01*
X136477354Y-82249168D01*
X136478179Y-82270748D01*
X136477046Y-82294817D01*
X136473437Y-82316071D01*
X136466869Y-82336643D01*
X136459459Y-82353423D01*
X136446780Y-82374143D01*
X136429883Y-82393538D01*
X136409879Y-82410522D01*
X136387878Y-82424011D01*
X136386544Y-82424673D01*
X136378806Y-82428489D01*
X136371983Y-82431798D01*
X136365647Y-82434637D01*
X136359369Y-82437044D01*
X136352728Y-82439058D01*
X136345297Y-82440717D01*
X136336648Y-82442059D01*
X136326359Y-82443122D01*
X136314001Y-82443944D01*
X136299150Y-82444562D01*
X136281379Y-82445016D01*
X136260263Y-82445344D01*
X136235377Y-82445581D01*
X136206294Y-82445769D01*
X136172588Y-82445944D01*
X136147186Y-82446073D01*
X135962500Y-82447036D01*
X135962499Y-82313419D01*
X136137851Y-82313361D01*
X136172799Y-82313344D01*
X136202818Y-82313310D01*
X136228314Y-82313248D01*
X136249691Y-82313146D01*
X136267355Y-82312993D01*
X136281711Y-82312777D01*
X136293165Y-82312488D01*
X136302120Y-82312114D01*
X136308983Y-82311643D01*
X136314158Y-82311064D01*
X136318051Y-82310366D01*
X136321067Y-82309537D01*
X136323613Y-82308566D01*
X136324653Y-82308106D01*
X136334788Y-82300839D01*
X136341735Y-82290447D01*
X136345525Y-82278059D01*
X136346187Y-82264802D01*
X136343754Y-82251804D01*
X136338256Y-82240192D01*
X136329723Y-82231096D01*
X136322432Y-82227013D01*
X136319181Y-82225950D01*
X136314899Y-82225076D01*
X136309081Y-82224372D01*
X136301219Y-82223821D01*
X136290807Y-82223405D01*
X136277340Y-82223108D01*
X136260309Y-82222911D01*
X136239210Y-82222797D01*
X136213536Y-82222748D01*
X136198897Y-82222743D01*
X136171039Y-82222727D01*
X136147948Y-82222665D01*
X136129054Y-82222533D01*
X136113791Y-82222308D01*
X136101591Y-82221972D01*
X136091885Y-82221497D01*
X136084106Y-82220865D01*
X136077686Y-82220048D01*
X136072057Y-82219029D01*
X136066651Y-82217782D01*
X136065330Y-82217448D01*
X136039968Y-82208405D01*
X136017538Y-82195338D01*
X135998243Y-82178801D01*
X135982287Y-82159354D01*
X135969874Y-82137555D01*
X135961209Y-82113962D01*
X135956493Y-82089133D01*
X135955933Y-82063626D01*
X135959731Y-82037997D01*
X135968092Y-82012808D01*
X135981218Y-81988613D01*
X135981537Y-81988134D01*
X135998467Y-81967494D01*
X136019181Y-81950611D01*
X136043675Y-81937490D01*
X136066476Y-81929568D01*
X136070726Y-81928439D01*
X136074992Y-81927475D01*
X136079714Y-81926663D01*
X136085330Y-81925990D01*
X136092280Y-81925444D01*
X136101003Y-81925010D01*
X136111939Y-81924676D01*
X136125525Y-81924430D01*
X136142203Y-81924257D01*
X136162410Y-81924146D01*
X136186588Y-81924082D01*
X136215173Y-81924052D01*
X136248606Y-81924045D01*
X136418547Y-81924045D01*
X136418547Y-82054725D01*
G37*
G36*
X136103848Y-81115171D02*
G01*
X136109848Y-81123988D01*
X136115942Y-81131474D01*
X136122762Y-81137915D01*
X136123376Y-81138384D01*
X136125265Y-81139681D01*
X136127441Y-81140763D01*
X136130382Y-81141653D01*
X136134564Y-81142375D01*
X136140464Y-81142950D01*
X136148559Y-81143402D01*
X136159326Y-81143752D01*
X136173243Y-81144025D01*
X136190786Y-81144242D01*
X136212432Y-81144426D01*
X136238658Y-81144601D01*
X136256167Y-81144706D01*
X136285384Y-81144870D01*
X136309760Y-81144972D01*
X136329786Y-81144998D01*
X136345954Y-81144931D01*
X136358757Y-81144757D01*
X136368687Y-81144459D01*
X136376234Y-81144022D01*
X136381893Y-81143431D01*
X136386154Y-81142669D01*
X136389509Y-81141721D01*
X136392451Y-81140571D01*
X136392926Y-81140364D01*
X136401688Y-81135206D01*
X136407777Y-81127871D01*
X136410246Y-81123248D01*
X136411753Y-81119997D01*
X136412968Y-81116721D01*
X136413920Y-81112851D01*
X136414633Y-81107817D01*
X136415136Y-81101051D01*
X136415452Y-81091983D01*
X136415608Y-81080043D01*
X136415631Y-81064662D01*
X136415544Y-81045271D01*
X136415376Y-81021301D01*
X136415308Y-81012437D01*
X136415101Y-80986848D01*
X136414892Y-80966048D01*
X136414649Y-80949490D01*
X136414338Y-80936629D01*
X136413927Y-80926919D01*
X136413384Y-80919813D01*
X136412675Y-80914767D01*
X136411767Y-80911235D01*
X136410630Y-80908671D01*
X136409229Y-80906530D01*
X136408935Y-80906130D01*
X136402650Y-80899547D01*
X136394914Y-80893662D01*
X136394266Y-80893270D01*
X136391910Y-80892006D01*
X136389190Y-80890954D01*
X136385613Y-80890089D01*
X136380686Y-80889390D01*
X136373916Y-80888833D01*
X136364810Y-80888393D01*
X136352875Y-80888050D01*
X136337617Y-80887777D01*
X136318544Y-80887554D01*
X136295162Y-80887356D01*
X136266978Y-80887159D01*
X136264531Y-80887143D01*
X136143852Y-80886350D01*
X136143852Y-80755922D01*
X136270105Y-80755922D01*
X136299642Y-80755935D01*
X136324369Y-80755987D01*
X136344815Y-80756096D01*
X136361505Y-80756281D01*
X136374964Y-80756560D01*
X136385718Y-80756954D01*
X136394294Y-80757480D01*
X136401217Y-80758157D01*
X136407013Y-80759005D01*
X136412209Y-80760042D01*
X136416885Y-80761172D01*
X136445308Y-80770980D01*
X136471638Y-80785120D01*
X136494856Y-80803020D01*
X136499903Y-80807864D01*
X136515597Y-80825693D01*
X136527814Y-80844673D01*
X136537523Y-80866437D01*
X136541651Y-80878602D01*
X136543162Y-80883565D01*
X136544406Y-80888242D01*
X136545411Y-80893185D01*
X136546202Y-80898948D01*
X136546805Y-80906086D01*
X136547243Y-80915151D01*
X136547545Y-80926698D01*
X136547736Y-80941280D01*
X136547840Y-80959451D01*
X136547884Y-80981766D01*
X136547894Y-81008777D01*
X136547894Y-81013283D01*
X136547879Y-81043047D01*
X136547787Y-81068059D01*
X136547551Y-81088899D01*
X136547103Y-81106149D01*
X136546376Y-81120390D01*
X136545301Y-81132202D01*
X136543811Y-81142167D01*
X136541837Y-81150866D01*
X136539313Y-81158880D01*
X136536170Y-81166790D01*
X136532341Y-81175178D01*
X136527947Y-81184236D01*
X136512660Y-81209557D01*
X136493403Y-81231378D01*
X136470372Y-81249531D01*
X136443762Y-81263852D01*
X136427882Y-81269962D01*
X136406547Y-81277146D01*
X136270532Y-81277668D01*
X136243655Y-81277726D01*
X136218053Y-81277701D01*
X136194288Y-81277595D01*
X136172923Y-81277417D01*
X136154521Y-81277171D01*
X136139644Y-81276865D01*
X136128856Y-81276503D01*
X136122718Y-81276094D01*
X136122065Y-81276003D01*
X136090116Y-81267965D01*
X136061312Y-81255639D01*
X136035683Y-81239039D01*
X136023180Y-81228309D01*
X136006623Y-81210632D01*
X135993645Y-81191762D01*
X135983168Y-81170020D01*
X135979364Y-81159940D01*
X135971833Y-81138629D01*
X135970368Y-80537233D01*
X136103848Y-80537233D01*
X136103848Y-81115171D01*
G37*
G36*
X137685711Y-81924143D02*
G01*
X137711902Y-81924188D01*
X137733745Y-81924283D01*
X137751731Y-81924443D01*
X137766353Y-81924684D01*
X137778103Y-81925022D01*
X137787473Y-81925473D01*
X137794956Y-81926054D01*
X137801044Y-81926781D01*
X137806230Y-81927669D01*
X137811006Y-81928735D01*
X137813283Y-81929310D01*
X137840483Y-81938345D01*
X137864204Y-81950657D01*
X137885615Y-81966902D01*
X137893621Y-81974475D01*
X137912811Y-81997282D01*
X137927426Y-82022524D01*
X137937369Y-82049741D01*
X137942545Y-82078473D01*
X137942857Y-82108260D01*
X137938209Y-82138640D01*
X137932186Y-82159349D01*
X137920471Y-82185498D01*
X137904615Y-82209260D01*
X137885243Y-82229997D01*
X137862984Y-82247066D01*
X137838462Y-82259831D01*
X137830875Y-82262686D01*
X137823100Y-82265133D01*
X137814862Y-82267190D01*
X137805641Y-82268886D01*
X137794913Y-82270255D01*
X137782156Y-82271328D01*
X137766849Y-82272139D01*
X137748468Y-82272721D01*
X137726494Y-82273106D01*
X137700401Y-82273324D01*
X137669669Y-82273410D01*
X137658485Y-82273415D01*
X137541332Y-82273415D01*
X137541332Y-82145402D01*
X137661430Y-82145402D01*
X137691355Y-82145395D01*
X137716426Y-82145338D01*
X137737125Y-82145171D01*
X137753933Y-82144837D01*
X137767330Y-82144278D01*
X137777797Y-82143437D01*
X137785815Y-82142257D01*
X137791865Y-82140676D01*
X137796427Y-82138640D01*
X137799982Y-82136090D01*
X137803013Y-82132968D01*
X137805997Y-82129217D01*
X137807008Y-82127890D01*
X137810982Y-82122145D01*
X137813294Y-82116714D01*
X137814382Y-82109842D01*
X137814688Y-82099765D01*
X137814694Y-82097133D01*
X137813906Y-82082781D01*
X137811076Y-82072305D01*
X137805504Y-82064421D01*
X137796489Y-82057841D01*
X137791970Y-82055392D01*
X137789130Y-82053987D01*
X137786273Y-82052820D01*
X137782903Y-82051870D01*
X137778521Y-82051115D01*
X137772631Y-82050534D01*
X137764735Y-82050103D01*
X137754334Y-82049800D01*
X137740931Y-82049604D01*
X137724029Y-82049495D01*
X137703130Y-82049448D01*
X137677736Y-82049442D01*
X137657446Y-82049450D01*
X137628476Y-82049476D01*
X137604345Y-82049536D01*
X137584558Y-82049649D01*
X137568620Y-82049834D01*
X137556037Y-82050108D01*
X137546314Y-82050491D01*
X137538955Y-82051001D01*
X137533466Y-82051657D01*
X137529352Y-82052478D01*
X137526119Y-82053481D01*
X137523733Y-82054473D01*
X137515172Y-82059798D01*
X137507700Y-82066755D01*
X137506398Y-82068416D01*
X137499994Y-82077394D01*
X137498488Y-82288372D01*
X137504596Y-82297562D01*
X137510854Y-82304466D01*
X137519320Y-82310899D01*
X137522583Y-82312752D01*
X137525497Y-82314177D01*
X137528427Y-82315354D01*
X137531878Y-82316311D01*
X137536357Y-82317069D01*
X137542371Y-82317651D01*
X137550425Y-82318080D01*
X137561027Y-82318381D01*
X137574683Y-82318575D01*
X137591899Y-82318686D01*
X137613182Y-82318738D01*
X137639038Y-82318752D01*
X137653909Y-82318753D01*
X137773356Y-82318753D01*
X137773356Y-82446767D01*
X137652677Y-82446453D01*
X137627329Y-82446342D01*
X137603237Y-82446149D01*
X137581008Y-82445888D01*
X137561248Y-82445567D01*
X137544562Y-82445197D01*
X137531558Y-82444793D01*
X137522841Y-82444361D01*
X137519545Y-82444038D01*
X137488376Y-82436364D01*
X137460252Y-82424450D01*
X137435370Y-82408439D01*
X137413926Y-82388475D01*
X137396119Y-82364704D01*
X137386199Y-82346464D01*
X137382521Y-82338257D01*
X137379454Y-82330191D01*
X137376951Y-82321712D01*
X137374963Y-82312265D01*
X137373441Y-82301296D01*
X137372337Y-82288251D01*
X137371602Y-82272575D01*
X137371189Y-82253715D01*
X137371046Y-82231114D01*
X137371128Y-82204220D01*
X137371345Y-82176786D01*
X137371626Y-82147998D01*
X137371935Y-82123942D01*
X137372347Y-82104017D01*
X137372934Y-82087621D01*
X137373774Y-82074153D01*
X137374936Y-82063010D01*
X137376497Y-82053593D01*
X137378530Y-82045298D01*
X137381107Y-82037526D01*
X137384304Y-82029673D01*
X137388194Y-82021139D01*
X137391234Y-82014721D01*
X137401485Y-81997526D01*
X137415526Y-81980112D01*
X137432042Y-81963811D01*
X137449722Y-81949955D01*
X137462932Y-81941982D01*
X137470262Y-81938243D01*
X137477001Y-81935065D01*
X137483640Y-81932404D01*
X137490671Y-81930213D01*
X137498584Y-81928448D01*
X137507872Y-81927061D01*
X137519025Y-81926008D01*
X137532538Y-81925243D01*
X137548898Y-81924720D01*
X137568598Y-81924392D01*
X137592130Y-81924216D01*
X137619984Y-81924143D01*
X137652653Y-81924130D01*
X137654677Y-81924130D01*
X137685711Y-81924143D01*
G37*
G36*
X138148062Y-80756008D02*
G01*
X138179096Y-80756020D01*
X138205288Y-80756066D01*
X138227130Y-80756161D01*
X138245117Y-80756320D01*
X138259738Y-80756561D01*
X138271488Y-80756899D01*
X138280858Y-80757351D01*
X138288341Y-80757932D01*
X138294429Y-80758657D01*
X138299614Y-80759546D01*
X138304392Y-80760612D01*
X138306668Y-80761188D01*
X138333868Y-80770223D01*
X138357589Y-80782535D01*
X138379000Y-80798780D01*
X138387006Y-80806352D01*
X138406196Y-80829159D01*
X138420811Y-80854401D01*
X138430755Y-80881619D01*
X138435930Y-80910351D01*
X138436242Y-80940136D01*
X138431594Y-80970518D01*
X138425570Y-80991226D01*
X138413857Y-81017375D01*
X138398000Y-81041138D01*
X138378629Y-81061873D01*
X138356369Y-81078942D01*
X138331847Y-81091709D01*
X138324260Y-81094563D01*
X138316485Y-81097011D01*
X138308246Y-81099067D01*
X138299026Y-81100763D01*
X138288298Y-81102132D01*
X138275541Y-81103206D01*
X138260234Y-81104017D01*
X138241854Y-81104598D01*
X138219879Y-81104982D01*
X138193786Y-81105201D01*
X138163054Y-81105288D01*
X138151870Y-81105292D01*
X138034717Y-81105292D01*
X138034717Y-80977279D01*
X138154815Y-80977279D01*
X138184740Y-80977273D01*
X138209811Y-80977214D01*
X138230510Y-80977048D01*
X138247318Y-80976714D01*
X138260715Y-80976156D01*
X138271182Y-80975315D01*
X138279200Y-80974133D01*
X138285250Y-80972552D01*
X138289812Y-80970517D01*
X138293368Y-80967967D01*
X138296397Y-80964845D01*
X138299382Y-80961094D01*
X138300393Y-80959768D01*
X138304367Y-80954021D01*
X138306679Y-80948592D01*
X138307767Y-80941719D01*
X138308073Y-80931642D01*
X138308078Y-80929010D01*
X138307291Y-80914658D01*
X138304461Y-80904183D01*
X138298889Y-80896298D01*
X138289875Y-80889718D01*
X138285355Y-80887269D01*
X138282515Y-80885864D01*
X138279658Y-80884697D01*
X138276288Y-80883748D01*
X138271907Y-80882993D01*
X138266016Y-80882411D01*
X138258120Y-80881980D01*
X138247719Y-80881678D01*
X138234316Y-80881484D01*
X138217414Y-80881373D01*
X138196515Y-80881325D01*
X138171122Y-80881320D01*
X138150831Y-80881327D01*
X138121861Y-80881352D01*
X138097730Y-80881414D01*
X138077943Y-80881527D01*
X138062006Y-80881711D01*
X138049422Y-80881986D01*
X138039699Y-80882369D01*
X138032340Y-80882879D01*
X138026851Y-80883535D01*
X138022737Y-80884354D01*
X138019504Y-80885358D01*
X138017118Y-80886351D01*
X138008557Y-80891675D01*
X138001084Y-80898632D01*
X137999783Y-80900293D01*
X137993379Y-80909272D01*
X137992626Y-81014760D01*
X137991873Y-81120248D01*
X137997982Y-81129439D01*
X138004239Y-81136343D01*
X138012706Y-81142776D01*
X138015968Y-81144630D01*
X138018882Y-81146053D01*
X138021812Y-81147232D01*
X138025264Y-81148188D01*
X138029743Y-81148946D01*
X138035756Y-81149528D01*
X138043811Y-81149958D01*
X138054413Y-81150258D01*
X138068068Y-81150452D01*
X138085285Y-81150564D01*
X138106567Y-81150615D01*
X138132423Y-81150630D01*
X138266741Y-81150630D01*
X138266741Y-81278645D01*
X138147394Y-81278311D01*
X138122142Y-81278198D01*
X138098106Y-81278009D01*
X138075905Y-81277754D01*
X138056155Y-81277444D01*
X138039473Y-81277090D01*
X138026476Y-81276703D01*
X138017780Y-81276293D01*
X138014652Y-81276009D01*
X137984497Y-81269137D01*
X137956871Y-81257952D01*
X137932145Y-81242800D01*
X137910698Y-81224025D01*
X137892900Y-81201973D01*
X137879127Y-81176990D01*
X137869753Y-81149420D01*
X137867796Y-81140385D01*
X137866747Y-81133950D01*
X137865908Y-81126548D01*
X137865266Y-81117615D01*
X137864808Y-81106585D01*
X137864520Y-81092896D01*
X137864389Y-81075983D01*
X137864403Y-81055282D01*
X137864546Y-81030226D01*
X137864729Y-81008663D01*
X137865011Y-80979875D01*
X137865320Y-80955818D01*
X137865732Y-80935894D01*
X137866320Y-80919498D01*
X137867159Y-80906029D01*
X137868321Y-80894888D01*
X137869882Y-80885469D01*
X137871913Y-80877176D01*
X137874492Y-80869403D01*
X137877689Y-80861550D01*
X137881579Y-80853016D01*
X137884619Y-80846599D01*
X137894870Y-80829404D01*
X137908911Y-80811988D01*
X137925428Y-80795688D01*
X137943107Y-80781833D01*
X137956317Y-80773860D01*
X137963647Y-80770120D01*
X137970386Y-80766942D01*
X137977025Y-80764281D01*
X137984056Y-80762091D01*
X137991969Y-80760325D01*
X138001258Y-80758939D01*
X138012412Y-80757885D01*
X138025923Y-80757120D01*
X138042283Y-80756597D01*
X138061983Y-80756270D01*
X138085514Y-80756093D01*
X138113369Y-80756021D01*
X138146038Y-80756007D01*
X138148062Y-80756008D01*
G37*
G36*
X138588761Y-82004720D02*
G01*
X138588638Y-82051779D01*
X138588531Y-82093819D01*
X138588426Y-82131157D01*
X138588302Y-82164107D01*
X138588144Y-82192988D01*
X138587935Y-82218112D01*
X138587656Y-82239796D01*
X138587290Y-82258356D01*
X138586819Y-82274106D01*
X138586229Y-82287364D01*
X138585496Y-82298444D01*
X138584610Y-82307662D01*
X138583549Y-82315333D01*
X138582296Y-82321774D01*
X138580836Y-82327300D01*
X138579149Y-82332226D01*
X138577218Y-82336869D01*
X138575027Y-82341543D01*
X138572558Y-82346564D01*
X138569792Y-82352249D01*
X138569571Y-82352714D01*
X138557099Y-82373475D01*
X138540434Y-82392921D01*
X138520707Y-82409937D01*
X138499054Y-82423411D01*
X138496099Y-82424872D01*
X138487088Y-82429185D01*
X138479173Y-82432834D01*
X138471827Y-82435875D01*
X138464523Y-82438367D01*
X138456736Y-82440368D01*
X138447938Y-82441935D01*
X138437602Y-82443126D01*
X138425204Y-82443999D01*
X138410215Y-82444611D01*
X138392109Y-82445021D01*
X138370360Y-82445286D01*
X138344441Y-82445464D01*
X138313825Y-82445613D01*
X138306746Y-82445646D01*
X138279962Y-82445727D01*
X138254422Y-82445726D01*
X138230695Y-82445645D01*
X138209353Y-82445491D01*
X138190966Y-82445269D01*
X138176106Y-82444985D01*
X138165343Y-82444644D01*
X138159249Y-82444252D01*
X138158729Y-82444182D01*
X138139762Y-82440425D01*
X138123010Y-82435132D01*
X138105705Y-82427385D01*
X138101391Y-82425177D01*
X138077600Y-82409824D01*
X138056880Y-82390330D01*
X138039547Y-82367118D01*
X138025918Y-82340616D01*
X138016308Y-82311250D01*
X138016089Y-82310344D01*
X138014725Y-82304281D01*
X138013613Y-82298187D01*
X138012728Y-82291458D01*
X138012044Y-82283485D01*
X138011536Y-82273663D01*
X138011177Y-82261386D01*
X138010944Y-82246045D01*
X138010810Y-82227035D01*
X138010747Y-82203749D01*
X138010733Y-82183293D01*
X138010765Y-82155246D01*
X138010884Y-82131960D01*
X138011110Y-82112865D01*
X138011461Y-82097389D01*
X138011958Y-82084961D01*
X138012618Y-82075009D01*
X138013463Y-82066961D01*
X138014510Y-82060246D01*
X138014953Y-82057985D01*
X138023323Y-82030205D01*
X138036269Y-82004771D01*
X138053402Y-81982070D01*
X138074334Y-81962496D01*
X138098676Y-81946440D01*
X138126040Y-81934296D01*
X138142487Y-81929360D01*
X138147712Y-81928119D01*
X138153010Y-81927087D01*
X138158909Y-81926245D01*
X138165938Y-81925573D01*
X138174623Y-81925053D01*
X138185497Y-81924665D01*
X138199084Y-81924390D01*
X138215914Y-81924210D01*
X138236514Y-81924105D01*
X138261413Y-81924057D01*
X138289837Y-81924045D01*
X138416090Y-81924045D01*
X138416090Y-82054475D01*
X138294078Y-82055267D01*
X138263965Y-82055468D01*
X138238716Y-82055686D01*
X138217861Y-82055984D01*
X138200931Y-82056422D01*
X138187456Y-82057062D01*
X138176965Y-82057965D01*
X138168991Y-82059193D01*
X138163062Y-82060807D01*
X138158709Y-82062869D01*
X138155462Y-82065440D01*
X138152851Y-82068580D01*
X138150408Y-82072352D01*
X138149288Y-82074190D01*
X138147952Y-82076627D01*
X138146866Y-82079485D01*
X138146004Y-82083304D01*
X138145341Y-82088629D01*
X138144850Y-82096001D01*
X138144505Y-82105964D01*
X138144282Y-82119062D01*
X138144154Y-82135834D01*
X138144096Y-82156827D01*
X138144082Y-82182583D01*
X138144082Y-82184072D01*
X138144095Y-82210094D01*
X138144150Y-82231325D01*
X138144274Y-82248307D01*
X138144492Y-82261585D01*
X138144830Y-82271699D01*
X138145313Y-82279194D01*
X138145967Y-82284611D01*
X138146818Y-82288495D01*
X138147891Y-82291387D01*
X138149212Y-82293831D01*
X138149278Y-82293939D01*
X138151684Y-82297937D01*
X138153920Y-82301301D01*
X138156442Y-82304086D01*
X138159705Y-82306346D01*
X138164164Y-82308136D01*
X138170275Y-82309510D01*
X138178493Y-82310523D01*
X138189273Y-82311230D01*
X138203071Y-82311686D01*
X138220342Y-82311944D01*
X138241541Y-82312061D01*
X138267123Y-82312090D01*
X138297545Y-82312086D01*
X138300432Y-82312086D01*
X138330277Y-82312079D01*
X138355254Y-82312051D01*
X138375825Y-82311981D01*
X138392457Y-82311850D01*
X138405613Y-82311640D01*
X138415760Y-82311333D01*
X138423359Y-82310911D01*
X138428878Y-82310354D01*
X138432780Y-82309644D01*
X138435530Y-82308763D01*
X138437593Y-82307692D01*
X138439231Y-82306562D01*
X138445694Y-82300243D01*
X138451154Y-82292408D01*
X138451423Y-82291894D01*
X138452160Y-82290196D01*
X138452815Y-82287955D01*
X138453394Y-82284868D01*
X138453900Y-82280631D01*
X138454339Y-82274939D01*
X138454715Y-82267488D01*
X138455034Y-82257976D01*
X138455300Y-82246097D01*
X138455517Y-82231549D01*
X138455691Y-82214026D01*
X138455826Y-82193226D01*
X138455927Y-82168843D01*
X138455999Y-82140575D01*
X138456047Y-82108118D01*
X138456075Y-82071167D01*
X138456088Y-82029418D01*
X138456090Y-81994053D01*
X138456095Y-81705355D01*
X138589596Y-81705355D01*
X138588761Y-82004720D01*
G37*
G36*
X136554728Y-78946666D02*
G01*
X136576801Y-78947721D01*
X136596168Y-78949658D01*
X136605876Y-78951251D01*
X136648621Y-78962412D01*
X136689178Y-78978294D01*
X136727227Y-78998634D01*
X136762443Y-79023175D01*
X136794502Y-79051654D01*
X136823083Y-79083810D01*
X136847861Y-79119385D01*
X136868514Y-79158113D01*
X136872118Y-79166207D01*
X136886803Y-79206810D01*
X136896373Y-79248249D01*
X136900899Y-79290125D01*
X136900458Y-79332037D01*
X136895118Y-79373585D01*
X136884956Y-79414372D01*
X136870044Y-79453995D01*
X136850454Y-79492056D01*
X136826261Y-79528154D01*
X136800323Y-79558942D01*
X136783919Y-79576478D01*
X136783919Y-79778266D01*
X136783915Y-79815896D01*
X136783898Y-79848564D01*
X136783857Y-79876644D01*
X136783784Y-79900506D01*
X136783669Y-79920527D01*
X136783504Y-79937074D01*
X136783279Y-79950522D01*
X136782984Y-79961244D01*
X136782611Y-79969611D01*
X136782152Y-79975997D01*
X136781593Y-79980773D01*
X136780929Y-79984313D01*
X136780150Y-79986988D01*
X136779247Y-79989171D01*
X136778663Y-79990357D01*
X136769738Y-80002777D01*
X136757518Y-80012882D01*
X136743774Y-80019242D01*
X136742412Y-80019610D01*
X136737376Y-80020199D01*
X136727574Y-80020719D01*
X136713529Y-80021170D01*
X136695768Y-80021554D01*
X136674812Y-80021871D01*
X136651185Y-80022122D01*
X136625411Y-80022307D01*
X136598014Y-80022428D01*
X136569517Y-80022486D01*
X136540444Y-80022480D01*
X136511320Y-80022413D01*
X136482667Y-80022284D01*
X136455010Y-80022095D01*
X136428871Y-80021847D01*
X136404775Y-80021540D01*
X136383246Y-80021174D01*
X136364806Y-80020752D01*
X136349982Y-80020273D01*
X136339295Y-80019739D01*
X136333269Y-80019150D01*
X136332481Y-80018973D01*
X136318611Y-80012222D01*
X136306466Y-80001791D01*
X136298528Y-79990496D01*
X136297535Y-79988416D01*
X136296675Y-79986090D01*
X136295936Y-79983146D01*
X136295308Y-79979210D01*
X136294786Y-79973911D01*
X136294358Y-79966875D01*
X136294015Y-79957729D01*
X136293747Y-79946102D01*
X136293545Y-79931620D01*
X136293400Y-79913910D01*
X136293303Y-79892600D01*
X136293244Y-79867317D01*
X136293213Y-79837688D01*
X136293202Y-79803341D01*
X136293201Y-79778266D01*
X136293201Y-79576478D01*
X136276797Y-79558942D01*
X136248213Y-79524635D01*
X136224091Y-79487713D01*
X136204616Y-79448560D01*
X136189977Y-79407560D01*
X136180363Y-79365098D01*
X136179734Y-79361109D01*
X136175900Y-79318578D01*
X136176575Y-79296506D01*
X136285667Y-79296506D01*
X136286031Y-79321105D01*
X136290246Y-79357719D01*
X136299233Y-79392061D01*
X136313063Y-79424281D01*
X136331806Y-79454526D01*
X136355534Y-79482952D01*
X136368052Y-79495373D01*
X136374264Y-79501035D01*
X136379653Y-79505815D01*
X136384279Y-79510112D01*
X136388200Y-79514327D01*
X136391477Y-79518860D01*
X136394168Y-79524111D01*
X136396331Y-79530481D01*
X136398027Y-79538370D01*
X136399316Y-79548178D01*
X136400255Y-79560305D01*
X136400904Y-79575152D01*
X136401323Y-79593118D01*
X136401571Y-79614606D01*
X136401706Y-79640012D01*
X136401789Y-79669739D01*
X136401877Y-79704187D01*
X136401948Y-79724481D01*
X136402683Y-79913167D01*
X136674437Y-79913167D01*
X136675172Y-79724481D01*
X136675288Y-79687370D01*
X136675367Y-79655192D01*
X136675466Y-79627547D01*
X136675648Y-79604034D01*
X136675969Y-79584253D01*
X136676489Y-79567804D01*
X136677267Y-79554287D01*
X136678363Y-79543300D01*
X136679836Y-79534445D01*
X136681745Y-79527320D01*
X136684149Y-79521527D01*
X136687108Y-79516663D01*
X136690680Y-79512328D01*
X136694925Y-79508126D01*
X136699903Y-79503652D01*
X136705671Y-79498506D01*
X136709067Y-79495373D01*
X136735096Y-79467730D01*
X136756107Y-79438336D01*
X136772173Y-79407037D01*
X136783364Y-79373683D01*
X136789750Y-79338124D01*
X136791088Y-79321105D01*
X136791402Y-79294834D01*
X136789354Y-79271188D01*
X136784617Y-79247868D01*
X136777496Y-79224395D01*
X136765378Y-79194833D01*
X136749931Y-79168105D01*
X136730359Y-79142943D01*
X136718579Y-79130350D01*
X136691506Y-79106153D01*
X136662862Y-79086905D01*
X136632265Y-79072355D01*
X136627353Y-79070516D01*
X136591536Y-79060248D01*
X136555599Y-79055155D01*
X136519956Y-79055149D01*
X136485025Y-79060132D01*
X136451225Y-79070012D01*
X136418971Y-79084698D01*
X136388682Y-79104096D01*
X136360775Y-79128114D01*
X136358541Y-79130350D01*
X136336569Y-79155203D01*
X136319126Y-79180977D01*
X136305416Y-79208940D01*
X136299624Y-79224395D01*
X136292090Y-79249486D01*
X136287546Y-79272756D01*
X136285667Y-79296506D01*
X136176575Y-79296506D01*
X136177190Y-79276409D01*
X136183394Y-79235004D01*
X136194305Y-79194762D01*
X136209711Y-79156085D01*
X136229405Y-79119372D01*
X136253175Y-79085026D01*
X136280814Y-79053446D01*
X136312112Y-79025032D01*
X136346858Y-79000186D01*
X136377385Y-78982953D01*
X136393896Y-78975517D01*
X136413733Y-78967925D01*
X136434953Y-78960831D01*
X136455611Y-78954893D01*
X136471243Y-78951252D01*
X136488207Y-78948784D01*
X136508839Y-78947197D01*
X136531543Y-78946491D01*
X136554728Y-78946666D01*
G37*
G36*
X136566028Y-82977392D02*
G01*
X136594664Y-82977479D01*
X136622269Y-82977625D01*
X136648312Y-82977831D01*
X136672266Y-82978098D01*
X136693598Y-82978422D01*
X136711778Y-82978808D01*
X136726276Y-82979253D01*
X136736562Y-82979758D01*
X136742105Y-82980323D01*
X136742413Y-82980391D01*
X136756211Y-82986307D01*
X136768660Y-82996109D01*
X136777984Y-83008366D01*
X136778663Y-83009645D01*
X136779643Y-83011712D01*
X136780493Y-83014057D01*
X136781222Y-83017050D01*
X136781840Y-83021064D01*
X136782356Y-83026473D01*
X136782778Y-83033646D01*
X136783118Y-83042958D01*
X136783381Y-83054781D01*
X136783581Y-83069488D01*
X136783722Y-83087450D01*
X136783819Y-83109040D01*
X136783877Y-83134630D01*
X136783907Y-83164596D01*
X136783918Y-83199306D01*
X136783919Y-83221735D01*
X136783919Y-83423523D01*
X136800323Y-83441059D01*
X136828905Y-83475365D01*
X136853029Y-83512288D01*
X136872504Y-83551441D01*
X136887143Y-83592442D01*
X136896757Y-83634903D01*
X136897386Y-83638892D01*
X136901242Y-83681379D01*
X136900018Y-83723275D01*
X136893961Y-83764230D01*
X136883318Y-83803894D01*
X136868337Y-83841919D01*
X136849265Y-83877954D01*
X136826350Y-83911651D01*
X136799839Y-83942659D01*
X136769981Y-83970630D01*
X136737020Y-83995215D01*
X136701208Y-84016062D01*
X136662790Y-84032825D01*
X136622014Y-84045153D01*
X136607315Y-84048338D01*
X136596227Y-84049988D01*
X136581582Y-84051444D01*
X136564780Y-84052642D01*
X136547219Y-84053516D01*
X136530300Y-84054003D01*
X136515423Y-84054035D01*
X136503987Y-84053549D01*
X136501223Y-84053266D01*
X136456856Y-84045151D01*
X136414588Y-84032407D01*
X136374746Y-84015204D01*
X136337646Y-83993718D01*
X136303612Y-83968117D01*
X136272966Y-83938573D01*
X136261340Y-83925220D01*
X136235003Y-83889384D01*
X136213514Y-83851721D01*
X136196858Y-83812607D01*
X136185025Y-83772417D01*
X136178003Y-83731525D01*
X136176580Y-83705167D01*
X136285717Y-83705167D01*
X136287766Y-83728814D01*
X136292503Y-83752133D01*
X136299623Y-83775606D01*
X136311742Y-83805168D01*
X136327189Y-83831896D01*
X136346761Y-83857058D01*
X136358541Y-83869650D01*
X136386271Y-83894094D01*
X136416487Y-83913953D01*
X136448784Y-83929096D01*
X136482762Y-83939396D01*
X136518017Y-83944723D01*
X136554149Y-83944946D01*
X136582019Y-83941611D01*
X136617473Y-83932926D01*
X136650331Y-83919635D01*
X136680825Y-83901618D01*
X136709185Y-83878751D01*
X136718580Y-83869651D01*
X136740551Y-83844798D01*
X136757993Y-83819024D01*
X136771705Y-83791061D01*
X136777496Y-83775607D01*
X136785029Y-83750515D01*
X136789574Y-83727245D01*
X136791453Y-83703495D01*
X136791088Y-83678896D01*
X136786874Y-83642282D01*
X136777887Y-83607940D01*
X136764057Y-83575720D01*
X136745314Y-83545473D01*
X136721586Y-83517049D01*
X136709067Y-83504628D01*
X136702857Y-83498966D01*
X136697468Y-83494186D01*
X136692841Y-83489889D01*
X136688920Y-83485674D01*
X136685643Y-83481141D01*
X136682953Y-83475890D01*
X136680789Y-83469520D01*
X136679093Y-83461631D01*
X136677804Y-83451823D01*
X136676865Y-83439697D01*
X136676216Y-83424849D01*
X136675797Y-83406883D01*
X136675549Y-83385396D01*
X136675413Y-83359989D01*
X136675331Y-83330262D01*
X136675242Y-83295814D01*
X136675172Y-83275519D01*
X136674436Y-83086834D01*
X136402684Y-83086834D01*
X136401949Y-83275520D01*
X136401833Y-83312631D01*
X136401753Y-83344809D01*
X136401653Y-83372454D01*
X136401472Y-83395967D01*
X136401151Y-83415748D01*
X136400630Y-83432197D01*
X136399853Y-83445714D01*
X136398758Y-83456701D01*
X136397284Y-83465555D01*
X136395375Y-83472681D01*
X136392971Y-83478474D01*
X136390012Y-83483338D01*
X136386440Y-83487671D01*
X136382195Y-83491875D01*
X136377217Y-83496350D01*
X136371448Y-83501496D01*
X136368052Y-83504628D01*
X136342024Y-83532270D01*
X136321012Y-83561665D01*
X136304946Y-83592965D01*
X136293757Y-83626318D01*
X136287369Y-83661876D01*
X136286030Y-83678896D01*
X136285717Y-83705167D01*
X136176580Y-83705167D01*
X136175779Y-83690308D01*
X136178341Y-83649138D01*
X136185677Y-83608395D01*
X136197777Y-83568451D01*
X136214626Y-83529680D01*
X136236216Y-83492460D01*
X136262530Y-83457166D01*
X136276797Y-83441059D01*
X136293201Y-83423523D01*
X136293201Y-83221735D01*
X136293205Y-83184105D01*
X136293222Y-83151436D01*
X136293263Y-83123357D01*
X136293336Y-83099494D01*
X136293451Y-83079474D01*
X136293616Y-83062926D01*
X136293841Y-83049479D01*
X136294136Y-83038757D01*
X136294509Y-83030390D01*
X136294969Y-83024004D01*
X136295527Y-83019229D01*
X136296189Y-83015688D01*
X136296969Y-83013013D01*
X136297873Y-83010830D01*
X136298457Y-83009645D01*
X136307381Y-82997224D01*
X136319602Y-82987119D01*
X136333347Y-82980759D01*
X136334709Y-82980391D01*
X136339675Y-82979820D01*
X136349447Y-82979308D01*
X136363491Y-82978856D01*
X136381277Y-82978463D01*
X136402276Y-82978131D01*
X136425957Y-82977858D01*
X136451790Y-82977645D01*
X136479243Y-82977492D01*
X136507788Y-82977399D01*
X136536893Y-82977366D01*
X136566028Y-82977392D01*
G37*
G36*
X137576169Y-78946666D02*
G01*
X137598242Y-78947721D01*
X137617609Y-78949658D01*
X137627317Y-78951252D01*
X137670061Y-78962412D01*
X137710619Y-78978293D01*
X137748667Y-78998634D01*
X137783883Y-79023175D01*
X137815943Y-79051654D01*
X137844524Y-79083810D01*
X137869302Y-79119384D01*
X137889955Y-79158113D01*
X137893559Y-79166207D01*
X137908244Y-79206810D01*
X137917813Y-79248249D01*
X137922340Y-79290125D01*
X137921897Y-79332036D01*
X137916559Y-79373586D01*
X137906396Y-79414372D01*
X137891484Y-79453995D01*
X137871895Y-79492056D01*
X137847701Y-79528154D01*
X137821764Y-79558941D01*
X137805360Y-79576478D01*
X137805360Y-79778266D01*
X137805356Y-79815896D01*
X137805338Y-79848564D01*
X137805297Y-79876644D01*
X137805224Y-79900506D01*
X137805110Y-79920527D01*
X137804945Y-79937074D01*
X137804719Y-79950522D01*
X137804425Y-79961244D01*
X137804052Y-79969611D01*
X137803590Y-79975997D01*
X137803034Y-79980773D01*
X137802370Y-79984313D01*
X137801591Y-79986988D01*
X137800687Y-79989171D01*
X137800103Y-79990357D01*
X137791180Y-80002777D01*
X137778959Y-80012882D01*
X137765214Y-80019242D01*
X137763853Y-80019610D01*
X137758816Y-80020199D01*
X137749014Y-80020719D01*
X137734971Y-80021170D01*
X137717209Y-80021554D01*
X137696252Y-80021871D01*
X137672625Y-80022122D01*
X137646853Y-80022307D01*
X137619454Y-80022428D01*
X137590958Y-80022485D01*
X137561884Y-80022480D01*
X137532761Y-80022413D01*
X137504108Y-80022284D01*
X137476450Y-80022095D01*
X137450312Y-80021847D01*
X137426216Y-80021540D01*
X137404687Y-80021174D01*
X137386248Y-80020752D01*
X137371423Y-80020273D01*
X137360735Y-80019739D01*
X137354709Y-80019150D01*
X137353921Y-80018972D01*
X137340051Y-80012222D01*
X137327907Y-80001791D01*
X137319969Y-79990496D01*
X137318976Y-79988416D01*
X137318115Y-79986090D01*
X137317376Y-79983146D01*
X137316748Y-79979210D01*
X137316227Y-79973911D01*
X137315799Y-79966875D01*
X137315455Y-79957729D01*
X137315187Y-79946102D01*
X137314986Y-79931620D01*
X137314841Y-79913910D01*
X137314744Y-79892600D01*
X137314684Y-79867317D01*
X137314654Y-79837688D01*
X137314643Y-79803341D01*
X137314641Y-79778266D01*
X137314641Y-79576478D01*
X137298237Y-79558942D01*
X137269655Y-79524635D01*
X137245532Y-79487713D01*
X137226057Y-79448560D01*
X137211418Y-79407560D01*
X137201804Y-79365098D01*
X137201175Y-79361109D01*
X137197340Y-79318578D01*
X137198015Y-79296506D01*
X137307108Y-79296506D01*
X137307472Y-79321105D01*
X137311687Y-79357719D01*
X137320673Y-79392061D01*
X137334503Y-79424281D01*
X137353247Y-79454527D01*
X137376974Y-79482952D01*
X137389493Y-79495373D01*
X137395705Y-79501035D01*
X137401094Y-79505815D01*
X137405719Y-79510112D01*
X137409641Y-79514327D01*
X137412917Y-79518860D01*
X137415608Y-79524111D01*
X137417771Y-79530481D01*
X137419468Y-79538370D01*
X137420756Y-79548178D01*
X137421695Y-79560305D01*
X137422345Y-79575152D01*
X137422764Y-79593118D01*
X137423011Y-79614606D01*
X137423147Y-79640012D01*
X137423230Y-79669738D01*
X137423319Y-79704187D01*
X137423388Y-79724481D01*
X137424123Y-79913167D01*
X137695877Y-79913167D01*
X137696613Y-79724481D01*
X137696729Y-79687370D01*
X137696807Y-79655192D01*
X137696908Y-79627547D01*
X137697088Y-79604034D01*
X137697409Y-79584253D01*
X137697929Y-79567804D01*
X137698708Y-79554287D01*
X137699804Y-79543300D01*
X137701277Y-79534445D01*
X137703186Y-79527320D01*
X137705590Y-79521527D01*
X137708548Y-79516663D01*
X137712121Y-79512329D01*
X137716366Y-79508126D01*
X137721343Y-79503652D01*
X137727112Y-79498506D01*
X137730508Y-79495373D01*
X137756536Y-79467730D01*
X137777548Y-79438336D01*
X137793614Y-79407036D01*
X137804805Y-79373683D01*
X137811191Y-79338125D01*
X137812529Y-79321105D01*
X137812844Y-79294834D01*
X137810794Y-79271188D01*
X137806057Y-79247868D01*
X137798936Y-79224395D01*
X137786818Y-79194833D01*
X137771371Y-79168105D01*
X137751800Y-79142943D01*
X137740019Y-79130350D01*
X137712946Y-79106153D01*
X137684302Y-79086905D01*
X137653705Y-79072355D01*
X137648794Y-79070516D01*
X137612978Y-79060248D01*
X137577040Y-79055156D01*
X137541397Y-79055149D01*
X137506466Y-79060132D01*
X137472665Y-79070012D01*
X137440412Y-79084698D01*
X137410123Y-79104096D01*
X137382215Y-79128114D01*
X137379982Y-79130350D01*
X137358010Y-79155203D01*
X137340566Y-79180977D01*
X137326856Y-79208940D01*
X137321065Y-79224395D01*
X137313531Y-79249486D01*
X137308986Y-79272756D01*
X137307108Y-79296506D01*
X137198015Y-79296506D01*
X137198630Y-79276409D01*
X137204835Y-79235004D01*
X137215745Y-79194762D01*
X137231152Y-79156085D01*
X137250845Y-79119372D01*
X137274616Y-79085026D01*
X137302255Y-79053447D01*
X137333552Y-79025032D01*
X137368299Y-79000187D01*
X137398826Y-78982953D01*
X137415336Y-78975517D01*
X137435174Y-78967925D01*
X137456394Y-78960831D01*
X137477051Y-78954893D01*
X137492685Y-78951252D01*
X137509648Y-78948784D01*
X137530277Y-78947197D01*
X137552983Y-78946491D01*
X137576169Y-78946666D01*
G37*
G36*
X137587469Y-82977393D02*
G01*
X137616104Y-82977479D01*
X137643709Y-82977625D01*
X137669753Y-82977831D01*
X137693707Y-82978097D01*
X137715038Y-82978422D01*
X137733218Y-82978808D01*
X137747716Y-82979253D01*
X137758002Y-82979758D01*
X137763545Y-82980323D01*
X137763853Y-82980391D01*
X137777652Y-82986307D01*
X137790100Y-82996109D01*
X137799425Y-83008366D01*
X137800103Y-83009645D01*
X137801083Y-83011712D01*
X137801933Y-83014057D01*
X137802663Y-83017050D01*
X137803281Y-83021065D01*
X137803796Y-83026473D01*
X137804219Y-83033646D01*
X137804558Y-83042958D01*
X137804822Y-83054781D01*
X137805021Y-83069488D01*
X137805164Y-83087450D01*
X137805259Y-83109040D01*
X137805318Y-83134631D01*
X137805349Y-83164596D01*
X137805359Y-83199306D01*
X137805359Y-83221735D01*
X137805359Y-83423523D01*
X137821764Y-83441059D01*
X137850347Y-83475365D01*
X137874469Y-83512288D01*
X137893944Y-83551441D01*
X137908583Y-83592441D01*
X137918197Y-83634903D01*
X137918826Y-83638892D01*
X137922683Y-83681379D01*
X137921459Y-83723275D01*
X137915402Y-83764230D01*
X137904759Y-83803894D01*
X137889777Y-83841919D01*
X137870705Y-83877954D01*
X137847790Y-83911651D01*
X137821279Y-83942659D01*
X137791421Y-83970630D01*
X137758461Y-83995215D01*
X137722648Y-84016062D01*
X137684230Y-84032825D01*
X137643454Y-84045153D01*
X137628756Y-84048337D01*
X137617668Y-84049988D01*
X137603023Y-84051444D01*
X137586220Y-84052642D01*
X137568660Y-84053516D01*
X137551741Y-84054002D01*
X137536863Y-84054035D01*
X137525427Y-84053549D01*
X137522663Y-84053266D01*
X137478296Y-84045151D01*
X137436030Y-84032407D01*
X137396186Y-84015204D01*
X137359087Y-83993718D01*
X137325052Y-83968117D01*
X137294407Y-83938573D01*
X137282780Y-83925220D01*
X137256444Y-83889384D01*
X137234954Y-83851721D01*
X137218299Y-83812607D01*
X137206466Y-83772417D01*
X137199443Y-83731525D01*
X137198021Y-83705167D01*
X137307157Y-83705167D01*
X137309207Y-83728813D01*
X137313944Y-83752133D01*
X137321065Y-83775606D01*
X137333183Y-83805169D01*
X137348630Y-83831896D01*
X137368201Y-83857058D01*
X137379982Y-83869651D01*
X137407712Y-83894094D01*
X137437927Y-83913953D01*
X137470226Y-83929096D01*
X137504202Y-83939396D01*
X137539458Y-83944723D01*
X137575589Y-83944946D01*
X137603460Y-83941611D01*
X137638913Y-83932926D01*
X137671772Y-83919635D01*
X137702266Y-83901618D01*
X137730626Y-83878751D01*
X137740020Y-83869651D01*
X137761991Y-83844798D01*
X137779435Y-83819024D01*
X137793145Y-83791061D01*
X137798936Y-83775607D01*
X137806470Y-83750515D01*
X137811015Y-83727245D01*
X137812893Y-83703495D01*
X137812530Y-83678896D01*
X137808314Y-83642282D01*
X137799328Y-83607940D01*
X137785498Y-83575720D01*
X137766754Y-83545474D01*
X137743027Y-83517049D01*
X137730508Y-83504628D01*
X137724297Y-83498966D01*
X137718906Y-83494186D01*
X137714283Y-83489889D01*
X137710360Y-83485674D01*
X137707084Y-83481141D01*
X137704393Y-83475890D01*
X137702230Y-83469520D01*
X137700533Y-83461631D01*
X137699245Y-83451823D01*
X137698306Y-83439696D01*
X137697656Y-83424849D01*
X137697237Y-83406883D01*
X137696989Y-83385396D01*
X137696855Y-83359989D01*
X137696771Y-83330262D01*
X137696682Y-83295814D01*
X137696613Y-83275520D01*
X137695877Y-83086834D01*
X137424124Y-83086834D01*
X137423389Y-83275520D01*
X137423273Y-83312631D01*
X137423194Y-83344809D01*
X137423093Y-83372454D01*
X137422913Y-83395967D01*
X137422592Y-83415748D01*
X137422072Y-83432197D01*
X137421293Y-83445714D01*
X137420198Y-83456701D01*
X137418724Y-83465555D01*
X137416815Y-83472681D01*
X137414411Y-83478474D01*
X137411453Y-83483339D01*
X137407880Y-83487672D01*
X137403635Y-83491875D01*
X137398658Y-83496350D01*
X137392889Y-83501495D01*
X137389493Y-83504628D01*
X137363465Y-83532270D01*
X137342453Y-83561665D01*
X137326387Y-83592965D01*
X137315197Y-83626318D01*
X137308810Y-83661876D01*
X137307472Y-83678896D01*
X137307157Y-83705167D01*
X137198021Y-83705167D01*
X137197219Y-83690308D01*
X137199781Y-83649138D01*
X137207118Y-83608395D01*
X137219217Y-83568451D01*
X137236067Y-83529680D01*
X137257656Y-83492460D01*
X137283970Y-83457166D01*
X137298237Y-83441059D01*
X137314641Y-83423523D01*
X137314641Y-83221735D01*
X137314645Y-83184105D01*
X137314663Y-83151436D01*
X137314704Y-83123357D01*
X137314777Y-83099494D01*
X137314891Y-83079474D01*
X137315056Y-83062926D01*
X137315281Y-83049479D01*
X137315576Y-83038757D01*
X137315949Y-83030390D01*
X137316410Y-83024004D01*
X137316967Y-83019229D01*
X137317631Y-83015688D01*
X137318409Y-83013013D01*
X137319314Y-83010830D01*
X137319898Y-83009644D01*
X137328821Y-82997224D01*
X137341042Y-82987119D01*
X137354787Y-82980759D01*
X137356147Y-82980391D01*
X137361116Y-82979820D01*
X137370888Y-82979308D01*
X137384932Y-82978856D01*
X137402718Y-82978464D01*
X137423717Y-82978131D01*
X137447398Y-82977858D01*
X137473230Y-82977645D01*
X137500684Y-82977492D01*
X137529228Y-82977399D01*
X137558333Y-82977366D01*
X137587469Y-82977393D01*
G37*
G36*
X138597609Y-78946666D02*
G01*
X138619682Y-78947721D01*
X138639049Y-78949658D01*
X138648758Y-78951252D01*
X138691502Y-78962411D01*
X138732060Y-78978293D01*
X138770108Y-78998633D01*
X138805324Y-79023175D01*
X138837384Y-79051654D01*
X138865964Y-79083810D01*
X138890743Y-79119384D01*
X138911395Y-79158113D01*
X138914999Y-79166207D01*
X138929684Y-79206810D01*
X138939255Y-79248249D01*
X138943781Y-79290125D01*
X138943338Y-79332037D01*
X138937999Y-79373586D01*
X138927838Y-79414372D01*
X138912925Y-79453995D01*
X138893335Y-79492056D01*
X138869142Y-79528154D01*
X138843204Y-79558941D01*
X138826800Y-79576478D01*
X138826800Y-79778266D01*
X138826796Y-79815896D01*
X138826779Y-79848565D01*
X138826738Y-79876643D01*
X138826665Y-79900507D01*
X138826550Y-79920527D01*
X138826385Y-79937074D01*
X138826160Y-79950522D01*
X138825865Y-79961244D01*
X138825492Y-79969611D01*
X138825032Y-79975997D01*
X138824474Y-79980773D01*
X138823811Y-79984313D01*
X138823032Y-79986988D01*
X138822127Y-79989171D01*
X138821544Y-79990357D01*
X138812620Y-80002777D01*
X138800399Y-80012882D01*
X138786654Y-80019242D01*
X138785293Y-80019610D01*
X138780257Y-80020199D01*
X138770455Y-80020720D01*
X138756411Y-80021170D01*
X138738649Y-80021554D01*
X138717693Y-80021871D01*
X138694066Y-80022122D01*
X138668293Y-80022307D01*
X138640895Y-80022429D01*
X138612397Y-80022486D01*
X138583326Y-80022480D01*
X138554201Y-80022413D01*
X138525548Y-80022284D01*
X138497891Y-80022095D01*
X138471752Y-80021847D01*
X138447656Y-80021540D01*
X138426127Y-80021174D01*
X138407688Y-80020752D01*
X138392863Y-80020273D01*
X138382176Y-80019739D01*
X138376150Y-80019150D01*
X138375362Y-80018973D01*
X138361492Y-80012221D01*
X138349347Y-80001791D01*
X138341409Y-79990496D01*
X138340416Y-79988416D01*
X138339555Y-79986090D01*
X138338816Y-79983146D01*
X138338190Y-79979210D01*
X138337667Y-79973911D01*
X138337239Y-79966875D01*
X138336896Y-79957729D01*
X138336628Y-79946102D01*
X138336426Y-79931620D01*
X138336282Y-79913910D01*
X138336184Y-79892600D01*
X138336124Y-79867317D01*
X138336094Y-79837688D01*
X138336083Y-79803341D01*
X138336082Y-79778266D01*
X138336082Y-79576478D01*
X138319678Y-79558941D01*
X138291096Y-79524635D01*
X138266972Y-79487713D01*
X138247497Y-79448560D01*
X138232858Y-79407560D01*
X138223244Y-79365098D01*
X138222616Y-79361109D01*
X138218781Y-79318578D01*
X138219456Y-79296506D01*
X138328548Y-79296506D01*
X138328913Y-79321105D01*
X138333127Y-79357719D01*
X138342114Y-79392061D01*
X138355944Y-79424281D01*
X138374687Y-79454527D01*
X138398415Y-79482952D01*
X138410934Y-79495373D01*
X138417145Y-79501035D01*
X138422534Y-79505815D01*
X138427161Y-79510112D01*
X138431081Y-79514327D01*
X138434358Y-79518860D01*
X138437048Y-79524111D01*
X138439211Y-79530481D01*
X138440908Y-79538371D01*
X138442197Y-79548178D01*
X138443136Y-79560305D01*
X138443785Y-79575152D01*
X138444204Y-79593118D01*
X138444452Y-79614605D01*
X138444588Y-79640012D01*
X138444670Y-79669738D01*
X138444759Y-79704187D01*
X138444829Y-79724481D01*
X138445565Y-79913167D01*
X138717317Y-79913167D01*
X138718053Y-79724481D01*
X138718169Y-79687370D01*
X138718248Y-79655192D01*
X138718348Y-79627547D01*
X138718530Y-79604034D01*
X138718850Y-79584253D01*
X138719370Y-79567804D01*
X138720148Y-79554287D01*
X138721244Y-79543300D01*
X138722717Y-79534445D01*
X138724626Y-79527320D01*
X138727030Y-79521527D01*
X138729989Y-79516663D01*
X138733561Y-79512329D01*
X138737806Y-79508126D01*
X138742784Y-79503651D01*
X138748553Y-79498506D01*
X138751949Y-79495374D01*
X138777977Y-79467731D01*
X138798989Y-79438336D01*
X138815055Y-79407037D01*
X138826245Y-79373683D01*
X138832632Y-79338125D01*
X138833970Y-79321105D01*
X138834284Y-79294834D01*
X138832235Y-79271188D01*
X138827498Y-79247867D01*
X138820377Y-79224395D01*
X138808260Y-79194833D01*
X138792812Y-79168105D01*
X138773240Y-79142943D01*
X138761460Y-79130350D01*
X138734386Y-79106153D01*
X138705743Y-79086905D01*
X138675145Y-79072355D01*
X138670235Y-79070516D01*
X138634418Y-79060248D01*
X138598480Y-79055156D01*
X138562837Y-79055149D01*
X138527907Y-79060132D01*
X138494106Y-79070013D01*
X138461852Y-79084698D01*
X138431563Y-79104096D01*
X138403657Y-79128114D01*
X138401422Y-79130350D01*
X138379450Y-79155203D01*
X138362007Y-79180977D01*
X138348296Y-79208940D01*
X138342505Y-79224395D01*
X138334971Y-79249486D01*
X138330427Y-79272757D01*
X138328548Y-79296506D01*
X138219456Y-79296506D01*
X138220071Y-79276409D01*
X138226276Y-79235004D01*
X138237186Y-79194762D01*
X138252592Y-79156085D01*
X138272286Y-79119372D01*
X138296056Y-79085026D01*
X138323695Y-79053446D01*
X138354993Y-79025032D01*
X138389739Y-79000187D01*
X138420267Y-78982953D01*
X138436777Y-78975518D01*
X138456614Y-78967925D01*
X138477834Y-78960831D01*
X138498491Y-78954893D01*
X138514125Y-78951252D01*
X138531088Y-78948784D01*
X138551719Y-78947197D01*
X138574424Y-78946490D01*
X138597609Y-78946666D01*
G37*
G36*
X138608909Y-82977393D02*
G01*
X138637545Y-82977479D01*
X138665149Y-82977625D01*
X138691194Y-82977831D01*
X138715147Y-82978097D01*
X138736479Y-82978423D01*
X138754659Y-82978808D01*
X138769157Y-82979253D01*
X138779443Y-82979759D01*
X138784986Y-82980322D01*
X138785293Y-82980391D01*
X138799092Y-82986308D01*
X138811541Y-82996109D01*
X138820865Y-83008366D01*
X138821544Y-83009644D01*
X138822524Y-83011712D01*
X138823373Y-83014057D01*
X138824103Y-83017050D01*
X138824721Y-83021065D01*
X138825237Y-83026472D01*
X138825659Y-83033646D01*
X138825998Y-83042958D01*
X138826262Y-83054781D01*
X138826461Y-83069488D01*
X138826604Y-83087450D01*
X138826699Y-83109040D01*
X138826758Y-83134631D01*
X138826789Y-83164596D01*
X138826799Y-83199306D01*
X138826799Y-83221735D01*
X138826799Y-83423523D01*
X138843204Y-83441059D01*
X138871787Y-83475365D01*
X138895910Y-83512288D01*
X138915384Y-83551441D01*
X138930024Y-83592441D01*
X138939638Y-83634903D01*
X138940267Y-83638892D01*
X138944123Y-83681379D01*
X138942900Y-83723275D01*
X138936842Y-83764230D01*
X138926199Y-83803894D01*
X138911219Y-83841919D01*
X138892146Y-83877955D01*
X138869231Y-83911652D01*
X138842720Y-83942659D01*
X138812861Y-83970630D01*
X138779901Y-83995215D01*
X138744089Y-84016063D01*
X138705671Y-84032825D01*
X138664895Y-84045153D01*
X138650196Y-84048337D01*
X138639108Y-84049988D01*
X138624463Y-84051444D01*
X138607661Y-84052642D01*
X138590100Y-84053516D01*
X138573181Y-84054002D01*
X138558304Y-84054035D01*
X138546868Y-84053549D01*
X138544104Y-84053266D01*
X138499737Y-84045151D01*
X138457470Y-84032407D01*
X138417627Y-84015205D01*
X138380527Y-83993718D01*
X138346494Y-83968117D01*
X138315847Y-83938573D01*
X138304221Y-83925220D01*
X138277885Y-83889384D01*
X138256395Y-83851721D01*
X138239739Y-83812607D01*
X138227906Y-83772417D01*
X138220884Y-83731525D01*
X138219462Y-83705167D01*
X138328598Y-83705167D01*
X138330647Y-83728813D01*
X138335384Y-83752133D01*
X138342505Y-83775606D01*
X138354623Y-83805169D01*
X138370070Y-83831896D01*
X138389642Y-83857058D01*
X138401422Y-83869651D01*
X138429154Y-83894094D01*
X138459368Y-83913953D01*
X138491666Y-83929096D01*
X138525643Y-83939395D01*
X138560898Y-83944723D01*
X138597029Y-83944946D01*
X138624900Y-83941611D01*
X138660355Y-83932926D01*
X138693213Y-83919635D01*
X138723707Y-83901618D01*
X138752066Y-83878751D01*
X138761460Y-83869651D01*
X138783432Y-83844798D01*
X138800875Y-83819024D01*
X138814586Y-83791061D01*
X138820377Y-83775606D01*
X138827911Y-83750515D01*
X138832455Y-83727245D01*
X138834334Y-83703495D01*
X138833970Y-83678896D01*
X138829755Y-83642282D01*
X138820768Y-83607940D01*
X138806938Y-83575720D01*
X138788195Y-83545474D01*
X138764468Y-83517049D01*
X138751949Y-83504628D01*
X138745737Y-83498966D01*
X138740348Y-83494186D01*
X138735723Y-83489889D01*
X138731800Y-83485674D01*
X138728524Y-83481141D01*
X138725834Y-83475889D01*
X138723670Y-83469520D01*
X138721975Y-83461631D01*
X138720685Y-83451823D01*
X138719746Y-83439696D01*
X138719097Y-83424849D01*
X138718678Y-83406883D01*
X138718430Y-83385396D01*
X138718295Y-83359989D01*
X138718212Y-83330262D01*
X138718123Y-83295814D01*
X138718053Y-83275520D01*
X138717317Y-83086834D01*
X138445565Y-83086834D01*
X138444829Y-83275520D01*
X138444713Y-83312631D01*
X138444634Y-83344809D01*
X138444534Y-83372454D01*
X138444353Y-83395967D01*
X138444032Y-83415748D01*
X138443512Y-83432197D01*
X138442734Y-83445714D01*
X138441638Y-83456701D01*
X138440165Y-83465556D01*
X138438256Y-83472681D01*
X138435852Y-83478474D01*
X138432893Y-83483339D01*
X138429321Y-83487672D01*
X138425076Y-83491875D01*
X138420098Y-83496350D01*
X138414330Y-83501495D01*
X138410933Y-83504628D01*
X138384905Y-83532270D01*
X138363894Y-83561665D01*
X138347828Y-83592965D01*
X138336637Y-83626318D01*
X138330251Y-83661876D01*
X138328913Y-83678896D01*
X138328598Y-83705167D01*
X138219462Y-83705167D01*
X138218660Y-83690308D01*
X138221222Y-83649139D01*
X138228559Y-83608395D01*
X138240658Y-83568451D01*
X138257509Y-83529680D01*
X138279096Y-83492460D01*
X138305411Y-83457165D01*
X138319678Y-83441059D01*
X138336082Y-83423523D01*
X138336082Y-83221735D01*
X138336086Y-83184105D01*
X138336103Y-83151436D01*
X138336144Y-83123357D01*
X138336217Y-83099494D01*
X138336332Y-83079474D01*
X138336497Y-83062927D01*
X138336721Y-83049479D01*
X138337017Y-83038757D01*
X138337389Y-83030390D01*
X138337850Y-83024004D01*
X138338408Y-83019228D01*
X138339072Y-83015688D01*
X138339851Y-83013013D01*
X138340754Y-83010830D01*
X138341338Y-83009644D01*
X138350262Y-82997224D01*
X138362483Y-82987119D01*
X138376228Y-82980759D01*
X138377589Y-82980391D01*
X138382557Y-82979820D01*
X138392328Y-82979308D01*
X138406372Y-82978856D01*
X138424159Y-82978463D01*
X138445158Y-82978131D01*
X138468838Y-82977858D01*
X138494671Y-82977646D01*
X138522124Y-82977492D01*
X138550669Y-82977399D01*
X138579774Y-82977365D01*
X138608909Y-82977393D01*
G37*
G36*
X137641384Y-80246397D02*
G01*
X137728512Y-80246405D01*
X137815318Y-80246419D01*
X137901637Y-80246438D01*
X137987302Y-80246464D01*
X138072146Y-80246495D01*
X138156003Y-80246532D01*
X138238708Y-80246574D01*
X138320092Y-80246622D01*
X138399991Y-80246676D01*
X138478239Y-80246735D01*
X138554667Y-80246800D01*
X138629111Y-80246871D01*
X138701404Y-80246948D01*
X138771379Y-80247030D01*
X138838871Y-80247118D01*
X138903713Y-80247212D01*
X138965738Y-80247312D01*
X139024780Y-80247417D01*
X139080673Y-80247528D01*
X139133251Y-80247643D01*
X139182347Y-80247767D01*
X139227795Y-80247895D01*
X139269429Y-80248028D01*
X139307082Y-80248168D01*
X139340588Y-80248313D01*
X139369780Y-80248464D01*
X139394493Y-80248621D01*
X139414559Y-80248782D01*
X139429814Y-80248950D01*
X139440089Y-80249124D01*
X139445219Y-80249303D01*
X139445509Y-80249328D01*
X139481371Y-80255578D01*
X139515181Y-80266582D01*
X139546594Y-80282039D01*
X139575263Y-80301646D01*
X139600843Y-80325108D01*
X139622987Y-80352120D01*
X139641349Y-80382383D01*
X139655586Y-80415597D01*
X139662191Y-80437550D01*
X139668222Y-80461224D01*
X139668222Y-82538776D01*
X139662191Y-82562451D01*
X139650689Y-82597342D01*
X139634846Y-82629471D01*
X139615005Y-82658536D01*
X139591517Y-82684235D01*
X139564724Y-82706268D01*
X139534972Y-82724336D01*
X139502608Y-82738137D01*
X139467978Y-82747372D01*
X139445509Y-82750673D01*
X139441319Y-82750830D01*
X139431962Y-82750981D01*
X139417604Y-82751127D01*
X139398410Y-82751268D01*
X139374546Y-82751404D01*
X139346179Y-82751535D01*
X139313475Y-82751661D01*
X139276597Y-82751783D01*
X139235713Y-82751897D01*
X139190990Y-82752008D01*
X139142592Y-82752113D01*
X139090685Y-82752213D01*
X139035437Y-82752309D01*
X138977010Y-82752399D01*
X138915574Y-82752484D01*
X138851292Y-82752564D01*
X138784331Y-82752639D01*
X138714857Y-82752709D01*
X138643035Y-82752774D01*
X138569032Y-82752834D01*
X138493014Y-82752888D01*
X138415145Y-82752938D01*
X138335593Y-82752983D01*
X138254523Y-82753023D01*
X138172100Y-82753058D01*
X138088492Y-82753087D01*
X138003863Y-82753112D01*
X137918379Y-82753132D01*
X137832207Y-82753147D01*
X137745512Y-82753157D01*
X137658460Y-82753161D01*
X137571217Y-82753161D01*
X137483949Y-82753156D01*
X137396822Y-82753146D01*
X137310002Y-82753131D01*
X137223653Y-82753112D01*
X137137944Y-82753087D01*
X137053039Y-82753057D01*
X136969103Y-82753023D01*
X136886303Y-82752983D01*
X136804806Y-82752939D01*
X136724776Y-82752889D01*
X136646380Y-82752835D01*
X136569783Y-82752776D01*
X136495153Y-82752712D01*
X136422652Y-82752643D01*
X136352449Y-82752569D01*
X136284709Y-82752491D01*
X136219598Y-82752408D01*
X136157281Y-82752319D01*
X136097926Y-82752227D01*
X136041696Y-82752128D01*
X135988760Y-82752024D01*
X135939281Y-82751918D01*
X135893426Y-82751806D01*
X135851362Y-82751688D01*
X135813253Y-82751565D01*
X135779266Y-82751440D01*
X135749567Y-82751308D01*
X135724321Y-82751172D01*
X135703694Y-82751030D01*
X135687853Y-82750885D01*
X135676963Y-82750734D01*
X135671191Y-82750578D01*
X135670469Y-82750530D01*
X135636187Y-82744348D01*
X135603554Y-82733334D01*
X135572971Y-82717849D01*
X135544844Y-82698249D01*
X135519576Y-82674890D01*
X135497571Y-82648130D01*
X135479233Y-82618324D01*
X135464965Y-82585833D01*
X135457810Y-82562452D01*
X135451779Y-82538776D01*
X135451779Y-81816464D01*
X135560261Y-81816464D01*
X135560264Y-81890502D01*
X135560281Y-81961076D01*
X135560313Y-82028071D01*
X135560358Y-82091370D01*
X135560417Y-82150858D01*
X135560490Y-82206419D01*
X135560576Y-82257938D01*
X135560674Y-82305295D01*
X135560786Y-82348379D01*
X135560910Y-82387071D01*
X135561047Y-82421255D01*
X135561195Y-82450817D01*
X135561356Y-82475640D01*
X135561530Y-82495607D01*
X135561715Y-82510604D01*
X135561911Y-82520513D01*
X135562117Y-82525220D01*
X135562146Y-82525441D01*
X135568709Y-82551535D01*
X135579672Y-82575253D01*
X135594572Y-82596127D01*
X135612944Y-82613700D01*
X135634326Y-82627509D01*
X135658255Y-82637093D01*
X135678470Y-82641348D01*
X135681971Y-82641460D01*
X135690671Y-82641570D01*
X135704431Y-82641677D01*
X135723119Y-82641781D01*
X135746595Y-82641883D01*
X135774724Y-82641981D01*
X135807370Y-82642077D01*
X135844396Y-82642170D01*
X135885667Y-82642259D01*
X135931048Y-82642344D01*
X135980400Y-82642426D01*
X136033589Y-82642505D01*
X136090477Y-82642579D01*
X136150930Y-82642650D01*
X136214810Y-82642716D01*
X136281981Y-82642779D01*
X136352310Y-82642837D01*
X136425656Y-82642890D01*
X136501886Y-82642939D01*
X136580863Y-82642983D01*
X136662451Y-82643022D01*
X136746513Y-82643057D01*
X136832914Y-82643086D01*
X136921518Y-82643110D01*
X137012187Y-82643128D01*
X137104786Y-82643142D01*
X137199180Y-82643149D01*
X137295231Y-82643151D01*
X137392805Y-82643147D01*
X137491763Y-82643136D01*
X137570668Y-82643124D01*
X137690626Y-82643101D01*
X137805366Y-82643081D01*
X137915007Y-82643060D01*
X138019664Y-82643036D01*
X138119454Y-82643013D01*
X138214495Y-82642989D01*
X138304904Y-82642963D01*
X138390796Y-82642935D01*
X138472289Y-82642906D01*
X138549500Y-82642874D01*
X138622546Y-82642840D01*
X138691542Y-82642801D01*
X138756609Y-82642759D01*
X138817859Y-82642714D01*
X138875412Y-82642665D01*
X138929384Y-82642611D01*
X138979892Y-82642553D01*
X139027052Y-82642488D01*
X139070982Y-82642420D01*
X139111797Y-82642346D01*
X139149617Y-82642265D01*
X139184556Y-82642178D01*
X139216733Y-82642085D01*
X139246263Y-82641985D01*
X139273263Y-82641877D01*
X139297852Y-82641761D01*
X139320143Y-82641638D01*
X139340258Y-82641506D01*
X139358310Y-82641366D01*
X139374416Y-82641216D01*
X139388695Y-82641058D01*
X139401262Y-82640890D01*
X139412234Y-82640711D01*
X139421729Y-82640523D01*
X139429863Y-82640324D01*
X139436753Y-82640115D01*
X139442516Y-82639894D01*
X139447269Y-82639661D01*
X139451128Y-82639417D01*
X139454211Y-82639160D01*
X139456634Y-82638892D01*
X139458514Y-82638609D01*
X139459968Y-82638314D01*
X139461113Y-82638006D01*
X139461533Y-82637871D01*
X139487402Y-82626586D01*
X139509859Y-82611331D01*
X139528640Y-82592361D01*
X139543484Y-82569931D01*
X139552645Y-82548821D01*
X139558877Y-82530775D01*
X139558877Y-80469226D01*
X139552645Y-80451180D01*
X139541276Y-80426073D01*
X139525788Y-80404220D01*
X139506519Y-80385949D01*
X139483809Y-80371585D01*
X139460200Y-80362112D01*
X139459063Y-80361800D01*
X139457663Y-80361501D01*
X139455881Y-80361215D01*
X139453603Y-80360942D01*
X139450711Y-80360682D01*
X139447088Y-80360434D01*
X139442617Y-80360199D01*
X139437183Y-80359975D01*
X139430668Y-80359762D01*
X139422955Y-80359561D01*
X139413929Y-80359371D01*
X139403472Y-80359191D01*
X139391468Y-80359021D01*
X139377799Y-80358862D01*
X139362350Y-80358712D01*
X139345004Y-80358570D01*
X139325643Y-80358441D01*
X139304151Y-80358317D01*
X139280413Y-80358203D01*
X139254310Y-80358097D01*
X139225727Y-80357998D01*
X139194546Y-80357908D01*
X139160651Y-80357824D01*
X139123926Y-80357748D01*
X139084252Y-80357678D01*
X139041515Y-80357614D01*
X138995597Y-80357557D01*
X138946383Y-80357505D01*
X138893753Y-80357459D01*
X138837592Y-80357418D01*
X138777784Y-80357381D01*
X138714212Y-80357350D01*
X138646759Y-80357322D01*
X138575308Y-80357298D01*
X138499745Y-80357279D01*
X138419950Y-80357262D01*
X138335807Y-80357249D01*
X138247200Y-80357238D01*
X138154012Y-80357229D01*
X138056127Y-80357223D01*
X137953427Y-80357219D01*
X137845796Y-80357216D01*
X137733119Y-80357215D01*
X137615277Y-80357214D01*
X137439774Y-80357214D01*
X137324764Y-80357215D01*
X137214855Y-80357217D01*
X137109930Y-80357220D01*
X137009872Y-80357226D01*
X136914564Y-80357234D01*
X136823891Y-80357243D01*
X136737734Y-80357256D01*
X136655977Y-80357271D01*
X136578506Y-80357289D01*
X136505201Y-80357311D01*
X136435947Y-80357337D01*
X136370626Y-80357366D01*
X136309122Y-80357400D01*
X136251319Y-80357440D01*
X136197099Y-80357483D01*
X136146347Y-80357532D01*
X136098946Y-80357587D01*
X136054778Y-80357648D01*
X136013728Y-80357715D01*
X135975677Y-80357788D01*
X135940511Y-80357869D01*
X135908111Y-80357956D01*
X135878362Y-80358051D01*
X135851147Y-80358154D01*
X135826349Y-80358264D01*
X135803851Y-80358383D01*
X135783537Y-80358510D01*
X135765290Y-80358647D01*
X135748993Y-80358793D01*
X135734530Y-80358948D01*
X135721784Y-80359113D01*
X135710639Y-80359288D01*
X135700977Y-80359473D01*
X135692682Y-80359670D01*
X135685637Y-80359877D01*
X135679726Y-80360096D01*
X135674833Y-80360326D01*
X135670840Y-80360568D01*
X135667630Y-80360822D01*
X135665086Y-80361089D01*
X135663093Y-80361369D01*
X135661534Y-80361662D01*
X135660293Y-80361968D01*
X135659800Y-80362112D01*
X135634091Y-80372590D01*
X135611717Y-80387210D01*
X135592802Y-80405854D01*
X135577476Y-80428404D01*
X135568252Y-80448212D01*
X135561124Y-80466559D01*
X135560393Y-81487999D01*
X135560338Y-81574731D01*
X135560297Y-81658463D01*
X135560272Y-81739078D01*
X135560261Y-81816464D01*
X135451779Y-81816464D01*
X135451779Y-80461225D01*
X135457810Y-80437550D01*
X135469312Y-80402658D01*
X135485155Y-80370529D01*
X135504995Y-80341465D01*
X135528485Y-80315766D01*
X135555276Y-80293733D01*
X135585028Y-80275665D01*
X135617393Y-80261864D01*
X135652023Y-80252629D01*
X135674492Y-80249328D01*
X135678914Y-80249148D01*
X135688504Y-80248973D01*
X135703095Y-80248805D01*
X135722521Y-80248643D01*
X135746615Y-80248484D01*
X135775212Y-80248333D01*
X135808145Y-80248188D01*
X135845247Y-80248047D01*
X135886352Y-80247912D01*
X135931295Y-80247784D01*
X135979907Y-80247661D01*
X136032024Y-80247542D01*
X136087479Y-80247432D01*
X136146106Y-80247326D01*
X136207738Y-80247225D01*
X136272208Y-80247131D01*
X136339351Y-80247042D01*
X136409001Y-80246959D01*
X136480990Y-80246881D01*
X136555153Y-80246810D01*
X136631323Y-80246744D01*
X136709334Y-80246683D01*
X136789020Y-80246629D01*
X136870214Y-80246580D01*
X136952750Y-80246537D01*
X137036461Y-80246499D01*
X137121181Y-80246468D01*
X137206745Y-80246442D01*
X137292985Y-80246421D01*
X137379735Y-80246406D01*
X137466830Y-80246398D01*
X137554101Y-80246394D01*
X137641384Y-80246397D01*
G37*
D13*
%TO.C,J4*%
X159370163Y-61460296D02*
X157066535Y-62790296D01*
X162176535Y-71641076D02*
X157066535Y-62790296D01*
X163476535Y-73892742D02*
X162811535Y-72740928D01*
X164480163Y-70311076D02*
X159370163Y-61460296D01*
X164480163Y-70311076D02*
X162176535Y-71641076D01*
X164628349Y-73227742D02*
X163476535Y-73892742D01*
%TO.C,C7*%
X152352679Y-100573345D02*
X152206412Y-100320004D01*
X153236024Y-100063344D02*
X153089757Y-99810003D01*
%TO.C,J1*%
X114403186Y-87413777D02*
X115555000Y-86748777D01*
X115068186Y-88565591D02*
X114403186Y-87413777D01*
X115703186Y-89665443D02*
X118006814Y-88335443D01*
X115703186Y-89665443D02*
X120813186Y-98516223D01*
X118006814Y-88335443D02*
X123116814Y-97186223D01*
X120813186Y-98516223D02*
X123116814Y-97186223D01*
%TO.C,C4*%
X148826397Y-57268329D02*
X148680130Y-57521671D01*
X149709742Y-57778329D02*
X149563475Y-58031671D01*
%TO.C,J5*%
X133650000Y-54070000D02*
X133650000Y-56730000D01*
X143870000Y-54070000D02*
X133650000Y-54070000D01*
X143870000Y-54070000D02*
X143870000Y-56730000D01*
X143870000Y-56730000D02*
X133650000Y-56730000D01*
X145140000Y-54070000D02*
X146470000Y-54070000D01*
X146470000Y-54070000D02*
X146470000Y-55400000D01*
%TO.C,TP1*%
X123360000Y-50300000D02*
X125760000Y-50300000D01*
X123360000Y-52700000D02*
X123360000Y-50300000D01*
X125760000Y-50300000D02*
X125760000Y-52700000D01*
X125760000Y-52700000D02*
X123360000Y-52700000D01*
%TO.C,U2*%
X130600000Y-70215000D02*
X130600000Y-69980000D01*
X130600000Y-73960000D02*
X130600000Y-73485000D01*
X131075000Y-69740000D02*
X130900000Y-69740000D01*
X131075000Y-73960000D02*
X130600000Y-73960000D01*
X134345000Y-69740000D02*
X134820000Y-69740000D01*
X134345000Y-73960000D02*
X134820000Y-73960000D01*
X134820000Y-69740000D02*
X134820000Y-70215000D01*
X134820000Y-73960000D02*
X134820000Y-73485000D01*
X130600000Y-69740000D02*
X130360000Y-69410000D01*
X130840000Y-69410000D01*
X130600000Y-69740000D01*
G36*
X130600000Y-69740000D02*
G01*
X130360000Y-69410000D01*
X130840000Y-69410000D01*
X130600000Y-69740000D01*
G37*
%TO.C,C13*%
X124200000Y-72996267D02*
X124200000Y-72703733D01*
X125220000Y-72996267D02*
X125220000Y-72703733D01*
%TO.C,C9*%
X125543766Y-89810000D02*
X125251233Y-89809999D01*
X125543767Y-88790001D02*
X125251234Y-88790000D01*
D15*
%TO.C,LED2*%
X151356372Y-70950092D02*
X150576949Y-70500092D01*
X151806372Y-70170669D01*
X151356372Y-70950092D01*
G36*
X151356372Y-70950092D02*
G01*
X150576949Y-70500092D01*
X151806372Y-70170669D01*
X151356372Y-70950092D01*
G37*
%TO.C,LED10*%
X119560000Y-85251904D02*
X118660000Y-85251904D01*
X118660000Y-84351904D01*
X119560000Y-85251904D01*
G36*
X119560000Y-85251904D02*
G01*
X118660000Y-85251904D01*
X118660000Y-84351904D01*
X119560000Y-85251904D01*
G37*
%TO.C,LED8*%
X158334204Y-88490618D02*
X157104782Y-88820041D01*
X157554780Y-88040619D01*
X158334204Y-88490618D01*
G36*
X158334204Y-88490618D02*
G01*
X157104782Y-88820041D01*
X157554780Y-88040619D01*
X158334204Y-88490618D01*
G37*
%TO.C,LED1*%
X161436370Y-70107389D02*
X160656947Y-70557389D01*
X160986370Y-69327966D01*
X161436370Y-70107389D01*
G36*
X161436370Y-70107389D02*
G01*
X160656947Y-70557389D01*
X160986370Y-69327966D01*
X161436370Y-70107389D01*
G37*
%TO.C,LED3*%
X146203520Y-67975092D02*
X145424097Y-67525092D01*
X146653520Y-67195669D01*
X146203520Y-67975092D01*
G36*
X146203520Y-67975092D02*
G01*
X145424097Y-67525092D01*
X146653520Y-67195669D01*
X146203520Y-67975092D01*
G37*
%TO.C,LED5*%
X138877150Y-103314372D02*
X137977150Y-103314372D01*
X137977151Y-102414373D01*
X138877150Y-103314372D01*
G36*
X138877150Y-103314372D02*
G01*
X137977150Y-103314372D01*
X137977151Y-102414373D01*
X138877150Y-103314372D01*
G37*
%TO.C,LED12*%
X120419802Y-75753418D02*
X119640379Y-75303418D01*
X120869802Y-74973995D01*
X120419802Y-75753418D01*
G36*
X120419802Y-75753418D02*
G01*
X119640379Y-75303418D01*
X120869802Y-74973995D01*
X120419802Y-75753418D01*
G37*
%TO.C,LED6*%
X142737346Y-94942909D02*
X142287346Y-94163486D01*
X143066769Y-93713486D01*
X142737346Y-94942909D01*
G36*
X142737346Y-94942909D02*
G01*
X142287346Y-94163486D01*
X143066769Y-93713486D01*
X142737346Y-94942909D01*
G37*
%TO.C,LED9*%
X117141159Y-87457909D02*
X116691159Y-86678486D01*
X117470582Y-86228486D01*
X117141159Y-87457909D01*
G36*
X117141159Y-87457909D02*
G01*
X116691159Y-86678486D01*
X117470582Y-86228486D01*
X117141159Y-87457909D01*
G37*
%TO.C,LED4*%
X139320096Y-60789540D02*
X138420096Y-60789540D01*
X138420096Y-59889540D01*
X139320096Y-60789540D01*
G36*
X139320096Y-60789540D02*
G01*
X138420096Y-60789540D01*
X138420096Y-59889540D01*
X139320096Y-60789540D01*
G37*
%TO.C,LED7*%
X147890198Y-91967909D02*
X147440198Y-91188486D01*
X148219621Y-90738486D01*
X147890198Y-91967909D01*
G36*
X147890198Y-91967909D02*
G01*
X147440198Y-91188486D01*
X148219621Y-90738486D01*
X147890198Y-91967909D01*
G37*
%TO.C,LED11*%
X119560000Y-79311904D02*
X118660000Y-79311904D01*
X118660000Y-78411904D01*
X119560000Y-79311904D01*
G36*
X119560000Y-79311904D02*
G01*
X118660000Y-79311904D01*
X118660000Y-78411904D01*
X119560000Y-79311904D01*
G37*
%TD*%
M02*
