M48
; DRILL file {KiCad 8.0.8} date 2025-04-07T12:59:45-0400
; FORMAT={-:-/ absolute / inch / decimal}
; #@! TF.CreationDate,2025-04-07T12:59:45-04:00
; #@! TF.GenerationSoftware,Kicad,Pcbnew,8.0.8
; #@! TF.FileFunction,Plated,1,2,PTH
FMAT,2
INCH
; #@! TA.AperFunction,Plated,PTH,ViaDrill
T1C0.0118
; #@! TA.AperFunction,Plated,PTH,ComponentDrill
T2C0.0236
%
G90
G05
T1
X4.648Y-2.9291
X4.648Y-3.1299
X4.7786Y-3.3725
X4.837Y-2.6654
X4.8613Y-2.8004
X4.8646Y-3.4724
X4.8803Y-2.6339
X4.8803Y-2.7717
X4.9039Y-2.0276
X4.9059Y-2.5846
X4.9143Y-2.7539
X4.9197Y-3.1772
X4.9197Y-3.6378
X4.9472Y-2.7244
X4.9669Y-2.9021
X4.9787Y-2.6535
X4.9787Y-3.0433
X4.9807Y-3.2351
X5.0024Y-2.9685
X5.0063Y-3.3031
X5.0335Y-2.9429
X5.0335Y-3.3701
X5.0614Y-2.9646
X5.0614Y-3.6654
X5.0969Y-2.9882
X5.0969Y-3.7205
X5.1362Y-3.0
X5.1362Y-3.3976
X5.199Y-2.6573
X5.2012Y-3.0008
X5.2287Y-3.0214
X5.2346Y-2.6378
X5.2543Y-3.0472
X5.2602Y-2.6929
X5.2799Y-2.9551
X5.286Y-3.8443
X5.4Y-2.2992
X5.5732Y-3.689
X5.7031Y-2.7008
X5.7543Y-4.0157
X5.7898Y-2.2822
X5.8016Y-3.5197
X5.8488Y-3.9528
X5.8685Y-3.9961
X5.8803Y-2.3483
X5.9433Y-2.4291
X5.9433Y-3.9331
X5.9866Y-2.374
X5.9984Y-3.8386
X6.0299Y-3.8819
X6.0535Y-2.4646
X6.0614Y-2.7362
X6.085Y-3.437
X6.0929Y-2.7972
X6.1124Y-3.8029
X6.1559Y-2.5079
X6.1638Y-2.4467
X6.1835Y-2.8023
X6.2543Y-2.8819
X6.2937Y-2.8681
X6.335Y-2.8504
T2
X4.5756Y-2.8386
X4.5756Y-3.4607
X4.6256Y-2.752
X4.6256Y-3.5473
X4.6756Y-2.6654
X4.6756Y-3.6339
X4.7256Y-2.5788
X4.7256Y-3.7205
X4.7756Y-2.4921
X4.7756Y-3.8071
X5.3142Y-2.1811
X5.3142Y-4.1181
X5.4142Y-2.1811
X5.4142Y-4.1181
X5.5142Y-2.1811
X5.5142Y-4.1181
X5.6142Y-2.1811
X5.6142Y-4.1181
X5.7142Y-2.1811
X5.7142Y-4.1181
X6.2552Y-2.4912
X6.2567Y-3.8067
X6.3052Y-2.5778
X6.3067Y-3.7201
X6.3552Y-2.6644
X6.3567Y-3.6335
X6.4052Y-2.751
X6.4067Y-3.5469
X6.4552Y-2.8376
X6.4567Y-3.4603
M30
