%TF.GenerationSoftware,KiCad,Pcbnew,8.0.8*%
%TF.CreationDate,2025-04-07T12:59:42-04:00*%
%TF.ProjectId,pcb_tile_game_tile_aaa,7063625f-7469-46c6-955f-67616d655f74,1.0*%
%TF.SameCoordinates,Original*%
%TF.FileFunction,Copper,L2,Bot*%
%TF.FilePolarity,Positive*%
%FSLAX46Y46*%
G04 Gerber Fmt 4.6, Leading zero omitted, Abs format (unit mm)*
G04 Created by KiCad (PCBNEW 8.0.8) date 2025-04-07 12:59:42*
%MOMM*%
%LPD*%
G01*
G04 APERTURE LIST*
G04 Aperture macros list*
%AMHorizOval*
0 Thick line with rounded ends*
0 $1 width*
0 $2 $3 position (X,Y) of the first rounded end (center of the circle)*
0 $4 $5 position (X,Y) of the second rounded end (center of the circle)*
0 Add line between two ends*
20,1,$1,$2,$3,$4,$5,0*
0 Add two circle primitives to create the rounded ends*
1,1,$1,$2,$3*
1,1,$1,$4,$5*%
%AMRotRect*
0 Rectangle, with rotation*
0 The origin of the aperture is its center*
0 $1 length*
0 $2 width*
0 $3 Rotation angle, in degrees counterclockwise*
0 Add horizontal line*
21,1,$1,$2,0,0,$3*%
G04 Aperture macros list end*
%TA.AperFunction,ComponentPad*%
%ADD10R,1.700000X1.700000*%
%TD*%
%TA.AperFunction,ComponentPad*%
%ADD11O,1.700000X1.700000*%
%TD*%
%TA.AperFunction,ComponentPad*%
%ADD12RotRect,1.700000X1.700000X150.000000*%
%TD*%
%TA.AperFunction,ComponentPad*%
%ADD13HorizOval,1.700000X0.000000X0.000000X0.000000X0.000000X0*%
%TD*%
%TA.AperFunction,ComponentPad*%
%ADD14RotRect,1.700000X1.700000X330.000000*%
%TD*%
%TA.AperFunction,ComponentPad*%
%ADD15HorizOval,1.700000X0.000000X0.000000X0.000000X0.000000X0*%
%TD*%
%TA.AperFunction,ComponentPad*%
%ADD16RotRect,1.700000X1.700000X210.000000*%
%TD*%
%TA.AperFunction,ComponentPad*%
%ADD17HorizOval,1.700000X0.000000X0.000000X0.000000X0.000000X0*%
%TD*%
%TA.AperFunction,ComponentPad*%
%ADD18RotRect,1.700000X1.700000X30.000000*%
%TD*%
%TA.AperFunction,ComponentPad*%
%ADD19HorizOval,1.700000X0.000000X0.000000X0.000000X0.000000X0*%
%TD*%
%TA.AperFunction,ViaPad*%
%ADD20C,0.600000*%
%TD*%
%TA.AperFunction,Conductor*%
%ADD21C,0.200000*%
%TD*%
G04 APERTURE END LIST*
D10*
%TO.P,J2,1,Pin_1*%
%TO.N,VCC*%
X134980000Y-104600000D03*
D11*
%TO.P,J2,2,Pin_2*%
%TO.N,/TX_J2*%
X137520000Y-104600000D03*
%TO.P,J2,3,Pin_3*%
%TO.N,/DATA_J2*%
X140060000Y-104600000D03*
%TO.P,J2,4,Pin_4*%
%TO.N,/RX_J2*%
X142600000Y-104600000D03*
%TO.P,J2,5,Pin_5*%
%TO.N,GND*%
X145140000Y-104600000D03*
%TD*%
D12*
%TO.P,J3,1,Pin_1*%
%TO.N,GND*%
X158920000Y-96689409D03*
D13*
%TO.P,J3,2,Pin_2*%
%TO.N,/TX_J3*%
X160190000Y-94489704D03*
%TO.P,J3,3,Pin_3*%
%TO.N,/DATA_J3*%
X161460000Y-92290000D03*
%TO.P,J3,4,Pin_4*%
%TO.N,/RX_J3*%
X162730000Y-90090295D03*
%TO.P,J3,5,Pin_5*%
%TO.N,VCC*%
X164000000Y-87890591D03*
%TD*%
D14*
%TO.P,J6,1,Pin_1*%
%TO.N,VCC*%
X121300000Y-63300591D03*
D15*
%TO.P,J6,2,Pin_2*%
%TO.N,/TX_J6*%
X120030000Y-65500296D03*
%TO.P,J6,3,Pin_3*%
%TO.N,/DATA_J6*%
X118760000Y-67700000D03*
%TO.P,J6,4,Pin_4*%
%TO.N,/RX_J6*%
X117490000Y-69899705D03*
%TO.P,J6,5,Pin_5*%
%TO.N,GND*%
X116220000Y-72099409D03*
%TD*%
D16*
%TO.P,J4,1,Pin_1*%
%TO.N,VCC*%
X163963349Y-72075928D03*
D17*
%TO.P,J4,2,Pin_2*%
%TO.N,/TX_J4*%
X162693349Y-69876223D03*
%TO.P,J4,3,Pin_3*%
%TO.N,/DATA_J4*%
X161423349Y-67676519D03*
%TO.P,J4,4,Pin_4*%
%TO.N,/RX_J4*%
X160153349Y-65476814D03*
%TO.P,J4,5,Pin_5*%
%TO.N,GND*%
X158883349Y-63277110D03*
%TD*%
D18*
%TO.P,J1,1,Pin_1*%
%TO.N,GND*%
X116220000Y-87900591D03*
D19*
%TO.P,J1,2,Pin_2*%
%TO.N,/TX_J1*%
X117490000Y-90100296D03*
%TO.P,J1,3,Pin_3*%
%TO.N,/DATA_J1*%
X118760000Y-92300000D03*
%TO.P,J1,4,Pin_4*%
%TO.N,/RX_J1*%
X120030000Y-94499705D03*
%TO.P,J1,5,Pin_5*%
%TO.N,VCC*%
X121300000Y-96699409D03*
%TD*%
D10*
%TO.P,J5,1,Pin_1*%
%TO.N,GND*%
X145140000Y-55400000D03*
D11*
%TO.P,J5,2,Pin_2*%
%TO.N,/TX_J5*%
X142600000Y-55400000D03*
%TO.P,J5,3,Pin_3*%
%TO.N,/DATA_J5*%
X140060000Y-55400000D03*
%TO.P,J5,4,Pin_4*%
%TO.N,/RX_J5*%
X137520000Y-55400000D03*
%TO.P,J5,5,Pin_5*%
%TO.N,VCC*%
X134980000Y-55400000D03*
%TD*%
D20*
%TO.N,VCC*%
X149060000Y-101500000D03*
X126510000Y-82171285D03*
X152060000Y-60300000D03*
X155253829Y-96593829D03*
X147060000Y-57967636D03*
X126460000Y-67400000D03*
X126460000Y-77300000D03*
X122860000Y-67700000D03*
X156560000Y-62146947D03*
X150960000Y-99900000D03*
X123560000Y-88200000D03*
X153160000Y-98600000D03*
X149360000Y-59646947D03*
X126160000Y-73712500D03*
%TO.N,Net-(LED1-DOUT)*%
X156360000Y-63700000D03*
X153960000Y-69500000D03*
%TO.N,Net-(LED2-DOUT)*%
X144860000Y-68600000D03*
X153760000Y-62600000D03*
%TO.N,Net-(LED3-DOUT)*%
X137160000Y-58400000D03*
X150960000Y-61700000D03*
%TO.N,Net-(LED5-DOUT)*%
X141560000Y-93700000D03*
X146160000Y-102000000D03*
%TO.N,Net-(LED6-DOUT)*%
X148560000Y-100400000D03*
X147360000Y-89400000D03*
%TO.N,/DATA_J1*%
X128560000Y-93099998D03*
X128560000Y-75300000D03*
%TO.N,/TX_J1*%
X121376017Y-85661070D03*
X127850928Y-85600000D03*
X127850928Y-74750000D03*
%TO.N,/RX_J1*%
X129460000Y-94500000D03*
X129460000Y-75900000D03*
%TO.N,/TX_J2*%
X132110222Y-76219506D03*
%TO.N,/DATA_J2*%
X132810000Y-76744159D03*
%TO.N,/RX_J2*%
X133460000Y-77400000D03*
%TO.N,/RX_J3*%
X160909062Y-72400000D03*
%TO.N,/DATA_J3*%
X159860000Y-72850000D03*
%TO.N,/TX_J3*%
X158860000Y-73200000D03*
%TO.N,/RX_J4*%
X154760000Y-71050000D03*
%TO.N,/DATA_J4*%
X157060000Y-71179288D03*
%TO.N,/UPDI*%
X124560000Y-51500000D03*
X125660000Y-69200000D03*
%TO.N,/RX_J5*%
X132054139Y-67496185D03*
%TO.N,/TX_J5*%
X133610000Y-68400000D03*
%TO.N,/DATA_J5*%
X132960000Y-66999998D03*
%TO.N,Net-(LED7-DOUT)*%
X154560000Y-87300000D03*
X152360000Y-97500000D03*
%TO.N,Net-(LED10-DIN)*%
X124960000Y-92400000D03*
X124960000Y-80700000D03*
%TO.N,Net-(LED11-DOUT)*%
X118060000Y-79500000D03*
X118060000Y-74400000D03*
%TO.N,/DATA_J6*%
X123960000Y-66900000D03*
X123960000Y-70400000D03*
%TO.N,/RX_J6*%
X123476386Y-71130021D03*
%TO.N,/TX_J6*%
X124610002Y-65649998D03*
X124822352Y-69950000D03*
%TO.N,/LED_J1-J6*%
X130460000Y-76200000D03*
X130460000Y-86300000D03*
%TO.N,Net-(LED10-DOUT)*%
X127060000Y-75400000D03*
X127160000Y-83900000D03*
%TO.N,/LED_J2-J3*%
X134110000Y-75059620D03*
X134264952Y-97645056D03*
%TD*%
D21*
%TO.N,Net-(LED1-DOUT)*%
X156360000Y-63700000D02*
X154360000Y-65700000D01*
X154360000Y-65700000D02*
X154360000Y-69100000D01*
X154360000Y-69100000D02*
X153960000Y-69500000D01*
%TO.N,Net-(LED2-DOUT)*%
X144900245Y-68600000D02*
X150900245Y-62600000D01*
X144860000Y-68600000D02*
X144900245Y-68600000D01*
X150900245Y-62600000D02*
X153760000Y-62600000D01*
%TO.N,Net-(LED3-DOUT)*%
X137160000Y-58400000D02*
X140260000Y-61500000D01*
X144804848Y-61500000D02*
X145604848Y-60700000D01*
X149960000Y-60700000D02*
X150960000Y-61700000D01*
X145604848Y-60700000D02*
X149960000Y-60700000D01*
X140260000Y-61500000D02*
X144804848Y-61500000D01*
%TO.N,Net-(LED5-DOUT)*%
X141560000Y-95600000D02*
X141560000Y-93700000D01*
X146160000Y-102000000D02*
X144788327Y-100628327D01*
X144788327Y-100628327D02*
X144788327Y-98828327D01*
X144788327Y-98828327D02*
X141560000Y-95600000D01*
%TO.N,Net-(LED6-DOUT)*%
X148560000Y-100400000D02*
X150160000Y-98800000D01*
X147360000Y-94254007D02*
X147360000Y-89400000D01*
X150160000Y-98800000D02*
X150160000Y-97054007D01*
X150160000Y-97054007D02*
X147360000Y-94254007D01*
%TO.N,/DATA_J1*%
X128560000Y-75300000D02*
X128560000Y-92000000D01*
X128560000Y-92000000D02*
X128560000Y-93099998D01*
%TO.N,/TX_J1*%
X117721860Y-89868436D02*
X117721860Y-88036549D01*
X120097339Y-85661070D02*
X121376017Y-85661070D01*
X117721860Y-88036549D02*
X120097339Y-85661070D01*
X117490000Y-90100296D02*
X117721860Y-89868436D01*
X127850928Y-74750000D02*
X127850928Y-85600000D01*
%TO.N,/RX_J1*%
X129460000Y-93800000D02*
X129460000Y-94500000D01*
X129460000Y-75900000D02*
X129460000Y-93800000D01*
%TO.N,/TX_J2*%
X132110222Y-99190222D02*
X132110222Y-76219506D01*
X137520000Y-104600000D02*
X132110222Y-99190222D01*
%TO.N,/DATA_J2*%
X139360000Y-104600000D02*
X132810000Y-98050000D01*
X132810000Y-98050000D02*
X132810000Y-76744159D01*
X140060000Y-104600000D02*
X139360000Y-104600000D01*
%TO.N,/RX_J2*%
X141482931Y-103482931D02*
X142600000Y-104600000D01*
X133460000Y-77400000D02*
X133460000Y-97759343D01*
X133460000Y-97759343D02*
X139150657Y-103450000D01*
X140429871Y-103474943D02*
X140642931Y-103482931D01*
X140642931Y-103482931D02*
X141482931Y-103482931D01*
X140354759Y-103450000D02*
X140429871Y-103474943D01*
X139150657Y-103450000D02*
X140354759Y-103450000D01*
%TO.N,/RX_J3*%
X162730000Y-90090295D02*
X160909062Y-88269357D01*
X160909062Y-88269357D02*
X160909062Y-72400000D01*
%TO.N,/DATA_J3*%
X161460000Y-91087919D02*
X159860000Y-89487919D01*
X161460000Y-92290000D02*
X161460000Y-91087919D01*
X159860000Y-89487919D02*
X159860000Y-72850000D01*
%TO.N,/TX_J3*%
X158860000Y-73200000D02*
X158860000Y-90217859D01*
X158860000Y-90217859D02*
X160190000Y-91547859D01*
X160190000Y-91547859D02*
X160190000Y-94489704D01*
%TO.N,/RX_J4*%
X154760000Y-66332073D02*
X154760000Y-71050000D01*
X159303349Y-64626814D02*
X156465259Y-64626814D01*
X160153349Y-65476814D02*
X159303349Y-64626814D01*
X156465259Y-64626814D02*
X154760000Y-66332073D01*
%TO.N,/DATA_J4*%
X160086308Y-69068767D02*
X157975787Y-71179288D01*
X161423349Y-67676519D02*
X160256095Y-68843773D01*
X157975787Y-71179288D02*
X157060000Y-71179288D01*
X160256095Y-68843773D02*
X160086308Y-69068767D01*
%TO.N,/UPDI*%
X125660000Y-52600000D02*
X124560000Y-51500000D01*
X125660000Y-69200000D02*
X125660000Y-52600000D01*
%TO.N,/RX_J5*%
X132054139Y-58205861D02*
X132054139Y-67496185D01*
X136370000Y-56550000D02*
X133710000Y-56550000D01*
X133710000Y-56550000D02*
X132054139Y-58205861D01*
X137520000Y-55400000D02*
X136370000Y-56550000D01*
%TO.N,/TX_J5*%
X139578388Y-57500000D02*
X140778388Y-56300000D01*
X141700000Y-56300000D02*
X142600000Y-55400000D01*
X133760000Y-68250000D02*
X133610000Y-68400000D01*
X133760000Y-58300000D02*
X133760000Y-68250000D01*
X140778388Y-56300000D02*
X141700000Y-56300000D01*
X134560000Y-57500000D02*
X139578388Y-57500000D01*
X133760000Y-58300000D02*
X134560000Y-57500000D01*
%TO.N,/DATA_J5*%
X138360000Y-57100000D02*
X134060000Y-57100000D01*
X134060000Y-57100000D02*
X132960000Y-58200000D01*
X138360000Y-57100000D02*
X140060000Y-55400000D01*
X132960000Y-58200000D02*
X132960000Y-66999998D01*
%TO.N,Net-(LED7-DOUT)*%
X152360000Y-97500000D02*
X154560000Y-95300000D01*
X154560000Y-95300000D02*
X154560000Y-87300000D01*
%TO.N,Net-(LED10-DIN)*%
X125016806Y-92343194D02*
X125016806Y-80756806D01*
X124960000Y-92400000D02*
X125016806Y-92343194D01*
X125016806Y-80756806D02*
X124960000Y-80700000D01*
%TO.N,Net-(LED11-DOUT)*%
X118060000Y-79500000D02*
X118060000Y-74400000D01*
%TO.N,/DATA_J6*%
X123960000Y-70400000D02*
X123960000Y-67700000D01*
X123960000Y-67700000D02*
X123960000Y-66900000D01*
%TO.N,/RX_J6*%
X123345858Y-70085858D02*
X121749951Y-68489951D01*
X121749951Y-68489951D02*
X119596395Y-68489951D01*
X123476386Y-71130021D02*
X123345858Y-70999493D01*
X123345858Y-70999493D02*
X123345858Y-70085858D01*
X119596395Y-68489951D02*
X118186641Y-69899705D01*
X118186641Y-69899705D02*
X117490000Y-69899705D01*
%TO.N,/TX_J6*%
X124610002Y-65649998D02*
X124822352Y-65862348D01*
X124822352Y-65862348D02*
X124822352Y-69950000D01*
%TO.N,/LED_J1-J6*%
X130460000Y-76200000D02*
X130460000Y-86300000D01*
%TO.N,Net-(LED10-DOUT)*%
X127160000Y-83900000D02*
X127160000Y-75500000D01*
X127160000Y-75500000D02*
X127060000Y-75400000D01*
%TO.N,/LED_J2-J3*%
X134110000Y-75059620D02*
X134110000Y-97490104D01*
X134110000Y-97490104D02*
X134264952Y-97645056D01*
%TD*%
%TA.AperFunction,Conductor*%
%TO.N,VCC*%
G36*
X157092577Y-50519407D02*
G01*
X157120122Y-50549999D01*
X164799733Y-63851475D01*
X174094509Y-79950500D01*
X174107230Y-80010348D01*
X174094509Y-80049500D01*
X165915470Y-94216012D01*
X159310831Y-105655583D01*
X157120123Y-109450000D01*
X157074653Y-109490941D01*
X157034386Y-109499500D01*
X123085614Y-109499500D01*
X123027423Y-109480593D01*
X122999877Y-109450000D01*
X120799246Y-105638396D01*
X115638316Y-96699404D01*
X120244919Y-96699404D01*
X120244919Y-96699413D01*
X120265190Y-96905239D01*
X120265191Y-96905245D01*
X120325230Y-97103163D01*
X120325236Y-97103180D01*
X120343019Y-97136450D01*
X120343020Y-97136450D01*
X121004231Y-96754698D01*
X121020444Y-96815205D01*
X121059940Y-96883614D01*
X121104231Y-96927905D01*
X120442661Y-97309863D01*
X120442661Y-97309864D01*
X120553947Y-97445466D01*
X120713829Y-97576677D01*
X120713839Y-97576684D01*
X120896232Y-97674174D01*
X120896237Y-97674176D01*
X121094163Y-97734217D01*
X121094169Y-97734218D01*
X121299996Y-97754490D01*
X121300004Y-97754490D01*
X121505830Y-97734218D01*
X121505836Y-97734217D01*
X121703761Y-97674177D01*
X121737042Y-97656387D01*
X121355291Y-96995176D01*
X121415796Y-96978965D01*
X121484205Y-96939469D01*
X121528497Y-96895176D01*
X121910455Y-97556746D01*
X122046049Y-97445468D01*
X122046058Y-97445459D01*
X122177268Y-97285579D01*
X122177275Y-97285569D01*
X122274765Y-97103176D01*
X122274767Y-97103171D01*
X122334808Y-96905245D01*
X122334809Y-96905239D01*
X122355081Y-96699413D01*
X122355081Y-96699404D01*
X122334809Y-96493578D01*
X122334808Y-96493572D01*
X122274767Y-96295646D01*
X122274765Y-96295641D01*
X122256979Y-96262366D01*
X122256978Y-96262366D01*
X121595767Y-96644116D01*
X121579556Y-96583613D01*
X121540060Y-96515204D01*
X121495766Y-96470910D01*
X122157337Y-96088953D01*
X122157337Y-96088952D01*
X122046052Y-95953351D01*
X121886170Y-95822140D01*
X121886160Y-95822133D01*
X121703767Y-95724643D01*
X121703762Y-95724641D01*
X121505836Y-95664600D01*
X121505830Y-95664599D01*
X121300004Y-95644328D01*
X121299996Y-95644328D01*
X121094169Y-95664599D01*
X121094163Y-95664600D01*
X120896241Y-95724640D01*
X120896232Y-95724643D01*
X120862956Y-95742429D01*
X120862956Y-95742430D01*
X121244708Y-96403641D01*
X121184204Y-96419853D01*
X121115795Y-96459349D01*
X121071502Y-96503641D01*
X120689544Y-95842070D01*
X120689543Y-95842070D01*
X120553942Y-95953356D01*
X120422731Y-96113238D01*
X120422724Y-96113248D01*
X120325234Y-96295641D01*
X120325232Y-96295646D01*
X120265191Y-96493572D01*
X120265190Y-96493578D01*
X120244919Y-96699404D01*
X115638316Y-96699404D01*
X114368317Y-94499701D01*
X118974417Y-94499701D01*
X118974417Y-94499708D01*
X118994698Y-94705634D01*
X118994699Y-94705639D01*
X119054768Y-94903659D01*
X119152316Y-95086157D01*
X119275382Y-95236114D01*
X119283590Y-95246115D01*
X119283595Y-95246119D01*
X119443547Y-95377388D01*
X119443548Y-95377388D01*
X119443550Y-95377390D01*
X119626046Y-95474937D01*
X119723586Y-95504525D01*
X119824065Y-95535005D01*
X119824070Y-95535006D01*
X120029997Y-95555288D01*
X120030000Y-95555288D01*
X120030003Y-95555288D01*
X120235929Y-95535006D01*
X120235934Y-95535005D01*
X120244634Y-95532366D01*
X120433954Y-95474937D01*
X120616450Y-95377390D01*
X120776410Y-95246115D01*
X120907685Y-95086155D01*
X121005232Y-94903659D01*
X121065300Y-94705639D01*
X121065301Y-94705634D01*
X121085583Y-94499708D01*
X121085583Y-94499701D01*
X121065301Y-94293775D01*
X121065300Y-94293770D01*
X121032463Y-94185520D01*
X121005232Y-94095751D01*
X120907685Y-93913255D01*
X120899477Y-93903254D01*
X120776414Y-93753300D01*
X120776410Y-93753295D01*
X120752842Y-93733953D01*
X120616452Y-93622021D01*
X120433954Y-93524473D01*
X120235934Y-93464404D01*
X120235929Y-93464403D01*
X120030003Y-93444122D01*
X120029997Y-93444122D01*
X119824070Y-93464403D01*
X119824065Y-93464404D01*
X119626045Y-93524473D01*
X119443547Y-93622021D01*
X119283595Y-93753290D01*
X119283585Y-93753300D01*
X119152316Y-93913252D01*
X119054768Y-94095750D01*
X118994699Y-94293770D01*
X118994698Y-94293775D01*
X118974417Y-94499701D01*
X114368317Y-94499701D01*
X110394097Y-87616150D01*
X114856199Y-87616150D01*
X114856199Y-87616154D01*
X114875363Y-87672611D01*
X114875365Y-87672615D01*
X114875366Y-87672617D01*
X115745114Y-89179065D01*
X115745116Y-89179068D01*
X115784426Y-89223893D01*
X115784428Y-89223894D01*
X115784430Y-89223896D01*
X115855969Y-89259174D01*
X115935562Y-89264392D01*
X115992026Y-89245225D01*
X117272861Y-88505733D01*
X117332708Y-88493012D01*
X117388604Y-88517899D01*
X117419197Y-88570887D01*
X117421360Y-88591470D01*
X117421360Y-88961744D01*
X117402453Y-89019935D01*
X117352953Y-89055899D01*
X117332065Y-89060267D01*
X117284070Y-89064994D01*
X117284065Y-89064995D01*
X117086045Y-89125064D01*
X116903547Y-89222612D01*
X116743595Y-89353881D01*
X116743585Y-89353891D01*
X116612316Y-89513843D01*
X116514768Y-89696341D01*
X116454699Y-89894361D01*
X116454698Y-89894366D01*
X116434417Y-90100292D01*
X116434417Y-90100299D01*
X116454698Y-90306225D01*
X116454699Y-90306230D01*
X116514768Y-90504250D01*
X116612316Y-90686748D01*
X116735382Y-90836705D01*
X116743590Y-90846706D01*
X116743595Y-90846710D01*
X116903547Y-90977979D01*
X116903548Y-90977979D01*
X116903550Y-90977981D01*
X117086046Y-91075528D01*
X117203886Y-91111274D01*
X117284065Y-91135596D01*
X117284070Y-91135597D01*
X117489997Y-91155879D01*
X117490000Y-91155879D01*
X117490003Y-91155879D01*
X117695929Y-91135597D01*
X117695934Y-91135596D01*
X117893954Y-91075528D01*
X118076450Y-90977981D01*
X118236410Y-90846706D01*
X118367685Y-90686746D01*
X118465232Y-90504250D01*
X118525300Y-90306230D01*
X118525301Y-90306224D01*
X118539209Y-90165007D01*
X118545054Y-90105661D01*
X118569573Y-90049605D01*
X118622360Y-90018666D01*
X118683251Y-90024663D01*
X118728987Y-90065306D01*
X118729313Y-90065866D01*
X119088993Y-90688848D01*
X119089061Y-90688987D01*
X119111716Y-90728213D01*
X119124985Y-90778121D01*
X119124866Y-90807789D01*
X119124866Y-90807899D01*
X119124788Y-90823090D01*
X119124802Y-90823348D01*
X119124725Y-90842619D01*
X119156834Y-91022387D01*
X119213488Y-91173458D01*
X119216218Y-91234582D01*
X119182498Y-91285637D01*
X119125208Y-91307121D01*
X119092054Y-91302957D01*
X118965934Y-91264699D01*
X118965929Y-91264698D01*
X118760003Y-91244417D01*
X118759997Y-91244417D01*
X118554070Y-91264698D01*
X118554065Y-91264699D01*
X118356045Y-91324768D01*
X118173547Y-91422316D01*
X118013595Y-91553585D01*
X118013585Y-91553595D01*
X117882316Y-91713547D01*
X117784768Y-91896045D01*
X117724699Y-92094065D01*
X117724698Y-92094070D01*
X117704417Y-92299996D01*
X117704417Y-92300003D01*
X117724698Y-92505929D01*
X117724699Y-92505934D01*
X117784768Y-92703954D01*
X117882316Y-92886452D01*
X118013378Y-93046152D01*
X118013590Y-93046410D01*
X118013595Y-93046414D01*
X118173547Y-93177683D01*
X118173548Y-93177683D01*
X118173550Y-93177685D01*
X118356046Y-93275232D01*
X118493997Y-93317078D01*
X118554065Y-93335300D01*
X118554070Y-93335301D01*
X118759997Y-93355583D01*
X118760000Y-93355583D01*
X118760003Y-93355583D01*
X118965929Y-93335301D01*
X118965934Y-93335300D01*
X118990533Y-93327838D01*
X119163954Y-93275232D01*
X119346450Y-93177685D01*
X119506410Y-93046410D01*
X119637685Y-92886450D01*
X119735232Y-92703954D01*
X119795300Y-92505934D01*
X119795301Y-92505929D01*
X119815583Y-92300003D01*
X119815583Y-92299996D01*
X119795301Y-92094070D01*
X119795300Y-92094065D01*
X119772532Y-92019009D01*
X119735232Y-91896046D01*
X119712356Y-91853249D01*
X119701601Y-91793019D01*
X119728302Y-91737967D01*
X119782262Y-91709124D01*
X119829100Y-91712059D01*
X119912304Y-91737967D01*
X119915355Y-91738917D01*
X120096654Y-91760747D01*
X120278910Y-91749397D01*
X120456099Y-91705241D01*
X120622368Y-91629738D01*
X120772222Y-91525384D01*
X120900709Y-91395627D01*
X120911029Y-91380531D01*
X120911825Y-91379517D01*
X120915094Y-91374724D01*
X120939424Y-91339046D01*
X120971711Y-91309092D01*
X121009119Y-91287495D01*
X121009119Y-91287494D01*
X121032087Y-91274234D01*
X121032089Y-91274231D01*
X122149722Y-90628966D01*
X122191677Y-90615992D01*
X122192097Y-90615959D01*
X122199395Y-90615403D01*
X122234851Y-90612745D01*
X122234852Y-90612744D01*
X122240823Y-90612297D01*
X122241669Y-90612176D01*
X122260227Y-90610761D01*
X122436834Y-90564357D01*
X122602123Y-90486749D01*
X122750633Y-90380504D01*
X122877457Y-90249130D01*
X122978404Y-90096968D01*
X123050139Y-89929047D01*
X123090292Y-89750915D01*
X123097536Y-89568457D01*
X123071631Y-89387702D01*
X123056556Y-89342867D01*
X123013438Y-89214631D01*
X123013434Y-89214622D01*
X122924867Y-89054935D01*
X122808863Y-88913928D01*
X122808862Y-88913927D01*
X122808858Y-88913922D01*
X122669238Y-88796237D01*
X122653298Y-88787119D01*
X122652318Y-88786470D01*
X122613401Y-88764264D01*
X122576723Y-88727767D01*
X122554078Y-88688532D01*
X122554001Y-88688417D01*
X121831720Y-87437391D01*
X121831709Y-87437369D01*
X121809208Y-87398399D01*
X121795943Y-87348379D01*
X121796146Y-87309411D01*
X121796145Y-87309408D01*
X121796174Y-87303902D01*
X121796063Y-87302098D01*
X121796136Y-87284022D01*
X121764022Y-87104279D01*
X121699902Y-86933319D01*
X121605895Y-86776789D01*
X121593157Y-86762349D01*
X121485108Y-86639861D01*
X121378310Y-86555957D01*
X121341529Y-86527060D01*
X121341525Y-86527058D01*
X121341524Y-86527057D01*
X121180559Y-86442456D01*
X121179903Y-86442111D01*
X121005572Y-86387823D01*
X121005569Y-86387822D01*
X121005570Y-86387822D01*
X120824300Y-86365987D01*
X120824293Y-86365986D01*
X120642053Y-86377327D01*
X120464883Y-86421465D01*
X120418646Y-86442457D01*
X120298624Y-86496947D01*
X120255377Y-86527057D01*
X120148778Y-86601274D01*
X120020289Y-86731006D01*
X120020285Y-86731010D01*
X120009899Y-86746197D01*
X120008839Y-86747552D01*
X119981552Y-86787587D01*
X119949216Y-86817583D01*
X119906745Y-86842082D01*
X119906383Y-86842323D01*
X119220036Y-87238587D01*
X119160188Y-87251309D01*
X119104292Y-87226422D01*
X119073699Y-87173434D01*
X119080095Y-87112584D01*
X119100532Y-87082847D01*
X119452370Y-86731010D01*
X120192814Y-85990566D01*
X120247331Y-85962789D01*
X120262818Y-85961570D01*
X120928934Y-85961570D01*
X120987125Y-85980477D01*
X121003750Y-85995737D01*
X121044889Y-86043213D01*
X121165964Y-86121023D01*
X121272420Y-86152281D01*
X121304052Y-86161569D01*
X121304053Y-86161569D01*
X121304056Y-86161570D01*
X121304058Y-86161570D01*
X121447976Y-86161570D01*
X121447978Y-86161570D01*
X121586070Y-86121023D01*
X121707145Y-86043213D01*
X121801394Y-85934443D01*
X121861182Y-85803527D01*
X121881664Y-85661070D01*
X121861182Y-85518613D01*
X121801394Y-85387697D01*
X121765108Y-85345821D01*
X121741292Y-85289462D01*
X121755151Y-85229867D01*
X121789960Y-85195527D01*
X121792517Y-85194033D01*
X121842485Y-85180502D01*
X121881392Y-85180507D01*
X121881394Y-85180506D01*
X121887842Y-85180507D01*
X121887963Y-85180500D01*
X123377507Y-85180500D01*
X123427462Y-85194028D01*
X123465686Y-85216368D01*
X123467527Y-85217286D01*
X123483077Y-85226348D01*
X123580796Y-85261670D01*
X123654787Y-85288416D01*
X123654790Y-85288416D01*
X123654799Y-85288420D01*
X123834920Y-85318381D01*
X124017488Y-85315240D01*
X124196472Y-85279103D01*
X124365958Y-85211163D01*
X124520344Y-85113664D01*
X124550165Y-85086144D01*
X124605751Y-85060574D01*
X124665751Y-85072560D01*
X124707246Y-85117524D01*
X124716306Y-85158897D01*
X124716306Y-91907608D01*
X124697399Y-91965799D01*
X124670830Y-91990892D01*
X124628872Y-92017856D01*
X124534622Y-92126628D01*
X124474834Y-92257543D01*
X124454353Y-92399997D01*
X124454353Y-92400002D01*
X124474834Y-92542456D01*
X124532399Y-92668503D01*
X124534623Y-92673373D01*
X124594913Y-92742952D01*
X124628873Y-92782144D01*
X124744261Y-92856299D01*
X124749947Y-92859953D01*
X124854407Y-92890625D01*
X124888035Y-92900499D01*
X124888036Y-92900499D01*
X124888039Y-92900500D01*
X124888041Y-92900500D01*
X125031959Y-92900500D01*
X125031961Y-92900500D01*
X125170053Y-92859953D01*
X125291128Y-92782143D01*
X125385377Y-92673373D01*
X125445165Y-92542457D01*
X125465647Y-92400000D01*
X125458165Y-92347963D01*
X125445165Y-92257543D01*
X125442529Y-92251770D01*
X125385377Y-92126627D01*
X125357167Y-92094070D01*
X125341486Y-92075972D01*
X125317669Y-92019612D01*
X125317306Y-92011142D01*
X125317306Y-81088855D01*
X125336213Y-81030664D01*
X125341471Y-81024043D01*
X125385377Y-80973373D01*
X125445165Y-80842457D01*
X125465647Y-80700000D01*
X125445165Y-80557543D01*
X125385377Y-80426627D01*
X125291128Y-80317857D01*
X125291127Y-80317856D01*
X125291126Y-80317855D01*
X125170057Y-80240049D01*
X125170054Y-80240047D01*
X125170053Y-80240047D01*
X125170050Y-80240046D01*
X125031964Y-80199500D01*
X125031961Y-80199500D01*
X124888039Y-80199500D01*
X124888035Y-80199500D01*
X124749949Y-80240046D01*
X124749942Y-80240049D01*
X124628873Y-80317855D01*
X124534622Y-80426628D01*
X124474834Y-80557543D01*
X124454353Y-80699997D01*
X124454353Y-80700002D01*
X124474834Y-80842456D01*
X124534622Y-80973371D01*
X124534623Y-80973373D01*
X124628872Y-81082143D01*
X124633509Y-81087494D01*
X124632357Y-81088491D01*
X124659752Y-81133917D01*
X124654517Y-81194878D01*
X124614450Y-81241120D01*
X124554854Y-81254979D01*
X124510464Y-81240048D01*
X124365977Y-81148802D01*
X124196485Y-81080858D01*
X124196484Y-81080857D01*
X124196480Y-81080856D01*
X124017494Y-81044719D01*
X124017485Y-81044718D01*
X123834918Y-81041577D01*
X123654795Y-81071539D01*
X123654792Y-81071539D01*
X123654790Y-81071540D01*
X123654788Y-81071540D01*
X123654778Y-81071543D01*
X123483062Y-81133613D01*
X123467166Y-81142875D01*
X123466035Y-81143441D01*
X123427459Y-81165978D01*
X123377513Y-81179496D01*
X123338608Y-81179494D01*
X123338606Y-81179494D01*
X123332148Y-81179494D01*
X123332042Y-81179501D01*
X121888038Y-81179501D01*
X121887933Y-81179494D01*
X121842485Y-81179497D01*
X121792538Y-81165978D01*
X121754159Y-81143556D01*
X121752496Y-81142727D01*
X121742464Y-81136881D01*
X121736921Y-81133650D01*
X121736918Y-81133649D01*
X121565211Y-81071583D01*
X121565196Y-81071579D01*
X121385075Y-81041618D01*
X121202519Y-81044759D01*
X121202510Y-81044760D01*
X121023529Y-81080896D01*
X120854041Y-81148838D01*
X120699650Y-81246339D01*
X120565473Y-81370166D01*
X120565470Y-81370169D01*
X120455920Y-81516246D01*
X120374618Y-81679749D01*
X120374615Y-81679756D01*
X120324261Y-81855253D01*
X120324259Y-81855262D01*
X120306504Y-82036995D01*
X120321939Y-82218935D01*
X120370054Y-82395072D01*
X120370056Y-82395078D01*
X120377204Y-82409973D01*
X120378007Y-82411646D01*
X120378648Y-82413237D01*
X120399681Y-82456892D01*
X120409493Y-82499892D01*
X120409478Y-82549213D01*
X120409501Y-82549562D01*
X120409501Y-83810488D01*
X120409492Y-83810626D01*
X120409497Y-83860103D01*
X120399755Y-83902938D01*
X120395920Y-83910931D01*
X120395862Y-83911051D01*
X120378461Y-83947192D01*
X120378156Y-83947948D01*
X120370020Y-83964902D01*
X120348835Y-84042456D01*
X120321900Y-84141055D01*
X120306463Y-84323004D01*
X120324219Y-84504742D01*
X120374579Y-84680263D01*
X120455881Y-84843768D01*
X120565438Y-84989855D01*
X120699595Y-85113664D01*
X120699627Y-85113693D01*
X120699629Y-85113695D01*
X120801239Y-85177865D01*
X120840344Y-85224923D01*
X120844321Y-85285979D01*
X120811650Y-85337711D01*
X120754811Y-85360361D01*
X120748377Y-85360570D01*
X120136901Y-85360570D01*
X120057777Y-85360570D01*
X120011000Y-85373103D01*
X119981346Y-85381049D01*
X119912832Y-85420606D01*
X117524183Y-87809255D01*
X117469666Y-87837032D01*
X117409234Y-87827461D01*
X117368442Y-87788751D01*
X116694886Y-86622117D01*
X116694883Y-86622114D01*
X116694883Y-86622113D01*
X116655573Y-86577288D01*
X116655571Y-86577287D01*
X116655570Y-86577286D01*
X116584031Y-86542008D01*
X116557500Y-86540268D01*
X116504440Y-86536790D01*
X116504436Y-86536790D01*
X116447979Y-86555954D01*
X114941522Y-87425707D01*
X114896697Y-87465017D01*
X114896696Y-87465019D01*
X114861417Y-87536559D01*
X114861417Y-87536561D01*
X114856199Y-87616150D01*
X110394097Y-87616150D01*
X106025488Y-80049497D01*
X106012768Y-79989652D01*
X106025487Y-79950503D01*
X109230073Y-74399997D01*
X117554353Y-74399997D01*
X117554353Y-74400002D01*
X117574834Y-74542456D01*
X117634623Y-74673373D01*
X117733509Y-74787494D01*
X117731471Y-74789259D01*
X117756925Y-74831458D01*
X117759500Y-74853893D01*
X117759500Y-79046105D01*
X117740593Y-79104296D01*
X117733258Y-79112289D01*
X117733509Y-79112506D01*
X117728872Y-79117856D01*
X117728872Y-79117857D01*
X117660915Y-79196283D01*
X117634622Y-79226628D01*
X117574834Y-79357543D01*
X117554353Y-79499997D01*
X117554353Y-79500002D01*
X117574834Y-79642456D01*
X117634622Y-79773371D01*
X117634623Y-79773373D01*
X117663600Y-79806814D01*
X117728873Y-79882144D01*
X117849942Y-79959950D01*
X117849947Y-79959953D01*
X117951094Y-79989652D01*
X117988035Y-80000499D01*
X117988036Y-80000499D01*
X117988039Y-80000500D01*
X117988041Y-80000500D01*
X118131959Y-80000500D01*
X118131961Y-80000500D01*
X118270053Y-79959953D01*
X118391128Y-79882143D01*
X118485377Y-79773373D01*
X118545165Y-79642457D01*
X118565647Y-79500000D01*
X118545165Y-79357543D01*
X118485377Y-79226627D01*
X118391128Y-79117857D01*
X118391127Y-79117856D01*
X118386491Y-79112506D01*
X118388524Y-79110743D01*
X118363067Y-79068505D01*
X118360500Y-79046105D01*
X118360500Y-78383003D01*
X120306463Y-78383003D01*
X120324218Y-78564737D01*
X120324219Y-78564742D01*
X120374579Y-78740263D01*
X120455881Y-78903768D01*
X120565438Y-79049855D01*
X120565441Y-79049857D01*
X120565443Y-79049860D01*
X120639124Y-79117857D01*
X120699595Y-79173664D01*
X120699627Y-79173693D01*
X120699629Y-79173695D01*
X120854015Y-79271194D01*
X120854016Y-79271194D01*
X120854022Y-79271198D01*
X121023514Y-79339142D01*
X121023517Y-79339142D01*
X121023518Y-79339143D01*
X121058283Y-79346162D01*
X121202505Y-79375281D01*
X121364794Y-79378073D01*
X121385080Y-79378422D01*
X121385080Y-79378421D01*
X121385081Y-79378422D01*
X121565210Y-79348460D01*
X121736938Y-79286386D01*
X121752741Y-79277176D01*
X121753849Y-79276624D01*
X121758864Y-79273693D01*
X121758870Y-79273692D01*
X121792537Y-79254021D01*
X121842485Y-79240502D01*
X121881392Y-79240507D01*
X121881394Y-79240506D01*
X121887842Y-79240507D01*
X121887963Y-79240500D01*
X123377507Y-79240500D01*
X123427462Y-79254028D01*
X123465686Y-79276368D01*
X123467527Y-79277286D01*
X123483077Y-79286348D01*
X123580796Y-79321670D01*
X123654787Y-79348416D01*
X123654790Y-79348416D01*
X123654799Y-79348420D01*
X123834920Y-79378381D01*
X124017488Y-79375240D01*
X124196472Y-79339103D01*
X124365958Y-79271163D01*
X124520344Y-79173664D01*
X124654531Y-79049829D01*
X124764083Y-78903748D01*
X124845382Y-78740250D01*
X124895741Y-78564736D01*
X124913496Y-78383006D01*
X124898060Y-78201064D01*
X124849944Y-78024922D01*
X124842025Y-78008422D01*
X124841494Y-78007100D01*
X124820300Y-77963083D01*
X124810499Y-77920134D01*
X124810499Y-76559889D01*
X124820245Y-76517055D01*
X124823913Y-76509412D01*
X124823969Y-76509297D01*
X124836030Y-76484247D01*
X124839019Y-76478040D01*
X124839019Y-76478039D01*
X124841626Y-76472625D01*
X124841923Y-76471884D01*
X124849982Y-76455093D01*
X124898100Y-76278944D01*
X124913537Y-76096994D01*
X124895781Y-75915257D01*
X124895778Y-75915246D01*
X124845422Y-75739742D01*
X124845421Y-75739740D01*
X124845420Y-75739736D01*
X124764118Y-75576231D01*
X124654562Y-75430145D01*
X124654558Y-75430141D01*
X124654556Y-75430139D01*
X124621895Y-75399997D01*
X126554353Y-75399997D01*
X126554353Y-75400002D01*
X126574834Y-75542456D01*
X126613275Y-75626628D01*
X126634623Y-75673373D01*
X126707556Y-75757543D01*
X126728873Y-75782144D01*
X126814023Y-75836866D01*
X126852754Y-75884232D01*
X126859500Y-75920150D01*
X126859500Y-83446105D01*
X126840593Y-83504296D01*
X126833258Y-83512289D01*
X126833509Y-83512506D01*
X126734622Y-83626628D01*
X126674834Y-83757543D01*
X126654353Y-83899997D01*
X126654353Y-83900002D01*
X126674834Y-84042456D01*
X126703863Y-84106019D01*
X126734623Y-84173373D01*
X126828872Y-84282143D01*
X126828873Y-84282144D01*
X126949942Y-84359950D01*
X126949947Y-84359953D01*
X127056403Y-84391211D01*
X127088035Y-84400499D01*
X127088036Y-84400499D01*
X127088039Y-84400500D01*
X127088041Y-84400500D01*
X127231959Y-84400500D01*
X127231961Y-84400500D01*
X127370053Y-84359953D01*
X127397905Y-84342053D01*
X127457078Y-84326498D01*
X127514095Y-84348696D01*
X127547175Y-84400168D01*
X127550428Y-84425337D01*
X127550428Y-85146105D01*
X127531521Y-85204296D01*
X127524186Y-85212289D01*
X127524437Y-85212506D01*
X127519800Y-85217856D01*
X127519800Y-85217857D01*
X127466697Y-85279142D01*
X127425550Y-85326628D01*
X127365762Y-85457543D01*
X127345281Y-85599997D01*
X127345281Y-85600002D01*
X127365762Y-85742456D01*
X127393653Y-85803527D01*
X127425551Y-85873373D01*
X127519800Y-85982143D01*
X127519801Y-85982144D01*
X127614830Y-86043215D01*
X127640875Y-86059953D01*
X127738129Y-86088509D01*
X127778963Y-86100499D01*
X127778964Y-86100499D01*
X127778967Y-86100500D01*
X127778969Y-86100500D01*
X127922887Y-86100500D01*
X127922889Y-86100500D01*
X128060981Y-86059953D01*
X128106978Y-86030392D01*
X128166151Y-86014838D01*
X128223168Y-86037037D01*
X128256247Y-86088509D01*
X128259500Y-86113677D01*
X128259500Y-92646103D01*
X128240593Y-92704294D01*
X128233258Y-92712287D01*
X128233509Y-92712504D01*
X128228872Y-92717854D01*
X128228872Y-92717855D01*
X128179708Y-92774594D01*
X128134622Y-92826626D01*
X128074834Y-92957541D01*
X128054353Y-93099995D01*
X128054353Y-93100000D01*
X128074834Y-93242454D01*
X128122424Y-93346659D01*
X128134623Y-93373371D01*
X128190495Y-93437851D01*
X128228873Y-93482142D01*
X128346200Y-93557543D01*
X128349947Y-93559951D01*
X128424100Y-93581724D01*
X128488035Y-93600497D01*
X128488036Y-93600497D01*
X128488039Y-93600498D01*
X128488041Y-93600498D01*
X128631959Y-93600498D01*
X128631961Y-93600498D01*
X128770053Y-93559951D01*
X128891128Y-93482141D01*
X128985377Y-93373371D01*
X128985378Y-93373368D01*
X128985680Y-93373020D01*
X129038076Y-93341424D01*
X129099037Y-93346659D01*
X129145278Y-93386727D01*
X129159500Y-93437851D01*
X129159500Y-94046105D01*
X129140593Y-94104296D01*
X129133258Y-94112289D01*
X129133509Y-94112506D01*
X129128872Y-94117856D01*
X129128872Y-94117857D01*
X129085026Y-94168458D01*
X129034622Y-94226628D01*
X128974834Y-94357543D01*
X128954353Y-94499997D01*
X128954353Y-94500002D01*
X128974834Y-94642456D01*
X129020790Y-94743084D01*
X129034623Y-94773373D01*
X129116645Y-94868032D01*
X129128873Y-94882144D01*
X129249211Y-94959480D01*
X129249947Y-94959953D01*
X129356403Y-94991211D01*
X129388035Y-95000499D01*
X129388036Y-95000499D01*
X129388039Y-95000500D01*
X129388041Y-95000500D01*
X129531959Y-95000500D01*
X129531961Y-95000500D01*
X129670053Y-94959953D01*
X129791128Y-94882143D01*
X129885377Y-94773373D01*
X129945165Y-94642457D01*
X129965647Y-94500000D01*
X129964167Y-94489707D01*
X129945165Y-94357543D01*
X129885377Y-94226627D01*
X129791128Y-94117857D01*
X129791127Y-94117856D01*
X129786491Y-94112506D01*
X129788524Y-94110743D01*
X129763067Y-94068505D01*
X129760500Y-94046105D01*
X129760500Y-86335924D01*
X129770597Y-86304847D01*
X129760500Y-86264075D01*
X129760500Y-76353893D01*
X129779407Y-76295702D01*
X129786740Y-76287713D01*
X129786489Y-76287496D01*
X129791126Y-76282144D01*
X129791128Y-76282143D01*
X129799292Y-76272720D01*
X129851685Y-76241124D01*
X129912646Y-76246359D01*
X129958888Y-76286425D01*
X129972103Y-76323461D01*
X129974834Y-76342456D01*
X129983743Y-76361963D01*
X130034623Y-76473373D01*
X130089991Y-76537272D01*
X130133509Y-76587494D01*
X130131471Y-76589259D01*
X130156925Y-76631458D01*
X130159500Y-76653893D01*
X130159500Y-85846105D01*
X130140593Y-85904296D01*
X130133258Y-85912289D01*
X130133509Y-85912506D01*
X130128872Y-85917856D01*
X130128872Y-85917857D01*
X130090995Y-85961570D01*
X130034622Y-86026628D01*
X129974834Y-86157543D01*
X129957492Y-86278164D01*
X129947782Y-86297911D01*
X129957492Y-86321835D01*
X129974834Y-86442456D01*
X129999720Y-86496947D01*
X130034623Y-86573373D01*
X130076860Y-86622117D01*
X130128873Y-86682144D01*
X130237240Y-86751787D01*
X130249947Y-86759953D01*
X130344061Y-86787587D01*
X130388035Y-86800499D01*
X130388036Y-86800499D01*
X130388039Y-86800500D01*
X130388041Y-86800500D01*
X130531959Y-86800500D01*
X130531961Y-86800500D01*
X130670053Y-86759953D01*
X130791128Y-86682143D01*
X130885377Y-86573373D01*
X130945165Y-86442457D01*
X130965647Y-86300000D01*
X130962507Y-86278164D01*
X130945165Y-86157543D01*
X130919114Y-86100500D01*
X130885377Y-86026627D01*
X130791128Y-85917857D01*
X130791127Y-85917856D01*
X130786491Y-85912506D01*
X130788524Y-85910743D01*
X130763067Y-85868505D01*
X130760500Y-85846105D01*
X130760500Y-76653893D01*
X130779407Y-76595702D01*
X130786741Y-76587711D01*
X130786491Y-76587494D01*
X130810411Y-76559889D01*
X130885377Y-76473373D01*
X130945165Y-76342457D01*
X130962338Y-76223015D01*
X130962843Y-76219503D01*
X131604575Y-76219503D01*
X131604575Y-76219508D01*
X131625056Y-76361962D01*
X131684845Y-76492879D01*
X131723311Y-76537272D01*
X131783731Y-76607000D01*
X131781693Y-76608765D01*
X131807147Y-76650964D01*
X131809722Y-76673399D01*
X131809722Y-99229786D01*
X131813996Y-99245736D01*
X131830201Y-99306211D01*
X131850847Y-99341971D01*
X131869762Y-99374733D01*
X133965533Y-101470504D01*
X135876025Y-103380996D01*
X135903802Y-103435513D01*
X135894231Y-103495945D01*
X135850966Y-103539210D01*
X135806021Y-103550000D01*
X135080001Y-103550000D01*
X135080000Y-103550001D01*
X135080000Y-104316211D01*
X135019496Y-104300000D01*
X134940504Y-104300000D01*
X134880000Y-104316211D01*
X134880000Y-103550001D01*
X134879999Y-103550000D01*
X134110299Y-103550000D01*
X134051963Y-103561603D01*
X133985810Y-103605806D01*
X133985806Y-103605810D01*
X133941603Y-103671963D01*
X133930000Y-103730299D01*
X133930000Y-104499999D01*
X133930001Y-104500000D01*
X134696212Y-104500000D01*
X134680000Y-104560504D01*
X134680000Y-104639496D01*
X134696212Y-104700000D01*
X133930001Y-104700000D01*
X133930000Y-104700001D01*
X133930000Y-105469700D01*
X133941603Y-105528036D01*
X133985806Y-105594189D01*
X133985810Y-105594193D01*
X134051963Y-105638396D01*
X134110299Y-105649999D01*
X134110303Y-105650000D01*
X134879999Y-105650000D01*
X134880000Y-105649999D01*
X134880000Y-104883788D01*
X134940504Y-104900000D01*
X135019496Y-104900000D01*
X135080000Y-104883788D01*
X135080000Y-105649999D01*
X135080001Y-105650000D01*
X135849697Y-105650000D01*
X135849700Y-105649999D01*
X135908036Y-105638396D01*
X135974189Y-105594193D01*
X135974193Y-105594189D01*
X136018396Y-105528036D01*
X136029999Y-105469700D01*
X136030000Y-105469697D01*
X136030000Y-104700001D01*
X136029999Y-104700000D01*
X135263788Y-104700000D01*
X135280000Y-104639496D01*
X135280000Y-104560504D01*
X135263788Y-104500000D01*
X136029999Y-104500000D01*
X136030000Y-104499999D01*
X136030000Y-103773978D01*
X136048907Y-103715787D01*
X136098407Y-103679823D01*
X136159593Y-103679823D01*
X136199004Y-103703975D01*
X136543812Y-104048784D01*
X136571589Y-104103300D01*
X136562018Y-104163732D01*
X136561120Y-104165453D01*
X136544769Y-104196044D01*
X136544766Y-104196052D01*
X136484699Y-104394065D01*
X136484698Y-104394070D01*
X136464417Y-104599996D01*
X136464417Y-104600003D01*
X136484698Y-104805929D01*
X136484699Y-104805934D01*
X136544768Y-105003954D01*
X136642316Y-105186452D01*
X136773585Y-105346404D01*
X136773590Y-105346410D01*
X136773595Y-105346414D01*
X136933547Y-105477683D01*
X136933548Y-105477683D01*
X136933550Y-105477685D01*
X137116046Y-105575232D01*
X137253997Y-105617078D01*
X137314065Y-105635300D01*
X137314070Y-105635301D01*
X137519997Y-105655583D01*
X137520000Y-105655583D01*
X137520003Y-105655583D01*
X137725929Y-105635301D01*
X137725934Y-105635300D01*
X137923954Y-105575232D01*
X138106450Y-105477685D01*
X138266410Y-105346410D01*
X138397685Y-105186450D01*
X138495232Y-105003954D01*
X138555300Y-104805934D01*
X138555301Y-104805929D01*
X138575583Y-104600003D01*
X138575583Y-104599997D01*
X138563433Y-104476639D01*
X138576545Y-104416875D01*
X138622282Y-104376232D01*
X138683172Y-104370235D01*
X138731960Y-104396931D01*
X138986950Y-104651921D01*
X139014727Y-104706438D01*
X139015469Y-104712220D01*
X139024700Y-104805934D01*
X139024701Y-104805939D01*
X139084768Y-105003954D01*
X139182316Y-105186452D01*
X139313585Y-105346404D01*
X139313590Y-105346410D01*
X139313595Y-105346414D01*
X139473547Y-105477683D01*
X139473548Y-105477683D01*
X139473550Y-105477685D01*
X139656046Y-105575232D01*
X139793997Y-105617078D01*
X139854065Y-105635300D01*
X139854070Y-105635301D01*
X140059997Y-105655583D01*
X140060000Y-105655583D01*
X140060003Y-105655583D01*
X140265929Y-105635301D01*
X140265934Y-105635300D01*
X140463954Y-105575232D01*
X140646450Y-105477685D01*
X140806410Y-105346410D01*
X140937685Y-105186450D01*
X141035232Y-105003954D01*
X141095300Y-104805934D01*
X141095301Y-104805929D01*
X141115583Y-104600003D01*
X141115583Y-104599996D01*
X141095301Y-104394070D01*
X141095300Y-104394065D01*
X141066766Y-104300000D01*
X141035232Y-104196046D01*
X140937685Y-104013550D01*
X140937683Y-104013547D01*
X140881622Y-103945236D01*
X140859322Y-103888259D01*
X140874771Y-103829056D01*
X140922068Y-103790241D01*
X140958150Y-103783431D01*
X141317452Y-103783431D01*
X141375643Y-103802338D01*
X141387456Y-103812427D01*
X141623812Y-104048783D01*
X141651589Y-104103300D01*
X141642018Y-104163732D01*
X141641120Y-104165453D01*
X141624769Y-104196044D01*
X141624766Y-104196052D01*
X141564699Y-104394065D01*
X141564698Y-104394070D01*
X141544417Y-104599996D01*
X141544417Y-104600003D01*
X141564698Y-104805929D01*
X141564699Y-104805934D01*
X141624768Y-105003954D01*
X141722316Y-105186452D01*
X141853585Y-105346404D01*
X141853590Y-105346410D01*
X141853595Y-105346414D01*
X142013547Y-105477683D01*
X142013548Y-105477683D01*
X142013550Y-105477685D01*
X142196046Y-105575232D01*
X142333997Y-105617078D01*
X142394065Y-105635300D01*
X142394070Y-105635301D01*
X142599997Y-105655583D01*
X142600000Y-105655583D01*
X142600003Y-105655583D01*
X142805929Y-105635301D01*
X142805934Y-105635300D01*
X143003954Y-105575232D01*
X143186450Y-105477685D01*
X143346410Y-105346410D01*
X143477685Y-105186450D01*
X143575232Y-105003954D01*
X143635300Y-104805934D01*
X143635301Y-104805929D01*
X143655583Y-104600003D01*
X143655583Y-104599996D01*
X144084417Y-104599996D01*
X144084417Y-104600003D01*
X144104698Y-104805929D01*
X144104699Y-104805934D01*
X144164768Y-105003954D01*
X144262316Y-105186452D01*
X144393585Y-105346404D01*
X144393590Y-105346410D01*
X144393595Y-105346414D01*
X144553547Y-105477683D01*
X144553548Y-105477683D01*
X144553550Y-105477685D01*
X144736046Y-105575232D01*
X144873997Y-105617078D01*
X144934065Y-105635300D01*
X144934070Y-105635301D01*
X145139997Y-105655583D01*
X145140000Y-105655583D01*
X145140003Y-105655583D01*
X145345929Y-105635301D01*
X145345934Y-105635300D01*
X145543954Y-105575232D01*
X145726450Y-105477685D01*
X145886410Y-105346410D01*
X146017685Y-105186450D01*
X146115232Y-105003954D01*
X146175300Y-104805934D01*
X146175301Y-104805929D01*
X146195583Y-104600003D01*
X146195583Y-104599996D01*
X146175301Y-104394070D01*
X146175300Y-104394065D01*
X146146766Y-104300000D01*
X146115232Y-104196046D01*
X146017685Y-104013550D01*
X146010379Y-104004648D01*
X145886414Y-103853595D01*
X145886410Y-103853590D01*
X145856515Y-103829056D01*
X145726452Y-103722316D01*
X145543954Y-103624768D01*
X145345934Y-103564699D01*
X145345929Y-103564698D01*
X145140003Y-103544417D01*
X145139997Y-103544417D01*
X144934070Y-103564698D01*
X144934065Y-103564699D01*
X144736045Y-103624768D01*
X144553547Y-103722316D01*
X144393595Y-103853585D01*
X144393585Y-103853595D01*
X144262316Y-104013547D01*
X144164768Y-104196045D01*
X144104699Y-104394065D01*
X144104698Y-104394070D01*
X144084417Y-104599996D01*
X143655583Y-104599996D01*
X143635301Y-104394070D01*
X143635300Y-104394065D01*
X143606766Y-104300000D01*
X143575232Y-104196046D01*
X143477685Y-104013550D01*
X143470379Y-104004648D01*
X143346414Y-103853595D01*
X143346410Y-103853590D01*
X143316515Y-103829056D01*
X143186452Y-103722316D01*
X143003954Y-103624768D01*
X142805934Y-103564699D01*
X142805929Y-103564698D01*
X142600003Y-103544417D01*
X142599997Y-103544417D01*
X142394070Y-103564698D01*
X142394065Y-103564699D01*
X142196052Y-103624766D01*
X142196049Y-103624766D01*
X142196046Y-103624768D01*
X142196044Y-103624768D01*
X142196044Y-103624769D01*
X142165453Y-103641120D01*
X142105220Y-103651874D01*
X142050169Y-103625171D01*
X142048783Y-103623812D01*
X141836943Y-103411972D01*
X141809166Y-103357455D01*
X141818737Y-103297023D01*
X141862002Y-103253758D01*
X141906947Y-103242968D01*
X142655708Y-103242968D01*
X142694588Y-103242968D01*
X142744429Y-103256429D01*
X142771748Y-103272347D01*
X142771741Y-103272358D01*
X142771857Y-103272410D01*
X142778254Y-103276149D01*
X142778255Y-103276149D01*
X142783813Y-103279397D01*
X142784044Y-103279512D01*
X142800200Y-103288926D01*
X142971933Y-103350991D01*
X143010806Y-103357455D01*
X143152061Y-103380944D01*
X143152062Y-103380943D01*
X143152063Y-103380944D01*
X143334639Y-103377795D01*
X143484999Y-103347430D01*
X143513625Y-103341650D01*
X143513632Y-103341648D01*
X143683112Y-103273701D01*
X143683112Y-103273700D01*
X143683119Y-103273698D01*
X143837509Y-103176190D01*
X143971697Y-103052344D01*
X144081250Y-102906254D01*
X144162547Y-102742747D01*
X144212904Y-102567224D01*
X144212907Y-102567199D01*
X144214422Y-102551676D01*
X144230656Y-102385485D01*
X144230655Y-102385478D01*
X144230656Y-102385475D01*
X144215217Y-102203550D01*
X144215216Y-102203536D01*
X144167095Y-102027387D01*
X144159169Y-102010872D01*
X144158612Y-102009486D01*
X144137454Y-101965553D01*
X144127649Y-101922597D01*
X144127649Y-100613498D01*
X144127653Y-100613437D01*
X144127652Y-100605495D01*
X144127654Y-100605492D01*
X144127651Y-100562326D01*
X144137451Y-100519377D01*
X144158686Y-100475270D01*
X144159157Y-100474096D01*
X144167117Y-100457508D01*
X144205641Y-100316432D01*
X144215213Y-100281381D01*
X144215214Y-100281375D01*
X144215216Y-100281369D01*
X144230639Y-100099434D01*
X144212876Y-99917713D01*
X144187694Y-99829960D01*
X144162514Y-99742211D01*
X144162513Y-99742210D01*
X144162513Y-99742208D01*
X144081214Y-99578718D01*
X143971666Y-99432645D01*
X143971662Y-99432641D01*
X143837491Y-99308816D01*
X143837482Y-99308809D01*
X143700272Y-99222154D01*
X143683110Y-99211315D01*
X143683108Y-99211314D01*
X143683103Y-99211311D01*
X143513640Y-99143371D01*
X143467365Y-99134025D01*
X143334661Y-99107223D01*
X143328852Y-99107122D01*
X143152103Y-99104068D01*
X142971979Y-99134013D01*
X142800269Y-99196060D01*
X142800255Y-99196067D01*
X142784345Y-99205335D01*
X142783002Y-99206006D01*
X142744609Y-99228443D01*
X142694659Y-99241968D01*
X142650828Y-99241968D01*
X142650808Y-99241969D01*
X141159633Y-99241969D01*
X141109692Y-99228449D01*
X141089476Y-99216638D01*
X141071209Y-99205965D01*
X141069821Y-99205273D01*
X141054035Y-99196076D01*
X141054034Y-99196075D01*
X141054033Y-99196075D01*
X140980807Y-99169615D01*
X140882319Y-99134026D01*
X140882314Y-99134025D01*
X140730533Y-99108792D01*
X140702196Y-99104081D01*
X140533093Y-99107003D01*
X140519642Y-99107236D01*
X140519640Y-99107236D01*
X140446628Y-99121982D01*
X140340670Y-99143382D01*
X140340667Y-99143383D01*
X140340663Y-99143384D01*
X140171204Y-99211322D01*
X140171194Y-99211328D01*
X140016820Y-99308823D01*
X140016819Y-99308825D01*
X139882648Y-99432649D01*
X139882645Y-99432652D01*
X139882645Y-99432653D01*
X139773103Y-99578718D01*
X139773094Y-99578730D01*
X139691800Y-99742211D01*
X139691799Y-99742213D01*
X139641436Y-99917714D01*
X139641436Y-99917717D01*
X139623674Y-100099427D01*
X139623673Y-100099435D01*
X139639095Y-100281362D01*
X139639098Y-100281375D01*
X139687192Y-100457495D01*
X139687194Y-100457499D01*
X139687195Y-100457502D01*
X139695133Y-100474047D01*
X139695462Y-100474866D01*
X139716875Y-100519404D01*
X139726651Y-100562300D01*
X139726651Y-101872961D01*
X139726638Y-101873161D01*
X139726646Y-101922592D01*
X139716847Y-101965552D01*
X139695911Y-102009038D01*
X139694979Y-102011354D01*
X139687273Y-102027410D01*
X139639155Y-102203550D01*
X139639155Y-102203551D01*
X139623715Y-102385473D01*
X139623716Y-102385479D01*
X139623716Y-102385482D01*
X139627394Y-102423138D01*
X139641464Y-102567199D01*
X139641467Y-102567212D01*
X139691816Y-102742712D01*
X139691820Y-102742722D01*
X139773109Y-102906214D01*
X139836769Y-102991105D01*
X139856554Y-103049003D01*
X139838528Y-103107473D01*
X139789578Y-103144181D01*
X139757565Y-103149500D01*
X139316136Y-103149500D01*
X139257945Y-103130593D01*
X139246132Y-103120504D01*
X134404088Y-98278460D01*
X134376311Y-98223943D01*
X134385882Y-98163511D01*
X134429147Y-98120246D01*
X134446199Y-98113466D01*
X134475005Y-98105009D01*
X134596080Y-98027199D01*
X134690329Y-97918429D01*
X134750117Y-97787513D01*
X134770599Y-97645056D01*
X134770225Y-97642457D01*
X134750117Y-97502599D01*
X134716717Y-97429465D01*
X134690329Y-97371683D01*
X134596080Y-97262913D01*
X134596079Y-97262912D01*
X134596078Y-97262911D01*
X134475004Y-97185102D01*
X134468562Y-97182160D01*
X134469936Y-97179149D01*
X134430835Y-97152158D01*
X134410529Y-97094441D01*
X134410500Y-97092051D01*
X134410500Y-93699997D01*
X141054353Y-93699997D01*
X141054353Y-93700002D01*
X141074834Y-93842456D01*
X141120571Y-93942603D01*
X141134623Y-93973373D01*
X141225688Y-94078469D01*
X141233509Y-94087494D01*
X141231471Y-94089259D01*
X141256925Y-94131458D01*
X141259500Y-94153893D01*
X141259500Y-95639564D01*
X141279977Y-95715985D01*
X141279978Y-95715988D01*
X141290854Y-95734826D01*
X141311853Y-95771196D01*
X141319540Y-95784511D01*
X144458832Y-98923803D01*
X144486608Y-98978318D01*
X144487827Y-98993805D01*
X144487827Y-100667891D01*
X144489296Y-100673373D01*
X144508306Y-100744316D01*
X144532168Y-100785646D01*
X144547867Y-100812838D01*
X145205533Y-101470504D01*
X145629453Y-101894424D01*
X145657230Y-101948941D01*
X145657441Y-101978514D01*
X145654354Y-101999997D01*
X145654353Y-102000002D01*
X145674834Y-102142456D01*
X145720302Y-102242015D01*
X145734623Y-102273373D01*
X145825112Y-102377804D01*
X145828873Y-102382144D01*
X145834072Y-102385485D01*
X145949947Y-102459953D01*
X146056403Y-102491211D01*
X146088035Y-102500499D01*
X146088036Y-102500499D01*
X146088039Y-102500500D01*
X146088041Y-102500500D01*
X146231959Y-102500500D01*
X146231961Y-102500500D01*
X146370053Y-102459953D01*
X146491128Y-102382143D01*
X146585377Y-102273373D01*
X146645165Y-102142457D01*
X146661706Y-102027409D01*
X146665647Y-102000002D01*
X146665647Y-101999997D01*
X146645165Y-101857543D01*
X146585377Y-101726628D01*
X146585377Y-101726627D01*
X146491128Y-101617857D01*
X146491127Y-101617856D01*
X146491126Y-101617855D01*
X146370057Y-101540049D01*
X146370054Y-101540047D01*
X146370053Y-101540047D01*
X146370050Y-101540046D01*
X146231964Y-101499500D01*
X146231961Y-101499500D01*
X146125479Y-101499500D01*
X146067288Y-101480593D01*
X146055475Y-101470504D01*
X145117823Y-100532852D01*
X145090046Y-100478335D01*
X145088827Y-100462848D01*
X145088827Y-99202947D01*
X145107734Y-99144756D01*
X145157234Y-99108792D01*
X145218420Y-99108792D01*
X145233878Y-99115310D01*
X145337201Y-99169614D01*
X145337205Y-99169615D01*
X145337206Y-99169616D01*
X145511540Y-99223901D01*
X145511550Y-99223904D01*
X145692846Y-99245736D01*
X145875098Y-99234387D01*
X146052285Y-99190234D01*
X146218552Y-99114735D01*
X146368405Y-99010384D01*
X146496891Y-98880631D01*
X146507214Y-98865531D01*
X146508033Y-98864487D01*
X146511284Y-98859719D01*
X146511286Y-98859718D01*
X146535610Y-98824048D01*
X146567900Y-98794090D01*
X147745921Y-98113958D01*
X147787875Y-98100984D01*
X147791330Y-98100721D01*
X147791465Y-98100753D01*
X147791462Y-98100711D01*
X147791463Y-98100711D01*
X147831043Y-98097744D01*
X147831045Y-98097743D01*
X147836968Y-98097299D01*
X147837864Y-98097172D01*
X147856393Y-98095759D01*
X147856395Y-98095758D01*
X147856400Y-98095758D01*
X148033010Y-98049358D01*
X148198303Y-97971753D01*
X148346817Y-97865508D01*
X148473644Y-97734134D01*
X148574594Y-97581972D01*
X148646331Y-97414049D01*
X148686485Y-97235915D01*
X148693729Y-97053454D01*
X148667823Y-96872697D01*
X148609624Y-96699616D01*
X148609511Y-96699413D01*
X148587603Y-96659913D01*
X148521054Y-96539930D01*
X148405041Y-96398915D01*
X148265417Y-96281231D01*
X148249502Y-96272128D01*
X148248377Y-96271383D01*
X148209596Y-96249264D01*
X148172906Y-96212764D01*
X148164243Y-96197758D01*
X148153445Y-96179052D01*
X148153444Y-96179051D01*
X148150226Y-96173476D01*
X148150190Y-96173424D01*
X147564146Y-95158366D01*
X147551426Y-95098522D01*
X147576313Y-95042626D01*
X147629301Y-95012033D01*
X147690151Y-95018429D01*
X147719888Y-95038866D01*
X149830504Y-97149482D01*
X149858281Y-97203999D01*
X149859500Y-97219486D01*
X149859500Y-98634520D01*
X149840593Y-98692711D01*
X149830504Y-98704524D01*
X148664524Y-99870504D01*
X148610007Y-99898281D01*
X148594520Y-99899500D01*
X148488035Y-99899500D01*
X148349949Y-99940046D01*
X148349942Y-99940049D01*
X148228873Y-100017855D01*
X148134622Y-100126628D01*
X148074834Y-100257543D01*
X148054353Y-100399997D01*
X148054353Y-100400002D01*
X148074834Y-100542456D01*
X148132119Y-100667891D01*
X148134623Y-100673373D01*
X148196095Y-100744316D01*
X148228873Y-100782144D01*
X148276634Y-100812838D01*
X148349947Y-100859953D01*
X148456403Y-100891211D01*
X148488035Y-100900499D01*
X148488036Y-100900499D01*
X148488039Y-100900500D01*
X148488041Y-100900500D01*
X148631959Y-100900500D01*
X148631961Y-100900500D01*
X148770053Y-100859953D01*
X148891128Y-100782143D01*
X148985377Y-100673373D01*
X149045165Y-100542457D01*
X149065647Y-100400000D01*
X149062558Y-100378517D01*
X149072990Y-100318228D01*
X149090543Y-100294426D01*
X150400460Y-98984511D01*
X150440022Y-98915988D01*
X150460500Y-98839562D01*
X150460500Y-98760438D01*
X150460500Y-97499997D01*
X151854353Y-97499997D01*
X151854353Y-97500002D01*
X151874834Y-97642456D01*
X151889321Y-97674177D01*
X151934623Y-97773373D01*
X151976396Y-97821582D01*
X152028873Y-97882144D01*
X152120589Y-97941086D01*
X152149947Y-97959953D01*
X152256403Y-97991211D01*
X152288035Y-98000499D01*
X152288036Y-98000499D01*
X152288039Y-98000500D01*
X152288041Y-98000500D01*
X152431959Y-98000500D01*
X152431961Y-98000500D01*
X152570053Y-97959953D01*
X152691128Y-97882143D01*
X152785377Y-97773373D01*
X152845165Y-97642457D01*
X152857488Y-97556746D01*
X152865647Y-97500002D01*
X152865647Y-97500000D01*
X152862558Y-97478518D01*
X152872990Y-97418228D01*
X152890543Y-97394426D01*
X153311124Y-96973845D01*
X157556199Y-96973845D01*
X157556199Y-96973849D01*
X157557411Y-96992336D01*
X157561417Y-97053440D01*
X157596695Y-97124979D01*
X157596696Y-97124980D01*
X157596697Y-97124982D01*
X157641522Y-97164292D01*
X157641523Y-97164292D01*
X157641526Y-97164295D01*
X159147974Y-98034043D01*
X159147977Y-98034044D01*
X159147979Y-98034045D01*
X159175376Y-98043344D01*
X159204438Y-98053210D01*
X159284031Y-98047992D01*
X159355570Y-98012714D01*
X159366282Y-98000500D01*
X159375228Y-97990298D01*
X159394886Y-97967883D01*
X160264634Y-96461435D01*
X160283801Y-96404971D01*
X160278583Y-96325378D01*
X160243305Y-96253839D01*
X160243303Y-96253837D01*
X160243302Y-96253835D01*
X160198477Y-96214525D01*
X160169436Y-96197758D01*
X158692026Y-95344775D01*
X158692024Y-95344774D01*
X158692020Y-95344772D01*
X158635563Y-95325608D01*
X158635559Y-95325608D01*
X158575867Y-95329521D01*
X158555969Y-95330826D01*
X158555968Y-95330826D01*
X158484428Y-95366105D01*
X158484426Y-95366106D01*
X158445116Y-95410931D01*
X157575363Y-96917388D01*
X157556199Y-96973845D01*
X153311124Y-96973845D01*
X154800460Y-95484511D01*
X154804365Y-95477746D01*
X154804369Y-95477743D01*
X154804368Y-95477742D01*
X154805988Y-95474936D01*
X154840021Y-95415989D01*
X154860500Y-95339562D01*
X154860500Y-93828108D01*
X154879407Y-93769917D01*
X154928907Y-93733953D01*
X154990093Y-93733953D01*
X155030724Y-93759347D01*
X155083965Y-93814498D01*
X155083967Y-93814500D01*
X155165473Y-93872811D01*
X155232468Y-93920741D01*
X155397750Y-93998347D01*
X155397754Y-93998348D01*
X155397759Y-93998350D01*
X155474589Y-94018539D01*
X155574349Y-94044754D01*
X155592597Y-94046146D01*
X155594134Y-94046365D01*
X155619373Y-94048255D01*
X155642740Y-94050006D01*
X155684841Y-94062992D01*
X155694741Y-94068707D01*
X156862793Y-94743084D01*
X156895010Y-94772933D01*
X156910030Y-94794895D01*
X156910029Y-94794895D01*
X156910080Y-94794967D01*
X156919475Y-94808745D01*
X156919476Y-94808746D01*
X156922877Y-94813733D01*
X156923171Y-94814109D01*
X156933869Y-94829751D01*
X157062365Y-94959482D01*
X157212221Y-95063810D01*
X157378485Y-95139290D01*
X157555666Y-95183428D01*
X157725821Y-95194012D01*
X157737909Y-95194764D01*
X157737909Y-95194763D01*
X157737910Y-95194764D01*
X157919195Y-95172925D01*
X158093533Y-95118633D01*
X158255163Y-95033680D01*
X158398745Y-94920874D01*
X158519537Y-94783942D01*
X158613548Y-94627406D01*
X158677670Y-94456440D01*
X158709787Y-94276691D01*
X158709714Y-94258401D01*
X158709798Y-94257024D01*
X158709768Y-94251291D01*
X158709769Y-94251288D01*
X158709565Y-94212324D01*
X158722831Y-94162304D01*
X158742296Y-94128596D01*
X158742296Y-94128595D01*
X158746151Y-94121920D01*
X158746175Y-94121868D01*
X159465854Y-92875345D01*
X159465864Y-92875332D01*
X159470868Y-92866662D01*
X159470870Y-92866662D01*
X159490336Y-92832942D01*
X159527029Y-92796443D01*
X159560830Y-92777168D01*
X159560833Y-92777164D01*
X159565341Y-92774594D01*
X159567315Y-92773287D01*
X159582839Y-92764408D01*
X159722445Y-92646728D01*
X159722448Y-92646724D01*
X159725891Y-92643822D01*
X159727240Y-92645423D01*
X159774407Y-92621022D01*
X159834898Y-92630219D01*
X159878429Y-92673214D01*
X159889500Y-92718705D01*
X159889500Y-93409665D01*
X159870593Y-93467856D01*
X159821093Y-93503820D01*
X159819241Y-93504401D01*
X159786054Y-93514469D01*
X159786041Y-93514474D01*
X159603547Y-93612020D01*
X159443595Y-93743289D01*
X159443585Y-93743299D01*
X159312316Y-93903251D01*
X159214768Y-94085749D01*
X159154699Y-94283769D01*
X159154698Y-94283774D01*
X159134417Y-94489700D01*
X159134417Y-94489707D01*
X159154698Y-94695633D01*
X159154699Y-94695638D01*
X159214768Y-94893658D01*
X159312316Y-95076156D01*
X159417527Y-95204356D01*
X159443590Y-95236114D01*
X159443595Y-95236118D01*
X159603547Y-95367387D01*
X159603548Y-95367387D01*
X159603550Y-95367389D01*
X159786046Y-95464936D01*
X159916555Y-95504525D01*
X159984065Y-95525004D01*
X159984070Y-95525005D01*
X160189997Y-95545287D01*
X160190000Y-95545287D01*
X160190003Y-95545287D01*
X160395929Y-95525005D01*
X160395934Y-95525004D01*
X160429750Y-95514746D01*
X160593954Y-95464936D01*
X160776450Y-95367389D01*
X160936410Y-95236114D01*
X161067685Y-95076154D01*
X161165232Y-94893658D01*
X161225300Y-94695638D01*
X161225301Y-94695633D01*
X161245583Y-94489707D01*
X161245583Y-94489700D01*
X161225301Y-94283774D01*
X161225300Y-94283769D01*
X161203629Y-94212328D01*
X161165232Y-94085750D01*
X161067685Y-93903254D01*
X161054832Y-93887593D01*
X160944622Y-93753300D01*
X160936410Y-93743294D01*
X160911360Y-93722736D01*
X160776452Y-93612020D01*
X160593958Y-93514474D01*
X160593957Y-93514473D01*
X160593954Y-93514472D01*
X160593948Y-93514470D01*
X160593945Y-93514469D01*
X160560759Y-93504401D01*
X160510563Y-93469415D01*
X160490519Y-93411606D01*
X160490500Y-93409665D01*
X160490500Y-93041260D01*
X160509407Y-92983069D01*
X160558907Y-92947105D01*
X160620093Y-92947105D01*
X160666027Y-92978454D01*
X160713590Y-93036410D01*
X160713595Y-93036414D01*
X160873547Y-93167683D01*
X160873548Y-93167683D01*
X160873550Y-93167685D01*
X161056046Y-93265232D01*
X161161290Y-93297157D01*
X161254065Y-93325300D01*
X161254070Y-93325301D01*
X161459997Y-93345583D01*
X161460000Y-93345583D01*
X161460003Y-93345583D01*
X161665929Y-93325301D01*
X161665934Y-93325300D01*
X161863954Y-93265232D01*
X162046450Y-93167685D01*
X162206410Y-93036410D01*
X162337685Y-92876450D01*
X162435232Y-92693954D01*
X162495300Y-92495934D01*
X162495301Y-92495929D01*
X162515583Y-92290003D01*
X162515583Y-92289996D01*
X162495301Y-92084070D01*
X162495300Y-92084065D01*
X162465596Y-91986145D01*
X162435232Y-91886046D01*
X162337685Y-91703550D01*
X162322155Y-91684627D01*
X162206414Y-91543595D01*
X162206410Y-91543590D01*
X162184226Y-91525384D01*
X162046452Y-91412316D01*
X161863958Y-91314770D01*
X161863957Y-91314769D01*
X161863954Y-91314768D01*
X161863948Y-91314766D01*
X161863945Y-91314765D01*
X161830759Y-91304697D01*
X161780563Y-91269711D01*
X161760519Y-91211902D01*
X161760500Y-91209961D01*
X161760500Y-91048358D01*
X161760500Y-91048357D01*
X161754266Y-91025092D01*
X161751985Y-91016577D01*
X161751985Y-91016576D01*
X161740022Y-90971931D01*
X161740020Y-90971927D01*
X161700463Y-90903412D01*
X161700462Y-90903411D01*
X161700461Y-90903410D01*
X161700460Y-90903408D01*
X160189496Y-89392444D01*
X160161719Y-89337927D01*
X160160500Y-89322440D01*
X160160500Y-73303893D01*
X160179407Y-73245702D01*
X160186741Y-73237711D01*
X160186491Y-73237494D01*
X160191128Y-73232143D01*
X160285377Y-73123373D01*
X160345165Y-72992457D01*
X160355055Y-72923668D01*
X160365647Y-72850002D01*
X160365647Y-72849997D01*
X160359701Y-72808643D01*
X160370134Y-72748354D01*
X160414012Y-72705712D01*
X160474574Y-72697004D01*
X160528689Y-72725557D01*
X160532512Y-72729723D01*
X160582571Y-72787494D01*
X160580533Y-72789259D01*
X160605987Y-72831458D01*
X160608562Y-72853893D01*
X160608562Y-88308921D01*
X160629040Y-88385344D01*
X160662335Y-88443013D01*
X160662336Y-88443015D01*
X160668599Y-88453864D01*
X160668600Y-88453865D01*
X160668602Y-88453868D01*
X161232589Y-89017855D01*
X161753812Y-89539078D01*
X161781589Y-89593595D01*
X161772018Y-89654027D01*
X161771120Y-89655748D01*
X161754769Y-89686339D01*
X161754766Y-89686347D01*
X161694699Y-89884360D01*
X161694698Y-89884365D01*
X161674417Y-90090291D01*
X161674417Y-90090298D01*
X161694698Y-90296224D01*
X161694699Y-90296229D01*
X161754768Y-90494249D01*
X161852316Y-90676747D01*
X161972628Y-90823348D01*
X161983590Y-90836705D01*
X161983595Y-90836709D01*
X162143547Y-90967978D01*
X162143548Y-90967978D01*
X162143550Y-90967980D01*
X162326046Y-91065527D01*
X162463997Y-91107373D01*
X162524065Y-91125595D01*
X162524070Y-91125596D01*
X162729997Y-91145878D01*
X162730000Y-91145878D01*
X162730003Y-91145878D01*
X162935929Y-91125596D01*
X162935934Y-91125595D01*
X163133954Y-91065527D01*
X163316450Y-90967980D01*
X163476410Y-90836705D01*
X163607685Y-90676745D01*
X163705232Y-90494249D01*
X163765300Y-90296229D01*
X163765301Y-90296224D01*
X163785583Y-90090298D01*
X163785583Y-90090291D01*
X163765301Y-89884365D01*
X163765300Y-89884360D01*
X163743131Y-89811279D01*
X163705232Y-89686341D01*
X163607685Y-89503845D01*
X163533833Y-89413856D01*
X163484622Y-89353891D01*
X163476410Y-89343885D01*
X163373188Y-89259173D01*
X163316452Y-89212611D01*
X163133954Y-89115063D01*
X162935934Y-89054994D01*
X162935929Y-89054993D01*
X162730003Y-89034712D01*
X162729997Y-89034712D01*
X162524070Y-89054993D01*
X162524065Y-89054994D01*
X162326052Y-89115061D01*
X162326049Y-89115061D01*
X162326046Y-89115063D01*
X162326044Y-89115063D01*
X162326044Y-89115064D01*
X162295453Y-89131415D01*
X162235220Y-89142169D01*
X162180169Y-89115466D01*
X162178783Y-89114107D01*
X161238558Y-88173882D01*
X161210781Y-88119365D01*
X161209562Y-88103878D01*
X161209562Y-87890586D01*
X162944919Y-87890586D01*
X162944919Y-87890595D01*
X162965190Y-88096421D01*
X162965191Y-88096427D01*
X163025232Y-88294353D01*
X163025234Y-88294358D01*
X163122724Y-88476751D01*
X163122731Y-88476761D01*
X163253942Y-88636643D01*
X163389543Y-88747928D01*
X163389544Y-88747928D01*
X163771501Y-88086357D01*
X163815795Y-88130651D01*
X163884204Y-88170147D01*
X163944707Y-88186358D01*
X163562957Y-88847569D01*
X163562957Y-88847570D01*
X163596232Y-88865356D01*
X163596237Y-88865358D01*
X163794163Y-88925399D01*
X163794169Y-88925400D01*
X163999996Y-88945672D01*
X164000004Y-88945672D01*
X164205830Y-88925400D01*
X164205836Y-88925399D01*
X164403762Y-88865358D01*
X164403767Y-88865356D01*
X164586160Y-88767866D01*
X164586170Y-88767859D01*
X164746050Y-88636649D01*
X164746059Y-88636640D01*
X164857337Y-88501046D01*
X164857337Y-88501045D01*
X164195768Y-88119087D01*
X164240060Y-88074796D01*
X164279556Y-88006387D01*
X164295767Y-87945882D01*
X164956978Y-88327633D01*
X164974768Y-88294352D01*
X165034808Y-88096427D01*
X165034809Y-88096421D01*
X165055081Y-87890595D01*
X165055081Y-87890586D01*
X165034809Y-87684760D01*
X165034808Y-87684754D01*
X164974767Y-87486828D01*
X164974765Y-87486823D01*
X164877275Y-87304430D01*
X164877268Y-87304420D01*
X164746057Y-87144538D01*
X164610455Y-87033252D01*
X164610454Y-87033252D01*
X164228496Y-87694822D01*
X164184205Y-87650531D01*
X164115796Y-87611035D01*
X164055289Y-87594822D01*
X164437041Y-86933611D01*
X164437041Y-86933610D01*
X164403771Y-86915827D01*
X164403754Y-86915821D01*
X164205836Y-86855782D01*
X164205830Y-86855781D01*
X164000004Y-86835510D01*
X163999996Y-86835510D01*
X163794169Y-86855781D01*
X163794163Y-86855782D01*
X163596237Y-86915823D01*
X163596232Y-86915825D01*
X163413839Y-87013315D01*
X163413829Y-87013322D01*
X163253947Y-87144533D01*
X163142661Y-87280134D01*
X163142661Y-87280135D01*
X163804232Y-87662093D01*
X163759940Y-87706386D01*
X163720444Y-87774795D01*
X163704232Y-87835299D01*
X163043021Y-87453547D01*
X163043020Y-87453547D01*
X163025234Y-87486823D01*
X163025231Y-87486832D01*
X162965191Y-87684754D01*
X162965190Y-87684760D01*
X162944919Y-87890586D01*
X161209562Y-87890586D01*
X161209562Y-72853893D01*
X161228469Y-72795702D01*
X161235803Y-72787711D01*
X161235553Y-72787494D01*
X161240190Y-72782143D01*
X161334439Y-72673373D01*
X161394227Y-72542457D01*
X161414709Y-72400000D01*
X161413278Y-72390049D01*
X161394227Y-72257543D01*
X161334439Y-72126628D01*
X161334439Y-72126627D01*
X161240190Y-72017857D01*
X161240189Y-72017856D01*
X161240188Y-72017855D01*
X161119119Y-71940049D01*
X161119116Y-71940047D01*
X161119115Y-71940047D01*
X161119112Y-71940046D01*
X160981026Y-71899500D01*
X160981023Y-71899500D01*
X160837101Y-71899500D01*
X160837097Y-71899500D01*
X160699011Y-71940046D01*
X160699004Y-71940049D01*
X160577935Y-72017855D01*
X160483684Y-72126628D01*
X160423896Y-72257543D01*
X160403415Y-72399997D01*
X160403415Y-72400000D01*
X160407653Y-72429480D01*
X160409361Y-72441357D01*
X160398926Y-72501646D01*
X160355048Y-72544288D01*
X160294485Y-72552995D01*
X160240371Y-72524441D01*
X160236548Y-72520275D01*
X160231391Y-72514324D01*
X160191128Y-72467857D01*
X160191127Y-72467856D01*
X160070057Y-72390049D01*
X160070054Y-72390047D01*
X160070053Y-72390047D01*
X160070050Y-72390046D01*
X159931964Y-72349500D01*
X159931961Y-72349500D01*
X159788039Y-72349500D01*
X159788035Y-72349500D01*
X159649949Y-72390046D01*
X159649942Y-72390049D01*
X159528873Y-72467855D01*
X159434622Y-72576628D01*
X159374834Y-72707543D01*
X159365937Y-72769422D01*
X159338941Y-72824329D01*
X159284826Y-72852882D01*
X159224263Y-72844174D01*
X159193124Y-72820160D01*
X159191128Y-72817857D01*
X159191127Y-72817856D01*
X159191126Y-72817855D01*
X159070057Y-72740049D01*
X159070054Y-72740047D01*
X159070053Y-72740047D01*
X159070050Y-72740046D01*
X158931964Y-72699500D01*
X158931961Y-72699500D01*
X158788039Y-72699500D01*
X158788035Y-72699500D01*
X158649949Y-72740046D01*
X158649942Y-72740049D01*
X158528873Y-72817855D01*
X158434622Y-72926628D01*
X158374834Y-73057543D01*
X158354353Y-73199997D01*
X158354353Y-73200002D01*
X158374834Y-73342456D01*
X158434623Y-73473373D01*
X158533509Y-73587494D01*
X158531471Y-73589259D01*
X158556925Y-73631458D01*
X158559500Y-73653893D01*
X158559500Y-90257423D01*
X158579977Y-90333844D01*
X158579979Y-90333848D01*
X158618626Y-90400789D01*
X158619535Y-90402363D01*
X158619537Y-90402366D01*
X158619538Y-90402367D01*
X158619540Y-90402370D01*
X158734059Y-90516889D01*
X158761835Y-90571404D01*
X158752264Y-90631836D01*
X158708999Y-90675101D01*
X158648567Y-90684672D01*
X158614554Y-90672628D01*
X157928346Y-90276447D01*
X157928181Y-90276337D01*
X157885455Y-90251678D01*
X157853221Y-90221816D01*
X157850849Y-90218348D01*
X157830096Y-90187997D01*
X157830056Y-90187863D01*
X157830021Y-90187888D01*
X157828740Y-90186009D01*
X157828739Y-90186008D01*
X157825427Y-90181150D01*
X157825321Y-90181014D01*
X157814376Y-90165007D01*
X157685880Y-90035260D01*
X157685879Y-90035259D01*
X157536020Y-89930916D01*
X157405695Y-89871745D01*
X157369742Y-89855422D01*
X157192559Y-89811279D01*
X157010302Y-89799938D01*
X157010294Y-89799939D01*
X156829012Y-89821776D01*
X156828997Y-89821779D01*
X156654661Y-89876073D01*
X156654659Y-89876074D01*
X156493024Y-89961031D01*
X156349430Y-90073853D01*
X156228638Y-90210796D01*
X156134632Y-90367342D01*
X156134629Y-90367348D01*
X156070517Y-90538318D01*
X156070515Y-90538327D01*
X156038408Y-90718089D01*
X156038482Y-90736484D01*
X156038397Y-90737902D01*
X156038633Y-90782421D01*
X156025370Y-90832445D01*
X155280049Y-92123376D01*
X155280011Y-92123435D01*
X155257860Y-92161806D01*
X155221180Y-92198300D01*
X155182318Y-92220471D01*
X155181473Y-92221028D01*
X155165314Y-92230274D01*
X155023309Y-92349983D01*
X154966631Y-92373033D01*
X154907229Y-92358366D01*
X154867793Y-92311585D01*
X154860500Y-92274290D01*
X154860500Y-87753893D01*
X154879407Y-87695702D01*
X154886741Y-87687711D01*
X154886491Y-87687494D01*
X154917849Y-87651305D01*
X154985377Y-87573373D01*
X155045165Y-87442457D01*
X155065647Y-87300000D01*
X155063349Y-87284020D01*
X155045165Y-87157543D01*
X155011052Y-87082847D01*
X154985377Y-87026627D01*
X154891128Y-86917857D01*
X154891127Y-86917856D01*
X154891126Y-86917855D01*
X154770057Y-86840049D01*
X154770054Y-86840047D01*
X154770053Y-86840047D01*
X154770050Y-86840046D01*
X154631964Y-86799500D01*
X154631961Y-86799500D01*
X154488039Y-86799500D01*
X154488035Y-86799500D01*
X154349949Y-86840046D01*
X154349942Y-86840049D01*
X154228873Y-86917855D01*
X154134622Y-87026628D01*
X154074834Y-87157543D01*
X154054353Y-87299997D01*
X154054353Y-87300002D01*
X154074834Y-87442456D01*
X154117810Y-87536559D01*
X154134623Y-87573373D01*
X154201480Y-87650531D01*
X154233509Y-87687494D01*
X154231471Y-87689259D01*
X154256925Y-87731458D01*
X154259500Y-87753893D01*
X154259500Y-95134520D01*
X154240593Y-95192711D01*
X154230504Y-95204524D01*
X152464524Y-96970504D01*
X152410007Y-96998281D01*
X152394520Y-96999500D01*
X152288035Y-96999500D01*
X152149949Y-97040046D01*
X152149942Y-97040049D01*
X152028873Y-97117855D01*
X151934622Y-97226628D01*
X151874834Y-97357543D01*
X151854353Y-97499997D01*
X150460500Y-97499997D01*
X150460500Y-97014445D01*
X150440021Y-96938018D01*
X150428110Y-96917388D01*
X150400460Y-96869496D01*
X150344511Y-96813546D01*
X150344511Y-96813547D01*
X147689496Y-94158532D01*
X147661719Y-94104015D01*
X147660500Y-94088528D01*
X147660500Y-93068220D01*
X148572490Y-93068220D01*
X148572491Y-93068223D01*
X148598388Y-93248963D01*
X148598390Y-93248971D01*
X148634236Y-93355583D01*
X148656581Y-93422043D01*
X148689911Y-93482141D01*
X148733064Y-93559951D01*
X148745140Y-93581724D01*
X148861141Y-93722737D01*
X149000753Y-93840422D01*
X149016664Y-93849524D01*
X149017728Y-93850228D01*
X149056594Y-93872401D01*
X149093275Y-93908896D01*
X149112733Y-93942603D01*
X149112734Y-93942604D01*
X149115957Y-93948187D01*
X149115991Y-93948238D01*
X149315487Y-94293775D01*
X149838491Y-95199646D01*
X149838533Y-95199728D01*
X149841331Y-95204574D01*
X149841333Y-95204579D01*
X149860790Y-95238273D01*
X149874056Y-95288284D01*
X149873829Y-95332681D01*
X149873949Y-95334648D01*
X149873876Y-95352614D01*
X149905982Y-95532366D01*
X149905983Y-95532369D01*
X149946180Y-95639562D01*
X149970095Y-95703334D01*
X150064099Y-95859872D01*
X150104469Y-95905639D01*
X150184885Y-95996807D01*
X150328458Y-96109610D01*
X150328463Y-96109614D01*
X150328465Y-96109615D01*
X150490094Y-96194568D01*
X150664430Y-96248859D01*
X150845706Y-96270694D01*
X150845713Y-96270695D01*
X150845713Y-96270694D01*
X150845714Y-96270695D01*
X151027956Y-96259353D01*
X151205134Y-96215209D01*
X151371394Y-96139722D01*
X151521242Y-96035385D01*
X151649727Y-95905646D01*
X151660033Y-95890572D01*
X151660849Y-95889532D01*
X151664116Y-95884741D01*
X151664118Y-95884740D01*
X151688462Y-95849046D01*
X151720753Y-95819090D01*
X151758131Y-95797515D01*
X151758132Y-95797513D01*
X151764741Y-95793699D01*
X151764789Y-95793665D01*
X152898733Y-95138982D01*
X152940685Y-95126008D01*
X152961415Y-95124425D01*
X152961552Y-95124458D01*
X152961549Y-95124415D01*
X152975127Y-95123395D01*
X152983942Y-95122734D01*
X152983942Y-95122733D01*
X152990188Y-95122265D01*
X152990747Y-95122184D01*
X153009300Y-95120768D01*
X153185897Y-95074354D01*
X153185900Y-95074352D01*
X153185902Y-95074352D01*
X153272512Y-95033680D01*
X153351176Y-94996740D01*
X153499676Y-94890492D01*
X153626490Y-94759118D01*
X153727430Y-94606960D01*
X153799160Y-94439044D01*
X153839311Y-94260918D01*
X153845394Y-94107713D01*
X153846555Y-94078469D01*
X153845127Y-94068505D01*
X153827887Y-93948187D01*
X153820656Y-93897722D01*
X153820655Y-93897718D01*
X153817251Y-93887593D01*
X153762464Y-93724644D01*
X153700005Y-93612020D01*
X153673911Y-93564968D01*
X153673910Y-93564967D01*
X153673907Y-93564961D01*
X153557908Y-93423946D01*
X153557907Y-93423945D01*
X153557905Y-93423943D01*
X153418300Y-93306258D01*
X153418301Y-93306258D01*
X153402392Y-93297157D01*
X153401275Y-93296417D01*
X153396302Y-93293580D01*
X153362443Y-93274264D01*
X153325761Y-93237767D01*
X153303096Y-93198503D01*
X153303040Y-93198419D01*
X152581503Y-91948683D01*
X152581464Y-91948601D01*
X152558298Y-91908486D01*
X152545030Y-91858583D01*
X152545287Y-91794020D01*
X152545286Y-91794019D01*
X152545287Y-91794016D01*
X152513169Y-91614259D01*
X152513168Y-91614256D01*
X152513167Y-91614252D01*
X152473425Y-91508294D01*
X152449043Y-91443286D01*
X152355026Y-91286745D01*
X152355025Y-91286744D01*
X152355024Y-91286742D01*
X152234229Y-91149810D01*
X152090635Y-91037003D01*
X152090633Y-91037002D01*
X151929000Y-90952055D01*
X151916228Y-90948078D01*
X151754647Y-90897765D01*
X151754644Y-90897764D01*
X151754643Y-90897764D01*
X151573354Y-90875935D01*
X151573353Y-90875935D01*
X151391103Y-90887283D01*
X151391099Y-90887283D01*
X151391098Y-90887284D01*
X151213920Y-90931434D01*
X151213918Y-90931434D01*
X151213917Y-90931435D01*
X151174275Y-90949435D01*
X151047652Y-91006929D01*
X150897799Y-91111274D01*
X150769306Y-91241026D01*
X150769303Y-91241028D01*
X150758900Y-91256242D01*
X150757857Y-91257575D01*
X150730586Y-91297589D01*
X150698257Y-91327583D01*
X150655751Y-91352107D01*
X150655458Y-91352302D01*
X149562820Y-91983137D01*
X149562703Y-91983196D01*
X149520268Y-92007703D01*
X149478147Y-92020696D01*
X149429878Y-92024308D01*
X149427987Y-92024575D01*
X149423988Y-92024881D01*
X149409785Y-92025965D01*
X149409782Y-92025966D01*
X149233191Y-92072363D01*
X149233186Y-92072365D01*
X149067902Y-92149968D01*
X149067901Y-92149968D01*
X148919398Y-92256206D01*
X148919387Y-92256215D01*
X148792574Y-92387575D01*
X148792573Y-92387577D01*
X148691634Y-92539718D01*
X148691626Y-92539733D01*
X148619892Y-92707643D01*
X148619891Y-92707649D01*
X148579739Y-92885758D01*
X148579737Y-92885770D01*
X148572490Y-93068220D01*
X147660500Y-93068220D01*
X147660500Y-89853893D01*
X147679407Y-89795702D01*
X147686741Y-89787711D01*
X147686491Y-89787494D01*
X147691128Y-89782143D01*
X147785377Y-89673373D01*
X147845165Y-89542457D01*
X147865647Y-89400000D01*
X147862847Y-89380528D01*
X147845165Y-89257543D01*
X147829212Y-89222611D01*
X147785377Y-89126627D01*
X147691128Y-89017857D01*
X147691127Y-89017856D01*
X147691126Y-89017855D01*
X147570057Y-88940049D01*
X147570054Y-88940047D01*
X147570053Y-88940047D01*
X147570050Y-88940046D01*
X147431964Y-88899500D01*
X147431961Y-88899500D01*
X147288039Y-88899500D01*
X147288035Y-88899500D01*
X147149949Y-88940046D01*
X147149942Y-88940049D01*
X147028873Y-89017855D01*
X146934622Y-89126628D01*
X146874834Y-89257543D01*
X146854353Y-89399997D01*
X146854353Y-89400002D01*
X146874834Y-89542456D01*
X146918944Y-89639042D01*
X146934623Y-89673373D01*
X147008450Y-89758575D01*
X147033509Y-89787494D01*
X147031471Y-89789259D01*
X147056925Y-89831458D01*
X147059500Y-89853893D01*
X147059500Y-93912174D01*
X147040593Y-93970365D01*
X146991093Y-94006329D01*
X146929907Y-94006329D01*
X146914442Y-93999807D01*
X146776106Y-93927100D01*
X146776100Y-93927097D01*
X146601765Y-93872810D01*
X146436201Y-93852869D01*
X146420485Y-93850976D01*
X146420484Y-93850976D01*
X146238248Y-93862316D01*
X146061067Y-93906459D01*
X145894813Y-93981940D01*
X145894807Y-93981944D01*
X145744962Y-94086272D01*
X145616469Y-94216012D01*
X145606090Y-94231190D01*
X145604968Y-94232624D01*
X145577734Y-94272590D01*
X145545403Y-94302588D01*
X145502889Y-94327119D01*
X145502660Y-94327272D01*
X144410008Y-94958114D01*
X144409792Y-94958222D01*
X144367413Y-94982701D01*
X144325294Y-94995697D01*
X144276826Y-94999328D01*
X144275230Y-94999554D01*
X144256892Y-95000955D01*
X144256883Y-95000957D01*
X144080302Y-95047369D01*
X144080294Y-95047371D01*
X143915030Y-95124979D01*
X143766537Y-95231223D01*
X143639731Y-95362587D01*
X143639726Y-95362593D01*
X143538798Y-95514731D01*
X143538791Y-95514746D01*
X143467066Y-95682642D01*
X143467065Y-95682644D01*
X143467064Y-95682648D01*
X143455302Y-95734826D01*
X143426912Y-95860765D01*
X143419663Y-96043207D01*
X143419664Y-96043210D01*
X143445558Y-96223942D01*
X143445560Y-96223953D01*
X143503737Y-96397009D01*
X143503742Y-96397019D01*
X143569280Y-96515204D01*
X143592287Y-96556693D01*
X143708274Y-96697706D01*
X143847869Y-96815395D01*
X143863783Y-96824500D01*
X143864984Y-96825295D01*
X143869904Y-96828102D01*
X143869907Y-96828104D01*
X143903741Y-96847403D01*
X143940425Y-96883898D01*
X143963128Y-96923223D01*
X143963143Y-96923248D01*
X144481797Y-97821582D01*
X144494519Y-97881430D01*
X144469632Y-97937326D01*
X144416644Y-97967919D01*
X144355794Y-97961523D01*
X144326057Y-97941086D01*
X141889496Y-95504525D01*
X141861719Y-95450008D01*
X141860500Y-95434521D01*
X141860500Y-94153893D01*
X141879407Y-94095702D01*
X141886741Y-94087711D01*
X141886491Y-94087494D01*
X141891128Y-94082143D01*
X141985377Y-93973373D01*
X142045165Y-93842457D01*
X142055595Y-93769917D01*
X142065647Y-93700002D01*
X142065647Y-93699997D01*
X142045165Y-93557543D01*
X142025495Y-93514472D01*
X141985377Y-93426627D01*
X141891128Y-93317857D01*
X141891127Y-93317856D01*
X141891126Y-93317855D01*
X141770057Y-93240049D01*
X141770054Y-93240047D01*
X141770053Y-93240047D01*
X141762288Y-93237767D01*
X141631964Y-93199500D01*
X141631961Y-93199500D01*
X141488039Y-93199500D01*
X141488035Y-93199500D01*
X141349949Y-93240046D01*
X141349942Y-93240049D01*
X141228873Y-93317855D01*
X141134622Y-93426628D01*
X141074834Y-93557543D01*
X141054353Y-93699997D01*
X134410500Y-93699997D01*
X134410500Y-75513513D01*
X134429407Y-75455322D01*
X134436741Y-75447331D01*
X134436491Y-75447114D01*
X134442615Y-75440047D01*
X134535377Y-75332993D01*
X134595165Y-75202077D01*
X134609609Y-75101618D01*
X134615647Y-75059622D01*
X134615647Y-75059617D01*
X134595165Y-74917163D01*
X134583882Y-74892457D01*
X134535377Y-74786247D01*
X134441128Y-74677477D01*
X134441127Y-74677476D01*
X134441126Y-74677475D01*
X134320057Y-74599669D01*
X134320054Y-74599667D01*
X134320053Y-74599667D01*
X134320050Y-74599666D01*
X134181964Y-74559120D01*
X134181961Y-74559120D01*
X134038039Y-74559120D01*
X134038035Y-74559120D01*
X133899949Y-74599666D01*
X133899942Y-74599669D01*
X133778873Y-74677475D01*
X133684622Y-74786248D01*
X133624834Y-74917163D01*
X133604353Y-75059617D01*
X133604353Y-75059622D01*
X133624834Y-75202076D01*
X133666883Y-75294148D01*
X133684623Y-75332993D01*
X133777384Y-75440046D01*
X133783509Y-75447114D01*
X133781471Y-75448879D01*
X133806925Y-75491078D01*
X133809500Y-75513513D01*
X133809500Y-76849683D01*
X133790593Y-76907874D01*
X133741093Y-76943838D01*
X133679907Y-76943838D01*
X133670530Y-76940187D01*
X133531964Y-76899500D01*
X133531961Y-76899500D01*
X133407565Y-76899500D01*
X133349374Y-76880593D01*
X133313410Y-76831093D01*
X133309573Y-76786412D01*
X133315647Y-76744163D01*
X133315647Y-76744156D01*
X133295165Y-76601702D01*
X133265616Y-76537000D01*
X133235377Y-76470786D01*
X133141128Y-76362016D01*
X133141127Y-76362015D01*
X133141126Y-76362014D01*
X133020057Y-76284208D01*
X133020054Y-76284206D01*
X133020053Y-76284206D01*
X133020050Y-76284205D01*
X132881964Y-76243659D01*
X132881961Y-76243659D01*
X132738039Y-76243659D01*
X132738037Y-76243659D01*
X132738033Y-76243660D01*
X132733769Y-76244912D01*
X132672609Y-76243162D01*
X132624158Y-76205797D01*
X132607890Y-76164009D01*
X132595387Y-76077050D01*
X132586479Y-76057543D01*
X132535599Y-75946133D01*
X132441350Y-75837363D01*
X132441349Y-75837362D01*
X132441348Y-75837361D01*
X132320279Y-75759555D01*
X132320276Y-75759553D01*
X132320275Y-75759553D01*
X132320272Y-75759552D01*
X132182186Y-75719006D01*
X132182183Y-75719006D01*
X132038261Y-75719006D01*
X132038257Y-75719006D01*
X131900171Y-75759552D01*
X131900164Y-75759555D01*
X131779095Y-75837361D01*
X131684844Y-75946134D01*
X131625056Y-76077049D01*
X131604575Y-76219503D01*
X130962843Y-76219503D01*
X130965647Y-76200002D01*
X130965647Y-76199997D01*
X130945165Y-76057543D01*
X130938275Y-76042457D01*
X130885377Y-75926627D01*
X130791128Y-75817857D01*
X130791127Y-75817856D01*
X130791126Y-75817855D01*
X130670057Y-75740049D01*
X130670054Y-75740047D01*
X130670053Y-75740047D01*
X130669062Y-75739756D01*
X130531964Y-75699500D01*
X130531961Y-75699500D01*
X130388039Y-75699500D01*
X130388035Y-75699500D01*
X130249949Y-75740046D01*
X130249942Y-75740049D01*
X130128872Y-75817856D01*
X130128871Y-75817857D01*
X130120705Y-75827281D01*
X130068307Y-75858875D01*
X130007347Y-75853637D01*
X129961107Y-75813567D01*
X129947895Y-75776534D01*
X129945454Y-75759555D01*
X129945165Y-75757543D01*
X129885377Y-75626627D01*
X129791128Y-75517857D01*
X129791127Y-75517856D01*
X129791126Y-75517855D01*
X129670057Y-75440049D01*
X129670054Y-75440047D01*
X129670053Y-75440047D01*
X129670050Y-75440046D01*
X129531964Y-75399500D01*
X129531961Y-75399500D01*
X129388039Y-75399500D01*
X129388035Y-75399500D01*
X129249949Y-75440046D01*
X129249943Y-75440048D01*
X129207063Y-75467606D01*
X129147888Y-75483159D01*
X129090872Y-75460960D01*
X129057793Y-75409487D01*
X129055549Y-75370231D01*
X129065647Y-75300001D01*
X129065647Y-75299997D01*
X129045165Y-75157543D01*
X129033308Y-75131580D01*
X128985377Y-75026627D01*
X128891128Y-74917857D01*
X128891127Y-74917856D01*
X128891126Y-74917855D01*
X128770057Y-74840049D01*
X128770054Y-74840047D01*
X128770053Y-74840047D01*
X128770050Y-74840046D01*
X128631964Y-74799500D01*
X128631961Y-74799500D01*
X128488039Y-74799500D01*
X128488037Y-74799500D01*
X128488033Y-74799501D01*
X128478351Y-74802344D01*
X128417191Y-74800596D01*
X128368738Y-74763233D01*
X128352469Y-74721442D01*
X128336093Y-74607544D01*
X128332496Y-74599666D01*
X128276305Y-74476627D01*
X128182056Y-74367857D01*
X128182055Y-74367856D01*
X128182054Y-74367855D01*
X128060985Y-74290049D01*
X128060982Y-74290047D01*
X128060981Y-74290047D01*
X128060978Y-74290046D01*
X127922892Y-74249500D01*
X127922889Y-74249500D01*
X127778967Y-74249500D01*
X127778963Y-74249500D01*
X127640877Y-74290046D01*
X127640870Y-74290049D01*
X127519801Y-74367855D01*
X127425550Y-74476628D01*
X127365762Y-74607543D01*
X127345281Y-74749997D01*
X127345281Y-74750002D01*
X127355202Y-74819007D01*
X127344769Y-74879296D01*
X127300891Y-74921939D01*
X127240328Y-74930646D01*
X127229319Y-74928086D01*
X127131964Y-74899500D01*
X127131961Y-74899500D01*
X126988039Y-74899500D01*
X126988035Y-74899500D01*
X126849949Y-74940046D01*
X126849942Y-74940049D01*
X126728873Y-75017855D01*
X126634622Y-75126628D01*
X126574834Y-75257543D01*
X126554353Y-75399997D01*
X124621895Y-75399997D01*
X124520374Y-75306307D01*
X124520371Y-75306305D01*
X124520370Y-75306304D01*
X124365977Y-75208802D01*
X124196485Y-75140858D01*
X124196484Y-75140857D01*
X124196480Y-75140856D01*
X124017494Y-75104719D01*
X124017485Y-75104718D01*
X123834918Y-75101577D01*
X123654795Y-75131539D01*
X123654792Y-75131539D01*
X123654790Y-75131540D01*
X123654788Y-75131540D01*
X123654778Y-75131543D01*
X123483062Y-75193613D01*
X123467166Y-75202875D01*
X123466035Y-75203441D01*
X123427459Y-75225978D01*
X123377513Y-75239496D01*
X123338608Y-75239494D01*
X123338606Y-75239494D01*
X123332148Y-75239494D01*
X123332042Y-75239501D01*
X121888038Y-75239501D01*
X121887933Y-75239494D01*
X121842485Y-75239497D01*
X121792538Y-75225978D01*
X121754159Y-75203556D01*
X121752496Y-75202727D01*
X121742464Y-75196881D01*
X121736921Y-75193650D01*
X121736918Y-75193649D01*
X121565211Y-75131583D01*
X121565196Y-75131579D01*
X121385075Y-75101618D01*
X121202519Y-75104759D01*
X121202510Y-75104760D01*
X121023529Y-75140896D01*
X120854041Y-75208838D01*
X120699650Y-75306339D01*
X120565473Y-75430166D01*
X120565470Y-75430169D01*
X120455920Y-75576246D01*
X120374618Y-75739749D01*
X120374615Y-75739756D01*
X120324261Y-75915253D01*
X120324259Y-75915262D01*
X120306504Y-76096995D01*
X120321939Y-76278935D01*
X120370054Y-76455072D01*
X120370056Y-76455078D01*
X120377204Y-76469973D01*
X120378007Y-76471646D01*
X120378648Y-76473237D01*
X120399681Y-76516892D01*
X120409493Y-76559892D01*
X120409478Y-76609213D01*
X120409501Y-76609562D01*
X120409501Y-77870488D01*
X120409492Y-77870626D01*
X120409497Y-77920103D01*
X120399755Y-77962938D01*
X120395920Y-77970931D01*
X120395862Y-77971051D01*
X120378461Y-78007192D01*
X120378156Y-78007948D01*
X120370020Y-78024902D01*
X120370019Y-78024906D01*
X120321900Y-78201055D01*
X120309869Y-78342861D01*
X120306463Y-78383003D01*
X118360500Y-78383003D01*
X118360500Y-74853893D01*
X118379407Y-74795702D01*
X118386741Y-74787711D01*
X118386491Y-74787494D01*
X118418978Y-74750002D01*
X118485377Y-74673373D01*
X118545165Y-74542457D01*
X118565647Y-74400000D01*
X118561025Y-74367855D01*
X118545165Y-74257543D01*
X118485377Y-74126628D01*
X118485377Y-74126627D01*
X118391128Y-74017857D01*
X118391127Y-74017856D01*
X118391126Y-74017855D01*
X118270057Y-73940049D01*
X118270054Y-73940047D01*
X118270053Y-73940047D01*
X118264999Y-73938563D01*
X118131964Y-73899500D01*
X118131961Y-73899500D01*
X117988039Y-73899500D01*
X117988035Y-73899500D01*
X117849949Y-73940046D01*
X117849942Y-73940049D01*
X117728873Y-74017855D01*
X117634622Y-74126628D01*
X117574834Y-74257543D01*
X117554353Y-74399997D01*
X109230073Y-74399997D01*
X110558321Y-72099405D01*
X115164417Y-72099405D01*
X115164417Y-72099412D01*
X115184698Y-72305338D01*
X115184699Y-72305343D01*
X115244768Y-72503363D01*
X115342316Y-72685861D01*
X115455954Y-72824329D01*
X115473590Y-72845819D01*
X115473595Y-72845823D01*
X115633547Y-72977092D01*
X115633548Y-72977092D01*
X115633550Y-72977094D01*
X115816046Y-73074641D01*
X115953997Y-73116487D01*
X116014065Y-73134709D01*
X116014070Y-73134710D01*
X116219997Y-73154992D01*
X116220000Y-73154992D01*
X116220003Y-73154992D01*
X116425929Y-73134710D01*
X116425934Y-73134709D01*
X116463304Y-73123373D01*
X116623954Y-73074641D01*
X116806450Y-72977094D01*
X116966410Y-72845819D01*
X117097685Y-72685859D01*
X117195232Y-72503363D01*
X117255300Y-72305343D01*
X117255301Y-72305338D01*
X117275583Y-72099412D01*
X117275583Y-72099405D01*
X117255301Y-71893479D01*
X117255300Y-71893474D01*
X117233312Y-71820989D01*
X117195232Y-71695455D01*
X117097685Y-71512959D01*
X117097033Y-71512165D01*
X116966414Y-71353004D01*
X116966410Y-71352999D01*
X116963918Y-71350954D01*
X116806452Y-71221725D01*
X116623954Y-71124177D01*
X116425934Y-71064108D01*
X116425929Y-71064107D01*
X116220003Y-71043826D01*
X116219997Y-71043826D01*
X116014070Y-71064107D01*
X116014065Y-71064108D01*
X115816045Y-71124177D01*
X115633547Y-71221725D01*
X115473595Y-71352994D01*
X115473585Y-71353004D01*
X115342316Y-71512956D01*
X115244768Y-71695454D01*
X115184699Y-71893474D01*
X115184698Y-71893479D01*
X115164417Y-72099405D01*
X110558321Y-72099405D01*
X111828321Y-69899701D01*
X116434417Y-69899701D01*
X116434417Y-69899708D01*
X116454698Y-70105634D01*
X116454699Y-70105639D01*
X116514768Y-70303659D01*
X116612316Y-70486157D01*
X116658521Y-70542458D01*
X116743590Y-70646115D01*
X116743595Y-70646119D01*
X116903547Y-70777388D01*
X116903548Y-70777388D01*
X116903550Y-70777390D01*
X117086046Y-70874937D01*
X117206659Y-70911524D01*
X117284065Y-70935005D01*
X117284070Y-70935006D01*
X117489997Y-70955288D01*
X117490000Y-70955288D01*
X117490003Y-70955288D01*
X117695929Y-70935006D01*
X117695934Y-70935005D01*
X117721064Y-70927382D01*
X117893954Y-70874937D01*
X118076450Y-70777390D01*
X118236410Y-70646115D01*
X118367685Y-70486155D01*
X118465232Y-70303659D01*
X118525300Y-70105639D01*
X118525301Y-70105633D01*
X118534897Y-70008200D01*
X118559416Y-69952143D01*
X118563399Y-69947916D01*
X119100804Y-69410511D01*
X119155319Y-69382736D01*
X119215751Y-69392307D01*
X119259016Y-69435572D01*
X119268587Y-69496004D01*
X119268264Y-69497923D01*
X119264788Y-69517380D01*
X119264862Y-69535820D01*
X119264789Y-69537037D01*
X119264818Y-69542710D01*
X119264818Y-69542711D01*
X119264985Y-69575395D01*
X119265018Y-69581718D01*
X119251755Y-69631724D01*
X119232283Y-69665450D01*
X119232282Y-69665452D01*
X119229783Y-69669781D01*
X119229777Y-69669793D01*
X118505832Y-70923703D01*
X118505812Y-70923735D01*
X118485948Y-70958145D01*
X118485939Y-70958160D01*
X118484233Y-70961114D01*
X118447558Y-70997595D01*
X118408805Y-71019701D01*
X118407673Y-71020450D01*
X118391688Y-71029596D01*
X118252093Y-71147279D01*
X118252086Y-71147286D01*
X118136104Y-71288289D01*
X118136093Y-71288305D01*
X118047552Y-71447967D01*
X118047546Y-71447980D01*
X117989366Y-71621043D01*
X117989363Y-71621054D01*
X117963469Y-71801782D01*
X117963468Y-71801786D01*
X117970715Y-71984230D01*
X117970717Y-71984242D01*
X118010868Y-72162352D01*
X118082597Y-72330258D01*
X118082599Y-72330261D01*
X118183537Y-72482413D01*
X118310349Y-72613780D01*
X118310352Y-72613783D01*
X118393641Y-72673373D01*
X118458845Y-72720024D01*
X118624118Y-72797633D01*
X118624124Y-72797634D01*
X118624128Y-72797636D01*
X118800705Y-72844043D01*
X118800706Y-72844043D01*
X118800710Y-72844044D01*
X118818975Y-72845438D01*
X118820705Y-72845685D01*
X118826200Y-72846095D01*
X118826201Y-72846096D01*
X118869091Y-72849303D01*
X118911237Y-72862308D01*
X118948449Y-72883810D01*
X118948451Y-72883810D01*
X118954056Y-72887049D01*
X118954414Y-72887225D01*
X120089239Y-73542418D01*
X120121538Y-73572390D01*
X120149024Y-73612713D01*
X120149756Y-73613647D01*
X120160264Y-73629012D01*
X120160265Y-73629013D01*
X120160268Y-73629016D01*
X120288751Y-73758744D01*
X120288754Y-73758746D01*
X120288755Y-73758747D01*
X120438608Y-73863079D01*
X120604870Y-73938563D01*
X120782049Y-73982704D01*
X120964292Y-73994044D01*
X121145576Y-73972208D01*
X121319914Y-73917918D01*
X121481544Y-73832967D01*
X121625127Y-73720163D01*
X121745919Y-73583231D01*
X121839929Y-73426697D01*
X121904051Y-73255731D01*
X121936167Y-73075982D01*
X121936094Y-73057678D01*
X121936176Y-73056330D01*
X121936146Y-73050591D01*
X121936147Y-73050589D01*
X121935944Y-73011617D01*
X121949204Y-72961608D01*
X122624812Y-71791419D01*
X162600053Y-71791419D01*
X162600054Y-71791424D01*
X162619171Y-71847743D01*
X163004021Y-72514324D01*
X163667580Y-72131217D01*
X163683793Y-72191724D01*
X163723289Y-72260133D01*
X163767580Y-72304424D01*
X163104022Y-72687531D01*
X163488873Y-73354112D01*
X163528088Y-73398828D01*
X163528091Y-73398830D01*
X163599447Y-73434019D01*
X163678840Y-73439223D01*
X163678845Y-73439222D01*
X163735164Y-73420105D01*
X164401745Y-73035254D01*
X164018639Y-72371696D01*
X164079145Y-72355484D01*
X164147554Y-72315988D01*
X164191846Y-72271695D01*
X164574952Y-72935253D01*
X165241533Y-72550403D01*
X165286249Y-72511188D01*
X165286251Y-72511185D01*
X165321440Y-72439829D01*
X165326644Y-72360436D01*
X165326643Y-72360431D01*
X165307526Y-72304112D01*
X164922675Y-71637530D01*
X164259116Y-72020636D01*
X164242905Y-71960132D01*
X164203409Y-71891723D01*
X164159115Y-71847429D01*
X164822674Y-71464323D01*
X164437824Y-70797743D01*
X164398609Y-70753027D01*
X164398606Y-70753025D01*
X164327250Y-70717836D01*
X164247857Y-70712632D01*
X164247852Y-70712633D01*
X164191533Y-70731750D01*
X163524951Y-71116600D01*
X163908058Y-71780160D01*
X163847553Y-71796372D01*
X163779144Y-71835868D01*
X163734851Y-71880160D01*
X163351744Y-71216601D01*
X163351743Y-71216601D01*
X162685171Y-71601447D01*
X162685165Y-71601451D01*
X162640448Y-71640667D01*
X162640446Y-71640670D01*
X162605257Y-71712026D01*
X162600053Y-71791419D01*
X122624812Y-71791419D01*
X122716722Y-71632226D01*
X122753405Y-71595735D01*
X122787251Y-71576430D01*
X122787252Y-71576428D01*
X122791969Y-71573738D01*
X122793579Y-71572672D01*
X122809213Y-71563730D01*
X122948827Y-71446051D01*
X122948828Y-71446049D01*
X122952274Y-71443145D01*
X122953244Y-71444296D01*
X123002086Y-71419019D01*
X123062578Y-71428207D01*
X123093011Y-71451867D01*
X123119434Y-71482361D01*
X123145259Y-71512165D01*
X123241069Y-71573738D01*
X123266333Y-71589974D01*
X123372146Y-71621043D01*
X123404421Y-71630520D01*
X123404422Y-71630520D01*
X123404425Y-71630521D01*
X123404427Y-71630521D01*
X123548345Y-71630521D01*
X123548347Y-71630521D01*
X123686439Y-71589974D01*
X123807514Y-71512164D01*
X123901763Y-71403394D01*
X123961551Y-71272478D01*
X123982033Y-71130021D01*
X123981193Y-71124177D01*
X123964601Y-71008774D01*
X123975034Y-70948485D01*
X124018912Y-70905842D01*
X124034700Y-70899695D01*
X124170053Y-70859953D01*
X124291128Y-70782143D01*
X124385377Y-70673373D01*
X124445165Y-70542457D01*
X124454818Y-70475312D01*
X124481813Y-70420408D01*
X124535926Y-70391853D01*
X124596489Y-70400560D01*
X124606334Y-70406120D01*
X124610159Y-70408578D01*
X124612299Y-70409953D01*
X124718755Y-70441211D01*
X124750387Y-70450499D01*
X124750388Y-70450499D01*
X124750391Y-70450500D01*
X124750393Y-70450500D01*
X124894311Y-70450500D01*
X124894313Y-70450500D01*
X125032405Y-70409953D01*
X125153480Y-70332143D01*
X125247729Y-70223373D01*
X125307517Y-70092457D01*
X125315911Y-70034072D01*
X125327999Y-69950002D01*
X125327999Y-69949997D01*
X125307518Y-69807545D01*
X125302100Y-69795681D01*
X125293009Y-69775776D01*
X125286034Y-69714992D01*
X125316120Y-69661715D01*
X125371776Y-69636297D01*
X125431743Y-69648446D01*
X125436575Y-69651359D01*
X125449947Y-69659953D01*
X125553450Y-69690344D01*
X125588035Y-69700499D01*
X125588036Y-69700499D01*
X125588039Y-69700500D01*
X125588041Y-69700500D01*
X125731959Y-69700500D01*
X125731961Y-69700500D01*
X125870053Y-69659953D01*
X125991128Y-69582143D01*
X126085377Y-69473373D01*
X126145165Y-69342457D01*
X126153950Y-69281356D01*
X126165647Y-69200002D01*
X126165647Y-69199997D01*
X126145165Y-69057543D01*
X126118218Y-68998538D01*
X126085377Y-68926627D01*
X125991128Y-68817857D01*
X125991127Y-68817856D01*
X125986491Y-68812506D01*
X125988524Y-68810743D01*
X125963067Y-68768505D01*
X125960500Y-68746105D01*
X125960500Y-67496182D01*
X131548492Y-67496182D01*
X131548492Y-67496187D01*
X131568973Y-67638641D01*
X131628761Y-67769556D01*
X131628762Y-67769558D01*
X131697794Y-67849226D01*
X131723012Y-67878329D01*
X131819049Y-67940048D01*
X131844086Y-67956138D01*
X131950542Y-67987396D01*
X131982174Y-67996684D01*
X131982175Y-67996684D01*
X131982178Y-67996685D01*
X131982180Y-67996685D01*
X132126098Y-67996685D01*
X132126100Y-67996685D01*
X132264192Y-67956138D01*
X132385267Y-67878328D01*
X132479516Y-67769558D01*
X132539304Y-67638642D01*
X132558717Y-67503623D01*
X132585713Y-67448715D01*
X132639827Y-67420162D01*
X132700390Y-67428869D01*
X132710232Y-67434428D01*
X132742912Y-67455430D01*
X132749947Y-67459951D01*
X132856403Y-67491209D01*
X132888035Y-67500497D01*
X132888036Y-67500497D01*
X132888039Y-67500498D01*
X132888041Y-67500498D01*
X133031959Y-67500498D01*
X133031961Y-67500498D01*
X133170053Y-67459951D01*
X133291128Y-67382141D01*
X133291133Y-67382135D01*
X133295666Y-67378208D01*
X133352025Y-67354388D01*
X133411621Y-67368245D01*
X133451690Y-67414484D01*
X133459500Y-67453025D01*
X133459500Y-67849226D01*
X133440593Y-67907417D01*
X133405720Y-67935934D01*
X133405903Y-67936219D01*
X133403425Y-67937811D01*
X133401633Y-67939277D01*
X133399944Y-67940048D01*
X133278873Y-68017855D01*
X133184622Y-68126628D01*
X133124834Y-68257543D01*
X133104353Y-68399997D01*
X133104353Y-68400002D01*
X133124834Y-68542456D01*
X133184622Y-68673371D01*
X133184623Y-68673373D01*
X133249407Y-68748138D01*
X133278873Y-68782144D01*
X133375237Y-68844073D01*
X133399947Y-68859953D01*
X133472915Y-68881378D01*
X133538035Y-68900499D01*
X133538036Y-68900499D01*
X133538039Y-68900500D01*
X133538041Y-68900500D01*
X133681959Y-68900500D01*
X133681961Y-68900500D01*
X133820053Y-68859953D01*
X133941128Y-68782143D01*
X134035377Y-68673373D01*
X134095165Y-68542457D01*
X134108115Y-68452386D01*
X134115647Y-68400002D01*
X134115647Y-68399997D01*
X134095165Y-68257543D01*
X134069447Y-68201229D01*
X134060500Y-68160102D01*
X134060500Y-58465479D01*
X134079407Y-58407288D01*
X134089496Y-58395475D01*
X134655475Y-57829496D01*
X134709992Y-57801719D01*
X134725479Y-57800500D01*
X136829923Y-57800500D01*
X136888114Y-57819407D01*
X136924078Y-57868907D01*
X136924078Y-57930093D01*
X136888114Y-57979593D01*
X136883447Y-57982784D01*
X136828872Y-58017857D01*
X136734622Y-58126628D01*
X136674834Y-58257543D01*
X136654353Y-58399997D01*
X136654353Y-58400002D01*
X136674834Y-58542456D01*
X136734622Y-58673371D01*
X136734623Y-58673373D01*
X136828872Y-58782143D01*
X136828873Y-58782144D01*
X136949942Y-58859950D01*
X136949947Y-58859953D01*
X137056403Y-58891211D01*
X137088035Y-58900499D01*
X137088036Y-58900499D01*
X137088039Y-58900500D01*
X137088041Y-58900500D01*
X137194521Y-58900500D01*
X137252712Y-58919407D01*
X137264525Y-58929496D01*
X140019540Y-61684511D01*
X140019539Y-61684511D01*
X140075489Y-61740460D01*
X140144007Y-61780019D01*
X140144011Y-61780021D01*
X140220435Y-61800499D01*
X140220437Y-61800500D01*
X140220438Y-61800500D01*
X144844409Y-61800500D01*
X144844410Y-61800500D01*
X144875709Y-61792113D01*
X144936808Y-61795313D01*
X144984359Y-61833817D01*
X145000196Y-61892917D01*
X144987069Y-61937239D01*
X144290342Y-63144005D01*
X144290282Y-63144096D01*
X144267957Y-63182773D01*
X144231277Y-63219268D01*
X144192746Y-63241252D01*
X144191183Y-63242284D01*
X144175452Y-63251284D01*
X144035844Y-63368967D01*
X144035842Y-63368968D01*
X143919849Y-63509971D01*
X143919844Y-63509978D01*
X143831288Y-63669653D01*
X143773187Y-63842457D01*
X143773097Y-63842724D01*
X143770111Y-63863562D01*
X143747196Y-64023470D01*
X143754441Y-64205911D01*
X143754441Y-64205914D01*
X143794591Y-64384032D01*
X143794591Y-64384033D01*
X143866317Y-64551937D01*
X143866323Y-64551949D01*
X143967259Y-64704098D01*
X144094071Y-64835464D01*
X144131526Y-64862261D01*
X144242572Y-64941708D01*
X144318829Y-64977515D01*
X144407846Y-65019314D01*
X144407847Y-65019314D01*
X144407849Y-65019315D01*
X144584443Y-65065722D01*
X144602734Y-65067118D01*
X144604373Y-65067351D01*
X144609893Y-65067764D01*
X144609896Y-65067765D01*
X144652806Y-65070975D01*
X144694956Y-65083985D01*
X144732118Y-65105464D01*
X144732121Y-65105464D01*
X144737497Y-65108572D01*
X144737956Y-65108799D01*
X145067467Y-65299042D01*
X145829953Y-65739263D01*
X145830038Y-65739320D01*
X145872861Y-65764039D01*
X145905087Y-65793895D01*
X145925823Y-65824219D01*
X145925860Y-65824338D01*
X145925891Y-65824318D01*
X145933257Y-65835118D01*
X145933406Y-65835307D01*
X145943935Y-65850705D01*
X145943940Y-65850711D01*
X146072429Y-65980448D01*
X146072432Y-65980450D01*
X146072433Y-65980451D01*
X146222291Y-66084790D01*
X146277713Y-66109952D01*
X146388555Y-66160276D01*
X146388557Y-66160276D01*
X146388560Y-66160278D01*
X146565748Y-66204422D01*
X146633939Y-66208664D01*
X146690842Y-66231148D01*
X146723663Y-66282785D01*
X146719864Y-66343853D01*
X146697795Y-66377477D01*
X145004769Y-68070504D01*
X144950252Y-68098281D01*
X144934765Y-68099500D01*
X144788035Y-68099500D01*
X144649949Y-68140046D01*
X144649942Y-68140049D01*
X144528873Y-68217855D01*
X144434622Y-68326628D01*
X144374834Y-68457543D01*
X144354353Y-68599997D01*
X144354353Y-68600002D01*
X144374834Y-68742456D01*
X144419803Y-68840922D01*
X144434623Y-68873373D01*
X144516323Y-68967660D01*
X144528873Y-68982144D01*
X144649942Y-69059950D01*
X144649947Y-69059953D01*
X144752606Y-69090096D01*
X144788035Y-69100499D01*
X144788036Y-69100499D01*
X144788039Y-69100500D01*
X144788041Y-69100500D01*
X144931959Y-69100500D01*
X144931961Y-69100500D01*
X145070053Y-69059953D01*
X145191128Y-68982143D01*
X145285377Y-68873373D01*
X145345165Y-68742457D01*
X145358069Y-68652706D01*
X145366655Y-68592991D01*
X145368046Y-68593191D01*
X145384554Y-68542385D01*
X145394643Y-68530572D01*
X146926761Y-66998454D01*
X148900001Y-66998454D01*
X148907245Y-67180913D01*
X148946238Y-67353893D01*
X148947401Y-67359050D01*
X149009164Y-67503623D01*
X149019138Y-67526968D01*
X149118359Y-67676519D01*
X149120091Y-67679129D01*
X149207391Y-67769556D01*
X149246919Y-67810499D01*
X149395434Y-67916740D01*
X149560728Y-67994340D01*
X149560733Y-67994341D01*
X149560735Y-67994342D01*
X149737335Y-68040733D01*
X149737336Y-68040733D01*
X149737340Y-68040734D01*
X149755654Y-68042130D01*
X149757299Y-68042364D01*
X149762793Y-68042774D01*
X149762795Y-68042775D01*
X149805658Y-68045977D01*
X149847809Y-68058983D01*
X149885009Y-68080480D01*
X149885011Y-68080480D01*
X149890463Y-68083631D01*
X149890830Y-68083811D01*
X150978571Y-68711819D01*
X150982801Y-68714261D01*
X150982966Y-68714371D01*
X150988485Y-68717556D01*
X150988487Y-68717558D01*
X151019233Y-68735301D01*
X151025804Y-68739093D01*
X151058109Y-68769057D01*
X151082442Y-68804736D01*
X151082444Y-68804738D01*
X151085633Y-68809413D01*
X151086539Y-68810570D01*
X151096841Y-68825637D01*
X151225326Y-68955383D01*
X151225332Y-68955387D01*
X151225340Y-68955394D01*
X151346913Y-69040046D01*
X151375176Y-69059726D01*
X151541438Y-69135220D01*
X151718619Y-69179369D01*
X151900865Y-69190714D01*
X152082154Y-69168882D01*
X152082161Y-69168880D01*
X152142235Y-69150173D01*
X152256495Y-69114593D01*
X152418129Y-69029641D01*
X152561714Y-68916833D01*
X152682507Y-68779897D01*
X152776515Y-68623357D01*
X152840632Y-68452386D01*
X152841700Y-68446410D01*
X152870272Y-68286452D01*
X152872741Y-68272632D01*
X152872667Y-68254332D01*
X152872743Y-68253099D01*
X152872713Y-68247292D01*
X152872714Y-68247289D01*
X152872513Y-68208289D01*
X152885778Y-68158277D01*
X152905245Y-68124566D01*
X152905244Y-68124566D01*
X152909099Y-68117892D01*
X152909123Y-68117838D01*
X153628804Y-66871314D01*
X153628811Y-66871305D01*
X153633816Y-66862635D01*
X153633819Y-66862633D01*
X153653290Y-66828904D01*
X153689977Y-66792409D01*
X153723801Y-66773118D01*
X153723802Y-66773116D01*
X153728948Y-66770182D01*
X153729787Y-66769625D01*
X153745807Y-66760463D01*
X153885432Y-66642779D01*
X153885442Y-66642766D01*
X153888594Y-66639578D01*
X153889814Y-66640784D01*
X153935597Y-66611540D01*
X153996673Y-66615202D01*
X154043932Y-66654064D01*
X154059500Y-66707357D01*
X154059500Y-68900500D01*
X154040593Y-68958691D01*
X153991093Y-68994655D01*
X153960500Y-68999500D01*
X153888035Y-68999500D01*
X153749949Y-69040046D01*
X153749942Y-69040049D01*
X153628873Y-69117855D01*
X153534622Y-69226628D01*
X153474834Y-69357543D01*
X153454353Y-69499997D01*
X153454353Y-69500002D01*
X153474834Y-69642456D01*
X153534622Y-69773371D01*
X153534623Y-69773373D01*
X153604824Y-69854390D01*
X153628873Y-69882144D01*
X153734463Y-69950002D01*
X153749947Y-69959953D01*
X153856403Y-69991211D01*
X153888035Y-70000499D01*
X153888036Y-70000499D01*
X153888039Y-70000500D01*
X153888041Y-70000500D01*
X154031959Y-70000500D01*
X154031961Y-70000500D01*
X154170053Y-69959953D01*
X154291128Y-69882143D01*
X154291133Y-69882137D01*
X154295666Y-69878210D01*
X154352025Y-69854390D01*
X154411621Y-69868247D01*
X154451690Y-69914486D01*
X154459500Y-69953027D01*
X154459500Y-70596105D01*
X154440593Y-70654296D01*
X154433258Y-70662289D01*
X154433509Y-70662506D01*
X154428872Y-70667856D01*
X154428872Y-70667857D01*
X154384265Y-70719337D01*
X154334622Y-70776628D01*
X154274834Y-70907543D01*
X154254353Y-71049997D01*
X154254353Y-71050002D01*
X154274834Y-71192456D01*
X154334622Y-71323371D01*
X154334623Y-71323373D01*
X154428872Y-71432143D01*
X154428873Y-71432144D01*
X154503009Y-71479788D01*
X154549947Y-71509953D01*
X154656403Y-71541211D01*
X154688035Y-71550499D01*
X154688036Y-71550499D01*
X154688039Y-71550500D01*
X154688041Y-71550500D01*
X154831959Y-71550500D01*
X154831961Y-71550500D01*
X154970053Y-71509953D01*
X155091128Y-71432143D01*
X155185377Y-71323373D01*
X155245165Y-71192457D01*
X155254982Y-71124177D01*
X155265647Y-71050002D01*
X155265647Y-71049997D01*
X155245165Y-70907543D01*
X155195020Y-70797743D01*
X155185377Y-70776627D01*
X155091128Y-70667857D01*
X155091127Y-70667856D01*
X155086491Y-70662506D01*
X155088524Y-70660743D01*
X155063067Y-70618505D01*
X155060500Y-70596105D01*
X155060500Y-67834306D01*
X155079407Y-67776115D01*
X155128907Y-67740151D01*
X155190093Y-67740151D01*
X155235952Y-67771409D01*
X155317702Y-67870777D01*
X155318679Y-67871964D01*
X155399455Y-67940047D01*
X155458302Y-67989647D01*
X155466511Y-67994342D01*
X155470607Y-67996685D01*
X155474260Y-67998774D01*
X155475364Y-67999504D01*
X155480296Y-68002317D01*
X155480298Y-68002319D01*
X155514122Y-68021611D01*
X155550806Y-68058103D01*
X155570280Y-68091833D01*
X155570282Y-68091835D01*
X155573525Y-68097452D01*
X155573524Y-68097452D01*
X155573529Y-68097459D01*
X156295656Y-69348218D01*
X156295681Y-69348268D01*
X156318321Y-69387477D01*
X156331586Y-69437489D01*
X156331356Y-69482232D01*
X156331423Y-69483348D01*
X156331349Y-69501835D01*
X156363456Y-69681579D01*
X156363458Y-69681587D01*
X156418995Y-69829676D01*
X156427577Y-69852560D01*
X156521585Y-70009101D01*
X156642378Y-70146039D01*
X156785964Y-70258847D01*
X156785968Y-70258849D01*
X156947598Y-70343800D01*
X156947600Y-70343801D01*
X157121934Y-70398088D01*
X157121942Y-70398090D01*
X157303232Y-70419923D01*
X157485479Y-70408578D01*
X157662661Y-70364429D01*
X157828925Y-70288936D01*
X157978776Y-70184593D01*
X158107262Y-70054847D01*
X158109321Y-70051836D01*
X158117593Y-70039738D01*
X158118634Y-70038409D01*
X158121763Y-70033817D01*
X158121767Y-70033814D01*
X158145980Y-69998283D01*
X158178311Y-69968288D01*
X158215565Y-69946795D01*
X158215565Y-69946794D01*
X158221222Y-69943531D01*
X158221488Y-69943351D01*
X158907678Y-69547179D01*
X158967526Y-69534459D01*
X159023422Y-69559346D01*
X159054015Y-69612334D01*
X159047619Y-69673184D01*
X159027182Y-69702921D01*
X157880312Y-70849792D01*
X157825795Y-70877569D01*
X157810308Y-70878788D01*
X157507083Y-70878788D01*
X157448892Y-70859881D01*
X157432264Y-70844619D01*
X157391128Y-70797145D01*
X157352703Y-70772451D01*
X157270057Y-70719337D01*
X157270054Y-70719335D01*
X157270053Y-70719335D01*
X157264948Y-70717836D01*
X157131964Y-70678788D01*
X157131961Y-70678788D01*
X156988039Y-70678788D01*
X156988035Y-70678788D01*
X156849949Y-70719334D01*
X156849942Y-70719337D01*
X156728873Y-70797143D01*
X156634622Y-70905916D01*
X156574834Y-71036831D01*
X156554353Y-71179285D01*
X156554353Y-71179290D01*
X156574834Y-71321744D01*
X156625253Y-71432144D01*
X156634623Y-71452661D01*
X156728870Y-71561429D01*
X156728873Y-71561432D01*
X156849942Y-71639238D01*
X156849947Y-71639241D01*
X156956403Y-71670499D01*
X156988035Y-71679787D01*
X156988036Y-71679787D01*
X156988039Y-71679788D01*
X156988041Y-71679788D01*
X157131959Y-71679788D01*
X157131961Y-71679788D01*
X157270053Y-71639241D01*
X157391128Y-71561431D01*
X157432264Y-71513956D01*
X157484660Y-71482361D01*
X157507083Y-71479788D01*
X158015350Y-71479788D01*
X158015350Y-71479787D01*
X158091776Y-71459309D01*
X158160298Y-71419748D01*
X158216247Y-71363799D01*
X159703826Y-69876219D01*
X161637766Y-69876219D01*
X161637766Y-69876226D01*
X161658047Y-70082152D01*
X161658048Y-70082157D01*
X161718117Y-70280177D01*
X161815665Y-70462675D01*
X161881141Y-70542458D01*
X161946939Y-70622633D01*
X161946944Y-70622637D01*
X162106896Y-70753906D01*
X162106897Y-70753906D01*
X162106899Y-70753908D01*
X162289395Y-70851455D01*
X162427346Y-70893301D01*
X162487414Y-70911523D01*
X162487419Y-70911524D01*
X162693346Y-70931806D01*
X162693349Y-70931806D01*
X162693352Y-70931806D01*
X162899278Y-70911524D01*
X162899283Y-70911523D01*
X162938275Y-70899695D01*
X163097303Y-70851455D01*
X163279799Y-70753908D01*
X163439759Y-70622633D01*
X163571034Y-70462673D01*
X163668581Y-70280177D01*
X163728649Y-70082157D01*
X163728650Y-70082152D01*
X163748932Y-69876226D01*
X163748932Y-69876219D01*
X163728650Y-69670293D01*
X163728649Y-69670288D01*
X163701911Y-69582144D01*
X163668581Y-69472269D01*
X163571034Y-69289773D01*
X163564126Y-69281356D01*
X163439763Y-69129818D01*
X163439759Y-69129813D01*
X163439753Y-69129808D01*
X163279801Y-68998539D01*
X163097303Y-68900991D01*
X162899283Y-68840922D01*
X162899278Y-68840921D01*
X162693352Y-68820640D01*
X162693346Y-68820640D01*
X162487419Y-68840921D01*
X162487414Y-68840922D01*
X162289394Y-68900991D01*
X162106896Y-68998539D01*
X161946944Y-69129808D01*
X161946934Y-69129818D01*
X161815665Y-69289770D01*
X161718117Y-69472268D01*
X161658048Y-69670288D01*
X161658047Y-69670293D01*
X161637766Y-69876219D01*
X159703826Y-69876219D01*
X160281426Y-69298618D01*
X160290517Y-69290581D01*
X160302343Y-69281356D01*
X160309423Y-69271972D01*
X160318453Y-69261592D01*
X160326768Y-69253278D01*
X160334265Y-69240291D01*
X160340973Y-69230163D01*
X160479218Y-69046967D01*
X160488226Y-69036611D01*
X160872133Y-68652704D01*
X160926648Y-68624929D01*
X160987080Y-68634500D01*
X160988803Y-68635400D01*
X161019389Y-68651748D01*
X161019395Y-68651751D01*
X161157346Y-68693597D01*
X161217414Y-68711819D01*
X161217419Y-68711820D01*
X161423346Y-68732102D01*
X161423349Y-68732102D01*
X161423352Y-68732102D01*
X161629278Y-68711820D01*
X161629283Y-68711819D01*
X161827303Y-68651751D01*
X162009799Y-68554204D01*
X162169759Y-68422929D01*
X162301034Y-68262969D01*
X162398581Y-68080473D01*
X162458649Y-67882453D01*
X162458650Y-67882448D01*
X162478932Y-67676522D01*
X162478932Y-67676515D01*
X162458650Y-67470589D01*
X162458649Y-67470584D01*
X162427605Y-67368245D01*
X162398581Y-67272565D01*
X162301034Y-67090069D01*
X162283014Y-67068112D01*
X162169763Y-66930114D01*
X162169759Y-66930109D01*
X162169753Y-66930104D01*
X162009801Y-66798835D01*
X161827303Y-66701287D01*
X161629283Y-66641218D01*
X161629278Y-66641217D01*
X161423352Y-66620936D01*
X161423346Y-66620936D01*
X161217419Y-66641217D01*
X161217414Y-66641218D01*
X161019394Y-66701287D01*
X160836896Y-66798835D01*
X160676944Y-66930104D01*
X160676934Y-66930114D01*
X160545665Y-67090066D01*
X160448117Y-67272564D01*
X160388048Y-67470584D01*
X160388047Y-67470589D01*
X160367766Y-67676515D01*
X160367766Y-67676523D01*
X160376418Y-67764374D01*
X160363305Y-67824138D01*
X160317569Y-67864780D01*
X160256678Y-67870777D01*
X160203891Y-67839838D01*
X160191322Y-67822100D01*
X160131434Y-67714126D01*
X160015417Y-67573112D01*
X160015416Y-67573111D01*
X160015410Y-67573105D01*
X159875796Y-67455435D01*
X159875790Y-67455431D01*
X159875789Y-67455430D01*
X159864049Y-67448715D01*
X159859859Y-67446318D01*
X159858796Y-67445615D01*
X159819975Y-67423471D01*
X159783289Y-67386974D01*
X159763828Y-67353262D01*
X159760603Y-67347675D01*
X159760565Y-67347619D01*
X159039294Y-66098339D01*
X159039289Y-66098327D01*
X159035250Y-66091331D01*
X159015774Y-66057601D01*
X159002511Y-66007586D01*
X159002714Y-65968611D01*
X159002713Y-65968607D01*
X159002744Y-65962666D01*
X159002685Y-65961717D01*
X159002742Y-65947494D01*
X159021882Y-65889382D01*
X159071526Y-65853617D01*
X159132711Y-65853863D01*
X159182067Y-65890025D01*
X159189051Y-65901225D01*
X159275665Y-66063266D01*
X159406409Y-66222578D01*
X159406939Y-66223224D01*
X159435545Y-66246700D01*
X159566896Y-66354497D01*
X159566897Y-66354497D01*
X159566899Y-66354499D01*
X159749395Y-66452046D01*
X159887346Y-66493892D01*
X159947414Y-66512114D01*
X159947419Y-66512115D01*
X160153346Y-66532397D01*
X160153349Y-66532397D01*
X160153352Y-66532397D01*
X160359278Y-66512115D01*
X160359283Y-66512114D01*
X160557303Y-66452046D01*
X160739799Y-66354499D01*
X160899759Y-66223224D01*
X161031034Y-66063264D01*
X161128581Y-65880768D01*
X161188649Y-65682748D01*
X161188650Y-65682743D01*
X161208932Y-65476817D01*
X161208932Y-65476810D01*
X161188650Y-65270884D01*
X161188649Y-65270879D01*
X161162973Y-65186236D01*
X161128581Y-65072860D01*
X161031034Y-64890364D01*
X160980183Y-64828402D01*
X160899763Y-64730409D01*
X160899759Y-64730404D01*
X160879813Y-64714035D01*
X160739801Y-64599130D01*
X160557303Y-64501582D01*
X160359283Y-64441513D01*
X160359278Y-64441512D01*
X160153352Y-64421231D01*
X160153346Y-64421231D01*
X159947419Y-64441512D01*
X159947414Y-64441513D01*
X159749401Y-64501580D01*
X159749398Y-64501580D01*
X159749395Y-64501582D01*
X159749393Y-64501582D01*
X159749393Y-64501583D01*
X159718802Y-64517934D01*
X159658569Y-64528688D01*
X159603518Y-64501985D01*
X159602132Y-64500626D01*
X159487858Y-64386352D01*
X159483839Y-64384032D01*
X159483839Y-64384031D01*
X159425191Y-64350172D01*
X159384249Y-64304703D01*
X159377853Y-64243852D01*
X159408446Y-64190864D01*
X159428019Y-64177126D01*
X159469799Y-64154795D01*
X159629759Y-64023520D01*
X159761034Y-63863560D01*
X159858581Y-63681064D01*
X159918649Y-63483044D01*
X159918650Y-63483039D01*
X159938932Y-63277113D01*
X159938932Y-63277106D01*
X159918650Y-63071180D01*
X159918649Y-63071175D01*
X159900427Y-63011107D01*
X159858581Y-62873156D01*
X159761034Y-62690660D01*
X159759660Y-62688986D01*
X159629763Y-62530705D01*
X159629759Y-62530700D01*
X159629753Y-62530695D01*
X159469801Y-62399426D01*
X159287303Y-62301878D01*
X159089283Y-62241809D01*
X159089278Y-62241808D01*
X158883352Y-62221527D01*
X158883346Y-62221527D01*
X158677419Y-62241808D01*
X158677414Y-62241809D01*
X158479394Y-62301878D01*
X158296896Y-62399426D01*
X158136944Y-62530695D01*
X158136934Y-62530705D01*
X158005665Y-62690657D01*
X157908117Y-62873155D01*
X157848048Y-63071175D01*
X157848047Y-63071180D01*
X157827766Y-63277106D01*
X157827766Y-63277113D01*
X157848047Y-63483039D01*
X157848048Y-63483044D01*
X157908117Y-63681064D01*
X158005665Y-63863562D01*
X158136896Y-64023468D01*
X158136939Y-64023520D01*
X158160395Y-64042770D01*
X158292014Y-64150786D01*
X158325001Y-64202317D01*
X158321399Y-64263396D01*
X158282584Y-64310693D01*
X158229209Y-64326314D01*
X156648353Y-64326314D01*
X156590162Y-64307407D01*
X156554198Y-64257907D01*
X156554198Y-64196721D01*
X156590162Y-64147221D01*
X156594830Y-64144030D01*
X156691126Y-64082144D01*
X156691125Y-64082144D01*
X156691128Y-64082143D01*
X156785377Y-63973373D01*
X156845165Y-63842457D01*
X156860042Y-63738987D01*
X156865647Y-63700002D01*
X156865647Y-63699997D01*
X156845165Y-63557543D01*
X156831089Y-63526721D01*
X156785377Y-63426627D01*
X156691128Y-63317857D01*
X156691127Y-63317856D01*
X156691126Y-63317855D01*
X156570057Y-63240049D01*
X156570054Y-63240047D01*
X156570053Y-63240047D01*
X156570050Y-63240046D01*
X156431964Y-63199500D01*
X156431961Y-63199500D01*
X156288039Y-63199500D01*
X156288035Y-63199500D01*
X156149949Y-63240046D01*
X156149942Y-63240049D01*
X156028873Y-63317855D01*
X155934622Y-63426628D01*
X155874834Y-63557543D01*
X155854353Y-63699997D01*
X155854353Y-63700003D01*
X155857441Y-63721482D01*
X155847007Y-63781771D01*
X155829453Y-63805574D01*
X154188556Y-65446472D01*
X154134039Y-65474249D01*
X154073607Y-65464678D01*
X154036058Y-65431201D01*
X153954023Y-65307556D01*
X153954022Y-65307555D01*
X153954021Y-65307553D01*
X153954016Y-65307548D01*
X153954012Y-65307543D01*
X153827190Y-65176182D01*
X153827188Y-65176180D01*
X153678672Y-65069940D01*
X153678671Y-65069939D01*
X153513380Y-64992342D01*
X153513367Y-64992337D01*
X153336766Y-64945947D01*
X153336765Y-64945946D01*
X153336762Y-64945946D01*
X153336759Y-64945945D01*
X153336755Y-64945945D01*
X153318474Y-64944551D01*
X153317135Y-64944361D01*
X153311445Y-64943934D01*
X153268404Y-64940704D01*
X153226314Y-64927719D01*
X152048285Y-64247584D01*
X152015992Y-64217621D01*
X151991690Y-64181979D01*
X151991687Y-64181976D01*
X151988620Y-64177478D01*
X151987503Y-64176051D01*
X151977239Y-64161040D01*
X151977235Y-64161035D01*
X151848754Y-64031303D01*
X151848747Y-64031297D01*
X151698907Y-63926965D01*
X151698905Y-63926964D01*
X151532647Y-63851476D01*
X151497505Y-63842720D01*
X151355470Y-63807330D01*
X151183908Y-63796651D01*
X151173230Y-63795987D01*
X151173229Y-63795987D01*
X150991944Y-63817819D01*
X150817613Y-63872104D01*
X150655976Y-63957056D01*
X150512396Y-64069857D01*
X150391609Y-64206783D01*
X150391607Y-64206785D01*
X150391607Y-64206786D01*
X150360905Y-64257907D01*
X150297596Y-64363322D01*
X150233478Y-64534279D01*
X150233477Y-64534284D01*
X150201362Y-64714035D01*
X150201435Y-64732461D01*
X150201355Y-64733804D01*
X150201586Y-64778389D01*
X150188323Y-64828402D01*
X150167078Y-64865199D01*
X150167074Y-64865204D01*
X150167075Y-64865205D01*
X149442874Y-66119559D01*
X149442840Y-66119612D01*
X149420810Y-66157774D01*
X149384124Y-66194270D01*
X149350291Y-66213569D01*
X149350289Y-66213570D01*
X149345420Y-66216348D01*
X149344154Y-66217185D01*
X149328321Y-66226240D01*
X149328314Y-66226245D01*
X149188701Y-66343914D01*
X149188690Y-66343925D01*
X149072681Y-66484930D01*
X148984109Y-66644615D01*
X148984107Y-66644620D01*
X148925908Y-66817694D01*
X148919467Y-66862636D01*
X148900001Y-66998454D01*
X146926761Y-66998454D01*
X150995720Y-62929496D01*
X151050237Y-62901719D01*
X151065724Y-62900500D01*
X153312917Y-62900500D01*
X153371108Y-62919407D01*
X153387733Y-62934667D01*
X153428872Y-62982143D01*
X153549947Y-63059953D01*
X153656403Y-63091211D01*
X153688035Y-63100499D01*
X153688036Y-63100499D01*
X153688039Y-63100500D01*
X153688041Y-63100500D01*
X153831959Y-63100500D01*
X153831961Y-63100500D01*
X153970053Y-63059953D01*
X154091128Y-62982143D01*
X154185377Y-62873373D01*
X154245165Y-62742457D01*
X154252853Y-62688985D01*
X154265647Y-62600002D01*
X154265647Y-62599997D01*
X154245165Y-62457543D01*
X154185377Y-62326627D01*
X154091128Y-62217857D01*
X154091127Y-62217856D01*
X154091126Y-62217855D01*
X153970057Y-62140049D01*
X153970054Y-62140047D01*
X153970053Y-62140047D01*
X153970050Y-62140046D01*
X153831964Y-62099500D01*
X153831961Y-62099500D01*
X153688039Y-62099500D01*
X153688035Y-62099500D01*
X153549949Y-62140046D01*
X153549942Y-62140049D01*
X153428876Y-62217854D01*
X153428875Y-62217855D01*
X153428872Y-62217857D01*
X153391541Y-62260940D01*
X153387736Y-62265331D01*
X153335340Y-62296927D01*
X153312917Y-62299500D01*
X151290077Y-62299500D01*
X151231886Y-62280593D01*
X151195922Y-62231093D01*
X151195922Y-62169907D01*
X151231886Y-62120407D01*
X151236553Y-62117216D01*
X151291128Y-62082143D01*
X151385377Y-61973373D01*
X151445165Y-61842457D01*
X151456386Y-61764412D01*
X151465647Y-61700002D01*
X151465647Y-61699997D01*
X151445165Y-61557543D01*
X151385377Y-61426628D01*
X151385377Y-61426627D01*
X151291128Y-61317857D01*
X151291127Y-61317856D01*
X151291126Y-61317855D01*
X151170057Y-61240049D01*
X151170054Y-61240047D01*
X151170053Y-61240047D01*
X151170050Y-61240046D01*
X151031964Y-61199500D01*
X151031961Y-61199500D01*
X150925479Y-61199500D01*
X150867288Y-61180593D01*
X150855475Y-61170504D01*
X150501656Y-60816685D01*
X150144511Y-60459540D01*
X150144508Y-60459538D01*
X150075992Y-60419980D01*
X150075988Y-60419978D01*
X149999564Y-60399500D01*
X149999562Y-60399500D01*
X145565286Y-60399500D01*
X145565283Y-60399500D01*
X145488859Y-60419978D01*
X145488855Y-60419980D01*
X145420339Y-60459538D01*
X144709373Y-61170504D01*
X144654856Y-61198281D01*
X144639369Y-61199500D01*
X140425479Y-61199500D01*
X140367288Y-61180593D01*
X140355475Y-61170504D01*
X137690546Y-58505575D01*
X137662769Y-58451058D01*
X137662558Y-58421482D01*
X137665647Y-58400000D01*
X137664996Y-58395475D01*
X137645165Y-58257543D01*
X137616362Y-58194475D01*
X137585377Y-58126627D01*
X137491128Y-58017857D01*
X137436552Y-57982783D01*
X137397822Y-57935418D01*
X137394329Y-57874332D01*
X137427409Y-57822860D01*
X137484425Y-57800661D01*
X137490077Y-57800500D01*
X139617951Y-57800500D01*
X139617951Y-57800499D01*
X139694377Y-57780021D01*
X139762899Y-57740460D01*
X139802724Y-57700635D01*
X139818849Y-57684511D01*
X139880110Y-57623249D01*
X139905167Y-57598191D01*
X139959682Y-57570414D01*
X140020114Y-57579985D01*
X140063379Y-57623249D01*
X140073815Y-57659820D01*
X140082030Y-57756588D01*
X140130159Y-57932741D01*
X140138124Y-57949336D01*
X140138716Y-57950805D01*
X140159778Y-57994527D01*
X140169587Y-58037528D01*
X140169569Y-58086742D01*
X140169597Y-58087167D01*
X140169597Y-59348514D01*
X140169594Y-59348564D01*
X140169595Y-59397655D01*
X140159852Y-59440483D01*
X140144757Y-59471944D01*
X140144755Y-59471949D01*
X140138515Y-59484906D01*
X140138394Y-59485205D01*
X140130069Y-59502555D01*
X140081962Y-59678706D01*
X140081961Y-59678709D01*
X140066534Y-59860651D01*
X140066535Y-59860657D01*
X140084296Y-60042377D01*
X140084297Y-60042381D01*
X140084298Y-60042387D01*
X140134664Y-60217904D01*
X140215969Y-60381404D01*
X140325527Y-60527486D01*
X140325530Y-60527489D01*
X140325532Y-60527491D01*
X140459715Y-60651320D01*
X140459717Y-60651321D01*
X140459719Y-60651323D01*
X140565519Y-60718138D01*
X140613988Y-60748748D01*
X140614109Y-60748824D01*
X140783599Y-60816767D01*
X140872387Y-60834695D01*
X140962579Y-60852907D01*
X140962583Y-60852907D01*
X140962587Y-60852908D01*
X141053873Y-60854480D01*
X141145154Y-60856052D01*
X141145154Y-60856051D01*
X141145160Y-60856052D01*
X141325286Y-60826096D01*
X141497015Y-60764029D01*
X141512818Y-60754819D01*
X141513992Y-60754235D01*
X141518979Y-60751320D01*
X141518986Y-60751319D01*
X141552633Y-60731658D01*
X141602584Y-60718138D01*
X141641492Y-60718142D01*
X141641494Y-60718141D01*
X141648032Y-60718142D01*
X141648137Y-60718136D01*
X143137602Y-60718136D01*
X143187557Y-60731664D01*
X143221131Y-60751288D01*
X143221132Y-60751288D01*
X143225407Y-60753787D01*
X143228001Y-60755079D01*
X143243209Y-60763942D01*
X143243215Y-60763944D01*
X143243217Y-60763945D01*
X143268144Y-60772954D01*
X143414923Y-60826007D01*
X143595034Y-60855963D01*
X143777593Y-60852821D01*
X143956567Y-60816685D01*
X144126043Y-60748748D01*
X144280422Y-60651257D01*
X144414603Y-60527430D01*
X144524153Y-60381360D01*
X144605452Y-60217873D01*
X144655815Y-60042371D01*
X144673576Y-59860651D01*
X144658150Y-59678718D01*
X144658146Y-59678705D01*
X144610048Y-59502590D01*
X144610045Y-59502581D01*
X144602136Y-59486099D01*
X144601635Y-59484851D01*
X144599134Y-59479656D01*
X144599134Y-59479653D01*
X144580390Y-59440713D01*
X144570596Y-59397776D01*
X144570598Y-59354608D01*
X144570596Y-59354603D01*
X144570597Y-59348566D01*
X144570595Y-59348516D01*
X144570595Y-58037498D01*
X144580393Y-57994556D01*
X144601636Y-57950428D01*
X144602111Y-57949244D01*
X144610032Y-57932743D01*
X144651761Y-57780021D01*
X144658162Y-57756595D01*
X144664281Y-57684511D01*
X144673608Y-57574643D01*
X144655860Y-57392902D01*
X144655858Y-57392893D01*
X144605508Y-57217386D01*
X144605503Y-57217373D01*
X144524207Y-57053867D01*
X144414652Y-56907778D01*
X144414651Y-56907776D01*
X144280458Y-56783932D01*
X144126065Y-56686428D01*
X144126063Y-56686427D01*
X144070369Y-56664101D01*
X143956570Y-56618484D01*
X143956567Y-56618483D01*
X143956564Y-56618482D01*
X143956565Y-56618482D01*
X143777577Y-56582346D01*
X143777567Y-56582345D01*
X143594999Y-56579208D01*
X143414866Y-56609176D01*
X143414863Y-56609177D01*
X143243138Y-56671257D01*
X143227205Y-56680541D01*
X143226004Y-56681141D01*
X143187553Y-56703612D01*
X143137603Y-56717137D01*
X141945905Y-56717137D01*
X141887714Y-56698230D01*
X141851750Y-56648730D01*
X141851750Y-56587544D01*
X141881014Y-56546140D01*
X141879922Y-56545048D01*
X141884508Y-56540461D01*
X141884511Y-56540460D01*
X141940460Y-56484511D01*
X142048784Y-56376185D01*
X142103298Y-56348409D01*
X142163730Y-56357980D01*
X142165432Y-56358868D01*
X142196046Y-56375232D01*
X142333997Y-56417078D01*
X142394065Y-56435300D01*
X142394070Y-56435301D01*
X142599997Y-56455583D01*
X142600000Y-56455583D01*
X142600003Y-56455583D01*
X142805929Y-56435301D01*
X142805934Y-56435300D01*
X143003954Y-56375232D01*
X143186450Y-56277685D01*
X143346410Y-56146410D01*
X143477685Y-55986450D01*
X143575232Y-55803954D01*
X143635300Y-55605934D01*
X143635301Y-55605929D01*
X143655583Y-55400003D01*
X143655583Y-55399996D01*
X143635301Y-55194070D01*
X143635300Y-55194065D01*
X143606766Y-55100000D01*
X143575232Y-54996046D01*
X143477685Y-54813550D01*
X143346410Y-54653590D01*
X143196123Y-54530253D01*
X144089500Y-54530253D01*
X144089500Y-56269746D01*
X144089501Y-56269758D01*
X144101132Y-56328227D01*
X144101134Y-56328233D01*
X144133177Y-56376188D01*
X144145448Y-56394552D01*
X144211769Y-56438867D01*
X144254788Y-56447424D01*
X144270241Y-56450498D01*
X144270246Y-56450498D01*
X144270252Y-56450500D01*
X144270253Y-56450500D01*
X146009747Y-56450500D01*
X146009748Y-56450500D01*
X146068231Y-56438867D01*
X146134552Y-56394552D01*
X146178867Y-56328231D01*
X146190500Y-56269748D01*
X146190500Y-54530252D01*
X146188921Y-54522316D01*
X146187711Y-54516231D01*
X146178867Y-54471769D01*
X146134552Y-54405448D01*
X146134548Y-54405445D01*
X146068233Y-54361134D01*
X146068231Y-54361133D01*
X146068228Y-54361132D01*
X146068227Y-54361132D01*
X146009758Y-54349501D01*
X146009748Y-54349500D01*
X144270252Y-54349500D01*
X144270251Y-54349500D01*
X144270241Y-54349501D01*
X144211772Y-54361132D01*
X144211766Y-54361134D01*
X144145451Y-54405445D01*
X144145445Y-54405451D01*
X144101134Y-54471766D01*
X144101132Y-54471772D01*
X144089501Y-54530241D01*
X144089500Y-54530253D01*
X143196123Y-54530253D01*
X143186452Y-54522316D01*
X143003954Y-54424768D01*
X142805934Y-54364699D01*
X142805929Y-54364698D01*
X142600003Y-54344417D01*
X142599997Y-54344417D01*
X142394070Y-54364698D01*
X142394065Y-54364699D01*
X142196045Y-54424768D01*
X142013547Y-54522316D01*
X141853595Y-54653585D01*
X141853585Y-54653595D01*
X141722316Y-54813547D01*
X141624768Y-54996045D01*
X141564699Y-55194065D01*
X141564698Y-55194070D01*
X141544417Y-55399996D01*
X141544417Y-55400003D01*
X141564698Y-55605929D01*
X141564699Y-55605934D01*
X141624768Y-55803954D01*
X141624770Y-55803959D01*
X141641118Y-55834544D01*
X141651874Y-55894777D01*
X141625172Y-55949828D01*
X141623815Y-55951212D01*
X141604529Y-55970500D01*
X141550014Y-55998280D01*
X141534522Y-55999500D01*
X141095882Y-55999500D01*
X141037691Y-55980593D01*
X141001727Y-55931093D01*
X141001727Y-55869907D01*
X141008572Y-55853832D01*
X141035229Y-55803959D01*
X141035232Y-55803954D01*
X141095300Y-55605934D01*
X141095301Y-55605929D01*
X141115583Y-55400003D01*
X141115583Y-55399996D01*
X141095301Y-55194070D01*
X141095300Y-55194065D01*
X141066766Y-55100000D01*
X141035232Y-54996046D01*
X140937685Y-54813550D01*
X140806410Y-54653590D01*
X140656123Y-54530253D01*
X140646452Y-54522316D01*
X140463954Y-54424768D01*
X140265934Y-54364699D01*
X140265929Y-54364698D01*
X140060003Y-54344417D01*
X140059997Y-54344417D01*
X139854070Y-54364698D01*
X139854065Y-54364699D01*
X139656045Y-54424768D01*
X139473547Y-54522316D01*
X139313595Y-54653585D01*
X139313585Y-54653595D01*
X139182316Y-54813547D01*
X139084768Y-54996045D01*
X139024699Y-55194065D01*
X139024698Y-55194070D01*
X139004417Y-55399996D01*
X139004417Y-55400003D01*
X139024698Y-55605929D01*
X139024699Y-55605934D01*
X139053234Y-55700000D01*
X139084768Y-55803954D01*
X139101118Y-55834543D01*
X139111874Y-55894775D01*
X139085173Y-55949826D01*
X139083812Y-55951214D01*
X138264525Y-56770503D01*
X138210008Y-56798281D01*
X138194521Y-56799500D01*
X136784478Y-56799500D01*
X136726287Y-56780593D01*
X136690323Y-56731093D01*
X136690323Y-56669907D01*
X136714474Y-56630497D01*
X136765763Y-56579208D01*
X136968784Y-56376185D01*
X137023299Y-56348409D01*
X137083731Y-56357980D01*
X137085431Y-56358868D01*
X137116046Y-56375232D01*
X137253997Y-56417078D01*
X137314065Y-56435300D01*
X137314070Y-56435301D01*
X137519997Y-56455583D01*
X137520000Y-56455583D01*
X137520003Y-56455583D01*
X137725929Y-56435301D01*
X137725934Y-56435300D01*
X137923954Y-56375232D01*
X138106450Y-56277685D01*
X138266410Y-56146410D01*
X138397685Y-55986450D01*
X138495232Y-55803954D01*
X138555300Y-55605934D01*
X138555301Y-55605929D01*
X138575583Y-55400003D01*
X138575583Y-55399996D01*
X138555301Y-55194070D01*
X138555300Y-55194065D01*
X138526766Y-55100000D01*
X138495232Y-54996046D01*
X138397685Y-54813550D01*
X138266410Y-54653590D01*
X138116123Y-54530253D01*
X138106452Y-54522316D01*
X137923954Y-54424768D01*
X137725934Y-54364699D01*
X137725929Y-54364698D01*
X137520003Y-54344417D01*
X137519997Y-54344417D01*
X137314070Y-54364698D01*
X137314065Y-54364699D01*
X137116045Y-54424768D01*
X136933547Y-54522316D01*
X136773595Y-54653585D01*
X136773585Y-54653595D01*
X136642316Y-54813547D01*
X136544768Y-54996045D01*
X136484699Y-55194065D01*
X136484698Y-55194070D01*
X136464417Y-55399996D01*
X136464417Y-55400003D01*
X136484698Y-55605929D01*
X136484699Y-55605934D01*
X136544768Y-55803954D01*
X136544770Y-55803959D01*
X136561118Y-55834544D01*
X136571874Y-55894777D01*
X136545172Y-55949828D01*
X136543812Y-55951215D01*
X136274526Y-56220503D01*
X136220009Y-56248281D01*
X136204522Y-56249500D01*
X135850478Y-56249500D01*
X135792287Y-56230593D01*
X135756323Y-56181093D01*
X135756323Y-56119907D01*
X135773950Y-56087695D01*
X135857268Y-55986170D01*
X135857275Y-55986160D01*
X135954765Y-55803767D01*
X135954767Y-55803762D01*
X136014808Y-55605836D01*
X136014809Y-55605831D01*
X136025232Y-55500000D01*
X135263788Y-55500000D01*
X135280000Y-55439496D01*
X135280000Y-55360504D01*
X135263788Y-55300000D01*
X136025232Y-55300000D01*
X136025232Y-55299999D01*
X136014809Y-55194168D01*
X136014808Y-55194163D01*
X135954767Y-54996237D01*
X135954765Y-54996232D01*
X135857275Y-54813839D01*
X135857268Y-54813829D01*
X135726059Y-54653949D01*
X135726050Y-54653940D01*
X135566170Y-54522731D01*
X135566160Y-54522724D01*
X135383767Y-54425234D01*
X135383762Y-54425232D01*
X135185836Y-54365191D01*
X135185831Y-54365190D01*
X135080000Y-54354767D01*
X135080000Y-55116211D01*
X135019496Y-55100000D01*
X134940504Y-55100000D01*
X134880000Y-55116211D01*
X134880000Y-54354767D01*
X134879999Y-54354767D01*
X134774168Y-54365190D01*
X134774163Y-54365191D01*
X134576237Y-54425232D01*
X134576232Y-54425234D01*
X134393839Y-54522724D01*
X134393829Y-54522731D01*
X134233949Y-54653940D01*
X134233940Y-54653949D01*
X134102731Y-54813829D01*
X134102724Y-54813839D01*
X134005234Y-54996232D01*
X134005232Y-54996237D01*
X133945191Y-55194163D01*
X133945190Y-55194168D01*
X133934767Y-55299999D01*
X133934768Y-55300000D01*
X134696212Y-55300000D01*
X134680000Y-55360504D01*
X134680000Y-55439496D01*
X134696212Y-55500000D01*
X133934767Y-55500000D01*
X133945190Y-55605831D01*
X133945191Y-55605836D01*
X134005232Y-55803762D01*
X134005234Y-55803767D01*
X134102724Y-55986160D01*
X134102731Y-55986170D01*
X134186050Y-56087695D01*
X134208350Y-56144672D01*
X134192901Y-56203875D01*
X134145604Y-56242690D01*
X134109522Y-56249500D01*
X133670435Y-56249500D01*
X133594011Y-56269978D01*
X133594007Y-56269980D01*
X133525491Y-56309538D01*
X131869628Y-57965401D01*
X131869627Y-57965400D01*
X131813678Y-58021350D01*
X131774119Y-58089868D01*
X131774117Y-58089872D01*
X131753639Y-58166296D01*
X131753639Y-67042290D01*
X131734732Y-67100481D01*
X131727397Y-67108474D01*
X131727648Y-67108691D01*
X131628761Y-67222813D01*
X131568973Y-67353728D01*
X131548492Y-67496182D01*
X125960500Y-67496182D01*
X125960500Y-52560437D01*
X125960499Y-52560435D01*
X125940021Y-52484011D01*
X125940019Y-52484007D01*
X125900460Y-52415489D01*
X125844511Y-52359539D01*
X125844511Y-52359540D01*
X125090546Y-51605575D01*
X125062769Y-51551058D01*
X125062558Y-51521482D01*
X125065647Y-51500000D01*
X125045165Y-51357543D01*
X124985377Y-51226627D01*
X124891128Y-51117857D01*
X124891127Y-51117856D01*
X124891126Y-51117855D01*
X124770057Y-51040049D01*
X124770054Y-51040047D01*
X124770053Y-51040047D01*
X124770050Y-51040046D01*
X124631964Y-50999500D01*
X124631961Y-50999500D01*
X124488039Y-50999500D01*
X124488035Y-50999500D01*
X124349949Y-51040046D01*
X124349942Y-51040049D01*
X124228873Y-51117855D01*
X124134622Y-51226628D01*
X124074834Y-51357543D01*
X124054353Y-51499997D01*
X124054353Y-51500002D01*
X124074834Y-51642456D01*
X124134622Y-51773371D01*
X124134623Y-51773373D01*
X124228872Y-51882143D01*
X124228873Y-51882144D01*
X124349942Y-51959950D01*
X124349947Y-51959953D01*
X124456403Y-51991211D01*
X124488035Y-52000499D01*
X124488036Y-52000499D01*
X124488039Y-52000500D01*
X124488041Y-52000500D01*
X124594521Y-52000500D01*
X124652712Y-52019407D01*
X124664525Y-52029496D01*
X125330504Y-52695475D01*
X125358281Y-52749992D01*
X125359500Y-52765479D01*
X125359500Y-68746105D01*
X125340593Y-68804296D01*
X125333258Y-68812289D01*
X125333508Y-68812506D01*
X125296671Y-68855018D01*
X125244275Y-68886614D01*
X125183314Y-68881378D01*
X125137073Y-68841310D01*
X125122852Y-68790187D01*
X125122852Y-65822786D01*
X125110136Y-65775329D01*
X125107250Y-65764563D01*
X125104886Y-65724851D01*
X125115649Y-65649999D01*
X125115649Y-65649995D01*
X125095167Y-65507541D01*
X125067277Y-65446472D01*
X125035379Y-65376625D01*
X124941130Y-65267855D01*
X124941129Y-65267854D01*
X124941128Y-65267853D01*
X124820059Y-65190047D01*
X124820056Y-65190045D01*
X124820055Y-65190045D01*
X124807083Y-65186236D01*
X124681966Y-65149498D01*
X124681963Y-65149498D01*
X124538041Y-65149498D01*
X124538037Y-65149498D01*
X124399951Y-65190044D01*
X124399944Y-65190047D01*
X124278875Y-65267853D01*
X124184624Y-65376626D01*
X124124836Y-65507541D01*
X124104355Y-65649995D01*
X124104355Y-65650000D01*
X124124836Y-65792454D01*
X124184624Y-65923369D01*
X124184625Y-65923371D01*
X124264063Y-66015048D01*
X124278875Y-66032142D01*
X124399944Y-66109948D01*
X124399949Y-66109951D01*
X124450742Y-66124864D01*
X124501249Y-66159398D01*
X124521812Y-66217025D01*
X124521852Y-66219854D01*
X124521852Y-66518697D01*
X124502945Y-66576888D01*
X124453445Y-66612852D01*
X124392259Y-66612852D01*
X124348033Y-66583528D01*
X124291129Y-66517858D01*
X124291127Y-66517856D01*
X124170057Y-66440049D01*
X124170054Y-66440047D01*
X124170053Y-66440047D01*
X124170050Y-66440046D01*
X124031964Y-66399500D01*
X124031961Y-66399500D01*
X123888039Y-66399500D01*
X123888035Y-66399500D01*
X123749949Y-66440046D01*
X123749942Y-66440049D01*
X123628873Y-66517855D01*
X123534622Y-66626628D01*
X123474834Y-66757543D01*
X123454353Y-66899997D01*
X123454353Y-66900002D01*
X123474834Y-67042456D01*
X123501334Y-67100481D01*
X123534623Y-67173373D01*
X123628142Y-67281301D01*
X123633509Y-67287494D01*
X123631471Y-67289259D01*
X123656925Y-67331458D01*
X123659500Y-67353893D01*
X123659500Y-69735521D01*
X123640593Y-69793712D01*
X123591093Y-69829676D01*
X123529907Y-69829676D01*
X123490496Y-69805525D01*
X122714609Y-69029638D01*
X121934462Y-68249491D01*
X121934459Y-68249489D01*
X121934458Y-68249488D01*
X121915721Y-68238671D01*
X121915721Y-68238670D01*
X121915717Y-68238669D01*
X121879670Y-68217857D01*
X121865939Y-68209929D01*
X121789515Y-68189451D01*
X121789513Y-68189451D01*
X119842782Y-68189451D01*
X119784591Y-68170544D01*
X119748627Y-68121044D01*
X119748045Y-68061714D01*
X119795300Y-67905934D01*
X119795301Y-67905929D01*
X119815583Y-67700003D01*
X119815583Y-67699996D01*
X119795301Y-67494070D01*
X119795300Y-67494065D01*
X119757133Y-67368245D01*
X119735232Y-67296046D01*
X119637685Y-67113550D01*
X119633697Y-67108691D01*
X119506414Y-66953595D01*
X119506410Y-66953590D01*
X119477792Y-66930104D01*
X119346452Y-66822316D01*
X119163954Y-66724768D01*
X118965934Y-66664699D01*
X118965929Y-66664698D01*
X118760003Y-66644417D01*
X118759997Y-66644417D01*
X118554070Y-66664698D01*
X118554065Y-66664699D01*
X118356045Y-66724768D01*
X118173547Y-66822316D01*
X118013595Y-66953585D01*
X118013585Y-66953595D01*
X117882316Y-67113547D01*
X117784768Y-67296045D01*
X117724699Y-67494065D01*
X117724698Y-67494070D01*
X117704417Y-67699996D01*
X117704417Y-67700003D01*
X117724698Y-67905929D01*
X117724699Y-67905934D01*
X117784768Y-68103954D01*
X117882316Y-68286452D01*
X117975504Y-68400002D01*
X118013590Y-68446410D01*
X118013595Y-68446414D01*
X118173547Y-68577683D01*
X118173548Y-68577683D01*
X118173550Y-68577685D01*
X118356046Y-68675232D01*
X118476659Y-68711819D01*
X118554065Y-68735300D01*
X118554070Y-68735301D01*
X118684408Y-68748138D01*
X118740465Y-68772658D01*
X118771404Y-68825444D01*
X118765407Y-68886335D01*
X118744708Y-68916665D01*
X118436103Y-69225270D01*
X118381586Y-69253047D01*
X118321154Y-69243476D01*
X118289571Y-69218071D01*
X118236412Y-69153297D01*
X118236403Y-69153290D01*
X118122672Y-69059953D01*
X118076452Y-69022021D01*
X117893954Y-68924473D01*
X117695934Y-68864404D01*
X117695929Y-68864403D01*
X117490003Y-68844122D01*
X117489997Y-68844122D01*
X117284070Y-68864403D01*
X117284065Y-68864404D01*
X117086045Y-68924473D01*
X116903547Y-69022021D01*
X116743595Y-69153290D01*
X116743585Y-69153300D01*
X116612316Y-69313252D01*
X116514768Y-69495750D01*
X116454699Y-69693770D01*
X116454698Y-69693775D01*
X116434417Y-69899701D01*
X111828321Y-69899701D01*
X114368321Y-65500292D01*
X118974417Y-65500292D01*
X118974417Y-65500299D01*
X118994698Y-65706225D01*
X118994699Y-65706230D01*
X119054768Y-65904250D01*
X119152316Y-66086748D01*
X119270822Y-66231148D01*
X119283590Y-66246706D01*
X119283595Y-66246710D01*
X119443547Y-66377979D01*
X119443548Y-66377979D01*
X119443550Y-66377981D01*
X119626046Y-66475528D01*
X119746659Y-66512115D01*
X119824065Y-66535596D01*
X119824070Y-66535597D01*
X120029997Y-66555879D01*
X120030000Y-66555879D01*
X120030003Y-66555879D01*
X120235929Y-66535597D01*
X120235934Y-66535596D01*
X120246480Y-66532397D01*
X120433954Y-66475528D01*
X120616450Y-66377981D01*
X120776410Y-66246706D01*
X120907685Y-66086746D01*
X121005232Y-65904250D01*
X121065300Y-65706230D01*
X121065301Y-65706225D01*
X121085583Y-65500299D01*
X121085583Y-65500292D01*
X121065301Y-65294366D01*
X121065300Y-65294361D01*
X121047078Y-65234293D01*
X121005232Y-65096342D01*
X120907685Y-64913846D01*
X120901341Y-64906116D01*
X120784287Y-64763484D01*
X120776410Y-64753886D01*
X120751940Y-64733804D01*
X120616452Y-64622612D01*
X120433954Y-64525064D01*
X120235934Y-64464995D01*
X120235929Y-64464994D01*
X120030003Y-64444713D01*
X120029997Y-64444713D01*
X119824070Y-64464994D01*
X119824065Y-64464995D01*
X119626045Y-64525064D01*
X119443547Y-64622612D01*
X119283595Y-64753881D01*
X119283585Y-64753891D01*
X119152316Y-64913843D01*
X119054768Y-65096341D01*
X118994699Y-65294361D01*
X118994698Y-65294366D01*
X118974417Y-65500292D01*
X114368321Y-65500292D01*
X115474058Y-63585099D01*
X119936704Y-63585099D01*
X119941908Y-63664492D01*
X119977097Y-63735848D01*
X119977099Y-63735851D01*
X120021815Y-63775066D01*
X120688395Y-64159916D01*
X121071501Y-63496357D01*
X121115795Y-63540651D01*
X121184204Y-63580147D01*
X121244708Y-63596358D01*
X120861602Y-64259917D01*
X121528184Y-64644768D01*
X121584503Y-64663885D01*
X121584508Y-64663886D01*
X121663901Y-64658682D01*
X121735257Y-64623493D01*
X121735260Y-64623491D01*
X121774475Y-64578775D01*
X122159325Y-63912194D01*
X121495767Y-63529088D01*
X121540060Y-63484796D01*
X121579556Y-63416387D01*
X121595768Y-63355881D01*
X122259326Y-63738987D01*
X122644177Y-63072406D01*
X122663294Y-63016087D01*
X122663295Y-63016082D01*
X122658091Y-62936689D01*
X122622902Y-62865333D01*
X122622900Y-62865330D01*
X122578184Y-62826115D01*
X121911603Y-62441264D01*
X121528496Y-63104822D01*
X121484205Y-63060531D01*
X121415796Y-63021035D01*
X121355289Y-63004822D01*
X121738396Y-62341263D01*
X121071815Y-61956413D01*
X121015496Y-61937296D01*
X121015491Y-61937295D01*
X120936098Y-61942499D01*
X120864742Y-61977688D01*
X120864739Y-61977690D01*
X120825523Y-62022407D01*
X120825519Y-62022413D01*
X120440673Y-62688985D01*
X120440673Y-62688986D01*
X121104232Y-63072093D01*
X121059940Y-63116386D01*
X121020444Y-63184795D01*
X121004232Y-63245300D01*
X120340672Y-62862193D01*
X119955822Y-63528775D01*
X119936705Y-63585094D01*
X119936704Y-63585099D01*
X115474058Y-63585099D01*
X122999877Y-50549999D01*
X123045347Y-50509059D01*
X123085614Y-50500500D01*
X157034386Y-50500500D01*
X157092577Y-50519407D01*
G37*
%TD.AperFunction*%
%TD*%
M02*
