%TF.GenerationSoftware,KiCad,Pcbnew,8.0.8*%
%TF.CreationDate,2025-04-07T12:59:42-04:00*%
%TF.ProjectId,pcb_tile_game_tile_aaa,7063625f-7469-46c6-955f-67616d655f74,1.0*%
%TF.SameCoordinates,Original*%
%TF.FileFunction,AssemblyDrawing,Top*%
%FSLAX46Y46*%
G04 Gerber Fmt 4.6, Leading zero omitted, Abs format (unit mm)*
G04 Created by KiCad (PCBNEW 8.0.8) date 2025-04-07 12:59:42*
%MOMM*%
%LPD*%
G01*
G04 APERTURE LIST*
%ADD10C,0.150000*%
%ADD11C,0.060000*%
%ADD12C,0.100000*%
G04 APERTURE END LIST*
D10*
X150993078Y-60585165D02*
X151040697Y-60502686D01*
X151040697Y-60502686D02*
X151129555Y-60444017D01*
X151129555Y-60444017D02*
X151194604Y-60426587D01*
X151194604Y-60426587D02*
X151300892Y-60432967D01*
X151300892Y-60432967D02*
X151489659Y-60486966D01*
X151489659Y-60486966D02*
X151695855Y-60606013D01*
X151695855Y-60606013D02*
X151837003Y-60742491D01*
X151837003Y-60742491D02*
X151895672Y-60831349D01*
X151895672Y-60831349D02*
X151913102Y-60896398D01*
X151913102Y-60896398D02*
X151906722Y-61002686D01*
X151906722Y-61002686D02*
X151859103Y-61085165D01*
X151859103Y-61085165D02*
X151770245Y-61143834D01*
X151770245Y-61143834D02*
X151705196Y-61161263D01*
X151705196Y-61161263D02*
X151598908Y-61154884D01*
X151598908Y-61154884D02*
X151410141Y-61100885D01*
X151410141Y-61100885D02*
X151203944Y-60981837D01*
X151203944Y-60981837D02*
X151062797Y-60845360D01*
X151062797Y-60845360D02*
X151004128Y-60756502D01*
X151004128Y-60756502D02*
X150986698Y-60691453D01*
X150986698Y-60691453D02*
X150993078Y-60585165D01*
X152157577Y-60377717D02*
X152222626Y-60360287D01*
X152222626Y-60360287D02*
X152240055Y-60425336D01*
X152240055Y-60425336D02*
X152175007Y-60442765D01*
X152175007Y-60442765D02*
X152157577Y-60377717D01*
X152157577Y-60377717D02*
X152240055Y-60425336D01*
X152740055Y-59559311D02*
X152454341Y-60054182D01*
X152597198Y-59806746D02*
X151731173Y-59306746D01*
X151731173Y-59306746D02*
X151807272Y-59460654D01*
X151807272Y-59460654D02*
X151842131Y-59590751D01*
X151842131Y-59590751D02*
X151835751Y-59697039D01*
X152591276Y-58483670D02*
X153168627Y-58817003D01*
X152376991Y-58854824D02*
X152830623Y-59116728D01*
X152830623Y-59116728D02*
X152936911Y-59123108D01*
X152936911Y-59123108D02*
X153025770Y-59064439D01*
X153025770Y-59064439D02*
X153097198Y-58940721D01*
X153097198Y-58940721D02*
X153103578Y-58834433D01*
X153103578Y-58834433D02*
X153086148Y-58769384D01*
X153119756Y-57854030D02*
X152953090Y-58142705D01*
X153406722Y-58404610D02*
X152540697Y-57904610D01*
X152540697Y-57904610D02*
X152778792Y-57492217D01*
D11*
X153616292Y-60279651D02*
X153623264Y-60305670D01*
X153623264Y-60305670D02*
X153611188Y-60364681D01*
X153611188Y-60364681D02*
X153592140Y-60397673D01*
X153592140Y-60397673D02*
X153547073Y-60437636D01*
X153547073Y-60437636D02*
X153495034Y-60451580D01*
X153495034Y-60451580D02*
X153452519Y-60449028D01*
X153452519Y-60449028D02*
X153377012Y-60427428D01*
X153377012Y-60427428D02*
X153327525Y-60398857D01*
X153327525Y-60398857D02*
X153271066Y-60344266D01*
X153271066Y-60344266D02*
X153247598Y-60308723D01*
X153247598Y-60308723D02*
X153233654Y-60256683D01*
X153233654Y-60256683D02*
X153245730Y-60197673D01*
X153245730Y-60197673D02*
X153264778Y-60164681D01*
X153264778Y-60164681D02*
X153309845Y-60124718D01*
X153309845Y-60124718D02*
X153335864Y-60117746D01*
X153412055Y-59985780D02*
X153405083Y-59959760D01*
X153405083Y-59959760D02*
X153407635Y-59917245D01*
X153407635Y-59917245D02*
X153455254Y-59834767D01*
X153455254Y-59834767D02*
X153490797Y-59811299D01*
X153490797Y-59811299D02*
X153516817Y-59804327D01*
X153516817Y-59804327D02*
X153559332Y-59806879D01*
X153559332Y-59806879D02*
X153592324Y-59825927D01*
X153592324Y-59825927D02*
X153632287Y-59870994D01*
X153632287Y-59870994D02*
X153715950Y-60183228D01*
X153715950Y-60183228D02*
X153839759Y-59968784D01*
D10*
X127154643Y-76824820D02*
X127249881Y-76824820D01*
X127249881Y-76824820D02*
X127345119Y-76872439D01*
X127345119Y-76872439D02*
X127392738Y-76920058D01*
X127392738Y-76920058D02*
X127440357Y-77015296D01*
X127440357Y-77015296D02*
X127487976Y-77205772D01*
X127487976Y-77205772D02*
X127487976Y-77443867D01*
X127487976Y-77443867D02*
X127440357Y-77634343D01*
X127440357Y-77634343D02*
X127392738Y-77729581D01*
X127392738Y-77729581D02*
X127345119Y-77777201D01*
X127345119Y-77777201D02*
X127249881Y-77824820D01*
X127249881Y-77824820D02*
X127154643Y-77824820D01*
X127154643Y-77824820D02*
X127059405Y-77777201D01*
X127059405Y-77777201D02*
X127011786Y-77729581D01*
X127011786Y-77729581D02*
X126964167Y-77634343D01*
X126964167Y-77634343D02*
X126916548Y-77443867D01*
X126916548Y-77443867D02*
X126916548Y-77205772D01*
X126916548Y-77205772D02*
X126964167Y-77015296D01*
X126964167Y-77015296D02*
X127011786Y-76920058D01*
X127011786Y-76920058D02*
X127059405Y-76872439D01*
X127059405Y-76872439D02*
X127154643Y-76824820D01*
X127916548Y-77729581D02*
X127964167Y-77777201D01*
X127964167Y-77777201D02*
X127916548Y-77824820D01*
X127916548Y-77824820D02*
X127868929Y-77777201D01*
X127868929Y-77777201D02*
X127916548Y-77729581D01*
X127916548Y-77729581D02*
X127916548Y-77824820D01*
X128916547Y-77824820D02*
X128345119Y-77824820D01*
X128630833Y-77824820D02*
X128630833Y-76824820D01*
X128630833Y-76824820D02*
X128535595Y-76967677D01*
X128535595Y-76967677D02*
X128440357Y-77062915D01*
X128440357Y-77062915D02*
X128345119Y-77110534D01*
X129773690Y-77158153D02*
X129773690Y-77824820D01*
X129345119Y-77158153D02*
X129345119Y-77681962D01*
X129345119Y-77681962D02*
X129392738Y-77777201D01*
X129392738Y-77777201D02*
X129487976Y-77824820D01*
X129487976Y-77824820D02*
X129630833Y-77824820D01*
X129630833Y-77824820D02*
X129726071Y-77777201D01*
X129726071Y-77777201D02*
X129773690Y-77729581D01*
X130583214Y-77301010D02*
X130249881Y-77301010D01*
X130249881Y-77824820D02*
X130249881Y-76824820D01*
X130249881Y-76824820D02*
X130726071Y-76824820D01*
D11*
X128540357Y-78943833D02*
X128521309Y-78962881D01*
X128521309Y-78962881D02*
X128464167Y-78981928D01*
X128464167Y-78981928D02*
X128426071Y-78981928D01*
X128426071Y-78981928D02*
X128368928Y-78962881D01*
X128368928Y-78962881D02*
X128330833Y-78924785D01*
X128330833Y-78924785D02*
X128311786Y-78886690D01*
X128311786Y-78886690D02*
X128292738Y-78810500D01*
X128292738Y-78810500D02*
X128292738Y-78753357D01*
X128292738Y-78753357D02*
X128311786Y-78677166D01*
X128311786Y-78677166D02*
X128330833Y-78639071D01*
X128330833Y-78639071D02*
X128368928Y-78600976D01*
X128368928Y-78600976D02*
X128426071Y-78581928D01*
X128426071Y-78581928D02*
X128464167Y-78581928D01*
X128464167Y-78581928D02*
X128521309Y-78600976D01*
X128521309Y-78600976D02*
X128540357Y-78620023D01*
X128921309Y-78981928D02*
X128692738Y-78981928D01*
X128807024Y-78981928D02*
X128807024Y-78581928D01*
X128807024Y-78581928D02*
X128768928Y-78639071D01*
X128768928Y-78639071D02*
X128730833Y-78677166D01*
X128730833Y-78677166D02*
X128692738Y-78696214D01*
X129302261Y-78981928D02*
X129073690Y-78981928D01*
X129187976Y-78981928D02*
X129187976Y-78581928D01*
X129187976Y-78581928D02*
X129149880Y-78639071D01*
X129149880Y-78639071D02*
X129111785Y-78677166D01*
X129111785Y-78677166D02*
X129073690Y-78696214D01*
D10*
X148828015Y-59335165D02*
X148875634Y-59252686D01*
X148875634Y-59252686D02*
X148964492Y-59194017D01*
X148964492Y-59194017D02*
X149029541Y-59176587D01*
X149029541Y-59176587D02*
X149135829Y-59182967D01*
X149135829Y-59182967D02*
X149324596Y-59236966D01*
X149324596Y-59236966D02*
X149530792Y-59356013D01*
X149530792Y-59356013D02*
X149671940Y-59492491D01*
X149671940Y-59492491D02*
X149730609Y-59581349D01*
X149730609Y-59581349D02*
X149748039Y-59646398D01*
X149748039Y-59646398D02*
X149741659Y-59752686D01*
X149741659Y-59752686D02*
X149694040Y-59835165D01*
X149694040Y-59835165D02*
X149605182Y-59893834D01*
X149605182Y-59893834D02*
X149540133Y-59911263D01*
X149540133Y-59911263D02*
X149433845Y-59904884D01*
X149433845Y-59904884D02*
X149245078Y-59850885D01*
X149245078Y-59850885D02*
X149038881Y-59731837D01*
X149038881Y-59731837D02*
X148897734Y-59595360D01*
X148897734Y-59595360D02*
X148839065Y-59506502D01*
X148839065Y-59506502D02*
X148821635Y-59441453D01*
X148821635Y-59441453D02*
X148828015Y-59335165D01*
X149992514Y-59127717D02*
X150057563Y-59110287D01*
X150057563Y-59110287D02*
X150074992Y-59175336D01*
X150074992Y-59175336D02*
X150009944Y-59192765D01*
X150009944Y-59192765D02*
X149992514Y-59127717D01*
X149992514Y-59127717D02*
X150074992Y-59175336D01*
X150574992Y-58309311D02*
X150289278Y-58804182D01*
X150432135Y-58556746D02*
X149566110Y-58056746D01*
X149566110Y-58056746D02*
X149642209Y-58210654D01*
X149642209Y-58210654D02*
X149677068Y-58340751D01*
X149677068Y-58340751D02*
X149670688Y-58447039D01*
X150426213Y-57233670D02*
X151003564Y-57567003D01*
X150211928Y-57604824D02*
X150665560Y-57866728D01*
X150665560Y-57866728D02*
X150771848Y-57873108D01*
X150771848Y-57873108D02*
X150860707Y-57814439D01*
X150860707Y-57814439D02*
X150932135Y-57690721D01*
X150932135Y-57690721D02*
X150938515Y-57584433D01*
X150938515Y-57584433D02*
X150921085Y-57519384D01*
X150954693Y-56604030D02*
X150788027Y-56892705D01*
X151241659Y-57154610D02*
X150375634Y-56654610D01*
X150375634Y-56654610D02*
X150613729Y-56242217D01*
D11*
X151451229Y-59029651D02*
X151458201Y-59055670D01*
X151458201Y-59055670D02*
X151446125Y-59114681D01*
X151446125Y-59114681D02*
X151427077Y-59147673D01*
X151427077Y-59147673D02*
X151382010Y-59187636D01*
X151382010Y-59187636D02*
X151329971Y-59201580D01*
X151329971Y-59201580D02*
X151287456Y-59199028D01*
X151287456Y-59199028D02*
X151211949Y-59177428D01*
X151211949Y-59177428D02*
X151162462Y-59148857D01*
X151162462Y-59148857D02*
X151106003Y-59094266D01*
X151106003Y-59094266D02*
X151082535Y-59058723D01*
X151082535Y-59058723D02*
X151068591Y-59006683D01*
X151068591Y-59006683D02*
X151080667Y-58947673D01*
X151080667Y-58947673D02*
X151099715Y-58914681D01*
X151099715Y-58914681D02*
X151144782Y-58874718D01*
X151144782Y-58874718D02*
X151170801Y-58867746D01*
X151204477Y-58733228D02*
X151328286Y-58518784D01*
X151328286Y-58518784D02*
X151393585Y-58710444D01*
X151393585Y-58710444D02*
X151422157Y-58660957D01*
X151422157Y-58660957D02*
X151457700Y-58637489D01*
X151457700Y-58637489D02*
X151483720Y-58630518D01*
X151483720Y-58630518D02*
X151526235Y-58633069D01*
X151526235Y-58633069D02*
X151608714Y-58680688D01*
X151608714Y-58680688D02*
X151632181Y-58716232D01*
X151632181Y-58716232D02*
X151639153Y-58742251D01*
X151639153Y-58742251D02*
X151636601Y-58784767D01*
X151636601Y-58784767D02*
X151579458Y-58883741D01*
X151579458Y-58883741D02*
X151543915Y-58907209D01*
X151543915Y-58907209D02*
X151517895Y-58914180D01*
D10*
X148269580Y-111195239D02*
X148317200Y-111242858D01*
X148317200Y-111242858D02*
X148364819Y-111385715D01*
X148364819Y-111385715D02*
X148364819Y-111480953D01*
X148364819Y-111480953D02*
X148317200Y-111623810D01*
X148317200Y-111623810D02*
X148221961Y-111719048D01*
X148221961Y-111719048D02*
X148126723Y-111766667D01*
X148126723Y-111766667D02*
X147936247Y-111814286D01*
X147936247Y-111814286D02*
X147793390Y-111814286D01*
X147793390Y-111814286D02*
X147602914Y-111766667D01*
X147602914Y-111766667D02*
X147507676Y-111719048D01*
X147507676Y-111719048D02*
X147412438Y-111623810D01*
X147412438Y-111623810D02*
X147364819Y-111480953D01*
X147364819Y-111480953D02*
X147364819Y-111385715D01*
X147364819Y-111385715D02*
X147412438Y-111242858D01*
X147412438Y-111242858D02*
X147460057Y-111195239D01*
X148364819Y-110623810D02*
X148317200Y-110719048D01*
X148317200Y-110719048D02*
X148269580Y-110766667D01*
X148269580Y-110766667D02*
X148174342Y-110814286D01*
X148174342Y-110814286D02*
X147888628Y-110814286D01*
X147888628Y-110814286D02*
X147793390Y-110766667D01*
X147793390Y-110766667D02*
X147745771Y-110719048D01*
X147745771Y-110719048D02*
X147698152Y-110623810D01*
X147698152Y-110623810D02*
X147698152Y-110480953D01*
X147698152Y-110480953D02*
X147745771Y-110385715D01*
X147745771Y-110385715D02*
X147793390Y-110338096D01*
X147793390Y-110338096D02*
X147888628Y-110290477D01*
X147888628Y-110290477D02*
X148174342Y-110290477D01*
X148174342Y-110290477D02*
X148269580Y-110338096D01*
X148269580Y-110338096D02*
X148317200Y-110385715D01*
X148317200Y-110385715D02*
X148364819Y-110480953D01*
X148364819Y-110480953D02*
X148364819Y-110623810D01*
X147698152Y-109861905D02*
X148364819Y-109861905D01*
X147793390Y-109861905D02*
X147745771Y-109814286D01*
X147745771Y-109814286D02*
X147698152Y-109719048D01*
X147698152Y-109719048D02*
X147698152Y-109576191D01*
X147698152Y-109576191D02*
X147745771Y-109480953D01*
X147745771Y-109480953D02*
X147841009Y-109433334D01*
X147841009Y-109433334D02*
X148364819Y-109433334D01*
X147698152Y-108957143D02*
X148364819Y-108957143D01*
X147793390Y-108957143D02*
X147745771Y-108909524D01*
X147745771Y-108909524D02*
X147698152Y-108814286D01*
X147698152Y-108814286D02*
X147698152Y-108671429D01*
X147698152Y-108671429D02*
X147745771Y-108576191D01*
X147745771Y-108576191D02*
X147841009Y-108528572D01*
X147841009Y-108528572D02*
X148364819Y-108528572D01*
X148460057Y-108290477D02*
X148460057Y-107528572D01*
X147364819Y-107100000D02*
X147364819Y-107004762D01*
X147364819Y-107004762D02*
X147412438Y-106909524D01*
X147412438Y-106909524D02*
X147460057Y-106861905D01*
X147460057Y-106861905D02*
X147555295Y-106814286D01*
X147555295Y-106814286D02*
X147745771Y-106766667D01*
X147745771Y-106766667D02*
X147983866Y-106766667D01*
X147983866Y-106766667D02*
X148174342Y-106814286D01*
X148174342Y-106814286D02*
X148269580Y-106861905D01*
X148269580Y-106861905D02*
X148317200Y-106909524D01*
X148317200Y-106909524D02*
X148364819Y-107004762D01*
X148364819Y-107004762D02*
X148364819Y-107100000D01*
X148364819Y-107100000D02*
X148317200Y-107195238D01*
X148317200Y-107195238D02*
X148269580Y-107242857D01*
X148269580Y-107242857D02*
X148174342Y-107290476D01*
X148174342Y-107290476D02*
X147983866Y-107338095D01*
X147983866Y-107338095D02*
X147745771Y-107338095D01*
X147745771Y-107338095D02*
X147555295Y-107290476D01*
X147555295Y-107290476D02*
X147460057Y-107242857D01*
X147460057Y-107242857D02*
X147412438Y-107195238D01*
X147412438Y-107195238D02*
X147364819Y-107100000D01*
X148364819Y-105814286D02*
X148364819Y-106385714D01*
X148364819Y-106100000D02*
X147364819Y-106100000D01*
X147364819Y-106100000D02*
X147507676Y-106195238D01*
X147507676Y-106195238D02*
X147602914Y-106290476D01*
X147602914Y-106290476D02*
X147650533Y-106385714D01*
X148364819Y-105480952D02*
X147698152Y-104957143D01*
X147698152Y-105480952D02*
X148364819Y-104957143D01*
X147364819Y-104385714D02*
X147364819Y-104290476D01*
X147364819Y-104290476D02*
X147412438Y-104195238D01*
X147412438Y-104195238D02*
X147460057Y-104147619D01*
X147460057Y-104147619D02*
X147555295Y-104100000D01*
X147555295Y-104100000D02*
X147745771Y-104052381D01*
X147745771Y-104052381D02*
X147983866Y-104052381D01*
X147983866Y-104052381D02*
X148174342Y-104100000D01*
X148174342Y-104100000D02*
X148269580Y-104147619D01*
X148269580Y-104147619D02*
X148317200Y-104195238D01*
X148317200Y-104195238D02*
X148364819Y-104290476D01*
X148364819Y-104290476D02*
X148364819Y-104385714D01*
X148364819Y-104385714D02*
X148317200Y-104480952D01*
X148317200Y-104480952D02*
X148269580Y-104528571D01*
X148269580Y-104528571D02*
X148174342Y-104576190D01*
X148174342Y-104576190D02*
X147983866Y-104623809D01*
X147983866Y-104623809D02*
X147745771Y-104623809D01*
X147745771Y-104623809D02*
X147555295Y-104576190D01*
X147555295Y-104576190D02*
X147460057Y-104528571D01*
X147460057Y-104528571D02*
X147412438Y-104480952D01*
X147412438Y-104480952D02*
X147364819Y-104385714D01*
X147364819Y-103147619D02*
X147364819Y-103623809D01*
X147364819Y-103623809D02*
X147841009Y-103671428D01*
X147841009Y-103671428D02*
X147793390Y-103623809D01*
X147793390Y-103623809D02*
X147745771Y-103528571D01*
X147745771Y-103528571D02*
X147745771Y-103290476D01*
X147745771Y-103290476D02*
X147793390Y-103195238D01*
X147793390Y-103195238D02*
X147841009Y-103147619D01*
X147841009Y-103147619D02*
X147936247Y-103100000D01*
X147936247Y-103100000D02*
X148174342Y-103100000D01*
X148174342Y-103100000D02*
X148269580Y-103147619D01*
X148269580Y-103147619D02*
X148317200Y-103195238D01*
X148317200Y-103195238D02*
X148364819Y-103290476D01*
X148364819Y-103290476D02*
X148364819Y-103528571D01*
X148364819Y-103528571D02*
X148317200Y-103623809D01*
X148317200Y-103623809D02*
X148269580Y-103671428D01*
X148460057Y-102909524D02*
X148460057Y-102147619D01*
X148317200Y-101957142D02*
X148364819Y-101814285D01*
X148364819Y-101814285D02*
X148364819Y-101576190D01*
X148364819Y-101576190D02*
X148317200Y-101480952D01*
X148317200Y-101480952D02*
X148269580Y-101433333D01*
X148269580Y-101433333D02*
X148174342Y-101385714D01*
X148174342Y-101385714D02*
X148079104Y-101385714D01*
X148079104Y-101385714D02*
X147983866Y-101433333D01*
X147983866Y-101433333D02*
X147936247Y-101480952D01*
X147936247Y-101480952D02*
X147888628Y-101576190D01*
X147888628Y-101576190D02*
X147841009Y-101766666D01*
X147841009Y-101766666D02*
X147793390Y-101861904D01*
X147793390Y-101861904D02*
X147745771Y-101909523D01*
X147745771Y-101909523D02*
X147650533Y-101957142D01*
X147650533Y-101957142D02*
X147555295Y-101957142D01*
X147555295Y-101957142D02*
X147460057Y-101909523D01*
X147460057Y-101909523D02*
X147412438Y-101861904D01*
X147412438Y-101861904D02*
X147364819Y-101766666D01*
X147364819Y-101766666D02*
X147364819Y-101528571D01*
X147364819Y-101528571D02*
X147412438Y-101385714D01*
X148364819Y-100814285D02*
X148317200Y-100909523D01*
X148317200Y-100909523D02*
X148269580Y-100957142D01*
X148269580Y-100957142D02*
X148174342Y-101004761D01*
X148174342Y-101004761D02*
X147888628Y-101004761D01*
X147888628Y-101004761D02*
X147793390Y-100957142D01*
X147793390Y-100957142D02*
X147745771Y-100909523D01*
X147745771Y-100909523D02*
X147698152Y-100814285D01*
X147698152Y-100814285D02*
X147698152Y-100671428D01*
X147698152Y-100671428D02*
X147745771Y-100576190D01*
X147745771Y-100576190D02*
X147793390Y-100528571D01*
X147793390Y-100528571D02*
X147888628Y-100480952D01*
X147888628Y-100480952D02*
X148174342Y-100480952D01*
X148174342Y-100480952D02*
X148269580Y-100528571D01*
X148269580Y-100528571D02*
X148317200Y-100576190D01*
X148317200Y-100576190D02*
X148364819Y-100671428D01*
X148364819Y-100671428D02*
X148364819Y-100814285D01*
X148317200Y-99623809D02*
X148364819Y-99719047D01*
X148364819Y-99719047D02*
X148364819Y-99909523D01*
X148364819Y-99909523D02*
X148317200Y-100004761D01*
X148317200Y-100004761D02*
X148269580Y-100052380D01*
X148269580Y-100052380D02*
X148174342Y-100099999D01*
X148174342Y-100099999D02*
X147888628Y-100099999D01*
X147888628Y-100099999D02*
X147793390Y-100052380D01*
X147793390Y-100052380D02*
X147745771Y-100004761D01*
X147745771Y-100004761D02*
X147698152Y-99909523D01*
X147698152Y-99909523D02*
X147698152Y-99719047D01*
X147698152Y-99719047D02*
X147745771Y-99623809D01*
X148364819Y-99195237D02*
X147364819Y-99195237D01*
X147983866Y-99099999D02*
X148364819Y-98814285D01*
X147698152Y-98814285D02*
X148079104Y-99195237D01*
X148317200Y-98004761D02*
X148364819Y-98099999D01*
X148364819Y-98099999D02*
X148364819Y-98290475D01*
X148364819Y-98290475D02*
X148317200Y-98385713D01*
X148317200Y-98385713D02*
X148221961Y-98433332D01*
X148221961Y-98433332D02*
X147841009Y-98433332D01*
X147841009Y-98433332D02*
X147745771Y-98385713D01*
X147745771Y-98385713D02*
X147698152Y-98290475D01*
X147698152Y-98290475D02*
X147698152Y-98099999D01*
X147698152Y-98099999D02*
X147745771Y-98004761D01*
X147745771Y-98004761D02*
X147841009Y-97957142D01*
X147841009Y-97957142D02*
X147936247Y-97957142D01*
X147936247Y-97957142D02*
X148031485Y-98433332D01*
X147698152Y-97671427D02*
X147698152Y-97290475D01*
X147364819Y-97528570D02*
X148221961Y-97528570D01*
X148221961Y-97528570D02*
X148317200Y-97480951D01*
X148317200Y-97480951D02*
X148364819Y-97385713D01*
X148364819Y-97385713D02*
X148364819Y-97290475D01*
X139726666Y-104054819D02*
X139726666Y-104769104D01*
X139726666Y-104769104D02*
X139679047Y-104911961D01*
X139679047Y-104911961D02*
X139583809Y-105007200D01*
X139583809Y-105007200D02*
X139440952Y-105054819D01*
X139440952Y-105054819D02*
X139345714Y-105054819D01*
X140155238Y-104150057D02*
X140202857Y-104102438D01*
X140202857Y-104102438D02*
X140298095Y-104054819D01*
X140298095Y-104054819D02*
X140536190Y-104054819D01*
X140536190Y-104054819D02*
X140631428Y-104102438D01*
X140631428Y-104102438D02*
X140679047Y-104150057D01*
X140679047Y-104150057D02*
X140726666Y-104245295D01*
X140726666Y-104245295D02*
X140726666Y-104340533D01*
X140726666Y-104340533D02*
X140679047Y-104483390D01*
X140679047Y-104483390D02*
X140107619Y-105054819D01*
X140107619Y-105054819D02*
X140726666Y-105054819D01*
X126734819Y-69635713D02*
X125734819Y-69635713D01*
X125734819Y-69635713D02*
X125734819Y-69397618D01*
X125734819Y-69397618D02*
X125782438Y-69254761D01*
X125782438Y-69254761D02*
X125877676Y-69159523D01*
X125877676Y-69159523D02*
X125972914Y-69111904D01*
X125972914Y-69111904D02*
X126163390Y-69064285D01*
X126163390Y-69064285D02*
X126306247Y-69064285D01*
X126306247Y-69064285D02*
X126496723Y-69111904D01*
X126496723Y-69111904D02*
X126591961Y-69159523D01*
X126591961Y-69159523D02*
X126687200Y-69254761D01*
X126687200Y-69254761D02*
X126734819Y-69397618D01*
X126734819Y-69397618D02*
X126734819Y-69635713D01*
X126734819Y-68635713D02*
X125734819Y-68635713D01*
X125734819Y-68635713D02*
X126734819Y-68064285D01*
X126734819Y-68064285D02*
X125734819Y-68064285D01*
X126734819Y-67588094D02*
X125734819Y-67588094D01*
X125734819Y-67588094D02*
X125734819Y-67207142D01*
X125734819Y-67207142D02*
X125782438Y-67111904D01*
X125782438Y-67111904D02*
X125830057Y-67064285D01*
X125830057Y-67064285D02*
X125925295Y-67016666D01*
X125925295Y-67016666D02*
X126068152Y-67016666D01*
X126068152Y-67016666D02*
X126163390Y-67064285D01*
X126163390Y-67064285D02*
X126211009Y-67111904D01*
X126211009Y-67111904D02*
X126258628Y-67207142D01*
X126258628Y-67207142D02*
X126258628Y-67588094D01*
D11*
X127891927Y-68416666D02*
X127701451Y-68549999D01*
X127891927Y-68645237D02*
X127491927Y-68645237D01*
X127491927Y-68645237D02*
X127491927Y-68492856D01*
X127491927Y-68492856D02*
X127510975Y-68454761D01*
X127510975Y-68454761D02*
X127530022Y-68435714D01*
X127530022Y-68435714D02*
X127568118Y-68416666D01*
X127568118Y-68416666D02*
X127625260Y-68416666D01*
X127625260Y-68416666D02*
X127663356Y-68435714D01*
X127663356Y-68435714D02*
X127682403Y-68454761D01*
X127682403Y-68454761D02*
X127701451Y-68492856D01*
X127701451Y-68492856D02*
X127701451Y-68645237D01*
X127891927Y-68035714D02*
X127891927Y-68264285D01*
X127891927Y-68149999D02*
X127491927Y-68149999D01*
X127491927Y-68149999D02*
X127549070Y-68188095D01*
X127549070Y-68188095D02*
X127587165Y-68226190D01*
X127587165Y-68226190D02*
X127606213Y-68264285D01*
D10*
X155775410Y-96531327D02*
X155823029Y-96613806D01*
X155823029Y-96613806D02*
X155829409Y-96720094D01*
X155829409Y-96720094D02*
X155811979Y-96785143D01*
X155811979Y-96785143D02*
X155753310Y-96874001D01*
X155753310Y-96874001D02*
X155612162Y-97010479D01*
X155612162Y-97010479D02*
X155405965Y-97129526D01*
X155405965Y-97129526D02*
X155217199Y-97183525D01*
X155217199Y-97183525D02*
X155110911Y-97189905D01*
X155110911Y-97189905D02*
X155045862Y-97172475D01*
X155045862Y-97172475D02*
X154957003Y-97113806D01*
X154957003Y-97113806D02*
X154909384Y-97031327D01*
X154909384Y-97031327D02*
X154903005Y-96925039D01*
X154903005Y-96925039D02*
X154920434Y-96859991D01*
X154920434Y-96859991D02*
X154979103Y-96771132D01*
X154979103Y-96771132D02*
X155120251Y-96634655D01*
X155120251Y-96634655D02*
X155326448Y-96515607D01*
X155326448Y-96515607D02*
X155515214Y-96461608D01*
X155515214Y-96461608D02*
X155621503Y-96455229D01*
X155621503Y-96455229D02*
X155686551Y-96472658D01*
X155686551Y-96472658D02*
X155775410Y-96531327D01*
X155372815Y-97643537D02*
X155355386Y-97708586D01*
X155355386Y-97708586D02*
X155290337Y-97691156D01*
X155290337Y-97691156D02*
X155307767Y-97626108D01*
X155307767Y-97626108D02*
X155372815Y-97643537D01*
X155372815Y-97643537D02*
X155290337Y-97691156D01*
X155790337Y-98557181D02*
X155504622Y-98062310D01*
X155647479Y-98309746D02*
X156513505Y-97809746D01*
X156513505Y-97809746D02*
X156342168Y-97798696D01*
X156342168Y-97798696D02*
X156212070Y-97763836D01*
X156212070Y-97763836D02*
X156123212Y-97705167D01*
X156796258Y-98966156D02*
X156218908Y-99299489D01*
X156581973Y-98595002D02*
X156128340Y-98856907D01*
X156128340Y-98856907D02*
X156069671Y-98945765D01*
X156069671Y-98945765D02*
X156076051Y-99052053D01*
X156076051Y-99052053D02*
X156147479Y-99175771D01*
X156147479Y-99175771D02*
X156236338Y-99234440D01*
X156236338Y-99234440D02*
X156301387Y-99251870D01*
X157077302Y-99738652D02*
X156910636Y-99449977D01*
X156457003Y-99711882D02*
X157323029Y-99211882D01*
X157323029Y-99211882D02*
X157561124Y-99624275D01*
D11*
X154728386Y-98955855D02*
X154702366Y-98948883D01*
X154702366Y-98948883D02*
X154657299Y-98908920D01*
X154657299Y-98908920D02*
X154638251Y-98875928D01*
X154638251Y-98875928D02*
X154626176Y-98816917D01*
X154626176Y-98816917D02*
X154640120Y-98764878D01*
X154640120Y-98764878D02*
X154663587Y-98729335D01*
X154663587Y-98729335D02*
X154720046Y-98674744D01*
X154720046Y-98674744D02*
X154769533Y-98646172D01*
X154769533Y-98646172D02*
X154845040Y-98624573D01*
X154845040Y-98624573D02*
X154887555Y-98622021D01*
X154887555Y-98622021D02*
X154939594Y-98635965D01*
X154939594Y-98635965D02*
X154984662Y-98675928D01*
X154984662Y-98675928D02*
X155003709Y-98708920D01*
X155003709Y-98708920D02*
X155015785Y-98767931D01*
X155015785Y-98767931D02*
X155008813Y-98793950D01*
X155007629Y-99058565D02*
X155005077Y-99016050D01*
X155005077Y-99016050D02*
X155012049Y-98990031D01*
X155012049Y-98990031D02*
X155035516Y-98954487D01*
X155035516Y-98954487D02*
X155052012Y-98944963D01*
X155052012Y-98944963D02*
X155094527Y-98942412D01*
X155094527Y-98942412D02*
X155120547Y-98949383D01*
X155120547Y-98949383D02*
X155156090Y-98972851D01*
X155156090Y-98972851D02*
X155194185Y-99038834D01*
X155194185Y-99038834D02*
X155196737Y-99081349D01*
X155196737Y-99081349D02*
X155189765Y-99107369D01*
X155189765Y-99107369D02*
X155166298Y-99142912D01*
X155166298Y-99142912D02*
X155149802Y-99152436D01*
X155149802Y-99152436D02*
X155107287Y-99154988D01*
X155107287Y-99154988D02*
X155081267Y-99148016D01*
X155081267Y-99148016D02*
X155045724Y-99124548D01*
X155045724Y-99124548D02*
X155007629Y-99058565D01*
X155007629Y-99058565D02*
X154972085Y-99035098D01*
X154972085Y-99035098D02*
X154946066Y-99028126D01*
X154946066Y-99028126D02*
X154903551Y-99030678D01*
X154903551Y-99030678D02*
X154837568Y-99068773D01*
X154837568Y-99068773D02*
X154814100Y-99104316D01*
X154814100Y-99104316D02*
X154807128Y-99130336D01*
X154807128Y-99130336D02*
X154809680Y-99172851D01*
X154809680Y-99172851D02*
X154847775Y-99238834D01*
X154847775Y-99238834D02*
X154883319Y-99262302D01*
X154883319Y-99262302D02*
X154909338Y-99269274D01*
X154909338Y-99269274D02*
X154951853Y-99266722D01*
X154951853Y-99266722D02*
X155017836Y-99228626D01*
X155017836Y-99228626D02*
X155041304Y-99193083D01*
X155041304Y-99193083D02*
X155048276Y-99167064D01*
X155048276Y-99167064D02*
X155045724Y-99124548D01*
D10*
X128594819Y-74492856D02*
X128594819Y-74397618D01*
X128594819Y-74397618D02*
X128642438Y-74302380D01*
X128642438Y-74302380D02*
X128690057Y-74254761D01*
X128690057Y-74254761D02*
X128785295Y-74207142D01*
X128785295Y-74207142D02*
X128975771Y-74159523D01*
X128975771Y-74159523D02*
X129213866Y-74159523D01*
X129213866Y-74159523D02*
X129404342Y-74207142D01*
X129404342Y-74207142D02*
X129499580Y-74254761D01*
X129499580Y-74254761D02*
X129547200Y-74302380D01*
X129547200Y-74302380D02*
X129594819Y-74397618D01*
X129594819Y-74397618D02*
X129594819Y-74492856D01*
X129594819Y-74492856D02*
X129547200Y-74588094D01*
X129547200Y-74588094D02*
X129499580Y-74635713D01*
X129499580Y-74635713D02*
X129404342Y-74683332D01*
X129404342Y-74683332D02*
X129213866Y-74730951D01*
X129213866Y-74730951D02*
X128975771Y-74730951D01*
X128975771Y-74730951D02*
X128785295Y-74683332D01*
X128785295Y-74683332D02*
X128690057Y-74635713D01*
X128690057Y-74635713D02*
X128642438Y-74588094D01*
X128642438Y-74588094D02*
X128594819Y-74492856D01*
X129499580Y-73730951D02*
X129547200Y-73683332D01*
X129547200Y-73683332D02*
X129594819Y-73730951D01*
X129594819Y-73730951D02*
X129547200Y-73778570D01*
X129547200Y-73778570D02*
X129499580Y-73730951D01*
X129499580Y-73730951D02*
X129594819Y-73730951D01*
X129594819Y-72730952D02*
X129594819Y-73302380D01*
X129594819Y-73016666D02*
X128594819Y-73016666D01*
X128594819Y-73016666D02*
X128737676Y-73111904D01*
X128737676Y-73111904D02*
X128832914Y-73207142D01*
X128832914Y-73207142D02*
X128880533Y-73302380D01*
X128928152Y-71873809D02*
X129594819Y-71873809D01*
X128928152Y-72302380D02*
X129451961Y-72302380D01*
X129451961Y-72302380D02*
X129547200Y-72254761D01*
X129547200Y-72254761D02*
X129594819Y-72159523D01*
X129594819Y-72159523D02*
X129594819Y-72016666D01*
X129594819Y-72016666D02*
X129547200Y-71921428D01*
X129547200Y-71921428D02*
X129499580Y-71873809D01*
X129071009Y-71064285D02*
X129071009Y-71397618D01*
X129594819Y-71397618D02*
X128594819Y-71397618D01*
X128594819Y-71397618D02*
X128594819Y-70921428D01*
D11*
X127853832Y-73107142D02*
X127872880Y-73126190D01*
X127872880Y-73126190D02*
X127891927Y-73183332D01*
X127891927Y-73183332D02*
X127891927Y-73221428D01*
X127891927Y-73221428D02*
X127872880Y-73278571D01*
X127872880Y-73278571D02*
X127834784Y-73316666D01*
X127834784Y-73316666D02*
X127796689Y-73335713D01*
X127796689Y-73335713D02*
X127720499Y-73354761D01*
X127720499Y-73354761D02*
X127663356Y-73354761D01*
X127663356Y-73354761D02*
X127587165Y-73335713D01*
X127587165Y-73335713D02*
X127549070Y-73316666D01*
X127549070Y-73316666D02*
X127510975Y-73278571D01*
X127510975Y-73278571D02*
X127491927Y-73221428D01*
X127491927Y-73221428D02*
X127491927Y-73183332D01*
X127491927Y-73183332D02*
X127510975Y-73126190D01*
X127510975Y-73126190D02*
X127530022Y-73107142D01*
X127891927Y-72726190D02*
X127891927Y-72954761D01*
X127891927Y-72840475D02*
X127491927Y-72840475D01*
X127491927Y-72840475D02*
X127549070Y-72878571D01*
X127549070Y-72878571D02*
X127587165Y-72916666D01*
X127587165Y-72916666D02*
X127606213Y-72954761D01*
X127625260Y-72383333D02*
X127891927Y-72383333D01*
X127472880Y-72478571D02*
X127758594Y-72573809D01*
X127758594Y-72573809D02*
X127758594Y-72326190D01*
D10*
X151445283Y-99031327D02*
X151492902Y-99113806D01*
X151492902Y-99113806D02*
X151499282Y-99220094D01*
X151499282Y-99220094D02*
X151481852Y-99285143D01*
X151481852Y-99285143D02*
X151423183Y-99374001D01*
X151423183Y-99374001D02*
X151282035Y-99510479D01*
X151282035Y-99510479D02*
X151075838Y-99629526D01*
X151075838Y-99629526D02*
X150887072Y-99683525D01*
X150887072Y-99683525D02*
X150780784Y-99689905D01*
X150780784Y-99689905D02*
X150715735Y-99672475D01*
X150715735Y-99672475D02*
X150626876Y-99613806D01*
X150626876Y-99613806D02*
X150579257Y-99531327D01*
X150579257Y-99531327D02*
X150572878Y-99425039D01*
X150572878Y-99425039D02*
X150590307Y-99359991D01*
X150590307Y-99359991D02*
X150648976Y-99271132D01*
X150648976Y-99271132D02*
X150790124Y-99134655D01*
X150790124Y-99134655D02*
X150996321Y-99015607D01*
X150996321Y-99015607D02*
X151185087Y-98961608D01*
X151185087Y-98961608D02*
X151291376Y-98955229D01*
X151291376Y-98955229D02*
X151356424Y-98972658D01*
X151356424Y-98972658D02*
X151445283Y-99031327D01*
X151042688Y-100143537D02*
X151025259Y-100208586D01*
X151025259Y-100208586D02*
X150960210Y-100191156D01*
X150960210Y-100191156D02*
X150977640Y-100126108D01*
X150977640Y-100126108D02*
X151042688Y-100143537D01*
X151042688Y-100143537D02*
X150960210Y-100191156D01*
X151460210Y-101057181D02*
X151174495Y-100562310D01*
X151317352Y-100809746D02*
X152183378Y-100309746D01*
X152183378Y-100309746D02*
X152012041Y-100298696D01*
X152012041Y-100298696D02*
X151881943Y-100263836D01*
X151881943Y-100263836D02*
X151793085Y-100205167D01*
X152466131Y-101466156D02*
X151888781Y-101799489D01*
X152251846Y-101095002D02*
X151798213Y-101356907D01*
X151798213Y-101356907D02*
X151739544Y-101445765D01*
X151739544Y-101445765D02*
X151745924Y-101552053D01*
X151745924Y-101552053D02*
X151817352Y-101675771D01*
X151817352Y-101675771D02*
X151906211Y-101734440D01*
X151906211Y-101734440D02*
X151971260Y-101751870D01*
X152747175Y-102238652D02*
X152580509Y-101949977D01*
X152126876Y-102211882D02*
X152992902Y-101711882D01*
X152992902Y-101711882D02*
X153230997Y-102124275D01*
D11*
X150398259Y-101455855D02*
X150372239Y-101448883D01*
X150372239Y-101448883D02*
X150327172Y-101408920D01*
X150327172Y-101408920D02*
X150308124Y-101375928D01*
X150308124Y-101375928D02*
X150296049Y-101316917D01*
X150296049Y-101316917D02*
X150309993Y-101264878D01*
X150309993Y-101264878D02*
X150333460Y-101229335D01*
X150333460Y-101229335D02*
X150389919Y-101174744D01*
X150389919Y-101174744D02*
X150439406Y-101146172D01*
X150439406Y-101146172D02*
X150514913Y-101124573D01*
X150514913Y-101124573D02*
X150557428Y-101122021D01*
X150557428Y-101122021D02*
X150609467Y-101135965D01*
X150609467Y-101135965D02*
X150654535Y-101175928D01*
X150654535Y-101175928D02*
X150673582Y-101208920D01*
X150673582Y-101208920D02*
X150685658Y-101267931D01*
X150685658Y-101267931D02*
X150678686Y-101293950D01*
X150883106Y-101571825D02*
X150845011Y-101505843D01*
X150845011Y-101505843D02*
X150809467Y-101482375D01*
X150809467Y-101482375D02*
X150783448Y-101475403D01*
X150783448Y-101475403D02*
X150714913Y-101470983D01*
X150714913Y-101470983D02*
X150639406Y-101492583D01*
X150639406Y-101492583D02*
X150507441Y-101568773D01*
X150507441Y-101568773D02*
X150483973Y-101604316D01*
X150483973Y-101604316D02*
X150477001Y-101630336D01*
X150477001Y-101630336D02*
X150479553Y-101672851D01*
X150479553Y-101672851D02*
X150517648Y-101738834D01*
X150517648Y-101738834D02*
X150553192Y-101762302D01*
X150553192Y-101762302D02*
X150579211Y-101769274D01*
X150579211Y-101769274D02*
X150621726Y-101766722D01*
X150621726Y-101766722D02*
X150704205Y-101719103D01*
X150704205Y-101719103D02*
X150727673Y-101683559D01*
X150727673Y-101683559D02*
X150734645Y-101657540D01*
X150734645Y-101657540D02*
X150732093Y-101615024D01*
X150732093Y-101615024D02*
X150693997Y-101549042D01*
X150693997Y-101549042D02*
X150658454Y-101525574D01*
X150658454Y-101525574D02*
X150632435Y-101518602D01*
X150632435Y-101518602D02*
X150589919Y-101521154D01*
D10*
X160387026Y-83529396D02*
X160321977Y-83546825D01*
X160321977Y-83546825D02*
X160174450Y-83516636D01*
X160174450Y-83516636D02*
X160091971Y-83469017D01*
X160091971Y-83469017D02*
X159992063Y-83356349D01*
X159992063Y-83356349D02*
X159957203Y-83226252D01*
X159957203Y-83226252D02*
X159963583Y-83119963D01*
X159963583Y-83119963D02*
X160017582Y-82931197D01*
X160017582Y-82931197D02*
X160089010Y-82807479D01*
X160089010Y-82807479D02*
X160225488Y-82666331D01*
X160225488Y-82666331D02*
X160314346Y-82607662D01*
X160314346Y-82607662D02*
X160444444Y-82572802D01*
X160444444Y-82572802D02*
X160591971Y-82602992D01*
X160591971Y-82602992D02*
X160674450Y-82650611D01*
X160674450Y-82650611D02*
X160774358Y-82763279D01*
X160774358Y-82763279D02*
X160791788Y-82828327D01*
X160834279Y-83897589D02*
X160775610Y-83808730D01*
X160775610Y-83808730D02*
X160758180Y-83743681D01*
X160758180Y-83743681D02*
X160764560Y-83637393D01*
X160764560Y-83637393D02*
X160907417Y-83389957D01*
X160907417Y-83389957D02*
X160996275Y-83331288D01*
X160996275Y-83331288D02*
X161061324Y-83313859D01*
X161061324Y-83313859D02*
X161167612Y-83320238D01*
X161167612Y-83320238D02*
X161291330Y-83391667D01*
X161291330Y-83391667D02*
X161349999Y-83480525D01*
X161349999Y-83480525D02*
X161367429Y-83545574D01*
X161367429Y-83545574D02*
X161361049Y-83651862D01*
X161361049Y-83651862D02*
X161218192Y-83899298D01*
X161218192Y-83899298D02*
X161129334Y-83957967D01*
X161129334Y-83957967D02*
X161064285Y-83975397D01*
X161064285Y-83975397D02*
X160957997Y-83969017D01*
X160957997Y-83969017D02*
X160834279Y-83897589D01*
X161827441Y-83701191D02*
X161494108Y-84278541D01*
X161779822Y-83783669D02*
X161844871Y-83766240D01*
X161844871Y-83766240D02*
X161951159Y-83772619D01*
X161951159Y-83772619D02*
X162074877Y-83844048D01*
X162074877Y-83844048D02*
X162133546Y-83932906D01*
X162133546Y-83932906D02*
X162127166Y-84039194D01*
X162127166Y-84039194D02*
X161865262Y-84492827D01*
X162610988Y-84153572D02*
X162277655Y-84730922D01*
X162563369Y-84236050D02*
X162628418Y-84218621D01*
X162628418Y-84218621D02*
X162734706Y-84225000D01*
X162734706Y-84225000D02*
X162858424Y-84296429D01*
X162858424Y-84296429D02*
X162917093Y-84385287D01*
X162917093Y-84385287D02*
X162910713Y-84491575D01*
X162910713Y-84491575D02*
X162648808Y-84945208D01*
X162807386Y-85146734D02*
X163467215Y-85527686D01*
X164385988Y-84793468D02*
X164468466Y-84841087D01*
X164468466Y-84841087D02*
X164527136Y-84929946D01*
X164527136Y-84929946D02*
X164544565Y-84994994D01*
X164544565Y-84994994D02*
X164538186Y-85101283D01*
X164538186Y-85101283D02*
X164484187Y-85290049D01*
X164484187Y-85290049D02*
X164365139Y-85496246D01*
X164365139Y-85496246D02*
X164228662Y-85637393D01*
X164228662Y-85637393D02*
X164139803Y-85696063D01*
X164139803Y-85696063D02*
X164074755Y-85713492D01*
X164074755Y-85713492D02*
X163968466Y-85707113D01*
X163968466Y-85707113D02*
X163885988Y-85659494D01*
X163885988Y-85659494D02*
X163827319Y-85570635D01*
X163827319Y-85570635D02*
X163809889Y-85505586D01*
X163809889Y-85505586D02*
X163816269Y-85399298D01*
X163816269Y-85399298D02*
X163870267Y-85210532D01*
X163870267Y-85210532D02*
X163989315Y-85004335D01*
X163989315Y-85004335D02*
X164125793Y-84863187D01*
X164125793Y-84863187D02*
X164214651Y-84804518D01*
X164214651Y-84804518D02*
X164279700Y-84787088D01*
X164279700Y-84787088D02*
X164385988Y-84793468D01*
X164999449Y-86302351D02*
X164504577Y-86016636D01*
X164752013Y-86159494D02*
X165252013Y-85293468D01*
X165252013Y-85293468D02*
X165098106Y-85369567D01*
X165098106Y-85369567D02*
X164968008Y-85404427D01*
X164968008Y-85404427D02*
X164861720Y-85398047D01*
X165288124Y-86469017D02*
X166075090Y-86153572D01*
X165621458Y-85891667D02*
X165741757Y-86730922D01*
X166736628Y-86150611D02*
X166819107Y-86198230D01*
X166819107Y-86198230D02*
X166877776Y-86287089D01*
X166877776Y-86287089D02*
X166895206Y-86352137D01*
X166895206Y-86352137D02*
X166888826Y-86458426D01*
X166888826Y-86458426D02*
X166834827Y-86647192D01*
X166834827Y-86647192D02*
X166715780Y-86853389D01*
X166715780Y-86853389D02*
X166579302Y-86994536D01*
X166579302Y-86994536D02*
X166490444Y-87053206D01*
X166490444Y-87053206D02*
X166425395Y-87070635D01*
X166425395Y-87070635D02*
X166319107Y-87064256D01*
X166319107Y-87064256D02*
X166236628Y-87016637D01*
X166236628Y-87016637D02*
X166177959Y-86927778D01*
X166177959Y-86927778D02*
X166160530Y-86862729D01*
X166160530Y-86862729D02*
X166166909Y-86756441D01*
X166166909Y-86756441D02*
X166220908Y-86567675D01*
X166220908Y-86567675D02*
X166339956Y-86361478D01*
X166339956Y-86361478D02*
X166476433Y-86220330D01*
X166476433Y-86220330D02*
X166565291Y-86161661D01*
X166565291Y-86161661D02*
X166630340Y-86144231D01*
X166630340Y-86144231D02*
X166736628Y-86150611D01*
X167808850Y-86769659D02*
X167396457Y-86531564D01*
X167396457Y-86531564D02*
X167117123Y-86920147D01*
X167117123Y-86920147D02*
X167182172Y-86902717D01*
X167182172Y-86902717D02*
X167288460Y-86909097D01*
X167288460Y-86909097D02*
X167494656Y-87028145D01*
X167494656Y-87028145D02*
X167553325Y-87117003D01*
X167553325Y-87117003D02*
X167570755Y-87182052D01*
X167570755Y-87182052D02*
X167564375Y-87288340D01*
X167564375Y-87288340D02*
X167445328Y-87494537D01*
X167445328Y-87494537D02*
X167356469Y-87553206D01*
X167356469Y-87553206D02*
X167291421Y-87570635D01*
X167291421Y-87570635D02*
X167185133Y-87564256D01*
X167185133Y-87564256D02*
X166978936Y-87445208D01*
X166978936Y-87445208D02*
X166920267Y-87356350D01*
X166920267Y-87356350D02*
X166902837Y-87291301D01*
X167467428Y-87837210D02*
X168127257Y-88218163D01*
X168381073Y-88254732D02*
X168881073Y-87388707D01*
X168881073Y-87388707D02*
X169210987Y-87579183D01*
X169210987Y-87579183D02*
X169269656Y-87668041D01*
X169269656Y-87668041D02*
X169287086Y-87733090D01*
X169287086Y-87733090D02*
X169280706Y-87839378D01*
X169280706Y-87839378D02*
X169209278Y-87963096D01*
X169209278Y-87963096D02*
X169120419Y-88021765D01*
X169120419Y-88021765D02*
X169055370Y-88039195D01*
X169055370Y-88039195D02*
X168949082Y-88032815D01*
X168949082Y-88032815D02*
X168619168Y-87842339D01*
X169247098Y-88754732D02*
X169580431Y-88177382D01*
X169747098Y-87888707D02*
X169682049Y-87906136D01*
X169682049Y-87906136D02*
X169699479Y-87971185D01*
X169699479Y-87971185D02*
X169764528Y-87953755D01*
X169764528Y-87953755D02*
X169747098Y-87888707D01*
X169747098Y-87888707D02*
X169699479Y-87971185D01*
X169992824Y-88415477D02*
X169659491Y-88992827D01*
X169945205Y-88497955D02*
X170010254Y-88480526D01*
X170010254Y-88480526D02*
X170116542Y-88486905D01*
X170116542Y-88486905D02*
X170240260Y-88558334D01*
X170240260Y-88558334D02*
X170298929Y-88647192D01*
X170298929Y-88647192D02*
X170292549Y-88753480D01*
X170292549Y-88753480D02*
X170030644Y-89207113D01*
X157743915Y-98161192D02*
X157386772Y-98779782D01*
X157386772Y-98779782D02*
X157274104Y-98879690D01*
X157274104Y-98879690D02*
X157144006Y-98914550D01*
X157144006Y-98914550D02*
X156996479Y-98884360D01*
X156996479Y-98884360D02*
X156914000Y-98836741D01*
X158073829Y-98351669D02*
X158609940Y-98661192D01*
X158609940Y-98661192D02*
X158130789Y-98824440D01*
X158130789Y-98824440D02*
X158254507Y-98895869D01*
X158254507Y-98895869D02*
X158313176Y-98984727D01*
X158313176Y-98984727D02*
X158330606Y-99049776D01*
X158330606Y-99049776D02*
X158324226Y-99156064D01*
X158324226Y-99156064D02*
X158205178Y-99362261D01*
X158205178Y-99362261D02*
X158116320Y-99420930D01*
X158116320Y-99420930D02*
X158051271Y-99438359D01*
X158051271Y-99438359D02*
X157944983Y-99431980D01*
X157944983Y-99431980D02*
X157697547Y-99289122D01*
X157697547Y-99289122D02*
X157638878Y-99200264D01*
X157638878Y-99200264D02*
X157621448Y-99135215D01*
X125879643Y-63424819D02*
X125974881Y-63424819D01*
X125974881Y-63424819D02*
X126070119Y-63472438D01*
X126070119Y-63472438D02*
X126117738Y-63520057D01*
X126117738Y-63520057D02*
X126165357Y-63615295D01*
X126165357Y-63615295D02*
X126212976Y-63805771D01*
X126212976Y-63805771D02*
X126212976Y-64043866D01*
X126212976Y-64043866D02*
X126165357Y-64234342D01*
X126165357Y-64234342D02*
X126117738Y-64329580D01*
X126117738Y-64329580D02*
X126070119Y-64377200D01*
X126070119Y-64377200D02*
X125974881Y-64424819D01*
X125974881Y-64424819D02*
X125879643Y-64424819D01*
X125879643Y-64424819D02*
X125784405Y-64377200D01*
X125784405Y-64377200D02*
X125736786Y-64329580D01*
X125736786Y-64329580D02*
X125689167Y-64234342D01*
X125689167Y-64234342D02*
X125641548Y-64043866D01*
X125641548Y-64043866D02*
X125641548Y-63805771D01*
X125641548Y-63805771D02*
X125689167Y-63615295D01*
X125689167Y-63615295D02*
X125736786Y-63520057D01*
X125736786Y-63520057D02*
X125784405Y-63472438D01*
X125784405Y-63472438D02*
X125879643Y-63424819D01*
X126641548Y-64329580D02*
X126689167Y-64377200D01*
X126689167Y-64377200D02*
X126641548Y-64424819D01*
X126641548Y-64424819D02*
X126593929Y-64377200D01*
X126593929Y-64377200D02*
X126641548Y-64329580D01*
X126641548Y-64329580D02*
X126641548Y-64424819D01*
X127641547Y-64424819D02*
X127070119Y-64424819D01*
X127355833Y-64424819D02*
X127355833Y-63424819D01*
X127355833Y-63424819D02*
X127260595Y-63567676D01*
X127260595Y-63567676D02*
X127165357Y-63662914D01*
X127165357Y-63662914D02*
X127070119Y-63710533D01*
X128498690Y-63758152D02*
X128498690Y-64424819D01*
X128070119Y-63758152D02*
X128070119Y-64281961D01*
X128070119Y-64281961D02*
X128117738Y-64377200D01*
X128117738Y-64377200D02*
X128212976Y-64424819D01*
X128212976Y-64424819D02*
X128355833Y-64424819D01*
X128355833Y-64424819D02*
X128451071Y-64377200D01*
X128451071Y-64377200D02*
X128498690Y-64329580D01*
X129308214Y-63901009D02*
X128974881Y-63901009D01*
X128974881Y-64424819D02*
X128974881Y-63424819D01*
X128974881Y-63424819D02*
X129451071Y-63424819D01*
D11*
X127265357Y-65543833D02*
X127246309Y-65562881D01*
X127246309Y-65562881D02*
X127189167Y-65581928D01*
X127189167Y-65581928D02*
X127151071Y-65581928D01*
X127151071Y-65581928D02*
X127093928Y-65562881D01*
X127093928Y-65562881D02*
X127055833Y-65524785D01*
X127055833Y-65524785D02*
X127036786Y-65486690D01*
X127036786Y-65486690D02*
X127017738Y-65410500D01*
X127017738Y-65410500D02*
X127017738Y-65353357D01*
X127017738Y-65353357D02*
X127036786Y-65277166D01*
X127036786Y-65277166D02*
X127055833Y-65239071D01*
X127055833Y-65239071D02*
X127093928Y-65200976D01*
X127093928Y-65200976D02*
X127151071Y-65181928D01*
X127151071Y-65181928D02*
X127189167Y-65181928D01*
X127189167Y-65181928D02*
X127246309Y-65200976D01*
X127246309Y-65200976D02*
X127265357Y-65220023D01*
X127646309Y-65581928D02*
X127417738Y-65581928D01*
X127532024Y-65581928D02*
X127532024Y-65181928D01*
X127532024Y-65181928D02*
X127493928Y-65239071D01*
X127493928Y-65239071D02*
X127455833Y-65277166D01*
X127455833Y-65277166D02*
X127417738Y-65296214D01*
X127798690Y-65220023D02*
X127817738Y-65200976D01*
X127817738Y-65200976D02*
X127855833Y-65181928D01*
X127855833Y-65181928D02*
X127951071Y-65181928D01*
X127951071Y-65181928D02*
X127989166Y-65200976D01*
X127989166Y-65200976D02*
X128008214Y-65220023D01*
X128008214Y-65220023D02*
X128027261Y-65258119D01*
X128027261Y-65258119D02*
X128027261Y-65296214D01*
X128027261Y-65296214D02*
X128008214Y-65353357D01*
X128008214Y-65353357D02*
X127779642Y-65581928D01*
X127779642Y-65581928D02*
X128027261Y-65581928D01*
D10*
X127117143Y-79024819D02*
X127212381Y-79024819D01*
X127212381Y-79024819D02*
X127307619Y-79072438D01*
X127307619Y-79072438D02*
X127355238Y-79120057D01*
X127355238Y-79120057D02*
X127402857Y-79215295D01*
X127402857Y-79215295D02*
X127450476Y-79405771D01*
X127450476Y-79405771D02*
X127450476Y-79643866D01*
X127450476Y-79643866D02*
X127402857Y-79834342D01*
X127402857Y-79834342D02*
X127355238Y-79929580D01*
X127355238Y-79929580D02*
X127307619Y-79977200D01*
X127307619Y-79977200D02*
X127212381Y-80024819D01*
X127212381Y-80024819D02*
X127117143Y-80024819D01*
X127117143Y-80024819D02*
X127021905Y-79977200D01*
X127021905Y-79977200D02*
X126974286Y-79929580D01*
X126974286Y-79929580D02*
X126926667Y-79834342D01*
X126926667Y-79834342D02*
X126879048Y-79643866D01*
X126879048Y-79643866D02*
X126879048Y-79405771D01*
X126879048Y-79405771D02*
X126926667Y-79215295D01*
X126926667Y-79215295D02*
X126974286Y-79120057D01*
X126974286Y-79120057D02*
X127021905Y-79072438D01*
X127021905Y-79072438D02*
X127117143Y-79024819D01*
X127879048Y-79929580D02*
X127926667Y-79977200D01*
X127926667Y-79977200D02*
X127879048Y-80024819D01*
X127879048Y-80024819D02*
X127831429Y-79977200D01*
X127831429Y-79977200D02*
X127879048Y-79929580D01*
X127879048Y-79929580D02*
X127879048Y-80024819D01*
X128879047Y-80024819D02*
X128307619Y-80024819D01*
X128593333Y-80024819D02*
X128593333Y-79024819D01*
X128593333Y-79024819D02*
X128498095Y-79167676D01*
X128498095Y-79167676D02*
X128402857Y-79262914D01*
X128402857Y-79262914D02*
X128307619Y-79310533D01*
X129736190Y-79358152D02*
X129736190Y-80024819D01*
X129307619Y-79358152D02*
X129307619Y-79881961D01*
X129307619Y-79881961D02*
X129355238Y-79977200D01*
X129355238Y-79977200D02*
X129450476Y-80024819D01*
X129450476Y-80024819D02*
X129593333Y-80024819D01*
X129593333Y-80024819D02*
X129688571Y-79977200D01*
X129688571Y-79977200D02*
X129736190Y-79929580D01*
X130545714Y-79501009D02*
X130212381Y-79501009D01*
X130212381Y-80024819D02*
X130212381Y-79024819D01*
X130212381Y-79024819D02*
X130688571Y-79024819D01*
D11*
X128502857Y-81143832D02*
X128483809Y-81162880D01*
X128483809Y-81162880D02*
X128426667Y-81181927D01*
X128426667Y-81181927D02*
X128388571Y-81181927D01*
X128388571Y-81181927D02*
X128331428Y-81162880D01*
X128331428Y-81162880D02*
X128293333Y-81124784D01*
X128293333Y-81124784D02*
X128274286Y-81086689D01*
X128274286Y-81086689D02*
X128255238Y-81010499D01*
X128255238Y-81010499D02*
X128255238Y-80953356D01*
X128255238Y-80953356D02*
X128274286Y-80877165D01*
X128274286Y-80877165D02*
X128293333Y-80839070D01*
X128293333Y-80839070D02*
X128331428Y-80800975D01*
X128331428Y-80800975D02*
X128388571Y-80781927D01*
X128388571Y-80781927D02*
X128426667Y-80781927D01*
X128426667Y-80781927D02*
X128483809Y-80800975D01*
X128483809Y-80800975D02*
X128502857Y-80820022D01*
X128883809Y-81181927D02*
X128655238Y-81181927D01*
X128769524Y-81181927D02*
X128769524Y-80781927D01*
X128769524Y-80781927D02*
X128731428Y-80839070D01*
X128731428Y-80839070D02*
X128693333Y-80877165D01*
X128693333Y-80877165D02*
X128655238Y-80896213D01*
X129131428Y-80781927D02*
X129169523Y-80781927D01*
X129169523Y-80781927D02*
X129207619Y-80800975D01*
X129207619Y-80800975D02*
X129226666Y-80820022D01*
X129226666Y-80820022D02*
X129245714Y-80858118D01*
X129245714Y-80858118D02*
X129264761Y-80934308D01*
X129264761Y-80934308D02*
X129264761Y-81029546D01*
X129264761Y-81029546D02*
X129245714Y-81105737D01*
X129245714Y-81105737D02*
X129226666Y-81143832D01*
X129226666Y-81143832D02*
X129207619Y-81162880D01*
X129207619Y-81162880D02*
X129169523Y-81181927D01*
X129169523Y-81181927D02*
X129131428Y-81181927D01*
X129131428Y-81181927D02*
X129093333Y-81162880D01*
X129093333Y-81162880D02*
X129074285Y-81143832D01*
X129074285Y-81143832D02*
X129055238Y-81105737D01*
X129055238Y-81105737D02*
X129036190Y-81029546D01*
X129036190Y-81029546D02*
X129036190Y-80934308D01*
X129036190Y-80934308D02*
X129055238Y-80858118D01*
X129055238Y-80858118D02*
X129074285Y-80820022D01*
X129074285Y-80820022D02*
X129093333Y-80800975D01*
X129093333Y-80800975D02*
X129131428Y-80781927D01*
D10*
X108943564Y-71512085D02*
X108878516Y-71529515D01*
X108878516Y-71529515D02*
X108730988Y-71499326D01*
X108730988Y-71499326D02*
X108648509Y-71451707D01*
X108648509Y-71451707D02*
X108548601Y-71339039D01*
X108548601Y-71339039D02*
X108513742Y-71208941D01*
X108513742Y-71208941D02*
X108520121Y-71102653D01*
X108520121Y-71102653D02*
X108574120Y-70913886D01*
X108574120Y-70913886D02*
X108645549Y-70790168D01*
X108645549Y-70790168D02*
X108782026Y-70649021D01*
X108782026Y-70649021D02*
X108870884Y-70590352D01*
X108870884Y-70590352D02*
X109000982Y-70555492D01*
X109000982Y-70555492D02*
X109148509Y-70585681D01*
X109148509Y-70585681D02*
X109230988Y-70633300D01*
X109230988Y-70633300D02*
X109330896Y-70745968D01*
X109330896Y-70745968D02*
X109348326Y-70811017D01*
X109390817Y-71880278D02*
X109332148Y-71791420D01*
X109332148Y-71791420D02*
X109314718Y-71726371D01*
X109314718Y-71726371D02*
X109321098Y-71620083D01*
X109321098Y-71620083D02*
X109463955Y-71372647D01*
X109463955Y-71372647D02*
X109552813Y-71313978D01*
X109552813Y-71313978D02*
X109617862Y-71296548D01*
X109617862Y-71296548D02*
X109724150Y-71302928D01*
X109724150Y-71302928D02*
X109847868Y-71374356D01*
X109847868Y-71374356D02*
X109906537Y-71463215D01*
X109906537Y-71463215D02*
X109923967Y-71528264D01*
X109923967Y-71528264D02*
X109917587Y-71634552D01*
X109917587Y-71634552D02*
X109774730Y-71881987D01*
X109774730Y-71881987D02*
X109685872Y-71940657D01*
X109685872Y-71940657D02*
X109620823Y-71958086D01*
X109620823Y-71958086D02*
X109514535Y-71951707D01*
X109514535Y-71951707D02*
X109390817Y-71880278D01*
X110383979Y-71683880D02*
X110050646Y-72261230D01*
X110336360Y-71766359D02*
X110401409Y-71748929D01*
X110401409Y-71748929D02*
X110507697Y-71755309D01*
X110507697Y-71755309D02*
X110631415Y-71826737D01*
X110631415Y-71826737D02*
X110690084Y-71915596D01*
X110690084Y-71915596D02*
X110683704Y-72021884D01*
X110683704Y-72021884D02*
X110421800Y-72475516D01*
X111167526Y-72136261D02*
X110834193Y-72713611D01*
X111119907Y-72218740D02*
X111184956Y-72201310D01*
X111184956Y-72201310D02*
X111291244Y-72207690D01*
X111291244Y-72207690D02*
X111414962Y-72279118D01*
X111414962Y-72279118D02*
X111473631Y-72367977D01*
X111473631Y-72367977D02*
X111467251Y-72474265D01*
X111467251Y-72474265D02*
X111205347Y-72927897D01*
X111363924Y-73129423D02*
X112023753Y-73510376D01*
X112942526Y-72776158D02*
X113025005Y-72823777D01*
X113025005Y-72823777D02*
X113083674Y-72912635D01*
X113083674Y-72912635D02*
X113101103Y-72977684D01*
X113101103Y-72977684D02*
X113094724Y-73083972D01*
X113094724Y-73083972D02*
X113040725Y-73272739D01*
X113040725Y-73272739D02*
X112921677Y-73478935D01*
X112921677Y-73478935D02*
X112785200Y-73620083D01*
X112785200Y-73620083D02*
X112696342Y-73678752D01*
X112696342Y-73678752D02*
X112631293Y-73696182D01*
X112631293Y-73696182D02*
X112525005Y-73689802D01*
X112525005Y-73689802D02*
X112442526Y-73642183D01*
X112442526Y-73642183D02*
X112383857Y-73553325D01*
X112383857Y-73553325D02*
X112366427Y-73488276D01*
X112366427Y-73488276D02*
X112372807Y-73381988D01*
X112372807Y-73381988D02*
X112426806Y-73193221D01*
X112426806Y-73193221D02*
X112545853Y-72987024D01*
X112545853Y-72987024D02*
X112682331Y-72845877D01*
X112682331Y-72845877D02*
X112771189Y-72787208D01*
X112771189Y-72787208D02*
X112836238Y-72769778D01*
X112836238Y-72769778D02*
X112942526Y-72776158D01*
X113555987Y-74285040D02*
X113061116Y-73999326D01*
X113308551Y-74142183D02*
X113808551Y-73276158D01*
X113808551Y-73276158D02*
X113654644Y-73352257D01*
X113654644Y-73352257D02*
X113524547Y-73387116D01*
X113524547Y-73387116D02*
X113418258Y-73380736D01*
X113844662Y-74451707D02*
X114631628Y-74136261D01*
X114177996Y-73874357D02*
X114298295Y-74713612D01*
X115293167Y-74133301D02*
X115375645Y-74180920D01*
X115375645Y-74180920D02*
X115434314Y-74269778D01*
X115434314Y-74269778D02*
X115451744Y-74334827D01*
X115451744Y-74334827D02*
X115445364Y-74441115D01*
X115445364Y-74441115D02*
X115391366Y-74629882D01*
X115391366Y-74629882D02*
X115272318Y-74836078D01*
X115272318Y-74836078D02*
X115135841Y-74977226D01*
X115135841Y-74977226D02*
X115046982Y-75035895D01*
X115046982Y-75035895D02*
X114981933Y-75053325D01*
X114981933Y-75053325D02*
X114875645Y-75046945D01*
X114875645Y-75046945D02*
X114793167Y-74999326D01*
X114793167Y-74999326D02*
X114734498Y-74910468D01*
X114734498Y-74910468D02*
X114717068Y-74845419D01*
X114717068Y-74845419D02*
X114723447Y-74739131D01*
X114723447Y-74739131D02*
X114777446Y-74550364D01*
X114777446Y-74550364D02*
X114896494Y-74344167D01*
X114896494Y-74344167D02*
X115032971Y-74203020D01*
X115032971Y-74203020D02*
X115121830Y-74144351D01*
X115121830Y-74144351D02*
X115186878Y-74126921D01*
X115186878Y-74126921D02*
X115293167Y-74133301D01*
X116365389Y-74752348D02*
X115952996Y-74514253D01*
X115952996Y-74514253D02*
X115673661Y-74902837D01*
X115673661Y-74902837D02*
X115738710Y-74885407D01*
X115738710Y-74885407D02*
X115844998Y-74891787D01*
X115844998Y-74891787D02*
X116051194Y-75010834D01*
X116051194Y-75010834D02*
X116109864Y-75099693D01*
X116109864Y-75099693D02*
X116127293Y-75164741D01*
X116127293Y-75164741D02*
X116120914Y-75271029D01*
X116120914Y-75271029D02*
X116001866Y-75477226D01*
X116001866Y-75477226D02*
X115913008Y-75535895D01*
X115913008Y-75535895D02*
X115847959Y-75553325D01*
X115847959Y-75553325D02*
X115741671Y-75546945D01*
X115741671Y-75546945D02*
X115535474Y-75427898D01*
X115535474Y-75427898D02*
X115476805Y-75339039D01*
X115476805Y-75339039D02*
X115459375Y-75273990D01*
X116023966Y-75819900D02*
X116683795Y-76200852D01*
X116920181Y-76172373D02*
X117020089Y-76285041D01*
X117020089Y-76285041D02*
X117226286Y-76404088D01*
X117226286Y-76404088D02*
X117332574Y-76410468D01*
X117332574Y-76410468D02*
X117397623Y-76393038D01*
X117397623Y-76393038D02*
X117486481Y-76334369D01*
X117486481Y-76334369D02*
X117534100Y-76251890D01*
X117534100Y-76251890D02*
X117540480Y-76145602D01*
X117540480Y-76145602D02*
X117523050Y-76080553D01*
X117523050Y-76080553D02*
X117464381Y-75991695D01*
X117464381Y-75991695D02*
X117323233Y-75855218D01*
X117323233Y-75855218D02*
X117264564Y-75766359D01*
X117264564Y-75766359D02*
X117247135Y-75701311D01*
X117247135Y-75701311D02*
X117253514Y-75595022D01*
X117253514Y-75595022D02*
X117301133Y-75512544D01*
X117301133Y-75512544D02*
X117389992Y-75453875D01*
X117389992Y-75453875D02*
X117455041Y-75436445D01*
X117455041Y-75436445D02*
X117561329Y-75442825D01*
X117561329Y-75442825D02*
X117767525Y-75561872D01*
X117767525Y-75561872D02*
X117867434Y-75674540D01*
X117886115Y-76785041D02*
X117827446Y-76696182D01*
X117827446Y-76696182D02*
X117810016Y-76631133D01*
X117810016Y-76631133D02*
X117816396Y-76524845D01*
X117816396Y-76524845D02*
X117959253Y-76277409D01*
X117959253Y-76277409D02*
X118048111Y-76218740D01*
X118048111Y-76218740D02*
X118113160Y-76201311D01*
X118113160Y-76201311D02*
X118219448Y-76207690D01*
X118219448Y-76207690D02*
X118343166Y-76279119D01*
X118343166Y-76279119D02*
X118401835Y-76367977D01*
X118401835Y-76367977D02*
X118419265Y-76433026D01*
X118419265Y-76433026D02*
X118412885Y-76539314D01*
X118412885Y-76539314D02*
X118270028Y-76786750D01*
X118270028Y-76786750D02*
X118181170Y-76845419D01*
X118181170Y-76845419D02*
X118116121Y-76862849D01*
X118116121Y-76862849D02*
X118009833Y-76856469D01*
X118009833Y-76856469D02*
X117886115Y-76785041D01*
X118940907Y-77339039D02*
X118834619Y-77332660D01*
X118834619Y-77332660D02*
X118669662Y-77237422D01*
X118669662Y-77237422D02*
X118610993Y-77148563D01*
X118610993Y-77148563D02*
X118593563Y-77083514D01*
X118593563Y-77083514D02*
X118599943Y-76977226D01*
X118599943Y-76977226D02*
X118742800Y-76729790D01*
X118742800Y-76729790D02*
X118831658Y-76671121D01*
X118831658Y-76671121D02*
X118896707Y-76653692D01*
X118896707Y-76653692D02*
X119002995Y-76660071D01*
X119002995Y-76660071D02*
X119167952Y-76755309D01*
X119167952Y-76755309D02*
X119226621Y-76844168D01*
X119288251Y-77594564D02*
X119788251Y-76728539D01*
X119561206Y-77312269D02*
X119618166Y-77785041D01*
X119951499Y-77207690D02*
X119431109Y-77347129D01*
X120343044Y-78148563D02*
X120236756Y-78142184D01*
X120236756Y-78142184D02*
X120071798Y-78046946D01*
X120071798Y-78046946D02*
X120013129Y-77958087D01*
X120013129Y-77958087D02*
X120019509Y-77851799D01*
X120019509Y-77851799D02*
X120209985Y-77521885D01*
X120209985Y-77521885D02*
X120298844Y-77463216D01*
X120298844Y-77463216D02*
X120405132Y-77469595D01*
X120405132Y-77469595D02*
X120570089Y-77564833D01*
X120570089Y-77564833D02*
X120628758Y-77653692D01*
X120628758Y-77653692D02*
X120622378Y-77759980D01*
X120622378Y-77759980D02*
X120574759Y-77842458D01*
X120574759Y-77842458D02*
X120114747Y-77686842D01*
X120941243Y-77779119D02*
X121271157Y-77969595D01*
X121231627Y-77561873D02*
X120803056Y-78304180D01*
X120803056Y-78304180D02*
X120796676Y-78410468D01*
X120796676Y-78410468D02*
X120855345Y-78499327D01*
X120855345Y-78499327D02*
X120937824Y-78546946D01*
X118121192Y-67716084D02*
X118739782Y-68073227D01*
X118739782Y-68073227D02*
X118839690Y-68185895D01*
X118839690Y-68185895D02*
X118874550Y-68315993D01*
X118874550Y-68315993D02*
X118844360Y-68463520D01*
X118844360Y-68463520D02*
X118796741Y-68545999D01*
X118573573Y-66932537D02*
X118478335Y-67097495D01*
X118478335Y-67097495D02*
X118471955Y-67203783D01*
X118471955Y-67203783D02*
X118489385Y-67268831D01*
X118489385Y-67268831D02*
X118565484Y-67422739D01*
X118565484Y-67422739D02*
X118706632Y-67559216D01*
X118706632Y-67559216D02*
X119036546Y-67749692D01*
X119036546Y-67749692D02*
X119142834Y-67756072D01*
X119142834Y-67756072D02*
X119207883Y-67738642D01*
X119207883Y-67738642D02*
X119296742Y-67679973D01*
X119296742Y-67679973D02*
X119391980Y-67515016D01*
X119391980Y-67515016D02*
X119398359Y-67408728D01*
X119398359Y-67408728D02*
X119380930Y-67343679D01*
X119380930Y-67343679D02*
X119322261Y-67254821D01*
X119322261Y-67254821D02*
X119116064Y-67135773D01*
X119116064Y-67135773D02*
X119009776Y-67129393D01*
X119009776Y-67129393D02*
X118944727Y-67146823D01*
X118944727Y-67146823D02*
X118855869Y-67205492D01*
X118855869Y-67205492D02*
X118760631Y-67370449D01*
X118760631Y-67370449D02*
X118754251Y-67476737D01*
X118754251Y-67476737D02*
X118771681Y-67541786D01*
X118771681Y-67541786D02*
X118830350Y-67630645D01*
X149280219Y-100281327D02*
X149327838Y-100363806D01*
X149327838Y-100363806D02*
X149334218Y-100470094D01*
X149334218Y-100470094D02*
X149316788Y-100535143D01*
X149316788Y-100535143D02*
X149258119Y-100624001D01*
X149258119Y-100624001D02*
X149116971Y-100760479D01*
X149116971Y-100760479D02*
X148910774Y-100879526D01*
X148910774Y-100879526D02*
X148722008Y-100933525D01*
X148722008Y-100933525D02*
X148615720Y-100939905D01*
X148615720Y-100939905D02*
X148550671Y-100922475D01*
X148550671Y-100922475D02*
X148461812Y-100863806D01*
X148461812Y-100863806D02*
X148414193Y-100781327D01*
X148414193Y-100781327D02*
X148407814Y-100675039D01*
X148407814Y-100675039D02*
X148425243Y-100609991D01*
X148425243Y-100609991D02*
X148483912Y-100521132D01*
X148483912Y-100521132D02*
X148625060Y-100384655D01*
X148625060Y-100384655D02*
X148831257Y-100265607D01*
X148831257Y-100265607D02*
X149020023Y-100211608D01*
X149020023Y-100211608D02*
X149126312Y-100205229D01*
X149126312Y-100205229D02*
X149191360Y-100222658D01*
X149191360Y-100222658D02*
X149280219Y-100281327D01*
X148877624Y-101393537D02*
X148860195Y-101458586D01*
X148860195Y-101458586D02*
X148795146Y-101441156D01*
X148795146Y-101441156D02*
X148812576Y-101376108D01*
X148812576Y-101376108D02*
X148877624Y-101393537D01*
X148877624Y-101393537D02*
X148795146Y-101441156D01*
X149295146Y-102307181D02*
X149009431Y-101812310D01*
X149152288Y-102059746D02*
X150018314Y-101559746D01*
X150018314Y-101559746D02*
X149846977Y-101548696D01*
X149846977Y-101548696D02*
X149716879Y-101513836D01*
X149716879Y-101513836D02*
X149628021Y-101455167D01*
X150301067Y-102716156D02*
X149723717Y-103049489D01*
X150086782Y-102345002D02*
X149633149Y-102606907D01*
X149633149Y-102606907D02*
X149574480Y-102695765D01*
X149574480Y-102695765D02*
X149580860Y-102802053D01*
X149580860Y-102802053D02*
X149652288Y-102925771D01*
X149652288Y-102925771D02*
X149741147Y-102984440D01*
X149741147Y-102984440D02*
X149806196Y-103001870D01*
X150582111Y-103488652D02*
X150415445Y-103199977D01*
X149961812Y-103461882D02*
X150827838Y-102961882D01*
X150827838Y-102961882D02*
X151065933Y-103374275D01*
D11*
X148233195Y-102705855D02*
X148207175Y-102698883D01*
X148207175Y-102698883D02*
X148162108Y-102658920D01*
X148162108Y-102658920D02*
X148143060Y-102625928D01*
X148143060Y-102625928D02*
X148130985Y-102566917D01*
X148130985Y-102566917D02*
X148144929Y-102514878D01*
X148144929Y-102514878D02*
X148168396Y-102479335D01*
X148168396Y-102479335D02*
X148224855Y-102424744D01*
X148224855Y-102424744D02*
X148274342Y-102396172D01*
X148274342Y-102396172D02*
X148349849Y-102374573D01*
X148349849Y-102374573D02*
X148392364Y-102372021D01*
X148392364Y-102372021D02*
X148444403Y-102385965D01*
X148444403Y-102385965D02*
X148489471Y-102425928D01*
X148489471Y-102425928D02*
X148508518Y-102458920D01*
X148508518Y-102458920D02*
X148520594Y-102517931D01*
X148520594Y-102517931D02*
X148513622Y-102543950D01*
X148727566Y-102838321D02*
X148632328Y-102673364D01*
X148632328Y-102673364D02*
X148457847Y-102752106D01*
X148457847Y-102752106D02*
X148483866Y-102759078D01*
X148483866Y-102759078D02*
X148519410Y-102782546D01*
X148519410Y-102782546D02*
X148567029Y-102865024D01*
X148567029Y-102865024D02*
X148569581Y-102907540D01*
X148569581Y-102907540D02*
X148562609Y-102933559D01*
X148562609Y-102933559D02*
X148539141Y-102969103D01*
X148539141Y-102969103D02*
X148456662Y-103016722D01*
X148456662Y-103016722D02*
X148414147Y-103019274D01*
X148414147Y-103019274D02*
X148388128Y-103012302D01*
X148388128Y-103012302D02*
X148352584Y-102988834D01*
X148352584Y-102988834D02*
X148304965Y-102906355D01*
X148304965Y-102906355D02*
X148302413Y-102863840D01*
X148302413Y-102863840D02*
X148309385Y-102837821D01*
D10*
X153158142Y-61835165D02*
X153205761Y-61752686D01*
X153205761Y-61752686D02*
X153294619Y-61694017D01*
X153294619Y-61694017D02*
X153359668Y-61676587D01*
X153359668Y-61676587D02*
X153465956Y-61682967D01*
X153465956Y-61682967D02*
X153654723Y-61736966D01*
X153654723Y-61736966D02*
X153860919Y-61856013D01*
X153860919Y-61856013D02*
X154002067Y-61992491D01*
X154002067Y-61992491D02*
X154060736Y-62081349D01*
X154060736Y-62081349D02*
X154078166Y-62146398D01*
X154078166Y-62146398D02*
X154071786Y-62252686D01*
X154071786Y-62252686D02*
X154024167Y-62335165D01*
X154024167Y-62335165D02*
X153935309Y-62393834D01*
X153935309Y-62393834D02*
X153870260Y-62411263D01*
X153870260Y-62411263D02*
X153763972Y-62404884D01*
X153763972Y-62404884D02*
X153575205Y-62350885D01*
X153575205Y-62350885D02*
X153369008Y-62231837D01*
X153369008Y-62231837D02*
X153227861Y-62095360D01*
X153227861Y-62095360D02*
X153169192Y-62006502D01*
X153169192Y-62006502D02*
X153151762Y-61941453D01*
X153151762Y-61941453D02*
X153158142Y-61835165D01*
X154322641Y-61627717D02*
X154387690Y-61610287D01*
X154387690Y-61610287D02*
X154405119Y-61675336D01*
X154405119Y-61675336D02*
X154340071Y-61692765D01*
X154340071Y-61692765D02*
X154322641Y-61627717D01*
X154322641Y-61627717D02*
X154405119Y-61675336D01*
X154905119Y-60809311D02*
X154619405Y-61304182D01*
X154762262Y-61056746D02*
X153896237Y-60556746D01*
X153896237Y-60556746D02*
X153972336Y-60710654D01*
X153972336Y-60710654D02*
X154007195Y-60840751D01*
X154007195Y-60840751D02*
X154000815Y-60947039D01*
X154756340Y-59733670D02*
X155333691Y-60067003D01*
X154542055Y-60104824D02*
X154995687Y-60366728D01*
X154995687Y-60366728D02*
X155101975Y-60373108D01*
X155101975Y-60373108D02*
X155190834Y-60314439D01*
X155190834Y-60314439D02*
X155262262Y-60190721D01*
X155262262Y-60190721D02*
X155268642Y-60084433D01*
X155268642Y-60084433D02*
X155251212Y-60019384D01*
X155284820Y-59104030D02*
X155118154Y-59392705D01*
X155571786Y-59654610D02*
X154705761Y-59154610D01*
X154705761Y-59154610D02*
X154943856Y-58742217D01*
D11*
X155781356Y-61529651D02*
X155788328Y-61555670D01*
X155788328Y-61555670D02*
X155776252Y-61614681D01*
X155776252Y-61614681D02*
X155757204Y-61647673D01*
X155757204Y-61647673D02*
X155712137Y-61687636D01*
X155712137Y-61687636D02*
X155660098Y-61701580D01*
X155660098Y-61701580D02*
X155617583Y-61699028D01*
X155617583Y-61699028D02*
X155542076Y-61677428D01*
X155542076Y-61677428D02*
X155492589Y-61648857D01*
X155492589Y-61648857D02*
X155436130Y-61594266D01*
X155436130Y-61594266D02*
X155412662Y-61558723D01*
X155412662Y-61558723D02*
X155398718Y-61506683D01*
X155398718Y-61506683D02*
X155410794Y-61447673D01*
X155410794Y-61447673D02*
X155429842Y-61414681D01*
X155429842Y-61414681D02*
X155474909Y-61374718D01*
X155474909Y-61374718D02*
X155500928Y-61367746D01*
X156004823Y-61218784D02*
X155890538Y-61416732D01*
X155947681Y-61317758D02*
X155601270Y-61117758D01*
X155601270Y-61117758D02*
X155631710Y-61179321D01*
X155631710Y-61179321D02*
X155645654Y-61231360D01*
X155645654Y-61231360D02*
X155643102Y-61273875D01*
D10*
X151966494Y-64487245D02*
X151949065Y-64552294D01*
X151949065Y-64552294D02*
X151849156Y-64664962D01*
X151849156Y-64664962D02*
X151766678Y-64712581D01*
X151766678Y-64712581D02*
X151619150Y-64742770D01*
X151619150Y-64742770D02*
X151489052Y-64707911D01*
X151489052Y-64707911D02*
X151400194Y-64649242D01*
X151400194Y-64649242D02*
X151263717Y-64508094D01*
X151263717Y-64508094D02*
X151192288Y-64384376D01*
X151192288Y-64384376D02*
X151138289Y-64195609D01*
X151138289Y-64195609D02*
X151131910Y-64089321D01*
X151131910Y-64089321D02*
X151166769Y-63959224D01*
X151166769Y-63959224D02*
X151266678Y-63846556D01*
X151266678Y-63846556D02*
X151349156Y-63798937D01*
X151349156Y-63798937D02*
X151496684Y-63768747D01*
X151496684Y-63768747D02*
X151561732Y-63786177D01*
X152508985Y-64284010D02*
X152402697Y-64290389D01*
X152402697Y-64290389D02*
X152337648Y-64272960D01*
X152337648Y-64272960D02*
X152248790Y-64214291D01*
X152248790Y-64214291D02*
X152105933Y-63966855D01*
X152105933Y-63966855D02*
X152099553Y-63860567D01*
X152099553Y-63860567D02*
X152116983Y-63795518D01*
X152116983Y-63795518D02*
X152175652Y-63706659D01*
X152175652Y-63706659D02*
X152299370Y-63635231D01*
X152299370Y-63635231D02*
X152405658Y-63628851D01*
X152405658Y-63628851D02*
X152470707Y-63646281D01*
X152470707Y-63646281D02*
X152559565Y-63704950D01*
X152559565Y-63704950D02*
X152702422Y-63952386D01*
X152702422Y-63952386D02*
X152708802Y-64058674D01*
X152708802Y-64058674D02*
X152691372Y-64123723D01*
X152691372Y-64123723D02*
X152632703Y-64212581D01*
X152632703Y-64212581D02*
X152508985Y-64284010D01*
X152835481Y-63325707D02*
X153168814Y-63903057D01*
X152883100Y-63408186D02*
X152900529Y-63343137D01*
X152900529Y-63343137D02*
X152959199Y-63254278D01*
X152959199Y-63254278D02*
X153082916Y-63182850D01*
X153082916Y-63182850D02*
X153189205Y-63176470D01*
X153189205Y-63176470D02*
X153278063Y-63235139D01*
X153278063Y-63235139D02*
X153539968Y-63688772D01*
X153619028Y-62873326D02*
X153952361Y-63450676D01*
X153666647Y-62955805D02*
X153684076Y-62890756D01*
X153684076Y-62890756D02*
X153742745Y-62801897D01*
X153742745Y-62801897D02*
X153866463Y-62730469D01*
X153866463Y-62730469D02*
X153972751Y-62724089D01*
X153972751Y-62724089D02*
X154061610Y-62782758D01*
X154061610Y-62782758D02*
X154323515Y-63236391D01*
X154577330Y-63199821D02*
X155237159Y-62818869D01*
X155060694Y-61656079D02*
X155143173Y-61608460D01*
X155143173Y-61608460D02*
X155249461Y-61602080D01*
X155249461Y-61602080D02*
X155314510Y-61619510D01*
X155314510Y-61619510D02*
X155403368Y-61678179D01*
X155403368Y-61678179D02*
X155539845Y-61819327D01*
X155539845Y-61819327D02*
X155658893Y-62025524D01*
X155658893Y-62025524D02*
X155712892Y-62214290D01*
X155712892Y-62214290D02*
X155719271Y-62320578D01*
X155719271Y-62320578D02*
X155701842Y-62385627D01*
X155701842Y-62385627D02*
X155643173Y-62474486D01*
X155643173Y-62474486D02*
X155560694Y-62522105D01*
X155560694Y-62522105D02*
X155454406Y-62528484D01*
X155454406Y-62528484D02*
X155389357Y-62511055D01*
X155389357Y-62511055D02*
X155300499Y-62452386D01*
X155300499Y-62452386D02*
X155164021Y-62311238D01*
X155164021Y-62311238D02*
X155044974Y-62105041D01*
X155044974Y-62105041D02*
X154990975Y-61916275D01*
X154990975Y-61916275D02*
X154984595Y-61809986D01*
X154984595Y-61809986D02*
X155002025Y-61744938D01*
X155002025Y-61744938D02*
X155060694Y-61656079D01*
X156674155Y-61879247D02*
X156179284Y-62164962D01*
X156426719Y-62022105D02*
X155926719Y-61156079D01*
X155926719Y-61156079D02*
X155915669Y-61327416D01*
X155915669Y-61327416D02*
X155880810Y-61457514D01*
X155880810Y-61457514D02*
X155822141Y-61546372D01*
X156962830Y-61712581D02*
X157083129Y-60873326D01*
X156629497Y-61135231D02*
X157416463Y-61450676D01*
X157411335Y-60298936D02*
X157493813Y-60251317D01*
X157493813Y-60251317D02*
X157600101Y-60244937D01*
X157600101Y-60244937D02*
X157665150Y-60262367D01*
X157665150Y-60262367D02*
X157754009Y-60321036D01*
X157754009Y-60321036D02*
X157890486Y-60462184D01*
X157890486Y-60462184D02*
X158009534Y-60668381D01*
X158009534Y-60668381D02*
X158063532Y-60857147D01*
X158063532Y-60857147D02*
X158069912Y-60963435D01*
X158069912Y-60963435D02*
X158052482Y-61028484D01*
X158052482Y-61028484D02*
X157993813Y-61117343D01*
X157993813Y-61117343D02*
X157911335Y-61164962D01*
X157911335Y-61164962D02*
X157805047Y-61171341D01*
X157805047Y-61171341D02*
X157739998Y-61153912D01*
X157739998Y-61153912D02*
X157651139Y-61095243D01*
X157651139Y-61095243D02*
X157514662Y-60954095D01*
X157514662Y-60954095D02*
X157395614Y-60747898D01*
X157395614Y-60747898D02*
X157341616Y-60559132D01*
X157341616Y-60559132D02*
X157335236Y-60452843D01*
X157335236Y-60452843D02*
X157352666Y-60387795D01*
X157352666Y-60387795D02*
X157411335Y-60298936D01*
X158483557Y-59679889D02*
X158071164Y-59917984D01*
X158071164Y-59917984D02*
X158268020Y-60354186D01*
X158268020Y-60354186D02*
X158285449Y-60289138D01*
X158285449Y-60289138D02*
X158344118Y-60200279D01*
X158344118Y-60200279D02*
X158550315Y-60081232D01*
X158550315Y-60081232D02*
X158656603Y-60074852D01*
X158656603Y-60074852D02*
X158721652Y-60092282D01*
X158721652Y-60092282D02*
X158810510Y-60150951D01*
X158810510Y-60150951D02*
X158929558Y-60357147D01*
X158929558Y-60357147D02*
X158935938Y-60463435D01*
X158935938Y-60463435D02*
X158918508Y-60528484D01*
X158918508Y-60528484D02*
X158859839Y-60617343D01*
X158859839Y-60617343D02*
X158653642Y-60736390D01*
X158653642Y-60736390D02*
X158547354Y-60742770D01*
X158547354Y-60742770D02*
X158482305Y-60725340D01*
X159237372Y-60509345D02*
X159897201Y-60128393D01*
X159990730Y-59909436D02*
X160138257Y-59879247D01*
X160138257Y-59879247D02*
X160344454Y-59760200D01*
X160344454Y-59760200D02*
X160403123Y-59671341D01*
X160403123Y-59671341D02*
X160420553Y-59606292D01*
X160420553Y-59606292D02*
X160414173Y-59500004D01*
X160414173Y-59500004D02*
X160366554Y-59417526D01*
X160366554Y-59417526D02*
X160277696Y-59358857D01*
X160277696Y-59358857D02*
X160212647Y-59341427D01*
X160212647Y-59341427D02*
X160106359Y-59347807D01*
X160106359Y-59347807D02*
X159917592Y-59401805D01*
X159917592Y-59401805D02*
X159811304Y-59408185D01*
X159811304Y-59408185D02*
X159746255Y-59390755D01*
X159746255Y-59390755D02*
X159657397Y-59332086D01*
X159657397Y-59332086D02*
X159609778Y-59249608D01*
X159609778Y-59249608D02*
X159603398Y-59143319D01*
X159603398Y-59143319D02*
X159620828Y-59078271D01*
X159620828Y-59078271D02*
X159679497Y-58989412D01*
X159679497Y-58989412D02*
X159885693Y-58870365D01*
X159885693Y-58870365D02*
X160033221Y-58840175D01*
X161004283Y-59379247D02*
X160897995Y-59385627D01*
X160897995Y-59385627D02*
X160832946Y-59368197D01*
X160832946Y-59368197D02*
X160744088Y-59309528D01*
X160744088Y-59309528D02*
X160601230Y-59062092D01*
X160601230Y-59062092D02*
X160594851Y-58955804D01*
X160594851Y-58955804D02*
X160612280Y-58890755D01*
X160612280Y-58890755D02*
X160670950Y-58801897D01*
X160670950Y-58801897D02*
X160794667Y-58730468D01*
X160794667Y-58730468D02*
X160900956Y-58724089D01*
X160900956Y-58724089D02*
X160966004Y-58741518D01*
X160966004Y-58741518D02*
X161054863Y-58800187D01*
X161054863Y-58800187D02*
X161197720Y-59047623D01*
X161197720Y-59047623D02*
X161204100Y-59153911D01*
X161204100Y-59153911D02*
X161186670Y-59218960D01*
X161186670Y-59218960D02*
X161128001Y-59307819D01*
X161128001Y-59307819D02*
X161004283Y-59379247D01*
X162011456Y-58742770D02*
X161952787Y-58831628D01*
X161952787Y-58831628D02*
X161787830Y-58926866D01*
X161787830Y-58926866D02*
X161681542Y-58933246D01*
X161681542Y-58933246D02*
X161616493Y-58915816D01*
X161616493Y-58915816D02*
X161527634Y-58857147D01*
X161527634Y-58857147D02*
X161384777Y-58609711D01*
X161384777Y-58609711D02*
X161378398Y-58503423D01*
X161378398Y-58503423D02*
X161395827Y-58438374D01*
X161395827Y-58438374D02*
X161454496Y-58349516D01*
X161454496Y-58349516D02*
X161619454Y-58254278D01*
X161619454Y-58254278D02*
X161725742Y-58247898D01*
X162406419Y-58569723D02*
X161906419Y-57703698D01*
X162298422Y-58192190D02*
X162736334Y-58379247D01*
X162403001Y-57801897D02*
X162263562Y-58322287D01*
X163413593Y-57933246D02*
X163354924Y-58022104D01*
X163354924Y-58022104D02*
X163189966Y-58117342D01*
X163189966Y-58117342D02*
X163083678Y-58123722D01*
X163083678Y-58123722D02*
X162994820Y-58065053D01*
X162994820Y-58065053D02*
X162804344Y-57735138D01*
X162804344Y-57735138D02*
X162797964Y-57628850D01*
X162797964Y-57628850D02*
X162856633Y-57539992D01*
X162856633Y-57539992D02*
X163021590Y-57444754D01*
X163021590Y-57444754D02*
X163127878Y-57438374D01*
X163127878Y-57438374D02*
X163216737Y-57497043D01*
X163216737Y-57497043D02*
X163264356Y-57579522D01*
X163264356Y-57579522D02*
X162899582Y-57900096D01*
X163392744Y-57230468D02*
X163722659Y-57039992D01*
X163349795Y-56870364D02*
X163778367Y-57612672D01*
X163778367Y-57612672D02*
X163867225Y-57671341D01*
X163867225Y-57671341D02*
X163973513Y-57664961D01*
X163973513Y-57664961D02*
X164055992Y-57617342D01*
X165665473Y-74138735D02*
X165046884Y-74495878D01*
X165046884Y-74495878D02*
X164899356Y-74526067D01*
X164899356Y-74526067D02*
X164769259Y-74491207D01*
X164769259Y-74491207D02*
X164656591Y-74391299D01*
X164656591Y-74391299D02*
X164608972Y-74308820D01*
X165829179Y-75088948D02*
X165251829Y-75422282D01*
X166040046Y-74692276D02*
X165302409Y-74843222D01*
X165302409Y-74843222D02*
X165611933Y-75379333D01*
X153610346Y-97781327D02*
X153657965Y-97863806D01*
X153657965Y-97863806D02*
X153664345Y-97970094D01*
X153664345Y-97970094D02*
X153646915Y-98035143D01*
X153646915Y-98035143D02*
X153588246Y-98124001D01*
X153588246Y-98124001D02*
X153447098Y-98260479D01*
X153447098Y-98260479D02*
X153240901Y-98379526D01*
X153240901Y-98379526D02*
X153052135Y-98433525D01*
X153052135Y-98433525D02*
X152945847Y-98439905D01*
X152945847Y-98439905D02*
X152880798Y-98422475D01*
X152880798Y-98422475D02*
X152791939Y-98363806D01*
X152791939Y-98363806D02*
X152744320Y-98281327D01*
X152744320Y-98281327D02*
X152737941Y-98175039D01*
X152737941Y-98175039D02*
X152755370Y-98109991D01*
X152755370Y-98109991D02*
X152814039Y-98021132D01*
X152814039Y-98021132D02*
X152955187Y-97884655D01*
X152955187Y-97884655D02*
X153161384Y-97765607D01*
X153161384Y-97765607D02*
X153350150Y-97711608D01*
X153350150Y-97711608D02*
X153456439Y-97705229D01*
X153456439Y-97705229D02*
X153521487Y-97722658D01*
X153521487Y-97722658D02*
X153610346Y-97781327D01*
X153207751Y-98893537D02*
X153190322Y-98958586D01*
X153190322Y-98958586D02*
X153125273Y-98941156D01*
X153125273Y-98941156D02*
X153142703Y-98876108D01*
X153142703Y-98876108D02*
X153207751Y-98893537D01*
X153207751Y-98893537D02*
X153125273Y-98941156D01*
X153625273Y-99807181D02*
X153339558Y-99312310D01*
X153482415Y-99559746D02*
X154348441Y-99059746D01*
X154348441Y-99059746D02*
X154177104Y-99048696D01*
X154177104Y-99048696D02*
X154047006Y-99013836D01*
X154047006Y-99013836D02*
X153958148Y-98955167D01*
X154631194Y-100216156D02*
X154053844Y-100549489D01*
X154416909Y-99845002D02*
X153963276Y-100106907D01*
X153963276Y-100106907D02*
X153904607Y-100195765D01*
X153904607Y-100195765D02*
X153910987Y-100302053D01*
X153910987Y-100302053D02*
X153982415Y-100425771D01*
X153982415Y-100425771D02*
X154071274Y-100484440D01*
X154071274Y-100484440D02*
X154136323Y-100501870D01*
X154912238Y-100988652D02*
X154745572Y-100699977D01*
X154291939Y-100961882D02*
X155157965Y-100461882D01*
X155157965Y-100461882D02*
X155396060Y-100874275D01*
D11*
X152563322Y-100205855D02*
X152537302Y-100198883D01*
X152537302Y-100198883D02*
X152492235Y-100158920D01*
X152492235Y-100158920D02*
X152473187Y-100125928D01*
X152473187Y-100125928D02*
X152461112Y-100066917D01*
X152461112Y-100066917D02*
X152475056Y-100014878D01*
X152475056Y-100014878D02*
X152498523Y-99979335D01*
X152498523Y-99979335D02*
X152554982Y-99924744D01*
X152554982Y-99924744D02*
X152604469Y-99896172D01*
X152604469Y-99896172D02*
X152679976Y-99874573D01*
X152679976Y-99874573D02*
X152722491Y-99872021D01*
X152722491Y-99872021D02*
X152774530Y-99885965D01*
X152774530Y-99885965D02*
X152819598Y-99925928D01*
X152819598Y-99925928D02*
X152838645Y-99958920D01*
X152838645Y-99958920D02*
X152850721Y-100017931D01*
X152850721Y-100017931D02*
X152843749Y-100043950D01*
X152943407Y-100140373D02*
X153076740Y-100371313D01*
X153076740Y-100371313D02*
X152644616Y-100422851D01*
D10*
X118046607Y-101683416D02*
X118029177Y-101748465D01*
X118029177Y-101748465D02*
X117929269Y-101861133D01*
X117929269Y-101861133D02*
X117846790Y-101908752D01*
X117846790Y-101908752D02*
X117699263Y-101938941D01*
X117699263Y-101938941D02*
X117569165Y-101904081D01*
X117569165Y-101904081D02*
X117480307Y-101845412D01*
X117480307Y-101845412D02*
X117343830Y-101704265D01*
X117343830Y-101704265D02*
X117272401Y-101580547D01*
X117272401Y-101580547D02*
X117218402Y-101391780D01*
X117218402Y-101391780D02*
X117212022Y-101285492D01*
X117212022Y-101285492D02*
X117246882Y-101155394D01*
X117246882Y-101155394D02*
X117346790Y-101042726D01*
X117346790Y-101042726D02*
X117429269Y-100995107D01*
X117429269Y-100995107D02*
X117576796Y-100964918D01*
X117576796Y-100964918D02*
X117641845Y-100982348D01*
X118589098Y-101480180D02*
X118482810Y-101486560D01*
X118482810Y-101486560D02*
X118417761Y-101469130D01*
X118417761Y-101469130D02*
X118328903Y-101410461D01*
X118328903Y-101410461D02*
X118186045Y-101163025D01*
X118186045Y-101163025D02*
X118179666Y-101056737D01*
X118179666Y-101056737D02*
X118197095Y-100991688D01*
X118197095Y-100991688D02*
X118255765Y-100902830D01*
X118255765Y-100902830D02*
X118379482Y-100831401D01*
X118379482Y-100831401D02*
X118485771Y-100825022D01*
X118485771Y-100825022D02*
X118550819Y-100842451D01*
X118550819Y-100842451D02*
X118639678Y-100901120D01*
X118639678Y-100901120D02*
X118782535Y-101148556D01*
X118782535Y-101148556D02*
X118788915Y-101254844D01*
X118788915Y-101254844D02*
X118771485Y-101319893D01*
X118771485Y-101319893D02*
X118712816Y-101408752D01*
X118712816Y-101408752D02*
X118589098Y-101480180D01*
X118915593Y-100521877D02*
X119248927Y-101099228D01*
X118963213Y-100604356D02*
X118980642Y-100539307D01*
X118980642Y-100539307D02*
X119039311Y-100450449D01*
X119039311Y-100450449D02*
X119163029Y-100379020D01*
X119163029Y-100379020D02*
X119269317Y-100372641D01*
X119269317Y-100372641D02*
X119358176Y-100431310D01*
X119358176Y-100431310D02*
X119620081Y-100884942D01*
X119699140Y-100069496D02*
X120032474Y-100646847D01*
X119746759Y-100151975D02*
X119764189Y-100086926D01*
X119764189Y-100086926D02*
X119822858Y-99998068D01*
X119822858Y-99998068D02*
X119946576Y-99926639D01*
X119946576Y-99926639D02*
X120052864Y-99920260D01*
X120052864Y-99920260D02*
X120141723Y-99978929D01*
X120141723Y-99978929D02*
X120403627Y-100432561D01*
X120657443Y-100395992D02*
X121317272Y-100015040D01*
X121140807Y-98852250D02*
X121223285Y-98804631D01*
X121223285Y-98804631D02*
X121329574Y-98798251D01*
X121329574Y-98798251D02*
X121394622Y-98815681D01*
X121394622Y-98815681D02*
X121483481Y-98874350D01*
X121483481Y-98874350D02*
X121619958Y-99015498D01*
X121619958Y-99015498D02*
X121739006Y-99221694D01*
X121739006Y-99221694D02*
X121793005Y-99410461D01*
X121793005Y-99410461D02*
X121799384Y-99516749D01*
X121799384Y-99516749D02*
X121781955Y-99581798D01*
X121781955Y-99581798D02*
X121723285Y-99670656D01*
X121723285Y-99670656D02*
X121640807Y-99718275D01*
X121640807Y-99718275D02*
X121534519Y-99724655D01*
X121534519Y-99724655D02*
X121469470Y-99707225D01*
X121469470Y-99707225D02*
X121380612Y-99648556D01*
X121380612Y-99648556D02*
X121244134Y-99507408D01*
X121244134Y-99507408D02*
X121125087Y-99301212D01*
X121125087Y-99301212D02*
X121071088Y-99112445D01*
X121071088Y-99112445D02*
X121064708Y-99006157D01*
X121064708Y-99006157D02*
X121082138Y-98941108D01*
X121082138Y-98941108D02*
X121140807Y-98852250D01*
X122754268Y-99075418D02*
X122259396Y-99361132D01*
X122506832Y-99218275D02*
X122006832Y-98352250D01*
X122006832Y-98352250D02*
X121995782Y-98523587D01*
X121995782Y-98523587D02*
X121960923Y-98653684D01*
X121960923Y-98653684D02*
X121902254Y-98742543D01*
X123042943Y-98908751D02*
X123163242Y-98069496D01*
X122709610Y-98331401D02*
X123496576Y-98646847D01*
X123491448Y-97495107D02*
X123573926Y-97447488D01*
X123573926Y-97447488D02*
X123680214Y-97441108D01*
X123680214Y-97441108D02*
X123745263Y-97458538D01*
X123745263Y-97458538D02*
X123834121Y-97517207D01*
X123834121Y-97517207D02*
X123970599Y-97658355D01*
X123970599Y-97658355D02*
X124089646Y-97864551D01*
X124089646Y-97864551D02*
X124143645Y-98053318D01*
X124143645Y-98053318D02*
X124150025Y-98159606D01*
X124150025Y-98159606D02*
X124132595Y-98224655D01*
X124132595Y-98224655D02*
X124073926Y-98313513D01*
X124073926Y-98313513D02*
X123991448Y-98361132D01*
X123991448Y-98361132D02*
X123885159Y-98367512D01*
X123885159Y-98367512D02*
X123820111Y-98350082D01*
X123820111Y-98350082D02*
X123731252Y-98291413D01*
X123731252Y-98291413D02*
X123594775Y-98150265D01*
X123594775Y-98150265D02*
X123475727Y-97944069D01*
X123475727Y-97944069D02*
X123421728Y-97755302D01*
X123421728Y-97755302D02*
X123415349Y-97649014D01*
X123415349Y-97649014D02*
X123432778Y-97583965D01*
X123432778Y-97583965D02*
X123491448Y-97495107D01*
X124563669Y-96876059D02*
X124151276Y-97114154D01*
X124151276Y-97114154D02*
X124348132Y-97550357D01*
X124348132Y-97550357D02*
X124365562Y-97485308D01*
X124365562Y-97485308D02*
X124424231Y-97396450D01*
X124424231Y-97396450D02*
X124630428Y-97277402D01*
X124630428Y-97277402D02*
X124736716Y-97271022D01*
X124736716Y-97271022D02*
X124801765Y-97288452D01*
X124801765Y-97288452D02*
X124890623Y-97347121D01*
X124890623Y-97347121D02*
X125009671Y-97553318D01*
X125009671Y-97553318D02*
X125016050Y-97659606D01*
X125016050Y-97659606D02*
X124998621Y-97724655D01*
X124998621Y-97724655D02*
X124939952Y-97813513D01*
X124939952Y-97813513D02*
X124733755Y-97932561D01*
X124733755Y-97932561D02*
X124627467Y-97938940D01*
X124627467Y-97938940D02*
X124562418Y-97921511D01*
X125317485Y-97705515D02*
X125977314Y-97324563D01*
X126135892Y-97123037D02*
X125635892Y-96257011D01*
X125635892Y-96257011D02*
X125965806Y-96066535D01*
X125965806Y-96066535D02*
X126072094Y-96060155D01*
X126072094Y-96060155D02*
X126137143Y-96077585D01*
X126137143Y-96077585D02*
X126226001Y-96136254D01*
X126226001Y-96136254D02*
X126297430Y-96259972D01*
X126297430Y-96259972D02*
X126303810Y-96366260D01*
X126303810Y-96366260D02*
X126286380Y-96431309D01*
X126286380Y-96431309D02*
X126227711Y-96520167D01*
X126227711Y-96520167D02*
X125897796Y-96710644D01*
X127001917Y-96623037D02*
X126668584Y-96045686D01*
X126501917Y-95757011D02*
X126484487Y-95822060D01*
X126484487Y-95822060D02*
X126549536Y-95839490D01*
X126549536Y-95839490D02*
X126566966Y-95774441D01*
X126566966Y-95774441D02*
X126501917Y-95757011D01*
X126501917Y-95757011D02*
X126549536Y-95839490D01*
X127080976Y-95807591D02*
X127414310Y-96384942D01*
X127128595Y-95890070D02*
X127146025Y-95825021D01*
X127146025Y-95825021D02*
X127204694Y-95736163D01*
X127204694Y-95736163D02*
X127328412Y-95664734D01*
X127328412Y-95664734D02*
X127434700Y-95658355D01*
X127434700Y-95658355D02*
X127523559Y-95717024D01*
X127523559Y-95717024D02*
X127785463Y-96170656D01*
X119065473Y-91738734D02*
X118446884Y-92095877D01*
X118446884Y-92095877D02*
X118299356Y-92126066D01*
X118299356Y-92126066D02*
X118169259Y-92091206D01*
X118169259Y-92091206D02*
X118056591Y-91991298D01*
X118056591Y-91991298D02*
X118008972Y-91908819D01*
X118699448Y-93104759D02*
X118413734Y-92609888D01*
X118556591Y-92857324D02*
X119422616Y-92357324D01*
X119422616Y-92357324D02*
X119251279Y-92346274D01*
X119251279Y-92346274D02*
X119121182Y-92311414D01*
X119121182Y-92311414D02*
X119032323Y-92252745D01*
X146662951Y-58085165D02*
X146710570Y-58002686D01*
X146710570Y-58002686D02*
X146799428Y-57944017D01*
X146799428Y-57944017D02*
X146864477Y-57926587D01*
X146864477Y-57926587D02*
X146970765Y-57932967D01*
X146970765Y-57932967D02*
X147159532Y-57986966D01*
X147159532Y-57986966D02*
X147365728Y-58106013D01*
X147365728Y-58106013D02*
X147506876Y-58242491D01*
X147506876Y-58242491D02*
X147565545Y-58331349D01*
X147565545Y-58331349D02*
X147582975Y-58396398D01*
X147582975Y-58396398D02*
X147576595Y-58502686D01*
X147576595Y-58502686D02*
X147528976Y-58585165D01*
X147528976Y-58585165D02*
X147440118Y-58643834D01*
X147440118Y-58643834D02*
X147375069Y-58661263D01*
X147375069Y-58661263D02*
X147268781Y-58654884D01*
X147268781Y-58654884D02*
X147080014Y-58600885D01*
X147080014Y-58600885D02*
X146873817Y-58481837D01*
X146873817Y-58481837D02*
X146732670Y-58345360D01*
X146732670Y-58345360D02*
X146674001Y-58256502D01*
X146674001Y-58256502D02*
X146656571Y-58191453D01*
X146656571Y-58191453D02*
X146662951Y-58085165D01*
X147827450Y-57877717D02*
X147892499Y-57860287D01*
X147892499Y-57860287D02*
X147909928Y-57925336D01*
X147909928Y-57925336D02*
X147844880Y-57942765D01*
X147844880Y-57942765D02*
X147827450Y-57877717D01*
X147827450Y-57877717D02*
X147909928Y-57925336D01*
X148409928Y-57059311D02*
X148124214Y-57554182D01*
X148267071Y-57306746D02*
X147401046Y-56806746D01*
X147401046Y-56806746D02*
X147477145Y-56960654D01*
X147477145Y-56960654D02*
X147512004Y-57090751D01*
X147512004Y-57090751D02*
X147505624Y-57197039D01*
X148261149Y-55983670D02*
X148838500Y-56317003D01*
X148046864Y-56354824D02*
X148500496Y-56616728D01*
X148500496Y-56616728D02*
X148606784Y-56623108D01*
X148606784Y-56623108D02*
X148695643Y-56564439D01*
X148695643Y-56564439D02*
X148767071Y-56440721D01*
X148767071Y-56440721D02*
X148773451Y-56334433D01*
X148773451Y-56334433D02*
X148756021Y-56269384D01*
X148789629Y-55354030D02*
X148622963Y-55642705D01*
X149076595Y-55904610D02*
X148210570Y-55404610D01*
X148210570Y-55404610D02*
X148448665Y-54992217D01*
D11*
X149286165Y-57779651D02*
X149293137Y-57805670D01*
X149293137Y-57805670D02*
X149281061Y-57864681D01*
X149281061Y-57864681D02*
X149262013Y-57897673D01*
X149262013Y-57897673D02*
X149216946Y-57937636D01*
X149216946Y-57937636D02*
X149164907Y-57951580D01*
X149164907Y-57951580D02*
X149122392Y-57949028D01*
X149122392Y-57949028D02*
X149046885Y-57927428D01*
X149046885Y-57927428D02*
X148997398Y-57898857D01*
X148997398Y-57898857D02*
X148940939Y-57844266D01*
X148940939Y-57844266D02*
X148917471Y-57808723D01*
X148917471Y-57808723D02*
X148903527Y-57756683D01*
X148903527Y-57756683D02*
X148915603Y-57697673D01*
X148915603Y-57697673D02*
X148934651Y-57664681D01*
X148934651Y-57664681D02*
X148979718Y-57624718D01*
X148979718Y-57624718D02*
X149005737Y-57617746D01*
X149259645Y-57368442D02*
X149490585Y-57501775D01*
X149080060Y-57374730D02*
X149279877Y-57600066D01*
X149279877Y-57600066D02*
X149403686Y-57385621D01*
D10*
X133009580Y-60709524D02*
X133057200Y-60757143D01*
X133057200Y-60757143D02*
X133104819Y-60900000D01*
X133104819Y-60900000D02*
X133104819Y-60995238D01*
X133104819Y-60995238D02*
X133057200Y-61138095D01*
X133057200Y-61138095D02*
X132961961Y-61233333D01*
X132961961Y-61233333D02*
X132866723Y-61280952D01*
X132866723Y-61280952D02*
X132676247Y-61328571D01*
X132676247Y-61328571D02*
X132533390Y-61328571D01*
X132533390Y-61328571D02*
X132342914Y-61280952D01*
X132342914Y-61280952D02*
X132247676Y-61233333D01*
X132247676Y-61233333D02*
X132152438Y-61138095D01*
X132152438Y-61138095D02*
X132104819Y-60995238D01*
X132104819Y-60995238D02*
X132104819Y-60900000D01*
X132104819Y-60900000D02*
X132152438Y-60757143D01*
X132152438Y-60757143D02*
X132200057Y-60709524D01*
X133104819Y-60138095D02*
X133057200Y-60233333D01*
X133057200Y-60233333D02*
X133009580Y-60280952D01*
X133009580Y-60280952D02*
X132914342Y-60328571D01*
X132914342Y-60328571D02*
X132628628Y-60328571D01*
X132628628Y-60328571D02*
X132533390Y-60280952D01*
X132533390Y-60280952D02*
X132485771Y-60233333D01*
X132485771Y-60233333D02*
X132438152Y-60138095D01*
X132438152Y-60138095D02*
X132438152Y-59995238D01*
X132438152Y-59995238D02*
X132485771Y-59900000D01*
X132485771Y-59900000D02*
X132533390Y-59852381D01*
X132533390Y-59852381D02*
X132628628Y-59804762D01*
X132628628Y-59804762D02*
X132914342Y-59804762D01*
X132914342Y-59804762D02*
X133009580Y-59852381D01*
X133009580Y-59852381D02*
X133057200Y-59900000D01*
X133057200Y-59900000D02*
X133104819Y-59995238D01*
X133104819Y-59995238D02*
X133104819Y-60138095D01*
X132438152Y-59376190D02*
X133104819Y-59376190D01*
X132533390Y-59376190D02*
X132485771Y-59328571D01*
X132485771Y-59328571D02*
X132438152Y-59233333D01*
X132438152Y-59233333D02*
X132438152Y-59090476D01*
X132438152Y-59090476D02*
X132485771Y-58995238D01*
X132485771Y-58995238D02*
X132581009Y-58947619D01*
X132581009Y-58947619D02*
X133104819Y-58947619D01*
X132438152Y-58471428D02*
X133104819Y-58471428D01*
X132533390Y-58471428D02*
X132485771Y-58423809D01*
X132485771Y-58423809D02*
X132438152Y-58328571D01*
X132438152Y-58328571D02*
X132438152Y-58185714D01*
X132438152Y-58185714D02*
X132485771Y-58090476D01*
X132485771Y-58090476D02*
X132581009Y-58042857D01*
X132581009Y-58042857D02*
X133104819Y-58042857D01*
X133200057Y-57804762D02*
X133200057Y-57042857D01*
X132104819Y-56614285D02*
X132104819Y-56519047D01*
X132104819Y-56519047D02*
X132152438Y-56423809D01*
X132152438Y-56423809D02*
X132200057Y-56376190D01*
X132200057Y-56376190D02*
X132295295Y-56328571D01*
X132295295Y-56328571D02*
X132485771Y-56280952D01*
X132485771Y-56280952D02*
X132723866Y-56280952D01*
X132723866Y-56280952D02*
X132914342Y-56328571D01*
X132914342Y-56328571D02*
X133009580Y-56376190D01*
X133009580Y-56376190D02*
X133057200Y-56423809D01*
X133057200Y-56423809D02*
X133104819Y-56519047D01*
X133104819Y-56519047D02*
X133104819Y-56614285D01*
X133104819Y-56614285D02*
X133057200Y-56709523D01*
X133057200Y-56709523D02*
X133009580Y-56757142D01*
X133009580Y-56757142D02*
X132914342Y-56804761D01*
X132914342Y-56804761D02*
X132723866Y-56852380D01*
X132723866Y-56852380D02*
X132485771Y-56852380D01*
X132485771Y-56852380D02*
X132295295Y-56804761D01*
X132295295Y-56804761D02*
X132200057Y-56757142D01*
X132200057Y-56757142D02*
X132152438Y-56709523D01*
X132152438Y-56709523D02*
X132104819Y-56614285D01*
X133104819Y-55328571D02*
X133104819Y-55899999D01*
X133104819Y-55614285D02*
X132104819Y-55614285D01*
X132104819Y-55614285D02*
X132247676Y-55709523D01*
X132247676Y-55709523D02*
X132342914Y-55804761D01*
X132342914Y-55804761D02*
X132390533Y-55899999D01*
X133104819Y-54995237D02*
X132438152Y-54471428D01*
X132438152Y-54995237D02*
X133104819Y-54471428D01*
X132104819Y-53899999D02*
X132104819Y-53804761D01*
X132104819Y-53804761D02*
X132152438Y-53709523D01*
X132152438Y-53709523D02*
X132200057Y-53661904D01*
X132200057Y-53661904D02*
X132295295Y-53614285D01*
X132295295Y-53614285D02*
X132485771Y-53566666D01*
X132485771Y-53566666D02*
X132723866Y-53566666D01*
X132723866Y-53566666D02*
X132914342Y-53614285D01*
X132914342Y-53614285D02*
X133009580Y-53661904D01*
X133009580Y-53661904D02*
X133057200Y-53709523D01*
X133057200Y-53709523D02*
X133104819Y-53804761D01*
X133104819Y-53804761D02*
X133104819Y-53899999D01*
X133104819Y-53899999D02*
X133057200Y-53995237D01*
X133057200Y-53995237D02*
X133009580Y-54042856D01*
X133009580Y-54042856D02*
X132914342Y-54090475D01*
X132914342Y-54090475D02*
X132723866Y-54138094D01*
X132723866Y-54138094D02*
X132485771Y-54138094D01*
X132485771Y-54138094D02*
X132295295Y-54090475D01*
X132295295Y-54090475D02*
X132200057Y-54042856D01*
X132200057Y-54042856D02*
X132152438Y-53995237D01*
X132152438Y-53995237D02*
X132104819Y-53899999D01*
X132104819Y-52661904D02*
X132104819Y-53138094D01*
X132104819Y-53138094D02*
X132581009Y-53185713D01*
X132581009Y-53185713D02*
X132533390Y-53138094D01*
X132533390Y-53138094D02*
X132485771Y-53042856D01*
X132485771Y-53042856D02*
X132485771Y-52804761D01*
X132485771Y-52804761D02*
X132533390Y-52709523D01*
X132533390Y-52709523D02*
X132581009Y-52661904D01*
X132581009Y-52661904D02*
X132676247Y-52614285D01*
X132676247Y-52614285D02*
X132914342Y-52614285D01*
X132914342Y-52614285D02*
X133009580Y-52661904D01*
X133009580Y-52661904D02*
X133057200Y-52709523D01*
X133057200Y-52709523D02*
X133104819Y-52804761D01*
X133104819Y-52804761D02*
X133104819Y-53042856D01*
X133104819Y-53042856D02*
X133057200Y-53138094D01*
X133057200Y-53138094D02*
X133009580Y-53185713D01*
X133200057Y-52423809D02*
X133200057Y-51661904D01*
X133104819Y-51423808D02*
X132104819Y-51423808D01*
X132104819Y-51423808D02*
X132104819Y-51042856D01*
X132104819Y-51042856D02*
X132152438Y-50947618D01*
X132152438Y-50947618D02*
X132200057Y-50899999D01*
X132200057Y-50899999D02*
X132295295Y-50852380D01*
X132295295Y-50852380D02*
X132438152Y-50852380D01*
X132438152Y-50852380D02*
X132533390Y-50899999D01*
X132533390Y-50899999D02*
X132581009Y-50947618D01*
X132581009Y-50947618D02*
X132628628Y-51042856D01*
X132628628Y-51042856D02*
X132628628Y-51423808D01*
X133104819Y-50423808D02*
X132438152Y-50423808D01*
X132104819Y-50423808D02*
X132152438Y-50471427D01*
X132152438Y-50471427D02*
X132200057Y-50423808D01*
X132200057Y-50423808D02*
X132152438Y-50376189D01*
X132152438Y-50376189D02*
X132104819Y-50423808D01*
X132104819Y-50423808D02*
X132200057Y-50423808D01*
X132438152Y-49947618D02*
X133104819Y-49947618D01*
X132533390Y-49947618D02*
X132485771Y-49899999D01*
X132485771Y-49899999D02*
X132438152Y-49804761D01*
X132438152Y-49804761D02*
X132438152Y-49661904D01*
X132438152Y-49661904D02*
X132485771Y-49566666D01*
X132485771Y-49566666D02*
X132581009Y-49519047D01*
X132581009Y-49519047D02*
X133104819Y-49519047D01*
X139726666Y-54854819D02*
X139726666Y-55569104D01*
X139726666Y-55569104D02*
X139679047Y-55711961D01*
X139679047Y-55711961D02*
X139583809Y-55807200D01*
X139583809Y-55807200D02*
X139440952Y-55854819D01*
X139440952Y-55854819D02*
X139345714Y-55854819D01*
X140679047Y-54854819D02*
X140202857Y-54854819D01*
X140202857Y-54854819D02*
X140155238Y-55331009D01*
X140155238Y-55331009D02*
X140202857Y-55283390D01*
X140202857Y-55283390D02*
X140298095Y-55235771D01*
X140298095Y-55235771D02*
X140536190Y-55235771D01*
X140536190Y-55235771D02*
X140631428Y-55283390D01*
X140631428Y-55283390D02*
X140679047Y-55331009D01*
X140679047Y-55331009D02*
X140726666Y-55426247D01*
X140726666Y-55426247D02*
X140726666Y-55664342D01*
X140726666Y-55664342D02*
X140679047Y-55759580D01*
X140679047Y-55759580D02*
X140631428Y-55807200D01*
X140631428Y-55807200D02*
X140536190Y-55854819D01*
X140536190Y-55854819D02*
X140298095Y-55854819D01*
X140298095Y-55854819D02*
X140202857Y-55807200D01*
X140202857Y-55807200D02*
X140155238Y-55759580D01*
X121226666Y-53004819D02*
X121798094Y-53004819D01*
X121512380Y-54004819D02*
X121512380Y-53004819D01*
X122512380Y-53957200D02*
X122417142Y-54004819D01*
X122417142Y-54004819D02*
X122226666Y-54004819D01*
X122226666Y-54004819D02*
X122131428Y-53957200D01*
X122131428Y-53957200D02*
X122083809Y-53861961D01*
X122083809Y-53861961D02*
X122083809Y-53481009D01*
X122083809Y-53481009D02*
X122131428Y-53385771D01*
X122131428Y-53385771D02*
X122226666Y-53338152D01*
X122226666Y-53338152D02*
X122417142Y-53338152D01*
X122417142Y-53338152D02*
X122512380Y-53385771D01*
X122512380Y-53385771D02*
X122559999Y-53481009D01*
X122559999Y-53481009D02*
X122559999Y-53576247D01*
X122559999Y-53576247D02*
X122083809Y-53671485D01*
X122940952Y-53957200D02*
X123036190Y-54004819D01*
X123036190Y-54004819D02*
X123226666Y-54004819D01*
X123226666Y-54004819D02*
X123321904Y-53957200D01*
X123321904Y-53957200D02*
X123369523Y-53861961D01*
X123369523Y-53861961D02*
X123369523Y-53814342D01*
X123369523Y-53814342D02*
X123321904Y-53719104D01*
X123321904Y-53719104D02*
X123226666Y-53671485D01*
X123226666Y-53671485D02*
X123083809Y-53671485D01*
X123083809Y-53671485D02*
X122988571Y-53623866D01*
X122988571Y-53623866D02*
X122940952Y-53528628D01*
X122940952Y-53528628D02*
X122940952Y-53481009D01*
X122940952Y-53481009D02*
X122988571Y-53385771D01*
X122988571Y-53385771D02*
X123083809Y-53338152D01*
X123083809Y-53338152D02*
X123226666Y-53338152D01*
X123226666Y-53338152D02*
X123321904Y-53385771D01*
X123655238Y-53338152D02*
X124036190Y-53338152D01*
X123798095Y-53004819D02*
X123798095Y-53861961D01*
X123798095Y-53861961D02*
X123845714Y-53957200D01*
X123845714Y-53957200D02*
X123940952Y-54004819D01*
X123940952Y-54004819D02*
X124036190Y-54004819D01*
X124369524Y-54004819D02*
X124369524Y-53004819D01*
X124369524Y-53004819D02*
X124750476Y-53004819D01*
X124750476Y-53004819D02*
X124845714Y-53052438D01*
X124845714Y-53052438D02*
X124893333Y-53100057D01*
X124893333Y-53100057D02*
X124940952Y-53195295D01*
X124940952Y-53195295D02*
X124940952Y-53338152D01*
X124940952Y-53338152D02*
X124893333Y-53433390D01*
X124893333Y-53433390D02*
X124845714Y-53481009D01*
X124845714Y-53481009D02*
X124750476Y-53528628D01*
X124750476Y-53528628D02*
X124369524Y-53528628D01*
X125512381Y-54004819D02*
X125417143Y-53957200D01*
X125417143Y-53957200D02*
X125369524Y-53909580D01*
X125369524Y-53909580D02*
X125321905Y-53814342D01*
X125321905Y-53814342D02*
X125321905Y-53528628D01*
X125321905Y-53528628D02*
X125369524Y-53433390D01*
X125369524Y-53433390D02*
X125417143Y-53385771D01*
X125417143Y-53385771D02*
X125512381Y-53338152D01*
X125512381Y-53338152D02*
X125655238Y-53338152D01*
X125655238Y-53338152D02*
X125750476Y-53385771D01*
X125750476Y-53385771D02*
X125798095Y-53433390D01*
X125798095Y-53433390D02*
X125845714Y-53528628D01*
X125845714Y-53528628D02*
X125845714Y-53814342D01*
X125845714Y-53814342D02*
X125798095Y-53909580D01*
X125798095Y-53909580D02*
X125750476Y-53957200D01*
X125750476Y-53957200D02*
X125655238Y-54004819D01*
X125655238Y-54004819D02*
X125512381Y-54004819D01*
X126274286Y-54004819D02*
X126274286Y-53338152D01*
X126274286Y-53004819D02*
X126226667Y-53052438D01*
X126226667Y-53052438D02*
X126274286Y-53100057D01*
X126274286Y-53100057D02*
X126321905Y-53052438D01*
X126321905Y-53052438D02*
X126274286Y-53004819D01*
X126274286Y-53004819D02*
X126274286Y-53100057D01*
X126750476Y-53338152D02*
X126750476Y-54004819D01*
X126750476Y-53433390D02*
X126798095Y-53385771D01*
X126798095Y-53385771D02*
X126893333Y-53338152D01*
X126893333Y-53338152D02*
X127036190Y-53338152D01*
X127036190Y-53338152D02*
X127131428Y-53385771D01*
X127131428Y-53385771D02*
X127179047Y-53481009D01*
X127179047Y-53481009D02*
X127179047Y-54004819D01*
X127512381Y-53338152D02*
X127893333Y-53338152D01*
X127655238Y-53004819D02*
X127655238Y-53861961D01*
X127655238Y-53861961D02*
X127702857Y-53957200D01*
X127702857Y-53957200D02*
X127798095Y-54004819D01*
X127798095Y-54004819D02*
X127893333Y-54004819D01*
X123298095Y-48954819D02*
X123869523Y-48954819D01*
X123583809Y-49954819D02*
X123583809Y-48954819D01*
X124202857Y-49954819D02*
X124202857Y-48954819D01*
X124202857Y-48954819D02*
X124583809Y-48954819D01*
X124583809Y-48954819D02*
X124679047Y-49002438D01*
X124679047Y-49002438D02*
X124726666Y-49050057D01*
X124726666Y-49050057D02*
X124774285Y-49145295D01*
X124774285Y-49145295D02*
X124774285Y-49288152D01*
X124774285Y-49288152D02*
X124726666Y-49383390D01*
X124726666Y-49383390D02*
X124679047Y-49431009D01*
X124679047Y-49431009D02*
X124583809Y-49478628D01*
X124583809Y-49478628D02*
X124202857Y-49478628D01*
X125726666Y-49954819D02*
X125155238Y-49954819D01*
X125440952Y-49954819D02*
X125440952Y-48954819D01*
X125440952Y-48954819D02*
X125345714Y-49097676D01*
X125345714Y-49097676D02*
X125250476Y-49192914D01*
X125250476Y-49192914D02*
X125155238Y-49240533D01*
X127638571Y-75319104D02*
X128114761Y-75319104D01*
X127543333Y-75604819D02*
X127876666Y-74604819D01*
X127876666Y-74604819D02*
X128209999Y-75604819D01*
X128400476Y-74604819D02*
X128971904Y-74604819D01*
X128686190Y-75604819D02*
X128686190Y-74604819D01*
X129162381Y-74938152D02*
X129543333Y-74938152D01*
X129305238Y-74604819D02*
X129305238Y-75461961D01*
X129305238Y-75461961D02*
X129352857Y-75557200D01*
X129352857Y-75557200D02*
X129448095Y-75604819D01*
X129448095Y-75604819D02*
X129543333Y-75604819D01*
X129876667Y-75604819D02*
X129876667Y-74938152D01*
X129876667Y-74604819D02*
X129829048Y-74652438D01*
X129829048Y-74652438D02*
X129876667Y-74700057D01*
X129876667Y-74700057D02*
X129924286Y-74652438D01*
X129924286Y-74652438D02*
X129876667Y-74604819D01*
X129876667Y-74604819D02*
X129876667Y-74700057D01*
X130352857Y-74938152D02*
X130352857Y-75604819D01*
X130352857Y-75033390D02*
X130400476Y-74985771D01*
X130400476Y-74985771D02*
X130495714Y-74938152D01*
X130495714Y-74938152D02*
X130638571Y-74938152D01*
X130638571Y-74938152D02*
X130733809Y-74985771D01*
X130733809Y-74985771D02*
X130781428Y-75081009D01*
X130781428Y-75081009D02*
X130781428Y-75604819D01*
X131162381Y-74938152D02*
X131400476Y-75604819D01*
X131638571Y-74938152D02*
X131400476Y-75604819D01*
X131400476Y-75604819D02*
X131305238Y-75842914D01*
X131305238Y-75842914D02*
X131257619Y-75890533D01*
X131257619Y-75890533D02*
X131162381Y-75938152D01*
X131924286Y-74604819D02*
X132543333Y-74604819D01*
X132543333Y-74604819D02*
X132210000Y-74985771D01*
X132210000Y-74985771D02*
X132352857Y-74985771D01*
X132352857Y-74985771D02*
X132448095Y-75033390D01*
X132448095Y-75033390D02*
X132495714Y-75081009D01*
X132495714Y-75081009D02*
X132543333Y-75176247D01*
X132543333Y-75176247D02*
X132543333Y-75414342D01*
X132543333Y-75414342D02*
X132495714Y-75509580D01*
X132495714Y-75509580D02*
X132448095Y-75557200D01*
X132448095Y-75557200D02*
X132352857Y-75604819D01*
X132352857Y-75604819D02*
X132067143Y-75604819D01*
X132067143Y-75604819D02*
X131971905Y-75557200D01*
X131971905Y-75557200D02*
X131924286Y-75509580D01*
X132924286Y-74700057D02*
X132971905Y-74652438D01*
X132971905Y-74652438D02*
X133067143Y-74604819D01*
X133067143Y-74604819D02*
X133305238Y-74604819D01*
X133305238Y-74604819D02*
X133400476Y-74652438D01*
X133400476Y-74652438D02*
X133448095Y-74700057D01*
X133448095Y-74700057D02*
X133495714Y-74795295D01*
X133495714Y-74795295D02*
X133495714Y-74890533D01*
X133495714Y-74890533D02*
X133448095Y-75033390D01*
X133448095Y-75033390D02*
X132876667Y-75604819D01*
X132876667Y-75604819D02*
X133495714Y-75604819D01*
X134448095Y-75604819D02*
X133876667Y-75604819D01*
X134162381Y-75604819D02*
X134162381Y-74604819D01*
X134162381Y-74604819D02*
X134067143Y-74747676D01*
X134067143Y-74747676D02*
X133971905Y-74842914D01*
X133971905Y-74842914D02*
X133876667Y-74890533D01*
X134781429Y-74604819D02*
X135448095Y-74604819D01*
X135448095Y-74604819D02*
X135019524Y-75604819D01*
X135829048Y-75223866D02*
X136590953Y-75223866D01*
X137067143Y-75604819D02*
X137067143Y-74604819D01*
X137067143Y-74604819D02*
X137400476Y-75319104D01*
X137400476Y-75319104D02*
X137733809Y-74604819D01*
X137733809Y-74604819D02*
X137733809Y-75604819D01*
X131948095Y-71304819D02*
X131948095Y-72114342D01*
X131948095Y-72114342D02*
X131995714Y-72209580D01*
X131995714Y-72209580D02*
X132043333Y-72257200D01*
X132043333Y-72257200D02*
X132138571Y-72304819D01*
X132138571Y-72304819D02*
X132329047Y-72304819D01*
X132329047Y-72304819D02*
X132424285Y-72257200D01*
X132424285Y-72257200D02*
X132471904Y-72209580D01*
X132471904Y-72209580D02*
X132519523Y-72114342D01*
X132519523Y-72114342D02*
X132519523Y-71304819D01*
X132948095Y-71400057D02*
X132995714Y-71352438D01*
X132995714Y-71352438D02*
X133090952Y-71304819D01*
X133090952Y-71304819D02*
X133329047Y-71304819D01*
X133329047Y-71304819D02*
X133424285Y-71352438D01*
X133424285Y-71352438D02*
X133471904Y-71400057D01*
X133471904Y-71400057D02*
X133519523Y-71495295D01*
X133519523Y-71495295D02*
X133519523Y-71590533D01*
X133519523Y-71590533D02*
X133471904Y-71733390D01*
X133471904Y-71733390D02*
X132900476Y-72304819D01*
X132900476Y-72304819D02*
X133519523Y-72304819D01*
X126594819Y-73445238D02*
X126594819Y-74016666D01*
X126594819Y-73730952D02*
X125594819Y-73730952D01*
X125594819Y-73730952D02*
X125737676Y-73826190D01*
X125737676Y-73826190D02*
X125832914Y-73921428D01*
X125832914Y-73921428D02*
X125880533Y-74016666D01*
X125928152Y-72588095D02*
X126594819Y-72588095D01*
X125928152Y-73016666D02*
X126451961Y-73016666D01*
X126451961Y-73016666D02*
X126547200Y-72969047D01*
X126547200Y-72969047D02*
X126594819Y-72873809D01*
X126594819Y-72873809D02*
X126594819Y-72730952D01*
X126594819Y-72730952D02*
X126547200Y-72635714D01*
X126547200Y-72635714D02*
X126499580Y-72588095D01*
X126071009Y-71778571D02*
X126071009Y-72111904D01*
X126594819Y-72111904D02*
X125594819Y-72111904D01*
X125594819Y-72111904D02*
X125594819Y-71635714D01*
D11*
X124853832Y-73107142D02*
X124872880Y-73126190D01*
X124872880Y-73126190D02*
X124891927Y-73183332D01*
X124891927Y-73183332D02*
X124891927Y-73221428D01*
X124891927Y-73221428D02*
X124872880Y-73278571D01*
X124872880Y-73278571D02*
X124834784Y-73316666D01*
X124834784Y-73316666D02*
X124796689Y-73335713D01*
X124796689Y-73335713D02*
X124720499Y-73354761D01*
X124720499Y-73354761D02*
X124663356Y-73354761D01*
X124663356Y-73354761D02*
X124587165Y-73335713D01*
X124587165Y-73335713D02*
X124549070Y-73316666D01*
X124549070Y-73316666D02*
X124510975Y-73278571D01*
X124510975Y-73278571D02*
X124491927Y-73221428D01*
X124491927Y-73221428D02*
X124491927Y-73183332D01*
X124491927Y-73183332D02*
X124510975Y-73126190D01*
X124510975Y-73126190D02*
X124530022Y-73107142D01*
X124891927Y-72726190D02*
X124891927Y-72954761D01*
X124891927Y-72840475D02*
X124491927Y-72840475D01*
X124491927Y-72840475D02*
X124549070Y-72878571D01*
X124549070Y-72878571D02*
X124587165Y-72916666D01*
X124587165Y-72916666D02*
X124606213Y-72954761D01*
X124491927Y-72592857D02*
X124491927Y-72345238D01*
X124491927Y-72345238D02*
X124644308Y-72478571D01*
X124644308Y-72478571D02*
X124644308Y-72421428D01*
X124644308Y-72421428D02*
X124663356Y-72383333D01*
X124663356Y-72383333D02*
X124682403Y-72364285D01*
X124682403Y-72364285D02*
X124720499Y-72345238D01*
X124720499Y-72345238D02*
X124815737Y-72345238D01*
X124815737Y-72345238D02*
X124853832Y-72364285D01*
X124853832Y-72364285D02*
X124872880Y-72383333D01*
X124872880Y-72383333D02*
X124891927Y-72421428D01*
X124891927Y-72421428D02*
X124891927Y-72535714D01*
X124891927Y-72535714D02*
X124872880Y-72573809D01*
X124872880Y-72573809D02*
X124853832Y-72592857D01*
D10*
X123754643Y-87324818D02*
X123849881Y-87324818D01*
X123849881Y-87324818D02*
X123945119Y-87372437D01*
X123945119Y-87372437D02*
X123992738Y-87420056D01*
X123992738Y-87420056D02*
X124040357Y-87515294D01*
X124040357Y-87515294D02*
X124087976Y-87705770D01*
X124087976Y-87705770D02*
X124087976Y-87943865D01*
X124087976Y-87943865D02*
X124040357Y-88134341D01*
X124040357Y-88134341D02*
X123992738Y-88229579D01*
X123992738Y-88229579D02*
X123945119Y-88277199D01*
X123945119Y-88277199D02*
X123849881Y-88324818D01*
X123849881Y-88324818D02*
X123754643Y-88324818D01*
X123754643Y-88324818D02*
X123659405Y-88277199D01*
X123659405Y-88277199D02*
X123611786Y-88229579D01*
X123611786Y-88229579D02*
X123564167Y-88134341D01*
X123564167Y-88134341D02*
X123516548Y-87943865D01*
X123516548Y-87943865D02*
X123516548Y-87705770D01*
X123516548Y-87705770D02*
X123564167Y-87515294D01*
X123564167Y-87515294D02*
X123611786Y-87420056D01*
X123611786Y-87420056D02*
X123659405Y-87372437D01*
X123659405Y-87372437D02*
X123754643Y-87324818D01*
X124516548Y-88229579D02*
X124564167Y-88277199D01*
X124564167Y-88277199D02*
X124516548Y-88324818D01*
X124516548Y-88324818D02*
X124468929Y-88277199D01*
X124468929Y-88277199D02*
X124516548Y-88229579D01*
X124516548Y-88229579D02*
X124516548Y-88324818D01*
X125516547Y-88324818D02*
X124945119Y-88324818D01*
X125230833Y-88324818D02*
X125230833Y-87324818D01*
X125230833Y-87324818D02*
X125135595Y-87467675D01*
X125135595Y-87467675D02*
X125040357Y-87562913D01*
X125040357Y-87562913D02*
X124945119Y-87610532D01*
X126373690Y-87658151D02*
X126373690Y-88324818D01*
X125945119Y-87658151D02*
X125945119Y-88181960D01*
X125945119Y-88181960D02*
X125992738Y-88277199D01*
X125992738Y-88277199D02*
X126087976Y-88324818D01*
X126087976Y-88324818D02*
X126230833Y-88324818D01*
X126230833Y-88324818D02*
X126326071Y-88277199D01*
X126326071Y-88277199D02*
X126373690Y-88229579D01*
X127183214Y-87801008D02*
X126849881Y-87801008D01*
X126849881Y-88324818D02*
X126849881Y-87324818D01*
X126849881Y-87324818D02*
X127326071Y-87324818D01*
D11*
X125330833Y-89443832D02*
X125311785Y-89462880D01*
X125311785Y-89462880D02*
X125254643Y-89481927D01*
X125254643Y-89481927D02*
X125216547Y-89481927D01*
X125216547Y-89481927D02*
X125159404Y-89462880D01*
X125159404Y-89462880D02*
X125121309Y-89424784D01*
X125121309Y-89424784D02*
X125102262Y-89386689D01*
X125102262Y-89386689D02*
X125083214Y-89310499D01*
X125083214Y-89310499D02*
X125083214Y-89253356D01*
X125083214Y-89253356D02*
X125102262Y-89177165D01*
X125102262Y-89177165D02*
X125121309Y-89139070D01*
X125121309Y-89139070D02*
X125159404Y-89100975D01*
X125159404Y-89100975D02*
X125216547Y-89081927D01*
X125216547Y-89081927D02*
X125254643Y-89081927D01*
X125254643Y-89081927D02*
X125311785Y-89100975D01*
X125311785Y-89100975D02*
X125330833Y-89120022D01*
X125521309Y-89481927D02*
X125597500Y-89481927D01*
X125597500Y-89481927D02*
X125635595Y-89462880D01*
X125635595Y-89462880D02*
X125654643Y-89443832D01*
X125654643Y-89443832D02*
X125692738Y-89386689D01*
X125692738Y-89386689D02*
X125711785Y-89310499D01*
X125711785Y-89310499D02*
X125711785Y-89158118D01*
X125711785Y-89158118D02*
X125692738Y-89120022D01*
X125692738Y-89120022D02*
X125673690Y-89100975D01*
X125673690Y-89100975D02*
X125635595Y-89081927D01*
X125635595Y-89081927D02*
X125559404Y-89081927D01*
X125559404Y-89081927D02*
X125521309Y-89100975D01*
X125521309Y-89100975D02*
X125502262Y-89120022D01*
X125502262Y-89120022D02*
X125483214Y-89158118D01*
X125483214Y-89158118D02*
X125483214Y-89253356D01*
X125483214Y-89253356D02*
X125502262Y-89291451D01*
X125502262Y-89291451D02*
X125521309Y-89310499D01*
X125521309Y-89310499D02*
X125559404Y-89329546D01*
X125559404Y-89329546D02*
X125635595Y-89329546D01*
X125635595Y-89329546D02*
X125673690Y-89310499D01*
X125673690Y-89310499D02*
X125692738Y-89291451D01*
X125692738Y-89291451D02*
X125711785Y-89253356D01*
D12*
%TO.C,C2*%
X152778653Y-60642820D02*
X153578653Y-59257180D01*
X153471473Y-61042820D02*
X152778653Y-60642820D01*
X153578653Y-59257180D02*
X154271473Y-59657180D01*
X154271473Y-59657180D02*
X153471473Y-61042820D01*
%TO.C,C11*%
X127997500Y-78400001D02*
X129597500Y-78400002D01*
X127997500Y-79200000D02*
X127997500Y-78400001D01*
X129597500Y-78400002D02*
X129597500Y-79200001D01*
X129597500Y-79200001D02*
X127997500Y-79200000D01*
%TO.C,C3*%
X150613590Y-59392820D02*
X151413590Y-58007180D01*
X151306410Y-59792820D02*
X150613590Y-59392820D01*
X151413590Y-58007180D02*
X152106410Y-58407180D01*
X152106410Y-58407180D02*
X151306410Y-59792820D01*
%TO.C,J2*%
X133710000Y-103965000D02*
X134345000Y-103330000D01*
X133710000Y-105870000D02*
X133710000Y-103965000D01*
X134345000Y-103330000D02*
X146410000Y-103330000D01*
X146410000Y-103330000D02*
X146410000Y-105870000D01*
X146410000Y-105870000D02*
X133710000Y-105870000D01*
%TO.C,R1*%
X127297500Y-67550000D02*
X128122500Y-67550000D01*
X127297500Y-69150000D02*
X127297500Y-67550000D01*
X128122500Y-67550000D02*
X128122500Y-69150000D01*
X128122500Y-69150000D02*
X127297500Y-69150000D01*
%TO.C,C8*%
X154139872Y-98448854D02*
X154832692Y-98048854D01*
X154832692Y-98048854D02*
X155632692Y-99434494D01*
X154939872Y-99834494D02*
X154139872Y-98448854D01*
X155632692Y-99434494D02*
X154939872Y-99834494D01*
%TO.C,C14*%
X127310000Y-72050000D02*
X128110000Y-72050000D01*
X127310000Y-73650000D02*
X127310000Y-72050000D01*
X128110000Y-72050000D02*
X128110000Y-73650000D01*
X128110000Y-73650000D02*
X127310000Y-73650000D01*
%TO.C,C6*%
X149809745Y-100948854D02*
X150502565Y-100548854D01*
X150502565Y-100548854D02*
X151302565Y-101934494D01*
X150609745Y-102334494D02*
X149809745Y-100948854D01*
X151302565Y-101934494D02*
X150609745Y-102334494D01*
%TO.C,J3*%
X157185148Y-97154261D02*
X163535148Y-86155739D01*
X158834926Y-98106761D02*
X157185148Y-97154261D01*
X159702352Y-97874335D02*
X158834926Y-98106761D01*
X163535148Y-86155739D02*
X165734852Y-87425739D01*
X165734852Y-87425739D02*
X159702352Y-97874335D01*
%TO.C,C12*%
X126722500Y-65000001D02*
X128322500Y-65000001D01*
X126722500Y-65800001D02*
X126722500Y-65000001D01*
X128322500Y-65000001D02*
X128322500Y-65800001D01*
X128322500Y-65800001D02*
X126722500Y-65800001D01*
%TO.C,C10*%
X127960000Y-80600000D02*
X129560000Y-80600000D01*
X127960000Y-81400000D02*
X127960000Y-80600000D01*
X129560000Y-80600000D02*
X129560000Y-81400000D01*
X129560000Y-81400000D02*
X127960000Y-81400000D01*
%TO.C,J6*%
X114485148Y-72564261D02*
X120835148Y-61565739D01*
X116684852Y-73834261D02*
X114485148Y-72564261D01*
X120835148Y-61565739D02*
X122484926Y-62518239D01*
X122484926Y-62518239D02*
X122717352Y-63385665D01*
X122717352Y-63385665D02*
X116684852Y-73834261D01*
%TO.C,C5*%
X147644681Y-102198854D02*
X148337501Y-101798854D01*
X148337501Y-101798854D02*
X149137501Y-103184494D01*
X148444681Y-103584494D02*
X147644681Y-102198854D01*
X149137501Y-103184494D02*
X148444681Y-103584494D01*
%TO.C,C1*%
X154943717Y-61892820D02*
X155743717Y-60507180D01*
X155636537Y-62292820D02*
X154943717Y-61892820D01*
X155743717Y-60507180D02*
X156436537Y-60907180D01*
X156436537Y-60907180D02*
X155636537Y-62292820D01*
%TO.C,J4*%
X157148497Y-62812258D02*
X159348201Y-61542258D01*
X159348201Y-61542258D02*
X165698201Y-72540780D01*
X163180997Y-73260854D02*
X157148497Y-62812258D01*
X164048423Y-73493280D02*
X163180997Y-73260854D01*
X165698201Y-72540780D02*
X164048423Y-73493280D01*
%TO.C,C7*%
X151974807Y-99698853D02*
X152667630Y-99298854D01*
X152667630Y-99298854D02*
X153467629Y-100684495D01*
X152774806Y-101084494D02*
X151974807Y-99698853D01*
X153467629Y-100684495D02*
X152774806Y-101084494D01*
%TO.C,J1*%
X114802648Y-87985665D02*
X115035074Y-87118239D01*
X115035074Y-87118239D02*
X116684852Y-86165739D01*
X116684852Y-86165739D02*
X123034852Y-97164261D01*
X120835148Y-98434261D02*
X114802648Y-87985665D01*
X123034852Y-97164261D02*
X120835148Y-98434261D01*
%TO.C,C4*%
X148448526Y-58142820D02*
X149248526Y-56757180D01*
X149141346Y-58542820D02*
X148448526Y-58142820D01*
X149248526Y-56757180D02*
X149941346Y-57157180D01*
X149941346Y-57157180D02*
X149141346Y-58542820D01*
%TO.C,J5*%
X133710000Y-54130000D02*
X145775000Y-54130000D01*
X133710000Y-56670000D02*
X133710000Y-54130000D01*
X145775000Y-54130000D02*
X146410000Y-54765000D01*
X146410000Y-54765000D02*
X146410000Y-56670000D01*
X146410000Y-56670000D02*
X133710000Y-56670000D01*
%TO.C,U2*%
X130710000Y-70850000D02*
X131710000Y-69850000D01*
X130710000Y-73850000D02*
X130710000Y-70850000D01*
X131710000Y-69850000D02*
X134710000Y-69850000D01*
X134710000Y-69850000D02*
X134710000Y-73850000D01*
X134710000Y-73850000D02*
X130710000Y-73850000D01*
%TO.C,C13*%
X124310000Y-72050000D02*
X125110000Y-72050000D01*
X124310000Y-73650000D02*
X124310000Y-72050000D01*
X125110000Y-72050000D02*
X125110000Y-73650000D01*
X125110000Y-73650000D02*
X124310000Y-73650000D01*
%TO.C,C9*%
X124597499Y-89700000D02*
X124597500Y-88900000D01*
X124597500Y-88900000D02*
X126197501Y-88900000D01*
X126197500Y-89700000D02*
X124597499Y-89700000D01*
X126197501Y-88900000D02*
X126197500Y-89700000D01*
%TD*%
M02*
