%TF.GenerationSoftware,KiCad,Pcbnew,8.0.8*%
%TF.CreationDate,2025-04-07T13:28:21-04:00*%
%TF.ProjectId,pcb_tile_game_tile_aoa,7063625f-7469-46c6-955f-67616d655f74,1.0*%
%TF.SameCoordinates,Original*%
%TF.FileFunction,AssemblyDrawing,Bot*%
%FSLAX46Y46*%
G04 Gerber Fmt 4.6, Leading zero omitted, Abs format (unit mm)*
G04 Created by KiCad (PCBNEW 8.0.8) date 2025-04-07 13:28:21*
%MOMM*%
%LPD*%
G01*
G04 APERTURE LIST*
%ADD10C,0.150000*%
G04 APERTURE END LIST*
D10*
X145293332Y-96099104D02*
X145150475Y-96146723D01*
X145150475Y-96146723D02*
X144912380Y-96146723D01*
X144912380Y-96146723D02*
X144817142Y-96099104D01*
X144817142Y-96099104D02*
X144769523Y-96051484D01*
X144769523Y-96051484D02*
X144721904Y-95956246D01*
X144721904Y-95956246D02*
X144721904Y-95861008D01*
X144721904Y-95861008D02*
X144769523Y-95765770D01*
X144769523Y-95765770D02*
X144817142Y-95718151D01*
X144817142Y-95718151D02*
X144912380Y-95670532D01*
X144912380Y-95670532D02*
X145102856Y-95622913D01*
X145102856Y-95622913D02*
X145198094Y-95575294D01*
X145198094Y-95575294D02*
X145245713Y-95527675D01*
X145245713Y-95527675D02*
X145293332Y-95432437D01*
X145293332Y-95432437D02*
X145293332Y-95337199D01*
X145293332Y-95337199D02*
X145245713Y-95241961D01*
X145245713Y-95241961D02*
X145198094Y-95194342D01*
X145198094Y-95194342D02*
X145102856Y-95146723D01*
X145102856Y-95146723D02*
X144864761Y-95146723D01*
X144864761Y-95146723D02*
X144721904Y-95194342D01*
X144293332Y-96146723D02*
X144293332Y-95146723D01*
X143721904Y-96146723D02*
X144150475Y-95575294D01*
X143721904Y-95146723D02*
X144293332Y-95718151D01*
X142864761Y-95146723D02*
X143055237Y-95146723D01*
X143055237Y-95146723D02*
X143150475Y-95194342D01*
X143150475Y-95194342D02*
X143198094Y-95241961D01*
X143198094Y-95241961D02*
X143293332Y-95384818D01*
X143293332Y-95384818D02*
X143340951Y-95575294D01*
X143340951Y-95575294D02*
X143340951Y-95956246D01*
X143340951Y-95956246D02*
X143293332Y-96051484D01*
X143293332Y-96051484D02*
X143245713Y-96099104D01*
X143245713Y-96099104D02*
X143150475Y-96146723D01*
X143150475Y-96146723D02*
X142959999Y-96146723D01*
X142959999Y-96146723D02*
X142864761Y-96099104D01*
X142864761Y-96099104D02*
X142817142Y-96051484D01*
X142817142Y-96051484D02*
X142769523Y-95956246D01*
X142769523Y-95956246D02*
X142769523Y-95718151D01*
X142769523Y-95718151D02*
X142817142Y-95622913D01*
X142817142Y-95622913D02*
X142864761Y-95575294D01*
X142864761Y-95575294D02*
X142959999Y-95527675D01*
X142959999Y-95527675D02*
X143150475Y-95527675D01*
X143150475Y-95527675D02*
X143245713Y-95575294D01*
X143245713Y-95575294D02*
X143293332Y-95622913D01*
X143293332Y-95622913D02*
X143340951Y-95718151D01*
X142198094Y-95575294D02*
X142293332Y-95527675D01*
X142293332Y-95527675D02*
X142340951Y-95480056D01*
X142340951Y-95480056D02*
X142388570Y-95384818D01*
X142388570Y-95384818D02*
X142388570Y-95337199D01*
X142388570Y-95337199D02*
X142340951Y-95241961D01*
X142340951Y-95241961D02*
X142293332Y-95194342D01*
X142293332Y-95194342D02*
X142198094Y-95146723D01*
X142198094Y-95146723D02*
X142007618Y-95146723D01*
X142007618Y-95146723D02*
X141912380Y-95194342D01*
X141912380Y-95194342D02*
X141864761Y-95241961D01*
X141864761Y-95241961D02*
X141817142Y-95337199D01*
X141817142Y-95337199D02*
X141817142Y-95384818D01*
X141817142Y-95384818D02*
X141864761Y-95480056D01*
X141864761Y-95480056D02*
X141912380Y-95527675D01*
X141912380Y-95527675D02*
X142007618Y-95575294D01*
X142007618Y-95575294D02*
X142198094Y-95575294D01*
X142198094Y-95575294D02*
X142293332Y-95622913D01*
X142293332Y-95622913D02*
X142340951Y-95670532D01*
X142340951Y-95670532D02*
X142388570Y-95765770D01*
X142388570Y-95765770D02*
X142388570Y-95956246D01*
X142388570Y-95956246D02*
X142340951Y-96051484D01*
X142340951Y-96051484D02*
X142293332Y-96099104D01*
X142293332Y-96099104D02*
X142198094Y-96146723D01*
X142198094Y-96146723D02*
X142007618Y-96146723D01*
X142007618Y-96146723D02*
X141912380Y-96099104D01*
X141912380Y-96099104D02*
X141864761Y-96051484D01*
X141864761Y-96051484D02*
X141817142Y-95956246D01*
X141817142Y-95956246D02*
X141817142Y-95765770D01*
X141817142Y-95765770D02*
X141864761Y-95670532D01*
X141864761Y-95670532D02*
X141912380Y-95622913D01*
X141912380Y-95622913D02*
X142007618Y-95575294D01*
X140864761Y-96146723D02*
X141436189Y-96146723D01*
X141150475Y-96146723D02*
X141150475Y-95146723D01*
X141150475Y-95146723D02*
X141245713Y-95289580D01*
X141245713Y-95289580D02*
X141340951Y-95384818D01*
X141340951Y-95384818D02*
X141436189Y-95432437D01*
X140483808Y-95241961D02*
X140436189Y-95194342D01*
X140436189Y-95194342D02*
X140340951Y-95146723D01*
X140340951Y-95146723D02*
X140102856Y-95146723D01*
X140102856Y-95146723D02*
X140007618Y-95194342D01*
X140007618Y-95194342D02*
X139959999Y-95241961D01*
X139959999Y-95241961D02*
X139912380Y-95337199D01*
X139912380Y-95337199D02*
X139912380Y-95432437D01*
X139912380Y-95432437D02*
X139959999Y-95575294D01*
X139959999Y-95575294D02*
X140531427Y-96146723D01*
X140531427Y-96146723D02*
X139912380Y-96146723D01*
X139483808Y-96146723D02*
X139483808Y-95146723D01*
X139483808Y-95146723D02*
X139150475Y-95861008D01*
X139150475Y-95861008D02*
X138817142Y-95146723D01*
X138817142Y-95146723D02*
X138817142Y-96146723D01*
X138340951Y-96146723D02*
X138340951Y-95146723D01*
X137864761Y-96146723D02*
X137864761Y-95146723D01*
X137864761Y-95146723D02*
X137293333Y-96146723D01*
X137293333Y-96146723D02*
X137293333Y-95146723D01*
X136817142Y-96146723D02*
X136817142Y-95146723D01*
X136340952Y-95765770D02*
X135579048Y-95765770D01*
X135102857Y-95622913D02*
X134769524Y-95622913D01*
X134626667Y-96146723D02*
X135102857Y-96146723D01*
X135102857Y-96146723D02*
X135102857Y-95146723D01*
X135102857Y-95146723D02*
X134626667Y-95146723D01*
X127943332Y-87129104D02*
X127800475Y-87176723D01*
X127800475Y-87176723D02*
X127562380Y-87176723D01*
X127562380Y-87176723D02*
X127467142Y-87129104D01*
X127467142Y-87129104D02*
X127419523Y-87081484D01*
X127419523Y-87081484D02*
X127371904Y-86986246D01*
X127371904Y-86986246D02*
X127371904Y-86891008D01*
X127371904Y-86891008D02*
X127419523Y-86795770D01*
X127419523Y-86795770D02*
X127467142Y-86748151D01*
X127467142Y-86748151D02*
X127562380Y-86700532D01*
X127562380Y-86700532D02*
X127752856Y-86652913D01*
X127752856Y-86652913D02*
X127848094Y-86605294D01*
X127848094Y-86605294D02*
X127895713Y-86557675D01*
X127895713Y-86557675D02*
X127943332Y-86462437D01*
X127943332Y-86462437D02*
X127943332Y-86367199D01*
X127943332Y-86367199D02*
X127895713Y-86271961D01*
X127895713Y-86271961D02*
X127848094Y-86224342D01*
X127848094Y-86224342D02*
X127752856Y-86176723D01*
X127752856Y-86176723D02*
X127514761Y-86176723D01*
X127514761Y-86176723D02*
X127371904Y-86224342D01*
X126943332Y-87176723D02*
X126943332Y-86176723D01*
X126371904Y-87176723D02*
X126800475Y-86605294D01*
X126371904Y-86176723D02*
X126943332Y-86748151D01*
X125514761Y-86176723D02*
X125705237Y-86176723D01*
X125705237Y-86176723D02*
X125800475Y-86224342D01*
X125800475Y-86224342D02*
X125848094Y-86271961D01*
X125848094Y-86271961D02*
X125943332Y-86414818D01*
X125943332Y-86414818D02*
X125990951Y-86605294D01*
X125990951Y-86605294D02*
X125990951Y-86986246D01*
X125990951Y-86986246D02*
X125943332Y-87081484D01*
X125943332Y-87081484D02*
X125895713Y-87129104D01*
X125895713Y-87129104D02*
X125800475Y-87176723D01*
X125800475Y-87176723D02*
X125609999Y-87176723D01*
X125609999Y-87176723D02*
X125514761Y-87129104D01*
X125514761Y-87129104D02*
X125467142Y-87081484D01*
X125467142Y-87081484D02*
X125419523Y-86986246D01*
X125419523Y-86986246D02*
X125419523Y-86748151D01*
X125419523Y-86748151D02*
X125467142Y-86652913D01*
X125467142Y-86652913D02*
X125514761Y-86605294D01*
X125514761Y-86605294D02*
X125609999Y-86557675D01*
X125609999Y-86557675D02*
X125800475Y-86557675D01*
X125800475Y-86557675D02*
X125895713Y-86605294D01*
X125895713Y-86605294D02*
X125943332Y-86652913D01*
X125943332Y-86652913D02*
X125990951Y-86748151D01*
X124848094Y-86605294D02*
X124943332Y-86557675D01*
X124943332Y-86557675D02*
X124990951Y-86510056D01*
X124990951Y-86510056D02*
X125038570Y-86414818D01*
X125038570Y-86414818D02*
X125038570Y-86367199D01*
X125038570Y-86367199D02*
X124990951Y-86271961D01*
X124990951Y-86271961D02*
X124943332Y-86224342D01*
X124943332Y-86224342D02*
X124848094Y-86176723D01*
X124848094Y-86176723D02*
X124657618Y-86176723D01*
X124657618Y-86176723D02*
X124562380Y-86224342D01*
X124562380Y-86224342D02*
X124514761Y-86271961D01*
X124514761Y-86271961D02*
X124467142Y-86367199D01*
X124467142Y-86367199D02*
X124467142Y-86414818D01*
X124467142Y-86414818D02*
X124514761Y-86510056D01*
X124514761Y-86510056D02*
X124562380Y-86557675D01*
X124562380Y-86557675D02*
X124657618Y-86605294D01*
X124657618Y-86605294D02*
X124848094Y-86605294D01*
X124848094Y-86605294D02*
X124943332Y-86652913D01*
X124943332Y-86652913D02*
X124990951Y-86700532D01*
X124990951Y-86700532D02*
X125038570Y-86795770D01*
X125038570Y-86795770D02*
X125038570Y-86986246D01*
X125038570Y-86986246D02*
X124990951Y-87081484D01*
X124990951Y-87081484D02*
X124943332Y-87129104D01*
X124943332Y-87129104D02*
X124848094Y-87176723D01*
X124848094Y-87176723D02*
X124657618Y-87176723D01*
X124657618Y-87176723D02*
X124562380Y-87129104D01*
X124562380Y-87129104D02*
X124514761Y-87081484D01*
X124514761Y-87081484D02*
X124467142Y-86986246D01*
X124467142Y-86986246D02*
X124467142Y-86795770D01*
X124467142Y-86795770D02*
X124514761Y-86700532D01*
X124514761Y-86700532D02*
X124562380Y-86652913D01*
X124562380Y-86652913D02*
X124657618Y-86605294D01*
X123514761Y-87176723D02*
X124086189Y-87176723D01*
X123800475Y-87176723D02*
X123800475Y-86176723D01*
X123800475Y-86176723D02*
X123895713Y-86319580D01*
X123895713Y-86319580D02*
X123990951Y-86414818D01*
X123990951Y-86414818D02*
X124086189Y-86462437D01*
X123133808Y-86271961D02*
X123086189Y-86224342D01*
X123086189Y-86224342D02*
X122990951Y-86176723D01*
X122990951Y-86176723D02*
X122752856Y-86176723D01*
X122752856Y-86176723D02*
X122657618Y-86224342D01*
X122657618Y-86224342D02*
X122609999Y-86271961D01*
X122609999Y-86271961D02*
X122562380Y-86367199D01*
X122562380Y-86367199D02*
X122562380Y-86462437D01*
X122562380Y-86462437D02*
X122609999Y-86605294D01*
X122609999Y-86605294D02*
X123181427Y-87176723D01*
X123181427Y-87176723D02*
X122562380Y-87176723D01*
X122133808Y-87176723D02*
X122133808Y-86176723D01*
X122133808Y-86176723D02*
X121800475Y-86891008D01*
X121800475Y-86891008D02*
X121467142Y-86176723D01*
X121467142Y-86176723D02*
X121467142Y-87176723D01*
X120990951Y-87176723D02*
X120990951Y-86176723D01*
X120514761Y-87176723D02*
X120514761Y-86176723D01*
X120514761Y-86176723D02*
X119943333Y-87176723D01*
X119943333Y-87176723D02*
X119943333Y-86176723D01*
X119467142Y-87176723D02*
X119467142Y-86176723D01*
X118990952Y-86795770D02*
X118229048Y-86795770D01*
X117752857Y-86652913D02*
X117419524Y-86652913D01*
X117276667Y-87176723D02*
X117752857Y-87176723D01*
X117752857Y-87176723D02*
X117752857Y-86176723D01*
X117752857Y-86176723D02*
X117276667Y-86176723D01*
X158857123Y-77716686D02*
X158744455Y-77616778D01*
X158744455Y-77616778D02*
X158625408Y-77410581D01*
X158625408Y-77410581D02*
X158619028Y-77304293D01*
X158619028Y-77304293D02*
X158636458Y-77239244D01*
X158636458Y-77239244D02*
X158695127Y-77150386D01*
X158695127Y-77150386D02*
X158777606Y-77102767D01*
X158777606Y-77102767D02*
X158883894Y-77096387D01*
X158883894Y-77096387D02*
X158948943Y-77113817D01*
X158948943Y-77113817D02*
X159037801Y-77172486D01*
X159037801Y-77172486D02*
X159174278Y-77313634D01*
X159174278Y-77313634D02*
X159263137Y-77372303D01*
X159263137Y-77372303D02*
X159328185Y-77389733D01*
X159328185Y-77389733D02*
X159434474Y-77383353D01*
X159434474Y-77383353D02*
X159516952Y-77335734D01*
X159516952Y-77335734D02*
X159575621Y-77246875D01*
X159575621Y-77246875D02*
X159593051Y-77181827D01*
X159593051Y-77181827D02*
X159586671Y-77075539D01*
X159586671Y-77075539D02*
X159467624Y-76869342D01*
X159467624Y-76869342D02*
X159354956Y-76769434D01*
X158315884Y-76874470D02*
X159181909Y-76374470D01*
X158030170Y-76379599D02*
X158739327Y-76465038D01*
X158896195Y-75879599D02*
X158687038Y-76660185D01*
X158467624Y-75137291D02*
X158562862Y-75302248D01*
X158562862Y-75302248D02*
X158569242Y-75408536D01*
X158569242Y-75408536D02*
X158551812Y-75473585D01*
X158551812Y-75473585D02*
X158475713Y-75627492D01*
X158475713Y-75627492D02*
X158334565Y-75763970D01*
X158334565Y-75763970D02*
X158004651Y-75954446D01*
X158004651Y-75954446D02*
X157898363Y-75960826D01*
X157898363Y-75960826D02*
X157833314Y-75943396D01*
X157833314Y-75943396D02*
X157744455Y-75884727D01*
X157744455Y-75884727D02*
X157649217Y-75719770D01*
X157649217Y-75719770D02*
X157642838Y-75613482D01*
X157642838Y-75613482D02*
X157660267Y-75548433D01*
X157660267Y-75548433D02*
X157718936Y-75459574D01*
X157718936Y-75459574D02*
X157925133Y-75340527D01*
X157925133Y-75340527D02*
X158031421Y-75334147D01*
X158031421Y-75334147D02*
X158096470Y-75351577D01*
X158096470Y-75351577D02*
X158185328Y-75410246D01*
X158185328Y-75410246D02*
X158280566Y-75575203D01*
X158280566Y-75575203D02*
X158286946Y-75681491D01*
X158286946Y-75681491D02*
X158269516Y-75746540D01*
X158269516Y-75746540D02*
X158210847Y-75835398D01*
X157763137Y-74774227D02*
X157851995Y-74832896D01*
X157851995Y-74832896D02*
X157917044Y-74850325D01*
X157917044Y-74850325D02*
X158023332Y-74843946D01*
X158023332Y-74843946D02*
X158064571Y-74820136D01*
X158064571Y-74820136D02*
X158123240Y-74731278D01*
X158123240Y-74731278D02*
X158140670Y-74666229D01*
X158140670Y-74666229D02*
X158134290Y-74559941D01*
X158134290Y-74559941D02*
X158039052Y-74394984D01*
X158039052Y-74394984D02*
X157950194Y-74336315D01*
X157950194Y-74336315D02*
X157885145Y-74318885D01*
X157885145Y-74318885D02*
X157778857Y-74325264D01*
X157778857Y-74325264D02*
X157737618Y-74349074D01*
X157737618Y-74349074D02*
X157678949Y-74437932D01*
X157678949Y-74437932D02*
X157661519Y-74502981D01*
X157661519Y-74502981D02*
X157667899Y-74609269D01*
X157667899Y-74609269D02*
X157763137Y-74774227D01*
X157763137Y-74774227D02*
X157769516Y-74880515D01*
X157769516Y-74880515D02*
X157752087Y-74945563D01*
X157752087Y-74945563D02*
X157693417Y-75034422D01*
X157693417Y-75034422D02*
X157528460Y-75129660D01*
X157528460Y-75129660D02*
X157422172Y-75136040D01*
X157422172Y-75136040D02*
X157357123Y-75118610D01*
X157357123Y-75118610D02*
X157268265Y-75059941D01*
X157268265Y-75059941D02*
X157173027Y-74894984D01*
X157173027Y-74894984D02*
X157166647Y-74788695D01*
X157166647Y-74788695D02*
X157184077Y-74723647D01*
X157184077Y-74723647D02*
X157242746Y-74634788D01*
X157242746Y-74634788D02*
X157407703Y-74539550D01*
X157407703Y-74539550D02*
X157513991Y-74533170D01*
X157513991Y-74533170D02*
X157579040Y-74550600D01*
X157579040Y-74550600D02*
X157667899Y-74609269D01*
X156601598Y-73905240D02*
X156887313Y-74400112D01*
X156744455Y-74152676D02*
X157610481Y-73652676D01*
X157610481Y-73652676D02*
X157534382Y-73806583D01*
X157534382Y-73806583D02*
X157499522Y-73936681D01*
X157499522Y-73936681D02*
X157505902Y-74042969D01*
X157194669Y-73122945D02*
X157212099Y-73057896D01*
X157212099Y-73057896D02*
X157205719Y-72951608D01*
X157205719Y-72951608D02*
X157086671Y-72745411D01*
X157086671Y-72745411D02*
X156997813Y-72686742D01*
X156997813Y-72686742D02*
X156932764Y-72669312D01*
X156932764Y-72669312D02*
X156826476Y-72675692D01*
X156826476Y-72675692D02*
X156743997Y-72723311D01*
X156743997Y-72723311D02*
X156644089Y-72835979D01*
X156644089Y-72835979D02*
X156434932Y-73616565D01*
X156434932Y-73616565D02*
X156125408Y-73080454D01*
X155911122Y-72709300D02*
X156777147Y-72209300D01*
X156777147Y-72209300D02*
X155991891Y-72277768D01*
X155991891Y-72277768D02*
X156443814Y-71631950D01*
X156443814Y-71631950D02*
X155577789Y-72131950D01*
X155339694Y-71719557D02*
X156205719Y-71219557D01*
X155101599Y-71307164D02*
X155967624Y-70807164D01*
X155967624Y-70807164D02*
X154815884Y-70812293D01*
X154815884Y-70812293D02*
X155681910Y-70312293D01*
X154577789Y-70399900D02*
X155443814Y-69899900D01*
X154669608Y-69797031D02*
X154288656Y-69137202D01*
X154174279Y-68653381D02*
X154007612Y-68364706D01*
X153482551Y-68502892D02*
X153720647Y-68915285D01*
X153720647Y-68915285D02*
X154586672Y-68415285D01*
X154586672Y-68415285D02*
X154348577Y-68002892D01*
X145293332Y-71799104D02*
X145150475Y-71846723D01*
X145150475Y-71846723D02*
X144912380Y-71846723D01*
X144912380Y-71846723D02*
X144817142Y-71799104D01*
X144817142Y-71799104D02*
X144769523Y-71751484D01*
X144769523Y-71751484D02*
X144721904Y-71656246D01*
X144721904Y-71656246D02*
X144721904Y-71561008D01*
X144721904Y-71561008D02*
X144769523Y-71465770D01*
X144769523Y-71465770D02*
X144817142Y-71418151D01*
X144817142Y-71418151D02*
X144912380Y-71370532D01*
X144912380Y-71370532D02*
X145102856Y-71322913D01*
X145102856Y-71322913D02*
X145198094Y-71275294D01*
X145198094Y-71275294D02*
X145245713Y-71227675D01*
X145245713Y-71227675D02*
X145293332Y-71132437D01*
X145293332Y-71132437D02*
X145293332Y-71037199D01*
X145293332Y-71037199D02*
X145245713Y-70941961D01*
X145245713Y-70941961D02*
X145198094Y-70894342D01*
X145198094Y-70894342D02*
X145102856Y-70846723D01*
X145102856Y-70846723D02*
X144864761Y-70846723D01*
X144864761Y-70846723D02*
X144721904Y-70894342D01*
X144293332Y-71846723D02*
X144293332Y-70846723D01*
X143721904Y-71846723D02*
X144150475Y-71275294D01*
X143721904Y-70846723D02*
X144293332Y-71418151D01*
X142864761Y-70846723D02*
X143055237Y-70846723D01*
X143055237Y-70846723D02*
X143150475Y-70894342D01*
X143150475Y-70894342D02*
X143198094Y-70941961D01*
X143198094Y-70941961D02*
X143293332Y-71084818D01*
X143293332Y-71084818D02*
X143340951Y-71275294D01*
X143340951Y-71275294D02*
X143340951Y-71656246D01*
X143340951Y-71656246D02*
X143293332Y-71751484D01*
X143293332Y-71751484D02*
X143245713Y-71799104D01*
X143245713Y-71799104D02*
X143150475Y-71846723D01*
X143150475Y-71846723D02*
X142959999Y-71846723D01*
X142959999Y-71846723D02*
X142864761Y-71799104D01*
X142864761Y-71799104D02*
X142817142Y-71751484D01*
X142817142Y-71751484D02*
X142769523Y-71656246D01*
X142769523Y-71656246D02*
X142769523Y-71418151D01*
X142769523Y-71418151D02*
X142817142Y-71322913D01*
X142817142Y-71322913D02*
X142864761Y-71275294D01*
X142864761Y-71275294D02*
X142959999Y-71227675D01*
X142959999Y-71227675D02*
X143150475Y-71227675D01*
X143150475Y-71227675D02*
X143245713Y-71275294D01*
X143245713Y-71275294D02*
X143293332Y-71322913D01*
X143293332Y-71322913D02*
X143340951Y-71418151D01*
X142198094Y-71275294D02*
X142293332Y-71227675D01*
X142293332Y-71227675D02*
X142340951Y-71180056D01*
X142340951Y-71180056D02*
X142388570Y-71084818D01*
X142388570Y-71084818D02*
X142388570Y-71037199D01*
X142388570Y-71037199D02*
X142340951Y-70941961D01*
X142340951Y-70941961D02*
X142293332Y-70894342D01*
X142293332Y-70894342D02*
X142198094Y-70846723D01*
X142198094Y-70846723D02*
X142007618Y-70846723D01*
X142007618Y-70846723D02*
X141912380Y-70894342D01*
X141912380Y-70894342D02*
X141864761Y-70941961D01*
X141864761Y-70941961D02*
X141817142Y-71037199D01*
X141817142Y-71037199D02*
X141817142Y-71084818D01*
X141817142Y-71084818D02*
X141864761Y-71180056D01*
X141864761Y-71180056D02*
X141912380Y-71227675D01*
X141912380Y-71227675D02*
X142007618Y-71275294D01*
X142007618Y-71275294D02*
X142198094Y-71275294D01*
X142198094Y-71275294D02*
X142293332Y-71322913D01*
X142293332Y-71322913D02*
X142340951Y-71370532D01*
X142340951Y-71370532D02*
X142388570Y-71465770D01*
X142388570Y-71465770D02*
X142388570Y-71656246D01*
X142388570Y-71656246D02*
X142340951Y-71751484D01*
X142340951Y-71751484D02*
X142293332Y-71799104D01*
X142293332Y-71799104D02*
X142198094Y-71846723D01*
X142198094Y-71846723D02*
X142007618Y-71846723D01*
X142007618Y-71846723D02*
X141912380Y-71799104D01*
X141912380Y-71799104D02*
X141864761Y-71751484D01*
X141864761Y-71751484D02*
X141817142Y-71656246D01*
X141817142Y-71656246D02*
X141817142Y-71465770D01*
X141817142Y-71465770D02*
X141864761Y-71370532D01*
X141864761Y-71370532D02*
X141912380Y-71322913D01*
X141912380Y-71322913D02*
X142007618Y-71275294D01*
X140864761Y-71846723D02*
X141436189Y-71846723D01*
X141150475Y-71846723D02*
X141150475Y-70846723D01*
X141150475Y-70846723D02*
X141245713Y-70989580D01*
X141245713Y-70989580D02*
X141340951Y-71084818D01*
X141340951Y-71084818D02*
X141436189Y-71132437D01*
X140483808Y-70941961D02*
X140436189Y-70894342D01*
X140436189Y-70894342D02*
X140340951Y-70846723D01*
X140340951Y-70846723D02*
X140102856Y-70846723D01*
X140102856Y-70846723D02*
X140007618Y-70894342D01*
X140007618Y-70894342D02*
X139959999Y-70941961D01*
X139959999Y-70941961D02*
X139912380Y-71037199D01*
X139912380Y-71037199D02*
X139912380Y-71132437D01*
X139912380Y-71132437D02*
X139959999Y-71275294D01*
X139959999Y-71275294D02*
X140531427Y-71846723D01*
X140531427Y-71846723D02*
X139912380Y-71846723D01*
X139483808Y-71846723D02*
X139483808Y-70846723D01*
X139483808Y-70846723D02*
X139150475Y-71561008D01*
X139150475Y-71561008D02*
X138817142Y-70846723D01*
X138817142Y-70846723D02*
X138817142Y-71846723D01*
X138340951Y-71846723D02*
X138340951Y-70846723D01*
X137864761Y-71846723D02*
X137864761Y-70846723D01*
X137864761Y-70846723D02*
X137293333Y-71846723D01*
X137293333Y-71846723D02*
X137293333Y-70846723D01*
X136817142Y-71846723D02*
X136817142Y-70846723D01*
X136340952Y-71465770D02*
X135579048Y-71465770D01*
X135102857Y-71322913D02*
X134769524Y-71322913D01*
X134626667Y-71846723D02*
X135102857Y-71846723D01*
X135102857Y-71846723D02*
X135102857Y-70846723D01*
X135102857Y-70846723D02*
X134626667Y-70846723D01*
X145293332Y-104199104D02*
X145150475Y-104246723D01*
X145150475Y-104246723D02*
X144912380Y-104246723D01*
X144912380Y-104246723D02*
X144817142Y-104199104D01*
X144817142Y-104199104D02*
X144769523Y-104151484D01*
X144769523Y-104151484D02*
X144721904Y-104056246D01*
X144721904Y-104056246D02*
X144721904Y-103961008D01*
X144721904Y-103961008D02*
X144769523Y-103865770D01*
X144769523Y-103865770D02*
X144817142Y-103818151D01*
X144817142Y-103818151D02*
X144912380Y-103770532D01*
X144912380Y-103770532D02*
X145102856Y-103722913D01*
X145102856Y-103722913D02*
X145198094Y-103675294D01*
X145198094Y-103675294D02*
X145245713Y-103627675D01*
X145245713Y-103627675D02*
X145293332Y-103532437D01*
X145293332Y-103532437D02*
X145293332Y-103437199D01*
X145293332Y-103437199D02*
X145245713Y-103341961D01*
X145245713Y-103341961D02*
X145198094Y-103294342D01*
X145198094Y-103294342D02*
X145102856Y-103246723D01*
X145102856Y-103246723D02*
X144864761Y-103246723D01*
X144864761Y-103246723D02*
X144721904Y-103294342D01*
X144293332Y-104246723D02*
X144293332Y-103246723D01*
X143721904Y-104246723D02*
X144150475Y-103675294D01*
X143721904Y-103246723D02*
X144293332Y-103818151D01*
X142864761Y-103246723D02*
X143055237Y-103246723D01*
X143055237Y-103246723D02*
X143150475Y-103294342D01*
X143150475Y-103294342D02*
X143198094Y-103341961D01*
X143198094Y-103341961D02*
X143293332Y-103484818D01*
X143293332Y-103484818D02*
X143340951Y-103675294D01*
X143340951Y-103675294D02*
X143340951Y-104056246D01*
X143340951Y-104056246D02*
X143293332Y-104151484D01*
X143293332Y-104151484D02*
X143245713Y-104199104D01*
X143245713Y-104199104D02*
X143150475Y-104246723D01*
X143150475Y-104246723D02*
X142959999Y-104246723D01*
X142959999Y-104246723D02*
X142864761Y-104199104D01*
X142864761Y-104199104D02*
X142817142Y-104151484D01*
X142817142Y-104151484D02*
X142769523Y-104056246D01*
X142769523Y-104056246D02*
X142769523Y-103818151D01*
X142769523Y-103818151D02*
X142817142Y-103722913D01*
X142817142Y-103722913D02*
X142864761Y-103675294D01*
X142864761Y-103675294D02*
X142959999Y-103627675D01*
X142959999Y-103627675D02*
X143150475Y-103627675D01*
X143150475Y-103627675D02*
X143245713Y-103675294D01*
X143245713Y-103675294D02*
X143293332Y-103722913D01*
X143293332Y-103722913D02*
X143340951Y-103818151D01*
X142198094Y-103675294D02*
X142293332Y-103627675D01*
X142293332Y-103627675D02*
X142340951Y-103580056D01*
X142340951Y-103580056D02*
X142388570Y-103484818D01*
X142388570Y-103484818D02*
X142388570Y-103437199D01*
X142388570Y-103437199D02*
X142340951Y-103341961D01*
X142340951Y-103341961D02*
X142293332Y-103294342D01*
X142293332Y-103294342D02*
X142198094Y-103246723D01*
X142198094Y-103246723D02*
X142007618Y-103246723D01*
X142007618Y-103246723D02*
X141912380Y-103294342D01*
X141912380Y-103294342D02*
X141864761Y-103341961D01*
X141864761Y-103341961D02*
X141817142Y-103437199D01*
X141817142Y-103437199D02*
X141817142Y-103484818D01*
X141817142Y-103484818D02*
X141864761Y-103580056D01*
X141864761Y-103580056D02*
X141912380Y-103627675D01*
X141912380Y-103627675D02*
X142007618Y-103675294D01*
X142007618Y-103675294D02*
X142198094Y-103675294D01*
X142198094Y-103675294D02*
X142293332Y-103722913D01*
X142293332Y-103722913D02*
X142340951Y-103770532D01*
X142340951Y-103770532D02*
X142388570Y-103865770D01*
X142388570Y-103865770D02*
X142388570Y-104056246D01*
X142388570Y-104056246D02*
X142340951Y-104151484D01*
X142340951Y-104151484D02*
X142293332Y-104199104D01*
X142293332Y-104199104D02*
X142198094Y-104246723D01*
X142198094Y-104246723D02*
X142007618Y-104246723D01*
X142007618Y-104246723D02*
X141912380Y-104199104D01*
X141912380Y-104199104D02*
X141864761Y-104151484D01*
X141864761Y-104151484D02*
X141817142Y-104056246D01*
X141817142Y-104056246D02*
X141817142Y-103865770D01*
X141817142Y-103865770D02*
X141864761Y-103770532D01*
X141864761Y-103770532D02*
X141912380Y-103722913D01*
X141912380Y-103722913D02*
X142007618Y-103675294D01*
X140864761Y-104246723D02*
X141436189Y-104246723D01*
X141150475Y-104246723D02*
X141150475Y-103246723D01*
X141150475Y-103246723D02*
X141245713Y-103389580D01*
X141245713Y-103389580D02*
X141340951Y-103484818D01*
X141340951Y-103484818D02*
X141436189Y-103532437D01*
X140483808Y-103341961D02*
X140436189Y-103294342D01*
X140436189Y-103294342D02*
X140340951Y-103246723D01*
X140340951Y-103246723D02*
X140102856Y-103246723D01*
X140102856Y-103246723D02*
X140007618Y-103294342D01*
X140007618Y-103294342D02*
X139959999Y-103341961D01*
X139959999Y-103341961D02*
X139912380Y-103437199D01*
X139912380Y-103437199D02*
X139912380Y-103532437D01*
X139912380Y-103532437D02*
X139959999Y-103675294D01*
X139959999Y-103675294D02*
X140531427Y-104246723D01*
X140531427Y-104246723D02*
X139912380Y-104246723D01*
X139483808Y-104246723D02*
X139483808Y-103246723D01*
X139483808Y-103246723D02*
X139150475Y-103961008D01*
X139150475Y-103961008D02*
X138817142Y-103246723D01*
X138817142Y-103246723D02*
X138817142Y-104246723D01*
X138340951Y-104246723D02*
X138340951Y-103246723D01*
X137864761Y-104246723D02*
X137864761Y-103246723D01*
X137864761Y-103246723D02*
X137293333Y-104246723D01*
X137293333Y-104246723D02*
X137293333Y-103246723D01*
X136817142Y-104246723D02*
X136817142Y-103246723D01*
X136340952Y-103865770D02*
X135579048Y-103865770D01*
X135102857Y-103722913D02*
X134769524Y-103722913D01*
X134626667Y-104246723D02*
X135102857Y-104246723D01*
X135102857Y-104246723D02*
X135102857Y-103246723D01*
X135102857Y-103246723D02*
X134626667Y-103246723D01*
X145293332Y-87999104D02*
X145150475Y-88046723D01*
X145150475Y-88046723D02*
X144912380Y-88046723D01*
X144912380Y-88046723D02*
X144817142Y-87999104D01*
X144817142Y-87999104D02*
X144769523Y-87951484D01*
X144769523Y-87951484D02*
X144721904Y-87856246D01*
X144721904Y-87856246D02*
X144721904Y-87761008D01*
X144721904Y-87761008D02*
X144769523Y-87665770D01*
X144769523Y-87665770D02*
X144817142Y-87618151D01*
X144817142Y-87618151D02*
X144912380Y-87570532D01*
X144912380Y-87570532D02*
X145102856Y-87522913D01*
X145102856Y-87522913D02*
X145198094Y-87475294D01*
X145198094Y-87475294D02*
X145245713Y-87427675D01*
X145245713Y-87427675D02*
X145293332Y-87332437D01*
X145293332Y-87332437D02*
X145293332Y-87237199D01*
X145293332Y-87237199D02*
X145245713Y-87141961D01*
X145245713Y-87141961D02*
X145198094Y-87094342D01*
X145198094Y-87094342D02*
X145102856Y-87046723D01*
X145102856Y-87046723D02*
X144864761Y-87046723D01*
X144864761Y-87046723D02*
X144721904Y-87094342D01*
X144293332Y-88046723D02*
X144293332Y-87046723D01*
X143721904Y-88046723D02*
X144150475Y-87475294D01*
X143721904Y-87046723D02*
X144293332Y-87618151D01*
X142864761Y-87046723D02*
X143055237Y-87046723D01*
X143055237Y-87046723D02*
X143150475Y-87094342D01*
X143150475Y-87094342D02*
X143198094Y-87141961D01*
X143198094Y-87141961D02*
X143293332Y-87284818D01*
X143293332Y-87284818D02*
X143340951Y-87475294D01*
X143340951Y-87475294D02*
X143340951Y-87856246D01*
X143340951Y-87856246D02*
X143293332Y-87951484D01*
X143293332Y-87951484D02*
X143245713Y-87999104D01*
X143245713Y-87999104D02*
X143150475Y-88046723D01*
X143150475Y-88046723D02*
X142959999Y-88046723D01*
X142959999Y-88046723D02*
X142864761Y-87999104D01*
X142864761Y-87999104D02*
X142817142Y-87951484D01*
X142817142Y-87951484D02*
X142769523Y-87856246D01*
X142769523Y-87856246D02*
X142769523Y-87618151D01*
X142769523Y-87618151D02*
X142817142Y-87522913D01*
X142817142Y-87522913D02*
X142864761Y-87475294D01*
X142864761Y-87475294D02*
X142959999Y-87427675D01*
X142959999Y-87427675D02*
X143150475Y-87427675D01*
X143150475Y-87427675D02*
X143245713Y-87475294D01*
X143245713Y-87475294D02*
X143293332Y-87522913D01*
X143293332Y-87522913D02*
X143340951Y-87618151D01*
X142198094Y-87475294D02*
X142293332Y-87427675D01*
X142293332Y-87427675D02*
X142340951Y-87380056D01*
X142340951Y-87380056D02*
X142388570Y-87284818D01*
X142388570Y-87284818D02*
X142388570Y-87237199D01*
X142388570Y-87237199D02*
X142340951Y-87141961D01*
X142340951Y-87141961D02*
X142293332Y-87094342D01*
X142293332Y-87094342D02*
X142198094Y-87046723D01*
X142198094Y-87046723D02*
X142007618Y-87046723D01*
X142007618Y-87046723D02*
X141912380Y-87094342D01*
X141912380Y-87094342D02*
X141864761Y-87141961D01*
X141864761Y-87141961D02*
X141817142Y-87237199D01*
X141817142Y-87237199D02*
X141817142Y-87284818D01*
X141817142Y-87284818D02*
X141864761Y-87380056D01*
X141864761Y-87380056D02*
X141912380Y-87427675D01*
X141912380Y-87427675D02*
X142007618Y-87475294D01*
X142007618Y-87475294D02*
X142198094Y-87475294D01*
X142198094Y-87475294D02*
X142293332Y-87522913D01*
X142293332Y-87522913D02*
X142340951Y-87570532D01*
X142340951Y-87570532D02*
X142388570Y-87665770D01*
X142388570Y-87665770D02*
X142388570Y-87856246D01*
X142388570Y-87856246D02*
X142340951Y-87951484D01*
X142340951Y-87951484D02*
X142293332Y-87999104D01*
X142293332Y-87999104D02*
X142198094Y-88046723D01*
X142198094Y-88046723D02*
X142007618Y-88046723D01*
X142007618Y-88046723D02*
X141912380Y-87999104D01*
X141912380Y-87999104D02*
X141864761Y-87951484D01*
X141864761Y-87951484D02*
X141817142Y-87856246D01*
X141817142Y-87856246D02*
X141817142Y-87665770D01*
X141817142Y-87665770D02*
X141864761Y-87570532D01*
X141864761Y-87570532D02*
X141912380Y-87522913D01*
X141912380Y-87522913D02*
X142007618Y-87475294D01*
X140864761Y-88046723D02*
X141436189Y-88046723D01*
X141150475Y-88046723D02*
X141150475Y-87046723D01*
X141150475Y-87046723D02*
X141245713Y-87189580D01*
X141245713Y-87189580D02*
X141340951Y-87284818D01*
X141340951Y-87284818D02*
X141436189Y-87332437D01*
X140483808Y-87141961D02*
X140436189Y-87094342D01*
X140436189Y-87094342D02*
X140340951Y-87046723D01*
X140340951Y-87046723D02*
X140102856Y-87046723D01*
X140102856Y-87046723D02*
X140007618Y-87094342D01*
X140007618Y-87094342D02*
X139959999Y-87141961D01*
X139959999Y-87141961D02*
X139912380Y-87237199D01*
X139912380Y-87237199D02*
X139912380Y-87332437D01*
X139912380Y-87332437D02*
X139959999Y-87475294D01*
X139959999Y-87475294D02*
X140531427Y-88046723D01*
X140531427Y-88046723D02*
X139912380Y-88046723D01*
X139483808Y-88046723D02*
X139483808Y-87046723D01*
X139483808Y-87046723D02*
X139150475Y-87761008D01*
X139150475Y-87761008D02*
X138817142Y-87046723D01*
X138817142Y-87046723D02*
X138817142Y-88046723D01*
X138340951Y-88046723D02*
X138340951Y-87046723D01*
X137864761Y-88046723D02*
X137864761Y-87046723D01*
X137864761Y-87046723D02*
X137293333Y-88046723D01*
X137293333Y-88046723D02*
X137293333Y-87046723D01*
X136817142Y-88046723D02*
X136817142Y-87046723D01*
X136340952Y-87665770D02*
X135579048Y-87665770D01*
X135102857Y-87522913D02*
X134769524Y-87522913D01*
X134626667Y-88046723D02*
X135102857Y-88046723D01*
X135102857Y-88046723D02*
X135102857Y-87046723D01*
X135102857Y-87046723D02*
X134626667Y-87046723D01*
X165547170Y-86229084D02*
X165516981Y-86376611D01*
X165516981Y-86376611D02*
X165397934Y-86582808D01*
X165397934Y-86582808D02*
X165309075Y-86641477D01*
X165309075Y-86641477D02*
X165244026Y-86658907D01*
X165244026Y-86658907D02*
X165137738Y-86652527D01*
X165137738Y-86652527D02*
X165055260Y-86604908D01*
X165055260Y-86604908D02*
X164996591Y-86516049D01*
X164996591Y-86516049D02*
X164979161Y-86451001D01*
X164979161Y-86451001D02*
X164985541Y-86344713D01*
X164985541Y-86344713D02*
X165039539Y-86155946D01*
X165039539Y-86155946D02*
X165045919Y-86049658D01*
X165045919Y-86049658D02*
X165028489Y-85984609D01*
X165028489Y-85984609D02*
X164969820Y-85895750D01*
X164969820Y-85895750D02*
X164887342Y-85848131D01*
X164887342Y-85848131D02*
X164781053Y-85841752D01*
X164781053Y-85841752D02*
X164716005Y-85859181D01*
X164716005Y-85859181D02*
X164627146Y-85917851D01*
X164627146Y-85917851D02*
X164508099Y-86124047D01*
X164508099Y-86124047D02*
X164477909Y-86271575D01*
X165088410Y-87118919D02*
X164222384Y-86618919D01*
X164802695Y-87613790D02*
X164522109Y-86956922D01*
X163936670Y-87113790D02*
X164717256Y-86904633D01*
X163508099Y-87856098D02*
X163603337Y-87691141D01*
X163603337Y-87691141D02*
X163692195Y-87632472D01*
X163692195Y-87632472D02*
X163757244Y-87615042D01*
X163757244Y-87615042D02*
X163928581Y-87603992D01*
X163928581Y-87603992D02*
X164117348Y-87657991D01*
X164117348Y-87657991D02*
X164447262Y-87848467D01*
X164447262Y-87848467D02*
X164505931Y-87937325D01*
X164505931Y-87937325D02*
X164523361Y-88002374D01*
X164523361Y-88002374D02*
X164516981Y-88108662D01*
X164516981Y-88108662D02*
X164421743Y-88273619D01*
X164421743Y-88273619D02*
X164332885Y-88332288D01*
X164332885Y-88332288D02*
X164267836Y-88349718D01*
X164267836Y-88349718D02*
X164161548Y-88343338D01*
X164161548Y-88343338D02*
X163955351Y-88224291D01*
X163955351Y-88224291D02*
X163896682Y-88135432D01*
X163896682Y-88135432D02*
X163879252Y-88070384D01*
X163879252Y-88070384D02*
X163885632Y-87964095D01*
X163885632Y-87964095D02*
X163980870Y-87799138D01*
X163980870Y-87799138D02*
X164069729Y-87740469D01*
X164069729Y-87740469D02*
X164134777Y-87723039D01*
X164134777Y-87723039D02*
X164241066Y-87729419D01*
X163545919Y-88647734D02*
X163552299Y-88541446D01*
X163552299Y-88541446D02*
X163534869Y-88476397D01*
X163534869Y-88476397D02*
X163476200Y-88387539D01*
X163476200Y-88387539D02*
X163434961Y-88363729D01*
X163434961Y-88363729D02*
X163328672Y-88357349D01*
X163328672Y-88357349D02*
X163263624Y-88374779D01*
X163263624Y-88374779D02*
X163174765Y-88433448D01*
X163174765Y-88433448D02*
X163079527Y-88598405D01*
X163079527Y-88598405D02*
X163073147Y-88704694D01*
X163073147Y-88704694D02*
X163090577Y-88769742D01*
X163090577Y-88769742D02*
X163149246Y-88858601D01*
X163149246Y-88858601D02*
X163190486Y-88882410D01*
X163190486Y-88882410D02*
X163296774Y-88888790D01*
X163296774Y-88888790D02*
X163361823Y-88871360D01*
X163361823Y-88871360D02*
X163450681Y-88812691D01*
X163450681Y-88812691D02*
X163545919Y-88647734D01*
X163545919Y-88647734D02*
X163634777Y-88589065D01*
X163634777Y-88589065D02*
X163699826Y-88571635D01*
X163699826Y-88571635D02*
X163806114Y-88578015D01*
X163806114Y-88578015D02*
X163971072Y-88673253D01*
X163971072Y-88673253D02*
X164029741Y-88762111D01*
X164029741Y-88762111D02*
X164047170Y-88827160D01*
X164047170Y-88827160D02*
X164040791Y-88933448D01*
X164040791Y-88933448D02*
X163945553Y-89098405D01*
X163945553Y-89098405D02*
X163856694Y-89157075D01*
X163856694Y-89157075D02*
X163791645Y-89174504D01*
X163791645Y-89174504D02*
X163685357Y-89168125D01*
X163685357Y-89168125D02*
X163520400Y-89072886D01*
X163520400Y-89072886D02*
X163461731Y-88984028D01*
X163461731Y-88984028D02*
X163444301Y-88918979D01*
X163444301Y-88918979D02*
X163450681Y-88812691D01*
X163374124Y-90088149D02*
X163659838Y-89593277D01*
X163516981Y-89840713D02*
X162650956Y-89340713D01*
X162650956Y-89340713D02*
X162822293Y-89329663D01*
X162822293Y-89329663D02*
X162952390Y-89294803D01*
X162952390Y-89294803D02*
X163041249Y-89236134D01*
X162400101Y-89965682D02*
X162335052Y-89983112D01*
X162335052Y-89983112D02*
X162246194Y-90041781D01*
X162246194Y-90041781D02*
X162127146Y-90247978D01*
X162127146Y-90247978D02*
X162120766Y-90354266D01*
X162120766Y-90354266D02*
X162138196Y-90419315D01*
X162138196Y-90419315D02*
X162196865Y-90508173D01*
X162196865Y-90508173D02*
X162279344Y-90555792D01*
X162279344Y-90555792D02*
X162426871Y-90585981D01*
X162426871Y-90585981D02*
X163207457Y-90376824D01*
X163207457Y-90376824D02*
X162897933Y-90912935D01*
X162683648Y-91284089D02*
X161817622Y-90784089D01*
X161817622Y-90784089D02*
X162269545Y-91429907D01*
X162269545Y-91429907D02*
X161484289Y-91361439D01*
X161484289Y-91361439D02*
X162350314Y-91861439D01*
X162112219Y-92273832D02*
X161246194Y-91773832D01*
X161874124Y-92686225D02*
X161008099Y-92186225D01*
X161008099Y-92186225D02*
X161588410Y-93181096D01*
X161588410Y-93181096D02*
X160722385Y-92681096D01*
X161350315Y-93593489D02*
X160484289Y-93093489D01*
X160782305Y-93815406D02*
X160401353Y-94475235D01*
X160039540Y-94816199D02*
X159872873Y-95104874D01*
X160255077Y-95490497D02*
X160493172Y-95078104D01*
X160493172Y-95078104D02*
X159627147Y-94578104D01*
X159627147Y-94578104D02*
X159389052Y-94990497D01*
X126687170Y-68652416D02*
X126656981Y-68799943D01*
X126656981Y-68799943D02*
X126537934Y-69006140D01*
X126537934Y-69006140D02*
X126449075Y-69064809D01*
X126449075Y-69064809D02*
X126384026Y-69082239D01*
X126384026Y-69082239D02*
X126277738Y-69075859D01*
X126277738Y-69075859D02*
X126195260Y-69028240D01*
X126195260Y-69028240D02*
X126136591Y-68939381D01*
X126136591Y-68939381D02*
X126119161Y-68874333D01*
X126119161Y-68874333D02*
X126125541Y-68768045D01*
X126125541Y-68768045D02*
X126179539Y-68579278D01*
X126179539Y-68579278D02*
X126185919Y-68472990D01*
X126185919Y-68472990D02*
X126168489Y-68407941D01*
X126168489Y-68407941D02*
X126109820Y-68319082D01*
X126109820Y-68319082D02*
X126027342Y-68271463D01*
X126027342Y-68271463D02*
X125921053Y-68265084D01*
X125921053Y-68265084D02*
X125856005Y-68282513D01*
X125856005Y-68282513D02*
X125767146Y-68341183D01*
X125767146Y-68341183D02*
X125648099Y-68547379D01*
X125648099Y-68547379D02*
X125617909Y-68694907D01*
X126228410Y-69542251D02*
X125362384Y-69042251D01*
X125942695Y-70037122D02*
X125662109Y-69380254D01*
X125076670Y-69537122D02*
X125857256Y-69327965D01*
X124648099Y-70279430D02*
X124743337Y-70114473D01*
X124743337Y-70114473D02*
X124832195Y-70055804D01*
X124832195Y-70055804D02*
X124897244Y-70038374D01*
X124897244Y-70038374D02*
X125068581Y-70027324D01*
X125068581Y-70027324D02*
X125257348Y-70081323D01*
X125257348Y-70081323D02*
X125587262Y-70271799D01*
X125587262Y-70271799D02*
X125645931Y-70360657D01*
X125645931Y-70360657D02*
X125663361Y-70425706D01*
X125663361Y-70425706D02*
X125656981Y-70531994D01*
X125656981Y-70531994D02*
X125561743Y-70696951D01*
X125561743Y-70696951D02*
X125472885Y-70755620D01*
X125472885Y-70755620D02*
X125407836Y-70773050D01*
X125407836Y-70773050D02*
X125301548Y-70766670D01*
X125301548Y-70766670D02*
X125095351Y-70647623D01*
X125095351Y-70647623D02*
X125036682Y-70558764D01*
X125036682Y-70558764D02*
X125019252Y-70493716D01*
X125019252Y-70493716D02*
X125025632Y-70387427D01*
X125025632Y-70387427D02*
X125120870Y-70222470D01*
X125120870Y-70222470D02*
X125209729Y-70163801D01*
X125209729Y-70163801D02*
X125274777Y-70146371D01*
X125274777Y-70146371D02*
X125381066Y-70152751D01*
X124685919Y-71071066D02*
X124692299Y-70964778D01*
X124692299Y-70964778D02*
X124674869Y-70899729D01*
X124674869Y-70899729D02*
X124616200Y-70810871D01*
X124616200Y-70810871D02*
X124574961Y-70787061D01*
X124574961Y-70787061D02*
X124468672Y-70780681D01*
X124468672Y-70780681D02*
X124403624Y-70798111D01*
X124403624Y-70798111D02*
X124314765Y-70856780D01*
X124314765Y-70856780D02*
X124219527Y-71021737D01*
X124219527Y-71021737D02*
X124213147Y-71128026D01*
X124213147Y-71128026D02*
X124230577Y-71193074D01*
X124230577Y-71193074D02*
X124289246Y-71281933D01*
X124289246Y-71281933D02*
X124330486Y-71305742D01*
X124330486Y-71305742D02*
X124436774Y-71312122D01*
X124436774Y-71312122D02*
X124501823Y-71294692D01*
X124501823Y-71294692D02*
X124590681Y-71236023D01*
X124590681Y-71236023D02*
X124685919Y-71071066D01*
X124685919Y-71071066D02*
X124774777Y-71012397D01*
X124774777Y-71012397D02*
X124839826Y-70994967D01*
X124839826Y-70994967D02*
X124946114Y-71001347D01*
X124946114Y-71001347D02*
X125111072Y-71096585D01*
X125111072Y-71096585D02*
X125169741Y-71185443D01*
X125169741Y-71185443D02*
X125187170Y-71250492D01*
X125187170Y-71250492D02*
X125180791Y-71356780D01*
X125180791Y-71356780D02*
X125085553Y-71521737D01*
X125085553Y-71521737D02*
X124996694Y-71580407D01*
X124996694Y-71580407D02*
X124931645Y-71597836D01*
X124931645Y-71597836D02*
X124825357Y-71591457D01*
X124825357Y-71591457D02*
X124660400Y-71496218D01*
X124660400Y-71496218D02*
X124601731Y-71407360D01*
X124601731Y-71407360D02*
X124584301Y-71342311D01*
X124584301Y-71342311D02*
X124590681Y-71236023D01*
X124514124Y-72511481D02*
X124799838Y-72016609D01*
X124656981Y-72264045D02*
X123790956Y-71764045D01*
X123790956Y-71764045D02*
X123962293Y-71752995D01*
X123962293Y-71752995D02*
X124092390Y-71718135D01*
X124092390Y-71718135D02*
X124181249Y-71659466D01*
X123540101Y-72389014D02*
X123475052Y-72406444D01*
X123475052Y-72406444D02*
X123386194Y-72465113D01*
X123386194Y-72465113D02*
X123267146Y-72671310D01*
X123267146Y-72671310D02*
X123260766Y-72777598D01*
X123260766Y-72777598D02*
X123278196Y-72842647D01*
X123278196Y-72842647D02*
X123336865Y-72931505D01*
X123336865Y-72931505D02*
X123419344Y-72979124D01*
X123419344Y-72979124D02*
X123566871Y-73009313D01*
X123566871Y-73009313D02*
X124347457Y-72800156D01*
X124347457Y-72800156D02*
X124037933Y-73336267D01*
X123823648Y-73707421D02*
X122957622Y-73207421D01*
X122957622Y-73207421D02*
X123409545Y-73853239D01*
X123409545Y-73853239D02*
X122624289Y-73784771D01*
X122624289Y-73784771D02*
X123490314Y-74284771D01*
X123252219Y-74697164D02*
X122386194Y-74197164D01*
X123014124Y-75109557D02*
X122148099Y-74609557D01*
X122148099Y-74609557D02*
X122728410Y-75604428D01*
X122728410Y-75604428D02*
X121862385Y-75104428D01*
X122490315Y-76016821D02*
X121624289Y-75516821D01*
X121922305Y-76238738D02*
X121541353Y-76898567D01*
X121179540Y-77239531D02*
X121012873Y-77528206D01*
X121395077Y-77913829D02*
X121633172Y-77501436D01*
X121633172Y-77501436D02*
X120767147Y-77001436D01*
X120767147Y-77001436D02*
X120529052Y-77413829D01*
X162793332Y-86899104D02*
X162650475Y-86946723D01*
X162650475Y-86946723D02*
X162412380Y-86946723D01*
X162412380Y-86946723D02*
X162317142Y-86899104D01*
X162317142Y-86899104D02*
X162269523Y-86851484D01*
X162269523Y-86851484D02*
X162221904Y-86756246D01*
X162221904Y-86756246D02*
X162221904Y-86661008D01*
X162221904Y-86661008D02*
X162269523Y-86565770D01*
X162269523Y-86565770D02*
X162317142Y-86518151D01*
X162317142Y-86518151D02*
X162412380Y-86470532D01*
X162412380Y-86470532D02*
X162602856Y-86422913D01*
X162602856Y-86422913D02*
X162698094Y-86375294D01*
X162698094Y-86375294D02*
X162745713Y-86327675D01*
X162745713Y-86327675D02*
X162793332Y-86232437D01*
X162793332Y-86232437D02*
X162793332Y-86137199D01*
X162793332Y-86137199D02*
X162745713Y-86041961D01*
X162745713Y-86041961D02*
X162698094Y-85994342D01*
X162698094Y-85994342D02*
X162602856Y-85946723D01*
X162602856Y-85946723D02*
X162364761Y-85946723D01*
X162364761Y-85946723D02*
X162221904Y-85994342D01*
X161793332Y-86946723D02*
X161793332Y-85946723D01*
X161221904Y-86946723D02*
X161650475Y-86375294D01*
X161221904Y-85946723D02*
X161793332Y-86518151D01*
X160364761Y-85946723D02*
X160555237Y-85946723D01*
X160555237Y-85946723D02*
X160650475Y-85994342D01*
X160650475Y-85994342D02*
X160698094Y-86041961D01*
X160698094Y-86041961D02*
X160793332Y-86184818D01*
X160793332Y-86184818D02*
X160840951Y-86375294D01*
X160840951Y-86375294D02*
X160840951Y-86756246D01*
X160840951Y-86756246D02*
X160793332Y-86851484D01*
X160793332Y-86851484D02*
X160745713Y-86899104D01*
X160745713Y-86899104D02*
X160650475Y-86946723D01*
X160650475Y-86946723D02*
X160459999Y-86946723D01*
X160459999Y-86946723D02*
X160364761Y-86899104D01*
X160364761Y-86899104D02*
X160317142Y-86851484D01*
X160317142Y-86851484D02*
X160269523Y-86756246D01*
X160269523Y-86756246D02*
X160269523Y-86518151D01*
X160269523Y-86518151D02*
X160317142Y-86422913D01*
X160317142Y-86422913D02*
X160364761Y-86375294D01*
X160364761Y-86375294D02*
X160459999Y-86327675D01*
X160459999Y-86327675D02*
X160650475Y-86327675D01*
X160650475Y-86327675D02*
X160745713Y-86375294D01*
X160745713Y-86375294D02*
X160793332Y-86422913D01*
X160793332Y-86422913D02*
X160840951Y-86518151D01*
X159698094Y-86375294D02*
X159793332Y-86327675D01*
X159793332Y-86327675D02*
X159840951Y-86280056D01*
X159840951Y-86280056D02*
X159888570Y-86184818D01*
X159888570Y-86184818D02*
X159888570Y-86137199D01*
X159888570Y-86137199D02*
X159840951Y-86041961D01*
X159840951Y-86041961D02*
X159793332Y-85994342D01*
X159793332Y-85994342D02*
X159698094Y-85946723D01*
X159698094Y-85946723D02*
X159507618Y-85946723D01*
X159507618Y-85946723D02*
X159412380Y-85994342D01*
X159412380Y-85994342D02*
X159364761Y-86041961D01*
X159364761Y-86041961D02*
X159317142Y-86137199D01*
X159317142Y-86137199D02*
X159317142Y-86184818D01*
X159317142Y-86184818D02*
X159364761Y-86280056D01*
X159364761Y-86280056D02*
X159412380Y-86327675D01*
X159412380Y-86327675D02*
X159507618Y-86375294D01*
X159507618Y-86375294D02*
X159698094Y-86375294D01*
X159698094Y-86375294D02*
X159793332Y-86422913D01*
X159793332Y-86422913D02*
X159840951Y-86470532D01*
X159840951Y-86470532D02*
X159888570Y-86565770D01*
X159888570Y-86565770D02*
X159888570Y-86756246D01*
X159888570Y-86756246D02*
X159840951Y-86851484D01*
X159840951Y-86851484D02*
X159793332Y-86899104D01*
X159793332Y-86899104D02*
X159698094Y-86946723D01*
X159698094Y-86946723D02*
X159507618Y-86946723D01*
X159507618Y-86946723D02*
X159412380Y-86899104D01*
X159412380Y-86899104D02*
X159364761Y-86851484D01*
X159364761Y-86851484D02*
X159317142Y-86756246D01*
X159317142Y-86756246D02*
X159317142Y-86565770D01*
X159317142Y-86565770D02*
X159364761Y-86470532D01*
X159364761Y-86470532D02*
X159412380Y-86422913D01*
X159412380Y-86422913D02*
X159507618Y-86375294D01*
X158364761Y-86946723D02*
X158936189Y-86946723D01*
X158650475Y-86946723D02*
X158650475Y-85946723D01*
X158650475Y-85946723D02*
X158745713Y-86089580D01*
X158745713Y-86089580D02*
X158840951Y-86184818D01*
X158840951Y-86184818D02*
X158936189Y-86232437D01*
X157983808Y-86041961D02*
X157936189Y-85994342D01*
X157936189Y-85994342D02*
X157840951Y-85946723D01*
X157840951Y-85946723D02*
X157602856Y-85946723D01*
X157602856Y-85946723D02*
X157507618Y-85994342D01*
X157507618Y-85994342D02*
X157459999Y-86041961D01*
X157459999Y-86041961D02*
X157412380Y-86137199D01*
X157412380Y-86137199D02*
X157412380Y-86232437D01*
X157412380Y-86232437D02*
X157459999Y-86375294D01*
X157459999Y-86375294D02*
X158031427Y-86946723D01*
X158031427Y-86946723D02*
X157412380Y-86946723D01*
X156983808Y-86946723D02*
X156983808Y-85946723D01*
X156983808Y-85946723D02*
X156650475Y-86661008D01*
X156650475Y-86661008D02*
X156317142Y-85946723D01*
X156317142Y-85946723D02*
X156317142Y-86946723D01*
X155840951Y-86946723D02*
X155840951Y-85946723D01*
X155364761Y-86946723D02*
X155364761Y-85946723D01*
X155364761Y-85946723D02*
X154793333Y-86946723D01*
X154793333Y-86946723D02*
X154793333Y-85946723D01*
X154317142Y-86946723D02*
X154317142Y-85946723D01*
X153840952Y-86565770D02*
X153079048Y-86565770D01*
X152602857Y-86422913D02*
X152269524Y-86422913D01*
X152126667Y-86946723D02*
X152602857Y-86946723D01*
X152602857Y-86946723D02*
X152602857Y-85946723D01*
X152602857Y-85946723D02*
X152126667Y-85946723D01*
X119707122Y-95656687D02*
X119594454Y-95556779D01*
X119594454Y-95556779D02*
X119475407Y-95350582D01*
X119475407Y-95350582D02*
X119469027Y-95244294D01*
X119469027Y-95244294D02*
X119486457Y-95179245D01*
X119486457Y-95179245D02*
X119545126Y-95090387D01*
X119545126Y-95090387D02*
X119627605Y-95042768D01*
X119627605Y-95042768D02*
X119733893Y-95036388D01*
X119733893Y-95036388D02*
X119798942Y-95053818D01*
X119798942Y-95053818D02*
X119887800Y-95112487D01*
X119887800Y-95112487D02*
X120024277Y-95253635D01*
X120024277Y-95253635D02*
X120113136Y-95312304D01*
X120113136Y-95312304D02*
X120178184Y-95329734D01*
X120178184Y-95329734D02*
X120284473Y-95323354D01*
X120284473Y-95323354D02*
X120366951Y-95275735D01*
X120366951Y-95275735D02*
X120425620Y-95186876D01*
X120425620Y-95186876D02*
X120443050Y-95121828D01*
X120443050Y-95121828D02*
X120436670Y-95015540D01*
X120436670Y-95015540D02*
X120317623Y-94809343D01*
X120317623Y-94809343D02*
X120204955Y-94709435D01*
X119165883Y-94814471D02*
X120031908Y-94314471D01*
X118880169Y-94319600D02*
X119589326Y-94405039D01*
X119746194Y-93819600D02*
X119537037Y-94600186D01*
X119317623Y-93077292D02*
X119412861Y-93242249D01*
X119412861Y-93242249D02*
X119419241Y-93348537D01*
X119419241Y-93348537D02*
X119401811Y-93413586D01*
X119401811Y-93413586D02*
X119325712Y-93567493D01*
X119325712Y-93567493D02*
X119184564Y-93703971D01*
X119184564Y-93703971D02*
X118854650Y-93894447D01*
X118854650Y-93894447D02*
X118748362Y-93900827D01*
X118748362Y-93900827D02*
X118683313Y-93883397D01*
X118683313Y-93883397D02*
X118594454Y-93824728D01*
X118594454Y-93824728D02*
X118499216Y-93659771D01*
X118499216Y-93659771D02*
X118492837Y-93553483D01*
X118492837Y-93553483D02*
X118510266Y-93488434D01*
X118510266Y-93488434D02*
X118568935Y-93399575D01*
X118568935Y-93399575D02*
X118775132Y-93280528D01*
X118775132Y-93280528D02*
X118881420Y-93274148D01*
X118881420Y-93274148D02*
X118946469Y-93291578D01*
X118946469Y-93291578D02*
X119035327Y-93350247D01*
X119035327Y-93350247D02*
X119130565Y-93515204D01*
X119130565Y-93515204D02*
X119136945Y-93621492D01*
X119136945Y-93621492D02*
X119119515Y-93686541D01*
X119119515Y-93686541D02*
X119060846Y-93775399D01*
X118613136Y-92714228D02*
X118701994Y-92772897D01*
X118701994Y-92772897D02*
X118767043Y-92790326D01*
X118767043Y-92790326D02*
X118873331Y-92783947D01*
X118873331Y-92783947D02*
X118914570Y-92760137D01*
X118914570Y-92760137D02*
X118973239Y-92671279D01*
X118973239Y-92671279D02*
X118990669Y-92606230D01*
X118990669Y-92606230D02*
X118984289Y-92499942D01*
X118984289Y-92499942D02*
X118889051Y-92334985D01*
X118889051Y-92334985D02*
X118800193Y-92276316D01*
X118800193Y-92276316D02*
X118735144Y-92258886D01*
X118735144Y-92258886D02*
X118628856Y-92265265D01*
X118628856Y-92265265D02*
X118587617Y-92289075D01*
X118587617Y-92289075D02*
X118528948Y-92377933D01*
X118528948Y-92377933D02*
X118511518Y-92442982D01*
X118511518Y-92442982D02*
X118517898Y-92549270D01*
X118517898Y-92549270D02*
X118613136Y-92714228D01*
X118613136Y-92714228D02*
X118619515Y-92820516D01*
X118619515Y-92820516D02*
X118602086Y-92885564D01*
X118602086Y-92885564D02*
X118543416Y-92974423D01*
X118543416Y-92974423D02*
X118378459Y-93069661D01*
X118378459Y-93069661D02*
X118272171Y-93076041D01*
X118272171Y-93076041D02*
X118207122Y-93058611D01*
X118207122Y-93058611D02*
X118118264Y-92999942D01*
X118118264Y-92999942D02*
X118023026Y-92834985D01*
X118023026Y-92834985D02*
X118016646Y-92728696D01*
X118016646Y-92728696D02*
X118034076Y-92663648D01*
X118034076Y-92663648D02*
X118092745Y-92574789D01*
X118092745Y-92574789D02*
X118257702Y-92479551D01*
X118257702Y-92479551D02*
X118363990Y-92473171D01*
X118363990Y-92473171D02*
X118429039Y-92490601D01*
X118429039Y-92490601D02*
X118517898Y-92549270D01*
X117451597Y-91845241D02*
X117737312Y-92340113D01*
X117594454Y-92092677D02*
X118460480Y-91592677D01*
X118460480Y-91592677D02*
X118384381Y-91746584D01*
X118384381Y-91746584D02*
X118349521Y-91876682D01*
X118349521Y-91876682D02*
X118355901Y-91982970D01*
X118044668Y-91062946D02*
X118062098Y-90997897D01*
X118062098Y-90997897D02*
X118055718Y-90891609D01*
X118055718Y-90891609D02*
X117936670Y-90685412D01*
X117936670Y-90685412D02*
X117847812Y-90626743D01*
X117847812Y-90626743D02*
X117782763Y-90609313D01*
X117782763Y-90609313D02*
X117676475Y-90615693D01*
X117676475Y-90615693D02*
X117593996Y-90663312D01*
X117593996Y-90663312D02*
X117494088Y-90775980D01*
X117494088Y-90775980D02*
X117284931Y-91556566D01*
X117284931Y-91556566D02*
X116975407Y-91020455D01*
X116761121Y-90649301D02*
X117627146Y-90149301D01*
X117627146Y-90149301D02*
X116841890Y-90217769D01*
X116841890Y-90217769D02*
X117293813Y-89571951D01*
X117293813Y-89571951D02*
X116427788Y-90071951D01*
X116189693Y-89659558D02*
X117055718Y-89159558D01*
X115951598Y-89247165D02*
X116817623Y-88747165D01*
X116817623Y-88747165D02*
X115665883Y-88752294D01*
X115665883Y-88752294D02*
X116531909Y-88252294D01*
X115427788Y-88339901D02*
X116293813Y-87839901D01*
X115519607Y-87737032D02*
X115138655Y-87077203D01*
X115024278Y-86593382D02*
X114857611Y-86304707D01*
X114332550Y-86442893D02*
X114570646Y-86855286D01*
X114570646Y-86855286D02*
X115436671Y-86355286D01*
X115436671Y-86355286D02*
X115198576Y-85942893D01*
X145293332Y-79899104D02*
X145150475Y-79946723D01*
X145150475Y-79946723D02*
X144912380Y-79946723D01*
X144912380Y-79946723D02*
X144817142Y-79899104D01*
X144817142Y-79899104D02*
X144769523Y-79851484D01*
X144769523Y-79851484D02*
X144721904Y-79756246D01*
X144721904Y-79756246D02*
X144721904Y-79661008D01*
X144721904Y-79661008D02*
X144769523Y-79565770D01*
X144769523Y-79565770D02*
X144817142Y-79518151D01*
X144817142Y-79518151D02*
X144912380Y-79470532D01*
X144912380Y-79470532D02*
X145102856Y-79422913D01*
X145102856Y-79422913D02*
X145198094Y-79375294D01*
X145198094Y-79375294D02*
X145245713Y-79327675D01*
X145245713Y-79327675D02*
X145293332Y-79232437D01*
X145293332Y-79232437D02*
X145293332Y-79137199D01*
X145293332Y-79137199D02*
X145245713Y-79041961D01*
X145245713Y-79041961D02*
X145198094Y-78994342D01*
X145198094Y-78994342D02*
X145102856Y-78946723D01*
X145102856Y-78946723D02*
X144864761Y-78946723D01*
X144864761Y-78946723D02*
X144721904Y-78994342D01*
X144293332Y-79946723D02*
X144293332Y-78946723D01*
X143721904Y-79946723D02*
X144150475Y-79375294D01*
X143721904Y-78946723D02*
X144293332Y-79518151D01*
X142864761Y-78946723D02*
X143055237Y-78946723D01*
X143055237Y-78946723D02*
X143150475Y-78994342D01*
X143150475Y-78994342D02*
X143198094Y-79041961D01*
X143198094Y-79041961D02*
X143293332Y-79184818D01*
X143293332Y-79184818D02*
X143340951Y-79375294D01*
X143340951Y-79375294D02*
X143340951Y-79756246D01*
X143340951Y-79756246D02*
X143293332Y-79851484D01*
X143293332Y-79851484D02*
X143245713Y-79899104D01*
X143245713Y-79899104D02*
X143150475Y-79946723D01*
X143150475Y-79946723D02*
X142959999Y-79946723D01*
X142959999Y-79946723D02*
X142864761Y-79899104D01*
X142864761Y-79899104D02*
X142817142Y-79851484D01*
X142817142Y-79851484D02*
X142769523Y-79756246D01*
X142769523Y-79756246D02*
X142769523Y-79518151D01*
X142769523Y-79518151D02*
X142817142Y-79422913D01*
X142817142Y-79422913D02*
X142864761Y-79375294D01*
X142864761Y-79375294D02*
X142959999Y-79327675D01*
X142959999Y-79327675D02*
X143150475Y-79327675D01*
X143150475Y-79327675D02*
X143245713Y-79375294D01*
X143245713Y-79375294D02*
X143293332Y-79422913D01*
X143293332Y-79422913D02*
X143340951Y-79518151D01*
X142198094Y-79375294D02*
X142293332Y-79327675D01*
X142293332Y-79327675D02*
X142340951Y-79280056D01*
X142340951Y-79280056D02*
X142388570Y-79184818D01*
X142388570Y-79184818D02*
X142388570Y-79137199D01*
X142388570Y-79137199D02*
X142340951Y-79041961D01*
X142340951Y-79041961D02*
X142293332Y-78994342D01*
X142293332Y-78994342D02*
X142198094Y-78946723D01*
X142198094Y-78946723D02*
X142007618Y-78946723D01*
X142007618Y-78946723D02*
X141912380Y-78994342D01*
X141912380Y-78994342D02*
X141864761Y-79041961D01*
X141864761Y-79041961D02*
X141817142Y-79137199D01*
X141817142Y-79137199D02*
X141817142Y-79184818D01*
X141817142Y-79184818D02*
X141864761Y-79280056D01*
X141864761Y-79280056D02*
X141912380Y-79327675D01*
X141912380Y-79327675D02*
X142007618Y-79375294D01*
X142007618Y-79375294D02*
X142198094Y-79375294D01*
X142198094Y-79375294D02*
X142293332Y-79422913D01*
X142293332Y-79422913D02*
X142340951Y-79470532D01*
X142340951Y-79470532D02*
X142388570Y-79565770D01*
X142388570Y-79565770D02*
X142388570Y-79756246D01*
X142388570Y-79756246D02*
X142340951Y-79851484D01*
X142340951Y-79851484D02*
X142293332Y-79899104D01*
X142293332Y-79899104D02*
X142198094Y-79946723D01*
X142198094Y-79946723D02*
X142007618Y-79946723D01*
X142007618Y-79946723D02*
X141912380Y-79899104D01*
X141912380Y-79899104D02*
X141864761Y-79851484D01*
X141864761Y-79851484D02*
X141817142Y-79756246D01*
X141817142Y-79756246D02*
X141817142Y-79565770D01*
X141817142Y-79565770D02*
X141864761Y-79470532D01*
X141864761Y-79470532D02*
X141912380Y-79422913D01*
X141912380Y-79422913D02*
X142007618Y-79375294D01*
X140864761Y-79946723D02*
X141436189Y-79946723D01*
X141150475Y-79946723D02*
X141150475Y-78946723D01*
X141150475Y-78946723D02*
X141245713Y-79089580D01*
X141245713Y-79089580D02*
X141340951Y-79184818D01*
X141340951Y-79184818D02*
X141436189Y-79232437D01*
X140483808Y-79041961D02*
X140436189Y-78994342D01*
X140436189Y-78994342D02*
X140340951Y-78946723D01*
X140340951Y-78946723D02*
X140102856Y-78946723D01*
X140102856Y-78946723D02*
X140007618Y-78994342D01*
X140007618Y-78994342D02*
X139959999Y-79041961D01*
X139959999Y-79041961D02*
X139912380Y-79137199D01*
X139912380Y-79137199D02*
X139912380Y-79232437D01*
X139912380Y-79232437D02*
X139959999Y-79375294D01*
X139959999Y-79375294D02*
X140531427Y-79946723D01*
X140531427Y-79946723D02*
X139912380Y-79946723D01*
X139483808Y-79946723D02*
X139483808Y-78946723D01*
X139483808Y-78946723D02*
X139150475Y-79661008D01*
X139150475Y-79661008D02*
X138817142Y-78946723D01*
X138817142Y-78946723D02*
X138817142Y-79946723D01*
X138340951Y-79946723D02*
X138340951Y-78946723D01*
X137864761Y-79946723D02*
X137864761Y-78946723D01*
X137864761Y-78946723D02*
X137293333Y-79946723D01*
X137293333Y-79946723D02*
X137293333Y-78946723D01*
X136817142Y-79946723D02*
X136817142Y-78946723D01*
X136340952Y-79565770D02*
X135579048Y-79565770D01*
X135102857Y-79422913D02*
X134769524Y-79422913D01*
X134626667Y-79946723D02*
X135102857Y-79946723D01*
X135102857Y-79946723D02*
X135102857Y-78946723D01*
X135102857Y-78946723D02*
X134626667Y-78946723D01*
X145293332Y-63699104D02*
X145150475Y-63746723D01*
X145150475Y-63746723D02*
X144912380Y-63746723D01*
X144912380Y-63746723D02*
X144817142Y-63699104D01*
X144817142Y-63699104D02*
X144769523Y-63651484D01*
X144769523Y-63651484D02*
X144721904Y-63556246D01*
X144721904Y-63556246D02*
X144721904Y-63461008D01*
X144721904Y-63461008D02*
X144769523Y-63365770D01*
X144769523Y-63365770D02*
X144817142Y-63318151D01*
X144817142Y-63318151D02*
X144912380Y-63270532D01*
X144912380Y-63270532D02*
X145102856Y-63222913D01*
X145102856Y-63222913D02*
X145198094Y-63175294D01*
X145198094Y-63175294D02*
X145245713Y-63127675D01*
X145245713Y-63127675D02*
X145293332Y-63032437D01*
X145293332Y-63032437D02*
X145293332Y-62937199D01*
X145293332Y-62937199D02*
X145245713Y-62841961D01*
X145245713Y-62841961D02*
X145198094Y-62794342D01*
X145198094Y-62794342D02*
X145102856Y-62746723D01*
X145102856Y-62746723D02*
X144864761Y-62746723D01*
X144864761Y-62746723D02*
X144721904Y-62794342D01*
X144293332Y-63746723D02*
X144293332Y-62746723D01*
X143721904Y-63746723D02*
X144150475Y-63175294D01*
X143721904Y-62746723D02*
X144293332Y-63318151D01*
X142864761Y-62746723D02*
X143055237Y-62746723D01*
X143055237Y-62746723D02*
X143150475Y-62794342D01*
X143150475Y-62794342D02*
X143198094Y-62841961D01*
X143198094Y-62841961D02*
X143293332Y-62984818D01*
X143293332Y-62984818D02*
X143340951Y-63175294D01*
X143340951Y-63175294D02*
X143340951Y-63556246D01*
X143340951Y-63556246D02*
X143293332Y-63651484D01*
X143293332Y-63651484D02*
X143245713Y-63699104D01*
X143245713Y-63699104D02*
X143150475Y-63746723D01*
X143150475Y-63746723D02*
X142959999Y-63746723D01*
X142959999Y-63746723D02*
X142864761Y-63699104D01*
X142864761Y-63699104D02*
X142817142Y-63651484D01*
X142817142Y-63651484D02*
X142769523Y-63556246D01*
X142769523Y-63556246D02*
X142769523Y-63318151D01*
X142769523Y-63318151D02*
X142817142Y-63222913D01*
X142817142Y-63222913D02*
X142864761Y-63175294D01*
X142864761Y-63175294D02*
X142959999Y-63127675D01*
X142959999Y-63127675D02*
X143150475Y-63127675D01*
X143150475Y-63127675D02*
X143245713Y-63175294D01*
X143245713Y-63175294D02*
X143293332Y-63222913D01*
X143293332Y-63222913D02*
X143340951Y-63318151D01*
X142198094Y-63175294D02*
X142293332Y-63127675D01*
X142293332Y-63127675D02*
X142340951Y-63080056D01*
X142340951Y-63080056D02*
X142388570Y-62984818D01*
X142388570Y-62984818D02*
X142388570Y-62937199D01*
X142388570Y-62937199D02*
X142340951Y-62841961D01*
X142340951Y-62841961D02*
X142293332Y-62794342D01*
X142293332Y-62794342D02*
X142198094Y-62746723D01*
X142198094Y-62746723D02*
X142007618Y-62746723D01*
X142007618Y-62746723D02*
X141912380Y-62794342D01*
X141912380Y-62794342D02*
X141864761Y-62841961D01*
X141864761Y-62841961D02*
X141817142Y-62937199D01*
X141817142Y-62937199D02*
X141817142Y-62984818D01*
X141817142Y-62984818D02*
X141864761Y-63080056D01*
X141864761Y-63080056D02*
X141912380Y-63127675D01*
X141912380Y-63127675D02*
X142007618Y-63175294D01*
X142007618Y-63175294D02*
X142198094Y-63175294D01*
X142198094Y-63175294D02*
X142293332Y-63222913D01*
X142293332Y-63222913D02*
X142340951Y-63270532D01*
X142340951Y-63270532D02*
X142388570Y-63365770D01*
X142388570Y-63365770D02*
X142388570Y-63556246D01*
X142388570Y-63556246D02*
X142340951Y-63651484D01*
X142340951Y-63651484D02*
X142293332Y-63699104D01*
X142293332Y-63699104D02*
X142198094Y-63746723D01*
X142198094Y-63746723D02*
X142007618Y-63746723D01*
X142007618Y-63746723D02*
X141912380Y-63699104D01*
X141912380Y-63699104D02*
X141864761Y-63651484D01*
X141864761Y-63651484D02*
X141817142Y-63556246D01*
X141817142Y-63556246D02*
X141817142Y-63365770D01*
X141817142Y-63365770D02*
X141864761Y-63270532D01*
X141864761Y-63270532D02*
X141912380Y-63222913D01*
X141912380Y-63222913D02*
X142007618Y-63175294D01*
X140864761Y-63746723D02*
X141436189Y-63746723D01*
X141150475Y-63746723D02*
X141150475Y-62746723D01*
X141150475Y-62746723D02*
X141245713Y-62889580D01*
X141245713Y-62889580D02*
X141340951Y-62984818D01*
X141340951Y-62984818D02*
X141436189Y-63032437D01*
X140483808Y-62841961D02*
X140436189Y-62794342D01*
X140436189Y-62794342D02*
X140340951Y-62746723D01*
X140340951Y-62746723D02*
X140102856Y-62746723D01*
X140102856Y-62746723D02*
X140007618Y-62794342D01*
X140007618Y-62794342D02*
X139959999Y-62841961D01*
X139959999Y-62841961D02*
X139912380Y-62937199D01*
X139912380Y-62937199D02*
X139912380Y-63032437D01*
X139912380Y-63032437D02*
X139959999Y-63175294D01*
X139959999Y-63175294D02*
X140531427Y-63746723D01*
X140531427Y-63746723D02*
X139912380Y-63746723D01*
X139483808Y-63746723D02*
X139483808Y-62746723D01*
X139483808Y-62746723D02*
X139150475Y-63461008D01*
X139150475Y-63461008D02*
X138817142Y-62746723D01*
X138817142Y-62746723D02*
X138817142Y-63746723D01*
X138340951Y-63746723D02*
X138340951Y-62746723D01*
X137864761Y-63746723D02*
X137864761Y-62746723D01*
X137864761Y-62746723D02*
X137293333Y-63746723D01*
X137293333Y-63746723D02*
X137293333Y-62746723D01*
X136817142Y-63746723D02*
X136817142Y-62746723D01*
X136340952Y-63365770D02*
X135579048Y-63365770D01*
X135102857Y-63222913D02*
X134769524Y-63222913D01*
X134626667Y-63746723D02*
X135102857Y-63746723D01*
X135102857Y-63746723D02*
X135102857Y-62746723D01*
X135102857Y-62746723D02*
X134626667Y-62746723D01*
X162793332Y-80949104D02*
X162650475Y-80996723D01*
X162650475Y-80996723D02*
X162412380Y-80996723D01*
X162412380Y-80996723D02*
X162317142Y-80949104D01*
X162317142Y-80949104D02*
X162269523Y-80901484D01*
X162269523Y-80901484D02*
X162221904Y-80806246D01*
X162221904Y-80806246D02*
X162221904Y-80711008D01*
X162221904Y-80711008D02*
X162269523Y-80615770D01*
X162269523Y-80615770D02*
X162317142Y-80568151D01*
X162317142Y-80568151D02*
X162412380Y-80520532D01*
X162412380Y-80520532D02*
X162602856Y-80472913D01*
X162602856Y-80472913D02*
X162698094Y-80425294D01*
X162698094Y-80425294D02*
X162745713Y-80377675D01*
X162745713Y-80377675D02*
X162793332Y-80282437D01*
X162793332Y-80282437D02*
X162793332Y-80187199D01*
X162793332Y-80187199D02*
X162745713Y-80091961D01*
X162745713Y-80091961D02*
X162698094Y-80044342D01*
X162698094Y-80044342D02*
X162602856Y-79996723D01*
X162602856Y-79996723D02*
X162364761Y-79996723D01*
X162364761Y-79996723D02*
X162221904Y-80044342D01*
X161793332Y-80996723D02*
X161793332Y-79996723D01*
X161221904Y-80996723D02*
X161650475Y-80425294D01*
X161221904Y-79996723D02*
X161793332Y-80568151D01*
X160364761Y-79996723D02*
X160555237Y-79996723D01*
X160555237Y-79996723D02*
X160650475Y-80044342D01*
X160650475Y-80044342D02*
X160698094Y-80091961D01*
X160698094Y-80091961D02*
X160793332Y-80234818D01*
X160793332Y-80234818D02*
X160840951Y-80425294D01*
X160840951Y-80425294D02*
X160840951Y-80806246D01*
X160840951Y-80806246D02*
X160793332Y-80901484D01*
X160793332Y-80901484D02*
X160745713Y-80949104D01*
X160745713Y-80949104D02*
X160650475Y-80996723D01*
X160650475Y-80996723D02*
X160459999Y-80996723D01*
X160459999Y-80996723D02*
X160364761Y-80949104D01*
X160364761Y-80949104D02*
X160317142Y-80901484D01*
X160317142Y-80901484D02*
X160269523Y-80806246D01*
X160269523Y-80806246D02*
X160269523Y-80568151D01*
X160269523Y-80568151D02*
X160317142Y-80472913D01*
X160317142Y-80472913D02*
X160364761Y-80425294D01*
X160364761Y-80425294D02*
X160459999Y-80377675D01*
X160459999Y-80377675D02*
X160650475Y-80377675D01*
X160650475Y-80377675D02*
X160745713Y-80425294D01*
X160745713Y-80425294D02*
X160793332Y-80472913D01*
X160793332Y-80472913D02*
X160840951Y-80568151D01*
X159698094Y-80425294D02*
X159793332Y-80377675D01*
X159793332Y-80377675D02*
X159840951Y-80330056D01*
X159840951Y-80330056D02*
X159888570Y-80234818D01*
X159888570Y-80234818D02*
X159888570Y-80187199D01*
X159888570Y-80187199D02*
X159840951Y-80091961D01*
X159840951Y-80091961D02*
X159793332Y-80044342D01*
X159793332Y-80044342D02*
X159698094Y-79996723D01*
X159698094Y-79996723D02*
X159507618Y-79996723D01*
X159507618Y-79996723D02*
X159412380Y-80044342D01*
X159412380Y-80044342D02*
X159364761Y-80091961D01*
X159364761Y-80091961D02*
X159317142Y-80187199D01*
X159317142Y-80187199D02*
X159317142Y-80234818D01*
X159317142Y-80234818D02*
X159364761Y-80330056D01*
X159364761Y-80330056D02*
X159412380Y-80377675D01*
X159412380Y-80377675D02*
X159507618Y-80425294D01*
X159507618Y-80425294D02*
X159698094Y-80425294D01*
X159698094Y-80425294D02*
X159793332Y-80472913D01*
X159793332Y-80472913D02*
X159840951Y-80520532D01*
X159840951Y-80520532D02*
X159888570Y-80615770D01*
X159888570Y-80615770D02*
X159888570Y-80806246D01*
X159888570Y-80806246D02*
X159840951Y-80901484D01*
X159840951Y-80901484D02*
X159793332Y-80949104D01*
X159793332Y-80949104D02*
X159698094Y-80996723D01*
X159698094Y-80996723D02*
X159507618Y-80996723D01*
X159507618Y-80996723D02*
X159412380Y-80949104D01*
X159412380Y-80949104D02*
X159364761Y-80901484D01*
X159364761Y-80901484D02*
X159317142Y-80806246D01*
X159317142Y-80806246D02*
X159317142Y-80615770D01*
X159317142Y-80615770D02*
X159364761Y-80520532D01*
X159364761Y-80520532D02*
X159412380Y-80472913D01*
X159412380Y-80472913D02*
X159507618Y-80425294D01*
X158364761Y-80996723D02*
X158936189Y-80996723D01*
X158650475Y-80996723D02*
X158650475Y-79996723D01*
X158650475Y-79996723D02*
X158745713Y-80139580D01*
X158745713Y-80139580D02*
X158840951Y-80234818D01*
X158840951Y-80234818D02*
X158936189Y-80282437D01*
X157983808Y-80091961D02*
X157936189Y-80044342D01*
X157936189Y-80044342D02*
X157840951Y-79996723D01*
X157840951Y-79996723D02*
X157602856Y-79996723D01*
X157602856Y-79996723D02*
X157507618Y-80044342D01*
X157507618Y-80044342D02*
X157459999Y-80091961D01*
X157459999Y-80091961D02*
X157412380Y-80187199D01*
X157412380Y-80187199D02*
X157412380Y-80282437D01*
X157412380Y-80282437D02*
X157459999Y-80425294D01*
X157459999Y-80425294D02*
X158031427Y-80996723D01*
X158031427Y-80996723D02*
X157412380Y-80996723D01*
X156983808Y-80996723D02*
X156983808Y-79996723D01*
X156983808Y-79996723D02*
X156650475Y-80711008D01*
X156650475Y-80711008D02*
X156317142Y-79996723D01*
X156317142Y-79996723D02*
X156317142Y-80996723D01*
X155840951Y-80996723D02*
X155840951Y-79996723D01*
X155364761Y-80996723D02*
X155364761Y-79996723D01*
X155364761Y-79996723D02*
X154793333Y-80996723D01*
X154793333Y-80996723D02*
X154793333Y-79996723D01*
X154317142Y-80996723D02*
X154317142Y-79996723D01*
X153840952Y-80615770D02*
X153079048Y-80615770D01*
X152602857Y-80472913D02*
X152269524Y-80472913D01*
X152126667Y-80996723D02*
X152602857Y-80996723D01*
X152602857Y-80996723D02*
X152602857Y-79996723D01*
X152602857Y-79996723D02*
X152126667Y-79996723D01*
X127943332Y-81189104D02*
X127800475Y-81236723D01*
X127800475Y-81236723D02*
X127562380Y-81236723D01*
X127562380Y-81236723D02*
X127467142Y-81189104D01*
X127467142Y-81189104D02*
X127419523Y-81141484D01*
X127419523Y-81141484D02*
X127371904Y-81046246D01*
X127371904Y-81046246D02*
X127371904Y-80951008D01*
X127371904Y-80951008D02*
X127419523Y-80855770D01*
X127419523Y-80855770D02*
X127467142Y-80808151D01*
X127467142Y-80808151D02*
X127562380Y-80760532D01*
X127562380Y-80760532D02*
X127752856Y-80712913D01*
X127752856Y-80712913D02*
X127848094Y-80665294D01*
X127848094Y-80665294D02*
X127895713Y-80617675D01*
X127895713Y-80617675D02*
X127943332Y-80522437D01*
X127943332Y-80522437D02*
X127943332Y-80427199D01*
X127943332Y-80427199D02*
X127895713Y-80331961D01*
X127895713Y-80331961D02*
X127848094Y-80284342D01*
X127848094Y-80284342D02*
X127752856Y-80236723D01*
X127752856Y-80236723D02*
X127514761Y-80236723D01*
X127514761Y-80236723D02*
X127371904Y-80284342D01*
X126943332Y-81236723D02*
X126943332Y-80236723D01*
X126371904Y-81236723D02*
X126800475Y-80665294D01*
X126371904Y-80236723D02*
X126943332Y-80808151D01*
X125514761Y-80236723D02*
X125705237Y-80236723D01*
X125705237Y-80236723D02*
X125800475Y-80284342D01*
X125800475Y-80284342D02*
X125848094Y-80331961D01*
X125848094Y-80331961D02*
X125943332Y-80474818D01*
X125943332Y-80474818D02*
X125990951Y-80665294D01*
X125990951Y-80665294D02*
X125990951Y-81046246D01*
X125990951Y-81046246D02*
X125943332Y-81141484D01*
X125943332Y-81141484D02*
X125895713Y-81189104D01*
X125895713Y-81189104D02*
X125800475Y-81236723D01*
X125800475Y-81236723D02*
X125609999Y-81236723D01*
X125609999Y-81236723D02*
X125514761Y-81189104D01*
X125514761Y-81189104D02*
X125467142Y-81141484D01*
X125467142Y-81141484D02*
X125419523Y-81046246D01*
X125419523Y-81046246D02*
X125419523Y-80808151D01*
X125419523Y-80808151D02*
X125467142Y-80712913D01*
X125467142Y-80712913D02*
X125514761Y-80665294D01*
X125514761Y-80665294D02*
X125609999Y-80617675D01*
X125609999Y-80617675D02*
X125800475Y-80617675D01*
X125800475Y-80617675D02*
X125895713Y-80665294D01*
X125895713Y-80665294D02*
X125943332Y-80712913D01*
X125943332Y-80712913D02*
X125990951Y-80808151D01*
X124848094Y-80665294D02*
X124943332Y-80617675D01*
X124943332Y-80617675D02*
X124990951Y-80570056D01*
X124990951Y-80570056D02*
X125038570Y-80474818D01*
X125038570Y-80474818D02*
X125038570Y-80427199D01*
X125038570Y-80427199D02*
X124990951Y-80331961D01*
X124990951Y-80331961D02*
X124943332Y-80284342D01*
X124943332Y-80284342D02*
X124848094Y-80236723D01*
X124848094Y-80236723D02*
X124657618Y-80236723D01*
X124657618Y-80236723D02*
X124562380Y-80284342D01*
X124562380Y-80284342D02*
X124514761Y-80331961D01*
X124514761Y-80331961D02*
X124467142Y-80427199D01*
X124467142Y-80427199D02*
X124467142Y-80474818D01*
X124467142Y-80474818D02*
X124514761Y-80570056D01*
X124514761Y-80570056D02*
X124562380Y-80617675D01*
X124562380Y-80617675D02*
X124657618Y-80665294D01*
X124657618Y-80665294D02*
X124848094Y-80665294D01*
X124848094Y-80665294D02*
X124943332Y-80712913D01*
X124943332Y-80712913D02*
X124990951Y-80760532D01*
X124990951Y-80760532D02*
X125038570Y-80855770D01*
X125038570Y-80855770D02*
X125038570Y-81046246D01*
X125038570Y-81046246D02*
X124990951Y-81141484D01*
X124990951Y-81141484D02*
X124943332Y-81189104D01*
X124943332Y-81189104D02*
X124848094Y-81236723D01*
X124848094Y-81236723D02*
X124657618Y-81236723D01*
X124657618Y-81236723D02*
X124562380Y-81189104D01*
X124562380Y-81189104D02*
X124514761Y-81141484D01*
X124514761Y-81141484D02*
X124467142Y-81046246D01*
X124467142Y-81046246D02*
X124467142Y-80855770D01*
X124467142Y-80855770D02*
X124514761Y-80760532D01*
X124514761Y-80760532D02*
X124562380Y-80712913D01*
X124562380Y-80712913D02*
X124657618Y-80665294D01*
X123514761Y-81236723D02*
X124086189Y-81236723D01*
X123800475Y-81236723D02*
X123800475Y-80236723D01*
X123800475Y-80236723D02*
X123895713Y-80379580D01*
X123895713Y-80379580D02*
X123990951Y-80474818D01*
X123990951Y-80474818D02*
X124086189Y-80522437D01*
X123133808Y-80331961D02*
X123086189Y-80284342D01*
X123086189Y-80284342D02*
X122990951Y-80236723D01*
X122990951Y-80236723D02*
X122752856Y-80236723D01*
X122752856Y-80236723D02*
X122657618Y-80284342D01*
X122657618Y-80284342D02*
X122609999Y-80331961D01*
X122609999Y-80331961D02*
X122562380Y-80427199D01*
X122562380Y-80427199D02*
X122562380Y-80522437D01*
X122562380Y-80522437D02*
X122609999Y-80665294D01*
X122609999Y-80665294D02*
X123181427Y-81236723D01*
X123181427Y-81236723D02*
X122562380Y-81236723D01*
X122133808Y-81236723D02*
X122133808Y-80236723D01*
X122133808Y-80236723D02*
X121800475Y-80951008D01*
X121800475Y-80951008D02*
X121467142Y-80236723D01*
X121467142Y-80236723D02*
X121467142Y-81236723D01*
X120990951Y-81236723D02*
X120990951Y-80236723D01*
X120514761Y-81236723D02*
X120514761Y-80236723D01*
X120514761Y-80236723D02*
X119943333Y-81236723D01*
X119943333Y-81236723D02*
X119943333Y-80236723D01*
X119467142Y-81236723D02*
X119467142Y-80236723D01*
X118990952Y-80855770D02*
X118229048Y-80855770D01*
X117752857Y-80712913D02*
X117419524Y-80712913D01*
X117276667Y-81236723D02*
X117752857Y-81236723D01*
X117752857Y-81236723D02*
X117752857Y-80236723D01*
X117752857Y-80236723D02*
X117276667Y-80236723D01*
M02*
