M48
; DRILL file {KiCad 8.0.8} date 2025-04-07T13:28:26-0400
; FORMAT={-:-/ absolute / inch / decimal}
; #@! TF.CreationDate,2025-04-07T13:28:26-04:00
; #@! TF.GenerationSoftware,Kicad,Pcbnew,8.0.8
; #@! TF.FileFunction,Plated,1,2,PTH
FMAT,2
INCH
; #@! TA.AperFunction,Plated,PTH,ViaDrill
T1C0.0118
; #@! TA.AperFunction,Plated,PTH,ComponentDrill
T2C0.0236
%
G90
G05
T1
X4.648Y-2.9291
X4.648Y-3.1299
X4.7786Y-3.3725
X4.837Y-2.6654
X4.8613Y-2.8004
X4.8646Y-3.4724
X4.8803Y-2.6339
X4.8803Y-2.7717
X4.9039Y-2.0276
X4.9059Y-2.5846
X4.9143Y-2.7539
X4.9197Y-3.1772
X4.9197Y-3.6378
X4.9472Y-2.7244
X4.9669Y-2.9021
X4.9787Y-2.6535
X4.9787Y-3.0433
X4.9807Y-3.2351
X5.0024Y-2.9685
X5.0063Y-3.3031
X5.0335Y-2.9429
X5.0335Y-3.3701
X5.0614Y-2.9646
X5.0614Y-3.6654
X5.0969Y-2.9882
X5.0969Y-3.7205
X5.1362Y-3.0
X5.1362Y-3.3976
X5.199Y-2.6573
X5.2012Y-3.0008
X5.2287Y-3.0214
X5.2346Y-2.6378
X5.2543Y-3.0472
X5.2602Y-2.6929
X5.2799Y-2.9551
X5.286Y-3.8443
X5.2917Y-2.3228
X5.2917Y-2.4803
X5.3094Y-3.0079
X5.3173Y-3.815
X5.337Y-3.4724
X5.337Y-3.5984
X5.337Y-3.7756
X5.3409Y-3.1457
X5.3409Y-3.2795
X5.3449Y-2.9606
X5.6717Y-2.4803
X5.6717Y-2.7008
X5.6835Y-3.7795
X5.6835Y-3.9764
X5.6874Y-3.1496
X5.6874Y-3.6575
X5.6913Y-3.0197
X5.6913Y-3.3386
X5.6913Y-3.4764
X5.6953Y-2.5472
X5.8016Y-3.2677
X5.8055Y-2.6299
X5.8055Y-2.9488
X5.8055Y-3.5827
X5.8094Y-2.315
X5.8134Y-3.9055
X5.8724Y-2.8642
X5.8724Y-3.6535
X5.9039Y-2.8425
X5.9039Y-3.6181
X5.9472Y-2.7559
X5.9472Y-3.5748
X5.9827Y-3.1417
X5.9866Y-3.0
X6.0063Y-3.1969
X6.022Y-3.2913
X6.026Y-2.7756
X6.0299Y-2.5787
X6.0614Y-3.6181
X6.089Y-2.6614
X6.089Y-2.9449
X6.1283Y-3.815
X6.1598Y-2.7717
X6.1874Y-2.8189
X6.3488Y-3.3622
X6.3685Y-2.9488
X6.3685Y-3.063
X6.3685Y-3.1417
X6.3724Y-3.2874
X6.4079Y-3.3622
X6.4512Y-3.1614
X6.4551Y-2.9646
X6.4551Y-3.063
T2
X4.5756Y-2.8386
X4.5756Y-3.4607
X4.6256Y-2.752
X4.6256Y-3.5473
X4.6756Y-2.6654
X4.6756Y-3.6339
X4.7256Y-2.5788
X4.7256Y-3.7205
X4.7756Y-2.4921
X4.7756Y-3.8071
X5.3142Y-2.1811
X5.3142Y-4.1181
X5.4142Y-2.1811
X5.4142Y-4.1181
X5.5142Y-2.1811
X5.5142Y-4.1181
X5.6142Y-2.1811
X5.6142Y-4.1181
X5.7142Y-2.1811
X5.7142Y-4.1181
X6.2552Y-2.4912
X6.2567Y-3.8067
X6.3052Y-2.5778
X6.3067Y-3.7201
X6.3552Y-2.6644
X6.3567Y-3.6335
X6.4052Y-2.751
X6.4067Y-3.5469
X6.4552Y-2.8376
X6.4567Y-3.4603
M30
