%TF.GenerationSoftware,KiCad,Pcbnew,8.0.8*%
%TF.CreationDate,2025-04-07T13:28:21-04:00*%
%TF.ProjectId,pcb_tile_game_tile_aoa,7063625f-7469-46c6-955f-67616d655f74,1.0*%
%TF.SameCoordinates,Original*%
%TF.FileFunction,Paste,Top*%
%TF.FilePolarity,Positive*%
%FSLAX46Y46*%
G04 Gerber Fmt 4.6, Leading zero omitted, Abs format (unit mm)*
G04 Created by KiCad (PCBNEW 8.0.8) date 2025-04-07 13:28:21*
%MOMM*%
%LPD*%
G01*
G04 APERTURE LIST*
G04 Aperture macros list*
%AMRoundRect*
0 Rectangle with rounded corners*
0 $1 Rounding radius*
0 $2 $3 $4 $5 $6 $7 $8 $9 X,Y pos of 4 corners*
0 Add a 4 corners polygon primitive as box body*
4,1,4,$2,$3,$4,$5,$6,$7,$8,$9,$2,$3,0*
0 Add four circle primitives for the rounded corners*
1,1,$1+$1,$2,$3*
1,1,$1+$1,$4,$5*
1,1,$1+$1,$6,$7*
1,1,$1+$1,$8,$9*
0 Add four rect primitives between the rounded corners*
20,1,$1+$1,$2,$3,$4,$5,0*
20,1,$1+$1,$4,$5,$6,$7,0*
20,1,$1+$1,$6,$7,$8,$9,0*
20,1,$1+$1,$8,$9,$2,$3,0*%
G04 Aperture macros list end*
%ADD10RoundRect,0.237500X0.237500X-0.300000X0.237500X0.300000X-0.237500X0.300000X-0.237500X-0.300000X0*%
%ADD11RoundRect,0.237500X0.300000X0.237500X-0.300000X0.237500X-0.300000X-0.237500X0.300000X-0.237500X0*%
%ADD12RoundRect,0.237500X-0.237500X0.250000X-0.237500X-0.250000X0.237500X-0.250000X0.237500X0.250000X0*%
%ADD13RoundRect,0.250000X-0.275000X-0.275000X0.275000X-0.275000X0.275000X0.275000X-0.275000X0.275000X0*%
%ADD14RoundRect,0.062500X-0.350000X-0.062500X0.350000X-0.062500X0.350000X0.062500X-0.350000X0.062500X0*%
%ADD15RoundRect,0.062500X-0.062500X-0.350000X0.062500X-0.350000X0.062500X0.350000X-0.062500X0.350000X0*%
%ADD16RoundRect,0.082000X-0.718000X0.328000X-0.718000X-0.328000X0.718000X-0.328000X0.718000X0.328000X0*%
%ADD17RoundRect,0.082000X-0.074944X0.785806X-0.643056X0.457806X0.074944X-0.785806X0.643056X-0.457806X0*%
%ADD18RoundRect,0.082000X-0.643056X-0.457806X-0.074944X-0.785806X0.643056X0.457806X0.074944X0.785806X0*%
G04 APERTURE END LIST*
D10*
%TO.C,C2*%
X146060000Y-92790000D03*
X146060000Y-91065000D03*
%TD*%
D11*
%TO.C,C13*%
X129660000Y-78800000D03*
X127935000Y-78800002D03*
%TD*%
D10*
%TO.C,C3*%
X146060000Y-84717500D03*
X146060000Y-82992500D03*
%TD*%
D12*
%TO.C,R1*%
X127710000Y-67437500D03*
X127710000Y-69262500D03*
%TD*%
D11*
%TO.C,C10*%
X164810000Y-76500000D03*
X163085000Y-76500000D03*
%TD*%
D10*
%TO.C,C15*%
X127710000Y-73712500D03*
X127710000Y-71987500D03*
%TD*%
%TO.C,C5*%
X146060000Y-68572500D03*
X146060000Y-66847500D03*
%TD*%
D11*
%TO.C,C8*%
X164810000Y-81500000D03*
X163085000Y-81500000D03*
%TD*%
D10*
%TO.C,C6*%
X146060000Y-60500000D03*
X146060000Y-58775000D03*
%TD*%
D11*
%TO.C,C14*%
X128385000Y-65400002D03*
X126660000Y-65400000D03*
%TD*%
%TO.C,C12*%
X129622500Y-81000000D03*
X127897500Y-81000000D03*
%TD*%
%TO.C,C7*%
X164810000Y-84000000D03*
X163085000Y-84000000D03*
%TD*%
D10*
%TO.C,C1*%
X146060000Y-100862500D03*
X146060000Y-99137500D03*
%TD*%
D11*
%TO.C,C9*%
X164810000Y-79000000D03*
X163085000Y-79000000D03*
%TD*%
D10*
%TO.C,C4*%
X146060000Y-76645000D03*
X146060000Y-74920000D03*
%TD*%
D13*
%TO.C,U2*%
X132060000Y-71200000D03*
X132060000Y-72500000D03*
X133360000Y-71200000D03*
X133360000Y-72500000D03*
D14*
X130772500Y-70600000D03*
X130772500Y-71100000D03*
X130772500Y-71600000D03*
X130772500Y-72100000D03*
X130772500Y-72600000D03*
X130772500Y-73100000D03*
D15*
X131460000Y-73787500D03*
X131960000Y-73787500D03*
X132460000Y-73787500D03*
X132960000Y-73787500D03*
X133460000Y-73787500D03*
X133960000Y-73787500D03*
D14*
X134647500Y-73100000D03*
X134647500Y-72600000D03*
X134647500Y-72100000D03*
X134647500Y-71600000D03*
X134647500Y-71100000D03*
X134647500Y-70600000D03*
D15*
X133960000Y-69912500D03*
X133460000Y-69912500D03*
X132960000Y-69912500D03*
X132460000Y-69912500D03*
X131960000Y-69912500D03*
X131460000Y-69912500D03*
%TD*%
D10*
%TO.C,C16*%
X124710000Y-73712500D03*
X124710000Y-71987500D03*
%TD*%
D11*
%TO.C,C11*%
X126260000Y-89300000D03*
X124535000Y-89300000D03*
%TD*%
D16*
%TO.C,LED2*%
X142560000Y-91400000D03*
X142560000Y-92900000D03*
X137360000Y-92900000D03*
X137360000Y-91400000D03*
%TD*%
%TO.C,LED12*%
X125210000Y-82430000D03*
X125210000Y-83930000D03*
X120010000Y-83930000D03*
X120010000Y-82430000D03*
%TD*%
D17*
%TO.C,LED10*%
X161560000Y-73000000D03*
X160260960Y-73749999D03*
X157660961Y-69246667D03*
X158959998Y-68496667D03*
%TD*%
D16*
%TO.C,LED5*%
X142560000Y-67100000D03*
X142560000Y-68600000D03*
X137360000Y-68600000D03*
X137360000Y-67100000D03*
%TD*%
%TO.C,LED1*%
X142560000Y-99500000D03*
X142560000Y-101000000D03*
X137360000Y-101000000D03*
X137360000Y-99500000D03*
%TD*%
%TO.C,LED3*%
X142560000Y-83300000D03*
X142560000Y-84800000D03*
X137360000Y-84800000D03*
X137360000Y-83300000D03*
%TD*%
D18*
%TO.C,LED7*%
X160110961Y-86246668D03*
X161410000Y-86996668D03*
X158810000Y-91500000D03*
X157510961Y-90749999D03*
%TD*%
%TO.C,LED14*%
X121250961Y-68670000D03*
X122550000Y-69420000D03*
X119950000Y-73923332D03*
X118650961Y-73173332D03*
%TD*%
D16*
%TO.C,LED8*%
X160060000Y-82200000D03*
X160060000Y-83700000D03*
X154860000Y-83700000D03*
X154860000Y-82200000D03*
%TD*%
D17*
%TO.C,LED11*%
X122410000Y-90940000D03*
X121110961Y-91690000D03*
X118510961Y-87186668D03*
X119810000Y-86436668D03*
%TD*%
D16*
%TO.C,LED4*%
X142560000Y-75200000D03*
X142560000Y-76700000D03*
X137360000Y-76700000D03*
X137360000Y-75200000D03*
%TD*%
%TO.C,LED6*%
X142560000Y-59000000D03*
X142560000Y-60500000D03*
X137360000Y-60500000D03*
X137360000Y-59000000D03*
%TD*%
%TO.C,LED9*%
X160060000Y-76250000D03*
X160060000Y-77750000D03*
X154860000Y-77750000D03*
X154860000Y-76250000D03*
%TD*%
%TO.C,LED13*%
X125210000Y-76490000D03*
X125210000Y-77990000D03*
X120010000Y-77990000D03*
X120010000Y-76490000D03*
%TD*%
M02*
