%TF.GenerationSoftware,KiCad,Pcbnew,8.0.8*%
%TF.CreationDate,2025-04-07T13:28:21-04:00*%
%TF.ProjectId,pcb_tile_game_tile_aoa,7063625f-7469-46c6-955f-67616d655f74,1.0*%
%TF.SameCoordinates,Original*%
%TF.FileFunction,Profile,NP*%
%FSLAX46Y46*%
G04 Gerber Fmt 4.6, Leading zero omitted, Abs format (unit mm)*
G04 Created by KiCad (PCBNEW 8.0.8) date 2025-04-07 13:28:21*
%MOMM*%
%LPD*%
G01*
G04 APERTURE LIST*
%TA.AperFunction,Profile*%
%ADD10C,0.200000*%
%TD*%
%TA.AperFunction,Profile*%
%ADD11C,0.100000*%
%TD*%
G04 APERTURE END LIST*
D10*
X122739492Y-110000000D02*
X157380508Y-110000000D01*
X157380508Y-110000000D02*
X174701016Y-80000000D01*
X174701016Y-80000000D02*
X157380508Y-50000000D01*
X122739492Y-50000000D02*
X105418984Y-80000000D01*
X105418984Y-80000000D02*
X122739492Y-110000000D01*
X157380508Y-50000000D02*
X122739492Y-50000000D01*
D11*
%TO.C,LED2*%
X138260001Y-92852842D02*
X138260001Y-91447158D01*
X139165547Y-90650001D02*
X140754452Y-90650001D01*
X140754452Y-93650000D02*
X139165548Y-93650000D01*
X141659999Y-91447158D02*
X141659999Y-92852842D01*
X138210516Y-91230280D02*
G75*
G02*
X138260003Y-91447157I-449816J-216724D01*
G01*
X138210516Y-91230280D02*
G75*
G02*
X138913287Y-90581705I450514J216876D01*
G01*
X138260001Y-92852842D02*
G75*
G02*
X138210514Y-93069719I-499701J-62D01*
G01*
X138913289Y-93718299D02*
G75*
G02*
X138210522Y-93069722I-252259J431695D01*
G01*
X138913289Y-93718299D02*
G75*
G02*
X139165548Y-93649999I252261J-431705D01*
G01*
X139165547Y-90650001D02*
G75*
G02*
X138913289Y-90581702I3J500007D01*
G01*
X140754452Y-93650000D02*
G75*
G02*
X141006710Y-93718299I-3J-500009D01*
G01*
X141006711Y-90581701D02*
G75*
G02*
X140754453Y-90650000I-252261J431710D01*
G01*
X141006711Y-90581701D02*
G75*
G02*
X141709484Y-91230280I252258J-431701D01*
G01*
X141659999Y-91447158D02*
G75*
G02*
X141709484Y-91230280I499990J2D01*
G01*
X141709484Y-93069720D02*
G75*
G02*
X141006711Y-93718297I-450515J-216877D01*
G01*
X141709484Y-93069720D02*
G75*
G02*
X141659999Y-92852843I450505J216876D01*
G01*
%TO.C,LED12*%
X120910001Y-83882842D02*
X120910001Y-82477158D01*
X121815547Y-81680001D02*
X123404452Y-81680001D01*
X123404452Y-84680000D02*
X121815548Y-84680000D01*
X124309999Y-82477158D02*
X124309999Y-83882842D01*
X120860516Y-82260280D02*
G75*
G02*
X120910003Y-82477157I-449816J-216724D01*
G01*
X120860516Y-82260280D02*
G75*
G02*
X121563287Y-81611705I450514J216876D01*
G01*
X120910001Y-83882842D02*
G75*
G02*
X120860514Y-84099719I-499701J-62D01*
G01*
X121563289Y-84748299D02*
G75*
G02*
X120860522Y-84099722I-252259J431695D01*
G01*
X121563289Y-84748299D02*
G75*
G02*
X121815548Y-84679999I252261J-431705D01*
G01*
X121815547Y-81680001D02*
G75*
G02*
X121563289Y-81611702I3J500007D01*
G01*
X123404452Y-84680000D02*
G75*
G02*
X123656710Y-84748299I-3J-500009D01*
G01*
X123656711Y-81611701D02*
G75*
G02*
X123404453Y-81680000I-252261J431710D01*
G01*
X123656711Y-81611701D02*
G75*
G02*
X124359484Y-82260280I252258J-431701D01*
G01*
X124309999Y-82477158D02*
G75*
G02*
X124359484Y-82260280I499990J2D01*
G01*
X124359484Y-84099720D02*
G75*
G02*
X123656711Y-84748297I-450515J-216877D01*
G01*
X124359484Y-84099720D02*
G75*
G02*
X124309999Y-83882843I450505J216876D01*
G01*
%TO.C,LED10*%
X158151802Y-70002513D02*
X159369160Y-69299669D01*
X158708669Y-72561349D02*
X157914218Y-71185316D01*
X160512291Y-69685318D02*
X161306744Y-71061349D01*
X161069160Y-72244155D02*
X159851801Y-72946995D01*
X157728938Y-71001006D02*
G75*
G02*
X157914217Y-71185317I-247728J-434310D01*
G01*
X157728938Y-71001006D02*
G75*
G02*
X157939239Y-70068100I247730J434312D01*
G01*
X158151802Y-70002513D02*
G75*
G02*
X157939237Y-70068094I-249904J432724D01*
G01*
X158708669Y-72561349D02*
G75*
G02*
X158775650Y-72813959I-433054J-250011D01*
G01*
X159532240Y-69148373D02*
G75*
G02*
X159369161Y-69299668I-413220J281867D01*
G01*
X159532240Y-69148373D02*
G75*
G02*
X160445310Y-69432704I413077J-281721D01*
G01*
X159688722Y-73098291D02*
G75*
G02*
X158775651Y-72813960I-413078J281720D01*
G01*
X159688722Y-73098291D02*
G75*
G02*
X159851800Y-72946997I413062J-281696D01*
G01*
X160512291Y-69685318D02*
G75*
G02*
X160445314Y-69432704I432964J249981D01*
G01*
X161069160Y-72244155D02*
G75*
G02*
X161281723Y-72178571I250000J-433012D01*
G01*
X161492022Y-71245662D02*
G75*
G02*
X161281723Y-72178570I-247731J-434313D01*
G01*
X161492022Y-71245662D02*
G75*
G02*
X161306745Y-71061349I247752J434326D01*
G01*
%TO.C,LED5*%
X138260001Y-68552842D02*
X138260001Y-67147158D01*
X139165547Y-66350001D02*
X140754452Y-66350001D01*
X140754452Y-69350000D02*
X139165548Y-69350000D01*
X141659999Y-67147158D02*
X141659999Y-68552842D01*
X138210516Y-66930280D02*
G75*
G02*
X138260003Y-67147157I-449816J-216724D01*
G01*
X138210516Y-66930280D02*
G75*
G02*
X138913287Y-66281705I450514J216876D01*
G01*
X138260001Y-68552842D02*
G75*
G02*
X138210514Y-68769719I-499701J-62D01*
G01*
X138913289Y-69418299D02*
G75*
G02*
X138210522Y-68769722I-252259J431695D01*
G01*
X138913289Y-69418299D02*
G75*
G02*
X139165548Y-69349999I252261J-431705D01*
G01*
X139165547Y-66350001D02*
G75*
G02*
X138913289Y-66281702I3J500007D01*
G01*
X140754452Y-69350000D02*
G75*
G02*
X141006710Y-69418299I-3J-500009D01*
G01*
X141006711Y-66281701D02*
G75*
G02*
X140754453Y-66350000I-252261J431710D01*
G01*
X141006711Y-66281701D02*
G75*
G02*
X141709484Y-66930280I252258J-431701D01*
G01*
X141659999Y-67147158D02*
G75*
G02*
X141709484Y-66930280I499990J2D01*
G01*
X141709484Y-68769720D02*
G75*
G02*
X141006711Y-69418297I-450515J-216877D01*
G01*
X141709484Y-68769720D02*
G75*
G02*
X141659999Y-68552843I450505J216876D01*
G01*
%TO.C,LED1*%
X138260001Y-100952842D02*
X138260001Y-99547158D01*
X139165547Y-98750001D02*
X140754452Y-98750001D01*
X140754452Y-101750000D02*
X139165548Y-101750000D01*
X141659999Y-99547158D02*
X141659999Y-100952842D01*
X138210516Y-99330280D02*
G75*
G02*
X138260003Y-99547157I-449816J-216724D01*
G01*
X138210516Y-99330280D02*
G75*
G02*
X138913287Y-98681705I450514J216876D01*
G01*
X138260001Y-100952842D02*
G75*
G02*
X138210514Y-101169719I-499701J-62D01*
G01*
X138913289Y-101818299D02*
G75*
G02*
X138210522Y-101169722I-252259J431695D01*
G01*
X138913289Y-101818299D02*
G75*
G02*
X139165548Y-101749999I252261J-431705D01*
G01*
X139165547Y-98750001D02*
G75*
G02*
X138913289Y-98681702I3J500007D01*
G01*
X140754452Y-101750000D02*
G75*
G02*
X141006710Y-101818299I-3J-500009D01*
G01*
X141006711Y-98681701D02*
G75*
G02*
X140754453Y-98750000I-252261J431710D01*
G01*
X141006711Y-98681701D02*
G75*
G02*
X141709484Y-99330280I252258J-431701D01*
G01*
X141659999Y-99547158D02*
G75*
G02*
X141709484Y-99330280I499990J2D01*
G01*
X141709484Y-101169720D02*
G75*
G02*
X141006711Y-101818297I-450515J-216877D01*
G01*
X141709484Y-101169720D02*
G75*
G02*
X141659999Y-100952843I450505J216876D01*
G01*
%TO.C,LED3*%
X138260001Y-84752842D02*
X138260001Y-83347158D01*
X139165547Y-82550001D02*
X140754452Y-82550001D01*
X140754452Y-85550000D02*
X139165548Y-85550000D01*
X141659999Y-83347158D02*
X141659999Y-84752842D01*
X138210516Y-83130280D02*
G75*
G02*
X138260003Y-83347157I-449816J-216724D01*
G01*
X138210516Y-83130280D02*
G75*
G02*
X138913287Y-82481705I450514J216876D01*
G01*
X138260001Y-84752842D02*
G75*
G02*
X138210514Y-84969719I-499701J-62D01*
G01*
X138913289Y-85618299D02*
G75*
G02*
X138210522Y-84969722I-252259J431695D01*
G01*
X138913289Y-85618299D02*
G75*
G02*
X139165548Y-85549999I252261J-431705D01*
G01*
X139165547Y-82550001D02*
G75*
G02*
X138913289Y-82481702I3J500007D01*
G01*
X140754452Y-85550000D02*
G75*
G02*
X141006710Y-85618299I-3J-500009D01*
G01*
X141006711Y-82481701D02*
G75*
G02*
X140754453Y-82550000I-252261J431710D01*
G01*
X141006711Y-82481701D02*
G75*
G02*
X141709484Y-83130280I252258J-431701D01*
G01*
X141659999Y-83347158D02*
G75*
G02*
X141709484Y-83130280I499990J2D01*
G01*
X141709484Y-84969720D02*
G75*
G02*
X141006711Y-85618297I-450515J-216877D01*
G01*
X141709484Y-84969720D02*
G75*
G02*
X141659999Y-84752843I450505J216876D01*
G01*
%TO.C,LED7*%
X157764218Y-88811351D02*
X158558669Y-87435319D01*
X159219160Y-90696997D02*
X158001802Y-89994155D01*
X159701801Y-87049670D02*
X160919159Y-87752513D01*
X161156745Y-88935318D02*
X160362292Y-90311350D01*
X157764218Y-88811351D02*
G75*
G02*
X157578938Y-88995662I-433031J250025D01*
G01*
X157789238Y-89928571D02*
G75*
G02*
X157578940Y-88995667I37436J498594D01*
G01*
X157789238Y-89928571D02*
G75*
G02*
X158001793Y-89994168I-37710J-499364D01*
G01*
X158625649Y-87182705D02*
G75*
G02*
X158558669Y-87435318I-499997J-2612D01*
G01*
X158625649Y-87182705D02*
G75*
G02*
X159538722Y-86898377I499995J2605D01*
G01*
X159219160Y-90696997D02*
G75*
G02*
X159382238Y-90848293I-249797J-432785D01*
G01*
X159701801Y-87049670D02*
G75*
G02*
X159538722Y-86898377I249946J432955D01*
G01*
X160295312Y-90563962D02*
G75*
G02*
X159382243Y-90848288I-499989J-2615D01*
G01*
X160295312Y-90563962D02*
G75*
G02*
X160362292Y-90311350I499998J2612D01*
G01*
X161131724Y-87818096D02*
G75*
G02*
X160919159Y-87752513I37387J498449D01*
G01*
X161131724Y-87818096D02*
G75*
G02*
X161342021Y-88751003I-37436J-498595D01*
G01*
X161156745Y-88935318D02*
G75*
G02*
X161342022Y-88751006I433013J-250002D01*
G01*
%TO.C,LED14*%
X118904217Y-71234683D02*
X119698669Y-69858651D01*
X120359160Y-73120329D02*
X119141802Y-72417487D01*
X120841801Y-69473003D02*
X122059159Y-70175845D01*
X122296745Y-71358650D02*
X121502293Y-72734682D01*
X118904217Y-71234683D02*
G75*
G02*
X118718939Y-71418995I-433018J250006D01*
G01*
X118929238Y-72351904D02*
G75*
G02*
X118718940Y-71418997I37436J498595D01*
G01*
X118929238Y-72351904D02*
G75*
G02*
X119141802Y-72417485I-37220J-497914D01*
G01*
X119765649Y-69606038D02*
G75*
G02*
X119698669Y-69858650I-500002J-2610D01*
G01*
X119765649Y-69606038D02*
G75*
G02*
X120678722Y-69321708I499994J2610D01*
G01*
X120359160Y-73120329D02*
G75*
G02*
X120522238Y-73271625I-249797J-432785D01*
G01*
X120841801Y-69473003D02*
G75*
G02*
X120678722Y-69321708I249982J432991D01*
G01*
X121435312Y-72987294D02*
G75*
G02*
X120522243Y-73271620I-499989J-2615D01*
G01*
X121435312Y-72987294D02*
G75*
G02*
X121502293Y-72734682I500046J2596D01*
G01*
X122271723Y-70241428D02*
G75*
G02*
X122059160Y-70175845I37433J498586D01*
G01*
X122271723Y-70241428D02*
G75*
G02*
X122482021Y-71174337I-37435J-498596D01*
G01*
X122296745Y-71358650D02*
G75*
G02*
X122482022Y-71174338I433013J-250002D01*
G01*
%TO.C,LED8*%
X155760001Y-83652842D02*
X155760001Y-82247158D01*
X156665547Y-81450001D02*
X158254452Y-81450001D01*
X158254452Y-84450000D02*
X156665548Y-84450000D01*
X159159999Y-82247158D02*
X159159999Y-83652842D01*
X155710516Y-82030280D02*
G75*
G02*
X155760003Y-82247157I-449816J-216724D01*
G01*
X155710516Y-82030280D02*
G75*
G02*
X156413287Y-81381705I450514J216876D01*
G01*
X155760001Y-83652842D02*
G75*
G02*
X155710514Y-83869719I-499701J-62D01*
G01*
X156413289Y-84518299D02*
G75*
G02*
X155710522Y-83869722I-252259J431695D01*
G01*
X156413289Y-84518299D02*
G75*
G02*
X156665548Y-84449999I252261J-431705D01*
G01*
X156665547Y-81450001D02*
G75*
G02*
X156413289Y-81381702I3J500007D01*
G01*
X158254452Y-84450000D02*
G75*
G02*
X158506710Y-84518299I-3J-500009D01*
G01*
X158506711Y-81381701D02*
G75*
G02*
X158254453Y-81450000I-252261J431710D01*
G01*
X158506711Y-81381701D02*
G75*
G02*
X159209484Y-82030280I252258J-431701D01*
G01*
X159159999Y-82247158D02*
G75*
G02*
X159209484Y-82030280I499990J2D01*
G01*
X159209484Y-83869720D02*
G75*
G02*
X158506711Y-84518297I-450515J-216877D01*
G01*
X159209484Y-83869720D02*
G75*
G02*
X159159999Y-83652843I450505J216876D01*
G01*
%TO.C,LED11*%
X119001802Y-87942513D02*
X120219160Y-87239671D01*
X119558669Y-90501350D02*
X118764216Y-89125319D01*
X121362291Y-87625318D02*
X122156744Y-89001350D01*
X121919159Y-90184155D02*
X120701801Y-90886997D01*
X118578938Y-88941005D02*
G75*
G02*
X118764216Y-89125319I-247695J-434270D01*
G01*
X118578938Y-88941005D02*
G75*
G02*
X118789239Y-88008103I247730J434310D01*
G01*
X119001802Y-87942513D02*
G75*
G02*
X118789237Y-88008094I-249904J432723D01*
G01*
X119558669Y-90501350D02*
G75*
G02*
X119625649Y-90753961I-433015J-249999D01*
G01*
X120382239Y-87088377D02*
G75*
G02*
X120219162Y-87239672I-412596J281191D01*
G01*
X120382239Y-87088377D02*
G75*
G02*
X121295309Y-87372707I413078J-281718D01*
G01*
X120538722Y-91038292D02*
G75*
G02*
X119625651Y-90753961I-413078J281720D01*
G01*
X120538722Y-91038292D02*
G75*
G02*
X120701800Y-90886998I413062J-281696D01*
G01*
X121362291Y-87625318D02*
G75*
G02*
X121295311Y-87372707I433021J250001D01*
G01*
X121919159Y-90184155D02*
G75*
G02*
X122131724Y-90118572I249966J-432912D01*
G01*
X122342023Y-89185663D02*
G75*
G02*
X122131724Y-90118573I-247735J-434313D01*
G01*
X122342023Y-89185663D02*
G75*
G02*
X122156745Y-89001350I247741J434320D01*
G01*
%TO.C,LED4*%
X138260001Y-76652842D02*
X138260001Y-75247158D01*
X139165547Y-74450001D02*
X140754452Y-74450001D01*
X140754452Y-77450000D02*
X139165548Y-77450000D01*
X141659999Y-75247158D02*
X141659999Y-76652842D01*
X138210516Y-75030280D02*
G75*
G02*
X138260003Y-75247157I-449816J-216724D01*
G01*
X138210516Y-75030280D02*
G75*
G02*
X138913287Y-74381705I450514J216876D01*
G01*
X138260001Y-76652842D02*
G75*
G02*
X138210514Y-76869719I-499701J-62D01*
G01*
X138913289Y-77518299D02*
G75*
G02*
X138210522Y-76869722I-252259J431695D01*
G01*
X138913289Y-77518299D02*
G75*
G02*
X139165548Y-77449999I252261J-431705D01*
G01*
X139165547Y-74450001D02*
G75*
G02*
X138913289Y-74381702I3J500007D01*
G01*
X140754452Y-77450000D02*
G75*
G02*
X141006710Y-77518299I-3J-500009D01*
G01*
X141006711Y-74381701D02*
G75*
G02*
X140754453Y-74450000I-252261J431710D01*
G01*
X141006711Y-74381701D02*
G75*
G02*
X141709484Y-75030280I252258J-431701D01*
G01*
X141659999Y-75247158D02*
G75*
G02*
X141709484Y-75030280I499990J2D01*
G01*
X141709484Y-76869720D02*
G75*
G02*
X141006711Y-77518297I-450515J-216877D01*
G01*
X141709484Y-76869720D02*
G75*
G02*
X141659999Y-76652843I450505J216876D01*
G01*
%TO.C,LED6*%
X138260001Y-60452842D02*
X138260001Y-59047158D01*
X139165547Y-58250001D02*
X140754452Y-58250001D01*
X140754452Y-61250000D02*
X139165548Y-61250000D01*
X141659999Y-59047158D02*
X141659999Y-60452842D01*
X138210516Y-58830280D02*
G75*
G02*
X138260003Y-59047157I-449816J-216724D01*
G01*
X138210516Y-58830280D02*
G75*
G02*
X138913287Y-58181705I450514J216876D01*
G01*
X138260001Y-60452842D02*
G75*
G02*
X138210514Y-60669719I-499701J-62D01*
G01*
X138913289Y-61318299D02*
G75*
G02*
X138210522Y-60669722I-252259J431695D01*
G01*
X138913289Y-61318299D02*
G75*
G02*
X139165548Y-61249999I252261J-431705D01*
G01*
X139165547Y-58250001D02*
G75*
G02*
X138913289Y-58181702I3J500007D01*
G01*
X140754452Y-61250000D02*
G75*
G02*
X141006710Y-61318299I-3J-500009D01*
G01*
X141006711Y-58181701D02*
G75*
G02*
X140754453Y-58250000I-252261J431710D01*
G01*
X141006711Y-58181701D02*
G75*
G02*
X141709484Y-58830280I252258J-431701D01*
G01*
X141659999Y-59047158D02*
G75*
G02*
X141709484Y-58830280I499990J2D01*
G01*
X141709484Y-60669720D02*
G75*
G02*
X141006711Y-61318297I-450515J-216877D01*
G01*
X141709484Y-60669720D02*
G75*
G02*
X141659999Y-60452843I450505J216876D01*
G01*
%TO.C,LED9*%
X155760001Y-77702842D02*
X155760001Y-76297158D01*
X156665547Y-75500001D02*
X158254452Y-75500001D01*
X158254452Y-78500000D02*
X156665548Y-78500000D01*
X159159999Y-76297158D02*
X159159999Y-77702842D01*
X155710516Y-76080280D02*
G75*
G02*
X155760003Y-76297157I-449816J-216724D01*
G01*
X155710516Y-76080280D02*
G75*
G02*
X156413287Y-75431705I450514J216876D01*
G01*
X155760001Y-77702842D02*
G75*
G02*
X155710514Y-77919719I-499701J-62D01*
G01*
X156413289Y-78568299D02*
G75*
G02*
X155710522Y-77919722I-252259J431695D01*
G01*
X156413289Y-78568299D02*
G75*
G02*
X156665548Y-78499999I252261J-431705D01*
G01*
X156665547Y-75500001D02*
G75*
G02*
X156413289Y-75431702I3J500007D01*
G01*
X158254452Y-78500000D02*
G75*
G02*
X158506710Y-78568299I-3J-500009D01*
G01*
X158506711Y-75431701D02*
G75*
G02*
X158254453Y-75500000I-252261J431710D01*
G01*
X158506711Y-75431701D02*
G75*
G02*
X159209484Y-76080280I252258J-431701D01*
G01*
X159159999Y-76297158D02*
G75*
G02*
X159209484Y-76080280I499990J2D01*
G01*
X159209484Y-77919720D02*
G75*
G02*
X158506711Y-78568297I-450515J-216877D01*
G01*
X159209484Y-77919720D02*
G75*
G02*
X159159999Y-77702843I450505J216876D01*
G01*
%TO.C,LED13*%
X120910001Y-77942842D02*
X120910001Y-76537158D01*
X121815547Y-75740001D02*
X123404452Y-75740001D01*
X123404452Y-78740000D02*
X121815548Y-78740000D01*
X124309999Y-76537158D02*
X124309999Y-77942842D01*
X120860516Y-76320280D02*
G75*
G02*
X120910003Y-76537157I-449816J-216724D01*
G01*
X120860516Y-76320280D02*
G75*
G02*
X121563287Y-75671705I450514J216876D01*
G01*
X120910001Y-77942842D02*
G75*
G02*
X120860514Y-78159719I-499701J-62D01*
G01*
X121563289Y-78808299D02*
G75*
G02*
X120860522Y-78159722I-252259J431695D01*
G01*
X121563289Y-78808299D02*
G75*
G02*
X121815548Y-78739999I252261J-431705D01*
G01*
X121815547Y-75740001D02*
G75*
G02*
X121563289Y-75671702I3J500007D01*
G01*
X123404452Y-78740000D02*
G75*
G02*
X123656710Y-78808299I-3J-500009D01*
G01*
X123656711Y-75671701D02*
G75*
G02*
X123404453Y-75740000I-252261J431710D01*
G01*
X123656711Y-75671701D02*
G75*
G02*
X124359484Y-76320280I252258J-431701D01*
G01*
X124309999Y-76537158D02*
G75*
G02*
X124359484Y-76320280I499990J2D01*
G01*
X124359484Y-78159720D02*
G75*
G02*
X123656711Y-78808297I-450515J-216877D01*
G01*
X124359484Y-78159720D02*
G75*
G02*
X124309999Y-77942843I450505J216876D01*
G01*
%TD*%
M02*
