%TF.GenerationSoftware,KiCad,Pcbnew,8.0.8*%
%TF.CreationDate,2025-02-21T18:34:30-05:00*%
%TF.ProjectId,pcb_tile_game,7063625f-7469-46c6-955f-67616d652e6b,0.1*%
%TF.SameCoordinates,Original*%
%TF.FileFunction,Legend,Bot*%
%TF.FilePolarity,Positive*%
%FSLAX46Y46*%
G04 Gerber Fmt 4.6, Leading zero omitted, Abs format (unit mm)*
G04 Created by KiCad (PCBNEW 8.0.8) date 2025-02-21 18:34:30*
%MOMM*%
%LPD*%
G01*
G04 APERTURE LIST*
%ADD10C,2.000000*%
%ADD11C,0.150000*%
%ADD12C,0.120000*%
G04 APERTURE END LIST*
D10*
X140060000Y-105000000D02*
X140060000Y-55000000D01*
X118842000Y-67750000D02*
G75*
G02*
X118842000Y-92250000I-10242590J-12250000D01*
G01*
X161278000Y-92250000D02*
G75*
G02*
X161278000Y-67750000I10242589J12250000D01*
G01*
D11*
X140798094Y-66454819D02*
X140798094Y-65454819D01*
X140798094Y-65454819D02*
X140559999Y-65454819D01*
X140559999Y-65454819D02*
X140417142Y-65502438D01*
X140417142Y-65502438D02*
X140321904Y-65597676D01*
X140321904Y-65597676D02*
X140274285Y-65692914D01*
X140274285Y-65692914D02*
X140226666Y-65883390D01*
X140226666Y-65883390D02*
X140226666Y-66026247D01*
X140226666Y-66026247D02*
X140274285Y-66216723D01*
X140274285Y-66216723D02*
X140321904Y-66311961D01*
X140321904Y-66311961D02*
X140417142Y-66407200D01*
X140417142Y-66407200D02*
X140559999Y-66454819D01*
X140559999Y-66454819D02*
X140798094Y-66454819D01*
X139321904Y-65454819D02*
X139798094Y-65454819D01*
X139798094Y-65454819D02*
X139845713Y-65931009D01*
X139845713Y-65931009D02*
X139798094Y-65883390D01*
X139798094Y-65883390D02*
X139702856Y-65835771D01*
X139702856Y-65835771D02*
X139464761Y-65835771D01*
X139464761Y-65835771D02*
X139369523Y-65883390D01*
X139369523Y-65883390D02*
X139321904Y-65931009D01*
X139321904Y-65931009D02*
X139274285Y-66026247D01*
X139274285Y-66026247D02*
X139274285Y-66264342D01*
X139274285Y-66264342D02*
X139321904Y-66359580D01*
X139321904Y-66359580D02*
X139369523Y-66407200D01*
X139369523Y-66407200D02*
X139464761Y-66454819D01*
X139464761Y-66454819D02*
X139702856Y-66454819D01*
X139702856Y-66454819D02*
X139798094Y-66407200D01*
X139798094Y-66407200D02*
X139845713Y-66359580D01*
X140798094Y-58454819D02*
X140798094Y-57454819D01*
X140798094Y-57454819D02*
X140559999Y-57454819D01*
X140559999Y-57454819D02*
X140417142Y-57502438D01*
X140417142Y-57502438D02*
X140321904Y-57597676D01*
X140321904Y-57597676D02*
X140274285Y-57692914D01*
X140274285Y-57692914D02*
X140226666Y-57883390D01*
X140226666Y-57883390D02*
X140226666Y-58026247D01*
X140226666Y-58026247D02*
X140274285Y-58216723D01*
X140274285Y-58216723D02*
X140321904Y-58311961D01*
X140321904Y-58311961D02*
X140417142Y-58407200D01*
X140417142Y-58407200D02*
X140559999Y-58454819D01*
X140559999Y-58454819D02*
X140798094Y-58454819D01*
X139369523Y-57454819D02*
X139559999Y-57454819D01*
X139559999Y-57454819D02*
X139655237Y-57502438D01*
X139655237Y-57502438D02*
X139702856Y-57550057D01*
X139702856Y-57550057D02*
X139798094Y-57692914D01*
X139798094Y-57692914D02*
X139845713Y-57883390D01*
X139845713Y-57883390D02*
X139845713Y-58264342D01*
X139845713Y-58264342D02*
X139798094Y-58359580D01*
X139798094Y-58359580D02*
X139750475Y-58407200D01*
X139750475Y-58407200D02*
X139655237Y-58454819D01*
X139655237Y-58454819D02*
X139464761Y-58454819D01*
X139464761Y-58454819D02*
X139369523Y-58407200D01*
X139369523Y-58407200D02*
X139321904Y-58359580D01*
X139321904Y-58359580D02*
X139274285Y-58264342D01*
X139274285Y-58264342D02*
X139274285Y-58026247D01*
X139274285Y-58026247D02*
X139321904Y-57931009D01*
X139321904Y-57931009D02*
X139369523Y-57883390D01*
X139369523Y-57883390D02*
X139464761Y-57835771D01*
X139464761Y-57835771D02*
X139655237Y-57835771D01*
X139655237Y-57835771D02*
X139750475Y-57883390D01*
X139750475Y-57883390D02*
X139798094Y-57931009D01*
X139798094Y-57931009D02*
X139845713Y-58026247D01*
X140798094Y-90454819D02*
X140798094Y-89454819D01*
X140798094Y-89454819D02*
X140559999Y-89454819D01*
X140559999Y-89454819D02*
X140417142Y-89502438D01*
X140417142Y-89502438D02*
X140321904Y-89597676D01*
X140321904Y-89597676D02*
X140274285Y-89692914D01*
X140274285Y-89692914D02*
X140226666Y-89883390D01*
X140226666Y-89883390D02*
X140226666Y-90026247D01*
X140226666Y-90026247D02*
X140274285Y-90216723D01*
X140274285Y-90216723D02*
X140321904Y-90311961D01*
X140321904Y-90311961D02*
X140417142Y-90407200D01*
X140417142Y-90407200D02*
X140559999Y-90454819D01*
X140559999Y-90454819D02*
X140798094Y-90454819D01*
X139845713Y-89550057D02*
X139798094Y-89502438D01*
X139798094Y-89502438D02*
X139702856Y-89454819D01*
X139702856Y-89454819D02*
X139464761Y-89454819D01*
X139464761Y-89454819D02*
X139369523Y-89502438D01*
X139369523Y-89502438D02*
X139321904Y-89550057D01*
X139321904Y-89550057D02*
X139274285Y-89645295D01*
X139274285Y-89645295D02*
X139274285Y-89740533D01*
X139274285Y-89740533D02*
X139321904Y-89883390D01*
X139321904Y-89883390D02*
X139893332Y-90454819D01*
X139893332Y-90454819D02*
X139274285Y-90454819D01*
X140798094Y-98454819D02*
X140798094Y-97454819D01*
X140798094Y-97454819D02*
X140559999Y-97454819D01*
X140559999Y-97454819D02*
X140417142Y-97502438D01*
X140417142Y-97502438D02*
X140321904Y-97597676D01*
X140321904Y-97597676D02*
X140274285Y-97692914D01*
X140274285Y-97692914D02*
X140226666Y-97883390D01*
X140226666Y-97883390D02*
X140226666Y-98026247D01*
X140226666Y-98026247D02*
X140274285Y-98216723D01*
X140274285Y-98216723D02*
X140321904Y-98311961D01*
X140321904Y-98311961D02*
X140417142Y-98407200D01*
X140417142Y-98407200D02*
X140559999Y-98454819D01*
X140559999Y-98454819D02*
X140798094Y-98454819D01*
X139274285Y-98454819D02*
X139845713Y-98454819D01*
X139559999Y-98454819D02*
X139559999Y-97454819D01*
X139559999Y-97454819D02*
X139655237Y-97597676D01*
X139655237Y-97597676D02*
X139750475Y-97692914D01*
X139750475Y-97692914D02*
X139845713Y-97740533D01*
X140798094Y-82454819D02*
X140798094Y-81454819D01*
X140798094Y-81454819D02*
X140559999Y-81454819D01*
X140559999Y-81454819D02*
X140417142Y-81502438D01*
X140417142Y-81502438D02*
X140321904Y-81597676D01*
X140321904Y-81597676D02*
X140274285Y-81692914D01*
X140274285Y-81692914D02*
X140226666Y-81883390D01*
X140226666Y-81883390D02*
X140226666Y-82026247D01*
X140226666Y-82026247D02*
X140274285Y-82216723D01*
X140274285Y-82216723D02*
X140321904Y-82311961D01*
X140321904Y-82311961D02*
X140417142Y-82407200D01*
X140417142Y-82407200D02*
X140559999Y-82454819D01*
X140559999Y-82454819D02*
X140798094Y-82454819D01*
X139893332Y-81454819D02*
X139274285Y-81454819D01*
X139274285Y-81454819D02*
X139607618Y-81835771D01*
X139607618Y-81835771D02*
X139464761Y-81835771D01*
X139464761Y-81835771D02*
X139369523Y-81883390D01*
X139369523Y-81883390D02*
X139321904Y-81931009D01*
X139321904Y-81931009D02*
X139274285Y-82026247D01*
X139274285Y-82026247D02*
X139274285Y-82264342D01*
X139274285Y-82264342D02*
X139321904Y-82359580D01*
X139321904Y-82359580D02*
X139369523Y-82407200D01*
X139369523Y-82407200D02*
X139464761Y-82454819D01*
X139464761Y-82454819D02*
X139750475Y-82454819D01*
X139750475Y-82454819D02*
X139845713Y-82407200D01*
X139845713Y-82407200D02*
X139893332Y-82359580D01*
X140798094Y-74454819D02*
X140798094Y-73454819D01*
X140798094Y-73454819D02*
X140559999Y-73454819D01*
X140559999Y-73454819D02*
X140417142Y-73502438D01*
X140417142Y-73502438D02*
X140321904Y-73597676D01*
X140321904Y-73597676D02*
X140274285Y-73692914D01*
X140274285Y-73692914D02*
X140226666Y-73883390D01*
X140226666Y-73883390D02*
X140226666Y-74026247D01*
X140226666Y-74026247D02*
X140274285Y-74216723D01*
X140274285Y-74216723D02*
X140321904Y-74311961D01*
X140321904Y-74311961D02*
X140417142Y-74407200D01*
X140417142Y-74407200D02*
X140559999Y-74454819D01*
X140559999Y-74454819D02*
X140798094Y-74454819D01*
X139369523Y-73788152D02*
X139369523Y-74454819D01*
X139607618Y-73407200D02*
X139845713Y-74121485D01*
X139845713Y-74121485D02*
X139226666Y-74121485D01*
D12*
%TO.C,D5*%
X138640000Y-66850000D02*
X141480000Y-66850000D01*
X138640000Y-69150000D02*
X141480000Y-69150000D01*
X141480000Y-67500000D02*
X141480000Y-66850000D01*
%TO.C,D6*%
X138640000Y-58850000D02*
X141480000Y-58850000D01*
X138640000Y-61150000D02*
X141480000Y-61150000D01*
X141480000Y-59500000D02*
X141480000Y-58850000D01*
%TO.C,D9*%
X154581662Y-77073973D02*
X155316708Y-74330745D01*
X156803292Y-77669255D02*
X157538338Y-74926027D01*
X155944560Y-74498976D02*
X155316708Y-74330745D01*
%TO.C,D2*%
X138640000Y-90850000D02*
X141480000Y-90850000D01*
X138640000Y-93150000D02*
X141480000Y-93150000D01*
X141480000Y-91500000D02*
X141480000Y-90850000D01*
%TO.C,D14*%
X121528027Y-72326986D02*
X119779548Y-70089035D01*
X123340452Y-70910965D02*
X121591973Y-68673014D01*
X120291755Y-69688856D02*
X119779548Y-70089035D01*
%TO.C,D1*%
X138640000Y-98850000D02*
X141480000Y-98850000D01*
X138640000Y-101150000D02*
X141480000Y-101150000D01*
X141480000Y-99500000D02*
X141480000Y-98850000D01*
%TO.C,D13*%
X123316708Y-77669257D02*
X122581662Y-74926027D01*
X125538338Y-77073973D02*
X124803292Y-74330743D01*
X123209514Y-74757795D02*
X122581662Y-74926027D01*
%TO.C,D3*%
X138640000Y-82850000D02*
X141480000Y-82850000D01*
X138640000Y-85150000D02*
X141480000Y-85150000D01*
X141480000Y-83500000D02*
X141480000Y-82850000D01*
%TO.C,D8*%
X155316708Y-85669257D02*
X154581662Y-82926027D01*
X157538338Y-85073973D02*
X156803292Y-82330743D01*
X155209514Y-82757795D02*
X154581662Y-82926027D01*
%TO.C,D7*%
X157291755Y-88688855D02*
X156779548Y-89089035D01*
X160340452Y-89910965D02*
X158591973Y-87673014D01*
X158528027Y-91326986D02*
X156779548Y-89089035D01*
%TO.C,D4*%
X138640000Y-74850000D02*
X141480000Y-74850000D01*
X138640000Y-77150000D02*
X141480000Y-77150000D01*
X141480000Y-75500000D02*
X141480000Y-74850000D01*
%TO.C,D12*%
X122581662Y-85073973D02*
X123316708Y-82330743D01*
X124803292Y-85669257D02*
X125538338Y-82926027D01*
X123944560Y-82498976D02*
X123316708Y-82330743D01*
%TO.C,D11*%
X119779549Y-89910964D02*
X121528027Y-87673014D01*
X121591973Y-91326986D02*
X123340451Y-89089036D01*
X122040234Y-88073194D02*
X121528027Y-87673014D01*
%TO.C,D10*%
X159040234Y-69073194D02*
X158528027Y-68673014D01*
X158591973Y-72326986D02*
X160340452Y-70089036D01*
X156779548Y-70910964D02*
X158528027Y-68673014D01*
%TD*%
M02*
