%TF.GenerationSoftware,KiCad,Pcbnew,8.0.8*%
%TF.CreationDate,2025-02-21T18:34:30-05:00*%
%TF.ProjectId,pcb_tile_game,7063625f-7469-46c6-955f-67616d652e6b,0.1*%
%TF.SameCoordinates,Original*%
%TF.FileFunction,Soldermask,Top*%
%TF.FilePolarity,Negative*%
%FSLAX46Y46*%
G04 Gerber Fmt 4.6, Leading zero omitted, Abs format (unit mm)*
G04 Created by KiCad (PCBNEW 8.0.8) date 2025-02-21 18:34:30*
%MOMM*%
%LPD*%
G01*
G04 APERTURE LIST*
G04 Aperture macros list*
%AMRoundRect*
0 Rectangle with rounded corners*
0 $1 Rounding radius*
0 $2 $3 $4 $5 $6 $7 $8 $9 X,Y pos of 4 corners*
0 Add a 4 corners polygon primitive as box body*
4,1,4,$2,$3,$4,$5,$6,$7,$8,$9,$2,$3,0*
0 Add four circle primitives for the rounded corners*
1,1,$1+$1,$2,$3*
1,1,$1+$1,$4,$5*
1,1,$1+$1,$6,$7*
1,1,$1+$1,$8,$9*
0 Add four rect primitives between the rounded corners*
20,1,$1+$1,$2,$3,$4,$5,0*
20,1,$1+$1,$4,$5,$6,$7,0*
20,1,$1+$1,$6,$7,$8,$9,0*
20,1,$1+$1,$8,$9,$2,$3,0*%
%AMHorizOval*
0 Thick line with rounded ends*
0 $1 width*
0 $2 $3 position (X,Y) of the first rounded end (center of the circle)*
0 $4 $5 position (X,Y) of the second rounded end (center of the circle)*
0 Add line between two ends*
20,1,$1,$2,$3,$4,$5,0*
0 Add two circle primitives to create the rounded ends*
1,1,$1,$2,$3*
1,1,$1,$4,$5*%
%AMRotRect*
0 Rectangle, with rotation*
0 The origin of the aperture is its center*
0 $1 length*
0 $2 width*
0 $3 Rotation angle, in degrees counterclockwise*
0 Add horizontal line*
21,1,$1,$2,0,0,$3*%
G04 Aperture macros list end*
%ADD10RoundRect,0.237500X0.300000X0.237500X-0.300000X0.237500X-0.300000X-0.237500X0.300000X-0.237500X0*%
%ADD11RoundRect,0.237500X-0.307053X0.228308X-0.151762X-0.351247X0.307053X-0.228308X0.151762X0.351247X0*%
%ADD12R,1.700000X1.700000*%
%ADD13O,1.700000X1.700000*%
%ADD14RoundRect,0.237500X-0.237500X0.250000X-0.237500X-0.250000X0.237500X-0.250000X0.237500X0.250000X0*%
%ADD15RoundRect,0.237500X-0.002454X0.382623X-0.371851X-0.090184X0.002454X-0.382623X0.371851X0.090184X0*%
%ADD16RoundRect,0.237500X0.237500X-0.300000X0.237500X0.300000X-0.237500X0.300000X-0.237500X-0.300000X0*%
%ADD17RotRect,1.700000X1.700000X150.000000*%
%ADD18HorizOval,1.700000X0.000000X0.000000X0.000000X0.000000X0*%
%ADD19RoundRect,0.237500X-0.371851X0.090184X-0.002454X-0.382623X0.371851X-0.090184X0.002454X0.382623X0*%
%ADD20RoundRect,0.237500X-0.151762X0.351247X-0.307053X-0.228308X0.151762X-0.351247X0.307053X0.228308X0*%
%ADD21RotRect,1.700000X1.700000X330.000000*%
%ADD22HorizOval,1.700000X0.000000X0.000000X0.000000X0.000000X0*%
%ADD23RotRect,1.700000X1.700000X210.000000*%
%ADD24HorizOval,1.700000X0.000000X0.000000X0.000000X0.000000X0*%
%ADD25RotRect,1.700000X1.700000X30.000000*%
%ADD26HorizOval,1.700000X0.000000X0.000000X0.000000X0.000000X0*%
%ADD27R,2.000000X2.000000*%
%ADD28RoundRect,0.062500X-0.350000X-0.062500X0.350000X-0.062500X0.350000X0.062500X-0.350000X0.062500X0*%
%ADD29RoundRect,0.062500X-0.062500X-0.350000X0.062500X-0.350000X0.062500X0.350000X-0.062500X0.350000X0*%
%ADD30R,2.600000X2.600000*%
G04 APERTURE END LIST*
D10*
%TO.C,C2*%
X140922500Y-92000000D03*
X139197500Y-92000000D03*
%TD*%
D11*
%TO.C,C13*%
X123836768Y-75166889D03*
X124283232Y-76833111D03*
%TD*%
D10*
%TO.C,C3*%
X139197500Y-84000000D03*
X140922500Y-84000000D03*
%TD*%
D12*
%TO.C,J2*%
X134980000Y-104600000D03*
D13*
X137520000Y-104600000D03*
X140060000Y-104600000D03*
X142600000Y-104600000D03*
X145140000Y-104600000D03*
%TD*%
D14*
%TO.C,R1*%
X135060000Y-75587500D03*
X135060000Y-77412500D03*
%TD*%
D15*
%TO.C,C10*%
X159091008Y-69820341D03*
X158028992Y-71179659D03*
%TD*%
D16*
%TO.C,C15*%
X135060000Y-80137500D03*
X135060000Y-81862500D03*
%TD*%
D10*
%TO.C,C5*%
X140922500Y-68000000D03*
X139197500Y-68000000D03*
%TD*%
D11*
%TO.C,C8*%
X155836769Y-83166889D03*
X156283231Y-84833111D03*
%TD*%
D10*
%TO.C,C6*%
X140922500Y-60000000D03*
X139197500Y-60000000D03*
%TD*%
D17*
%TO.C,J3*%
X158920000Y-96689409D03*
D18*
X160190000Y-94489704D03*
X161460000Y-92290000D03*
X162730000Y-90090295D03*
X164000000Y-87890591D03*
%TD*%
D19*
%TO.C,C14*%
X121028993Y-69820340D03*
X122091007Y-71179660D03*
%TD*%
D20*
%TO.C,C12*%
X124283231Y-83166889D03*
X123836769Y-84833111D03*
%TD*%
D21*
%TO.C,J6*%
X121300000Y-63300591D03*
D22*
X120030000Y-65500296D03*
X118760000Y-67700000D03*
X117490000Y-69899705D03*
X116220000Y-72099409D03*
%TD*%
D19*
%TO.C,C7*%
X159091008Y-90179659D03*
X158028992Y-88820341D03*
%TD*%
D10*
%TO.C,C1*%
X140922500Y-100000000D03*
X139197500Y-100000000D03*
%TD*%
D23*
%TO.C,J4*%
X163963349Y-72075928D03*
D24*
X162693349Y-69876223D03*
X161423349Y-67676519D03*
X160153349Y-65476814D03*
X158883349Y-63277110D03*
%TD*%
D20*
%TO.C,C9*%
X156283231Y-75166889D03*
X155836769Y-76833111D03*
%TD*%
D25*
%TO.C,J1*%
X116220000Y-87900591D03*
D26*
X117490000Y-90100296D03*
X118760000Y-92300000D03*
X120030000Y-94499705D03*
X121300000Y-96699409D03*
%TD*%
D10*
%TO.C,C4*%
X140922500Y-76000000D03*
X139197500Y-76000000D03*
%TD*%
D12*
%TO.C,J5*%
X145140000Y-55400000D03*
D13*
X142600000Y-55400000D03*
X140060000Y-55400000D03*
X137520000Y-55400000D03*
X134980000Y-55400000D03*
%TD*%
D27*
%TO.C,TP1*%
X124560000Y-51500000D03*
%TD*%
D28*
%TO.C,U2*%
X138122500Y-78750000D03*
X138122500Y-79250000D03*
X138122500Y-79750000D03*
X138122500Y-80250000D03*
X138122500Y-80750000D03*
X138122500Y-81250000D03*
D29*
X138810000Y-81937500D03*
X139310000Y-81937500D03*
X139810000Y-81937500D03*
X140310000Y-81937500D03*
X140810000Y-81937500D03*
X141310000Y-81937500D03*
D28*
X141997500Y-81250000D03*
X141997500Y-80750000D03*
X141997500Y-80250000D03*
X141997500Y-79750000D03*
X141997500Y-79250000D03*
X141997500Y-78750000D03*
D29*
X141310000Y-78062500D03*
X140810000Y-78062500D03*
X140310000Y-78062500D03*
X139810000Y-78062500D03*
X139310000Y-78062500D03*
X138810000Y-78062500D03*
D30*
X140060000Y-80000000D03*
%TD*%
D15*
%TO.C,C11*%
X121028992Y-90179659D03*
X122091008Y-88820341D03*
%TD*%
M02*
