%TF.GenerationSoftware,KiCad,Pcbnew,8.0.8*%
%TF.CreationDate,2025-02-21T18:34:30-05:00*%
%TF.ProjectId,pcb_tile_game,7063625f-7469-46c6-955f-67616d652e6b,0.1*%
%TF.SameCoordinates,Original*%
%TF.FileFunction,Paste,Top*%
%TF.FilePolarity,Positive*%
%FSLAX46Y46*%
G04 Gerber Fmt 4.6, Leading zero omitted, Abs format (unit mm)*
G04 Created by KiCad (PCBNEW 8.0.8) date 2025-02-21 18:34:30*
%MOMM*%
%LPD*%
G01*
G04 APERTURE LIST*
G04 Aperture macros list*
%AMRoundRect*
0 Rectangle with rounded corners*
0 $1 Rounding radius*
0 $2 $3 $4 $5 $6 $7 $8 $9 X,Y pos of 4 corners*
0 Add a 4 corners polygon primitive as box body*
4,1,4,$2,$3,$4,$5,$6,$7,$8,$9,$2,$3,0*
0 Add four circle primitives for the rounded corners*
1,1,$1+$1,$2,$3*
1,1,$1+$1,$4,$5*
1,1,$1+$1,$6,$7*
1,1,$1+$1,$8,$9*
0 Add four rect primitives between the rounded corners*
20,1,$1+$1,$2,$3,$4,$5,0*
20,1,$1+$1,$4,$5,$6,$7,0*
20,1,$1+$1,$6,$7,$8,$9,0*
20,1,$1+$1,$8,$9,$2,$3,0*%
G04 Aperture macros list end*
%ADD10RoundRect,0.237500X0.300000X0.237500X-0.300000X0.237500X-0.300000X-0.237500X0.300000X-0.237500X0*%
%ADD11RoundRect,0.237500X-0.307053X0.228308X-0.151762X-0.351247X0.307053X-0.228308X0.151762X0.351247X0*%
%ADD12RoundRect,0.237500X-0.237500X0.250000X-0.237500X-0.250000X0.237500X-0.250000X0.237500X0.250000X0*%
%ADD13RoundRect,0.237500X-0.002454X0.382623X-0.371851X-0.090184X0.002454X-0.382623X0.371851X0.090184X0*%
%ADD14RoundRect,0.237500X0.237500X-0.300000X0.237500X0.300000X-0.237500X0.300000X-0.237500X-0.300000X0*%
%ADD15RoundRect,0.237500X-0.371851X0.090184X-0.002454X-0.382623X0.371851X-0.090184X0.002454X0.382623X0*%
%ADD16RoundRect,0.237500X-0.151762X0.351247X-0.307053X-0.228308X0.151762X-0.351247X0.307053X0.228308X0*%
%ADD17RoundRect,0.250000X-0.275000X-0.275000X0.275000X-0.275000X0.275000X0.275000X-0.275000X0.275000X0*%
%ADD18RoundRect,0.062500X-0.350000X-0.062500X0.350000X-0.062500X0.350000X0.062500X-0.350000X0.062500X0*%
%ADD19RoundRect,0.062500X-0.062500X-0.350000X0.062500X-0.350000X0.062500X0.350000X-0.062500X0.350000X0*%
G04 APERTURE END LIST*
D10*
%TO.C,C2*%
X140922500Y-92000000D03*
X139197500Y-92000000D03*
%TD*%
D11*
%TO.C,C13*%
X123836768Y-75166889D03*
X124283232Y-76833111D03*
%TD*%
D10*
%TO.C,C3*%
X139197500Y-84000000D03*
X140922500Y-84000000D03*
%TD*%
D12*
%TO.C,R1*%
X135060000Y-75587500D03*
X135060000Y-77412500D03*
%TD*%
D13*
%TO.C,C10*%
X159091008Y-69820341D03*
X158028992Y-71179659D03*
%TD*%
D14*
%TO.C,C15*%
X135060000Y-80137500D03*
X135060000Y-81862500D03*
%TD*%
D10*
%TO.C,C5*%
X140922500Y-68000000D03*
X139197500Y-68000000D03*
%TD*%
D11*
%TO.C,C8*%
X155836769Y-83166889D03*
X156283231Y-84833111D03*
%TD*%
D10*
%TO.C,C6*%
X140922500Y-60000000D03*
X139197500Y-60000000D03*
%TD*%
D15*
%TO.C,C14*%
X121028993Y-69820340D03*
X122091007Y-71179660D03*
%TD*%
D16*
%TO.C,C12*%
X124283231Y-83166889D03*
X123836769Y-84833111D03*
%TD*%
D15*
%TO.C,C7*%
X159091008Y-90179659D03*
X158028992Y-88820341D03*
%TD*%
D10*
%TO.C,C1*%
X140922500Y-100000000D03*
X139197500Y-100000000D03*
%TD*%
D16*
%TO.C,C9*%
X156283231Y-75166889D03*
X155836769Y-76833111D03*
%TD*%
D10*
%TO.C,C4*%
X140922500Y-76000000D03*
X139197500Y-76000000D03*
%TD*%
D17*
%TO.C,U2*%
X139410000Y-79350000D03*
X139410000Y-80650000D03*
X140710000Y-79350000D03*
X140710000Y-80650000D03*
D18*
X138122500Y-78750000D03*
X138122500Y-79250000D03*
X138122500Y-79750000D03*
X138122500Y-80250000D03*
X138122500Y-80750000D03*
X138122500Y-81250000D03*
D19*
X138810000Y-81937500D03*
X139310000Y-81937500D03*
X139810000Y-81937500D03*
X140310000Y-81937500D03*
X140810000Y-81937500D03*
X141310000Y-81937500D03*
D18*
X141997500Y-81250000D03*
X141997500Y-80750000D03*
X141997500Y-80250000D03*
X141997500Y-79750000D03*
X141997500Y-79250000D03*
X141997500Y-78750000D03*
D19*
X141310000Y-78062500D03*
X140810000Y-78062500D03*
X140310000Y-78062500D03*
X139810000Y-78062500D03*
X139310000Y-78062500D03*
X138810000Y-78062500D03*
%TD*%
D13*
%TO.C,C11*%
X121028992Y-90179659D03*
X122091008Y-88820341D03*
%TD*%
M02*
