%TF.GenerationSoftware,KiCad,Pcbnew,8.0.8*%
%TF.CreationDate,2025-02-21T18:34:30-05:00*%
%TF.ProjectId,pcb_tile_game,7063625f-7469-46c6-955f-67616d652e6b,0.1*%
%TF.SameCoordinates,Original*%
%TF.FileFunction,AssemblyDrawing,Top*%
%FSLAX46Y46*%
G04 Gerber Fmt 4.6, Leading zero omitted, Abs format (unit mm)*
G04 Created by KiCad (PCBNEW 8.0.8) date 2025-02-21 18:34:30*
%MOMM*%
%LPD*%
G01*
G04 APERTURE LIST*
%ADD10C,0.150000*%
%ADD11C,0.060000*%
%ADD12C,0.100000*%
G04 APERTURE END LIST*
D10*
X138417143Y-90024819D02*
X138512381Y-90024819D01*
X138512381Y-90024819D02*
X138607619Y-90072438D01*
X138607619Y-90072438D02*
X138655238Y-90120057D01*
X138655238Y-90120057D02*
X138702857Y-90215295D01*
X138702857Y-90215295D02*
X138750476Y-90405771D01*
X138750476Y-90405771D02*
X138750476Y-90643866D01*
X138750476Y-90643866D02*
X138702857Y-90834342D01*
X138702857Y-90834342D02*
X138655238Y-90929580D01*
X138655238Y-90929580D02*
X138607619Y-90977200D01*
X138607619Y-90977200D02*
X138512381Y-91024819D01*
X138512381Y-91024819D02*
X138417143Y-91024819D01*
X138417143Y-91024819D02*
X138321905Y-90977200D01*
X138321905Y-90977200D02*
X138274286Y-90929580D01*
X138274286Y-90929580D02*
X138226667Y-90834342D01*
X138226667Y-90834342D02*
X138179048Y-90643866D01*
X138179048Y-90643866D02*
X138179048Y-90405771D01*
X138179048Y-90405771D02*
X138226667Y-90215295D01*
X138226667Y-90215295D02*
X138274286Y-90120057D01*
X138274286Y-90120057D02*
X138321905Y-90072438D01*
X138321905Y-90072438D02*
X138417143Y-90024819D01*
X139179048Y-90929580D02*
X139226667Y-90977200D01*
X139226667Y-90977200D02*
X139179048Y-91024819D01*
X139179048Y-91024819D02*
X139131429Y-90977200D01*
X139131429Y-90977200D02*
X139179048Y-90929580D01*
X139179048Y-90929580D02*
X139179048Y-91024819D01*
X140179047Y-91024819D02*
X139607619Y-91024819D01*
X139893333Y-91024819D02*
X139893333Y-90024819D01*
X139893333Y-90024819D02*
X139798095Y-90167676D01*
X139798095Y-90167676D02*
X139702857Y-90262914D01*
X139702857Y-90262914D02*
X139607619Y-90310533D01*
X141036190Y-90358152D02*
X141036190Y-91024819D01*
X140607619Y-90358152D02*
X140607619Y-90881961D01*
X140607619Y-90881961D02*
X140655238Y-90977200D01*
X140655238Y-90977200D02*
X140750476Y-91024819D01*
X140750476Y-91024819D02*
X140893333Y-91024819D01*
X140893333Y-91024819D02*
X140988571Y-90977200D01*
X140988571Y-90977200D02*
X141036190Y-90929580D01*
X141845714Y-90501009D02*
X141512381Y-90501009D01*
X141512381Y-91024819D02*
X141512381Y-90024819D01*
X141512381Y-90024819D02*
X141988571Y-90024819D01*
D11*
X139993333Y-92143832D02*
X139974285Y-92162880D01*
X139974285Y-92162880D02*
X139917143Y-92181927D01*
X139917143Y-92181927D02*
X139879047Y-92181927D01*
X139879047Y-92181927D02*
X139821904Y-92162880D01*
X139821904Y-92162880D02*
X139783809Y-92124784D01*
X139783809Y-92124784D02*
X139764762Y-92086689D01*
X139764762Y-92086689D02*
X139745714Y-92010499D01*
X139745714Y-92010499D02*
X139745714Y-91953356D01*
X139745714Y-91953356D02*
X139764762Y-91877165D01*
X139764762Y-91877165D02*
X139783809Y-91839070D01*
X139783809Y-91839070D02*
X139821904Y-91800975D01*
X139821904Y-91800975D02*
X139879047Y-91781927D01*
X139879047Y-91781927D02*
X139917143Y-91781927D01*
X139917143Y-91781927D02*
X139974285Y-91800975D01*
X139974285Y-91800975D02*
X139993333Y-91820022D01*
X140145714Y-91820022D02*
X140164762Y-91800975D01*
X140164762Y-91800975D02*
X140202857Y-91781927D01*
X140202857Y-91781927D02*
X140298095Y-91781927D01*
X140298095Y-91781927D02*
X140336190Y-91800975D01*
X140336190Y-91800975D02*
X140355238Y-91820022D01*
X140355238Y-91820022D02*
X140374285Y-91858118D01*
X140374285Y-91858118D02*
X140374285Y-91896213D01*
X140374285Y-91896213D02*
X140355238Y-91953356D01*
X140355238Y-91953356D02*
X140126666Y-92181927D01*
X140126666Y-92181927D02*
X140374285Y-92181927D01*
D10*
X122780127Y-74642130D02*
X122804777Y-74734123D01*
X122804777Y-74734123D02*
X122783430Y-74838440D01*
X122783430Y-74838440D02*
X122749758Y-74896761D01*
X122749758Y-74896761D02*
X122670090Y-74967407D01*
X122670090Y-74967407D02*
X122498429Y-75062703D01*
X122498429Y-75062703D02*
X122268446Y-75124326D01*
X122268446Y-75124326D02*
X122072136Y-75127629D01*
X122072136Y-75127629D02*
X121967818Y-75106282D01*
X121967818Y-75106282D02*
X121909497Y-75072610D01*
X121909497Y-75072610D02*
X121838851Y-74992942D01*
X121838851Y-74992942D02*
X121814201Y-74900949D01*
X121814201Y-74900949D02*
X121835549Y-74796631D01*
X121835549Y-74796631D02*
X121869220Y-74738310D01*
X121869220Y-74738310D02*
X121948888Y-74667664D01*
X121948888Y-74667664D02*
X122120550Y-74572369D01*
X122120550Y-74572369D02*
X122350532Y-74510745D01*
X122350532Y-74510745D02*
X122546843Y-74507443D01*
X122546843Y-74507443D02*
X122651160Y-74528790D01*
X122651160Y-74528790D02*
X122709481Y-74562461D01*
X122709481Y-74562461D02*
X122780127Y-74642130D01*
X122103390Y-75612243D02*
X122069718Y-75670564D01*
X122069718Y-75670564D02*
X122011397Y-75636892D01*
X122011397Y-75636892D02*
X122045069Y-75578571D01*
X122045069Y-75578571D02*
X122103390Y-75612243D01*
X122103390Y-75612243D02*
X122011397Y-75636892D01*
X122270216Y-76602818D02*
X122122319Y-76050860D01*
X122196268Y-76326839D02*
X123162193Y-76068020D01*
X123162193Y-76068020D02*
X122999555Y-76013001D01*
X122999555Y-76013001D02*
X122882912Y-75945657D01*
X122882912Y-75945657D02*
X122812266Y-75865989D01*
X123136011Y-77258208D02*
X122492061Y-77430754D01*
X123025089Y-76844240D02*
X122519128Y-76979812D01*
X122519128Y-76979812D02*
X122439460Y-77050458D01*
X122439460Y-77050458D02*
X122418112Y-77154775D01*
X122418112Y-77154775D02*
X122455087Y-77292765D01*
X122455087Y-77292765D02*
X122525733Y-77372433D01*
X122525733Y-77372433D02*
X122584054Y-77406105D01*
X123207542Y-78077122D02*
X123121269Y-77755147D01*
X122615308Y-77890719D02*
X123581234Y-77631900D01*
X123581234Y-77631900D02*
X123704481Y-78091865D01*
D11*
X123854515Y-75788846D02*
X123831186Y-75775377D01*
X123831186Y-75775377D02*
X123797998Y-75725111D01*
X123797998Y-75725111D02*
X123788138Y-75688314D01*
X123788138Y-75688314D02*
X123791747Y-75628188D01*
X123791747Y-75628188D02*
X123818685Y-75581531D01*
X123818685Y-75581531D02*
X123850552Y-75553273D01*
X123850552Y-75553273D02*
X123919216Y-75515155D01*
X123919216Y-75515155D02*
X123974412Y-75500365D01*
X123974412Y-75500365D02*
X124052936Y-75499044D01*
X124052936Y-75499044D02*
X124094663Y-75507583D01*
X124094663Y-75507583D02*
X124141320Y-75534520D01*
X124141320Y-75534520D02*
X124174509Y-75584786D01*
X124174509Y-75584786D02*
X124184368Y-75621583D01*
X124184368Y-75621583D02*
X124180759Y-75681709D01*
X124180759Y-75681709D02*
X124167291Y-75705037D01*
X123916315Y-76166677D02*
X123857157Y-75945894D01*
X123886736Y-76056285D02*
X124273106Y-75952758D01*
X124273106Y-75952758D02*
X124208051Y-75930750D01*
X124208051Y-75930750D02*
X124161394Y-75903813D01*
X124161394Y-75903813D02*
X124133135Y-75871946D01*
X124337195Y-76191939D02*
X124401283Y-76431121D01*
X124401283Y-76431121D02*
X124219585Y-76341770D01*
X124219585Y-76341770D02*
X124234375Y-76396966D01*
X124234375Y-76396966D02*
X124225836Y-76438693D01*
X124225836Y-76438693D02*
X124212367Y-76462021D01*
X124212367Y-76462021D02*
X124180500Y-76490279D01*
X124180500Y-76490279D02*
X124088507Y-76514929D01*
X124088507Y-76514929D02*
X124046780Y-76506390D01*
X124046780Y-76506390D02*
X124023452Y-76492921D01*
X124023452Y-76492921D02*
X123995193Y-76461054D01*
X123995193Y-76461054D02*
X123965614Y-76350663D01*
X123965614Y-76350663D02*
X123974153Y-76308935D01*
X123974153Y-76308935D02*
X123987622Y-76285607D01*
D10*
X138417143Y-82024819D02*
X138512381Y-82024819D01*
X138512381Y-82024819D02*
X138607619Y-82072438D01*
X138607619Y-82072438D02*
X138655238Y-82120057D01*
X138655238Y-82120057D02*
X138702857Y-82215295D01*
X138702857Y-82215295D02*
X138750476Y-82405771D01*
X138750476Y-82405771D02*
X138750476Y-82643866D01*
X138750476Y-82643866D02*
X138702857Y-82834342D01*
X138702857Y-82834342D02*
X138655238Y-82929580D01*
X138655238Y-82929580D02*
X138607619Y-82977200D01*
X138607619Y-82977200D02*
X138512381Y-83024819D01*
X138512381Y-83024819D02*
X138417143Y-83024819D01*
X138417143Y-83024819D02*
X138321905Y-82977200D01*
X138321905Y-82977200D02*
X138274286Y-82929580D01*
X138274286Y-82929580D02*
X138226667Y-82834342D01*
X138226667Y-82834342D02*
X138179048Y-82643866D01*
X138179048Y-82643866D02*
X138179048Y-82405771D01*
X138179048Y-82405771D02*
X138226667Y-82215295D01*
X138226667Y-82215295D02*
X138274286Y-82120057D01*
X138274286Y-82120057D02*
X138321905Y-82072438D01*
X138321905Y-82072438D02*
X138417143Y-82024819D01*
X139179048Y-82929580D02*
X139226667Y-82977200D01*
X139226667Y-82977200D02*
X139179048Y-83024819D01*
X139179048Y-83024819D02*
X139131429Y-82977200D01*
X139131429Y-82977200D02*
X139179048Y-82929580D01*
X139179048Y-82929580D02*
X139179048Y-83024819D01*
X140179047Y-83024819D02*
X139607619Y-83024819D01*
X139893333Y-83024819D02*
X139893333Y-82024819D01*
X139893333Y-82024819D02*
X139798095Y-82167676D01*
X139798095Y-82167676D02*
X139702857Y-82262914D01*
X139702857Y-82262914D02*
X139607619Y-82310533D01*
X141036190Y-82358152D02*
X141036190Y-83024819D01*
X140607619Y-82358152D02*
X140607619Y-82881961D01*
X140607619Y-82881961D02*
X140655238Y-82977200D01*
X140655238Y-82977200D02*
X140750476Y-83024819D01*
X140750476Y-83024819D02*
X140893333Y-83024819D01*
X140893333Y-83024819D02*
X140988571Y-82977200D01*
X140988571Y-82977200D02*
X141036190Y-82929580D01*
X141845714Y-82501009D02*
X141512381Y-82501009D01*
X141512381Y-83024819D02*
X141512381Y-82024819D01*
X141512381Y-82024819D02*
X141988571Y-82024819D01*
D11*
X139993333Y-84143832D02*
X139974285Y-84162880D01*
X139974285Y-84162880D02*
X139917143Y-84181927D01*
X139917143Y-84181927D02*
X139879047Y-84181927D01*
X139879047Y-84181927D02*
X139821904Y-84162880D01*
X139821904Y-84162880D02*
X139783809Y-84124784D01*
X139783809Y-84124784D02*
X139764762Y-84086689D01*
X139764762Y-84086689D02*
X139745714Y-84010499D01*
X139745714Y-84010499D02*
X139745714Y-83953356D01*
X139745714Y-83953356D02*
X139764762Y-83877165D01*
X139764762Y-83877165D02*
X139783809Y-83839070D01*
X139783809Y-83839070D02*
X139821904Y-83800975D01*
X139821904Y-83800975D02*
X139879047Y-83781927D01*
X139879047Y-83781927D02*
X139917143Y-83781927D01*
X139917143Y-83781927D02*
X139974285Y-83800975D01*
X139974285Y-83800975D02*
X139993333Y-83820022D01*
X140126666Y-83781927D02*
X140374285Y-83781927D01*
X140374285Y-83781927D02*
X140240952Y-83934308D01*
X140240952Y-83934308D02*
X140298095Y-83934308D01*
X140298095Y-83934308D02*
X140336190Y-83953356D01*
X140336190Y-83953356D02*
X140355238Y-83972403D01*
X140355238Y-83972403D02*
X140374285Y-84010499D01*
X140374285Y-84010499D02*
X140374285Y-84105737D01*
X140374285Y-84105737D02*
X140355238Y-84143832D01*
X140355238Y-84143832D02*
X140336190Y-84162880D01*
X140336190Y-84162880D02*
X140298095Y-84181927D01*
X140298095Y-84181927D02*
X140183809Y-84181927D01*
X140183809Y-84181927D02*
X140145714Y-84162880D01*
X140145714Y-84162880D02*
X140126666Y-84143832D01*
D10*
X148269580Y-111195239D02*
X148317200Y-111242858D01*
X148317200Y-111242858D02*
X148364819Y-111385715D01*
X148364819Y-111385715D02*
X148364819Y-111480953D01*
X148364819Y-111480953D02*
X148317200Y-111623810D01*
X148317200Y-111623810D02*
X148221961Y-111719048D01*
X148221961Y-111719048D02*
X148126723Y-111766667D01*
X148126723Y-111766667D02*
X147936247Y-111814286D01*
X147936247Y-111814286D02*
X147793390Y-111814286D01*
X147793390Y-111814286D02*
X147602914Y-111766667D01*
X147602914Y-111766667D02*
X147507676Y-111719048D01*
X147507676Y-111719048D02*
X147412438Y-111623810D01*
X147412438Y-111623810D02*
X147364819Y-111480953D01*
X147364819Y-111480953D02*
X147364819Y-111385715D01*
X147364819Y-111385715D02*
X147412438Y-111242858D01*
X147412438Y-111242858D02*
X147460057Y-111195239D01*
X148364819Y-110623810D02*
X148317200Y-110719048D01*
X148317200Y-110719048D02*
X148269580Y-110766667D01*
X148269580Y-110766667D02*
X148174342Y-110814286D01*
X148174342Y-110814286D02*
X147888628Y-110814286D01*
X147888628Y-110814286D02*
X147793390Y-110766667D01*
X147793390Y-110766667D02*
X147745771Y-110719048D01*
X147745771Y-110719048D02*
X147698152Y-110623810D01*
X147698152Y-110623810D02*
X147698152Y-110480953D01*
X147698152Y-110480953D02*
X147745771Y-110385715D01*
X147745771Y-110385715D02*
X147793390Y-110338096D01*
X147793390Y-110338096D02*
X147888628Y-110290477D01*
X147888628Y-110290477D02*
X148174342Y-110290477D01*
X148174342Y-110290477D02*
X148269580Y-110338096D01*
X148269580Y-110338096D02*
X148317200Y-110385715D01*
X148317200Y-110385715D02*
X148364819Y-110480953D01*
X148364819Y-110480953D02*
X148364819Y-110623810D01*
X147698152Y-109861905D02*
X148364819Y-109861905D01*
X147793390Y-109861905D02*
X147745771Y-109814286D01*
X147745771Y-109814286D02*
X147698152Y-109719048D01*
X147698152Y-109719048D02*
X147698152Y-109576191D01*
X147698152Y-109576191D02*
X147745771Y-109480953D01*
X147745771Y-109480953D02*
X147841009Y-109433334D01*
X147841009Y-109433334D02*
X148364819Y-109433334D01*
X147698152Y-108957143D02*
X148364819Y-108957143D01*
X147793390Y-108957143D02*
X147745771Y-108909524D01*
X147745771Y-108909524D02*
X147698152Y-108814286D01*
X147698152Y-108814286D02*
X147698152Y-108671429D01*
X147698152Y-108671429D02*
X147745771Y-108576191D01*
X147745771Y-108576191D02*
X147841009Y-108528572D01*
X147841009Y-108528572D02*
X148364819Y-108528572D01*
X148460057Y-108290477D02*
X148460057Y-107528572D01*
X147364819Y-107100000D02*
X147364819Y-107004762D01*
X147364819Y-107004762D02*
X147412438Y-106909524D01*
X147412438Y-106909524D02*
X147460057Y-106861905D01*
X147460057Y-106861905D02*
X147555295Y-106814286D01*
X147555295Y-106814286D02*
X147745771Y-106766667D01*
X147745771Y-106766667D02*
X147983866Y-106766667D01*
X147983866Y-106766667D02*
X148174342Y-106814286D01*
X148174342Y-106814286D02*
X148269580Y-106861905D01*
X148269580Y-106861905D02*
X148317200Y-106909524D01*
X148317200Y-106909524D02*
X148364819Y-107004762D01*
X148364819Y-107004762D02*
X148364819Y-107100000D01*
X148364819Y-107100000D02*
X148317200Y-107195238D01*
X148317200Y-107195238D02*
X148269580Y-107242857D01*
X148269580Y-107242857D02*
X148174342Y-107290476D01*
X148174342Y-107290476D02*
X147983866Y-107338095D01*
X147983866Y-107338095D02*
X147745771Y-107338095D01*
X147745771Y-107338095D02*
X147555295Y-107290476D01*
X147555295Y-107290476D02*
X147460057Y-107242857D01*
X147460057Y-107242857D02*
X147412438Y-107195238D01*
X147412438Y-107195238D02*
X147364819Y-107100000D01*
X148364819Y-105814286D02*
X148364819Y-106385714D01*
X148364819Y-106100000D02*
X147364819Y-106100000D01*
X147364819Y-106100000D02*
X147507676Y-106195238D01*
X147507676Y-106195238D02*
X147602914Y-106290476D01*
X147602914Y-106290476D02*
X147650533Y-106385714D01*
X148364819Y-105480952D02*
X147698152Y-104957143D01*
X147698152Y-105480952D02*
X148364819Y-104957143D01*
X147364819Y-104385714D02*
X147364819Y-104290476D01*
X147364819Y-104290476D02*
X147412438Y-104195238D01*
X147412438Y-104195238D02*
X147460057Y-104147619D01*
X147460057Y-104147619D02*
X147555295Y-104100000D01*
X147555295Y-104100000D02*
X147745771Y-104052381D01*
X147745771Y-104052381D02*
X147983866Y-104052381D01*
X147983866Y-104052381D02*
X148174342Y-104100000D01*
X148174342Y-104100000D02*
X148269580Y-104147619D01*
X148269580Y-104147619D02*
X148317200Y-104195238D01*
X148317200Y-104195238D02*
X148364819Y-104290476D01*
X148364819Y-104290476D02*
X148364819Y-104385714D01*
X148364819Y-104385714D02*
X148317200Y-104480952D01*
X148317200Y-104480952D02*
X148269580Y-104528571D01*
X148269580Y-104528571D02*
X148174342Y-104576190D01*
X148174342Y-104576190D02*
X147983866Y-104623809D01*
X147983866Y-104623809D02*
X147745771Y-104623809D01*
X147745771Y-104623809D02*
X147555295Y-104576190D01*
X147555295Y-104576190D02*
X147460057Y-104528571D01*
X147460057Y-104528571D02*
X147412438Y-104480952D01*
X147412438Y-104480952D02*
X147364819Y-104385714D01*
X147364819Y-103147619D02*
X147364819Y-103623809D01*
X147364819Y-103623809D02*
X147841009Y-103671428D01*
X147841009Y-103671428D02*
X147793390Y-103623809D01*
X147793390Y-103623809D02*
X147745771Y-103528571D01*
X147745771Y-103528571D02*
X147745771Y-103290476D01*
X147745771Y-103290476D02*
X147793390Y-103195238D01*
X147793390Y-103195238D02*
X147841009Y-103147619D01*
X147841009Y-103147619D02*
X147936247Y-103100000D01*
X147936247Y-103100000D02*
X148174342Y-103100000D01*
X148174342Y-103100000D02*
X148269580Y-103147619D01*
X148269580Y-103147619D02*
X148317200Y-103195238D01*
X148317200Y-103195238D02*
X148364819Y-103290476D01*
X148364819Y-103290476D02*
X148364819Y-103528571D01*
X148364819Y-103528571D02*
X148317200Y-103623809D01*
X148317200Y-103623809D02*
X148269580Y-103671428D01*
X148460057Y-102909524D02*
X148460057Y-102147619D01*
X148317200Y-101957142D02*
X148364819Y-101814285D01*
X148364819Y-101814285D02*
X148364819Y-101576190D01*
X148364819Y-101576190D02*
X148317200Y-101480952D01*
X148317200Y-101480952D02*
X148269580Y-101433333D01*
X148269580Y-101433333D02*
X148174342Y-101385714D01*
X148174342Y-101385714D02*
X148079104Y-101385714D01*
X148079104Y-101385714D02*
X147983866Y-101433333D01*
X147983866Y-101433333D02*
X147936247Y-101480952D01*
X147936247Y-101480952D02*
X147888628Y-101576190D01*
X147888628Y-101576190D02*
X147841009Y-101766666D01*
X147841009Y-101766666D02*
X147793390Y-101861904D01*
X147793390Y-101861904D02*
X147745771Y-101909523D01*
X147745771Y-101909523D02*
X147650533Y-101957142D01*
X147650533Y-101957142D02*
X147555295Y-101957142D01*
X147555295Y-101957142D02*
X147460057Y-101909523D01*
X147460057Y-101909523D02*
X147412438Y-101861904D01*
X147412438Y-101861904D02*
X147364819Y-101766666D01*
X147364819Y-101766666D02*
X147364819Y-101528571D01*
X147364819Y-101528571D02*
X147412438Y-101385714D01*
X148364819Y-100814285D02*
X148317200Y-100909523D01*
X148317200Y-100909523D02*
X148269580Y-100957142D01*
X148269580Y-100957142D02*
X148174342Y-101004761D01*
X148174342Y-101004761D02*
X147888628Y-101004761D01*
X147888628Y-101004761D02*
X147793390Y-100957142D01*
X147793390Y-100957142D02*
X147745771Y-100909523D01*
X147745771Y-100909523D02*
X147698152Y-100814285D01*
X147698152Y-100814285D02*
X147698152Y-100671428D01*
X147698152Y-100671428D02*
X147745771Y-100576190D01*
X147745771Y-100576190D02*
X147793390Y-100528571D01*
X147793390Y-100528571D02*
X147888628Y-100480952D01*
X147888628Y-100480952D02*
X148174342Y-100480952D01*
X148174342Y-100480952D02*
X148269580Y-100528571D01*
X148269580Y-100528571D02*
X148317200Y-100576190D01*
X148317200Y-100576190D02*
X148364819Y-100671428D01*
X148364819Y-100671428D02*
X148364819Y-100814285D01*
X148317200Y-99623809D02*
X148364819Y-99719047D01*
X148364819Y-99719047D02*
X148364819Y-99909523D01*
X148364819Y-99909523D02*
X148317200Y-100004761D01*
X148317200Y-100004761D02*
X148269580Y-100052380D01*
X148269580Y-100052380D02*
X148174342Y-100099999D01*
X148174342Y-100099999D02*
X147888628Y-100099999D01*
X147888628Y-100099999D02*
X147793390Y-100052380D01*
X147793390Y-100052380D02*
X147745771Y-100004761D01*
X147745771Y-100004761D02*
X147698152Y-99909523D01*
X147698152Y-99909523D02*
X147698152Y-99719047D01*
X147698152Y-99719047D02*
X147745771Y-99623809D01*
X148364819Y-99195237D02*
X147364819Y-99195237D01*
X147983866Y-99099999D02*
X148364819Y-98814285D01*
X147698152Y-98814285D02*
X148079104Y-99195237D01*
X148317200Y-98004761D02*
X148364819Y-98099999D01*
X148364819Y-98099999D02*
X148364819Y-98290475D01*
X148364819Y-98290475D02*
X148317200Y-98385713D01*
X148317200Y-98385713D02*
X148221961Y-98433332D01*
X148221961Y-98433332D02*
X147841009Y-98433332D01*
X147841009Y-98433332D02*
X147745771Y-98385713D01*
X147745771Y-98385713D02*
X147698152Y-98290475D01*
X147698152Y-98290475D02*
X147698152Y-98099999D01*
X147698152Y-98099999D02*
X147745771Y-98004761D01*
X147745771Y-98004761D02*
X147841009Y-97957142D01*
X147841009Y-97957142D02*
X147936247Y-97957142D01*
X147936247Y-97957142D02*
X148031485Y-98433332D01*
X147698152Y-97671427D02*
X147698152Y-97290475D01*
X147364819Y-97528570D02*
X148221961Y-97528570D01*
X148221961Y-97528570D02*
X148317200Y-97480951D01*
X148317200Y-97480951D02*
X148364819Y-97385713D01*
X148364819Y-97385713D02*
X148364819Y-97290475D01*
X139726666Y-104054819D02*
X139726666Y-104769104D01*
X139726666Y-104769104D02*
X139679047Y-104911961D01*
X139679047Y-104911961D02*
X139583809Y-105007200D01*
X139583809Y-105007200D02*
X139440952Y-105054819D01*
X139440952Y-105054819D02*
X139345714Y-105054819D01*
X140155238Y-104150057D02*
X140202857Y-104102438D01*
X140202857Y-104102438D02*
X140298095Y-104054819D01*
X140298095Y-104054819D02*
X140536190Y-104054819D01*
X140536190Y-104054819D02*
X140631428Y-104102438D01*
X140631428Y-104102438D02*
X140679047Y-104150057D01*
X140679047Y-104150057D02*
X140726666Y-104245295D01*
X140726666Y-104245295D02*
X140726666Y-104340533D01*
X140726666Y-104340533D02*
X140679047Y-104483390D01*
X140679047Y-104483390D02*
X140107619Y-105054819D01*
X140107619Y-105054819D02*
X140726666Y-105054819D01*
X134084819Y-77785713D02*
X133084819Y-77785713D01*
X133084819Y-77785713D02*
X133084819Y-77547618D01*
X133084819Y-77547618D02*
X133132438Y-77404761D01*
X133132438Y-77404761D02*
X133227676Y-77309523D01*
X133227676Y-77309523D02*
X133322914Y-77261904D01*
X133322914Y-77261904D02*
X133513390Y-77214285D01*
X133513390Y-77214285D02*
X133656247Y-77214285D01*
X133656247Y-77214285D02*
X133846723Y-77261904D01*
X133846723Y-77261904D02*
X133941961Y-77309523D01*
X133941961Y-77309523D02*
X134037200Y-77404761D01*
X134037200Y-77404761D02*
X134084819Y-77547618D01*
X134084819Y-77547618D02*
X134084819Y-77785713D01*
X134084819Y-76785713D02*
X133084819Y-76785713D01*
X133084819Y-76785713D02*
X134084819Y-76214285D01*
X134084819Y-76214285D02*
X133084819Y-76214285D01*
X134084819Y-75738094D02*
X133084819Y-75738094D01*
X133084819Y-75738094D02*
X133084819Y-75357142D01*
X133084819Y-75357142D02*
X133132438Y-75261904D01*
X133132438Y-75261904D02*
X133180057Y-75214285D01*
X133180057Y-75214285D02*
X133275295Y-75166666D01*
X133275295Y-75166666D02*
X133418152Y-75166666D01*
X133418152Y-75166666D02*
X133513390Y-75214285D01*
X133513390Y-75214285D02*
X133561009Y-75261904D01*
X133561009Y-75261904D02*
X133608628Y-75357142D01*
X133608628Y-75357142D02*
X133608628Y-75738094D01*
D11*
X135241927Y-76566666D02*
X135051451Y-76699999D01*
X135241927Y-76795237D02*
X134841927Y-76795237D01*
X134841927Y-76795237D02*
X134841927Y-76642856D01*
X134841927Y-76642856D02*
X134860975Y-76604761D01*
X134860975Y-76604761D02*
X134880022Y-76585714D01*
X134880022Y-76585714D02*
X134918118Y-76566666D01*
X134918118Y-76566666D02*
X134975260Y-76566666D01*
X134975260Y-76566666D02*
X135013356Y-76585714D01*
X135013356Y-76585714D02*
X135032403Y-76604761D01*
X135032403Y-76604761D02*
X135051451Y-76642856D01*
X135051451Y-76642856D02*
X135051451Y-76795237D01*
X135241927Y-76185714D02*
X135241927Y-76414285D01*
X135241927Y-76299999D02*
X134841927Y-76299999D01*
X134841927Y-76299999D02*
X134899070Y-76338095D01*
X134899070Y-76338095D02*
X134937165Y-76376190D01*
X134937165Y-76376190D02*
X134956213Y-76414285D01*
D10*
X155992093Y-70578545D02*
X156050727Y-70503497D01*
X156050727Y-70503497D02*
X156146886Y-70457765D01*
X156146886Y-70457765D02*
X156213727Y-70449558D01*
X156213727Y-70449558D02*
X156318093Y-70470668D01*
X156318093Y-70470668D02*
X156497508Y-70550413D01*
X156497508Y-70550413D02*
X156685129Y-70696999D01*
X156685129Y-70696999D02*
X156805909Y-70851792D01*
X156805909Y-70851792D02*
X156851641Y-70947951D01*
X156851641Y-70947951D02*
X156859848Y-71014792D01*
X156859848Y-71014792D02*
X156838738Y-71119158D01*
X156838738Y-71119158D02*
X156780103Y-71194207D01*
X156780103Y-71194207D02*
X156683945Y-71239938D01*
X156683945Y-71239938D02*
X156617103Y-71248145D01*
X156617103Y-71248145D02*
X156512737Y-71227035D01*
X156512737Y-71227035D02*
X156333323Y-71147291D01*
X156333323Y-71147291D02*
X156145701Y-71000705D01*
X156145701Y-71000705D02*
X156024921Y-70845911D01*
X156024921Y-70845911D02*
X155979190Y-70749753D01*
X155979190Y-70749753D02*
X155970982Y-70682911D01*
X155970982Y-70682911D02*
X155992093Y-70578545D01*
X157174130Y-70535183D02*
X157240972Y-70526976D01*
X157240972Y-70526976D02*
X157249179Y-70593818D01*
X157249179Y-70593818D02*
X157182337Y-70602025D01*
X157182337Y-70602025D02*
X157174130Y-70535183D01*
X157174130Y-70535183D02*
X157249179Y-70593818D01*
X157864840Y-69805807D02*
X157513033Y-70256099D01*
X157688937Y-70030953D02*
X156900926Y-69415292D01*
X156900926Y-69415292D02*
X156954864Y-69578292D01*
X156954864Y-69578292D02*
X156971279Y-69711975D01*
X156971279Y-69711975D02*
X156950169Y-69816341D01*
X157867209Y-68719928D02*
X158392550Y-69130369D01*
X157603354Y-69057647D02*
X158016122Y-69380137D01*
X158016122Y-69380137D02*
X158120488Y-69401247D01*
X158120488Y-69401247D02*
X158216647Y-69355515D01*
X158216647Y-69355515D02*
X158304598Y-69242942D01*
X158304598Y-69242942D02*
X158325708Y-69138576D01*
X158325708Y-69138576D02*
X158317501Y-69071735D01*
X158478175Y-68169966D02*
X158272954Y-68432637D01*
X158685722Y-68755126D02*
X157897711Y-68139465D01*
X157897711Y-68139465D02*
X158190883Y-67764221D01*
D11*
X158515028Y-70791183D02*
X158518311Y-70817919D01*
X158518311Y-70817919D02*
X158498140Y-70874675D01*
X158498140Y-70874675D02*
X158474686Y-70904695D01*
X158474686Y-70904695D02*
X158424496Y-70937997D01*
X158424496Y-70937997D02*
X158371023Y-70944563D01*
X158371023Y-70944563D02*
X158329276Y-70936119D01*
X158329276Y-70936119D02*
X158257511Y-70904221D01*
X158257511Y-70904221D02*
X158212481Y-70869040D01*
X158212481Y-70869040D02*
X158164169Y-70807123D01*
X158164169Y-70807123D02*
X158145877Y-70768659D01*
X158145877Y-70768659D02*
X158139311Y-70715186D01*
X158139311Y-70715186D02*
X158159482Y-70658430D01*
X158159482Y-70658430D02*
X158182936Y-70628411D01*
X158182936Y-70628411D02*
X158233126Y-70595108D01*
X158233126Y-70595108D02*
X158259863Y-70591826D01*
X158779585Y-70514442D02*
X158638863Y-70694559D01*
X158709224Y-70604500D02*
X158394020Y-70358236D01*
X158394020Y-70358236D02*
X158415595Y-70423436D01*
X158415595Y-70423436D02*
X158422161Y-70476909D01*
X158422161Y-70476909D02*
X158413717Y-70518655D01*
X158616830Y-70073051D02*
X158640284Y-70043032D01*
X158640284Y-70043032D02*
X158678748Y-70024739D01*
X158678748Y-70024739D02*
X158705484Y-70021456D01*
X158705484Y-70021456D02*
X158747231Y-70029900D01*
X158747231Y-70029900D02*
X158818996Y-70061798D01*
X158818996Y-70061798D02*
X158894045Y-70120432D01*
X158894045Y-70120432D02*
X158942357Y-70182350D01*
X158942357Y-70182350D02*
X158960650Y-70220813D01*
X158960650Y-70220813D02*
X158963932Y-70247550D01*
X158963932Y-70247550D02*
X158955488Y-70289296D01*
X158955488Y-70289296D02*
X158932035Y-70319316D01*
X158932035Y-70319316D02*
X158893571Y-70337608D01*
X158893571Y-70337608D02*
X158866835Y-70340891D01*
X158866835Y-70340891D02*
X158825088Y-70332447D01*
X158825088Y-70332447D02*
X158753322Y-70300549D01*
X158753322Y-70300549D02*
X158678274Y-70241915D01*
X158678274Y-70241915D02*
X158629962Y-70179997D01*
X158629962Y-70179997D02*
X158611669Y-70141534D01*
X158611669Y-70141534D02*
X158608386Y-70114797D01*
X158608386Y-70114797D02*
X158616830Y-70073051D01*
D10*
X135944819Y-82642856D02*
X135944819Y-82547618D01*
X135944819Y-82547618D02*
X135992438Y-82452380D01*
X135992438Y-82452380D02*
X136040057Y-82404761D01*
X136040057Y-82404761D02*
X136135295Y-82357142D01*
X136135295Y-82357142D02*
X136325771Y-82309523D01*
X136325771Y-82309523D02*
X136563866Y-82309523D01*
X136563866Y-82309523D02*
X136754342Y-82357142D01*
X136754342Y-82357142D02*
X136849580Y-82404761D01*
X136849580Y-82404761D02*
X136897200Y-82452380D01*
X136897200Y-82452380D02*
X136944819Y-82547618D01*
X136944819Y-82547618D02*
X136944819Y-82642856D01*
X136944819Y-82642856D02*
X136897200Y-82738094D01*
X136897200Y-82738094D02*
X136849580Y-82785713D01*
X136849580Y-82785713D02*
X136754342Y-82833332D01*
X136754342Y-82833332D02*
X136563866Y-82880951D01*
X136563866Y-82880951D02*
X136325771Y-82880951D01*
X136325771Y-82880951D02*
X136135295Y-82833332D01*
X136135295Y-82833332D02*
X136040057Y-82785713D01*
X136040057Y-82785713D02*
X135992438Y-82738094D01*
X135992438Y-82738094D02*
X135944819Y-82642856D01*
X136849580Y-81880951D02*
X136897200Y-81833332D01*
X136897200Y-81833332D02*
X136944819Y-81880951D01*
X136944819Y-81880951D02*
X136897200Y-81928570D01*
X136897200Y-81928570D02*
X136849580Y-81880951D01*
X136849580Y-81880951D02*
X136944819Y-81880951D01*
X136944819Y-80880952D02*
X136944819Y-81452380D01*
X136944819Y-81166666D02*
X135944819Y-81166666D01*
X135944819Y-81166666D02*
X136087676Y-81261904D01*
X136087676Y-81261904D02*
X136182914Y-81357142D01*
X136182914Y-81357142D02*
X136230533Y-81452380D01*
X136278152Y-80023809D02*
X136944819Y-80023809D01*
X136278152Y-80452380D02*
X136801961Y-80452380D01*
X136801961Y-80452380D02*
X136897200Y-80404761D01*
X136897200Y-80404761D02*
X136944819Y-80309523D01*
X136944819Y-80309523D02*
X136944819Y-80166666D01*
X136944819Y-80166666D02*
X136897200Y-80071428D01*
X136897200Y-80071428D02*
X136849580Y-80023809D01*
X136421009Y-79214285D02*
X136421009Y-79547618D01*
X136944819Y-79547618D02*
X135944819Y-79547618D01*
X135944819Y-79547618D02*
X135944819Y-79071428D01*
D11*
X135203832Y-81257142D02*
X135222880Y-81276190D01*
X135222880Y-81276190D02*
X135241927Y-81333332D01*
X135241927Y-81333332D02*
X135241927Y-81371428D01*
X135241927Y-81371428D02*
X135222880Y-81428571D01*
X135222880Y-81428571D02*
X135184784Y-81466666D01*
X135184784Y-81466666D02*
X135146689Y-81485713D01*
X135146689Y-81485713D02*
X135070499Y-81504761D01*
X135070499Y-81504761D02*
X135013356Y-81504761D01*
X135013356Y-81504761D02*
X134937165Y-81485713D01*
X134937165Y-81485713D02*
X134899070Y-81466666D01*
X134899070Y-81466666D02*
X134860975Y-81428571D01*
X134860975Y-81428571D02*
X134841927Y-81371428D01*
X134841927Y-81371428D02*
X134841927Y-81333332D01*
X134841927Y-81333332D02*
X134860975Y-81276190D01*
X134860975Y-81276190D02*
X134880022Y-81257142D01*
X135241927Y-80876190D02*
X135241927Y-81104761D01*
X135241927Y-80990475D02*
X134841927Y-80990475D01*
X134841927Y-80990475D02*
X134899070Y-81028571D01*
X134899070Y-81028571D02*
X134937165Y-81066666D01*
X134937165Y-81066666D02*
X134956213Y-81104761D01*
X134841927Y-80514285D02*
X134841927Y-80704761D01*
X134841927Y-80704761D02*
X135032403Y-80723809D01*
X135032403Y-80723809D02*
X135013356Y-80704761D01*
X135013356Y-80704761D02*
X134994308Y-80666666D01*
X134994308Y-80666666D02*
X134994308Y-80571428D01*
X134994308Y-80571428D02*
X135013356Y-80533333D01*
X135013356Y-80533333D02*
X135032403Y-80514285D01*
X135032403Y-80514285D02*
X135070499Y-80495238D01*
X135070499Y-80495238D02*
X135165737Y-80495238D01*
X135165737Y-80495238D02*
X135203832Y-80514285D01*
X135203832Y-80514285D02*
X135222880Y-80533333D01*
X135222880Y-80533333D02*
X135241927Y-80571428D01*
X135241927Y-80571428D02*
X135241927Y-80666666D01*
X135241927Y-80666666D02*
X135222880Y-80704761D01*
X135222880Y-80704761D02*
X135203832Y-80723809D01*
D10*
X138417143Y-66024819D02*
X138512381Y-66024819D01*
X138512381Y-66024819D02*
X138607619Y-66072438D01*
X138607619Y-66072438D02*
X138655238Y-66120057D01*
X138655238Y-66120057D02*
X138702857Y-66215295D01*
X138702857Y-66215295D02*
X138750476Y-66405771D01*
X138750476Y-66405771D02*
X138750476Y-66643866D01*
X138750476Y-66643866D02*
X138702857Y-66834342D01*
X138702857Y-66834342D02*
X138655238Y-66929580D01*
X138655238Y-66929580D02*
X138607619Y-66977200D01*
X138607619Y-66977200D02*
X138512381Y-67024819D01*
X138512381Y-67024819D02*
X138417143Y-67024819D01*
X138417143Y-67024819D02*
X138321905Y-66977200D01*
X138321905Y-66977200D02*
X138274286Y-66929580D01*
X138274286Y-66929580D02*
X138226667Y-66834342D01*
X138226667Y-66834342D02*
X138179048Y-66643866D01*
X138179048Y-66643866D02*
X138179048Y-66405771D01*
X138179048Y-66405771D02*
X138226667Y-66215295D01*
X138226667Y-66215295D02*
X138274286Y-66120057D01*
X138274286Y-66120057D02*
X138321905Y-66072438D01*
X138321905Y-66072438D02*
X138417143Y-66024819D01*
X139179048Y-66929580D02*
X139226667Y-66977200D01*
X139226667Y-66977200D02*
X139179048Y-67024819D01*
X139179048Y-67024819D02*
X139131429Y-66977200D01*
X139131429Y-66977200D02*
X139179048Y-66929580D01*
X139179048Y-66929580D02*
X139179048Y-67024819D01*
X140179047Y-67024819D02*
X139607619Y-67024819D01*
X139893333Y-67024819D02*
X139893333Y-66024819D01*
X139893333Y-66024819D02*
X139798095Y-66167676D01*
X139798095Y-66167676D02*
X139702857Y-66262914D01*
X139702857Y-66262914D02*
X139607619Y-66310533D01*
X141036190Y-66358152D02*
X141036190Y-67024819D01*
X140607619Y-66358152D02*
X140607619Y-66881961D01*
X140607619Y-66881961D02*
X140655238Y-66977200D01*
X140655238Y-66977200D02*
X140750476Y-67024819D01*
X140750476Y-67024819D02*
X140893333Y-67024819D01*
X140893333Y-67024819D02*
X140988571Y-66977200D01*
X140988571Y-66977200D02*
X141036190Y-66929580D01*
X141845714Y-66501009D02*
X141512381Y-66501009D01*
X141512381Y-67024819D02*
X141512381Y-66024819D01*
X141512381Y-66024819D02*
X141988571Y-66024819D01*
D11*
X139993333Y-68143832D02*
X139974285Y-68162880D01*
X139974285Y-68162880D02*
X139917143Y-68181927D01*
X139917143Y-68181927D02*
X139879047Y-68181927D01*
X139879047Y-68181927D02*
X139821904Y-68162880D01*
X139821904Y-68162880D02*
X139783809Y-68124784D01*
X139783809Y-68124784D02*
X139764762Y-68086689D01*
X139764762Y-68086689D02*
X139745714Y-68010499D01*
X139745714Y-68010499D02*
X139745714Y-67953356D01*
X139745714Y-67953356D02*
X139764762Y-67877165D01*
X139764762Y-67877165D02*
X139783809Y-67839070D01*
X139783809Y-67839070D02*
X139821904Y-67800975D01*
X139821904Y-67800975D02*
X139879047Y-67781927D01*
X139879047Y-67781927D02*
X139917143Y-67781927D01*
X139917143Y-67781927D02*
X139974285Y-67800975D01*
X139974285Y-67800975D02*
X139993333Y-67820022D01*
X140355238Y-67781927D02*
X140164762Y-67781927D01*
X140164762Y-67781927D02*
X140145714Y-67972403D01*
X140145714Y-67972403D02*
X140164762Y-67953356D01*
X140164762Y-67953356D02*
X140202857Y-67934308D01*
X140202857Y-67934308D02*
X140298095Y-67934308D01*
X140298095Y-67934308D02*
X140336190Y-67953356D01*
X140336190Y-67953356D02*
X140355238Y-67972403D01*
X140355238Y-67972403D02*
X140374285Y-68010499D01*
X140374285Y-68010499D02*
X140374285Y-68105737D01*
X140374285Y-68105737D02*
X140355238Y-68143832D01*
X140355238Y-68143832D02*
X140336190Y-68162880D01*
X140336190Y-68162880D02*
X140298095Y-68181927D01*
X140298095Y-68181927D02*
X140202857Y-68181927D01*
X140202857Y-68181927D02*
X140164762Y-68162880D01*
X140164762Y-68162880D02*
X140145714Y-68143832D01*
D10*
X154780127Y-82642130D02*
X154804777Y-82734123D01*
X154804777Y-82734123D02*
X154783430Y-82838440D01*
X154783430Y-82838440D02*
X154749758Y-82896761D01*
X154749758Y-82896761D02*
X154670090Y-82967407D01*
X154670090Y-82967407D02*
X154498429Y-83062703D01*
X154498429Y-83062703D02*
X154268446Y-83124326D01*
X154268446Y-83124326D02*
X154072136Y-83127629D01*
X154072136Y-83127629D02*
X153967818Y-83106282D01*
X153967818Y-83106282D02*
X153909497Y-83072610D01*
X153909497Y-83072610D02*
X153838851Y-82992942D01*
X153838851Y-82992942D02*
X153814201Y-82900949D01*
X153814201Y-82900949D02*
X153835549Y-82796631D01*
X153835549Y-82796631D02*
X153869220Y-82738310D01*
X153869220Y-82738310D02*
X153948888Y-82667664D01*
X153948888Y-82667664D02*
X154120550Y-82572369D01*
X154120550Y-82572369D02*
X154350532Y-82510745D01*
X154350532Y-82510745D02*
X154546843Y-82507443D01*
X154546843Y-82507443D02*
X154651160Y-82528790D01*
X154651160Y-82528790D02*
X154709481Y-82562461D01*
X154709481Y-82562461D02*
X154780127Y-82642130D01*
X154103390Y-83612243D02*
X154069718Y-83670564D01*
X154069718Y-83670564D02*
X154011397Y-83636892D01*
X154011397Y-83636892D02*
X154045069Y-83578571D01*
X154045069Y-83578571D02*
X154103390Y-83612243D01*
X154103390Y-83612243D02*
X154011397Y-83636892D01*
X154270216Y-84602818D02*
X154122319Y-84050860D01*
X154196268Y-84326839D02*
X155162193Y-84068020D01*
X155162193Y-84068020D02*
X154999555Y-84013001D01*
X154999555Y-84013001D02*
X154882912Y-83945657D01*
X154882912Y-83945657D02*
X154812266Y-83865989D01*
X155136011Y-85258208D02*
X154492061Y-85430754D01*
X155025089Y-84844240D02*
X154519128Y-84979812D01*
X154519128Y-84979812D02*
X154439460Y-85050458D01*
X154439460Y-85050458D02*
X154418112Y-85154775D01*
X154418112Y-85154775D02*
X154455087Y-85292765D01*
X154455087Y-85292765D02*
X154525733Y-85372433D01*
X154525733Y-85372433D02*
X154584054Y-85406105D01*
X155207542Y-86077122D02*
X155121269Y-85755147D01*
X154615308Y-85890719D02*
X155581234Y-85631900D01*
X155581234Y-85631900D02*
X155704481Y-86091865D01*
D11*
X155903814Y-83972831D02*
X155880485Y-83959362D01*
X155880485Y-83959362D02*
X155847297Y-83909097D01*
X155847297Y-83909097D02*
X155837437Y-83872299D01*
X155837437Y-83872299D02*
X155841046Y-83812174D01*
X155841046Y-83812174D02*
X155867983Y-83765517D01*
X155867983Y-83765517D02*
X155899851Y-83737258D01*
X155899851Y-83737258D02*
X155968515Y-83699140D01*
X155968515Y-83699140D02*
X156023711Y-83684351D01*
X156023711Y-83684351D02*
X156102235Y-83683030D01*
X156102235Y-83683030D02*
X156143962Y-83691569D01*
X156143962Y-83691569D02*
X156190619Y-83718506D01*
X156190619Y-83718506D02*
X156223807Y-83768772D01*
X156223807Y-83768772D02*
X156233667Y-83805569D01*
X156233667Y-83805569D02*
X156230058Y-83865695D01*
X156230058Y-83865695D02*
X156216590Y-83889023D01*
X156146958Y-84144315D02*
X156155497Y-84102588D01*
X156155497Y-84102588D02*
X156168966Y-84079260D01*
X156168966Y-84079260D02*
X156200833Y-84051001D01*
X156200833Y-84051001D02*
X156219231Y-84046072D01*
X156219231Y-84046072D02*
X156260958Y-84054610D01*
X156260958Y-84054610D02*
X156284287Y-84068079D01*
X156284287Y-84068079D02*
X156312545Y-84099946D01*
X156312545Y-84099946D02*
X156332265Y-84173541D01*
X156332265Y-84173541D02*
X156323726Y-84215268D01*
X156323726Y-84215268D02*
X156310257Y-84238596D01*
X156310257Y-84238596D02*
X156278390Y-84266855D01*
X156278390Y-84266855D02*
X156259991Y-84271785D01*
X156259991Y-84271785D02*
X156218264Y-84263246D01*
X156218264Y-84263246D02*
X156194936Y-84249777D01*
X156194936Y-84249777D02*
X156166678Y-84217910D01*
X156166678Y-84217910D02*
X156146958Y-84144315D01*
X156146958Y-84144315D02*
X156118700Y-84112448D01*
X156118700Y-84112448D02*
X156095371Y-84098979D01*
X156095371Y-84098979D02*
X156053644Y-84090441D01*
X156053644Y-84090441D02*
X155980050Y-84110160D01*
X155980050Y-84110160D02*
X155948183Y-84138418D01*
X155948183Y-84138418D02*
X155934714Y-84161747D01*
X155934714Y-84161747D02*
X155926175Y-84203474D01*
X155926175Y-84203474D02*
X155945895Y-84277068D01*
X155945895Y-84277068D02*
X155974153Y-84308936D01*
X155974153Y-84308936D02*
X155997481Y-84322404D01*
X155997481Y-84322404D02*
X156039208Y-84330943D01*
X156039208Y-84330943D02*
X156112803Y-84311224D01*
X156112803Y-84311224D02*
X156144670Y-84282965D01*
X156144670Y-84282965D02*
X156158139Y-84259637D01*
X156158139Y-84259637D02*
X156166678Y-84217910D01*
D10*
X138417143Y-58024819D02*
X138512381Y-58024819D01*
X138512381Y-58024819D02*
X138607619Y-58072438D01*
X138607619Y-58072438D02*
X138655238Y-58120057D01*
X138655238Y-58120057D02*
X138702857Y-58215295D01*
X138702857Y-58215295D02*
X138750476Y-58405771D01*
X138750476Y-58405771D02*
X138750476Y-58643866D01*
X138750476Y-58643866D02*
X138702857Y-58834342D01*
X138702857Y-58834342D02*
X138655238Y-58929580D01*
X138655238Y-58929580D02*
X138607619Y-58977200D01*
X138607619Y-58977200D02*
X138512381Y-59024819D01*
X138512381Y-59024819D02*
X138417143Y-59024819D01*
X138417143Y-59024819D02*
X138321905Y-58977200D01*
X138321905Y-58977200D02*
X138274286Y-58929580D01*
X138274286Y-58929580D02*
X138226667Y-58834342D01*
X138226667Y-58834342D02*
X138179048Y-58643866D01*
X138179048Y-58643866D02*
X138179048Y-58405771D01*
X138179048Y-58405771D02*
X138226667Y-58215295D01*
X138226667Y-58215295D02*
X138274286Y-58120057D01*
X138274286Y-58120057D02*
X138321905Y-58072438D01*
X138321905Y-58072438D02*
X138417143Y-58024819D01*
X139179048Y-58929580D02*
X139226667Y-58977200D01*
X139226667Y-58977200D02*
X139179048Y-59024819D01*
X139179048Y-59024819D02*
X139131429Y-58977200D01*
X139131429Y-58977200D02*
X139179048Y-58929580D01*
X139179048Y-58929580D02*
X139179048Y-59024819D01*
X140179047Y-59024819D02*
X139607619Y-59024819D01*
X139893333Y-59024819D02*
X139893333Y-58024819D01*
X139893333Y-58024819D02*
X139798095Y-58167676D01*
X139798095Y-58167676D02*
X139702857Y-58262914D01*
X139702857Y-58262914D02*
X139607619Y-58310533D01*
X141036190Y-58358152D02*
X141036190Y-59024819D01*
X140607619Y-58358152D02*
X140607619Y-58881961D01*
X140607619Y-58881961D02*
X140655238Y-58977200D01*
X140655238Y-58977200D02*
X140750476Y-59024819D01*
X140750476Y-59024819D02*
X140893333Y-59024819D01*
X140893333Y-59024819D02*
X140988571Y-58977200D01*
X140988571Y-58977200D02*
X141036190Y-58929580D01*
X141845714Y-58501009D02*
X141512381Y-58501009D01*
X141512381Y-59024819D02*
X141512381Y-58024819D01*
X141512381Y-58024819D02*
X141988571Y-58024819D01*
D11*
X139993333Y-60143832D02*
X139974285Y-60162880D01*
X139974285Y-60162880D02*
X139917143Y-60181927D01*
X139917143Y-60181927D02*
X139879047Y-60181927D01*
X139879047Y-60181927D02*
X139821904Y-60162880D01*
X139821904Y-60162880D02*
X139783809Y-60124784D01*
X139783809Y-60124784D02*
X139764762Y-60086689D01*
X139764762Y-60086689D02*
X139745714Y-60010499D01*
X139745714Y-60010499D02*
X139745714Y-59953356D01*
X139745714Y-59953356D02*
X139764762Y-59877165D01*
X139764762Y-59877165D02*
X139783809Y-59839070D01*
X139783809Y-59839070D02*
X139821904Y-59800975D01*
X139821904Y-59800975D02*
X139879047Y-59781927D01*
X139879047Y-59781927D02*
X139917143Y-59781927D01*
X139917143Y-59781927D02*
X139974285Y-59800975D01*
X139974285Y-59800975D02*
X139993333Y-59820022D01*
X140336190Y-59781927D02*
X140260000Y-59781927D01*
X140260000Y-59781927D02*
X140221904Y-59800975D01*
X140221904Y-59800975D02*
X140202857Y-59820022D01*
X140202857Y-59820022D02*
X140164762Y-59877165D01*
X140164762Y-59877165D02*
X140145714Y-59953356D01*
X140145714Y-59953356D02*
X140145714Y-60105737D01*
X140145714Y-60105737D02*
X140164762Y-60143832D01*
X140164762Y-60143832D02*
X140183809Y-60162880D01*
X140183809Y-60162880D02*
X140221904Y-60181927D01*
X140221904Y-60181927D02*
X140298095Y-60181927D01*
X140298095Y-60181927D02*
X140336190Y-60162880D01*
X140336190Y-60162880D02*
X140355238Y-60143832D01*
X140355238Y-60143832D02*
X140374285Y-60105737D01*
X140374285Y-60105737D02*
X140374285Y-60010499D01*
X140374285Y-60010499D02*
X140355238Y-59972403D01*
X140355238Y-59972403D02*
X140336190Y-59953356D01*
X140336190Y-59953356D02*
X140298095Y-59934308D01*
X140298095Y-59934308D02*
X140221904Y-59934308D01*
X140221904Y-59934308D02*
X140183809Y-59953356D01*
X140183809Y-59953356D02*
X140164762Y-59972403D01*
X140164762Y-59972403D02*
X140145714Y-60010499D01*
D10*
X160387026Y-83529396D02*
X160321977Y-83546825D01*
X160321977Y-83546825D02*
X160174450Y-83516636D01*
X160174450Y-83516636D02*
X160091971Y-83469017D01*
X160091971Y-83469017D02*
X159992063Y-83356349D01*
X159992063Y-83356349D02*
X159957203Y-83226252D01*
X159957203Y-83226252D02*
X159963583Y-83119963D01*
X159963583Y-83119963D02*
X160017582Y-82931197D01*
X160017582Y-82931197D02*
X160089010Y-82807479D01*
X160089010Y-82807479D02*
X160225488Y-82666331D01*
X160225488Y-82666331D02*
X160314346Y-82607662D01*
X160314346Y-82607662D02*
X160444444Y-82572802D01*
X160444444Y-82572802D02*
X160591971Y-82602992D01*
X160591971Y-82602992D02*
X160674450Y-82650611D01*
X160674450Y-82650611D02*
X160774358Y-82763279D01*
X160774358Y-82763279D02*
X160791788Y-82828327D01*
X160834279Y-83897589D02*
X160775610Y-83808730D01*
X160775610Y-83808730D02*
X160758180Y-83743681D01*
X160758180Y-83743681D02*
X160764560Y-83637393D01*
X160764560Y-83637393D02*
X160907417Y-83389957D01*
X160907417Y-83389957D02*
X160996275Y-83331288D01*
X160996275Y-83331288D02*
X161061324Y-83313859D01*
X161061324Y-83313859D02*
X161167612Y-83320238D01*
X161167612Y-83320238D02*
X161291330Y-83391667D01*
X161291330Y-83391667D02*
X161349999Y-83480525D01*
X161349999Y-83480525D02*
X161367429Y-83545574D01*
X161367429Y-83545574D02*
X161361049Y-83651862D01*
X161361049Y-83651862D02*
X161218192Y-83899298D01*
X161218192Y-83899298D02*
X161129334Y-83957967D01*
X161129334Y-83957967D02*
X161064285Y-83975397D01*
X161064285Y-83975397D02*
X160957997Y-83969017D01*
X160957997Y-83969017D02*
X160834279Y-83897589D01*
X161827441Y-83701191D02*
X161494108Y-84278541D01*
X161779822Y-83783669D02*
X161844871Y-83766240D01*
X161844871Y-83766240D02*
X161951159Y-83772619D01*
X161951159Y-83772619D02*
X162074877Y-83844048D01*
X162074877Y-83844048D02*
X162133546Y-83932906D01*
X162133546Y-83932906D02*
X162127166Y-84039194D01*
X162127166Y-84039194D02*
X161865262Y-84492827D01*
X162610988Y-84153572D02*
X162277655Y-84730922D01*
X162563369Y-84236050D02*
X162628418Y-84218621D01*
X162628418Y-84218621D02*
X162734706Y-84225000D01*
X162734706Y-84225000D02*
X162858424Y-84296429D01*
X162858424Y-84296429D02*
X162917093Y-84385287D01*
X162917093Y-84385287D02*
X162910713Y-84491575D01*
X162910713Y-84491575D02*
X162648808Y-84945208D01*
X162807386Y-85146734D02*
X163467215Y-85527686D01*
X164385988Y-84793468D02*
X164468466Y-84841087D01*
X164468466Y-84841087D02*
X164527136Y-84929946D01*
X164527136Y-84929946D02*
X164544565Y-84994994D01*
X164544565Y-84994994D02*
X164538186Y-85101283D01*
X164538186Y-85101283D02*
X164484187Y-85290049D01*
X164484187Y-85290049D02*
X164365139Y-85496246D01*
X164365139Y-85496246D02*
X164228662Y-85637393D01*
X164228662Y-85637393D02*
X164139803Y-85696063D01*
X164139803Y-85696063D02*
X164074755Y-85713492D01*
X164074755Y-85713492D02*
X163968466Y-85707113D01*
X163968466Y-85707113D02*
X163885988Y-85659494D01*
X163885988Y-85659494D02*
X163827319Y-85570635D01*
X163827319Y-85570635D02*
X163809889Y-85505586D01*
X163809889Y-85505586D02*
X163816269Y-85399298D01*
X163816269Y-85399298D02*
X163870267Y-85210532D01*
X163870267Y-85210532D02*
X163989315Y-85004335D01*
X163989315Y-85004335D02*
X164125793Y-84863187D01*
X164125793Y-84863187D02*
X164214651Y-84804518D01*
X164214651Y-84804518D02*
X164279700Y-84787088D01*
X164279700Y-84787088D02*
X164385988Y-84793468D01*
X164999449Y-86302351D02*
X164504577Y-86016636D01*
X164752013Y-86159494D02*
X165252013Y-85293468D01*
X165252013Y-85293468D02*
X165098106Y-85369567D01*
X165098106Y-85369567D02*
X164968008Y-85404427D01*
X164968008Y-85404427D02*
X164861720Y-85398047D01*
X165288124Y-86469017D02*
X166075090Y-86153572D01*
X165621458Y-85891667D02*
X165741757Y-86730922D01*
X166736628Y-86150611D02*
X166819107Y-86198230D01*
X166819107Y-86198230D02*
X166877776Y-86287089D01*
X166877776Y-86287089D02*
X166895206Y-86352137D01*
X166895206Y-86352137D02*
X166888826Y-86458426D01*
X166888826Y-86458426D02*
X166834827Y-86647192D01*
X166834827Y-86647192D02*
X166715780Y-86853389D01*
X166715780Y-86853389D02*
X166579302Y-86994536D01*
X166579302Y-86994536D02*
X166490444Y-87053206D01*
X166490444Y-87053206D02*
X166425395Y-87070635D01*
X166425395Y-87070635D02*
X166319107Y-87064256D01*
X166319107Y-87064256D02*
X166236628Y-87016637D01*
X166236628Y-87016637D02*
X166177959Y-86927778D01*
X166177959Y-86927778D02*
X166160530Y-86862729D01*
X166160530Y-86862729D02*
X166166909Y-86756441D01*
X166166909Y-86756441D02*
X166220908Y-86567675D01*
X166220908Y-86567675D02*
X166339956Y-86361478D01*
X166339956Y-86361478D02*
X166476433Y-86220330D01*
X166476433Y-86220330D02*
X166565291Y-86161661D01*
X166565291Y-86161661D02*
X166630340Y-86144231D01*
X166630340Y-86144231D02*
X166736628Y-86150611D01*
X167808850Y-86769659D02*
X167396457Y-86531564D01*
X167396457Y-86531564D02*
X167117123Y-86920147D01*
X167117123Y-86920147D02*
X167182172Y-86902717D01*
X167182172Y-86902717D02*
X167288460Y-86909097D01*
X167288460Y-86909097D02*
X167494656Y-87028145D01*
X167494656Y-87028145D02*
X167553325Y-87117003D01*
X167553325Y-87117003D02*
X167570755Y-87182052D01*
X167570755Y-87182052D02*
X167564375Y-87288340D01*
X167564375Y-87288340D02*
X167445328Y-87494537D01*
X167445328Y-87494537D02*
X167356469Y-87553206D01*
X167356469Y-87553206D02*
X167291421Y-87570635D01*
X167291421Y-87570635D02*
X167185133Y-87564256D01*
X167185133Y-87564256D02*
X166978936Y-87445208D01*
X166978936Y-87445208D02*
X166920267Y-87356350D01*
X166920267Y-87356350D02*
X166902837Y-87291301D01*
X167467428Y-87837210D02*
X168127257Y-88218163D01*
X168381073Y-88254732D02*
X168881073Y-87388707D01*
X168881073Y-87388707D02*
X169210987Y-87579183D01*
X169210987Y-87579183D02*
X169269656Y-87668041D01*
X169269656Y-87668041D02*
X169287086Y-87733090D01*
X169287086Y-87733090D02*
X169280706Y-87839378D01*
X169280706Y-87839378D02*
X169209278Y-87963096D01*
X169209278Y-87963096D02*
X169120419Y-88021765D01*
X169120419Y-88021765D02*
X169055370Y-88039195D01*
X169055370Y-88039195D02*
X168949082Y-88032815D01*
X168949082Y-88032815D02*
X168619168Y-87842339D01*
X169247098Y-88754732D02*
X169580431Y-88177382D01*
X169747098Y-87888707D02*
X169682049Y-87906136D01*
X169682049Y-87906136D02*
X169699479Y-87971185D01*
X169699479Y-87971185D02*
X169764528Y-87953755D01*
X169764528Y-87953755D02*
X169747098Y-87888707D01*
X169747098Y-87888707D02*
X169699479Y-87971185D01*
X169992824Y-88415477D02*
X169659491Y-88992827D01*
X169945205Y-88497955D02*
X170010254Y-88480526D01*
X170010254Y-88480526D02*
X170116542Y-88486905D01*
X170116542Y-88486905D02*
X170240260Y-88558334D01*
X170240260Y-88558334D02*
X170298929Y-88647192D01*
X170298929Y-88647192D02*
X170292549Y-88753480D01*
X170292549Y-88753480D02*
X170030644Y-89207113D01*
X160821192Y-92306084D02*
X161439782Y-92663227D01*
X161439782Y-92663227D02*
X161539690Y-92775895D01*
X161539690Y-92775895D02*
X161574550Y-92905993D01*
X161574550Y-92905993D02*
X161544360Y-93053520D01*
X161544360Y-93053520D02*
X161496741Y-93135999D01*
X161011669Y-91976170D02*
X161321192Y-91440059D01*
X161321192Y-91440059D02*
X161484440Y-91919210D01*
X161484440Y-91919210D02*
X161555869Y-91795492D01*
X161555869Y-91795492D02*
X161644727Y-91736823D01*
X161644727Y-91736823D02*
X161709776Y-91719393D01*
X161709776Y-91719393D02*
X161816064Y-91725773D01*
X161816064Y-91725773D02*
X162022261Y-91844821D01*
X162022261Y-91844821D02*
X162080930Y-91933679D01*
X162080930Y-91933679D02*
X162098359Y-91998728D01*
X162098359Y-91998728D02*
X162091980Y-92105016D01*
X162091980Y-92105016D02*
X161949122Y-92352452D01*
X161949122Y-92352452D02*
X161860264Y-92411121D01*
X161860264Y-92411121D02*
X161795215Y-92428551D01*
X119851308Y-69750160D02*
X119909943Y-69825209D01*
X119909943Y-69825209D02*
X119931053Y-69929574D01*
X119931053Y-69929574D02*
X119922846Y-69996416D01*
X119922846Y-69996416D02*
X119877114Y-70092575D01*
X119877114Y-70092575D02*
X119756334Y-70247368D01*
X119756334Y-70247368D02*
X119568713Y-70393954D01*
X119568713Y-70393954D02*
X119389298Y-70473698D01*
X119389298Y-70473698D02*
X119284932Y-70494809D01*
X119284932Y-70494809D02*
X119218091Y-70486601D01*
X119218091Y-70486601D02*
X119121932Y-70440870D01*
X119121932Y-70440870D02*
X119063298Y-70365821D01*
X119063298Y-70365821D02*
X119042188Y-70261456D01*
X119042188Y-70261456D02*
X119050395Y-70194614D01*
X119050395Y-70194614D02*
X119096126Y-70098455D01*
X119096126Y-70098455D02*
X119216906Y-69943662D01*
X119216906Y-69943662D02*
X119404528Y-69797076D01*
X119404528Y-69797076D02*
X119583942Y-69717332D01*
X119583942Y-69717332D02*
X119688308Y-69696221D01*
X119688308Y-69696221D02*
X119755150Y-69704429D01*
X119755150Y-69704429D02*
X119851308Y-69750160D01*
X119607422Y-70907576D02*
X119599215Y-70974418D01*
X119599215Y-70974418D02*
X119532373Y-70966211D01*
X119532373Y-70966211D02*
X119540580Y-70899369D01*
X119540580Y-70899369D02*
X119607422Y-70907576D01*
X119607422Y-70907576D02*
X119532373Y-70966211D01*
X120148034Y-71754221D02*
X119796228Y-71303929D01*
X119972131Y-71529075D02*
X120760142Y-70913414D01*
X120760142Y-70913414D02*
X120588934Y-70926317D01*
X120588934Y-70926317D02*
X120455251Y-70909902D01*
X120455251Y-70909902D02*
X120359093Y-70864171D01*
X121201085Y-72019218D02*
X120675744Y-72429659D01*
X120937230Y-71681499D02*
X120524462Y-72003988D01*
X120524462Y-72003988D02*
X120478731Y-72100147D01*
X120478731Y-72100147D02*
X120499841Y-72204513D01*
X120499841Y-72204513D02*
X120587793Y-72317086D01*
X120587793Y-72317086D02*
X120683951Y-72362817D01*
X120683951Y-72362817D02*
X120750793Y-72371024D01*
X121586904Y-72745083D02*
X121381684Y-72482413D01*
X120968916Y-72804902D02*
X121756927Y-72189241D01*
X121756927Y-72189241D02*
X122050099Y-72564484D01*
D11*
X121288345Y-70385921D02*
X121261609Y-70382638D01*
X121261609Y-70382638D02*
X121211418Y-70349335D01*
X121211418Y-70349335D02*
X121187965Y-70319316D01*
X121187965Y-70319316D02*
X121167794Y-70262560D01*
X121167794Y-70262560D02*
X121174359Y-70209087D01*
X121174359Y-70209087D02*
X121192652Y-70170623D01*
X121192652Y-70170623D02*
X121240964Y-70108706D01*
X121240964Y-70108706D02*
X121285993Y-70073525D01*
X121285993Y-70073525D02*
X121357759Y-70041627D01*
X121357759Y-70041627D02*
X121399505Y-70033183D01*
X121399505Y-70033183D02*
X121452978Y-70039749D01*
X121452978Y-70039749D02*
X121503169Y-70073051D01*
X121503169Y-70073051D02*
X121526623Y-70103071D01*
X121526623Y-70103071D02*
X121546794Y-70159827D01*
X121546794Y-70159827D02*
X121543511Y-70186563D01*
X121492864Y-70709569D02*
X121352141Y-70529452D01*
X121422502Y-70619510D02*
X121737707Y-70373246D01*
X121737707Y-70373246D02*
X121669224Y-70378407D01*
X121669224Y-70378407D02*
X121615750Y-70371841D01*
X121615750Y-70371841D02*
X121577287Y-70353549D01*
X121914083Y-70815567D02*
X121703947Y-70979744D01*
X121975527Y-70646704D02*
X121691747Y-70747558D01*
X121691747Y-70747558D02*
X121844196Y-70942685D01*
D10*
X121726919Y-85075663D02*
X121751568Y-84983670D01*
X121751568Y-84983670D02*
X121822214Y-84904002D01*
X121822214Y-84904002D02*
X121880535Y-84870330D01*
X121880535Y-84870330D02*
X121984853Y-84848983D01*
X121984853Y-84848983D02*
X122181163Y-84852285D01*
X122181163Y-84852285D02*
X122411146Y-84913909D01*
X122411146Y-84913909D02*
X122582807Y-85009204D01*
X122582807Y-85009204D02*
X122662475Y-85079850D01*
X122662475Y-85079850D02*
X122696147Y-85138171D01*
X122696147Y-85138171D02*
X122717494Y-85242489D01*
X122717494Y-85242489D02*
X122692844Y-85334482D01*
X122692844Y-85334482D02*
X122622198Y-85414150D01*
X122622198Y-85414150D02*
X122563877Y-85447822D01*
X122563877Y-85447822D02*
X122459560Y-85469169D01*
X122459560Y-85469169D02*
X122263249Y-85465867D01*
X122263249Y-85465867D02*
X122033267Y-85404243D01*
X122033267Y-85404243D02*
X121861606Y-85308948D01*
X121861606Y-85308948D02*
X121781937Y-85238302D01*
X121781937Y-85238302D02*
X121748266Y-85179981D01*
X121748266Y-85179981D02*
X121726919Y-85075663D01*
X122798047Y-84573889D02*
X122856368Y-84540217D01*
X122856368Y-84540217D02*
X122890040Y-84598538D01*
X122890040Y-84598538D02*
X122831719Y-84632210D01*
X122831719Y-84632210D02*
X122798047Y-84573889D01*
X122798047Y-84573889D02*
X122890040Y-84598538D01*
X123148859Y-83632613D02*
X123000962Y-84184571D01*
X123074910Y-83908592D02*
X122108985Y-83649773D01*
X122108985Y-83649773D02*
X122222325Y-83778740D01*
X122222325Y-83778740D02*
X122289668Y-83895382D01*
X122289668Y-83895382D02*
X122311015Y-83999700D01*
X122726753Y-82632131D02*
X123370704Y-82804677D01*
X122615831Y-83046099D02*
X123121792Y-83181671D01*
X123121792Y-83181671D02*
X123226110Y-83160324D01*
X123226110Y-83160324D02*
X123296755Y-83080655D01*
X123296755Y-83080655D02*
X123333730Y-82942666D01*
X123333730Y-82942666D02*
X123312383Y-82838348D01*
X123312383Y-82838348D02*
X123278711Y-82780027D01*
X123074263Y-81887165D02*
X122987990Y-82209140D01*
X123493951Y-82344712D02*
X122528025Y-82085893D01*
X122528025Y-82085893D02*
X122651272Y-81625928D01*
D11*
X124132378Y-84285607D02*
X124145846Y-84308935D01*
X124145846Y-84308935D02*
X124149455Y-84369061D01*
X124149455Y-84369061D02*
X124139595Y-84405858D01*
X124139595Y-84405858D02*
X124106407Y-84456124D01*
X124106407Y-84456124D02*
X124059750Y-84483061D01*
X124059750Y-84483061D02*
X124018023Y-84491600D01*
X124018023Y-84491600D02*
X123939499Y-84490279D01*
X123939499Y-84490279D02*
X123884303Y-84475489D01*
X123884303Y-84475489D02*
X123815639Y-84437371D01*
X123815639Y-84437371D02*
X123783771Y-84409113D01*
X123783771Y-84409113D02*
X123756834Y-84362456D01*
X123756834Y-84362456D02*
X123753225Y-84302330D01*
X123753225Y-84302330D02*
X123763085Y-84265533D01*
X123763085Y-84265533D02*
X123796273Y-84215267D01*
X123796273Y-84215267D02*
X123819602Y-84201799D01*
X124267772Y-83927495D02*
X124208614Y-84148278D01*
X124238193Y-84037886D02*
X123851823Y-83934359D01*
X123851823Y-83934359D02*
X123897159Y-83985945D01*
X123897159Y-83985945D02*
X123924096Y-84032602D01*
X123924096Y-84032602D02*
X123932635Y-84074329D01*
X123957638Y-83686638D02*
X123944170Y-83663310D01*
X123944170Y-83663310D02*
X123935631Y-83621583D01*
X123935631Y-83621583D02*
X123960280Y-83529590D01*
X123960280Y-83529590D02*
X123988539Y-83497723D01*
X123988539Y-83497723D02*
X124011867Y-83484254D01*
X124011867Y-83484254D02*
X124053594Y-83475715D01*
X124053594Y-83475715D02*
X124090391Y-83485575D01*
X124090391Y-83485575D02*
X124140657Y-83518763D01*
X124140657Y-83518763D02*
X124302282Y-83798705D01*
X124302282Y-83798705D02*
X124366370Y-83559523D01*
D10*
X108943564Y-71512085D02*
X108878516Y-71529515D01*
X108878516Y-71529515D02*
X108730988Y-71499326D01*
X108730988Y-71499326D02*
X108648509Y-71451707D01*
X108648509Y-71451707D02*
X108548601Y-71339039D01*
X108548601Y-71339039D02*
X108513742Y-71208941D01*
X108513742Y-71208941D02*
X108520121Y-71102653D01*
X108520121Y-71102653D02*
X108574120Y-70913886D01*
X108574120Y-70913886D02*
X108645549Y-70790168D01*
X108645549Y-70790168D02*
X108782026Y-70649021D01*
X108782026Y-70649021D02*
X108870884Y-70590352D01*
X108870884Y-70590352D02*
X109000982Y-70555492D01*
X109000982Y-70555492D02*
X109148509Y-70585681D01*
X109148509Y-70585681D02*
X109230988Y-70633300D01*
X109230988Y-70633300D02*
X109330896Y-70745968D01*
X109330896Y-70745968D02*
X109348326Y-70811017D01*
X109390817Y-71880278D02*
X109332148Y-71791420D01*
X109332148Y-71791420D02*
X109314718Y-71726371D01*
X109314718Y-71726371D02*
X109321098Y-71620083D01*
X109321098Y-71620083D02*
X109463955Y-71372647D01*
X109463955Y-71372647D02*
X109552813Y-71313978D01*
X109552813Y-71313978D02*
X109617862Y-71296548D01*
X109617862Y-71296548D02*
X109724150Y-71302928D01*
X109724150Y-71302928D02*
X109847868Y-71374356D01*
X109847868Y-71374356D02*
X109906537Y-71463215D01*
X109906537Y-71463215D02*
X109923967Y-71528264D01*
X109923967Y-71528264D02*
X109917587Y-71634552D01*
X109917587Y-71634552D02*
X109774730Y-71881987D01*
X109774730Y-71881987D02*
X109685872Y-71940657D01*
X109685872Y-71940657D02*
X109620823Y-71958086D01*
X109620823Y-71958086D02*
X109514535Y-71951707D01*
X109514535Y-71951707D02*
X109390817Y-71880278D01*
X110383979Y-71683880D02*
X110050646Y-72261230D01*
X110336360Y-71766359D02*
X110401409Y-71748929D01*
X110401409Y-71748929D02*
X110507697Y-71755309D01*
X110507697Y-71755309D02*
X110631415Y-71826737D01*
X110631415Y-71826737D02*
X110690084Y-71915596D01*
X110690084Y-71915596D02*
X110683704Y-72021884D01*
X110683704Y-72021884D02*
X110421800Y-72475516D01*
X111167526Y-72136261D02*
X110834193Y-72713611D01*
X111119907Y-72218740D02*
X111184956Y-72201310D01*
X111184956Y-72201310D02*
X111291244Y-72207690D01*
X111291244Y-72207690D02*
X111414962Y-72279118D01*
X111414962Y-72279118D02*
X111473631Y-72367977D01*
X111473631Y-72367977D02*
X111467251Y-72474265D01*
X111467251Y-72474265D02*
X111205347Y-72927897D01*
X111363924Y-73129423D02*
X112023753Y-73510376D01*
X112942526Y-72776158D02*
X113025005Y-72823777D01*
X113025005Y-72823777D02*
X113083674Y-72912635D01*
X113083674Y-72912635D02*
X113101103Y-72977684D01*
X113101103Y-72977684D02*
X113094724Y-73083972D01*
X113094724Y-73083972D02*
X113040725Y-73272739D01*
X113040725Y-73272739D02*
X112921677Y-73478935D01*
X112921677Y-73478935D02*
X112785200Y-73620083D01*
X112785200Y-73620083D02*
X112696342Y-73678752D01*
X112696342Y-73678752D02*
X112631293Y-73696182D01*
X112631293Y-73696182D02*
X112525005Y-73689802D01*
X112525005Y-73689802D02*
X112442526Y-73642183D01*
X112442526Y-73642183D02*
X112383857Y-73553325D01*
X112383857Y-73553325D02*
X112366427Y-73488276D01*
X112366427Y-73488276D02*
X112372807Y-73381988D01*
X112372807Y-73381988D02*
X112426806Y-73193221D01*
X112426806Y-73193221D02*
X112545853Y-72987024D01*
X112545853Y-72987024D02*
X112682331Y-72845877D01*
X112682331Y-72845877D02*
X112771189Y-72787208D01*
X112771189Y-72787208D02*
X112836238Y-72769778D01*
X112836238Y-72769778D02*
X112942526Y-72776158D01*
X113555987Y-74285040D02*
X113061116Y-73999326D01*
X113308551Y-74142183D02*
X113808551Y-73276158D01*
X113808551Y-73276158D02*
X113654644Y-73352257D01*
X113654644Y-73352257D02*
X113524547Y-73387116D01*
X113524547Y-73387116D02*
X113418258Y-73380736D01*
X113844662Y-74451707D02*
X114631628Y-74136261D01*
X114177996Y-73874357D02*
X114298295Y-74713612D01*
X115293167Y-74133301D02*
X115375645Y-74180920D01*
X115375645Y-74180920D02*
X115434314Y-74269778D01*
X115434314Y-74269778D02*
X115451744Y-74334827D01*
X115451744Y-74334827D02*
X115445364Y-74441115D01*
X115445364Y-74441115D02*
X115391366Y-74629882D01*
X115391366Y-74629882D02*
X115272318Y-74836078D01*
X115272318Y-74836078D02*
X115135841Y-74977226D01*
X115135841Y-74977226D02*
X115046982Y-75035895D01*
X115046982Y-75035895D02*
X114981933Y-75053325D01*
X114981933Y-75053325D02*
X114875645Y-75046945D01*
X114875645Y-75046945D02*
X114793167Y-74999326D01*
X114793167Y-74999326D02*
X114734498Y-74910468D01*
X114734498Y-74910468D02*
X114717068Y-74845419D01*
X114717068Y-74845419D02*
X114723447Y-74739131D01*
X114723447Y-74739131D02*
X114777446Y-74550364D01*
X114777446Y-74550364D02*
X114896494Y-74344167D01*
X114896494Y-74344167D02*
X115032971Y-74203020D01*
X115032971Y-74203020D02*
X115121830Y-74144351D01*
X115121830Y-74144351D02*
X115186878Y-74126921D01*
X115186878Y-74126921D02*
X115293167Y-74133301D01*
X116365389Y-74752348D02*
X115952996Y-74514253D01*
X115952996Y-74514253D02*
X115673661Y-74902837D01*
X115673661Y-74902837D02*
X115738710Y-74885407D01*
X115738710Y-74885407D02*
X115844998Y-74891787D01*
X115844998Y-74891787D02*
X116051194Y-75010834D01*
X116051194Y-75010834D02*
X116109864Y-75099693D01*
X116109864Y-75099693D02*
X116127293Y-75164741D01*
X116127293Y-75164741D02*
X116120914Y-75271029D01*
X116120914Y-75271029D02*
X116001866Y-75477226D01*
X116001866Y-75477226D02*
X115913008Y-75535895D01*
X115913008Y-75535895D02*
X115847959Y-75553325D01*
X115847959Y-75553325D02*
X115741671Y-75546945D01*
X115741671Y-75546945D02*
X115535474Y-75427898D01*
X115535474Y-75427898D02*
X115476805Y-75339039D01*
X115476805Y-75339039D02*
X115459375Y-75273990D01*
X116023966Y-75819900D02*
X116683795Y-76200852D01*
X116920181Y-76172373D02*
X117020089Y-76285041D01*
X117020089Y-76285041D02*
X117226286Y-76404088D01*
X117226286Y-76404088D02*
X117332574Y-76410468D01*
X117332574Y-76410468D02*
X117397623Y-76393038D01*
X117397623Y-76393038D02*
X117486481Y-76334369D01*
X117486481Y-76334369D02*
X117534100Y-76251890D01*
X117534100Y-76251890D02*
X117540480Y-76145602D01*
X117540480Y-76145602D02*
X117523050Y-76080553D01*
X117523050Y-76080553D02*
X117464381Y-75991695D01*
X117464381Y-75991695D02*
X117323233Y-75855218D01*
X117323233Y-75855218D02*
X117264564Y-75766359D01*
X117264564Y-75766359D02*
X117247135Y-75701311D01*
X117247135Y-75701311D02*
X117253514Y-75595022D01*
X117253514Y-75595022D02*
X117301133Y-75512544D01*
X117301133Y-75512544D02*
X117389992Y-75453875D01*
X117389992Y-75453875D02*
X117455041Y-75436445D01*
X117455041Y-75436445D02*
X117561329Y-75442825D01*
X117561329Y-75442825D02*
X117767525Y-75561872D01*
X117767525Y-75561872D02*
X117867434Y-75674540D01*
X117886115Y-76785041D02*
X117827446Y-76696182D01*
X117827446Y-76696182D02*
X117810016Y-76631133D01*
X117810016Y-76631133D02*
X117816396Y-76524845D01*
X117816396Y-76524845D02*
X117959253Y-76277409D01*
X117959253Y-76277409D02*
X118048111Y-76218740D01*
X118048111Y-76218740D02*
X118113160Y-76201311D01*
X118113160Y-76201311D02*
X118219448Y-76207690D01*
X118219448Y-76207690D02*
X118343166Y-76279119D01*
X118343166Y-76279119D02*
X118401835Y-76367977D01*
X118401835Y-76367977D02*
X118419265Y-76433026D01*
X118419265Y-76433026D02*
X118412885Y-76539314D01*
X118412885Y-76539314D02*
X118270028Y-76786750D01*
X118270028Y-76786750D02*
X118181170Y-76845419D01*
X118181170Y-76845419D02*
X118116121Y-76862849D01*
X118116121Y-76862849D02*
X118009833Y-76856469D01*
X118009833Y-76856469D02*
X117886115Y-76785041D01*
X118940907Y-77339039D02*
X118834619Y-77332660D01*
X118834619Y-77332660D02*
X118669662Y-77237422D01*
X118669662Y-77237422D02*
X118610993Y-77148563D01*
X118610993Y-77148563D02*
X118593563Y-77083514D01*
X118593563Y-77083514D02*
X118599943Y-76977226D01*
X118599943Y-76977226D02*
X118742800Y-76729790D01*
X118742800Y-76729790D02*
X118831658Y-76671121D01*
X118831658Y-76671121D02*
X118896707Y-76653692D01*
X118896707Y-76653692D02*
X119002995Y-76660071D01*
X119002995Y-76660071D02*
X119167952Y-76755309D01*
X119167952Y-76755309D02*
X119226621Y-76844168D01*
X119288251Y-77594564D02*
X119788251Y-76728539D01*
X119561206Y-77312269D02*
X119618166Y-77785041D01*
X119951499Y-77207690D02*
X119431109Y-77347129D01*
X120343044Y-78148563D02*
X120236756Y-78142184D01*
X120236756Y-78142184D02*
X120071798Y-78046946D01*
X120071798Y-78046946D02*
X120013129Y-77958087D01*
X120013129Y-77958087D02*
X120019509Y-77851799D01*
X120019509Y-77851799D02*
X120209985Y-77521885D01*
X120209985Y-77521885D02*
X120298844Y-77463216D01*
X120298844Y-77463216D02*
X120405132Y-77469595D01*
X120405132Y-77469595D02*
X120570089Y-77564833D01*
X120570089Y-77564833D02*
X120628758Y-77653692D01*
X120628758Y-77653692D02*
X120622378Y-77759980D01*
X120622378Y-77759980D02*
X120574759Y-77842458D01*
X120574759Y-77842458D02*
X120114747Y-77686842D01*
X120941243Y-77779119D02*
X121271157Y-77969595D01*
X121231627Y-77561873D02*
X120803056Y-78304180D01*
X120803056Y-78304180D02*
X120796676Y-78410468D01*
X120796676Y-78410468D02*
X120855345Y-78499327D01*
X120855345Y-78499327D02*
X120937824Y-78546946D01*
X118121192Y-67716084D02*
X118739782Y-68073227D01*
X118739782Y-68073227D02*
X118839690Y-68185895D01*
X118839690Y-68185895D02*
X118874550Y-68315993D01*
X118874550Y-68315993D02*
X118844360Y-68463520D01*
X118844360Y-68463520D02*
X118796741Y-68545999D01*
X118573573Y-66932537D02*
X118478335Y-67097495D01*
X118478335Y-67097495D02*
X118471955Y-67203783D01*
X118471955Y-67203783D02*
X118489385Y-67268831D01*
X118489385Y-67268831D02*
X118565484Y-67422739D01*
X118565484Y-67422739D02*
X118706632Y-67559216D01*
X118706632Y-67559216D02*
X119036546Y-67749692D01*
X119036546Y-67749692D02*
X119142834Y-67756072D01*
X119142834Y-67756072D02*
X119207883Y-67738642D01*
X119207883Y-67738642D02*
X119296742Y-67679973D01*
X119296742Y-67679973D02*
X119391980Y-67515016D01*
X119391980Y-67515016D02*
X119398359Y-67408728D01*
X119398359Y-67408728D02*
X119380930Y-67343679D01*
X119380930Y-67343679D02*
X119322261Y-67254821D01*
X119322261Y-67254821D02*
X119116064Y-67135773D01*
X119116064Y-67135773D02*
X119009776Y-67129393D01*
X119009776Y-67129393D02*
X118944727Y-67146823D01*
X118944727Y-67146823D02*
X118855869Y-67205492D01*
X118855869Y-67205492D02*
X118760631Y-67370449D01*
X118760631Y-67370449D02*
X118754251Y-67476737D01*
X118754251Y-67476737D02*
X118771681Y-67541786D01*
X118771681Y-67541786D02*
X118830350Y-67630645D01*
X156851309Y-88750160D02*
X156909944Y-88825209D01*
X156909944Y-88825209D02*
X156931054Y-88929574D01*
X156931054Y-88929574D02*
X156922847Y-88996416D01*
X156922847Y-88996416D02*
X156877115Y-89092575D01*
X156877115Y-89092575D02*
X156756335Y-89247368D01*
X156756335Y-89247368D02*
X156568714Y-89393954D01*
X156568714Y-89393954D02*
X156389299Y-89473698D01*
X156389299Y-89473698D02*
X156284933Y-89494809D01*
X156284933Y-89494809D02*
X156218092Y-89486601D01*
X156218092Y-89486601D02*
X156121933Y-89440870D01*
X156121933Y-89440870D02*
X156063299Y-89365821D01*
X156063299Y-89365821D02*
X156042189Y-89261456D01*
X156042189Y-89261456D02*
X156050396Y-89194614D01*
X156050396Y-89194614D02*
X156096127Y-89098455D01*
X156096127Y-89098455D02*
X156216907Y-88943662D01*
X156216907Y-88943662D02*
X156404529Y-88797076D01*
X156404529Y-88797076D02*
X156583943Y-88717332D01*
X156583943Y-88717332D02*
X156688309Y-88696221D01*
X156688309Y-88696221D02*
X156755151Y-88704429D01*
X156755151Y-88704429D02*
X156851309Y-88750160D01*
X156607423Y-89907576D02*
X156599216Y-89974418D01*
X156599216Y-89974418D02*
X156532374Y-89966211D01*
X156532374Y-89966211D02*
X156540581Y-89899369D01*
X156540581Y-89899369D02*
X156607423Y-89907576D01*
X156607423Y-89907576D02*
X156532374Y-89966211D01*
X157148035Y-90754221D02*
X156796229Y-90303929D01*
X156972132Y-90529075D02*
X157760143Y-89913414D01*
X157760143Y-89913414D02*
X157588935Y-89926317D01*
X157588935Y-89926317D02*
X157455252Y-89909902D01*
X157455252Y-89909902D02*
X157359094Y-89864171D01*
X158201086Y-91019218D02*
X157675745Y-91429659D01*
X157937231Y-90681499D02*
X157524463Y-91003988D01*
X157524463Y-91003988D02*
X157478732Y-91100147D01*
X157478732Y-91100147D02*
X157499842Y-91204513D01*
X157499842Y-91204513D02*
X157587794Y-91317086D01*
X157587794Y-91317086D02*
X157683952Y-91362817D01*
X157683952Y-91362817D02*
X157750794Y-91371024D01*
X158586905Y-91745083D02*
X158381685Y-91482413D01*
X157968917Y-91804902D02*
X158756928Y-91189241D01*
X158756928Y-91189241D02*
X159050100Y-91564484D01*
D11*
X158405614Y-89536018D02*
X158378877Y-89532735D01*
X158378877Y-89532735D02*
X158328687Y-89499433D01*
X158328687Y-89499433D02*
X158305233Y-89469413D01*
X158305233Y-89469413D02*
X158285062Y-89412657D01*
X158285062Y-89412657D02*
X158291628Y-89359184D01*
X158291628Y-89359184D02*
X158309921Y-89320720D01*
X158309921Y-89320720D02*
X158358233Y-89258803D01*
X158358233Y-89258803D02*
X158403262Y-89223622D01*
X158403262Y-89223622D02*
X158475028Y-89191725D01*
X158475028Y-89191725D02*
X158516774Y-89183280D01*
X158516774Y-89183280D02*
X158570247Y-89189846D01*
X158570247Y-89189846D02*
X158620438Y-89223148D01*
X158620438Y-89223148D02*
X158643891Y-89253168D01*
X158643891Y-89253168D02*
X158664062Y-89309924D01*
X158664062Y-89309924D02*
X158660779Y-89336661D01*
X158772887Y-89418275D02*
X158937063Y-89628411D01*
X158937063Y-89628411D02*
X158516317Y-89739588D01*
D10*
X138417143Y-98024819D02*
X138512381Y-98024819D01*
X138512381Y-98024819D02*
X138607619Y-98072438D01*
X138607619Y-98072438D02*
X138655238Y-98120057D01*
X138655238Y-98120057D02*
X138702857Y-98215295D01*
X138702857Y-98215295D02*
X138750476Y-98405771D01*
X138750476Y-98405771D02*
X138750476Y-98643866D01*
X138750476Y-98643866D02*
X138702857Y-98834342D01*
X138702857Y-98834342D02*
X138655238Y-98929580D01*
X138655238Y-98929580D02*
X138607619Y-98977200D01*
X138607619Y-98977200D02*
X138512381Y-99024819D01*
X138512381Y-99024819D02*
X138417143Y-99024819D01*
X138417143Y-99024819D02*
X138321905Y-98977200D01*
X138321905Y-98977200D02*
X138274286Y-98929580D01*
X138274286Y-98929580D02*
X138226667Y-98834342D01*
X138226667Y-98834342D02*
X138179048Y-98643866D01*
X138179048Y-98643866D02*
X138179048Y-98405771D01*
X138179048Y-98405771D02*
X138226667Y-98215295D01*
X138226667Y-98215295D02*
X138274286Y-98120057D01*
X138274286Y-98120057D02*
X138321905Y-98072438D01*
X138321905Y-98072438D02*
X138417143Y-98024819D01*
X139179048Y-98929580D02*
X139226667Y-98977200D01*
X139226667Y-98977200D02*
X139179048Y-99024819D01*
X139179048Y-99024819D02*
X139131429Y-98977200D01*
X139131429Y-98977200D02*
X139179048Y-98929580D01*
X139179048Y-98929580D02*
X139179048Y-99024819D01*
X140179047Y-99024819D02*
X139607619Y-99024819D01*
X139893333Y-99024819D02*
X139893333Y-98024819D01*
X139893333Y-98024819D02*
X139798095Y-98167676D01*
X139798095Y-98167676D02*
X139702857Y-98262914D01*
X139702857Y-98262914D02*
X139607619Y-98310533D01*
X141036190Y-98358152D02*
X141036190Y-99024819D01*
X140607619Y-98358152D02*
X140607619Y-98881961D01*
X140607619Y-98881961D02*
X140655238Y-98977200D01*
X140655238Y-98977200D02*
X140750476Y-99024819D01*
X140750476Y-99024819D02*
X140893333Y-99024819D01*
X140893333Y-99024819D02*
X140988571Y-98977200D01*
X140988571Y-98977200D02*
X141036190Y-98929580D01*
X141845714Y-98501009D02*
X141512381Y-98501009D01*
X141512381Y-99024819D02*
X141512381Y-98024819D01*
X141512381Y-98024819D02*
X141988571Y-98024819D01*
D11*
X139993333Y-100143832D02*
X139974285Y-100162880D01*
X139974285Y-100162880D02*
X139917143Y-100181927D01*
X139917143Y-100181927D02*
X139879047Y-100181927D01*
X139879047Y-100181927D02*
X139821904Y-100162880D01*
X139821904Y-100162880D02*
X139783809Y-100124784D01*
X139783809Y-100124784D02*
X139764762Y-100086689D01*
X139764762Y-100086689D02*
X139745714Y-100010499D01*
X139745714Y-100010499D02*
X139745714Y-99953356D01*
X139745714Y-99953356D02*
X139764762Y-99877165D01*
X139764762Y-99877165D02*
X139783809Y-99839070D01*
X139783809Y-99839070D02*
X139821904Y-99800975D01*
X139821904Y-99800975D02*
X139879047Y-99781927D01*
X139879047Y-99781927D02*
X139917143Y-99781927D01*
X139917143Y-99781927D02*
X139974285Y-99800975D01*
X139974285Y-99800975D02*
X139993333Y-99820022D01*
X140374285Y-100181927D02*
X140145714Y-100181927D01*
X140260000Y-100181927D02*
X140260000Y-99781927D01*
X140260000Y-99781927D02*
X140221904Y-99839070D01*
X140221904Y-99839070D02*
X140183809Y-99877165D01*
X140183809Y-99877165D02*
X140145714Y-99896213D01*
D10*
X151966494Y-64487245D02*
X151949065Y-64552294D01*
X151949065Y-64552294D02*
X151849156Y-64664962D01*
X151849156Y-64664962D02*
X151766678Y-64712581D01*
X151766678Y-64712581D02*
X151619150Y-64742770D01*
X151619150Y-64742770D02*
X151489052Y-64707911D01*
X151489052Y-64707911D02*
X151400194Y-64649242D01*
X151400194Y-64649242D02*
X151263717Y-64508094D01*
X151263717Y-64508094D02*
X151192288Y-64384376D01*
X151192288Y-64384376D02*
X151138289Y-64195609D01*
X151138289Y-64195609D02*
X151131910Y-64089321D01*
X151131910Y-64089321D02*
X151166769Y-63959224D01*
X151166769Y-63959224D02*
X151266678Y-63846556D01*
X151266678Y-63846556D02*
X151349156Y-63798937D01*
X151349156Y-63798937D02*
X151496684Y-63768747D01*
X151496684Y-63768747D02*
X151561732Y-63786177D01*
X152508985Y-64284010D02*
X152402697Y-64290389D01*
X152402697Y-64290389D02*
X152337648Y-64272960D01*
X152337648Y-64272960D02*
X152248790Y-64214291D01*
X152248790Y-64214291D02*
X152105933Y-63966855D01*
X152105933Y-63966855D02*
X152099553Y-63860567D01*
X152099553Y-63860567D02*
X152116983Y-63795518D01*
X152116983Y-63795518D02*
X152175652Y-63706659D01*
X152175652Y-63706659D02*
X152299370Y-63635231D01*
X152299370Y-63635231D02*
X152405658Y-63628851D01*
X152405658Y-63628851D02*
X152470707Y-63646281D01*
X152470707Y-63646281D02*
X152559565Y-63704950D01*
X152559565Y-63704950D02*
X152702422Y-63952386D01*
X152702422Y-63952386D02*
X152708802Y-64058674D01*
X152708802Y-64058674D02*
X152691372Y-64123723D01*
X152691372Y-64123723D02*
X152632703Y-64212581D01*
X152632703Y-64212581D02*
X152508985Y-64284010D01*
X152835481Y-63325707D02*
X153168814Y-63903057D01*
X152883100Y-63408186D02*
X152900529Y-63343137D01*
X152900529Y-63343137D02*
X152959199Y-63254278D01*
X152959199Y-63254278D02*
X153082916Y-63182850D01*
X153082916Y-63182850D02*
X153189205Y-63176470D01*
X153189205Y-63176470D02*
X153278063Y-63235139D01*
X153278063Y-63235139D02*
X153539968Y-63688772D01*
X153619028Y-62873326D02*
X153952361Y-63450676D01*
X153666647Y-62955805D02*
X153684076Y-62890756D01*
X153684076Y-62890756D02*
X153742745Y-62801897D01*
X153742745Y-62801897D02*
X153866463Y-62730469D01*
X153866463Y-62730469D02*
X153972751Y-62724089D01*
X153972751Y-62724089D02*
X154061610Y-62782758D01*
X154061610Y-62782758D02*
X154323515Y-63236391D01*
X154577330Y-63199821D02*
X155237159Y-62818869D01*
X155060694Y-61656079D02*
X155143173Y-61608460D01*
X155143173Y-61608460D02*
X155249461Y-61602080D01*
X155249461Y-61602080D02*
X155314510Y-61619510D01*
X155314510Y-61619510D02*
X155403368Y-61678179D01*
X155403368Y-61678179D02*
X155539845Y-61819327D01*
X155539845Y-61819327D02*
X155658893Y-62025524D01*
X155658893Y-62025524D02*
X155712892Y-62214290D01*
X155712892Y-62214290D02*
X155719271Y-62320578D01*
X155719271Y-62320578D02*
X155701842Y-62385627D01*
X155701842Y-62385627D02*
X155643173Y-62474486D01*
X155643173Y-62474486D02*
X155560694Y-62522105D01*
X155560694Y-62522105D02*
X155454406Y-62528484D01*
X155454406Y-62528484D02*
X155389357Y-62511055D01*
X155389357Y-62511055D02*
X155300499Y-62452386D01*
X155300499Y-62452386D02*
X155164021Y-62311238D01*
X155164021Y-62311238D02*
X155044974Y-62105041D01*
X155044974Y-62105041D02*
X154990975Y-61916275D01*
X154990975Y-61916275D02*
X154984595Y-61809986D01*
X154984595Y-61809986D02*
X155002025Y-61744938D01*
X155002025Y-61744938D02*
X155060694Y-61656079D01*
X156674155Y-61879247D02*
X156179284Y-62164962D01*
X156426719Y-62022105D02*
X155926719Y-61156079D01*
X155926719Y-61156079D02*
X155915669Y-61327416D01*
X155915669Y-61327416D02*
X155880810Y-61457514D01*
X155880810Y-61457514D02*
X155822141Y-61546372D01*
X156962830Y-61712581D02*
X157083129Y-60873326D01*
X156629497Y-61135231D02*
X157416463Y-61450676D01*
X157411335Y-60298936D02*
X157493813Y-60251317D01*
X157493813Y-60251317D02*
X157600101Y-60244937D01*
X157600101Y-60244937D02*
X157665150Y-60262367D01*
X157665150Y-60262367D02*
X157754009Y-60321036D01*
X157754009Y-60321036D02*
X157890486Y-60462184D01*
X157890486Y-60462184D02*
X158009534Y-60668381D01*
X158009534Y-60668381D02*
X158063532Y-60857147D01*
X158063532Y-60857147D02*
X158069912Y-60963435D01*
X158069912Y-60963435D02*
X158052482Y-61028484D01*
X158052482Y-61028484D02*
X157993813Y-61117343D01*
X157993813Y-61117343D02*
X157911335Y-61164962D01*
X157911335Y-61164962D02*
X157805047Y-61171341D01*
X157805047Y-61171341D02*
X157739998Y-61153912D01*
X157739998Y-61153912D02*
X157651139Y-61095243D01*
X157651139Y-61095243D02*
X157514662Y-60954095D01*
X157514662Y-60954095D02*
X157395614Y-60747898D01*
X157395614Y-60747898D02*
X157341616Y-60559132D01*
X157341616Y-60559132D02*
X157335236Y-60452843D01*
X157335236Y-60452843D02*
X157352666Y-60387795D01*
X157352666Y-60387795D02*
X157411335Y-60298936D01*
X158483557Y-59679889D02*
X158071164Y-59917984D01*
X158071164Y-59917984D02*
X158268020Y-60354186D01*
X158268020Y-60354186D02*
X158285449Y-60289138D01*
X158285449Y-60289138D02*
X158344118Y-60200279D01*
X158344118Y-60200279D02*
X158550315Y-60081232D01*
X158550315Y-60081232D02*
X158656603Y-60074852D01*
X158656603Y-60074852D02*
X158721652Y-60092282D01*
X158721652Y-60092282D02*
X158810510Y-60150951D01*
X158810510Y-60150951D02*
X158929558Y-60357147D01*
X158929558Y-60357147D02*
X158935938Y-60463435D01*
X158935938Y-60463435D02*
X158918508Y-60528484D01*
X158918508Y-60528484D02*
X158859839Y-60617343D01*
X158859839Y-60617343D02*
X158653642Y-60736390D01*
X158653642Y-60736390D02*
X158547354Y-60742770D01*
X158547354Y-60742770D02*
X158482305Y-60725340D01*
X159237372Y-60509345D02*
X159897201Y-60128393D01*
X159990730Y-59909436D02*
X160138257Y-59879247D01*
X160138257Y-59879247D02*
X160344454Y-59760200D01*
X160344454Y-59760200D02*
X160403123Y-59671341D01*
X160403123Y-59671341D02*
X160420553Y-59606292D01*
X160420553Y-59606292D02*
X160414173Y-59500004D01*
X160414173Y-59500004D02*
X160366554Y-59417526D01*
X160366554Y-59417526D02*
X160277696Y-59358857D01*
X160277696Y-59358857D02*
X160212647Y-59341427D01*
X160212647Y-59341427D02*
X160106359Y-59347807D01*
X160106359Y-59347807D02*
X159917592Y-59401805D01*
X159917592Y-59401805D02*
X159811304Y-59408185D01*
X159811304Y-59408185D02*
X159746255Y-59390755D01*
X159746255Y-59390755D02*
X159657397Y-59332086D01*
X159657397Y-59332086D02*
X159609778Y-59249608D01*
X159609778Y-59249608D02*
X159603398Y-59143319D01*
X159603398Y-59143319D02*
X159620828Y-59078271D01*
X159620828Y-59078271D02*
X159679497Y-58989412D01*
X159679497Y-58989412D02*
X159885693Y-58870365D01*
X159885693Y-58870365D02*
X160033221Y-58840175D01*
X161004283Y-59379247D02*
X160897995Y-59385627D01*
X160897995Y-59385627D02*
X160832946Y-59368197D01*
X160832946Y-59368197D02*
X160744088Y-59309528D01*
X160744088Y-59309528D02*
X160601230Y-59062092D01*
X160601230Y-59062092D02*
X160594851Y-58955804D01*
X160594851Y-58955804D02*
X160612280Y-58890755D01*
X160612280Y-58890755D02*
X160670950Y-58801897D01*
X160670950Y-58801897D02*
X160794667Y-58730468D01*
X160794667Y-58730468D02*
X160900956Y-58724089D01*
X160900956Y-58724089D02*
X160966004Y-58741518D01*
X160966004Y-58741518D02*
X161054863Y-58800187D01*
X161054863Y-58800187D02*
X161197720Y-59047623D01*
X161197720Y-59047623D02*
X161204100Y-59153911D01*
X161204100Y-59153911D02*
X161186670Y-59218960D01*
X161186670Y-59218960D02*
X161128001Y-59307819D01*
X161128001Y-59307819D02*
X161004283Y-59379247D01*
X162011456Y-58742770D02*
X161952787Y-58831628D01*
X161952787Y-58831628D02*
X161787830Y-58926866D01*
X161787830Y-58926866D02*
X161681542Y-58933246D01*
X161681542Y-58933246D02*
X161616493Y-58915816D01*
X161616493Y-58915816D02*
X161527634Y-58857147D01*
X161527634Y-58857147D02*
X161384777Y-58609711D01*
X161384777Y-58609711D02*
X161378398Y-58503423D01*
X161378398Y-58503423D02*
X161395827Y-58438374D01*
X161395827Y-58438374D02*
X161454496Y-58349516D01*
X161454496Y-58349516D02*
X161619454Y-58254278D01*
X161619454Y-58254278D02*
X161725742Y-58247898D01*
X162406419Y-58569723D02*
X161906419Y-57703698D01*
X162298422Y-58192190D02*
X162736334Y-58379247D01*
X162403001Y-57801897D02*
X162263562Y-58322287D01*
X163413593Y-57933246D02*
X163354924Y-58022104D01*
X163354924Y-58022104D02*
X163189966Y-58117342D01*
X163189966Y-58117342D02*
X163083678Y-58123722D01*
X163083678Y-58123722D02*
X162994820Y-58065053D01*
X162994820Y-58065053D02*
X162804344Y-57735138D01*
X162804344Y-57735138D02*
X162797964Y-57628850D01*
X162797964Y-57628850D02*
X162856633Y-57539992D01*
X162856633Y-57539992D02*
X163021590Y-57444754D01*
X163021590Y-57444754D02*
X163127878Y-57438374D01*
X163127878Y-57438374D02*
X163216737Y-57497043D01*
X163216737Y-57497043D02*
X163264356Y-57579522D01*
X163264356Y-57579522D02*
X162899582Y-57900096D01*
X163392744Y-57230468D02*
X163722659Y-57039992D01*
X163349795Y-56870364D02*
X163778367Y-57612672D01*
X163778367Y-57612672D02*
X163867225Y-57671341D01*
X163867225Y-57671341D02*
X163973513Y-57664961D01*
X163973513Y-57664961D02*
X164055992Y-57617342D01*
X161728822Y-67115253D02*
X161110233Y-67472396D01*
X161110233Y-67472396D02*
X160962705Y-67502585D01*
X160962705Y-67502585D02*
X160832608Y-67467725D01*
X160832608Y-67467725D02*
X160719940Y-67367817D01*
X160719940Y-67367817D02*
X160672321Y-67285338D01*
X161892528Y-68065466D02*
X161315178Y-68398800D01*
X162103395Y-67668794D02*
X161365758Y-67819740D01*
X161365758Y-67819740D02*
X161675282Y-68355851D01*
X153726919Y-77075663D02*
X153751568Y-76983670D01*
X153751568Y-76983670D02*
X153822214Y-76904002D01*
X153822214Y-76904002D02*
X153880535Y-76870330D01*
X153880535Y-76870330D02*
X153984853Y-76848983D01*
X153984853Y-76848983D02*
X154181163Y-76852285D01*
X154181163Y-76852285D02*
X154411146Y-76913909D01*
X154411146Y-76913909D02*
X154582807Y-77009204D01*
X154582807Y-77009204D02*
X154662475Y-77079850D01*
X154662475Y-77079850D02*
X154696147Y-77138171D01*
X154696147Y-77138171D02*
X154717494Y-77242489D01*
X154717494Y-77242489D02*
X154692844Y-77334482D01*
X154692844Y-77334482D02*
X154622198Y-77414150D01*
X154622198Y-77414150D02*
X154563877Y-77447822D01*
X154563877Y-77447822D02*
X154459560Y-77469169D01*
X154459560Y-77469169D02*
X154263249Y-77465867D01*
X154263249Y-77465867D02*
X154033267Y-77404243D01*
X154033267Y-77404243D02*
X153861606Y-77308948D01*
X153861606Y-77308948D02*
X153781937Y-77238302D01*
X153781937Y-77238302D02*
X153748266Y-77179981D01*
X153748266Y-77179981D02*
X153726919Y-77075663D01*
X154798047Y-76573889D02*
X154856368Y-76540217D01*
X154856368Y-76540217D02*
X154890040Y-76598538D01*
X154890040Y-76598538D02*
X154831719Y-76632210D01*
X154831719Y-76632210D02*
X154798047Y-76573889D01*
X154798047Y-76573889D02*
X154890040Y-76598538D01*
X155148859Y-75632613D02*
X155000962Y-76184571D01*
X155074910Y-75908592D02*
X154108985Y-75649773D01*
X154108985Y-75649773D02*
X154222325Y-75778740D01*
X154222325Y-75778740D02*
X154289668Y-75895382D01*
X154289668Y-75895382D02*
X154311015Y-75999700D01*
X154726753Y-74632131D02*
X155370704Y-74804677D01*
X154615831Y-75046099D02*
X155121792Y-75181671D01*
X155121792Y-75181671D02*
X155226110Y-75160324D01*
X155226110Y-75160324D02*
X155296755Y-75080655D01*
X155296755Y-75080655D02*
X155333730Y-74942666D01*
X155333730Y-74942666D02*
X155312383Y-74838348D01*
X155312383Y-74838348D02*
X155278711Y-74780027D01*
X155074263Y-73887165D02*
X154987990Y-74209140D01*
X155493951Y-74344712D02*
X154528025Y-74085893D01*
X154528025Y-74085893D02*
X154651272Y-73625928D01*
D11*
X156181676Y-76101621D02*
X156195145Y-76124949D01*
X156195145Y-76124949D02*
X156198754Y-76185075D01*
X156198754Y-76185075D02*
X156188894Y-76221872D01*
X156188894Y-76221872D02*
X156155706Y-76272138D01*
X156155706Y-76272138D02*
X156109049Y-76299076D01*
X156109049Y-76299076D02*
X156067322Y-76307614D01*
X156067322Y-76307614D02*
X155988798Y-76306293D01*
X155988798Y-76306293D02*
X155933602Y-76291504D01*
X155933602Y-76291504D02*
X155864937Y-76253386D01*
X155864937Y-76253386D02*
X155833070Y-76225127D01*
X155833070Y-76225127D02*
X155806133Y-76178470D01*
X155806133Y-76178470D02*
X155802524Y-76118345D01*
X155802524Y-76118345D02*
X155812384Y-76081547D01*
X155812384Y-76081547D02*
X155845572Y-76031282D01*
X155845572Y-76031282D02*
X155868900Y-76017813D01*
X156267772Y-75927495D02*
X156287492Y-75853900D01*
X156287492Y-75853900D02*
X156278953Y-75812173D01*
X156278953Y-75812173D02*
X156265484Y-75788845D01*
X156265484Y-75788845D02*
X156220148Y-75737258D01*
X156220148Y-75737258D02*
X156151484Y-75699140D01*
X156151484Y-75699140D02*
X156004295Y-75659701D01*
X156004295Y-75659701D02*
X155962568Y-75668240D01*
X155962568Y-75668240D02*
X155939240Y-75681708D01*
X155939240Y-75681708D02*
X155910981Y-75713576D01*
X155910981Y-75713576D02*
X155891262Y-75787170D01*
X155891262Y-75787170D02*
X155899801Y-75828897D01*
X155899801Y-75828897D02*
X155913269Y-75852226D01*
X155913269Y-75852226D02*
X155945137Y-75880484D01*
X155945137Y-75880484D02*
X156037130Y-75905133D01*
X156037130Y-75905133D02*
X156078857Y-75896595D01*
X156078857Y-75896595D02*
X156102185Y-75883126D01*
X156102185Y-75883126D02*
X156130443Y-75851259D01*
X156130443Y-75851259D02*
X156150163Y-75777664D01*
X156150163Y-75777664D02*
X156141624Y-75735937D01*
X156141624Y-75735937D02*
X156128156Y-75712609D01*
X156128156Y-75712609D02*
X156096288Y-75684350D01*
D10*
X118046607Y-101683416D02*
X118029177Y-101748465D01*
X118029177Y-101748465D02*
X117929269Y-101861133D01*
X117929269Y-101861133D02*
X117846790Y-101908752D01*
X117846790Y-101908752D02*
X117699263Y-101938941D01*
X117699263Y-101938941D02*
X117569165Y-101904081D01*
X117569165Y-101904081D02*
X117480307Y-101845412D01*
X117480307Y-101845412D02*
X117343830Y-101704265D01*
X117343830Y-101704265D02*
X117272401Y-101580547D01*
X117272401Y-101580547D02*
X117218402Y-101391780D01*
X117218402Y-101391780D02*
X117212022Y-101285492D01*
X117212022Y-101285492D02*
X117246882Y-101155394D01*
X117246882Y-101155394D02*
X117346790Y-101042726D01*
X117346790Y-101042726D02*
X117429269Y-100995107D01*
X117429269Y-100995107D02*
X117576796Y-100964918D01*
X117576796Y-100964918D02*
X117641845Y-100982348D01*
X118589098Y-101480180D02*
X118482810Y-101486560D01*
X118482810Y-101486560D02*
X118417761Y-101469130D01*
X118417761Y-101469130D02*
X118328903Y-101410461D01*
X118328903Y-101410461D02*
X118186045Y-101163025D01*
X118186045Y-101163025D02*
X118179666Y-101056737D01*
X118179666Y-101056737D02*
X118197095Y-100991688D01*
X118197095Y-100991688D02*
X118255765Y-100902830D01*
X118255765Y-100902830D02*
X118379482Y-100831401D01*
X118379482Y-100831401D02*
X118485771Y-100825022D01*
X118485771Y-100825022D02*
X118550819Y-100842451D01*
X118550819Y-100842451D02*
X118639678Y-100901120D01*
X118639678Y-100901120D02*
X118782535Y-101148556D01*
X118782535Y-101148556D02*
X118788915Y-101254844D01*
X118788915Y-101254844D02*
X118771485Y-101319893D01*
X118771485Y-101319893D02*
X118712816Y-101408752D01*
X118712816Y-101408752D02*
X118589098Y-101480180D01*
X118915593Y-100521877D02*
X119248927Y-101099228D01*
X118963213Y-100604356D02*
X118980642Y-100539307D01*
X118980642Y-100539307D02*
X119039311Y-100450449D01*
X119039311Y-100450449D02*
X119163029Y-100379020D01*
X119163029Y-100379020D02*
X119269317Y-100372641D01*
X119269317Y-100372641D02*
X119358176Y-100431310D01*
X119358176Y-100431310D02*
X119620081Y-100884942D01*
X119699140Y-100069496D02*
X120032474Y-100646847D01*
X119746759Y-100151975D02*
X119764189Y-100086926D01*
X119764189Y-100086926D02*
X119822858Y-99998068D01*
X119822858Y-99998068D02*
X119946576Y-99926639D01*
X119946576Y-99926639D02*
X120052864Y-99920260D01*
X120052864Y-99920260D02*
X120141723Y-99978929D01*
X120141723Y-99978929D02*
X120403627Y-100432561D01*
X120657443Y-100395992D02*
X121317272Y-100015040D01*
X121140807Y-98852250D02*
X121223285Y-98804631D01*
X121223285Y-98804631D02*
X121329574Y-98798251D01*
X121329574Y-98798251D02*
X121394622Y-98815681D01*
X121394622Y-98815681D02*
X121483481Y-98874350D01*
X121483481Y-98874350D02*
X121619958Y-99015498D01*
X121619958Y-99015498D02*
X121739006Y-99221694D01*
X121739006Y-99221694D02*
X121793005Y-99410461D01*
X121793005Y-99410461D02*
X121799384Y-99516749D01*
X121799384Y-99516749D02*
X121781955Y-99581798D01*
X121781955Y-99581798D02*
X121723285Y-99670656D01*
X121723285Y-99670656D02*
X121640807Y-99718275D01*
X121640807Y-99718275D02*
X121534519Y-99724655D01*
X121534519Y-99724655D02*
X121469470Y-99707225D01*
X121469470Y-99707225D02*
X121380612Y-99648556D01*
X121380612Y-99648556D02*
X121244134Y-99507408D01*
X121244134Y-99507408D02*
X121125087Y-99301212D01*
X121125087Y-99301212D02*
X121071088Y-99112445D01*
X121071088Y-99112445D02*
X121064708Y-99006157D01*
X121064708Y-99006157D02*
X121082138Y-98941108D01*
X121082138Y-98941108D02*
X121140807Y-98852250D01*
X122754268Y-99075418D02*
X122259396Y-99361132D01*
X122506832Y-99218275D02*
X122006832Y-98352250D01*
X122006832Y-98352250D02*
X121995782Y-98523587D01*
X121995782Y-98523587D02*
X121960923Y-98653684D01*
X121960923Y-98653684D02*
X121902254Y-98742543D01*
X123042943Y-98908751D02*
X123163242Y-98069496D01*
X122709610Y-98331401D02*
X123496576Y-98646847D01*
X123491448Y-97495107D02*
X123573926Y-97447488D01*
X123573926Y-97447488D02*
X123680214Y-97441108D01*
X123680214Y-97441108D02*
X123745263Y-97458538D01*
X123745263Y-97458538D02*
X123834121Y-97517207D01*
X123834121Y-97517207D02*
X123970599Y-97658355D01*
X123970599Y-97658355D02*
X124089646Y-97864551D01*
X124089646Y-97864551D02*
X124143645Y-98053318D01*
X124143645Y-98053318D02*
X124150025Y-98159606D01*
X124150025Y-98159606D02*
X124132595Y-98224655D01*
X124132595Y-98224655D02*
X124073926Y-98313513D01*
X124073926Y-98313513D02*
X123991448Y-98361132D01*
X123991448Y-98361132D02*
X123885159Y-98367512D01*
X123885159Y-98367512D02*
X123820111Y-98350082D01*
X123820111Y-98350082D02*
X123731252Y-98291413D01*
X123731252Y-98291413D02*
X123594775Y-98150265D01*
X123594775Y-98150265D02*
X123475727Y-97944069D01*
X123475727Y-97944069D02*
X123421728Y-97755302D01*
X123421728Y-97755302D02*
X123415349Y-97649014D01*
X123415349Y-97649014D02*
X123432778Y-97583965D01*
X123432778Y-97583965D02*
X123491448Y-97495107D01*
X124563669Y-96876059D02*
X124151276Y-97114154D01*
X124151276Y-97114154D02*
X124348132Y-97550357D01*
X124348132Y-97550357D02*
X124365562Y-97485308D01*
X124365562Y-97485308D02*
X124424231Y-97396450D01*
X124424231Y-97396450D02*
X124630428Y-97277402D01*
X124630428Y-97277402D02*
X124736716Y-97271022D01*
X124736716Y-97271022D02*
X124801765Y-97288452D01*
X124801765Y-97288452D02*
X124890623Y-97347121D01*
X124890623Y-97347121D02*
X125009671Y-97553318D01*
X125009671Y-97553318D02*
X125016050Y-97659606D01*
X125016050Y-97659606D02*
X124998621Y-97724655D01*
X124998621Y-97724655D02*
X124939952Y-97813513D01*
X124939952Y-97813513D02*
X124733755Y-97932561D01*
X124733755Y-97932561D02*
X124627467Y-97938940D01*
X124627467Y-97938940D02*
X124562418Y-97921511D01*
X125317485Y-97705515D02*
X125977314Y-97324563D01*
X126135892Y-97123037D02*
X125635892Y-96257011D01*
X125635892Y-96257011D02*
X125965806Y-96066535D01*
X125965806Y-96066535D02*
X126072094Y-96060155D01*
X126072094Y-96060155D02*
X126137143Y-96077585D01*
X126137143Y-96077585D02*
X126226001Y-96136254D01*
X126226001Y-96136254D02*
X126297430Y-96259972D01*
X126297430Y-96259972D02*
X126303810Y-96366260D01*
X126303810Y-96366260D02*
X126286380Y-96431309D01*
X126286380Y-96431309D02*
X126227711Y-96520167D01*
X126227711Y-96520167D02*
X125897796Y-96710644D01*
X127001917Y-96623037D02*
X126668584Y-96045686D01*
X126501917Y-95757011D02*
X126484487Y-95822060D01*
X126484487Y-95822060D02*
X126549536Y-95839490D01*
X126549536Y-95839490D02*
X126566966Y-95774441D01*
X126566966Y-95774441D02*
X126501917Y-95757011D01*
X126501917Y-95757011D02*
X126549536Y-95839490D01*
X127080976Y-95807591D02*
X127414310Y-96384942D01*
X127128595Y-95890070D02*
X127146025Y-95825021D01*
X127146025Y-95825021D02*
X127204694Y-95736163D01*
X127204694Y-95736163D02*
X127328412Y-95664734D01*
X127328412Y-95664734D02*
X127434700Y-95658355D01*
X127434700Y-95658355D02*
X127523559Y-95717024D01*
X127523559Y-95717024D02*
X127785463Y-96170656D01*
X119065473Y-91738734D02*
X118446884Y-92095877D01*
X118446884Y-92095877D02*
X118299356Y-92126066D01*
X118299356Y-92126066D02*
X118169259Y-92091206D01*
X118169259Y-92091206D02*
X118056591Y-91991298D01*
X118056591Y-91991298D02*
X118008972Y-91908819D01*
X118699448Y-93104759D02*
X118413734Y-92609888D01*
X118556591Y-92857324D02*
X119422616Y-92357324D01*
X119422616Y-92357324D02*
X119251279Y-92346274D01*
X119251279Y-92346274D02*
X119121182Y-92311414D01*
X119121182Y-92311414D02*
X119032323Y-92252745D01*
X138417143Y-74024819D02*
X138512381Y-74024819D01*
X138512381Y-74024819D02*
X138607619Y-74072438D01*
X138607619Y-74072438D02*
X138655238Y-74120057D01*
X138655238Y-74120057D02*
X138702857Y-74215295D01*
X138702857Y-74215295D02*
X138750476Y-74405771D01*
X138750476Y-74405771D02*
X138750476Y-74643866D01*
X138750476Y-74643866D02*
X138702857Y-74834342D01*
X138702857Y-74834342D02*
X138655238Y-74929580D01*
X138655238Y-74929580D02*
X138607619Y-74977200D01*
X138607619Y-74977200D02*
X138512381Y-75024819D01*
X138512381Y-75024819D02*
X138417143Y-75024819D01*
X138417143Y-75024819D02*
X138321905Y-74977200D01*
X138321905Y-74977200D02*
X138274286Y-74929580D01*
X138274286Y-74929580D02*
X138226667Y-74834342D01*
X138226667Y-74834342D02*
X138179048Y-74643866D01*
X138179048Y-74643866D02*
X138179048Y-74405771D01*
X138179048Y-74405771D02*
X138226667Y-74215295D01*
X138226667Y-74215295D02*
X138274286Y-74120057D01*
X138274286Y-74120057D02*
X138321905Y-74072438D01*
X138321905Y-74072438D02*
X138417143Y-74024819D01*
X139179048Y-74929580D02*
X139226667Y-74977200D01*
X139226667Y-74977200D02*
X139179048Y-75024819D01*
X139179048Y-75024819D02*
X139131429Y-74977200D01*
X139131429Y-74977200D02*
X139179048Y-74929580D01*
X139179048Y-74929580D02*
X139179048Y-75024819D01*
X140179047Y-75024819D02*
X139607619Y-75024819D01*
X139893333Y-75024819D02*
X139893333Y-74024819D01*
X139893333Y-74024819D02*
X139798095Y-74167676D01*
X139798095Y-74167676D02*
X139702857Y-74262914D01*
X139702857Y-74262914D02*
X139607619Y-74310533D01*
X141036190Y-74358152D02*
X141036190Y-75024819D01*
X140607619Y-74358152D02*
X140607619Y-74881961D01*
X140607619Y-74881961D02*
X140655238Y-74977200D01*
X140655238Y-74977200D02*
X140750476Y-75024819D01*
X140750476Y-75024819D02*
X140893333Y-75024819D01*
X140893333Y-75024819D02*
X140988571Y-74977200D01*
X140988571Y-74977200D02*
X141036190Y-74929580D01*
X141845714Y-74501009D02*
X141512381Y-74501009D01*
X141512381Y-75024819D02*
X141512381Y-74024819D01*
X141512381Y-74024819D02*
X141988571Y-74024819D01*
D11*
X139993333Y-76143832D02*
X139974285Y-76162880D01*
X139974285Y-76162880D02*
X139917143Y-76181927D01*
X139917143Y-76181927D02*
X139879047Y-76181927D01*
X139879047Y-76181927D02*
X139821904Y-76162880D01*
X139821904Y-76162880D02*
X139783809Y-76124784D01*
X139783809Y-76124784D02*
X139764762Y-76086689D01*
X139764762Y-76086689D02*
X139745714Y-76010499D01*
X139745714Y-76010499D02*
X139745714Y-75953356D01*
X139745714Y-75953356D02*
X139764762Y-75877165D01*
X139764762Y-75877165D02*
X139783809Y-75839070D01*
X139783809Y-75839070D02*
X139821904Y-75800975D01*
X139821904Y-75800975D02*
X139879047Y-75781927D01*
X139879047Y-75781927D02*
X139917143Y-75781927D01*
X139917143Y-75781927D02*
X139974285Y-75800975D01*
X139974285Y-75800975D02*
X139993333Y-75820022D01*
X140336190Y-75915260D02*
X140336190Y-76181927D01*
X140240952Y-75762880D02*
X140145714Y-76048594D01*
X140145714Y-76048594D02*
X140393333Y-76048594D01*
D10*
X133009580Y-60709524D02*
X133057200Y-60757143D01*
X133057200Y-60757143D02*
X133104819Y-60900000D01*
X133104819Y-60900000D02*
X133104819Y-60995238D01*
X133104819Y-60995238D02*
X133057200Y-61138095D01*
X133057200Y-61138095D02*
X132961961Y-61233333D01*
X132961961Y-61233333D02*
X132866723Y-61280952D01*
X132866723Y-61280952D02*
X132676247Y-61328571D01*
X132676247Y-61328571D02*
X132533390Y-61328571D01*
X132533390Y-61328571D02*
X132342914Y-61280952D01*
X132342914Y-61280952D02*
X132247676Y-61233333D01*
X132247676Y-61233333D02*
X132152438Y-61138095D01*
X132152438Y-61138095D02*
X132104819Y-60995238D01*
X132104819Y-60995238D02*
X132104819Y-60900000D01*
X132104819Y-60900000D02*
X132152438Y-60757143D01*
X132152438Y-60757143D02*
X132200057Y-60709524D01*
X133104819Y-60138095D02*
X133057200Y-60233333D01*
X133057200Y-60233333D02*
X133009580Y-60280952D01*
X133009580Y-60280952D02*
X132914342Y-60328571D01*
X132914342Y-60328571D02*
X132628628Y-60328571D01*
X132628628Y-60328571D02*
X132533390Y-60280952D01*
X132533390Y-60280952D02*
X132485771Y-60233333D01*
X132485771Y-60233333D02*
X132438152Y-60138095D01*
X132438152Y-60138095D02*
X132438152Y-59995238D01*
X132438152Y-59995238D02*
X132485771Y-59900000D01*
X132485771Y-59900000D02*
X132533390Y-59852381D01*
X132533390Y-59852381D02*
X132628628Y-59804762D01*
X132628628Y-59804762D02*
X132914342Y-59804762D01*
X132914342Y-59804762D02*
X133009580Y-59852381D01*
X133009580Y-59852381D02*
X133057200Y-59900000D01*
X133057200Y-59900000D02*
X133104819Y-59995238D01*
X133104819Y-59995238D02*
X133104819Y-60138095D01*
X132438152Y-59376190D02*
X133104819Y-59376190D01*
X132533390Y-59376190D02*
X132485771Y-59328571D01*
X132485771Y-59328571D02*
X132438152Y-59233333D01*
X132438152Y-59233333D02*
X132438152Y-59090476D01*
X132438152Y-59090476D02*
X132485771Y-58995238D01*
X132485771Y-58995238D02*
X132581009Y-58947619D01*
X132581009Y-58947619D02*
X133104819Y-58947619D01*
X132438152Y-58471428D02*
X133104819Y-58471428D01*
X132533390Y-58471428D02*
X132485771Y-58423809D01*
X132485771Y-58423809D02*
X132438152Y-58328571D01*
X132438152Y-58328571D02*
X132438152Y-58185714D01*
X132438152Y-58185714D02*
X132485771Y-58090476D01*
X132485771Y-58090476D02*
X132581009Y-58042857D01*
X132581009Y-58042857D02*
X133104819Y-58042857D01*
X133200057Y-57804762D02*
X133200057Y-57042857D01*
X132104819Y-56614285D02*
X132104819Y-56519047D01*
X132104819Y-56519047D02*
X132152438Y-56423809D01*
X132152438Y-56423809D02*
X132200057Y-56376190D01*
X132200057Y-56376190D02*
X132295295Y-56328571D01*
X132295295Y-56328571D02*
X132485771Y-56280952D01*
X132485771Y-56280952D02*
X132723866Y-56280952D01*
X132723866Y-56280952D02*
X132914342Y-56328571D01*
X132914342Y-56328571D02*
X133009580Y-56376190D01*
X133009580Y-56376190D02*
X133057200Y-56423809D01*
X133057200Y-56423809D02*
X133104819Y-56519047D01*
X133104819Y-56519047D02*
X133104819Y-56614285D01*
X133104819Y-56614285D02*
X133057200Y-56709523D01*
X133057200Y-56709523D02*
X133009580Y-56757142D01*
X133009580Y-56757142D02*
X132914342Y-56804761D01*
X132914342Y-56804761D02*
X132723866Y-56852380D01*
X132723866Y-56852380D02*
X132485771Y-56852380D01*
X132485771Y-56852380D02*
X132295295Y-56804761D01*
X132295295Y-56804761D02*
X132200057Y-56757142D01*
X132200057Y-56757142D02*
X132152438Y-56709523D01*
X132152438Y-56709523D02*
X132104819Y-56614285D01*
X133104819Y-55328571D02*
X133104819Y-55899999D01*
X133104819Y-55614285D02*
X132104819Y-55614285D01*
X132104819Y-55614285D02*
X132247676Y-55709523D01*
X132247676Y-55709523D02*
X132342914Y-55804761D01*
X132342914Y-55804761D02*
X132390533Y-55899999D01*
X133104819Y-54995237D02*
X132438152Y-54471428D01*
X132438152Y-54995237D02*
X133104819Y-54471428D01*
X132104819Y-53899999D02*
X132104819Y-53804761D01*
X132104819Y-53804761D02*
X132152438Y-53709523D01*
X132152438Y-53709523D02*
X132200057Y-53661904D01*
X132200057Y-53661904D02*
X132295295Y-53614285D01*
X132295295Y-53614285D02*
X132485771Y-53566666D01*
X132485771Y-53566666D02*
X132723866Y-53566666D01*
X132723866Y-53566666D02*
X132914342Y-53614285D01*
X132914342Y-53614285D02*
X133009580Y-53661904D01*
X133009580Y-53661904D02*
X133057200Y-53709523D01*
X133057200Y-53709523D02*
X133104819Y-53804761D01*
X133104819Y-53804761D02*
X133104819Y-53899999D01*
X133104819Y-53899999D02*
X133057200Y-53995237D01*
X133057200Y-53995237D02*
X133009580Y-54042856D01*
X133009580Y-54042856D02*
X132914342Y-54090475D01*
X132914342Y-54090475D02*
X132723866Y-54138094D01*
X132723866Y-54138094D02*
X132485771Y-54138094D01*
X132485771Y-54138094D02*
X132295295Y-54090475D01*
X132295295Y-54090475D02*
X132200057Y-54042856D01*
X132200057Y-54042856D02*
X132152438Y-53995237D01*
X132152438Y-53995237D02*
X132104819Y-53899999D01*
X132104819Y-52661904D02*
X132104819Y-53138094D01*
X132104819Y-53138094D02*
X132581009Y-53185713D01*
X132581009Y-53185713D02*
X132533390Y-53138094D01*
X132533390Y-53138094D02*
X132485771Y-53042856D01*
X132485771Y-53042856D02*
X132485771Y-52804761D01*
X132485771Y-52804761D02*
X132533390Y-52709523D01*
X132533390Y-52709523D02*
X132581009Y-52661904D01*
X132581009Y-52661904D02*
X132676247Y-52614285D01*
X132676247Y-52614285D02*
X132914342Y-52614285D01*
X132914342Y-52614285D02*
X133009580Y-52661904D01*
X133009580Y-52661904D02*
X133057200Y-52709523D01*
X133057200Y-52709523D02*
X133104819Y-52804761D01*
X133104819Y-52804761D02*
X133104819Y-53042856D01*
X133104819Y-53042856D02*
X133057200Y-53138094D01*
X133057200Y-53138094D02*
X133009580Y-53185713D01*
X133200057Y-52423809D02*
X133200057Y-51661904D01*
X133104819Y-51423808D02*
X132104819Y-51423808D01*
X132104819Y-51423808D02*
X132104819Y-51042856D01*
X132104819Y-51042856D02*
X132152438Y-50947618D01*
X132152438Y-50947618D02*
X132200057Y-50899999D01*
X132200057Y-50899999D02*
X132295295Y-50852380D01*
X132295295Y-50852380D02*
X132438152Y-50852380D01*
X132438152Y-50852380D02*
X132533390Y-50899999D01*
X132533390Y-50899999D02*
X132581009Y-50947618D01*
X132581009Y-50947618D02*
X132628628Y-51042856D01*
X132628628Y-51042856D02*
X132628628Y-51423808D01*
X133104819Y-50423808D02*
X132438152Y-50423808D01*
X132104819Y-50423808D02*
X132152438Y-50471427D01*
X132152438Y-50471427D02*
X132200057Y-50423808D01*
X132200057Y-50423808D02*
X132152438Y-50376189D01*
X132152438Y-50376189D02*
X132104819Y-50423808D01*
X132104819Y-50423808D02*
X132200057Y-50423808D01*
X132438152Y-49947618D02*
X133104819Y-49947618D01*
X132533390Y-49947618D02*
X132485771Y-49899999D01*
X132485771Y-49899999D02*
X132438152Y-49804761D01*
X132438152Y-49804761D02*
X132438152Y-49661904D01*
X132438152Y-49661904D02*
X132485771Y-49566666D01*
X132485771Y-49566666D02*
X132581009Y-49519047D01*
X132581009Y-49519047D02*
X133104819Y-49519047D01*
X139726666Y-54854819D02*
X139726666Y-55569104D01*
X139726666Y-55569104D02*
X139679047Y-55711961D01*
X139679047Y-55711961D02*
X139583809Y-55807200D01*
X139583809Y-55807200D02*
X139440952Y-55854819D01*
X139440952Y-55854819D02*
X139345714Y-55854819D01*
X140679047Y-54854819D02*
X140202857Y-54854819D01*
X140202857Y-54854819D02*
X140155238Y-55331009D01*
X140155238Y-55331009D02*
X140202857Y-55283390D01*
X140202857Y-55283390D02*
X140298095Y-55235771D01*
X140298095Y-55235771D02*
X140536190Y-55235771D01*
X140536190Y-55235771D02*
X140631428Y-55283390D01*
X140631428Y-55283390D02*
X140679047Y-55331009D01*
X140679047Y-55331009D02*
X140726666Y-55426247D01*
X140726666Y-55426247D02*
X140726666Y-55664342D01*
X140726666Y-55664342D02*
X140679047Y-55759580D01*
X140679047Y-55759580D02*
X140631428Y-55807200D01*
X140631428Y-55807200D02*
X140536190Y-55854819D01*
X140536190Y-55854819D02*
X140298095Y-55854819D01*
X140298095Y-55854819D02*
X140202857Y-55807200D01*
X140202857Y-55807200D02*
X140155238Y-55759580D01*
X121226666Y-53004819D02*
X121798094Y-53004819D01*
X121512380Y-54004819D02*
X121512380Y-53004819D01*
X122512380Y-53957200D02*
X122417142Y-54004819D01*
X122417142Y-54004819D02*
X122226666Y-54004819D01*
X122226666Y-54004819D02*
X122131428Y-53957200D01*
X122131428Y-53957200D02*
X122083809Y-53861961D01*
X122083809Y-53861961D02*
X122083809Y-53481009D01*
X122083809Y-53481009D02*
X122131428Y-53385771D01*
X122131428Y-53385771D02*
X122226666Y-53338152D01*
X122226666Y-53338152D02*
X122417142Y-53338152D01*
X122417142Y-53338152D02*
X122512380Y-53385771D01*
X122512380Y-53385771D02*
X122559999Y-53481009D01*
X122559999Y-53481009D02*
X122559999Y-53576247D01*
X122559999Y-53576247D02*
X122083809Y-53671485D01*
X122940952Y-53957200D02*
X123036190Y-54004819D01*
X123036190Y-54004819D02*
X123226666Y-54004819D01*
X123226666Y-54004819D02*
X123321904Y-53957200D01*
X123321904Y-53957200D02*
X123369523Y-53861961D01*
X123369523Y-53861961D02*
X123369523Y-53814342D01*
X123369523Y-53814342D02*
X123321904Y-53719104D01*
X123321904Y-53719104D02*
X123226666Y-53671485D01*
X123226666Y-53671485D02*
X123083809Y-53671485D01*
X123083809Y-53671485D02*
X122988571Y-53623866D01*
X122988571Y-53623866D02*
X122940952Y-53528628D01*
X122940952Y-53528628D02*
X122940952Y-53481009D01*
X122940952Y-53481009D02*
X122988571Y-53385771D01*
X122988571Y-53385771D02*
X123083809Y-53338152D01*
X123083809Y-53338152D02*
X123226666Y-53338152D01*
X123226666Y-53338152D02*
X123321904Y-53385771D01*
X123655238Y-53338152D02*
X124036190Y-53338152D01*
X123798095Y-53004819D02*
X123798095Y-53861961D01*
X123798095Y-53861961D02*
X123845714Y-53957200D01*
X123845714Y-53957200D02*
X123940952Y-54004819D01*
X123940952Y-54004819D02*
X124036190Y-54004819D01*
X124369524Y-54004819D02*
X124369524Y-53004819D01*
X124369524Y-53004819D02*
X124750476Y-53004819D01*
X124750476Y-53004819D02*
X124845714Y-53052438D01*
X124845714Y-53052438D02*
X124893333Y-53100057D01*
X124893333Y-53100057D02*
X124940952Y-53195295D01*
X124940952Y-53195295D02*
X124940952Y-53338152D01*
X124940952Y-53338152D02*
X124893333Y-53433390D01*
X124893333Y-53433390D02*
X124845714Y-53481009D01*
X124845714Y-53481009D02*
X124750476Y-53528628D01*
X124750476Y-53528628D02*
X124369524Y-53528628D01*
X125512381Y-54004819D02*
X125417143Y-53957200D01*
X125417143Y-53957200D02*
X125369524Y-53909580D01*
X125369524Y-53909580D02*
X125321905Y-53814342D01*
X125321905Y-53814342D02*
X125321905Y-53528628D01*
X125321905Y-53528628D02*
X125369524Y-53433390D01*
X125369524Y-53433390D02*
X125417143Y-53385771D01*
X125417143Y-53385771D02*
X125512381Y-53338152D01*
X125512381Y-53338152D02*
X125655238Y-53338152D01*
X125655238Y-53338152D02*
X125750476Y-53385771D01*
X125750476Y-53385771D02*
X125798095Y-53433390D01*
X125798095Y-53433390D02*
X125845714Y-53528628D01*
X125845714Y-53528628D02*
X125845714Y-53814342D01*
X125845714Y-53814342D02*
X125798095Y-53909580D01*
X125798095Y-53909580D02*
X125750476Y-53957200D01*
X125750476Y-53957200D02*
X125655238Y-54004819D01*
X125655238Y-54004819D02*
X125512381Y-54004819D01*
X126274286Y-54004819D02*
X126274286Y-53338152D01*
X126274286Y-53004819D02*
X126226667Y-53052438D01*
X126226667Y-53052438D02*
X126274286Y-53100057D01*
X126274286Y-53100057D02*
X126321905Y-53052438D01*
X126321905Y-53052438D02*
X126274286Y-53004819D01*
X126274286Y-53004819D02*
X126274286Y-53100057D01*
X126750476Y-53338152D02*
X126750476Y-54004819D01*
X126750476Y-53433390D02*
X126798095Y-53385771D01*
X126798095Y-53385771D02*
X126893333Y-53338152D01*
X126893333Y-53338152D02*
X127036190Y-53338152D01*
X127036190Y-53338152D02*
X127131428Y-53385771D01*
X127131428Y-53385771D02*
X127179047Y-53481009D01*
X127179047Y-53481009D02*
X127179047Y-54004819D01*
X127512381Y-53338152D02*
X127893333Y-53338152D01*
X127655238Y-53004819D02*
X127655238Y-53861961D01*
X127655238Y-53861961D02*
X127702857Y-53957200D01*
X127702857Y-53957200D02*
X127798095Y-54004819D01*
X127798095Y-54004819D02*
X127893333Y-54004819D01*
X123298095Y-48954819D02*
X123869523Y-48954819D01*
X123583809Y-49954819D02*
X123583809Y-48954819D01*
X124202857Y-49954819D02*
X124202857Y-48954819D01*
X124202857Y-48954819D02*
X124583809Y-48954819D01*
X124583809Y-48954819D02*
X124679047Y-49002438D01*
X124679047Y-49002438D02*
X124726666Y-49050057D01*
X124726666Y-49050057D02*
X124774285Y-49145295D01*
X124774285Y-49145295D02*
X124774285Y-49288152D01*
X124774285Y-49288152D02*
X124726666Y-49383390D01*
X124726666Y-49383390D02*
X124679047Y-49431009D01*
X124679047Y-49431009D02*
X124583809Y-49478628D01*
X124583809Y-49478628D02*
X124202857Y-49478628D01*
X125726666Y-49954819D02*
X125155238Y-49954819D01*
X125440952Y-49954819D02*
X125440952Y-48954819D01*
X125440952Y-48954819D02*
X125345714Y-49097676D01*
X125345714Y-49097676D02*
X125250476Y-49192914D01*
X125250476Y-49192914D02*
X125155238Y-49240533D01*
X134988571Y-83469104D02*
X135464761Y-83469104D01*
X134893333Y-83754819D02*
X135226666Y-82754819D01*
X135226666Y-82754819D02*
X135559999Y-83754819D01*
X135750476Y-82754819D02*
X136321904Y-82754819D01*
X136036190Y-83754819D02*
X136036190Y-82754819D01*
X136512381Y-83088152D02*
X136893333Y-83088152D01*
X136655238Y-82754819D02*
X136655238Y-83611961D01*
X136655238Y-83611961D02*
X136702857Y-83707200D01*
X136702857Y-83707200D02*
X136798095Y-83754819D01*
X136798095Y-83754819D02*
X136893333Y-83754819D01*
X137226667Y-83754819D02*
X137226667Y-83088152D01*
X137226667Y-82754819D02*
X137179048Y-82802438D01*
X137179048Y-82802438D02*
X137226667Y-82850057D01*
X137226667Y-82850057D02*
X137274286Y-82802438D01*
X137274286Y-82802438D02*
X137226667Y-82754819D01*
X137226667Y-82754819D02*
X137226667Y-82850057D01*
X137702857Y-83088152D02*
X137702857Y-83754819D01*
X137702857Y-83183390D02*
X137750476Y-83135771D01*
X137750476Y-83135771D02*
X137845714Y-83088152D01*
X137845714Y-83088152D02*
X137988571Y-83088152D01*
X137988571Y-83088152D02*
X138083809Y-83135771D01*
X138083809Y-83135771D02*
X138131428Y-83231009D01*
X138131428Y-83231009D02*
X138131428Y-83754819D01*
X138512381Y-83088152D02*
X138750476Y-83754819D01*
X138988571Y-83088152D02*
X138750476Y-83754819D01*
X138750476Y-83754819D02*
X138655238Y-83992914D01*
X138655238Y-83992914D02*
X138607619Y-84040533D01*
X138607619Y-84040533D02*
X138512381Y-84088152D01*
X139274286Y-82754819D02*
X139893333Y-82754819D01*
X139893333Y-82754819D02*
X139560000Y-83135771D01*
X139560000Y-83135771D02*
X139702857Y-83135771D01*
X139702857Y-83135771D02*
X139798095Y-83183390D01*
X139798095Y-83183390D02*
X139845714Y-83231009D01*
X139845714Y-83231009D02*
X139893333Y-83326247D01*
X139893333Y-83326247D02*
X139893333Y-83564342D01*
X139893333Y-83564342D02*
X139845714Y-83659580D01*
X139845714Y-83659580D02*
X139798095Y-83707200D01*
X139798095Y-83707200D02*
X139702857Y-83754819D01*
X139702857Y-83754819D02*
X139417143Y-83754819D01*
X139417143Y-83754819D02*
X139321905Y-83707200D01*
X139321905Y-83707200D02*
X139274286Y-83659580D01*
X140274286Y-82850057D02*
X140321905Y-82802438D01*
X140321905Y-82802438D02*
X140417143Y-82754819D01*
X140417143Y-82754819D02*
X140655238Y-82754819D01*
X140655238Y-82754819D02*
X140750476Y-82802438D01*
X140750476Y-82802438D02*
X140798095Y-82850057D01*
X140798095Y-82850057D02*
X140845714Y-82945295D01*
X140845714Y-82945295D02*
X140845714Y-83040533D01*
X140845714Y-83040533D02*
X140798095Y-83183390D01*
X140798095Y-83183390D02*
X140226667Y-83754819D01*
X140226667Y-83754819D02*
X140845714Y-83754819D01*
X141798095Y-83754819D02*
X141226667Y-83754819D01*
X141512381Y-83754819D02*
X141512381Y-82754819D01*
X141512381Y-82754819D02*
X141417143Y-82897676D01*
X141417143Y-82897676D02*
X141321905Y-82992914D01*
X141321905Y-82992914D02*
X141226667Y-83040533D01*
X142131429Y-82754819D02*
X142798095Y-82754819D01*
X142798095Y-82754819D02*
X142369524Y-83754819D01*
X143179048Y-83373866D02*
X143940953Y-83373866D01*
X144417143Y-83754819D02*
X144417143Y-82754819D01*
X144417143Y-82754819D02*
X144750476Y-83469104D01*
X144750476Y-83469104D02*
X145083809Y-82754819D01*
X145083809Y-82754819D02*
X145083809Y-83754819D01*
X139298095Y-79454819D02*
X139298095Y-80264342D01*
X139298095Y-80264342D02*
X139345714Y-80359580D01*
X139345714Y-80359580D02*
X139393333Y-80407200D01*
X139393333Y-80407200D02*
X139488571Y-80454819D01*
X139488571Y-80454819D02*
X139679047Y-80454819D01*
X139679047Y-80454819D02*
X139774285Y-80407200D01*
X139774285Y-80407200D02*
X139821904Y-80359580D01*
X139821904Y-80359580D02*
X139869523Y-80264342D01*
X139869523Y-80264342D02*
X139869523Y-79454819D01*
X140298095Y-79550057D02*
X140345714Y-79502438D01*
X140345714Y-79502438D02*
X140440952Y-79454819D01*
X140440952Y-79454819D02*
X140679047Y-79454819D01*
X140679047Y-79454819D02*
X140774285Y-79502438D01*
X140774285Y-79502438D02*
X140821904Y-79550057D01*
X140821904Y-79550057D02*
X140869523Y-79645295D01*
X140869523Y-79645295D02*
X140869523Y-79740533D01*
X140869523Y-79740533D02*
X140821904Y-79883390D01*
X140821904Y-79883390D02*
X140250476Y-80454819D01*
X140250476Y-80454819D02*
X140869523Y-80454819D01*
X118992092Y-89578545D02*
X119050726Y-89503497D01*
X119050726Y-89503497D02*
X119146885Y-89457765D01*
X119146885Y-89457765D02*
X119213726Y-89449558D01*
X119213726Y-89449558D02*
X119318092Y-89470668D01*
X119318092Y-89470668D02*
X119497507Y-89550413D01*
X119497507Y-89550413D02*
X119685128Y-89696999D01*
X119685128Y-89696999D02*
X119805908Y-89851792D01*
X119805908Y-89851792D02*
X119851640Y-89947951D01*
X119851640Y-89947951D02*
X119859847Y-90014792D01*
X119859847Y-90014792D02*
X119838737Y-90119158D01*
X119838737Y-90119158D02*
X119780102Y-90194207D01*
X119780102Y-90194207D02*
X119683944Y-90239938D01*
X119683944Y-90239938D02*
X119617102Y-90248145D01*
X119617102Y-90248145D02*
X119512736Y-90227035D01*
X119512736Y-90227035D02*
X119333322Y-90147291D01*
X119333322Y-90147291D02*
X119145700Y-90000705D01*
X119145700Y-90000705D02*
X119024920Y-89845911D01*
X119024920Y-89845911D02*
X118979189Y-89749753D01*
X118979189Y-89749753D02*
X118970981Y-89682911D01*
X118970981Y-89682911D02*
X118992092Y-89578545D01*
X120174129Y-89535183D02*
X120240971Y-89526976D01*
X120240971Y-89526976D02*
X120249178Y-89593818D01*
X120249178Y-89593818D02*
X120182336Y-89602025D01*
X120182336Y-89602025D02*
X120174129Y-89535183D01*
X120174129Y-89535183D02*
X120249178Y-89593818D01*
X120864839Y-88805807D02*
X120513032Y-89256099D01*
X120688936Y-89030953D02*
X119900925Y-88415292D01*
X119900925Y-88415292D02*
X119954863Y-88578292D01*
X119954863Y-88578292D02*
X119971278Y-88711975D01*
X119971278Y-88711975D02*
X119950168Y-88816341D01*
X120867208Y-87719928D02*
X121392549Y-88130369D01*
X120603353Y-88057647D02*
X121016121Y-88380137D01*
X121016121Y-88380137D02*
X121120487Y-88401247D01*
X121120487Y-88401247D02*
X121216646Y-88355515D01*
X121216646Y-88355515D02*
X121304597Y-88242942D01*
X121304597Y-88242942D02*
X121325707Y-88138576D01*
X121325707Y-88138576D02*
X121317500Y-88071735D01*
X121478174Y-87169966D02*
X121272953Y-87432637D01*
X121685721Y-87755126D02*
X120897710Y-87139465D01*
X120897710Y-87139465D02*
X121190882Y-86764221D01*
D11*
X121515028Y-89791183D02*
X121518311Y-89817919D01*
X121518311Y-89817919D02*
X121498140Y-89874675D01*
X121498140Y-89874675D02*
X121474686Y-89904695D01*
X121474686Y-89904695D02*
X121424496Y-89937997D01*
X121424496Y-89937997D02*
X121371023Y-89944563D01*
X121371023Y-89944563D02*
X121329276Y-89936119D01*
X121329276Y-89936119D02*
X121257511Y-89904221D01*
X121257511Y-89904221D02*
X121212481Y-89869040D01*
X121212481Y-89869040D02*
X121164169Y-89807123D01*
X121164169Y-89807123D02*
X121145877Y-89768659D01*
X121145877Y-89768659D02*
X121139311Y-89715186D01*
X121139311Y-89715186D02*
X121159482Y-89658430D01*
X121159482Y-89658430D02*
X121182936Y-89628411D01*
X121182936Y-89628411D02*
X121233126Y-89595108D01*
X121233126Y-89595108D02*
X121259863Y-89591826D01*
X121779585Y-89514442D02*
X121638863Y-89694559D01*
X121709224Y-89604500D02*
X121394020Y-89358236D01*
X121394020Y-89358236D02*
X121415595Y-89423436D01*
X121415595Y-89423436D02*
X121422161Y-89476909D01*
X121422161Y-89476909D02*
X121413717Y-89518655D01*
X122014123Y-89214248D02*
X121873400Y-89394364D01*
X121943762Y-89304306D02*
X121628557Y-89058041D01*
X121628557Y-89058041D02*
X121650133Y-89123241D01*
X121650133Y-89123241D02*
X121656698Y-89176715D01*
X121656698Y-89176715D02*
X121648254Y-89218461D01*
D12*
%TO.C,C2*%
X139260000Y-92400000D02*
X139260000Y-91600000D01*
X140860000Y-92400000D02*
X139260000Y-92400000D01*
X139260000Y-91600000D02*
X140860000Y-91600000D01*
X140860000Y-91600000D02*
X140860000Y-92400000D01*
%TO.C,C13*%
X124653425Y-76669213D02*
X123880685Y-76876268D01*
X124239315Y-75123732D02*
X124653425Y-76669213D01*
X123880685Y-76876268D02*
X123466575Y-75330787D01*
X123466575Y-75330787D02*
X124239315Y-75123732D01*
%TO.C,C3*%
X140860000Y-83600000D02*
X140860000Y-84400000D01*
X139260000Y-83600000D02*
X140860000Y-83600000D01*
X140860000Y-84400000D02*
X139260000Y-84400000D01*
X139260000Y-84400000D02*
X139260000Y-83600000D01*
%TO.C,J2*%
X133710000Y-103965000D02*
X134345000Y-103330000D01*
X133710000Y-105870000D02*
X133710000Y-103965000D01*
X134345000Y-103330000D02*
X146410000Y-103330000D01*
X146410000Y-103330000D02*
X146410000Y-105870000D01*
X146410000Y-105870000D02*
X133710000Y-105870000D01*
%TO.C,R1*%
X134647500Y-75700000D02*
X135472500Y-75700000D01*
X134647500Y-77300000D02*
X134647500Y-75700000D01*
X135472500Y-75700000D02*
X135472500Y-77300000D01*
X135472500Y-77300000D02*
X134647500Y-77300000D01*
%TO.C,C10*%
X158382675Y-71376673D02*
X157752267Y-70884144D01*
X159367733Y-70115856D02*
X158382675Y-71376673D01*
X157752267Y-70884144D02*
X158737325Y-69623327D01*
X158737325Y-69623327D02*
X159367733Y-70115856D01*
%TO.C,C15*%
X135460000Y-81800000D02*
X134660000Y-81800000D01*
X135460000Y-80200000D02*
X135460000Y-81800000D01*
X134660000Y-81800000D02*
X134660000Y-80200000D01*
X134660000Y-80200000D02*
X135460000Y-80200000D01*
%TO.C,C5*%
X139260000Y-68400000D02*
X139260000Y-67600000D01*
X140860000Y-68400000D02*
X139260000Y-68400000D01*
X139260000Y-67600000D02*
X140860000Y-67600000D01*
X140860000Y-67600000D02*
X140860000Y-68400000D01*
%TO.C,C8*%
X156653426Y-84669213D02*
X155880685Y-84876268D01*
X156239315Y-83123732D02*
X156653426Y-84669213D01*
X155880685Y-84876268D02*
X155466574Y-83330787D01*
X155466574Y-83330787D02*
X156239315Y-83123732D01*
%TO.C,C6*%
X139260000Y-60400000D02*
X139260000Y-59600000D01*
X140860000Y-60400000D02*
X139260000Y-60400000D01*
X139260000Y-59600000D02*
X140860000Y-59600000D01*
X140860000Y-59600000D02*
X140860000Y-60400000D01*
%TO.C,J3*%
X157185148Y-97154261D02*
X163535148Y-86155739D01*
X158834926Y-98106761D02*
X157185148Y-97154261D01*
X159702352Y-97874335D02*
X158834926Y-98106761D01*
X163535148Y-86155739D02*
X165734852Y-87425739D01*
X165734852Y-87425739D02*
X159702352Y-97874335D01*
%TO.C,C14*%
X122367733Y-70884144D02*
X121737325Y-71376673D01*
X121382675Y-69623327D02*
X122367733Y-70884144D01*
X121737325Y-71376673D02*
X120752267Y-70115856D01*
X120752267Y-70115856D02*
X121382675Y-69623327D01*
%TO.C,C12*%
X124239315Y-84876268D02*
X123466574Y-84669213D01*
X124653426Y-83330787D02*
X124239315Y-84876268D01*
X123466574Y-84669213D02*
X123880685Y-83123732D01*
X123880685Y-83123732D02*
X124653426Y-83330787D01*
%TO.C,J6*%
X114485148Y-72564261D02*
X120835148Y-61565739D01*
X116684852Y-73834261D02*
X114485148Y-72564261D01*
X120835148Y-61565739D02*
X122484926Y-62518239D01*
X122484926Y-62518239D02*
X122717352Y-63385665D01*
X122717352Y-63385665D02*
X116684852Y-73834261D01*
%TO.C,C7*%
X157752267Y-89115856D02*
X158382675Y-88623327D01*
X158737325Y-90376673D02*
X157752267Y-89115856D01*
X158382675Y-88623327D02*
X159367733Y-89884144D01*
X159367733Y-89884144D02*
X158737325Y-90376673D01*
%TO.C,C1*%
X139260000Y-100400000D02*
X139260000Y-99600000D01*
X140860000Y-100400000D02*
X139260000Y-100400000D01*
X139260000Y-99600000D02*
X140860000Y-99600000D01*
X140860000Y-99600000D02*
X140860000Y-100400000D01*
%TO.C,J4*%
X157148497Y-62812258D02*
X159348201Y-61542258D01*
X159348201Y-61542258D02*
X165698201Y-72540780D01*
X163180997Y-73260854D02*
X157148497Y-62812258D01*
X164048423Y-73493280D02*
X163180997Y-73260854D01*
X165698201Y-72540780D02*
X164048423Y-73493280D01*
%TO.C,C9*%
X156239315Y-76876269D02*
X155466574Y-76669212D01*
X156653426Y-75330788D02*
X156239315Y-76876269D01*
X155466574Y-76669212D02*
X155880685Y-75123731D01*
X155880685Y-75123731D02*
X156653426Y-75330788D01*
%TO.C,J1*%
X114802648Y-87985665D02*
X115035074Y-87118239D01*
X115035074Y-87118239D02*
X116684852Y-86165739D01*
X116684852Y-86165739D02*
X123034852Y-97164261D01*
X120835148Y-98434261D02*
X114802648Y-87985665D01*
X123034852Y-97164261D02*
X120835148Y-98434261D01*
%TO.C,C4*%
X140860000Y-75600000D02*
X140860000Y-76400000D01*
X139260000Y-75600000D02*
X140860000Y-75600000D01*
X140860000Y-76400000D02*
X139260000Y-76400000D01*
X139260000Y-76400000D02*
X139260000Y-75600000D01*
%TO.C,J5*%
X133710000Y-54130000D02*
X145775000Y-54130000D01*
X133710000Y-56670000D02*
X133710000Y-54130000D01*
X145775000Y-54130000D02*
X146410000Y-54765000D01*
X146410000Y-54765000D02*
X146410000Y-56670000D01*
X146410000Y-56670000D02*
X133710000Y-56670000D01*
%TO.C,U2*%
X138060000Y-79000000D02*
X139060000Y-78000000D01*
X138060000Y-82000000D02*
X138060000Y-79000000D01*
X139060000Y-78000000D02*
X142060000Y-78000000D01*
X142060000Y-78000000D02*
X142060000Y-82000000D01*
X142060000Y-82000000D02*
X138060000Y-82000000D01*
%TO.C,C11*%
X121737325Y-88623326D02*
X122367733Y-89115856D01*
X120752267Y-89884144D02*
X121737325Y-88623326D01*
X122367733Y-89115856D02*
X121382675Y-90376674D01*
X121382675Y-90376674D02*
X120752267Y-89884144D01*
%TD*%
M02*
