%TF.GenerationSoftware,KiCad,Pcbnew,8.0.8*%
%TF.CreationDate,2025-02-21T18:34:30-05:00*%
%TF.ProjectId,pcb_tile_game,7063625f-7469-46c6-955f-67616d652e6b,0.1*%
%TF.SameCoordinates,Original*%
%TF.FileFunction,Copper,L2,Bot*%
%TF.FilePolarity,Positive*%
%FSLAX46Y46*%
G04 Gerber Fmt 4.6, Leading zero omitted, Abs format (unit mm)*
G04 Created by KiCad (PCBNEW 8.0.8) date 2025-02-21 18:34:30*
%MOMM*%
%LPD*%
G01*
G04 APERTURE LIST*
G04 Aperture macros list*
%AMHorizOval*
0 Thick line with rounded ends*
0 $1 width*
0 $2 $3 position (X,Y) of the first rounded end (center of the circle)*
0 $4 $5 position (X,Y) of the second rounded end (center of the circle)*
0 Add line between two ends*
20,1,$1,$2,$3,$4,$5,0*
0 Add two circle primitives to create the rounded ends*
1,1,$1,$2,$3*
1,1,$1,$4,$5*%
%AMRotRect*
0 Rectangle, with rotation*
0 The origin of the aperture is its center*
0 $1 length*
0 $2 width*
0 $3 Rotation angle, in degrees counterclockwise*
0 Add horizontal line*
21,1,$1,$2,0,0,$3*%
G04 Aperture macros list end*
%TA.AperFunction,ComponentPad*%
%ADD10R,1.700000X1.700000*%
%TD*%
%TA.AperFunction,ComponentPad*%
%ADD11O,1.700000X1.700000*%
%TD*%
%TA.AperFunction,ComponentPad*%
%ADD12RotRect,1.700000X1.700000X150.000000*%
%TD*%
%TA.AperFunction,ComponentPad*%
%ADD13HorizOval,1.700000X0.000000X0.000000X0.000000X0.000000X0*%
%TD*%
%TA.AperFunction,ComponentPad*%
%ADD14RotRect,1.700000X1.700000X330.000000*%
%TD*%
%TA.AperFunction,ComponentPad*%
%ADD15HorizOval,1.700000X0.000000X0.000000X0.000000X0.000000X0*%
%TD*%
%TA.AperFunction,ComponentPad*%
%ADD16RotRect,1.700000X1.700000X210.000000*%
%TD*%
%TA.AperFunction,ComponentPad*%
%ADD17HorizOval,1.700000X0.000000X0.000000X0.000000X0.000000X0*%
%TD*%
%TA.AperFunction,ComponentPad*%
%ADD18RotRect,1.700000X1.700000X30.000000*%
%TD*%
%TA.AperFunction,ComponentPad*%
%ADD19HorizOval,1.700000X0.000000X0.000000X0.000000X0.000000X0*%
%TD*%
%TA.AperFunction,SMDPad,CuDef*%
%ADD20R,0.700000X0.700000*%
%TD*%
%TA.AperFunction,SMDPad,CuDef*%
%ADD21RotRect,0.700000X0.700000X255.000000*%
%TD*%
%TA.AperFunction,SMDPad,CuDef*%
%ADD22RotRect,0.700000X0.700000X308.000000*%
%TD*%
%TA.AperFunction,SMDPad,CuDef*%
%ADD23RotRect,0.700000X0.700000X285.000000*%
%TD*%
%TA.AperFunction,SMDPad,CuDef*%
%ADD24RotRect,0.700000X0.700000X232.000000*%
%TD*%
%TA.AperFunction,ViaPad*%
%ADD25C,0.600000*%
%TD*%
%TA.AperFunction,Conductor*%
%ADD26C,0.200000*%
%TD*%
G04 APERTURE END LIST*
D10*
%TO.P,J2,1,Pin_1*%
%TO.N,VCC*%
X134980000Y-104600000D03*
D11*
%TO.P,J2,2,Pin_2*%
%TO.N,/TX_J2*%
X137520000Y-104600000D03*
%TO.P,J2,3,Pin_3*%
%TO.N,/DATA_J2*%
X140060000Y-104600000D03*
%TO.P,J2,4,Pin_4*%
%TO.N,/RX_J2*%
X142600000Y-104600000D03*
%TO.P,J2,5,Pin_5*%
%TO.N,GND*%
X145140000Y-104600000D03*
%TD*%
D12*
%TO.P,J3,1,Pin_1*%
%TO.N,GND*%
X158920000Y-96689409D03*
D13*
%TO.P,J3,2,Pin_2*%
%TO.N,/TX_J3*%
X160190000Y-94489704D03*
%TO.P,J3,3,Pin_3*%
%TO.N,/DATA_J3*%
X161460000Y-92290000D03*
%TO.P,J3,4,Pin_4*%
%TO.N,/RX_J3*%
X162730000Y-90090295D03*
%TO.P,J3,5,Pin_5*%
%TO.N,VCC*%
X164000000Y-87890591D03*
%TD*%
D14*
%TO.P,J6,1,Pin_1*%
%TO.N,VCC*%
X121300000Y-63300591D03*
D15*
%TO.P,J6,2,Pin_2*%
%TO.N,/TX_J6*%
X120030000Y-65500296D03*
%TO.P,J6,3,Pin_3*%
%TO.N,/DATA_J6*%
X118760000Y-67700000D03*
%TO.P,J6,4,Pin_4*%
%TO.N,/RX_J6*%
X117490000Y-69899705D03*
%TO.P,J6,5,Pin_5*%
%TO.N,GND*%
X116220000Y-72099409D03*
%TD*%
D16*
%TO.P,J4,1,Pin_1*%
%TO.N,VCC*%
X163963349Y-72075928D03*
D17*
%TO.P,J4,2,Pin_2*%
%TO.N,/TX_J4*%
X162693349Y-69876223D03*
%TO.P,J4,3,Pin_3*%
%TO.N,/DATA_J4*%
X161423349Y-67676519D03*
%TO.P,J4,4,Pin_4*%
%TO.N,/RX_J4*%
X160153349Y-65476814D03*
%TO.P,J4,5,Pin_5*%
%TO.N,GND*%
X158883349Y-63277110D03*
%TD*%
D18*
%TO.P,J1,1,Pin_1*%
%TO.N,GND*%
X116220000Y-87900591D03*
D19*
%TO.P,J1,2,Pin_2*%
%TO.N,/TX_J1*%
X117490000Y-90100296D03*
%TO.P,J1,3,Pin_3*%
%TO.N,/DATA_J1*%
X118760000Y-92300000D03*
%TO.P,J1,4,Pin_4*%
%TO.N,/RX_J1*%
X120030000Y-94499705D03*
%TO.P,J1,5,Pin_5*%
%TO.N,VCC*%
X121300000Y-96699409D03*
%TD*%
D10*
%TO.P,J5,1,Pin_1*%
%TO.N,GND*%
X145140000Y-55400000D03*
D11*
%TO.P,J5,2,Pin_2*%
%TO.N,/TX_J5*%
X142600000Y-55400000D03*
%TO.P,J5,3,Pin_3*%
%TO.N,/DATA_J5*%
X140060000Y-55400000D03*
%TO.P,J5,4,Pin_4*%
%TO.N,/RX_J5*%
X137520000Y-55400000D03*
%TO.P,J5,5,Pin_5*%
%TO.N,VCC*%
X134980000Y-55400000D03*
%TD*%
D20*
%TO.P,D5,1,DOUT*%
%TO.N,Net-(D5-DOUT)*%
X140975000Y-67450000D03*
%TO.P,D5,2,VSS*%
%TO.N,GND*%
X140975000Y-68550000D03*
%TO.P,D5,3,DIN*%
%TO.N,Net-(D4-DOUT)*%
X139145000Y-68550000D03*
%TO.P,D5,4,VDD*%
%TO.N,VCC*%
X139145000Y-67450000D03*
%TD*%
%TO.P,D6,1,DOUT*%
%TO.N,unconnected-(D6-DOUT-Pad1)*%
X140975000Y-59450000D03*
%TO.P,D6,2,VSS*%
%TO.N,GND*%
X140975000Y-60550000D03*
%TO.P,D6,3,DIN*%
%TO.N,Net-(D5-DOUT)*%
X139145000Y-60550000D03*
%TO.P,D6,4,VDD*%
%TO.N,VCC*%
X139145000Y-59450000D03*
%TD*%
D21*
%TO.P,D9,1,DOUT*%
%TO.N,Net-(D10-DIN)*%
X155765561Y-74973827D03*
%TO.P,D9,2,VSS*%
%TO.N,GND*%
X156828077Y-75258528D03*
%TO.P,D9,3,DIN*%
%TO.N,Net-(D8-DOUT)*%
X156354439Y-77026173D03*
%TO.P,D9,4,VDD*%
%TO.N,VCC*%
X155291923Y-76741472D03*
%TD*%
D20*
%TO.P,D2,1,DOUT*%
%TO.N,Net-(D2-DOUT)*%
X140975000Y-91450000D03*
%TO.P,D2,2,VSS*%
%TO.N,GND*%
X140975000Y-92550000D03*
%TO.P,D2,3,DIN*%
%TO.N,Net-(D1-DOUT)*%
X139145000Y-92550000D03*
%TO.P,D2,4,VDD*%
%TO.N,VCC*%
X139145000Y-91450000D03*
%TD*%
D22*
%TO.P,D14,1,DOUT*%
%TO.N,unconnected-(D14-DOUT-Pad1)*%
X120563264Y-70117584D03*
%TO.P,D14,2,VSS*%
%TO.N,GND*%
X121430075Y-69440356D03*
%TO.P,D14,3,DIN*%
%TO.N,Net-(D13-DOUT)*%
X122556736Y-70882416D03*
%TO.P,D14,4,VDD*%
%TO.N,VCC*%
X121689925Y-71559644D03*
%TD*%
D20*
%TO.P,D1,1,DOUT*%
%TO.N,Net-(D1-DOUT)*%
X140975000Y-99450000D03*
%TO.P,D1,2,VSS*%
%TO.N,GND*%
X140975000Y-100550000D03*
%TO.P,D1,3,DIN*%
%TO.N,/LED_J2-J5*%
X139145000Y-100550000D03*
%TO.P,D1,4,VDD*%
%TO.N,VCC*%
X139145000Y-99450000D03*
%TD*%
D23*
%TO.P,D13,1,DOUT*%
%TO.N,Net-(D13-DOUT)*%
X123291921Y-75258528D03*
%TO.P,D13,2,VSS*%
%TO.N,GND*%
X124354440Y-74973827D03*
%TO.P,D13,3,DIN*%
%TO.N,Net-(D12-DOUT)*%
X124828079Y-76741472D03*
%TO.P,D13,4,VDD*%
%TO.N,VCC*%
X123765560Y-77026173D03*
%TD*%
D20*
%TO.P,D3,1,DOUT*%
%TO.N,Net-(D3-DOUT)*%
X140975000Y-83450000D03*
%TO.P,D3,2,VSS*%
%TO.N,GND*%
X140975000Y-84550000D03*
%TO.P,D3,3,DIN*%
%TO.N,Net-(D2-DOUT)*%
X139145000Y-84550000D03*
%TO.P,D3,4,VDD*%
%TO.N,VCC*%
X139145000Y-83450000D03*
%TD*%
D23*
%TO.P,D8,1,DOUT*%
%TO.N,Net-(D8-DOUT)*%
X155291921Y-83258528D03*
%TO.P,D8,2,VSS*%
%TO.N,GND*%
X156354440Y-82973827D03*
%TO.P,D8,3,DIN*%
%TO.N,Net-(D7-DOUT)*%
X156828079Y-84741472D03*
%TO.P,D8,4,VDD*%
%TO.N,VCC*%
X155765560Y-85026173D03*
%TD*%
D22*
%TO.P,D7,4,VDD*%
%TO.N,VCC*%
X158689924Y-90559644D03*
%TO.P,D7,3,DIN*%
%TO.N,/LED_J3-J4*%
X159556736Y-89882416D03*
%TO.P,D7,2,VSS*%
%TO.N,GND*%
X158430076Y-88440356D03*
%TO.P,D7,1,DOUT*%
%TO.N,Net-(D7-DOUT)*%
X157563264Y-89117584D03*
%TD*%
D20*
%TO.P,D4,1,DOUT*%
%TO.N,Net-(D4-DOUT)*%
X140975000Y-75450000D03*
%TO.P,D4,2,VSS*%
%TO.N,GND*%
X140975000Y-76550000D03*
%TO.P,D4,3,DIN*%
%TO.N,Net-(D3-DOUT)*%
X139145000Y-76550000D03*
%TO.P,D4,4,VDD*%
%TO.N,VCC*%
X139145000Y-75450000D03*
%TD*%
D21*
%TO.P,D12,1,DOUT*%
%TO.N,Net-(D12-DOUT)*%
X123765560Y-82973827D03*
%TO.P,D12,2,VSS*%
%TO.N,GND*%
X124828079Y-83258528D03*
%TO.P,D12,3,DIN*%
%TO.N,Net-(D11-DOUT)*%
X124354440Y-85026173D03*
%TO.P,D12,4,VDD*%
%TO.N,VCC*%
X123291921Y-84741472D03*
%TD*%
D24*
%TO.P,D11,1,DOUT*%
%TO.N,Net-(D11-DOUT)*%
X121689924Y-88440356D03*
%TO.P,D11,2,VSS*%
%TO.N,GND*%
X122556736Y-89117584D03*
%TO.P,D11,3,DIN*%
%TO.N,/LED_J1-J6*%
X121430076Y-90559644D03*
%TO.P,D11,4,VDD*%
%TO.N,VCC*%
X120563264Y-89882416D03*
%TD*%
%TO.P,D10,4,VDD*%
%TO.N,VCC*%
X157563264Y-70882416D03*
%TO.P,D10,3,DIN*%
%TO.N,Net-(D10-DIN)*%
X158430075Y-71559644D03*
%TO.P,D10,2,VSS*%
%TO.N,GND*%
X159556736Y-70117584D03*
%TO.P,D10,1,DOUT*%
%TO.N,unconnected-(D10-DOUT-Pad1)*%
X158689925Y-69440356D03*
%TD*%
D25*
%TO.N,GND*%
X122399855Y-88926271D03*
X124603407Y-83131087D03*
X124096148Y-74975794D03*
X121193088Y-69543091D03*
X159399722Y-69912488D03*
X156603409Y-75131087D03*
X156096148Y-82975795D03*
X158193086Y-88543090D03*
X140922500Y-100300002D03*
X140922500Y-92300002D03*
X140917986Y-84300002D03*
X140922500Y-76300002D03*
X140922500Y-68300002D03*
X140922500Y-60300002D03*
%TO.N,VCC*%
X139197500Y-59699998D03*
X135060000Y-81862500D03*
X135060000Y-74000000D03*
X121854604Y-71364358D03*
X123993453Y-76910757D03*
X123546990Y-84755465D03*
X120792589Y-89994961D03*
X157792588Y-70994960D03*
X155546990Y-76755464D03*
X155993453Y-84910757D03*
X158854604Y-90364358D03*
X139197500Y-67699998D03*
X139202014Y-75699998D03*
X139197500Y-83699998D03*
X139197500Y-91699998D03*
X139197500Y-99699998D03*
%TO.N,/LED_J1-J6*%
X122060000Y-91500000D03*
%TO.N,/LED_J2-J5*%
X139060000Y-101500000D03*
X143560000Y-101500000D03*
X143560000Y-82000000D03*
%TO.N,/LED_J3-J4*%
X159060000Y-86500000D03*
X150560000Y-86500000D03*
X150560000Y-76500000D03*
%TO.N,Net-(D5-DOUT)*%
X139060000Y-64000000D03*
X141060000Y-64000000D03*
%TO.N,Net-(D4-DOUT)*%
X139145000Y-72415000D03*
X141060000Y-72500000D03*
%TO.N,Net-(D2-DOUT)*%
X139060000Y-88000000D03*
X141060000Y-88000000D03*
%TO.N,Net-(D1-DOUT)*%
X141060000Y-96000000D03*
X139060000Y-96000000D03*
%TO.N,/TX_J6*%
X129060000Y-65750148D03*
%TO.N,/LED_J1-J6*%
X136560000Y-91500000D03*
X136734265Y-83674265D03*
%TO.N,/RX_J4*%
X152560000Y-65500000D03*
%TO.N,/TX_J3*%
X152560000Y-94489704D03*
%TO.N,/DATA_J4*%
X160560000Y-78900000D03*
%TO.N,/TX_J4*%
X161560000Y-79000000D03*
%TO.N,/RX_J3*%
X161560000Y-80250000D03*
%TO.N,/DATA_J3*%
X160560000Y-81000000D03*
%TO.N,/TX_J3*%
X152560000Y-81350000D03*
%TO.N,/RX_J2*%
X142560000Y-82717157D03*
%TO.N,/DATA_J2*%
X140060000Y-85000000D03*
%TO.N,/TX_J2*%
X137560000Y-83500000D03*
%TO.N,/RX_J4*%
X152560000Y-78650000D03*
%TO.N,/TX_J5*%
X142560000Y-75666722D03*
%TO.N,/DATA_J5*%
X140060000Y-75000000D03*
%TO.N,/RX_J5*%
X137627750Y-76750000D03*
%TO.N,/UPDI*%
X130060000Y-77500000D03*
%TO.N,/TX_J6*%
X129060000Y-78400000D03*
%TO.N,/DATA_J6*%
X119060000Y-78500000D03*
%TO.N,/RX_J6*%
X117560000Y-79000000D03*
%TO.N,/UPDI*%
X130060000Y-51500000D03*
%TO.N,/TX_J1*%
X118060000Y-87000000D03*
%TO.N,/DATA_J1*%
X119060000Y-87500000D03*
%TO.N,/RX_J1*%
X136005325Y-84003885D03*
%TD*%
D26*
%TO.N,Net-(D13-DOUT)*%
X123060000Y-71385680D02*
X122556736Y-70882416D01*
X123060000Y-75026607D02*
X123060000Y-71385680D01*
X123291921Y-75258528D02*
X123060000Y-75026607D01*
%TO.N,Net-(D12-DOUT)*%
X124828079Y-81911308D02*
X124828079Y-76741472D01*
X123765560Y-82973827D02*
X124828079Y-81911308D01*
%TO.N,Net-(D11-DOUT)*%
X124354440Y-86365867D02*
X124354440Y-85026173D01*
X122394008Y-88326299D02*
X124354440Y-86365867D01*
X121803981Y-88326299D02*
X122394008Y-88326299D01*
%TO.N,/LED_J1-J6*%
X122060000Y-91189568D02*
X121430076Y-90559644D01*
X122060000Y-91500000D02*
X122060000Y-91189568D01*
%TO.N,/LED_J2-J5*%
X143560000Y-101500000D02*
X143560000Y-82000000D01*
X139060000Y-101500000D02*
X139060000Y-100635000D01*
%TO.N,/LED_J3-J4*%
X159556736Y-86996736D02*
X159556736Y-89882416D01*
X159060000Y-86500000D02*
X159556736Y-86996736D01*
X150560000Y-76500000D02*
X150560000Y-86500000D01*
%TO.N,Net-(D10-DIN)*%
X157030133Y-74529867D02*
X158430075Y-73129925D01*
X156209521Y-74529867D02*
X157030133Y-74529867D01*
X158430075Y-73129925D02*
X158430075Y-71559644D01*
X155765561Y-74973827D02*
X156209521Y-74529867D01*
%TO.N,Net-(D8-DOUT)*%
X156060000Y-77320612D02*
X156354439Y-77026173D01*
X155291921Y-82268079D02*
X156060000Y-81500000D01*
X155291921Y-83258528D02*
X155291921Y-82268079D01*
X156060000Y-81500000D02*
X156060000Y-77320612D01*
%TO.N,Net-(D7-DOUT)*%
X157060000Y-84973393D02*
X156828079Y-84741472D01*
X157060000Y-88614320D02*
X157060000Y-84973393D01*
X157563264Y-89117584D02*
X157060000Y-88614320D01*
%TO.N,Net-(D5-DOUT)*%
X139060000Y-64000000D02*
X139060000Y-60635000D01*
X141060000Y-67000000D02*
X141060000Y-64000000D01*
X140975000Y-67085000D02*
X141060000Y-67000000D01*
X140975000Y-67450000D02*
X140975000Y-67085000D01*
%TO.N,Net-(D4-DOUT)*%
X141060000Y-72500000D02*
X141060000Y-75365000D01*
X139145000Y-72415000D02*
X139145000Y-68550000D01*
%TO.N,Net-(D3-DOUT)*%
X140975000Y-80415000D02*
X139145000Y-78585000D01*
X140975000Y-83450000D02*
X140975000Y-80415000D01*
X139145000Y-78585000D02*
X139145000Y-76550000D01*
%TO.N,Net-(D1-DOUT)*%
X141060000Y-96000000D02*
X141060000Y-99365000D01*
%TO.N,Net-(D2-DOUT)*%
X139145000Y-87915000D02*
X139145000Y-84550000D01*
X139060000Y-88000000D02*
X139145000Y-87915000D01*
X140975000Y-88085000D02*
X141060000Y-88000000D01*
X140975000Y-91450000D02*
X140975000Y-88085000D01*
%TO.N,Net-(D1-DOUT)*%
X139145000Y-95915000D02*
X139060000Y-96000000D01*
X139145000Y-92550000D02*
X139145000Y-95915000D01*
%TO.N,/TX_J6*%
X129060000Y-65750148D02*
X129060000Y-78400000D01*
%TO.N,/TX_J1*%
X118060000Y-89530296D02*
X117490000Y-90100296D01*
X118060000Y-87000000D02*
X118060000Y-89530296D01*
%TO.N,/DATA_J1*%
X119060000Y-87500000D02*
X119060000Y-92000000D01*
%TO.N,/RX_J1*%
X129560295Y-94499705D02*
X120030000Y-94499705D01*
X129560590Y-94500000D02*
X129560295Y-94499705D01*
X135960000Y-91748529D02*
X136013917Y-91802446D01*
X135960000Y-91251471D02*
X135960000Y-91748529D01*
X136013917Y-94500000D02*
X129560590Y-94500000D01*
X136013917Y-91197554D02*
X135960000Y-91251471D01*
X136013917Y-84012477D02*
X136013917Y-91197554D01*
X136013917Y-91802446D02*
X136013917Y-94500000D01*
X136005325Y-84003885D02*
X136013917Y-84012477D01*
%TO.N,/LED_J1-J6*%
X136734265Y-91325735D02*
X136734265Y-83674265D01*
X136560000Y-91500000D02*
X136734265Y-91325735D01*
%TO.N,/TX_J3*%
X152560000Y-94489704D02*
X152560000Y-81350000D01*
%TO.N,/TX_J4*%
X162060000Y-70509572D02*
X162693349Y-69876223D01*
X162060000Y-78500000D02*
X162060000Y-70509572D01*
X161560000Y-79000000D02*
X162060000Y-78500000D01*
%TO.N,/DATA_J4*%
X161060000Y-78400000D02*
X161060000Y-68039868D01*
X160560000Y-78900000D02*
X161060000Y-78400000D01*
%TO.N,/RX_J4*%
X152560000Y-78650000D02*
X152560000Y-65500000D01*
%TO.N,/DATA_J3*%
X161060000Y-81500000D02*
X161060000Y-91890000D01*
X160560000Y-81000000D02*
X161060000Y-81500000D01*
%TO.N,/RX_J3*%
X162060000Y-80750000D02*
X162060000Y-89420295D01*
X161560000Y-80250000D02*
X162060000Y-80750000D01*
X162060000Y-89420295D02*
X162730000Y-90090295D01*
%TO.N,/TX_J5*%
X142560000Y-75666722D02*
X142560000Y-55440000D01*
%TO.N,/DATA_J5*%
X140060000Y-55400000D02*
X140060000Y-75000000D01*
%TO.N,/RX_J5*%
X137560000Y-76682250D02*
X137560000Y-55440000D01*
X137627750Y-76750000D02*
X137560000Y-76682250D01*
%TO.N,/RX_J2*%
X142560000Y-82717157D02*
X142560000Y-104560000D01*
%TO.N,/DATA_J2*%
X140060000Y-85000000D02*
X140060000Y-104600000D01*
%TO.N,/TX_J2*%
X137560000Y-83500000D02*
X137560000Y-104560000D01*
%TO.N,/UPDI*%
X130060000Y-51500000D02*
X130060000Y-77500000D01*
%TO.N,/DATA_J6*%
X119060000Y-78500000D02*
X119060000Y-68000000D01*
%TO.N,/RX_J6*%
X117560000Y-79000000D02*
X117560000Y-69969705D01*
%TD*%
%TA.AperFunction,Conductor*%
%TO.N,VCC*%
G36*
X157092577Y-50519407D02*
G01*
X157120122Y-50549999D01*
X164349227Y-63071176D01*
X174094509Y-79950500D01*
X174107230Y-80010348D01*
X174094509Y-80049500D01*
X166355185Y-93454403D01*
X159310831Y-105655583D01*
X157120123Y-109450000D01*
X157074653Y-109490941D01*
X157034386Y-109499500D01*
X123085614Y-109499500D01*
X123027423Y-109480593D01*
X122999877Y-109450000D01*
X120799246Y-105638396D01*
X119697606Y-103730299D01*
X133930000Y-103730299D01*
X133930000Y-104499999D01*
X133930001Y-104500000D01*
X134489157Y-104500000D01*
X134480000Y-104534174D01*
X134480000Y-104665826D01*
X134489157Y-104700000D01*
X133930001Y-104700000D01*
X133930000Y-104700001D01*
X133930000Y-105469700D01*
X133941603Y-105528036D01*
X133985806Y-105594189D01*
X133985810Y-105594193D01*
X134051963Y-105638396D01*
X134110299Y-105649999D01*
X134110303Y-105650000D01*
X134879999Y-105650000D01*
X134880000Y-105649999D01*
X134880000Y-105090842D01*
X134914174Y-105100000D01*
X135045826Y-105100000D01*
X135080000Y-105090842D01*
X135080000Y-105649999D01*
X135080001Y-105650000D01*
X135849697Y-105650000D01*
X135849700Y-105649999D01*
X135908036Y-105638396D01*
X135974189Y-105594193D01*
X135974193Y-105594189D01*
X136018396Y-105528036D01*
X136029999Y-105469700D01*
X136030000Y-105469697D01*
X136030000Y-104700001D01*
X136029999Y-104700000D01*
X135470843Y-104700000D01*
X135480000Y-104665826D01*
X135480000Y-104534174D01*
X135470843Y-104500000D01*
X136029999Y-104500000D01*
X136030000Y-104499999D01*
X136030000Y-103730302D01*
X136029999Y-103730299D01*
X136018396Y-103671963D01*
X135974193Y-103605810D01*
X135974189Y-103605806D01*
X135908036Y-103561603D01*
X135849700Y-103550000D01*
X135080001Y-103550000D01*
X135080000Y-103550001D01*
X135080000Y-104109157D01*
X135045826Y-104100000D01*
X134914174Y-104100000D01*
X134880000Y-104109157D01*
X134880000Y-103550001D01*
X134879999Y-103550000D01*
X134110299Y-103550000D01*
X134051963Y-103561603D01*
X133985810Y-103605806D01*
X133985806Y-103605810D01*
X133941603Y-103671963D01*
X133930000Y-103730299D01*
X119697606Y-103730299D01*
X115638316Y-96699404D01*
X120244919Y-96699404D01*
X120244919Y-96699413D01*
X120265190Y-96905239D01*
X120265191Y-96905245D01*
X120325230Y-97103163D01*
X120325236Y-97103180D01*
X120343019Y-97136450D01*
X120343020Y-97136450D01*
X120824917Y-96858226D01*
X120834075Y-96892402D01*
X120899901Y-97006416D01*
X120924917Y-97031432D01*
X120442661Y-97309863D01*
X120442661Y-97309864D01*
X120553947Y-97445466D01*
X120713829Y-97576677D01*
X120713839Y-97576684D01*
X120896232Y-97674174D01*
X120896237Y-97674176D01*
X121094163Y-97734217D01*
X121094169Y-97734218D01*
X121299996Y-97754490D01*
X121300004Y-97754490D01*
X121505830Y-97734218D01*
X121505836Y-97734217D01*
X121703761Y-97674177D01*
X121737042Y-97656387D01*
X121458818Y-97174491D01*
X121492993Y-97165334D01*
X121607007Y-97099508D01*
X121632024Y-97074490D01*
X121910455Y-97556746D01*
X122046049Y-97445468D01*
X122046058Y-97445459D01*
X122177268Y-97285579D01*
X122177275Y-97285569D01*
X122274765Y-97103176D01*
X122274767Y-97103171D01*
X122334808Y-96905245D01*
X122334809Y-96905239D01*
X122355081Y-96699413D01*
X122355081Y-96699404D01*
X122334809Y-96493578D01*
X122334808Y-96493572D01*
X122274767Y-96295646D01*
X122274765Y-96295641D01*
X122256979Y-96262366D01*
X122256978Y-96262366D01*
X121775081Y-96540589D01*
X121765925Y-96506416D01*
X121700099Y-96392402D01*
X121675080Y-96367383D01*
X122157337Y-96088953D01*
X122157337Y-96088952D01*
X122046052Y-95953351D01*
X121886170Y-95822140D01*
X121886160Y-95822133D01*
X121703767Y-95724643D01*
X121703762Y-95724641D01*
X121505836Y-95664600D01*
X121505830Y-95664599D01*
X121300004Y-95644328D01*
X121299996Y-95644328D01*
X121094169Y-95664599D01*
X121094163Y-95664600D01*
X120896241Y-95724640D01*
X120896232Y-95724643D01*
X120862956Y-95742429D01*
X120862956Y-95742430D01*
X121141180Y-96224327D01*
X121107007Y-96233484D01*
X120992993Y-96299310D01*
X120967975Y-96324327D01*
X120689544Y-95842070D01*
X120689543Y-95842070D01*
X120553942Y-95953356D01*
X120422731Y-96113238D01*
X120422724Y-96113248D01*
X120325234Y-96295641D01*
X120325232Y-96295646D01*
X120265191Y-96493572D01*
X120265190Y-96493578D01*
X120244919Y-96699404D01*
X115638316Y-96699404D01*
X114368317Y-94499701D01*
X118974417Y-94499701D01*
X118974417Y-94499708D01*
X118994698Y-94705634D01*
X118994699Y-94705639D01*
X119054768Y-94903659D01*
X119152316Y-95086157D01*
X119275382Y-95236114D01*
X119283590Y-95246115D01*
X119283595Y-95246119D01*
X119443547Y-95377388D01*
X119443548Y-95377388D01*
X119443550Y-95377390D01*
X119626046Y-95474937D01*
X119763997Y-95516783D01*
X119824065Y-95535005D01*
X119824070Y-95535006D01*
X120029997Y-95555288D01*
X120030000Y-95555288D01*
X120030003Y-95555288D01*
X120235929Y-95535006D01*
X120235934Y-95535005D01*
X120433954Y-95474937D01*
X120616450Y-95377390D01*
X120776410Y-95246115D01*
X120907685Y-95086155D01*
X121005232Y-94903659D01*
X121015300Y-94870467D01*
X121050284Y-94820271D01*
X121108092Y-94800224D01*
X121110037Y-94800205D01*
X129512298Y-94800205D01*
X129516798Y-94800500D01*
X129521028Y-94800500D01*
X136053480Y-94800500D01*
X136053480Y-94800499D01*
X136129906Y-94780021D01*
X136198428Y-94740460D01*
X136254377Y-94684511D01*
X136293938Y-94615989D01*
X136314417Y-94539562D01*
X136314417Y-92081768D01*
X136333324Y-92023577D01*
X136382824Y-91987613D01*
X136441309Y-91986779D01*
X136488039Y-92000500D01*
X136488041Y-92000500D01*
X136631959Y-92000500D01*
X136631961Y-92000500D01*
X136770053Y-91959953D01*
X136891128Y-91882143D01*
X136985377Y-91773373D01*
X137045165Y-91642457D01*
X137050069Y-91608345D01*
X137062508Y-91521835D01*
X137072217Y-91502087D01*
X137062508Y-91478164D01*
X137045166Y-91357547D01*
X137045165Y-91357544D01*
X137043709Y-91354355D01*
X137034765Y-91313233D01*
X137034765Y-84128158D01*
X137053672Y-84069967D01*
X137061005Y-84061977D01*
X137060755Y-84061760D01*
X137065391Y-84056408D01*
X137065393Y-84056408D01*
X137085682Y-84032992D01*
X137138075Y-84001397D01*
X137199036Y-84006632D01*
X137245278Y-84046699D01*
X137259500Y-84097824D01*
X137259500Y-91464075D01*
X137249402Y-91495151D01*
X137259500Y-91535924D01*
X137259500Y-103507828D01*
X137240593Y-103566019D01*
X137191093Y-103601983D01*
X137189239Y-103602565D01*
X137157760Y-103612114D01*
X137116046Y-103624768D01*
X137116044Y-103624768D01*
X137116044Y-103624769D01*
X136933547Y-103722316D01*
X136773595Y-103853585D01*
X136773585Y-103853595D01*
X136642316Y-104013547D01*
X136544768Y-104196045D01*
X136484699Y-104394065D01*
X136484698Y-104394070D01*
X136464417Y-104599996D01*
X136464417Y-104600003D01*
X136484698Y-104805929D01*
X136484699Y-104805934D01*
X136544768Y-105003954D01*
X136642316Y-105186452D01*
X136773585Y-105346404D01*
X136773590Y-105346410D01*
X136773595Y-105346414D01*
X136933547Y-105477683D01*
X136933548Y-105477683D01*
X136933550Y-105477685D01*
X137116046Y-105575232D01*
X137253997Y-105617078D01*
X137314065Y-105635300D01*
X137314070Y-105635301D01*
X137519997Y-105655583D01*
X137520000Y-105655583D01*
X137520003Y-105655583D01*
X137725929Y-105635301D01*
X137725934Y-105635300D01*
X137923954Y-105575232D01*
X138106450Y-105477685D01*
X138266410Y-105346410D01*
X138397685Y-105186450D01*
X138495232Y-105003954D01*
X138555300Y-104805934D01*
X138555301Y-104805929D01*
X138575583Y-104600003D01*
X138575583Y-104599996D01*
X138555301Y-104394070D01*
X138555300Y-104394065D01*
X138496401Y-104199901D01*
X138495232Y-104196046D01*
X138397685Y-104013550D01*
X138266410Y-103853590D01*
X138266404Y-103853585D01*
X138106452Y-103722316D01*
X138012249Y-103671963D01*
X137923954Y-103624768D01*
X137923953Y-103624767D01*
X137923948Y-103624765D01*
X137921607Y-103623795D01*
X137920726Y-103623043D01*
X137919664Y-103622475D01*
X137919788Y-103622241D01*
X137875084Y-103584054D01*
X137860500Y-103532334D01*
X137860500Y-99080299D01*
X138595000Y-99080299D01*
X138595000Y-99349999D01*
X138595001Y-99350000D01*
X139045000Y-99350000D01*
X139045000Y-98900001D01*
X139044999Y-98900000D01*
X138775299Y-98900000D01*
X138716963Y-98911603D01*
X138650810Y-98955806D01*
X138650806Y-98955810D01*
X138606603Y-99021963D01*
X138595000Y-99080299D01*
X137860500Y-99080299D01*
X137860500Y-91080299D01*
X138595000Y-91080299D01*
X138595000Y-91349999D01*
X138595001Y-91350000D01*
X139045000Y-91350000D01*
X139045000Y-90900001D01*
X139044999Y-90900000D01*
X138775299Y-90900000D01*
X138716963Y-90911603D01*
X138650810Y-90955806D01*
X138650806Y-90955810D01*
X138606603Y-91021963D01*
X138595000Y-91080299D01*
X137860500Y-91080299D01*
X137860500Y-87999997D01*
X138554353Y-87999997D01*
X138554353Y-88000002D01*
X138574834Y-88142456D01*
X138633361Y-88270610D01*
X138634623Y-88273373D01*
X138723093Y-88375474D01*
X138728873Y-88382144D01*
X138835714Y-88450806D01*
X138849947Y-88459953D01*
X138951765Y-88489849D01*
X138988035Y-88500499D01*
X138988036Y-88500499D01*
X138988039Y-88500500D01*
X138988041Y-88500500D01*
X139131959Y-88500500D01*
X139131961Y-88500500D01*
X139270053Y-88459953D01*
X139391128Y-88382143D01*
X139485377Y-88273373D01*
X139545165Y-88142457D01*
X139554117Y-88080197D01*
X139562508Y-88021835D01*
X139572217Y-88002087D01*
X139562508Y-87978164D01*
X139545165Y-87857543D01*
X139543541Y-87853986D01*
X139485377Y-87726627D01*
X139483767Y-87724769D01*
X139469679Y-87708509D01*
X139445863Y-87652149D01*
X139445500Y-87643680D01*
X139445500Y-85314346D01*
X139464407Y-85256155D01*
X139513907Y-85220191D01*
X139575093Y-85220191D01*
X139624593Y-85256155D01*
X139634551Y-85273215D01*
X139634623Y-85273373D01*
X139634624Y-85273374D01*
X139634625Y-85273376D01*
X139657992Y-85300343D01*
X139720347Y-85372305D01*
X139733509Y-85387494D01*
X139731471Y-85389259D01*
X139756925Y-85431458D01*
X139759500Y-85453893D01*
X139759500Y-87964075D01*
X139749402Y-87995151D01*
X139759500Y-88035924D01*
X139759500Y-90850979D01*
X139740593Y-90909170D01*
X139691093Y-90945134D01*
X139629907Y-90945134D01*
X139605499Y-90933294D01*
X139573039Y-90911604D01*
X139573036Y-90911603D01*
X139514700Y-90900000D01*
X139245001Y-90900000D01*
X139245000Y-90900001D01*
X139245000Y-91351000D01*
X139226093Y-91409191D01*
X139176593Y-91445155D01*
X139146000Y-91450000D01*
X139145000Y-91450000D01*
X139145000Y-91451000D01*
X139126093Y-91509191D01*
X139076593Y-91545155D01*
X139046000Y-91550000D01*
X138595001Y-91550000D01*
X138595000Y-91550001D01*
X138595000Y-91819700D01*
X138606603Y-91878036D01*
X138651046Y-91944548D01*
X138667655Y-92003436D01*
X138651046Y-92054552D01*
X138606134Y-92121766D01*
X138606132Y-92121772D01*
X138594501Y-92180241D01*
X138594500Y-92180253D01*
X138594500Y-92919746D01*
X138594501Y-92919758D01*
X138606132Y-92978227D01*
X138606134Y-92978233D01*
X138645010Y-93036414D01*
X138650448Y-93044552D01*
X138716769Y-93088867D01*
X138764816Y-93098424D01*
X138818198Y-93128320D01*
X138843814Y-93183885D01*
X138844500Y-93195521D01*
X138844500Y-95489488D01*
X138825593Y-95547679D01*
X138799024Y-95572771D01*
X138728874Y-95617854D01*
X138634622Y-95726628D01*
X138574834Y-95857543D01*
X138554353Y-95999997D01*
X138554353Y-96000002D01*
X138574834Y-96142456D01*
X138616406Y-96233484D01*
X138634623Y-96273373D01*
X138728872Y-96382143D01*
X138728873Y-96382144D01*
X138840517Y-96453893D01*
X138849947Y-96459953D01*
X138956403Y-96491211D01*
X138988035Y-96500499D01*
X138988036Y-96500499D01*
X138988039Y-96500500D01*
X138988041Y-96500500D01*
X139131959Y-96500500D01*
X139131961Y-96500500D01*
X139270053Y-96459953D01*
X139391128Y-96382143D01*
X139485377Y-96273373D01*
X139545165Y-96142457D01*
X139562508Y-96021835D01*
X139572217Y-96002087D01*
X139562508Y-95978164D01*
X139545165Y-95857543D01*
X139528997Y-95822140D01*
X139485377Y-95726627D01*
X139483655Y-95724640D01*
X139469679Y-95708509D01*
X139445863Y-95652149D01*
X139445500Y-95643680D01*
X139445500Y-93195521D01*
X139464407Y-93137330D01*
X139513907Y-93101366D01*
X139525173Y-93098426D01*
X139573231Y-93088867D01*
X139605500Y-93067305D01*
X139664385Y-93050697D01*
X139721789Y-93071874D01*
X139755783Y-93122747D01*
X139759500Y-93149621D01*
X139759500Y-95964075D01*
X139749402Y-95995151D01*
X139759500Y-96035924D01*
X139759500Y-98850979D01*
X139740593Y-98909170D01*
X139691093Y-98945134D01*
X139629907Y-98945134D01*
X139605499Y-98933294D01*
X139573039Y-98911604D01*
X139573036Y-98911603D01*
X139514700Y-98900000D01*
X139245001Y-98900000D01*
X139245000Y-98900001D01*
X139245000Y-99351000D01*
X139226093Y-99409191D01*
X139176593Y-99445155D01*
X139146000Y-99450000D01*
X139145000Y-99450000D01*
X139145000Y-99451000D01*
X139126093Y-99509191D01*
X139076593Y-99545155D01*
X139046000Y-99550000D01*
X138595001Y-99550000D01*
X138595000Y-99550001D01*
X138595000Y-99819700D01*
X138606603Y-99878036D01*
X138651046Y-99944548D01*
X138667655Y-100003436D01*
X138651046Y-100054552D01*
X138606134Y-100121766D01*
X138606132Y-100121772D01*
X138594501Y-100180241D01*
X138594500Y-100180253D01*
X138594500Y-100919746D01*
X138594501Y-100919758D01*
X138606132Y-100978227D01*
X138606133Y-100978231D01*
X138650448Y-101044552D01*
X138650451Y-101044554D01*
X138657343Y-101051446D01*
X138655624Y-101053164D01*
X138684920Y-101090324D01*
X138687323Y-101151462D01*
X138666861Y-101189420D01*
X138634623Y-101226626D01*
X138574834Y-101357543D01*
X138554353Y-101499997D01*
X138554353Y-101500002D01*
X138574834Y-101642456D01*
X138634622Y-101773371D01*
X138634623Y-101773373D01*
X138728872Y-101882143D01*
X138728873Y-101882144D01*
X138849942Y-101959950D01*
X138849947Y-101959953D01*
X138956403Y-101991211D01*
X138988035Y-102000499D01*
X138988036Y-102000499D01*
X138988039Y-102000500D01*
X138988041Y-102000500D01*
X139131959Y-102000500D01*
X139131961Y-102000500D01*
X139270053Y-101959953D01*
X139391128Y-101882143D01*
X139485377Y-101773373D01*
X139545165Y-101642457D01*
X139562508Y-101521835D01*
X139572217Y-101502087D01*
X139562508Y-101478164D01*
X139545165Y-101357543D01*
X139486996Y-101230173D01*
X139480021Y-101169386D01*
X139510107Y-101116109D01*
X139557733Y-101091949D01*
X139573231Y-101088867D01*
X139605500Y-101067305D01*
X139664385Y-101050697D01*
X139721789Y-101071874D01*
X139755783Y-101122747D01*
X139759500Y-101149621D01*
X139759500Y-101464075D01*
X139749402Y-101495151D01*
X139759500Y-101535924D01*
X139759500Y-103519961D01*
X139740593Y-103578152D01*
X139691093Y-103614116D01*
X139689241Y-103614697D01*
X139656054Y-103624765D01*
X139656041Y-103624770D01*
X139473547Y-103722316D01*
X139313595Y-103853585D01*
X139313585Y-103853595D01*
X139182316Y-104013547D01*
X139084768Y-104196045D01*
X139024699Y-104394065D01*
X139024698Y-104394070D01*
X139004417Y-104599996D01*
X139004417Y-104600003D01*
X139024698Y-104805929D01*
X139024699Y-104805934D01*
X139084768Y-105003954D01*
X139182316Y-105186452D01*
X139313585Y-105346404D01*
X139313590Y-105346410D01*
X139313595Y-105346414D01*
X139473547Y-105477683D01*
X139473548Y-105477683D01*
X139473550Y-105477685D01*
X139656046Y-105575232D01*
X139793997Y-105617078D01*
X139854065Y-105635300D01*
X139854070Y-105635301D01*
X140059997Y-105655583D01*
X140060000Y-105655583D01*
X140060003Y-105655583D01*
X140265929Y-105635301D01*
X140265934Y-105635300D01*
X140463954Y-105575232D01*
X140646450Y-105477685D01*
X140806410Y-105346410D01*
X140937685Y-105186450D01*
X141035232Y-105003954D01*
X141095300Y-104805934D01*
X141095301Y-104805929D01*
X141115583Y-104600003D01*
X141115583Y-104599996D01*
X141544417Y-104599996D01*
X141544417Y-104600003D01*
X141564698Y-104805929D01*
X141564699Y-104805934D01*
X141624768Y-105003954D01*
X141722316Y-105186452D01*
X141853585Y-105346404D01*
X141853590Y-105346410D01*
X141853595Y-105346414D01*
X142013547Y-105477683D01*
X142013548Y-105477683D01*
X142013550Y-105477685D01*
X142196046Y-105575232D01*
X142333997Y-105617078D01*
X142394065Y-105635300D01*
X142394070Y-105635301D01*
X142599997Y-105655583D01*
X142600000Y-105655583D01*
X142600003Y-105655583D01*
X142805929Y-105635301D01*
X142805934Y-105635300D01*
X143003954Y-105575232D01*
X143186450Y-105477685D01*
X143346410Y-105346410D01*
X143477685Y-105186450D01*
X143575232Y-105003954D01*
X143635300Y-104805934D01*
X143635301Y-104805929D01*
X143655583Y-104600003D01*
X143655583Y-104599996D01*
X144084417Y-104599996D01*
X144084417Y-104600003D01*
X144104698Y-104805929D01*
X144104699Y-104805934D01*
X144164768Y-105003954D01*
X144262316Y-105186452D01*
X144393585Y-105346404D01*
X144393590Y-105346410D01*
X144393595Y-105346414D01*
X144553547Y-105477683D01*
X144553548Y-105477683D01*
X144553550Y-105477685D01*
X144736046Y-105575232D01*
X144873997Y-105617078D01*
X144934065Y-105635300D01*
X144934070Y-105635301D01*
X145139997Y-105655583D01*
X145140000Y-105655583D01*
X145140003Y-105655583D01*
X145345929Y-105635301D01*
X145345934Y-105635300D01*
X145543954Y-105575232D01*
X145726450Y-105477685D01*
X145886410Y-105346410D01*
X146017685Y-105186450D01*
X146115232Y-105003954D01*
X146175300Y-104805934D01*
X146175301Y-104805929D01*
X146195583Y-104600003D01*
X146195583Y-104599996D01*
X146175301Y-104394070D01*
X146175300Y-104394065D01*
X146116401Y-104199901D01*
X146115232Y-104196046D01*
X146017685Y-104013550D01*
X145886410Y-103853590D01*
X145886404Y-103853585D01*
X145726452Y-103722316D01*
X145543954Y-103624768D01*
X145345934Y-103564699D01*
X145345929Y-103564698D01*
X145140003Y-103544417D01*
X145139997Y-103544417D01*
X144934070Y-103564698D01*
X144934065Y-103564699D01*
X144736045Y-103624768D01*
X144553547Y-103722316D01*
X144393595Y-103853585D01*
X144393585Y-103853595D01*
X144262316Y-104013547D01*
X144164768Y-104196045D01*
X144104699Y-104394065D01*
X144104698Y-104394070D01*
X144084417Y-104599996D01*
X143655583Y-104599996D01*
X143635301Y-104394070D01*
X143635300Y-104394065D01*
X143576401Y-104199901D01*
X143575232Y-104196046D01*
X143477685Y-104013550D01*
X143346410Y-103853590D01*
X143346404Y-103853585D01*
X143186452Y-103722316D01*
X143162882Y-103709718D01*
X143003954Y-103624768D01*
X142952626Y-103609198D01*
X142930761Y-103602565D01*
X142880565Y-103567579D01*
X142860519Y-103509771D01*
X142860500Y-103507828D01*
X142860500Y-101535924D01*
X142870597Y-101504847D01*
X142868879Y-101497911D01*
X143047782Y-101497911D01*
X143057492Y-101521835D01*
X143074834Y-101642456D01*
X143134622Y-101773371D01*
X143134623Y-101773373D01*
X143228872Y-101882143D01*
X143228873Y-101882144D01*
X143349942Y-101959950D01*
X143349947Y-101959953D01*
X143456403Y-101991211D01*
X143488035Y-102000499D01*
X143488036Y-102000499D01*
X143488039Y-102000500D01*
X143488041Y-102000500D01*
X143631959Y-102000500D01*
X143631961Y-102000500D01*
X143770053Y-101959953D01*
X143891128Y-101882143D01*
X143985377Y-101773373D01*
X144045165Y-101642457D01*
X144065647Y-101500000D01*
X144062507Y-101478164D01*
X144045165Y-101357543D01*
X143985377Y-101226628D01*
X143985377Y-101226627D01*
X143891128Y-101117857D01*
X143891127Y-101117856D01*
X143886491Y-101112506D01*
X143888524Y-101110743D01*
X143863067Y-101068505D01*
X143860500Y-101046105D01*
X143860500Y-96973845D01*
X157556199Y-96973845D01*
X157556199Y-96973847D01*
X157561417Y-97053440D01*
X157596695Y-97124979D01*
X157596696Y-97124980D01*
X157596697Y-97124982D01*
X157641522Y-97164292D01*
X157641523Y-97164292D01*
X157641526Y-97164295D01*
X159147974Y-98034043D01*
X159147977Y-98034044D01*
X159147979Y-98034045D01*
X159175376Y-98043344D01*
X159204438Y-98053210D01*
X159284031Y-98047992D01*
X159355570Y-98012714D01*
X159394886Y-97967883D01*
X160264634Y-96461435D01*
X160283801Y-96404971D01*
X160278583Y-96325378D01*
X160243305Y-96253839D01*
X160243303Y-96253837D01*
X160243302Y-96253835D01*
X160198477Y-96214525D01*
X160198474Y-96214523D01*
X158692026Y-95344775D01*
X158692024Y-95344774D01*
X158692020Y-95344772D01*
X158635563Y-95325608D01*
X158635559Y-95325608D01*
X158575867Y-95329521D01*
X158555969Y-95330826D01*
X158555968Y-95330826D01*
X158484428Y-95366105D01*
X158484426Y-95366106D01*
X158445116Y-95410931D01*
X157575363Y-96917388D01*
X157556199Y-96973845D01*
X143860500Y-96973845D01*
X143860500Y-82453893D01*
X143879407Y-82395702D01*
X143886741Y-82387711D01*
X143886491Y-82387494D01*
X143897000Y-82375366D01*
X143985377Y-82273373D01*
X144045165Y-82142457D01*
X144061722Y-82027300D01*
X144065647Y-82000002D01*
X144065647Y-81999997D01*
X144045165Y-81857543D01*
X144020721Y-81804019D01*
X143985377Y-81726627D01*
X143891128Y-81617857D01*
X143891127Y-81617856D01*
X143891126Y-81617855D01*
X143770057Y-81540049D01*
X143770054Y-81540047D01*
X143770053Y-81540047D01*
X143770050Y-81540046D01*
X143631964Y-81499500D01*
X143631961Y-81499500D01*
X143488039Y-81499500D01*
X143488035Y-81499500D01*
X143349949Y-81540046D01*
X143349942Y-81540049D01*
X143228873Y-81617855D01*
X143134622Y-81726628D01*
X143074834Y-81857543D01*
X143054353Y-81999997D01*
X143054353Y-82000002D01*
X143074834Y-82142456D01*
X143079232Y-82152086D01*
X143134623Y-82273373D01*
X143216726Y-82368126D01*
X143233509Y-82387494D01*
X143231471Y-82389259D01*
X143256925Y-82431458D01*
X143259500Y-82453893D01*
X143259500Y-82681232D01*
X143249402Y-82712308D01*
X143259500Y-82753081D01*
X143259500Y-101046105D01*
X143240593Y-101104296D01*
X143233258Y-101112289D01*
X143233509Y-101112506D01*
X143228872Y-101117856D01*
X143228872Y-101117857D01*
X143184222Y-101169386D01*
X143134622Y-101226628D01*
X143074834Y-101357543D01*
X143057492Y-101478164D01*
X143047782Y-101497911D01*
X142868879Y-101497911D01*
X142860500Y-101464075D01*
X142860500Y-83171050D01*
X142879407Y-83112859D01*
X142886741Y-83104868D01*
X142886491Y-83104651D01*
X142891128Y-83099300D01*
X142985377Y-82990530D01*
X143045165Y-82859614D01*
X143062508Y-82738992D01*
X143072217Y-82719244D01*
X143062508Y-82695321D01*
X143045165Y-82574700D01*
X143018285Y-82515842D01*
X142985377Y-82443784D01*
X142891128Y-82335014D01*
X142891127Y-82335013D01*
X142891126Y-82335012D01*
X142770057Y-82257206D01*
X142770054Y-82257204D01*
X142770053Y-82257204D01*
X142770050Y-82257203D01*
X142631964Y-82216657D01*
X142631961Y-82216657D01*
X142488039Y-82216657D01*
X142488035Y-82216657D01*
X142349949Y-82257203D01*
X142349942Y-82257206D01*
X142228873Y-82335012D01*
X142134622Y-82443785D01*
X142074834Y-82574700D01*
X142054353Y-82717154D01*
X142054353Y-82717159D01*
X142074834Y-82859613D01*
X142098578Y-82911603D01*
X142134623Y-82990530D01*
X142212410Y-83080302D01*
X142233509Y-83104651D01*
X142231471Y-83106416D01*
X142256925Y-83148615D01*
X142259500Y-83171050D01*
X142259500Y-103532334D01*
X142240593Y-103590525D01*
X142200256Y-103622325D01*
X142200336Y-103622475D01*
X142199501Y-103622921D01*
X142198393Y-103623795D01*
X142196051Y-103624765D01*
X142013547Y-103722316D01*
X141853595Y-103853585D01*
X141853585Y-103853595D01*
X141722316Y-104013547D01*
X141624768Y-104196045D01*
X141564699Y-104394065D01*
X141564698Y-104394070D01*
X141544417Y-104599996D01*
X141115583Y-104599996D01*
X141095301Y-104394070D01*
X141095300Y-104394065D01*
X141036401Y-104199901D01*
X141035232Y-104196046D01*
X140937685Y-104013550D01*
X140806410Y-103853590D01*
X140806404Y-103853585D01*
X140646452Y-103722316D01*
X140463958Y-103624770D01*
X140463957Y-103624769D01*
X140463954Y-103624768D01*
X140463948Y-103624766D01*
X140463945Y-103624765D01*
X140430759Y-103614697D01*
X140380563Y-103579711D01*
X140360519Y-103521902D01*
X140360500Y-103519961D01*
X140360500Y-101149621D01*
X140379407Y-101091430D01*
X140428907Y-101055466D01*
X140490093Y-101055466D01*
X140514496Y-101067302D01*
X140546769Y-101088867D01*
X140589496Y-101097366D01*
X140605241Y-101100498D01*
X140605246Y-101100498D01*
X140605252Y-101100500D01*
X140605253Y-101100500D01*
X141344747Y-101100500D01*
X141344748Y-101100500D01*
X141403231Y-101088867D01*
X141469552Y-101044552D01*
X141513867Y-100978231D01*
X141525500Y-100919748D01*
X141525500Y-100180252D01*
X141513867Y-100121769D01*
X141469552Y-100055448D01*
X141469549Y-100055446D01*
X141469253Y-100055003D01*
X141452644Y-99996115D01*
X141469253Y-99944997D01*
X141469549Y-99944553D01*
X141469552Y-99944552D01*
X141513867Y-99878231D01*
X141525500Y-99819748D01*
X141525500Y-99080252D01*
X141513867Y-99021769D01*
X141469552Y-98955448D01*
X141404496Y-98911978D01*
X141366619Y-98863928D01*
X141360500Y-98829664D01*
X141360500Y-96453893D01*
X141379407Y-96395702D01*
X141386741Y-96387711D01*
X141386491Y-96387494D01*
X141391128Y-96382143D01*
X141485377Y-96273373D01*
X141545165Y-96142457D01*
X141565647Y-96000000D01*
X141562507Y-95978164D01*
X141545165Y-95857543D01*
X141528997Y-95822140D01*
X141485377Y-95726627D01*
X141391128Y-95617857D01*
X141391127Y-95617856D01*
X141391126Y-95617855D01*
X141270057Y-95540049D01*
X141270054Y-95540047D01*
X141270053Y-95540047D01*
X141252885Y-95535006D01*
X141131964Y-95499500D01*
X141131961Y-95499500D01*
X140988039Y-95499500D01*
X140988035Y-95499500D01*
X140849949Y-95540046D01*
X140849942Y-95540049D01*
X140728873Y-95617855D01*
X140634622Y-95726628D01*
X140574834Y-95857543D01*
X140557492Y-95978164D01*
X140547782Y-95997911D01*
X140557492Y-96021835D01*
X140574834Y-96142456D01*
X140616406Y-96233484D01*
X140634623Y-96273373D01*
X140679684Y-96325377D01*
X140733509Y-96387494D01*
X140731471Y-96389259D01*
X140756925Y-96431458D01*
X140759500Y-96453893D01*
X140759500Y-98800500D01*
X140740593Y-98858691D01*
X140691093Y-98894655D01*
X140660500Y-98899500D01*
X140605252Y-98899500D01*
X140605251Y-98899500D01*
X140605241Y-98899501D01*
X140546772Y-98911132D01*
X140546767Y-98911134D01*
X140514501Y-98932694D01*
X140455613Y-98949302D01*
X140398210Y-98928124D01*
X140364217Y-98877251D01*
X140360500Y-98850378D01*
X140360500Y-96035924D01*
X140370597Y-96004847D01*
X140360500Y-95964075D01*
X140360500Y-93149621D01*
X140379407Y-93091430D01*
X140428907Y-93055466D01*
X140490093Y-93055466D01*
X140514496Y-93067302D01*
X140546769Y-93088867D01*
X140591231Y-93097711D01*
X140605241Y-93100498D01*
X140605246Y-93100498D01*
X140605252Y-93100500D01*
X140605253Y-93100500D01*
X141344747Y-93100500D01*
X141344748Y-93100500D01*
X141403231Y-93088867D01*
X141469552Y-93044552D01*
X141513867Y-92978231D01*
X141525500Y-92919748D01*
X141525500Y-92180252D01*
X141513867Y-92121769D01*
X141469552Y-92055448D01*
X141469549Y-92055446D01*
X141469253Y-92055003D01*
X141452644Y-91996115D01*
X141469253Y-91944997D01*
X141469549Y-91944553D01*
X141469552Y-91944552D01*
X141513867Y-91878231D01*
X141525500Y-91819748D01*
X141525500Y-91080252D01*
X141513867Y-91021769D01*
X141469552Y-90955448D01*
X141469548Y-90955445D01*
X141403233Y-90911134D01*
X141403231Y-90911133D01*
X141403228Y-90911132D01*
X141403227Y-90911132D01*
X141355184Y-90901575D01*
X141301801Y-90871678D01*
X141276186Y-90816112D01*
X141275500Y-90804478D01*
X141275500Y-88510510D01*
X141294407Y-88452319D01*
X141320977Y-88427226D01*
X141362357Y-88400633D01*
X141391128Y-88382143D01*
X141485377Y-88273373D01*
X141545165Y-88142457D01*
X141565647Y-88000000D01*
X141565187Y-87996803D01*
X141545165Y-87857543D01*
X141523484Y-87810069D01*
X141485377Y-87726627D01*
X141391128Y-87617857D01*
X141391127Y-87617856D01*
X141391126Y-87617855D01*
X141270057Y-87540049D01*
X141270054Y-87540047D01*
X141270053Y-87540047D01*
X141258181Y-87536561D01*
X141131964Y-87499500D01*
X141131961Y-87499500D01*
X140988039Y-87499500D01*
X140988035Y-87499500D01*
X140849949Y-87540046D01*
X140849942Y-87540049D01*
X140728873Y-87617855D01*
X140634622Y-87726628D01*
X140574834Y-87857543D01*
X140557492Y-87978164D01*
X140547782Y-87997911D01*
X140557492Y-88021835D01*
X140574834Y-88142456D01*
X140634623Y-88273373D01*
X140650318Y-88291486D01*
X140674137Y-88347845D01*
X140674500Y-88356318D01*
X140674500Y-90804478D01*
X140655593Y-90862669D01*
X140606093Y-90898633D01*
X140594816Y-90901575D01*
X140546772Y-90911132D01*
X140546767Y-90911134D01*
X140514501Y-90932694D01*
X140455613Y-90949302D01*
X140398210Y-90928124D01*
X140364217Y-90877251D01*
X140360500Y-90850378D01*
X140360500Y-88035924D01*
X140370597Y-88004847D01*
X140360500Y-87964075D01*
X140360500Y-85453893D01*
X140379407Y-85395702D01*
X140386741Y-85387711D01*
X140386491Y-85387494D01*
X140397060Y-85375297D01*
X140485377Y-85273373D01*
X140537896Y-85158372D01*
X140579268Y-85113296D01*
X140627949Y-85100500D01*
X141344747Y-85100500D01*
X141344748Y-85100500D01*
X141403231Y-85088867D01*
X141469552Y-85044552D01*
X141513867Y-84978231D01*
X141525500Y-84919748D01*
X141525500Y-84180252D01*
X141513867Y-84121769D01*
X141469552Y-84055448D01*
X141469549Y-84055446D01*
X141469253Y-84055003D01*
X141452644Y-83996115D01*
X141469253Y-83944997D01*
X141469549Y-83944553D01*
X141469552Y-83944552D01*
X141513867Y-83878231D01*
X141525500Y-83819748D01*
X141525500Y-83080252D01*
X141513867Y-83021769D01*
X141469552Y-82955448D01*
X141469548Y-82955445D01*
X141403233Y-82911134D01*
X141403231Y-82911133D01*
X141403228Y-82911132D01*
X141403227Y-82911132D01*
X141355184Y-82901575D01*
X141301801Y-82871678D01*
X141276186Y-82816112D01*
X141275500Y-82804478D01*
X141275500Y-80375437D01*
X141275499Y-80375435D01*
X141255569Y-80301058D01*
X141255021Y-80299011D01*
X141239125Y-80271479D01*
X141215460Y-80230489D01*
X141159511Y-80174539D01*
X141159511Y-80174540D01*
X139474496Y-78489525D01*
X139446719Y-78435008D01*
X139445500Y-78419521D01*
X139445500Y-77195521D01*
X139464407Y-77137330D01*
X139513907Y-77101366D01*
X139525173Y-77098426D01*
X139573231Y-77088867D01*
X139639552Y-77044552D01*
X139683867Y-76978231D01*
X139695500Y-76919748D01*
X139695500Y-76180252D01*
X139683867Y-76121769D01*
X139639552Y-76055448D01*
X139639551Y-76055447D01*
X139638953Y-76054552D01*
X139622344Y-75995664D01*
X139638953Y-75944547D01*
X139683396Y-75878034D01*
X139694999Y-75819700D01*
X139695000Y-75819697D01*
X139695000Y-75542409D01*
X139657541Y-75550000D01*
X138595001Y-75550000D01*
X138595000Y-75550001D01*
X138595000Y-75819700D01*
X138606603Y-75878036D01*
X138651046Y-75944548D01*
X138667655Y-76003436D01*
X138651046Y-76054552D01*
X138606134Y-76121766D01*
X138606132Y-76121772D01*
X138594501Y-76180241D01*
X138594500Y-76180253D01*
X138594500Y-76919746D01*
X138594501Y-76919758D01*
X138606132Y-76978227D01*
X138606134Y-76978233D01*
X138636295Y-77023371D01*
X138650448Y-77044552D01*
X138716769Y-77088867D01*
X138764816Y-77098424D01*
X138818198Y-77128320D01*
X138843814Y-77183885D01*
X138844500Y-77195521D01*
X138844500Y-78624564D01*
X138864977Y-78700985D01*
X138864977Y-78700986D01*
X138864979Y-78700989D01*
X138897630Y-78757543D01*
X138904540Y-78769511D01*
X138904541Y-78769512D01*
X140645504Y-80510475D01*
X140673281Y-80564992D01*
X140674500Y-80580479D01*
X140674500Y-82804478D01*
X140655593Y-82862669D01*
X140606093Y-82898633D01*
X140594816Y-82901575D01*
X140546772Y-82911132D01*
X140546766Y-82911134D01*
X140480451Y-82955445D01*
X140480445Y-82955451D01*
X140436134Y-83021766D01*
X140436132Y-83021772D01*
X140424501Y-83080241D01*
X140424500Y-83080253D01*
X140424500Y-83819746D01*
X140424501Y-83819758D01*
X140436132Y-83878227D01*
X140436134Y-83878233D01*
X140479263Y-83942778D01*
X140495872Y-84001666D01*
X140487001Y-84038907D01*
X140480599Y-84052925D01*
X140472862Y-84066799D01*
X140436132Y-84121769D01*
X140424500Y-84180249D01*
X140424500Y-84208340D01*
X140423492Y-84222429D01*
X140412339Y-84300000D01*
X140412339Y-84300003D01*
X140423492Y-84377572D01*
X140424500Y-84391662D01*
X140424500Y-84457999D01*
X140405593Y-84516190D01*
X140356093Y-84552154D01*
X140294907Y-84552154D01*
X140271978Y-84541284D01*
X140270056Y-84540048D01*
X140270050Y-84540046D01*
X140131964Y-84499500D01*
X140131961Y-84499500D01*
X139988039Y-84499500D01*
X139988035Y-84499500D01*
X139849949Y-84540046D01*
X139849943Y-84540048D01*
X139848022Y-84541284D01*
X139846178Y-84541768D01*
X139843506Y-84542989D01*
X139843294Y-84542526D01*
X139788847Y-84556837D01*
X139731831Y-84534638D01*
X139698752Y-84483165D01*
X139695500Y-84457999D01*
X139695500Y-84180253D01*
X139695498Y-84180241D01*
X139688755Y-84146342D01*
X139683867Y-84121769D01*
X139639552Y-84055448D01*
X139639551Y-84055447D01*
X139638953Y-84054552D01*
X139622344Y-83995664D01*
X139638953Y-83944547D01*
X139683396Y-83878034D01*
X139694999Y-83819700D01*
X139695000Y-83819697D01*
X139695000Y-83550001D01*
X139694999Y-83550000D01*
X138595001Y-83550000D01*
X138595000Y-83550001D01*
X138595000Y-83819700D01*
X138606603Y-83878036D01*
X138651046Y-83944548D01*
X138667655Y-84003436D01*
X138651046Y-84054552D01*
X138606134Y-84121766D01*
X138606132Y-84121772D01*
X138594501Y-84180241D01*
X138594500Y-84180253D01*
X138594500Y-84919746D01*
X138594501Y-84919758D01*
X138606132Y-84978227D01*
X138606134Y-84978233D01*
X138650445Y-85044548D01*
X138650448Y-85044552D01*
X138716769Y-85088867D01*
X138764816Y-85098424D01*
X138818198Y-85128320D01*
X138843814Y-85183885D01*
X138844500Y-85195521D01*
X138844500Y-87489488D01*
X138825593Y-87547679D01*
X138799024Y-87572771D01*
X138728874Y-87617854D01*
X138634622Y-87726628D01*
X138574834Y-87857543D01*
X138554353Y-87999997D01*
X137860500Y-87999997D01*
X137860500Y-83953893D01*
X137879407Y-83895702D01*
X137886741Y-83887711D01*
X137886491Y-83887494D01*
X137894516Y-83878233D01*
X137985377Y-83773373D01*
X138045165Y-83642457D01*
X138061074Y-83531808D01*
X138065647Y-83500002D01*
X138065647Y-83499997D01*
X138045165Y-83357543D01*
X138002153Y-83263361D01*
X137985377Y-83226627D01*
X137891128Y-83117857D01*
X137891127Y-83117856D01*
X137891126Y-83117855D01*
X137832687Y-83080299D01*
X138595000Y-83080299D01*
X138595000Y-83349999D01*
X138595001Y-83350000D01*
X139044999Y-83350000D01*
X139045000Y-83349999D01*
X139045000Y-82900001D01*
X139245000Y-82900001D01*
X139245000Y-83349999D01*
X139245001Y-83350000D01*
X139694999Y-83350000D01*
X139695000Y-83349999D01*
X139695000Y-83080302D01*
X139694999Y-83080299D01*
X139683396Y-83021963D01*
X139639193Y-82955810D01*
X139639189Y-82955806D01*
X139573036Y-82911603D01*
X139514700Y-82900000D01*
X139245001Y-82900000D01*
X139245000Y-82900001D01*
X139045000Y-82900001D01*
X139044999Y-82900000D01*
X138775299Y-82900000D01*
X138716963Y-82911603D01*
X138650810Y-82955806D01*
X138650806Y-82955810D01*
X138606603Y-83021963D01*
X138595000Y-83080299D01*
X137832687Y-83080299D01*
X137770057Y-83040049D01*
X137770054Y-83040047D01*
X137770053Y-83040047D01*
X137770050Y-83040046D01*
X137631964Y-82999500D01*
X137631961Y-82999500D01*
X137488039Y-82999500D01*
X137488035Y-82999500D01*
X137349949Y-83040046D01*
X137349942Y-83040049D01*
X137228873Y-83117855D01*
X137227896Y-83118983D01*
X137134623Y-83226627D01*
X137134622Y-83226628D01*
X137129987Y-83231978D01*
X137127548Y-83229864D01*
X137090597Y-83259973D01*
X137029505Y-83263361D01*
X137001315Y-83250941D01*
X136944322Y-83214314D01*
X136944319Y-83214312D01*
X136944318Y-83214312D01*
X136944315Y-83214311D01*
X136806229Y-83173765D01*
X136806226Y-83173765D01*
X136662304Y-83173765D01*
X136662300Y-83173765D01*
X136524214Y-83214311D01*
X136524207Y-83214314D01*
X136403138Y-83292120D01*
X136308887Y-83400893D01*
X136275866Y-83473198D01*
X136234494Y-83518275D01*
X136174527Y-83530426D01*
X136157922Y-83527061D01*
X136077289Y-83503385D01*
X136077286Y-83503385D01*
X135933364Y-83503385D01*
X135933360Y-83503385D01*
X135795274Y-83543931D01*
X135795267Y-83543934D01*
X135674198Y-83621740D01*
X135579947Y-83730513D01*
X135520159Y-83861428D01*
X135499678Y-84003882D01*
X135499678Y-84003887D01*
X135520159Y-84146341D01*
X135554908Y-84222429D01*
X135579948Y-84277258D01*
X135666870Y-84377572D01*
X135674199Y-84386030D01*
X135679247Y-84390404D01*
X135710844Y-84442799D01*
X135713417Y-84465224D01*
X135713417Y-91051037D01*
X135700155Y-91100535D01*
X135679978Y-91135483D01*
X135679977Y-91135485D01*
X135659500Y-91211906D01*
X135659500Y-91788093D01*
X135679978Y-91864517D01*
X135679979Y-91864519D01*
X135697294Y-91894508D01*
X135697295Y-91894510D01*
X135700154Y-91899462D01*
X135713417Y-91948960D01*
X135713417Y-94100500D01*
X135694510Y-94158691D01*
X135645010Y-94194655D01*
X135614417Y-94199500D01*
X129608587Y-94199500D01*
X129604087Y-94199205D01*
X129599857Y-94199205D01*
X121110037Y-94199205D01*
X121051846Y-94180298D01*
X121015882Y-94130798D01*
X121015300Y-94128942D01*
X121007125Y-94101993D01*
X121005232Y-94095751D01*
X120907685Y-93913255D01*
X120899477Y-93903254D01*
X120776414Y-93753300D01*
X120776410Y-93753295D01*
X120764218Y-93743289D01*
X120616452Y-93622021D01*
X120433954Y-93524473D01*
X120235934Y-93464404D01*
X120235929Y-93464403D01*
X120030003Y-93444122D01*
X120029997Y-93444122D01*
X119824070Y-93464403D01*
X119824065Y-93464404D01*
X119626045Y-93524473D01*
X119443547Y-93622021D01*
X119283595Y-93753290D01*
X119283585Y-93753300D01*
X119152316Y-93913252D01*
X119054768Y-94095750D01*
X118994699Y-94293770D01*
X118994698Y-94293775D01*
X118974417Y-94499701D01*
X114368317Y-94499701D01*
X110394097Y-87616150D01*
X114856199Y-87616150D01*
X114856199Y-87616154D01*
X114875363Y-87672611D01*
X114875365Y-87672615D01*
X114875366Y-87672617D01*
X115737075Y-89165141D01*
X115745116Y-89179068D01*
X115784426Y-89223893D01*
X115784428Y-89223894D01*
X115784430Y-89223896D01*
X115855969Y-89259174D01*
X115935562Y-89264392D01*
X115992026Y-89245225D01*
X117498474Y-88375477D01*
X117543305Y-88336161D01*
X117571709Y-88278560D01*
X117614403Y-88234733D01*
X117674704Y-88224370D01*
X117729580Y-88251431D01*
X117758070Y-88305579D01*
X117759500Y-88322346D01*
X117759500Y-88962026D01*
X117740593Y-89020217D01*
X117691093Y-89056181D01*
X117650797Y-89060549D01*
X117490004Y-89044713D01*
X117489997Y-89044713D01*
X117284070Y-89064994D01*
X117284065Y-89064995D01*
X117086045Y-89125064D01*
X116903547Y-89222612D01*
X116743595Y-89353881D01*
X116743585Y-89353891D01*
X116612316Y-89513843D01*
X116514768Y-89696341D01*
X116454699Y-89894361D01*
X116454698Y-89894366D01*
X116434417Y-90100292D01*
X116434417Y-90100299D01*
X116454698Y-90306225D01*
X116454699Y-90306230D01*
X116514768Y-90504250D01*
X116612316Y-90686748D01*
X116735382Y-90836705D01*
X116743590Y-90846706D01*
X116743595Y-90846710D01*
X116903547Y-90977979D01*
X116903548Y-90977979D01*
X116903550Y-90977981D01*
X117086046Y-91075528D01*
X117182353Y-91104742D01*
X117284065Y-91135596D01*
X117284070Y-91135597D01*
X117489997Y-91155879D01*
X117490000Y-91155879D01*
X117490003Y-91155879D01*
X117695929Y-91135597D01*
X117695934Y-91135596D01*
X117696524Y-91135417D01*
X117893954Y-91075528D01*
X118076450Y-90977981D01*
X118236410Y-90846706D01*
X118367685Y-90686746D01*
X118465232Y-90504250D01*
X118525300Y-90306230D01*
X118525301Y-90306225D01*
X118545583Y-90100299D01*
X118545583Y-90100292D01*
X118525301Y-89894366D01*
X118525300Y-89894361D01*
X118495963Y-89797650D01*
X118465232Y-89696342D01*
X118372189Y-89522273D01*
X118360500Y-89475606D01*
X118360500Y-87535924D01*
X118379407Y-87477733D01*
X118428907Y-87441769D01*
X118490093Y-87441769D01*
X118539593Y-87477733D01*
X118557492Y-87521835D01*
X118574834Y-87642456D01*
X118613275Y-87726628D01*
X118634623Y-87773373D01*
X118666417Y-87810066D01*
X118733509Y-87887494D01*
X118731471Y-87889259D01*
X118756925Y-87931458D01*
X118759500Y-87953893D01*
X118759500Y-91154737D01*
X118740593Y-91212928D01*
X118691093Y-91248892D01*
X118670204Y-91253260D01*
X118554071Y-91264698D01*
X118554065Y-91264699D01*
X118356045Y-91324768D01*
X118173547Y-91422316D01*
X118013595Y-91553585D01*
X118013585Y-91553595D01*
X117882316Y-91713547D01*
X117784768Y-91896045D01*
X117724699Y-92094065D01*
X117724698Y-92094070D01*
X117704417Y-92299996D01*
X117704417Y-92300003D01*
X117724698Y-92505929D01*
X117724699Y-92505934D01*
X117784768Y-92703954D01*
X117882316Y-92886452D01*
X118012062Y-93044548D01*
X118013590Y-93046410D01*
X118013595Y-93046414D01*
X118173547Y-93177683D01*
X118173548Y-93177683D01*
X118173550Y-93177685D01*
X118356046Y-93275232D01*
X118493997Y-93317078D01*
X118554065Y-93335300D01*
X118554070Y-93335301D01*
X118759997Y-93355583D01*
X118760000Y-93355583D01*
X118760003Y-93355583D01*
X118965929Y-93335301D01*
X118965934Y-93335300D01*
X119163954Y-93275232D01*
X119346450Y-93177685D01*
X119506410Y-93046410D01*
X119637685Y-92886450D01*
X119735232Y-92703954D01*
X119795300Y-92505934D01*
X119795301Y-92505929D01*
X119815583Y-92300003D01*
X119815583Y-92299996D01*
X119795301Y-92094070D01*
X119795300Y-92094065D01*
X119765587Y-91996115D01*
X119735232Y-91896046D01*
X119637685Y-91713550D01*
X119629478Y-91703550D01*
X119506414Y-91553595D01*
X119506410Y-91553590D01*
X119506408Y-91553588D01*
X119506407Y-91553587D01*
X119396695Y-91463549D01*
X119363708Y-91412018D01*
X119360500Y-91387021D01*
X119360500Y-90377387D01*
X120303451Y-90377387D01*
X120515978Y-90543432D01*
X120569089Y-90570202D01*
X120648865Y-90576131D01*
X120705494Y-90599299D01*
X120735548Y-90643855D01*
X120760866Y-90720633D01*
X120799786Y-90765802D01*
X120799788Y-90765803D01*
X120799789Y-90765804D01*
X120864180Y-90816112D01*
X121382518Y-91221083D01*
X121435765Y-91247921D01*
X121435767Y-91247922D01*
X121483212Y-91251447D01*
X121539841Y-91274615D01*
X121572038Y-91326644D01*
X121573867Y-91364263D01*
X121554353Y-91499995D01*
X121554353Y-91500002D01*
X121574834Y-91642456D01*
X121607301Y-91713547D01*
X121634623Y-91773373D01*
X121725482Y-91878231D01*
X121728873Y-91882144D01*
X121849942Y-91959950D01*
X121849947Y-91959953D01*
X121948420Y-91988867D01*
X121988035Y-92000499D01*
X121988036Y-92000499D01*
X121988039Y-92000500D01*
X121988041Y-92000500D01*
X122131959Y-92000500D01*
X122131961Y-92000500D01*
X122270053Y-91959953D01*
X122391128Y-91882143D01*
X122485377Y-91773373D01*
X122545165Y-91642457D01*
X122557942Y-91553590D01*
X122565647Y-91500002D01*
X122565647Y-91499997D01*
X122545165Y-91357543D01*
X122524929Y-91313233D01*
X122485377Y-91226627D01*
X122391128Y-91117857D01*
X122391127Y-91117856D01*
X122391126Y-91117855D01*
X122370721Y-91104742D01*
X122338508Y-91070960D01*
X122300460Y-91005057D01*
X122273382Y-90977979D01*
X122244511Y-90949107D01*
X122244511Y-90949108D01*
X122070591Y-90775188D01*
X122042814Y-90720671D01*
X122052385Y-90660239D01*
X122062582Y-90644234D01*
X122070302Y-90634352D01*
X122091516Y-90607200D01*
X122118354Y-90553953D01*
X122124265Y-90474408D01*
X122099286Y-90398656D01*
X122099286Y-90398655D01*
X122060365Y-90353485D01*
X122060363Y-90353484D01*
X121477633Y-89898204D01*
X121424386Y-89871366D01*
X121424387Y-89871366D01*
X121343766Y-89865375D01*
X121287136Y-89842207D01*
X121257083Y-89797650D01*
X121232032Y-89721682D01*
X121232033Y-89721682D01*
X121193202Y-89676617D01*
X120980677Y-89510574D01*
X120642065Y-89943982D01*
X120642065Y-89943983D01*
X120303451Y-90377387D01*
X119360500Y-90377387D01*
X119360500Y-89967592D01*
X119869580Y-89967592D01*
X119894495Y-90043149D01*
X119894494Y-90043149D01*
X119933325Y-90088214D01*
X120145849Y-90254255D01*
X120422896Y-89899650D01*
X120422895Y-89899649D01*
X120068291Y-89622602D01*
X120068290Y-89622603D01*
X119902251Y-89835124D01*
X119902247Y-89835131D01*
X119875477Y-89888241D01*
X119869580Y-89967592D01*
X119360500Y-89967592D01*
X119360500Y-89465001D01*
X120191422Y-89465001D01*
X120546028Y-89742048D01*
X120546029Y-89742047D01*
X120823076Y-89387443D01*
X120823076Y-89387442D01*
X120610555Y-89221403D01*
X120610548Y-89221399D01*
X120557438Y-89194629D01*
X120478087Y-89188732D01*
X120402530Y-89213647D01*
X120357465Y-89252477D01*
X120191422Y-89465001D01*
X119360500Y-89465001D01*
X119360500Y-88525594D01*
X120995735Y-88525594D01*
X121020713Y-88601344D01*
X121059634Y-88646514D01*
X121059636Y-88646515D01*
X121642366Y-89101795D01*
X121695613Y-89128633D01*
X121695615Y-89128634D01*
X121775160Y-89134545D01*
X121775161Y-89134544D01*
X121775694Y-89134584D01*
X121832324Y-89157752D01*
X121862378Y-89202309D01*
X121887525Y-89278572D01*
X121926446Y-89323742D01*
X121926448Y-89323743D01*
X121926449Y-89323744D01*
X121986052Y-89370311D01*
X122509178Y-89779023D01*
X122562425Y-89805861D01*
X122562427Y-89805862D01*
X122641972Y-89811773D01*
X122717724Y-89786794D01*
X122762894Y-89747873D01*
X122762894Y-89747872D01*
X122762896Y-89747871D01*
X123218176Y-89165140D01*
X123245014Y-89111893D01*
X123250925Y-89032348D01*
X123225946Y-88956596D01*
X123225946Y-88956595D01*
X123187025Y-88911425D01*
X123187023Y-88911424D01*
X122768056Y-88584090D01*
X122754193Y-88570913D01*
X122731067Y-88544225D01*
X122707251Y-88487867D01*
X122721110Y-88428272D01*
X122735880Y-88409396D01*
X124594900Y-86550378D01*
X124594903Y-86550373D01*
X124634460Y-86481859D01*
X124634460Y-86481857D01*
X124634462Y-86481855D01*
X124654940Y-86405429D01*
X124654940Y-86326305D01*
X124654940Y-85717436D01*
X124673847Y-85659245D01*
X124696941Y-85638451D01*
X124696810Y-85638302D01*
X124756043Y-85586356D01*
X124764111Y-85579281D01*
X124790484Y-85525802D01*
X124981880Y-84811504D01*
X124984805Y-84766878D01*
X124985780Y-84752005D01*
X124985779Y-84752004D01*
X124985780Y-84752003D01*
X124960140Y-84676472D01*
X124907548Y-84616502D01*
X124854069Y-84590129D01*
X124854067Y-84590128D01*
X124304227Y-84442799D01*
X124139771Y-84398733D01*
X124139769Y-84398732D01*
X124139766Y-84398732D01*
X124080272Y-84394832D01*
X124080267Y-84394833D01*
X124003717Y-84420819D01*
X123942537Y-84421620D01*
X123897462Y-84392348D01*
X123844719Y-84332205D01*
X123791372Y-84305898D01*
X123530863Y-84236094D01*
X123388514Y-84767354D01*
X123246163Y-85298611D01*
X123506675Y-85368416D01*
X123566021Y-85372306D01*
X123566024Y-85372305D01*
X123641774Y-85346592D01*
X123702954Y-85345791D01*
X123748029Y-85375063D01*
X123748739Y-85375873D01*
X123748740Y-85375874D01*
X123801332Y-85435844D01*
X123854811Y-85462217D01*
X123980563Y-85495912D01*
X124031877Y-85529235D01*
X124053804Y-85586356D01*
X124053940Y-85591538D01*
X124053940Y-86200388D01*
X124035033Y-86258579D01*
X124024944Y-86270392D01*
X122298533Y-87996803D01*
X122244016Y-88024580D01*
X122228529Y-88025799D01*
X122087564Y-88025799D01*
X122029373Y-88006892D01*
X122026614Y-88004812D01*
X121737484Y-87778919D01*
X121737482Y-87778918D01*
X121737480Y-87778916D01*
X121737477Y-87778914D01*
X121737475Y-87778913D01*
X121684234Y-87752078D01*
X121684235Y-87752078D01*
X121652415Y-87749713D01*
X121604688Y-87746167D01*
X121604687Y-87746167D01*
X121604685Y-87746167D01*
X121528935Y-87771145D01*
X121483765Y-87810066D01*
X121483764Y-87810068D01*
X121028484Y-88392798D01*
X121001646Y-88446045D01*
X120995735Y-88525594D01*
X119360500Y-88525594D01*
X119360500Y-87953893D01*
X119379407Y-87895702D01*
X119386741Y-87887711D01*
X119386491Y-87887494D01*
X119391128Y-87882143D01*
X119485377Y-87773373D01*
X119545165Y-87642457D01*
X119559889Y-87540046D01*
X119565647Y-87500002D01*
X119565647Y-87499997D01*
X119545165Y-87357543D01*
X119520904Y-87304420D01*
X119485377Y-87226627D01*
X119391128Y-87117857D01*
X119391127Y-87117856D01*
X119391126Y-87117855D01*
X119270057Y-87040049D01*
X119270054Y-87040047D01*
X119270053Y-87040047D01*
X119270050Y-87040046D01*
X119131964Y-86999500D01*
X119131961Y-86999500D01*
X118988039Y-86999500D01*
X118988035Y-86999500D01*
X118849949Y-87040046D01*
X118849942Y-87040049D01*
X118728871Y-87117856D01*
X118723652Y-87122379D01*
X118667290Y-87146192D01*
X118607696Y-87132328D01*
X118567632Y-87086084D01*
X118560835Y-87033465D01*
X118565647Y-87000000D01*
X118565602Y-86999690D01*
X118545165Y-86857543D01*
X118535103Y-86835510D01*
X118485377Y-86726627D01*
X118391128Y-86617857D01*
X118391127Y-86617856D01*
X118391126Y-86617855D01*
X118270057Y-86540049D01*
X118270054Y-86540047D01*
X118270053Y-86540047D01*
X118258961Y-86536790D01*
X118131964Y-86499500D01*
X118131961Y-86499500D01*
X117988039Y-86499500D01*
X117988035Y-86499500D01*
X117849949Y-86540046D01*
X117849942Y-86540049D01*
X117728873Y-86617855D01*
X117634622Y-86726628D01*
X117574834Y-86857543D01*
X117554353Y-86999997D01*
X117554353Y-87000002D01*
X117574834Y-87142456D01*
X117634623Y-87273373D01*
X117733509Y-87387494D01*
X117731471Y-87389259D01*
X117756925Y-87431458D01*
X117759500Y-87453893D01*
X117759500Y-88102987D01*
X117740593Y-88161178D01*
X117691093Y-88197142D01*
X117629907Y-88197142D01*
X117580407Y-88161178D01*
X117566754Y-88134809D01*
X117564636Y-88128570D01*
X117564635Y-88128568D01*
X117564634Y-88128565D01*
X116694886Y-86622117D01*
X116694883Y-86622114D01*
X116694883Y-86622113D01*
X116655573Y-86577288D01*
X116655571Y-86577287D01*
X116655570Y-86577286D01*
X116584031Y-86542008D01*
X116554104Y-86540046D01*
X116504440Y-86536790D01*
X116504436Y-86536790D01*
X116447979Y-86555954D01*
X114941522Y-87425707D01*
X114896697Y-87465017D01*
X114896696Y-87465019D01*
X114861731Y-87535924D01*
X114861417Y-87536560D01*
X114861188Y-87540047D01*
X114856199Y-87616150D01*
X110394097Y-87616150D01*
X108892653Y-85015572D01*
X122661086Y-85015572D01*
X122661087Y-85015577D01*
X122686661Y-85090916D01*
X122739122Y-85150738D01*
X122792469Y-85177045D01*
X123052977Y-85246848D01*
X123169445Y-84812182D01*
X122734780Y-84695714D01*
X122664976Y-84956226D01*
X122661086Y-85015572D01*
X108892653Y-85015572D01*
X108596447Y-84502528D01*
X122786543Y-84502528D01*
X123221209Y-84618996D01*
X123337677Y-84184331D01*
X123077166Y-84114527D01*
X123017820Y-84110637D01*
X123017815Y-84110638D01*
X122942476Y-84136212D01*
X122882654Y-84188673D01*
X122856347Y-84242020D01*
X122786543Y-84502528D01*
X108596447Y-84502528D01*
X107872141Y-83247994D01*
X123134219Y-83247994D01*
X123134220Y-83247997D01*
X123139435Y-83263361D01*
X123159860Y-83323528D01*
X123212452Y-83383498D01*
X123265931Y-83409871D01*
X123980229Y-83601267D01*
X124014229Y-83603495D01*
X124039727Y-83605167D01*
X124039727Y-83605166D01*
X124039730Y-83605167D01*
X124115261Y-83579527D01*
X124115261Y-83579526D01*
X124115770Y-83579354D01*
X124176950Y-83578553D01*
X124222026Y-83607825D01*
X124222378Y-83608226D01*
X124222379Y-83608229D01*
X124274971Y-83668199D01*
X124328450Y-83694572D01*
X125042748Y-83885968D01*
X125076748Y-83888196D01*
X125102246Y-83889868D01*
X125102246Y-83889867D01*
X125102249Y-83889868D01*
X125177780Y-83864228D01*
X125237750Y-83811636D01*
X125264123Y-83758157D01*
X125455519Y-83043859D01*
X125458444Y-82999233D01*
X125459419Y-82984360D01*
X125459418Y-82984359D01*
X125459419Y-82984358D01*
X125433779Y-82908827D01*
X125381187Y-82848857D01*
X125327708Y-82822484D01*
X125327706Y-82822483D01*
X124864552Y-82698381D01*
X124836652Y-82686038D01*
X124813464Y-82671136D01*
X124813461Y-82671134D01*
X124813460Y-82671134D01*
X124726008Y-82645456D01*
X124675501Y-82610920D01*
X124654939Y-82553293D01*
X124672177Y-82494586D01*
X124683890Y-82480467D01*
X125068539Y-82095819D01*
X125108101Y-82027296D01*
X125128579Y-81950870D01*
X125128579Y-81871746D01*
X125128579Y-77306837D01*
X125147486Y-77248646D01*
X125196986Y-77212682D01*
X125201935Y-77211216D01*
X125327708Y-77177516D01*
X125381187Y-77151143D01*
X125433779Y-77091173D01*
X125459419Y-77015642D01*
X125459414Y-77015572D01*
X125456967Y-76978231D01*
X125455519Y-76956141D01*
X125264123Y-76241843D01*
X125237750Y-76188364D01*
X125228487Y-76180241D01*
X125177780Y-76135772D01*
X125177778Y-76135771D01*
X125102249Y-76110132D01*
X125102246Y-76110131D01*
X125042753Y-76114031D01*
X125042752Y-76114031D01*
X125042748Y-76114031D01*
X125042748Y-76114032D01*
X125013873Y-76121769D01*
X124328451Y-76305427D01*
X124274970Y-76331801D01*
X124221668Y-76392581D01*
X124169085Y-76423865D01*
X124115414Y-76421052D01*
X124039665Y-76395339D01*
X124039660Y-76395338D01*
X123980314Y-76399228D01*
X123719802Y-76469032D01*
X123862153Y-77000291D01*
X124004502Y-77531549D01*
X124265011Y-77461746D01*
X124318359Y-77435438D01*
X124318360Y-77435437D01*
X124354146Y-77394631D01*
X124406728Y-77363346D01*
X124467657Y-77368944D01*
X124513659Y-77409286D01*
X124527579Y-77459905D01*
X124527579Y-81745828D01*
X124508672Y-81804019D01*
X124498583Y-81815832D01*
X123920293Y-82394121D01*
X123865776Y-82421898D01*
X123824666Y-82419744D01*
X123684335Y-82382143D01*
X123550891Y-82346387D01*
X123550889Y-82346386D01*
X123550886Y-82346386D01*
X123491392Y-82342486D01*
X123491389Y-82342487D01*
X123415860Y-82368126D01*
X123415858Y-82368127D01*
X123355889Y-82420718D01*
X123329515Y-82474199D01*
X123138119Y-83188500D01*
X123138119Y-83188501D01*
X123134219Y-83247994D01*
X107872141Y-83247994D01*
X106025488Y-80049497D01*
X106012768Y-79989652D01*
X106025487Y-79950503D01*
X110558321Y-72099405D01*
X115164417Y-72099405D01*
X115164417Y-72099412D01*
X115184698Y-72305338D01*
X115184699Y-72305343D01*
X115244768Y-72503363D01*
X115342316Y-72685861D01*
X115473585Y-72845813D01*
X115473590Y-72845819D01*
X115473595Y-72845823D01*
X115633547Y-72977092D01*
X115633548Y-72977092D01*
X115633550Y-72977094D01*
X115816046Y-73074641D01*
X115953997Y-73116487D01*
X116014065Y-73134709D01*
X116014070Y-73134710D01*
X116219997Y-73154992D01*
X116220000Y-73154992D01*
X116220003Y-73154992D01*
X116425929Y-73134710D01*
X116425934Y-73134709D01*
X116623954Y-73074641D01*
X116806450Y-72977094D01*
X116966410Y-72845819D01*
X117083972Y-72702567D01*
X117135503Y-72669581D01*
X117196582Y-72673183D01*
X117243879Y-72711998D01*
X117259500Y-72765373D01*
X117259500Y-78546105D01*
X117240593Y-78604296D01*
X117233258Y-78612289D01*
X117233509Y-78612506D01*
X117228872Y-78617856D01*
X117228872Y-78617857D01*
X117171121Y-78684506D01*
X117134622Y-78726628D01*
X117074834Y-78857543D01*
X117054353Y-78999997D01*
X117054353Y-79000002D01*
X117074834Y-79142456D01*
X117112632Y-79225221D01*
X117134623Y-79273373D01*
X117228872Y-79382143D01*
X117228873Y-79382144D01*
X117257436Y-79400500D01*
X117349947Y-79459953D01*
X117456403Y-79491211D01*
X117488035Y-79500499D01*
X117488036Y-79500499D01*
X117488039Y-79500500D01*
X117488041Y-79500500D01*
X117631959Y-79500500D01*
X117631961Y-79500500D01*
X117770053Y-79459953D01*
X117891128Y-79382143D01*
X117985377Y-79273373D01*
X118045165Y-79142457D01*
X118059543Y-79042456D01*
X118065647Y-79000002D01*
X118065647Y-78999997D01*
X118045165Y-78857543D01*
X118010731Y-78782144D01*
X117985377Y-78726627D01*
X117891128Y-78617857D01*
X117891127Y-78617856D01*
X117886491Y-78612506D01*
X117888524Y-78610743D01*
X117863067Y-78568505D01*
X117860500Y-78546105D01*
X117860500Y-70952156D01*
X117879407Y-70893965D01*
X117912830Y-70864847D01*
X118076450Y-70777390D01*
X118236410Y-70646115D01*
X118367685Y-70486155D01*
X118465232Y-70303659D01*
X118525300Y-70105639D01*
X118525301Y-70105634D01*
X118545583Y-69899708D01*
X118545583Y-69899701D01*
X118525301Y-69693775D01*
X118525300Y-69693770D01*
X118496696Y-69599476D01*
X118465232Y-69495751D01*
X118367685Y-69313255D01*
X118359701Y-69303527D01*
X118236414Y-69153300D01*
X118236410Y-69153295D01*
X118231933Y-69149621D01*
X118076452Y-69022021D01*
X117893954Y-68924473D01*
X117695934Y-68864404D01*
X117695929Y-68864403D01*
X117490003Y-68844122D01*
X117489997Y-68844122D01*
X117284070Y-68864403D01*
X117284065Y-68864404D01*
X117086045Y-68924473D01*
X116903547Y-69022021D01*
X116743595Y-69153290D01*
X116743585Y-69153300D01*
X116612316Y-69313252D01*
X116514768Y-69495750D01*
X116454699Y-69693770D01*
X116454698Y-69693775D01*
X116434417Y-69899701D01*
X116434417Y-69899708D01*
X116454698Y-70105634D01*
X116454699Y-70105639D01*
X116514768Y-70303659D01*
X116612316Y-70486157D01*
X116724293Y-70622602D01*
X116743590Y-70646115D01*
X116743595Y-70646119D01*
X116903547Y-70777388D01*
X116903548Y-70777388D01*
X116903550Y-70777390D01*
X117086046Y-70874937D01*
X117189239Y-70906239D01*
X117239434Y-70941223D01*
X117259481Y-70999032D01*
X117259500Y-71000976D01*
X117259500Y-71433444D01*
X117240593Y-71491635D01*
X117191093Y-71527599D01*
X117129907Y-71527599D01*
X117083972Y-71496249D01*
X116966414Y-71353004D01*
X116966410Y-71352999D01*
X116966404Y-71352994D01*
X116806452Y-71221725D01*
X116623954Y-71124177D01*
X116425934Y-71064108D01*
X116425929Y-71064107D01*
X116220003Y-71043826D01*
X116219997Y-71043826D01*
X116014070Y-71064107D01*
X116014065Y-71064108D01*
X115816045Y-71124177D01*
X115633547Y-71221725D01*
X115473595Y-71352994D01*
X115473585Y-71353004D01*
X115342316Y-71512956D01*
X115244768Y-71695454D01*
X115184699Y-71893474D01*
X115184698Y-71893479D01*
X115164417Y-72099405D01*
X110558321Y-72099405D01*
X113098321Y-67699996D01*
X117704417Y-67699996D01*
X117704417Y-67700003D01*
X117724698Y-67905929D01*
X117724699Y-67905934D01*
X117784768Y-68103954D01*
X117882316Y-68286452D01*
X117994323Y-68422933D01*
X118013590Y-68446410D01*
X118013595Y-68446414D01*
X118173547Y-68577683D01*
X118173548Y-68577683D01*
X118173550Y-68577685D01*
X118356046Y-68675232D01*
X118476659Y-68711819D01*
X118554065Y-68735300D01*
X118554071Y-68735301D01*
X118634744Y-68743245D01*
X118670203Y-68746738D01*
X118726260Y-68771257D01*
X118757200Y-68824043D01*
X118759500Y-68845261D01*
X118759500Y-78046105D01*
X118740593Y-78104296D01*
X118733258Y-78112289D01*
X118733509Y-78112506D01*
X118634622Y-78226628D01*
X118574834Y-78357543D01*
X118554353Y-78499997D01*
X118554353Y-78500002D01*
X118574834Y-78642456D01*
X118632859Y-78769511D01*
X118634623Y-78773373D01*
X118728872Y-78882143D01*
X118728873Y-78882144D01*
X118849942Y-78959950D01*
X118849947Y-78959953D01*
X118913168Y-78978516D01*
X118988035Y-79000499D01*
X118988036Y-79000499D01*
X118988039Y-79000500D01*
X118988041Y-79000500D01*
X119131959Y-79000500D01*
X119131961Y-79000500D01*
X119270053Y-78959953D01*
X119391128Y-78882143D01*
X119485377Y-78773373D01*
X119545165Y-78642457D01*
X119563080Y-78517855D01*
X119565647Y-78500002D01*
X119565647Y-78499997D01*
X119545165Y-78357543D01*
X119504206Y-78267857D01*
X119485377Y-78226627D01*
X119391128Y-78117857D01*
X119391127Y-78117856D01*
X119386491Y-78112506D01*
X119388524Y-78110743D01*
X119363067Y-78068505D01*
X119360500Y-78046105D01*
X119360500Y-77265115D01*
X123260182Y-77265115D01*
X123329986Y-77525624D01*
X123356293Y-77578971D01*
X123416115Y-77631432D01*
X123491454Y-77657006D01*
X123491459Y-77657007D01*
X123550805Y-77653117D01*
X123811316Y-77583312D01*
X123694848Y-77148647D01*
X123260182Y-77265115D01*
X119360500Y-77265115D01*
X119360500Y-76752072D01*
X123134725Y-76752072D01*
X123138615Y-76811418D01*
X123208419Y-77071929D01*
X123643084Y-76955461D01*
X123526616Y-76520795D01*
X123266108Y-76590599D01*
X123212761Y-76616906D01*
X123160300Y-76676728D01*
X123134726Y-76752067D01*
X123134725Y-76752072D01*
X119360500Y-76752072D01*
X119360500Y-71977057D01*
X121318083Y-71977057D01*
X121484126Y-72189582D01*
X121529191Y-72228412D01*
X121604748Y-72253327D01*
X121684099Y-72247430D01*
X121737209Y-72220660D01*
X121737210Y-72220660D01*
X121949737Y-72054615D01*
X121672690Y-71700011D01*
X121672689Y-71700010D01*
X121318083Y-71977057D01*
X119360500Y-71977057D01*
X119360500Y-71474467D01*
X120996241Y-71474467D01*
X121002138Y-71553818D01*
X121028908Y-71606928D01*
X121028912Y-71606935D01*
X121194951Y-71819456D01*
X121194952Y-71819456D01*
X121549556Y-71542409D01*
X121549557Y-71542408D01*
X121272510Y-71187802D01*
X121059986Y-71353845D01*
X121021156Y-71398910D01*
X120996241Y-71474467D01*
X119360500Y-71474467D01*
X119360500Y-71064671D01*
X121430111Y-71064671D01*
X121768726Y-71498078D01*
X122107338Y-71931483D01*
X122107339Y-71931484D01*
X122319861Y-71765444D01*
X122358693Y-71720377D01*
X122383744Y-71644409D01*
X122419923Y-71595067D01*
X122470428Y-71576684D01*
X122471498Y-71576604D01*
X122471500Y-71576605D01*
X122551045Y-71570694D01*
X122604292Y-71543856D01*
X122604303Y-71543846D01*
X122607482Y-71541832D01*
X122666750Y-71526637D01*
X122723631Y-71549180D01*
X122756398Y-71600852D01*
X122759500Y-71625439D01*
X122759500Y-74788007D01*
X122740593Y-74846198D01*
X122734939Y-74853274D01*
X122686221Y-74908827D01*
X122686220Y-74908828D01*
X122686220Y-74908829D01*
X122660581Y-74984357D01*
X122660580Y-74984360D01*
X122664480Y-75043853D01*
X122664480Y-75043854D01*
X122664480Y-75043857D01*
X122664481Y-75043859D01*
X122703238Y-75188500D01*
X122831772Y-75668199D01*
X122855877Y-75758157D01*
X122882250Y-75811636D01*
X122942220Y-75864228D01*
X123017751Y-75889868D01*
X123017752Y-75889867D01*
X123017753Y-75889868D01*
X123032626Y-75888893D01*
X123077252Y-75885968D01*
X123791550Y-75694572D01*
X123845029Y-75668199D01*
X123897621Y-75608229D01*
X123897621Y-75608226D01*
X123897973Y-75607826D01*
X123950556Y-75576541D01*
X124004229Y-75579354D01*
X124004739Y-75579527D01*
X124080270Y-75605167D01*
X124080271Y-75605166D01*
X124080272Y-75605167D01*
X124095145Y-75604192D01*
X124139771Y-75601267D01*
X124854069Y-75409871D01*
X124907548Y-75383498D01*
X124960140Y-75323528D01*
X124985780Y-75247997D01*
X124981880Y-75188496D01*
X124790484Y-74474198D01*
X124764111Y-74420719D01*
X124704141Y-74368127D01*
X124704139Y-74368126D01*
X124628610Y-74342487D01*
X124628607Y-74342486D01*
X124569114Y-74346386D01*
X124569113Y-74346386D01*
X124569109Y-74346386D01*
X124569109Y-74346387D01*
X124390964Y-74394121D01*
X124100611Y-74471921D01*
X124074988Y-74475294D01*
X124024183Y-74475294D01*
X123886096Y-74515840D01*
X123847235Y-74540814D01*
X123837503Y-74546317D01*
X123801333Y-74564155D01*
X123801330Y-74564157D01*
X123798136Y-74567799D01*
X123777241Y-74585795D01*
X123765021Y-74593649D01*
X123740949Y-74621430D01*
X123688552Y-74653025D01*
X123634308Y-74650344D01*
X123566093Y-74627188D01*
X123566088Y-74627187D01*
X123506595Y-74631087D01*
X123506584Y-74631089D01*
X123485120Y-74636840D01*
X123424019Y-74633636D01*
X123376470Y-74595130D01*
X123360500Y-74541213D01*
X123360500Y-71346118D01*
X123353283Y-71319184D01*
X123353283Y-71319183D01*
X123340021Y-71269690D01*
X123340020Y-71269688D01*
X123300463Y-71201173D01*
X123300459Y-71201168D01*
X123248410Y-71149118D01*
X123220633Y-71094601D01*
X123224394Y-71048112D01*
X123239484Y-71002345D01*
X123250925Y-70967652D01*
X123245014Y-70888107D01*
X123218176Y-70834860D01*
X123218175Y-70834858D01*
X122784813Y-70280182D01*
X122762896Y-70252129D01*
X122762895Y-70252128D01*
X122762894Y-70252126D01*
X122717724Y-70213205D01*
X122641974Y-70188227D01*
X122641972Y-70188227D01*
X122602199Y-70191182D01*
X122562425Y-70194138D01*
X122509178Y-70220976D01*
X121926448Y-70676256D01*
X121926446Y-70676257D01*
X121887526Y-70721426D01*
X121862208Y-70798204D01*
X121826028Y-70847546D01*
X121775526Y-70865928D01*
X121695750Y-70871857D01*
X121642640Y-70898627D01*
X121642633Y-70898631D01*
X121430112Y-71064670D01*
X121430111Y-71064671D01*
X119360500Y-71064671D01*
X119360500Y-70032345D01*
X119869075Y-70032345D01*
X119874986Y-70111894D01*
X119901824Y-70165141D01*
X120357104Y-70747871D01*
X120357105Y-70747873D01*
X120402275Y-70786794D01*
X120478025Y-70811772D01*
X120478028Y-70811773D01*
X120557573Y-70805862D01*
X120610820Y-70779024D01*
X121193551Y-70323744D01*
X121210858Y-70303659D01*
X121232474Y-70278572D01*
X121257622Y-70202309D01*
X121293801Y-70152966D01*
X121344306Y-70134584D01*
X121344837Y-70134544D01*
X121344839Y-70134545D01*
X121424384Y-70128634D01*
X121477631Y-70101796D01*
X122060362Y-69646516D01*
X122094636Y-69606740D01*
X122099285Y-69601344D01*
X122099901Y-69599476D01*
X122124264Y-69525592D01*
X122118353Y-69446047D01*
X122115100Y-69439592D01*
X122091514Y-69392798D01*
X121725617Y-68924473D01*
X121636235Y-68810069D01*
X121636234Y-68810068D01*
X121636233Y-68810066D01*
X121591063Y-68771145D01*
X121515313Y-68746167D01*
X121515311Y-68746167D01*
X121475538Y-68749122D01*
X121435764Y-68752078D01*
X121382515Y-68778917D01*
X121382514Y-68778918D01*
X121014119Y-69066740D01*
X120989177Y-69079551D01*
X120989473Y-69080198D01*
X120983032Y-69083139D01*
X120861960Y-69160948D01*
X120767706Y-69269724D01*
X120767146Y-69270596D01*
X120761701Y-69277890D01*
X120760863Y-69279372D01*
X120756233Y-69293411D01*
X120752269Y-69303527D01*
X120723574Y-69366361D01*
X120682202Y-69411439D01*
X120640857Y-69423962D01*
X120623411Y-69425259D01*
X120568953Y-69429306D01*
X120515706Y-69456144D01*
X119932976Y-69911424D01*
X119932974Y-69911425D01*
X119894053Y-69956595D01*
X119869075Y-70032345D01*
X119360500Y-70032345D01*
X119360500Y-68612977D01*
X119379407Y-68554786D01*
X119396691Y-68536452D01*
X119506410Y-68446410D01*
X119637685Y-68286450D01*
X119735232Y-68103954D01*
X119795300Y-67905934D01*
X119795301Y-67905929D01*
X119815583Y-67700003D01*
X119815583Y-67699996D01*
X119795301Y-67494070D01*
X119795300Y-67494065D01*
X119769554Y-67409191D01*
X119735232Y-67296046D01*
X119637685Y-67113550D01*
X119618412Y-67090066D01*
X119506414Y-66953595D01*
X119506410Y-66953590D01*
X119477792Y-66930104D01*
X119346452Y-66822316D01*
X119163954Y-66724768D01*
X118965934Y-66664699D01*
X118965929Y-66664698D01*
X118760003Y-66644417D01*
X118759997Y-66644417D01*
X118554070Y-66664698D01*
X118554065Y-66664699D01*
X118356045Y-66724768D01*
X118173547Y-66822316D01*
X118013595Y-66953585D01*
X118013585Y-66953595D01*
X117882316Y-67113547D01*
X117784768Y-67296045D01*
X117724699Y-67494065D01*
X117724698Y-67494070D01*
X117704417Y-67699996D01*
X113098321Y-67699996D01*
X114368321Y-65500292D01*
X118974417Y-65500292D01*
X118974417Y-65500299D01*
X118994698Y-65706225D01*
X118994699Y-65706230D01*
X119054768Y-65904250D01*
X119152316Y-66086748D01*
X119200820Y-66145850D01*
X119283590Y-66246706D01*
X119283595Y-66246710D01*
X119443547Y-66377979D01*
X119443548Y-66377979D01*
X119443550Y-66377981D01*
X119626046Y-66475528D01*
X119746659Y-66512115D01*
X119824065Y-66535596D01*
X119824070Y-66535597D01*
X120029997Y-66555879D01*
X120030000Y-66555879D01*
X120030003Y-66555879D01*
X120235929Y-66535597D01*
X120235934Y-66535596D01*
X120246480Y-66532397D01*
X120433954Y-66475528D01*
X120616450Y-66377981D01*
X120776410Y-66246706D01*
X120907685Y-66086746D01*
X121005232Y-65904250D01*
X121051979Y-65750145D01*
X128554353Y-65750145D01*
X128554353Y-65750150D01*
X128574834Y-65892604D01*
X128634623Y-66023521D01*
X128689407Y-66086746D01*
X128733509Y-66137642D01*
X128731471Y-66139407D01*
X128756925Y-66181606D01*
X128759500Y-66204041D01*
X128759500Y-77946105D01*
X128740593Y-78004296D01*
X128733258Y-78012289D01*
X128733509Y-78012506D01*
X128634622Y-78126628D01*
X128574834Y-78257543D01*
X128554353Y-78399997D01*
X128554353Y-78400002D01*
X128574834Y-78542456D01*
X128620504Y-78642457D01*
X128634623Y-78673373D01*
X128717927Y-78769512D01*
X128728873Y-78782144D01*
X128846197Y-78857543D01*
X128849947Y-78859953D01*
X128956403Y-78891211D01*
X128988035Y-78900499D01*
X128988036Y-78900499D01*
X128988039Y-78900500D01*
X128988041Y-78900500D01*
X129131959Y-78900500D01*
X129131961Y-78900500D01*
X129270053Y-78859953D01*
X129391128Y-78782143D01*
X129485377Y-78673373D01*
X129545165Y-78542457D01*
X129556944Y-78460529D01*
X129565647Y-78400002D01*
X129565647Y-78399997D01*
X129545165Y-78257543D01*
X129485377Y-78126628D01*
X129485377Y-78126627D01*
X129391128Y-78017857D01*
X129391127Y-78017856D01*
X129386491Y-78012506D01*
X129388524Y-78010743D01*
X129363067Y-77968505D01*
X129360500Y-77946105D01*
X129360500Y-77535924D01*
X129370597Y-77504847D01*
X129368879Y-77497911D01*
X129547782Y-77497911D01*
X129557492Y-77521835D01*
X129574834Y-77642456D01*
X129613324Y-77726735D01*
X129634623Y-77773373D01*
X129728872Y-77882143D01*
X129728873Y-77882144D01*
X129828399Y-77946105D01*
X129849947Y-77959953D01*
X129956403Y-77991211D01*
X129988035Y-78000499D01*
X129988036Y-78000499D01*
X129988039Y-78000500D01*
X129988041Y-78000500D01*
X130131959Y-78000500D01*
X130131961Y-78000500D01*
X130270053Y-77959953D01*
X130391128Y-77882143D01*
X130485377Y-77773373D01*
X130545165Y-77642457D01*
X130565647Y-77500000D01*
X130562507Y-77478164D01*
X130545165Y-77357543D01*
X130502954Y-77265115D01*
X130485377Y-77226627D01*
X130391128Y-77117857D01*
X130391127Y-77117856D01*
X130386491Y-77112506D01*
X130388524Y-77110743D01*
X130363067Y-77068505D01*
X130360500Y-77046105D01*
X130360500Y-55299999D01*
X133934767Y-55299999D01*
X133934768Y-55300000D01*
X134489157Y-55300000D01*
X134480000Y-55334174D01*
X134480000Y-55465826D01*
X134489157Y-55500000D01*
X133934767Y-55500000D01*
X133945190Y-55605831D01*
X133945191Y-55605836D01*
X134005232Y-55803762D01*
X134005234Y-55803767D01*
X134102724Y-55986160D01*
X134102731Y-55986170D01*
X134233940Y-56146050D01*
X134233949Y-56146059D01*
X134393829Y-56277268D01*
X134393839Y-56277275D01*
X134576232Y-56374765D01*
X134576237Y-56374767D01*
X134774166Y-56434808D01*
X134879998Y-56445231D01*
X134880000Y-56445230D01*
X134880000Y-55890842D01*
X134914174Y-55900000D01*
X135045826Y-55900000D01*
X135080000Y-55890842D01*
X135080000Y-56445230D01*
X135080001Y-56445231D01*
X135185833Y-56434808D01*
X135383762Y-56374767D01*
X135383767Y-56374765D01*
X135566160Y-56277275D01*
X135566170Y-56277268D01*
X135726050Y-56146059D01*
X135726059Y-56146050D01*
X135857268Y-55986170D01*
X135857275Y-55986160D01*
X135954765Y-55803767D01*
X135954767Y-55803762D01*
X136014808Y-55605836D01*
X136014809Y-55605831D01*
X136025232Y-55500000D01*
X135470843Y-55500000D01*
X135480000Y-55465826D01*
X135480000Y-55399996D01*
X136464417Y-55399996D01*
X136464417Y-55400003D01*
X136484698Y-55605929D01*
X136484699Y-55605934D01*
X136544768Y-55803954D01*
X136642316Y-55986452D01*
X136773302Y-56146059D01*
X136773590Y-56146410D01*
X136773595Y-56146414D01*
X136933547Y-56277683D01*
X136933548Y-56277683D01*
X136933550Y-56277685D01*
X137116046Y-56375232D01*
X137189241Y-56397434D01*
X137239434Y-56432417D01*
X137259481Y-56490225D01*
X137259500Y-56492170D01*
X137259500Y-76373772D01*
X137240593Y-76431963D01*
X137235321Y-76438602D01*
X137202372Y-76476628D01*
X137142584Y-76607543D01*
X137122103Y-76749997D01*
X137122103Y-76750002D01*
X137142584Y-76892456D01*
X137181755Y-76978227D01*
X137202373Y-77023373D01*
X137296622Y-77132143D01*
X137296623Y-77132144D01*
X137366491Y-77177045D01*
X137417697Y-77209953D01*
X137523779Y-77241101D01*
X137555785Y-77250499D01*
X137555786Y-77250499D01*
X137555789Y-77250500D01*
X137555791Y-77250500D01*
X137699709Y-77250500D01*
X137699711Y-77250500D01*
X137837803Y-77209953D01*
X137958878Y-77132143D01*
X138053127Y-77023373D01*
X138112915Y-76892457D01*
X138133397Y-76750000D01*
X138122825Y-76676472D01*
X138112915Y-76607543D01*
X138076042Y-76526803D01*
X138053127Y-76476627D01*
X137958878Y-76367857D01*
X137936053Y-76353188D01*
X137905975Y-76333857D01*
X137867245Y-76286491D01*
X137860500Y-76250574D01*
X137860500Y-75080299D01*
X138595000Y-75080299D01*
X138595000Y-75349999D01*
X138595001Y-75350000D01*
X139044999Y-75350000D01*
X139045000Y-75349999D01*
X139045000Y-74900001D01*
X139044999Y-74900000D01*
X138775299Y-74900000D01*
X138716963Y-74911603D01*
X138650810Y-74955806D01*
X138650806Y-74955810D01*
X138606603Y-75021963D01*
X138595000Y-75080299D01*
X137860500Y-75080299D01*
X137860500Y-67080299D01*
X138595000Y-67080299D01*
X138595000Y-67349999D01*
X138595001Y-67350000D01*
X139045000Y-67350000D01*
X139045000Y-66900001D01*
X139044999Y-66900000D01*
X138775299Y-66900000D01*
X138716963Y-66911603D01*
X138650810Y-66955806D01*
X138650806Y-66955810D01*
X138606603Y-67021963D01*
X138595000Y-67080299D01*
X137860500Y-67080299D01*
X137860500Y-63999997D01*
X138554353Y-63999997D01*
X138554353Y-64000002D01*
X138574834Y-64142456D01*
X138582808Y-64159916D01*
X138634623Y-64273373D01*
X138686024Y-64332693D01*
X138728873Y-64382144D01*
X138821255Y-64441514D01*
X138849947Y-64459953D01*
X138956403Y-64491211D01*
X138988035Y-64500499D01*
X138988036Y-64500499D01*
X138988039Y-64500500D01*
X138988041Y-64500500D01*
X139131959Y-64500500D01*
X139131961Y-64500500D01*
X139270053Y-64459953D01*
X139391128Y-64382143D01*
X139485377Y-64273373D01*
X139545165Y-64142457D01*
X139562265Y-64023524D01*
X139562508Y-64021835D01*
X139572217Y-64002087D01*
X139562508Y-63978164D01*
X139545165Y-63857543D01*
X139485377Y-63726627D01*
X139391128Y-63617857D01*
X139391127Y-63617856D01*
X139386491Y-63612506D01*
X139388524Y-63610743D01*
X139363067Y-63568505D01*
X139360500Y-63546105D01*
X139360500Y-61199500D01*
X139379407Y-61141309D01*
X139428907Y-61105345D01*
X139459500Y-61100500D01*
X139514747Y-61100500D01*
X139514748Y-61100500D01*
X139573231Y-61088867D01*
X139605500Y-61067305D01*
X139664385Y-61050697D01*
X139721789Y-61071874D01*
X139755783Y-61122747D01*
X139759500Y-61149621D01*
X139759500Y-63964075D01*
X139749402Y-63995151D01*
X139759500Y-64035924D01*
X139759500Y-66850979D01*
X139740593Y-66909170D01*
X139691093Y-66945134D01*
X139629907Y-66945134D01*
X139605499Y-66933294D01*
X139573039Y-66911604D01*
X139573036Y-66911603D01*
X139514700Y-66900000D01*
X139245001Y-66900000D01*
X139245000Y-66900001D01*
X139245000Y-67351000D01*
X139226093Y-67409191D01*
X139176593Y-67445155D01*
X139146000Y-67450000D01*
X139145000Y-67450000D01*
X139145000Y-67451000D01*
X139126093Y-67509191D01*
X139076593Y-67545155D01*
X139046000Y-67550000D01*
X138595001Y-67550000D01*
X138595000Y-67550001D01*
X138595000Y-67819700D01*
X138606603Y-67878036D01*
X138651046Y-67944548D01*
X138667655Y-68003436D01*
X138651046Y-68054552D01*
X138606134Y-68121766D01*
X138606132Y-68121772D01*
X138594501Y-68180241D01*
X138594500Y-68180253D01*
X138594500Y-68919746D01*
X138594501Y-68919758D01*
X138606132Y-68978227D01*
X138606134Y-68978233D01*
X138635392Y-69022020D01*
X138650448Y-69044552D01*
X138716769Y-69088867D01*
X138764816Y-69098424D01*
X138818198Y-69128320D01*
X138843814Y-69183885D01*
X138844500Y-69195521D01*
X138844500Y-71961105D01*
X138825593Y-72019296D01*
X138818258Y-72027289D01*
X138818509Y-72027506D01*
X138813872Y-72032856D01*
X138813872Y-72032857D01*
X138780174Y-72071747D01*
X138719622Y-72141628D01*
X138659834Y-72272543D01*
X138639353Y-72414997D01*
X138639353Y-72415002D01*
X138659834Y-72557456D01*
X138719555Y-72688224D01*
X138719623Y-72688373D01*
X138813872Y-72797143D01*
X138813873Y-72797144D01*
X138934942Y-72874950D01*
X138934947Y-72874953D01*
X139026469Y-72901826D01*
X139073035Y-72915499D01*
X139073036Y-72915499D01*
X139073039Y-72915500D01*
X139073041Y-72915500D01*
X139216959Y-72915500D01*
X139216961Y-72915500D01*
X139355053Y-72874953D01*
X139476128Y-72797143D01*
X139570377Y-72688373D01*
X139570446Y-72688221D01*
X139570541Y-72688118D01*
X139574205Y-72682417D01*
X139575191Y-72683050D01*
X139611814Y-72643144D01*
X139671780Y-72630991D01*
X139727438Y-72656405D01*
X139757527Y-72709681D01*
X139759500Y-72729346D01*
X139759500Y-74546105D01*
X139740593Y-74604296D01*
X139733258Y-74612289D01*
X139733509Y-74612506D01*
X139728872Y-74617856D01*
X139728872Y-74617857D01*
X139660915Y-74696283D01*
X139634622Y-74726628D01*
X139581875Y-74842127D01*
X139540503Y-74887204D01*
X139491822Y-74900000D01*
X139245001Y-74900000D01*
X139245000Y-74900001D01*
X139245000Y-75349999D01*
X139245001Y-75350000D01*
X139655808Y-75350000D01*
X139713999Y-75368907D01*
X139730627Y-75384169D01*
X139732360Y-75386169D01*
X139756178Y-75442528D01*
X139753310Y-75454859D01*
X139763407Y-75447524D01*
X139824593Y-75447524D01*
X139847522Y-75458394D01*
X139849947Y-75459953D01*
X139956403Y-75491211D01*
X139988035Y-75500499D01*
X139988036Y-75500499D01*
X139988039Y-75500500D01*
X139988041Y-75500500D01*
X140131959Y-75500500D01*
X140131961Y-75500500D01*
X140270053Y-75459953D01*
X140271972Y-75458719D01*
X140273812Y-75458235D01*
X140276494Y-75457011D01*
X140276705Y-75457474D01*
X140331144Y-75443161D01*
X140388163Y-75465355D01*
X140421246Y-75516825D01*
X140424500Y-75542000D01*
X140424500Y-75819746D01*
X140424501Y-75819758D01*
X140436132Y-75878227D01*
X140436134Y-75878233D01*
X140480746Y-75944998D01*
X140497355Y-76003886D01*
X140480746Y-76055002D01*
X140436134Y-76121766D01*
X140436132Y-76121772D01*
X140424501Y-76180241D01*
X140424500Y-76180253D01*
X140424500Y-76239736D01*
X140423492Y-76253825D01*
X140416853Y-76300000D01*
X140416853Y-76300003D01*
X140423492Y-76346176D01*
X140424500Y-76360266D01*
X140424500Y-76919746D01*
X140424501Y-76919758D01*
X140436132Y-76978227D01*
X140436134Y-76978233D01*
X140466295Y-77023371D01*
X140480448Y-77044552D01*
X140546769Y-77088867D01*
X140591231Y-77097711D01*
X140605241Y-77100498D01*
X140605246Y-77100498D01*
X140605252Y-77100500D01*
X140605253Y-77100500D01*
X141344747Y-77100500D01*
X141344748Y-77100500D01*
X141403231Y-77088867D01*
X141469552Y-77044552D01*
X141513867Y-76978231D01*
X141525500Y-76919748D01*
X141525500Y-76499997D01*
X150054353Y-76499997D01*
X150054353Y-76500002D01*
X150074834Y-76642456D01*
X150124864Y-76752005D01*
X150134623Y-76773373D01*
X150167663Y-76811504D01*
X150233509Y-76887494D01*
X150231471Y-76889259D01*
X150256925Y-76931458D01*
X150259500Y-76953893D01*
X150259500Y-86046105D01*
X150240593Y-86104296D01*
X150233258Y-86112289D01*
X150233509Y-86112506D01*
X150134622Y-86226628D01*
X150074834Y-86357543D01*
X150054353Y-86499997D01*
X150054353Y-86500002D01*
X150074834Y-86642456D01*
X150113275Y-86726628D01*
X150134623Y-86773373D01*
X150227663Y-86880748D01*
X150228873Y-86882144D01*
X150345624Y-86957175D01*
X150349947Y-86959953D01*
X150456403Y-86991211D01*
X150488035Y-87000499D01*
X150488036Y-87000499D01*
X150488039Y-87000500D01*
X150488041Y-87000500D01*
X150631959Y-87000500D01*
X150631961Y-87000500D01*
X150770053Y-86959953D01*
X150891128Y-86882143D01*
X150985377Y-86773373D01*
X151045165Y-86642457D01*
X151059889Y-86540046D01*
X151065647Y-86500002D01*
X151065647Y-86499997D01*
X151045165Y-86357543D01*
X150999969Y-86258579D01*
X150985377Y-86226627D01*
X150891128Y-86117857D01*
X150891127Y-86117856D01*
X150886491Y-86112506D01*
X150888524Y-86110743D01*
X150863067Y-86068505D01*
X150860500Y-86046105D01*
X150860500Y-81349997D01*
X152054353Y-81349997D01*
X152054353Y-81350002D01*
X152074834Y-81492456D01*
X152121882Y-81595475D01*
X152134623Y-81623373D01*
X152224093Y-81726628D01*
X152233509Y-81737494D01*
X152231471Y-81739259D01*
X152256925Y-81781458D01*
X152259500Y-81803893D01*
X152259500Y-94035809D01*
X152240593Y-94094000D01*
X152233258Y-94101993D01*
X152233509Y-94102210D01*
X152228872Y-94107560D01*
X152228872Y-94107561D01*
X152208737Y-94130798D01*
X152134622Y-94216332D01*
X152074834Y-94347247D01*
X152054353Y-94489701D01*
X152054353Y-94489706D01*
X152074834Y-94632160D01*
X152134622Y-94763075D01*
X152134623Y-94763077D01*
X152227677Y-94870468D01*
X152228873Y-94871848D01*
X152349942Y-94949654D01*
X152349947Y-94949657D01*
X152456403Y-94980915D01*
X152488035Y-94990203D01*
X152488036Y-94990203D01*
X152488039Y-94990204D01*
X152488041Y-94990204D01*
X152631959Y-94990204D01*
X152631961Y-94990204D01*
X152770053Y-94949657D01*
X152891128Y-94871847D01*
X152985377Y-94763077D01*
X153045165Y-94632161D01*
X153065647Y-94489704D01*
X153065646Y-94489700D01*
X159134417Y-94489700D01*
X159134417Y-94489707D01*
X159154698Y-94695633D01*
X159154699Y-94695638D01*
X159214768Y-94893658D01*
X159312316Y-95076156D01*
X159320524Y-95086157D01*
X159443590Y-95236114D01*
X159443595Y-95236118D01*
X159603547Y-95367387D01*
X159603548Y-95367387D01*
X159603550Y-95367389D01*
X159786046Y-95464936D01*
X159899990Y-95499500D01*
X159984065Y-95525004D01*
X159984070Y-95525005D01*
X160189997Y-95545287D01*
X160190000Y-95545287D01*
X160190003Y-95545287D01*
X160395929Y-95525005D01*
X160395934Y-95525004D01*
X160593954Y-95464936D01*
X160776450Y-95367389D01*
X160936410Y-95236114D01*
X161067685Y-95076154D01*
X161165232Y-94893658D01*
X161225300Y-94695638D01*
X161225301Y-94695633D01*
X161245583Y-94489707D01*
X161245583Y-94489700D01*
X161225301Y-94283774D01*
X161225300Y-94283769D01*
X161199648Y-94199205D01*
X161165232Y-94085750D01*
X161067685Y-93903254D01*
X160936410Y-93743294D01*
X160788638Y-93622021D01*
X160776452Y-93612020D01*
X160593954Y-93514472D01*
X160395934Y-93454403D01*
X160395929Y-93454402D01*
X160190003Y-93434121D01*
X160189997Y-93434121D01*
X159984070Y-93454402D01*
X159984065Y-93454403D01*
X159786045Y-93514472D01*
X159603547Y-93612020D01*
X159443595Y-93743289D01*
X159443585Y-93743299D01*
X159312316Y-93903251D01*
X159214768Y-94085749D01*
X159154699Y-94283769D01*
X159154698Y-94283774D01*
X159134417Y-94489700D01*
X153065646Y-94489700D01*
X153045165Y-94347247D01*
X153020743Y-94293771D01*
X152985377Y-94216331D01*
X152891128Y-94107561D01*
X152891127Y-94107560D01*
X152886491Y-94102210D01*
X152888524Y-94100447D01*
X152863067Y-94058209D01*
X152860500Y-94035809D01*
X152860500Y-90977057D01*
X158318082Y-90977057D01*
X158484125Y-91189582D01*
X158529190Y-91228412D01*
X158604747Y-91253327D01*
X158684098Y-91247430D01*
X158737208Y-91220660D01*
X158737209Y-91220660D01*
X158949736Y-91054615D01*
X158672689Y-90700011D01*
X158672688Y-90700010D01*
X158318082Y-90977057D01*
X152860500Y-90977057D01*
X152860500Y-90474467D01*
X157996240Y-90474467D01*
X158002137Y-90553818D01*
X158028907Y-90606928D01*
X158028911Y-90606935D01*
X158194950Y-90819456D01*
X158194951Y-90819456D01*
X158549555Y-90542409D01*
X158549556Y-90542408D01*
X158272509Y-90187802D01*
X158059985Y-90353845D01*
X158021155Y-90398910D01*
X157996240Y-90474467D01*
X152860500Y-90474467D01*
X152860500Y-85265115D01*
X155260182Y-85265115D01*
X155329986Y-85525624D01*
X155356293Y-85578971D01*
X155416115Y-85631432D01*
X155491454Y-85657006D01*
X155491459Y-85657007D01*
X155550805Y-85653117D01*
X155811316Y-85583312D01*
X155694848Y-85148647D01*
X155260182Y-85265115D01*
X152860500Y-85265115D01*
X152860500Y-84752072D01*
X155134725Y-84752072D01*
X155138615Y-84811418D01*
X155208419Y-85071929D01*
X155643084Y-84955461D01*
X155526616Y-84520795D01*
X155266108Y-84590599D01*
X155212761Y-84616906D01*
X155160300Y-84676728D01*
X155134726Y-84752067D01*
X155134725Y-84752072D01*
X152860500Y-84752072D01*
X152860500Y-84469032D01*
X155719802Y-84469032D01*
X155862153Y-85000291D01*
X156004502Y-85531549D01*
X156265011Y-85461746D01*
X156318359Y-85435438D01*
X156318360Y-85435437D01*
X156371101Y-85375297D01*
X156423683Y-85344012D01*
X156477357Y-85346825D01*
X156478377Y-85347171D01*
X156478378Y-85347172D01*
X156553909Y-85372812D01*
X156553910Y-85372811D01*
X156553911Y-85372812D01*
X156568784Y-85371837D01*
X156613410Y-85368912D01*
X156634879Y-85363159D01*
X156695978Y-85366361D01*
X156743528Y-85404866D01*
X156759500Y-85458786D01*
X156759500Y-88653884D01*
X156779978Y-88730308D01*
X156779979Y-88730309D01*
X156809494Y-88781430D01*
X156809495Y-88781434D01*
X156809496Y-88781434D01*
X156819537Y-88798827D01*
X156819538Y-88798828D01*
X156819540Y-88798831D01*
X156871591Y-88850882D01*
X156899367Y-88905397D01*
X156895606Y-88951887D01*
X156869075Y-89032345D01*
X156874986Y-89111894D01*
X156901824Y-89165141D01*
X157357104Y-89747871D01*
X157357105Y-89747873D01*
X157402275Y-89786794D01*
X157478025Y-89811772D01*
X157478028Y-89811773D01*
X157557573Y-89805862D01*
X157610820Y-89779024D01*
X158193551Y-89323744D01*
X158232474Y-89278572D01*
X158257453Y-89202820D01*
X158257452Y-89202817D01*
X158257620Y-89202310D01*
X158293799Y-89152967D01*
X158344305Y-89134584D01*
X158344838Y-89134544D01*
X158344840Y-89134545D01*
X158424385Y-89128634D01*
X158477632Y-89101796D01*
X159060363Y-88646516D01*
X159082237Y-88621129D01*
X159134545Y-88589389D01*
X159195520Y-88594455D01*
X159241872Y-88634394D01*
X159256236Y-88685753D01*
X159256236Y-89370311D01*
X159237329Y-89428502D01*
X159218187Y-89448324D01*
X158926448Y-89676256D01*
X158926446Y-89676257D01*
X158887526Y-89721426D01*
X158862208Y-89798204D01*
X158826028Y-89847546D01*
X158775526Y-89865928D01*
X158695749Y-89871857D01*
X158642639Y-89898627D01*
X158642632Y-89898631D01*
X158430111Y-90064670D01*
X158430110Y-90064671D01*
X158768725Y-90498078D01*
X159107337Y-90931483D01*
X159107338Y-90931484D01*
X159319860Y-90765444D01*
X159358692Y-90720377D01*
X159383743Y-90644409D01*
X159419922Y-90595067D01*
X159470427Y-90576684D01*
X159471498Y-90576604D01*
X159471500Y-90576605D01*
X159551045Y-90570694D01*
X159604292Y-90543856D01*
X160187023Y-90088576D01*
X160225946Y-90043404D01*
X160250925Y-89967652D01*
X160245014Y-89888107D01*
X160218176Y-89834860D01*
X160218175Y-89834858D01*
X160033085Y-89597954D01*
X159878222Y-89399739D01*
X159857296Y-89342245D01*
X159857236Y-89338790D01*
X159857236Y-86957175D01*
X159846156Y-86915825D01*
X159837632Y-86884011D01*
X159836758Y-86880748D01*
X159836758Y-86880747D01*
X159797199Y-86812229D01*
X159797195Y-86812224D01*
X159590546Y-86605574D01*
X159562769Y-86551058D01*
X159562558Y-86521482D01*
X159565647Y-86500000D01*
X159565575Y-86499500D01*
X159545165Y-86357543D01*
X159499969Y-86258579D01*
X159485377Y-86226627D01*
X159391128Y-86117857D01*
X159391127Y-86117856D01*
X159391126Y-86117855D01*
X159270057Y-86040049D01*
X159270054Y-86040047D01*
X159270053Y-86040047D01*
X159270050Y-86040046D01*
X159131964Y-85999500D01*
X159131961Y-85999500D01*
X158988039Y-85999500D01*
X158988035Y-85999500D01*
X158849949Y-86040046D01*
X158849942Y-86040049D01*
X158728873Y-86117855D01*
X158634622Y-86226628D01*
X158574834Y-86357543D01*
X158554353Y-86499997D01*
X158554353Y-86500002D01*
X158574834Y-86642456D01*
X158613275Y-86726628D01*
X158634623Y-86773373D01*
X158727663Y-86880748D01*
X158728873Y-86882144D01*
X158845624Y-86957175D01*
X158849947Y-86959953D01*
X158956403Y-86991211D01*
X158988035Y-87000499D01*
X158988036Y-87000499D01*
X158988039Y-87000500D01*
X158988041Y-87000500D01*
X159094521Y-87000500D01*
X159152712Y-87019407D01*
X159164525Y-87029496D01*
X159227240Y-87092211D01*
X159255017Y-87146728D01*
X159256236Y-87162215D01*
X159256236Y-88316114D01*
X159237329Y-88374305D01*
X159187829Y-88410269D01*
X159126643Y-88410269D01*
X159079223Y-88377065D01*
X158727743Y-87927192D01*
X158636236Y-87810069D01*
X158636235Y-87810068D01*
X158636234Y-87810066D01*
X158591064Y-87771145D01*
X158515314Y-87746167D01*
X158515312Y-87746167D01*
X158475539Y-87749122D01*
X158435765Y-87752078D01*
X158382516Y-87778917D01*
X158382515Y-87778918D01*
X158014124Y-88066737D01*
X157989176Y-88079551D01*
X157989471Y-88080197D01*
X157983030Y-88083138D01*
X157861958Y-88160947D01*
X157767703Y-88269724D01*
X157767134Y-88270610D01*
X157761706Y-88277882D01*
X157760865Y-88279367D01*
X157756244Y-88293381D01*
X157752279Y-88303498D01*
X157723572Y-88366360D01*
X157682201Y-88411438D01*
X157640855Y-88423963D01*
X157568953Y-88429306D01*
X157515706Y-88456144D01*
X157512502Y-88458176D01*
X157453230Y-88473360D01*
X157396354Y-88450806D01*
X157363597Y-88399128D01*
X157360500Y-88374559D01*
X157360500Y-85211993D01*
X157379407Y-85153802D01*
X157385060Y-85146725D01*
X157433779Y-85091173D01*
X157459419Y-85015642D01*
X157459414Y-85015572D01*
X157456967Y-84978231D01*
X157455519Y-84956141D01*
X157264123Y-84241843D01*
X157237750Y-84188364D01*
X157228487Y-84180241D01*
X157177780Y-84135772D01*
X157177778Y-84135771D01*
X157102249Y-84110132D01*
X157102246Y-84110131D01*
X157042753Y-84114031D01*
X157042752Y-84114031D01*
X157042748Y-84114031D01*
X157042748Y-84114032D01*
X157013873Y-84121769D01*
X156328451Y-84305427D01*
X156274970Y-84331801D01*
X156221668Y-84392581D01*
X156169085Y-84423865D01*
X156115414Y-84421052D01*
X156039665Y-84395339D01*
X156039660Y-84395338D01*
X155980314Y-84399228D01*
X155719802Y-84469032D01*
X152860500Y-84469032D01*
X152860500Y-82984360D01*
X154660580Y-82984360D01*
X154664480Y-83043853D01*
X154664480Y-83043854D01*
X154664480Y-83043857D01*
X154664481Y-83043859D01*
X154731003Y-83292122D01*
X154848469Y-83730513D01*
X154855877Y-83758157D01*
X154882250Y-83811636D01*
X154942220Y-83864228D01*
X155017751Y-83889868D01*
X155017752Y-83889867D01*
X155017753Y-83889868D01*
X155032626Y-83888893D01*
X155077252Y-83885968D01*
X155791550Y-83694572D01*
X155845029Y-83668199D01*
X155897621Y-83608229D01*
X155897621Y-83608226D01*
X155897973Y-83607826D01*
X155950556Y-83576541D01*
X156004229Y-83579354D01*
X156004739Y-83579527D01*
X156080270Y-83605167D01*
X156080271Y-83605166D01*
X156080272Y-83605167D01*
X156095145Y-83604192D01*
X156139771Y-83601267D01*
X156854069Y-83409871D01*
X156907548Y-83383498D01*
X156960140Y-83323528D01*
X156985780Y-83247997D01*
X156984591Y-83229864D01*
X156981880Y-83188501D01*
X156981880Y-83188500D01*
X156981880Y-83188496D01*
X156790484Y-82474198D01*
X156764111Y-82420719D01*
X156735584Y-82395702D01*
X156704141Y-82368127D01*
X156704139Y-82368126D01*
X156628610Y-82342487D01*
X156628607Y-82342486D01*
X156569114Y-82346386D01*
X156569113Y-82346386D01*
X156569109Y-82346386D01*
X156569109Y-82346387D01*
X156460958Y-82375366D01*
X156100607Y-82471922D01*
X156074984Y-82475295D01*
X156024183Y-82475295D01*
X155886097Y-82515841D01*
X155886094Y-82515842D01*
X155847242Y-82540810D01*
X155837511Y-82546313D01*
X155801331Y-82564156D01*
X155798131Y-82567805D01*
X155777237Y-82585799D01*
X155765021Y-82593650D01*
X155759666Y-82598291D01*
X155758480Y-82596923D01*
X155713841Y-82623840D01*
X155652880Y-82618602D01*
X155606641Y-82578532D01*
X155592421Y-82527412D01*
X155592421Y-82433557D01*
X155611328Y-82375366D01*
X155621411Y-82363559D01*
X156300460Y-81684511D01*
X156320390Y-81649992D01*
X156340020Y-81615992D01*
X156340020Y-81615990D01*
X156340022Y-81615988D01*
X156360500Y-81539562D01*
X156360500Y-81460438D01*
X156360500Y-80999997D01*
X160054353Y-80999997D01*
X160054353Y-81000002D01*
X160074834Y-81142456D01*
X160104559Y-81207543D01*
X160134623Y-81273373D01*
X160187608Y-81334521D01*
X160228873Y-81382144D01*
X160349942Y-81459950D01*
X160349947Y-81459953D01*
X160456403Y-81491211D01*
X160488035Y-81500499D01*
X160488036Y-81500499D01*
X160488039Y-81500500D01*
X160488041Y-81500500D01*
X160594521Y-81500500D01*
X160652712Y-81519407D01*
X160664525Y-81529496D01*
X160730504Y-81595475D01*
X160758281Y-81649992D01*
X160759500Y-81665479D01*
X160759500Y-91459088D01*
X160740593Y-91517279D01*
X160723310Y-91535612D01*
X160713595Y-91543585D01*
X160713585Y-91543595D01*
X160582316Y-91703547D01*
X160484768Y-91886045D01*
X160424699Y-92084065D01*
X160424698Y-92084070D01*
X160404417Y-92289996D01*
X160404417Y-92290003D01*
X160424698Y-92495929D01*
X160424699Y-92495934D01*
X160484768Y-92693954D01*
X160582316Y-92876452D01*
X160713585Y-93036404D01*
X160713590Y-93036410D01*
X160713595Y-93036414D01*
X160873547Y-93167683D01*
X160873548Y-93167683D01*
X160873550Y-93167685D01*
X161056046Y-93265232D01*
X161193997Y-93307078D01*
X161254065Y-93325300D01*
X161254070Y-93325301D01*
X161459997Y-93345583D01*
X161460000Y-93345583D01*
X161460003Y-93345583D01*
X161665929Y-93325301D01*
X161665934Y-93325300D01*
X161863954Y-93265232D01*
X162046450Y-93167685D01*
X162206410Y-93036410D01*
X162337685Y-92876450D01*
X162435232Y-92693954D01*
X162495300Y-92495934D01*
X162495301Y-92495929D01*
X162515583Y-92290003D01*
X162515583Y-92289996D01*
X162495301Y-92084070D01*
X162495300Y-92084065D01*
X162469951Y-92000500D01*
X162435232Y-91886046D01*
X162337685Y-91703550D01*
X162206410Y-91543590D01*
X162196689Y-91535612D01*
X162046452Y-91412316D01*
X161863954Y-91314768D01*
X161665934Y-91254699D01*
X161665929Y-91254698D01*
X161460003Y-91234417D01*
X161459500Y-91234417D01*
X161459281Y-91234345D01*
X161455160Y-91233940D01*
X161455249Y-91233035D01*
X161401309Y-91215510D01*
X161365345Y-91166010D01*
X161360500Y-91135417D01*
X161360500Y-81460438D01*
X161345784Y-81405519D01*
X161345777Y-81405492D01*
X161340022Y-81384012D01*
X161300460Y-81315489D01*
X161258342Y-81273371D01*
X161090546Y-81105574D01*
X161062769Y-81051058D01*
X161062558Y-81021482D01*
X161065647Y-81000000D01*
X161061025Y-80967855D01*
X161045165Y-80857543D01*
X161039654Y-80845475D01*
X160985377Y-80726627D01*
X160891128Y-80617857D01*
X160891127Y-80617856D01*
X160891126Y-80617855D01*
X160770057Y-80540049D01*
X160770054Y-80540047D01*
X160770053Y-80540047D01*
X160770050Y-80540046D01*
X160631964Y-80499500D01*
X160631961Y-80499500D01*
X160488039Y-80499500D01*
X160488035Y-80499500D01*
X160349949Y-80540046D01*
X160349942Y-80540049D01*
X160228873Y-80617855D01*
X160134622Y-80726628D01*
X160074834Y-80857543D01*
X160054353Y-80999997D01*
X156360500Y-80999997D01*
X156360500Y-80249997D01*
X161054353Y-80249997D01*
X161054353Y-80250002D01*
X161074834Y-80392456D01*
X161134622Y-80523371D01*
X161134623Y-80523373D01*
X161216493Y-80617857D01*
X161228873Y-80632144D01*
X161349942Y-80709950D01*
X161349947Y-80709953D01*
X161456403Y-80741211D01*
X161488035Y-80750499D01*
X161488036Y-80750499D01*
X161488039Y-80750500D01*
X161488041Y-80750500D01*
X161594521Y-80750500D01*
X161652712Y-80769407D01*
X161664525Y-80779496D01*
X161730504Y-80845475D01*
X161758281Y-80899992D01*
X161759500Y-80915479D01*
X161759500Y-89459859D01*
X161779978Y-89536283D01*
X161781030Y-89538105D01*
X161781342Y-89539577D01*
X161782463Y-89542282D01*
X161781961Y-89542489D01*
X161793747Y-89597954D01*
X161782601Y-89634267D01*
X161754768Y-89686339D01*
X161754768Y-89686340D01*
X161694699Y-89884360D01*
X161694698Y-89884365D01*
X161674417Y-90090291D01*
X161674417Y-90090298D01*
X161694698Y-90296224D01*
X161694699Y-90296229D01*
X161754768Y-90494249D01*
X161852316Y-90676747D01*
X161957142Y-90804478D01*
X161983590Y-90836705D01*
X161983595Y-90836709D01*
X162143547Y-90967978D01*
X162143548Y-90967978D01*
X162143550Y-90967980D01*
X162326046Y-91065527D01*
X162455322Y-91104742D01*
X162524065Y-91125595D01*
X162524070Y-91125596D01*
X162729997Y-91145878D01*
X162730000Y-91145878D01*
X162730003Y-91145878D01*
X162935929Y-91125596D01*
X162935934Y-91125595D01*
X162961443Y-91117857D01*
X163133954Y-91065527D01*
X163316450Y-90967980D01*
X163476410Y-90836705D01*
X163607685Y-90676745D01*
X163705232Y-90494249D01*
X163765300Y-90296229D01*
X163765301Y-90296224D01*
X163785583Y-90090298D01*
X163785583Y-90090291D01*
X163765301Y-89884365D01*
X163765300Y-89884360D01*
X163741488Y-89805862D01*
X163705232Y-89686341D01*
X163607685Y-89503845D01*
X163596925Y-89490734D01*
X163484622Y-89353891D01*
X163476410Y-89343885D01*
X163396828Y-89278574D01*
X163316452Y-89212611D01*
X163133954Y-89115063D01*
X162935934Y-89054994D01*
X162935929Y-89054993D01*
X162730003Y-89034712D01*
X162729997Y-89034712D01*
X162524070Y-89054993D01*
X162524068Y-89054994D01*
X162488236Y-89065863D01*
X162427062Y-89064660D01*
X162378279Y-89027730D01*
X162360500Y-88971125D01*
X162360500Y-87890586D01*
X162944919Y-87890586D01*
X162944919Y-87890595D01*
X162965190Y-88096421D01*
X162965191Y-88096427D01*
X163025232Y-88294353D01*
X163025234Y-88294358D01*
X163122724Y-88476751D01*
X163122731Y-88476761D01*
X163253942Y-88636643D01*
X163389543Y-88747928D01*
X163389544Y-88747928D01*
X163667974Y-88265671D01*
X163692993Y-88290690D01*
X163807007Y-88356516D01*
X163841180Y-88365672D01*
X163562957Y-88847569D01*
X163562957Y-88847570D01*
X163596232Y-88865356D01*
X163596237Y-88865358D01*
X163794163Y-88925399D01*
X163794169Y-88925400D01*
X163999996Y-88945672D01*
X164000004Y-88945672D01*
X164205830Y-88925400D01*
X164205836Y-88925399D01*
X164403762Y-88865358D01*
X164403767Y-88865356D01*
X164586160Y-88767866D01*
X164586170Y-88767859D01*
X164746050Y-88636649D01*
X164746059Y-88636640D01*
X164857337Y-88501046D01*
X164857337Y-88501045D01*
X164375082Y-88222614D01*
X164400099Y-88197598D01*
X164465925Y-88083584D01*
X164475082Y-88049409D01*
X164956978Y-88327633D01*
X164974768Y-88294352D01*
X165034808Y-88096427D01*
X165034809Y-88096421D01*
X165055081Y-87890595D01*
X165055081Y-87890586D01*
X165034809Y-87684760D01*
X165034808Y-87684754D01*
X164974767Y-87486828D01*
X164974765Y-87486823D01*
X164877275Y-87304430D01*
X164877268Y-87304420D01*
X164746057Y-87144538D01*
X164610455Y-87033252D01*
X164610454Y-87033252D01*
X164332023Y-87515508D01*
X164307007Y-87490492D01*
X164192993Y-87424666D01*
X164158817Y-87415508D01*
X164437041Y-86933611D01*
X164437041Y-86933610D01*
X164403771Y-86915827D01*
X164403754Y-86915821D01*
X164205836Y-86855782D01*
X164205830Y-86855781D01*
X164000004Y-86835510D01*
X163999996Y-86835510D01*
X163794169Y-86855781D01*
X163794163Y-86855782D01*
X163596237Y-86915823D01*
X163596232Y-86915825D01*
X163413839Y-87013315D01*
X163413829Y-87013322D01*
X163253947Y-87144533D01*
X163142661Y-87280134D01*
X163142661Y-87280135D01*
X163624918Y-87558566D01*
X163599901Y-87583584D01*
X163534075Y-87697598D01*
X163524918Y-87731771D01*
X163043021Y-87453547D01*
X163043020Y-87453547D01*
X163025234Y-87486823D01*
X163025231Y-87486832D01*
X162965191Y-87684754D01*
X162965190Y-87684760D01*
X162944919Y-87890586D01*
X162360500Y-87890586D01*
X162360500Y-80710438D01*
X162345784Y-80655519D01*
X162345777Y-80655492D01*
X162340022Y-80634012D01*
X162300460Y-80565489D01*
X162234471Y-80499500D01*
X162090546Y-80355574D01*
X162062769Y-80301058D01*
X162062558Y-80271482D01*
X162065647Y-80250000D01*
X162057478Y-80193186D01*
X162045165Y-80107543D01*
X161985377Y-79976628D01*
X161985377Y-79976627D01*
X161891128Y-79867857D01*
X161891127Y-79867856D01*
X161891126Y-79867855D01*
X161770057Y-79790049D01*
X161770054Y-79790047D01*
X161770053Y-79790047D01*
X161770050Y-79790046D01*
X161631964Y-79749500D01*
X161631961Y-79749500D01*
X161488039Y-79749500D01*
X161488035Y-79749500D01*
X161349949Y-79790046D01*
X161349942Y-79790049D01*
X161228873Y-79867855D01*
X161134622Y-79976628D01*
X161074834Y-80107543D01*
X161054353Y-80249997D01*
X156360500Y-80249997D01*
X156360500Y-78899997D01*
X160054353Y-78899997D01*
X160054353Y-78900002D01*
X160074834Y-79042456D01*
X160120504Y-79142457D01*
X160134623Y-79173373D01*
X160221271Y-79273371D01*
X160228873Y-79282144D01*
X160349942Y-79359950D01*
X160349947Y-79359953D01*
X160456403Y-79391211D01*
X160488035Y-79400499D01*
X160488036Y-79400499D01*
X160488039Y-79400500D01*
X160488041Y-79400500D01*
X160631959Y-79400500D01*
X160631961Y-79400500D01*
X160770053Y-79359953D01*
X160891128Y-79282143D01*
X160952327Y-79211514D01*
X161004720Y-79179919D01*
X161065681Y-79185154D01*
X161111923Y-79225221D01*
X161117198Y-79235219D01*
X161134623Y-79273373D01*
X161228872Y-79382143D01*
X161228873Y-79382144D01*
X161257436Y-79400500D01*
X161349947Y-79459953D01*
X161456403Y-79491211D01*
X161488035Y-79500499D01*
X161488036Y-79500499D01*
X161488039Y-79500500D01*
X161488041Y-79500500D01*
X161631959Y-79500500D01*
X161631961Y-79500500D01*
X161770053Y-79459953D01*
X161891128Y-79382143D01*
X161985377Y-79273373D01*
X162045165Y-79142457D01*
X162059543Y-79042456D01*
X162065647Y-79000002D01*
X162065647Y-78999998D01*
X162062558Y-78978516D01*
X162072991Y-78918227D01*
X162090543Y-78894426D01*
X162300460Y-78684511D01*
X162340022Y-78615988D01*
X162360500Y-78539562D01*
X162360500Y-78460438D01*
X162360500Y-71791419D01*
X162600053Y-71791419D01*
X162600054Y-71791424D01*
X162619171Y-71847743D01*
X163004021Y-72514324D01*
X163488266Y-72234744D01*
X163497424Y-72268921D01*
X163563250Y-72382935D01*
X163588266Y-72407951D01*
X163104022Y-72687531D01*
X163488873Y-73354112D01*
X163528088Y-73398828D01*
X163528091Y-73398830D01*
X163599447Y-73434019D01*
X163678840Y-73439223D01*
X163678845Y-73439222D01*
X163735164Y-73420105D01*
X164401745Y-73035254D01*
X164122166Y-72551010D01*
X164156342Y-72541853D01*
X164270356Y-72476027D01*
X164295373Y-72451009D01*
X164574952Y-72935253D01*
X165241533Y-72550403D01*
X165286249Y-72511188D01*
X165286251Y-72511185D01*
X165321440Y-72439829D01*
X165326644Y-72360436D01*
X165326643Y-72360431D01*
X165307526Y-72304112D01*
X164922675Y-71637530D01*
X164438431Y-71917108D01*
X164429274Y-71882935D01*
X164363448Y-71768921D01*
X164338429Y-71743902D01*
X164822674Y-71464323D01*
X164437824Y-70797743D01*
X164398609Y-70753027D01*
X164398606Y-70753025D01*
X164327250Y-70717836D01*
X164247857Y-70712632D01*
X164247852Y-70712633D01*
X164191533Y-70731750D01*
X163524951Y-71116600D01*
X163804530Y-71600845D01*
X163770356Y-71610003D01*
X163656342Y-71675829D01*
X163631323Y-71700847D01*
X163351744Y-71216601D01*
X163351743Y-71216601D01*
X162685171Y-71601447D01*
X162685165Y-71601451D01*
X162640448Y-71640667D01*
X162640446Y-71640670D01*
X162605257Y-71712026D01*
X162600053Y-71791419D01*
X162360500Y-71791419D01*
X162360500Y-71006509D01*
X162379407Y-70948318D01*
X162428907Y-70912354D01*
X162482398Y-70911834D01*
X162482649Y-70910575D01*
X162487419Y-70911524D01*
X162693346Y-70931806D01*
X162693349Y-70931806D01*
X162693352Y-70931806D01*
X162899278Y-70911524D01*
X162899283Y-70911523D01*
X162938423Y-70899650D01*
X163097303Y-70851455D01*
X163279799Y-70753908D01*
X163439759Y-70622633D01*
X163571034Y-70462673D01*
X163668581Y-70280177D01*
X163728649Y-70082157D01*
X163728650Y-70082152D01*
X163748932Y-69876226D01*
X163748932Y-69876219D01*
X163728650Y-69670293D01*
X163728649Y-69670288D01*
X163686197Y-69530343D01*
X163668581Y-69472269D01*
X163571034Y-69289773D01*
X163562498Y-69279372D01*
X163439763Y-69129818D01*
X163439759Y-69129813D01*
X163404041Y-69100500D01*
X163279801Y-68998539D01*
X163097303Y-68900991D01*
X162899283Y-68840922D01*
X162899278Y-68840921D01*
X162693352Y-68820640D01*
X162693346Y-68820640D01*
X162487419Y-68840921D01*
X162487414Y-68840922D01*
X162289394Y-68900991D01*
X162106896Y-68998539D01*
X161946944Y-69129808D01*
X161946934Y-69129818D01*
X161815665Y-69289770D01*
X161718117Y-69472268D01*
X161658048Y-69670288D01*
X161658047Y-69670293D01*
X161637766Y-69876219D01*
X161637766Y-69876226D01*
X161658047Y-70082152D01*
X161658048Y-70082157D01*
X161718117Y-70280177D01*
X161718119Y-70280182D01*
X161761120Y-70360631D01*
X161771876Y-70420863D01*
X161769437Y-70432920D01*
X161759500Y-70470007D01*
X161759500Y-78334521D01*
X161740593Y-78392712D01*
X161730505Y-78404523D01*
X161664523Y-78470504D01*
X161610008Y-78498281D01*
X161594521Y-78499500D01*
X161488039Y-78499500D01*
X161488037Y-78499500D01*
X161488032Y-78499501D01*
X161487390Y-78499690D01*
X161486830Y-78499674D01*
X161481030Y-78500508D01*
X161480885Y-78499504D01*
X161426229Y-78497942D01*
X161377777Y-78460578D01*
X161360500Y-78404700D01*
X161360500Y-68828020D01*
X161379407Y-68769829D01*
X161428907Y-68733865D01*
X161449796Y-68729497D01*
X161474248Y-68727088D01*
X161629277Y-68711820D01*
X161629283Y-68711819D01*
X161827303Y-68651751D01*
X162009799Y-68554204D01*
X162169759Y-68422929D01*
X162301034Y-68262969D01*
X162398581Y-68080473D01*
X162458649Y-67882453D01*
X162458650Y-67882448D01*
X162478932Y-67676522D01*
X162478932Y-67676515D01*
X162458650Y-67470589D01*
X162458649Y-67470584D01*
X162440026Y-67409191D01*
X162398581Y-67272565D01*
X162301034Y-67090069D01*
X162292978Y-67080253D01*
X162169763Y-66930114D01*
X162169759Y-66930109D01*
X162167340Y-66928124D01*
X162009801Y-66798835D01*
X161827303Y-66701287D01*
X161629283Y-66641218D01*
X161629278Y-66641217D01*
X161423352Y-66620936D01*
X161423346Y-66620936D01*
X161217419Y-66641217D01*
X161217414Y-66641218D01*
X161019394Y-66701287D01*
X160836896Y-66798835D01*
X160676944Y-66930104D01*
X160676934Y-66930114D01*
X160545665Y-67090066D01*
X160448117Y-67272564D01*
X160388048Y-67470584D01*
X160388047Y-67470589D01*
X160367766Y-67676515D01*
X160367766Y-67676522D01*
X160388047Y-67882448D01*
X160388048Y-67882453D01*
X160448117Y-68080473D01*
X160545665Y-68262971D01*
X160676937Y-68422927D01*
X160676940Y-68422930D01*
X160723304Y-68460980D01*
X160756292Y-68512511D01*
X160759500Y-68537508D01*
X160759500Y-78234521D01*
X160740593Y-78292712D01*
X160730505Y-78304523D01*
X160664523Y-78370504D01*
X160610008Y-78398281D01*
X160594521Y-78399500D01*
X160488035Y-78399500D01*
X160349949Y-78440046D01*
X160349942Y-78440049D01*
X160228873Y-78517855D01*
X160134622Y-78626628D01*
X160074834Y-78757543D01*
X160054353Y-78899997D01*
X156360500Y-78899997D01*
X156360500Y-77726735D01*
X156379407Y-77668544D01*
X156428907Y-77632580D01*
X156485123Y-77631109D01*
X156569108Y-77653613D01*
X156628606Y-77657513D01*
X156628606Y-77657512D01*
X156628609Y-77657513D01*
X156704140Y-77631873D01*
X156764110Y-77579281D01*
X156790483Y-77525802D01*
X156981879Y-76811504D01*
X156984804Y-76766878D01*
X156985779Y-76752005D01*
X156985778Y-76752004D01*
X156985779Y-76752003D01*
X156960139Y-76676472D01*
X156907547Y-76616502D01*
X156854068Y-76590129D01*
X156854066Y-76590128D01*
X156395672Y-76467302D01*
X156139770Y-76398733D01*
X156139768Y-76398732D01*
X156139765Y-76398732D01*
X156080271Y-76394832D01*
X156080266Y-76394833D01*
X156003718Y-76420818D01*
X155942538Y-76421619D01*
X155897463Y-76392347D01*
X155844721Y-76332205D01*
X155791374Y-76305898D01*
X155530865Y-76236094D01*
X155388516Y-76767354D01*
X155246165Y-77298611D01*
X155506677Y-77368416D01*
X155566023Y-77372306D01*
X155566028Y-77372305D01*
X155628678Y-77351039D01*
X155689858Y-77350238D01*
X155739824Y-77385551D01*
X155759492Y-77443490D01*
X155759500Y-77444785D01*
X155759500Y-81334521D01*
X155740593Y-81392712D01*
X155730504Y-81404525D01*
X155107410Y-82027619D01*
X155107409Y-82027618D01*
X155051460Y-82083568D01*
X155011901Y-82152086D01*
X155011899Y-82152090D01*
X154991421Y-82228514D01*
X154991421Y-82693161D01*
X154972514Y-82751352D01*
X154923014Y-82787316D01*
X154918045Y-82788787D01*
X154792297Y-82822481D01*
X154792296Y-82822482D01*
X154738812Y-82848857D01*
X154686221Y-82908826D01*
X154686220Y-82908828D01*
X154660581Y-82984357D01*
X154660580Y-82984360D01*
X152860500Y-82984360D01*
X152860500Y-81803893D01*
X152879407Y-81745702D01*
X152886741Y-81737711D01*
X152886491Y-81737494D01*
X152891128Y-81732143D01*
X152985377Y-81623373D01*
X153045165Y-81492457D01*
X153060757Y-81384012D01*
X153065647Y-81350002D01*
X153065647Y-81349997D01*
X153045165Y-81207543D01*
X153015440Y-81142456D01*
X152985377Y-81076627D01*
X152891128Y-80967857D01*
X152891127Y-80967856D01*
X152891126Y-80967855D01*
X152770057Y-80890049D01*
X152770054Y-80890047D01*
X152770053Y-80890047D01*
X152770050Y-80890046D01*
X152631964Y-80849500D01*
X152631961Y-80849500D01*
X152488039Y-80849500D01*
X152488035Y-80849500D01*
X152349949Y-80890046D01*
X152349942Y-80890049D01*
X152228873Y-80967855D01*
X152134622Y-81076628D01*
X152074834Y-81207543D01*
X152054353Y-81349997D01*
X150860500Y-81349997D01*
X150860500Y-76953893D01*
X150879407Y-76895702D01*
X150886741Y-76887711D01*
X150886491Y-76887494D01*
X150891128Y-76882143D01*
X150985377Y-76773373D01*
X151045165Y-76642457D01*
X151052689Y-76590128D01*
X151065647Y-76500002D01*
X151065647Y-76499997D01*
X151045165Y-76357543D01*
X151021579Y-76305898D01*
X150985377Y-76226627D01*
X150891128Y-76117857D01*
X150891127Y-76117856D01*
X150891126Y-76117855D01*
X150770057Y-76040049D01*
X150770054Y-76040047D01*
X150770053Y-76040047D01*
X150770050Y-76040046D01*
X150631964Y-75999500D01*
X150631961Y-75999500D01*
X150488039Y-75999500D01*
X150488035Y-75999500D01*
X150349949Y-76040046D01*
X150349942Y-76040049D01*
X150228873Y-76117855D01*
X150134622Y-76226628D01*
X150074834Y-76357543D01*
X150054353Y-76499997D01*
X141525500Y-76499997D01*
X141525500Y-76180252D01*
X141513867Y-76121769D01*
X141469552Y-76055448D01*
X141469549Y-76055446D01*
X141469253Y-76055003D01*
X141452644Y-75996115D01*
X141469253Y-75944997D01*
X141469549Y-75944553D01*
X141469552Y-75944552D01*
X141513867Y-75878231D01*
X141525500Y-75819748D01*
X141525500Y-75080252D01*
X141513867Y-75021769D01*
X141469552Y-74955448D01*
X141404496Y-74911978D01*
X141366619Y-74863928D01*
X141360500Y-74829664D01*
X141360500Y-72953893D01*
X141379407Y-72895702D01*
X141386741Y-72887711D01*
X141386491Y-72887494D01*
X141397358Y-72874953D01*
X141485377Y-72773373D01*
X141545165Y-72642457D01*
X141563588Y-72514324D01*
X141565647Y-72500002D01*
X141565647Y-72499997D01*
X141545165Y-72357543D01*
X141521326Y-72305343D01*
X141485377Y-72226627D01*
X141391128Y-72117857D01*
X141391127Y-72117856D01*
X141391126Y-72117855D01*
X141270057Y-72040049D01*
X141270054Y-72040047D01*
X141270053Y-72040047D01*
X141267591Y-72039324D01*
X141131964Y-71999500D01*
X141131961Y-71999500D01*
X140988039Y-71999500D01*
X140988035Y-71999500D01*
X140849949Y-72040046D01*
X140849942Y-72040049D01*
X140728873Y-72117855D01*
X140634622Y-72226628D01*
X140574834Y-72357543D01*
X140557492Y-72478164D01*
X140547782Y-72497911D01*
X140557492Y-72521835D01*
X140574834Y-72642456D01*
X140614516Y-72729346D01*
X140634623Y-72773373D01*
X140722639Y-72874950D01*
X140733509Y-72887494D01*
X140731471Y-72889259D01*
X140756925Y-72931458D01*
X140759500Y-72953893D01*
X140759500Y-74800500D01*
X140740593Y-74858691D01*
X140691093Y-74894655D01*
X140660500Y-74899500D01*
X140627949Y-74899500D01*
X140569758Y-74880593D01*
X140537896Y-74841628D01*
X140485377Y-74726627D01*
X140391128Y-74617857D01*
X140391127Y-74617856D01*
X140386491Y-74612506D01*
X140388524Y-74610743D01*
X140363067Y-74568505D01*
X140360500Y-74546105D01*
X140360500Y-72535924D01*
X140370597Y-72504847D01*
X140360500Y-72464075D01*
X140360500Y-69149621D01*
X140379407Y-69091430D01*
X140428907Y-69055466D01*
X140490093Y-69055466D01*
X140514496Y-69067302D01*
X140546769Y-69088867D01*
X140591231Y-69097711D01*
X140605241Y-69100498D01*
X140605246Y-69100498D01*
X140605252Y-69100500D01*
X140605253Y-69100500D01*
X141344747Y-69100500D01*
X141344748Y-69100500D01*
X141403231Y-69088867D01*
X141469552Y-69044552D01*
X141513867Y-68978231D01*
X141525500Y-68919748D01*
X141525500Y-68180252D01*
X141513867Y-68121769D01*
X141469552Y-68055448D01*
X141469549Y-68055446D01*
X141469253Y-68055003D01*
X141452644Y-67996115D01*
X141469253Y-67944997D01*
X141469549Y-67944553D01*
X141469552Y-67944552D01*
X141513867Y-67878231D01*
X141525500Y-67819748D01*
X141525500Y-67080252D01*
X141513867Y-67021769D01*
X141469552Y-66955448D01*
X141404496Y-66911978D01*
X141366619Y-66863928D01*
X141360500Y-66829664D01*
X141360500Y-64453893D01*
X141379407Y-64395702D01*
X141386741Y-64387711D01*
X141386491Y-64387494D01*
X141433976Y-64332693D01*
X141485377Y-64273373D01*
X141545165Y-64142457D01*
X141562265Y-64023524D01*
X141565647Y-64000002D01*
X141565647Y-63999997D01*
X141545165Y-63857543D01*
X141485377Y-63726627D01*
X141391128Y-63617857D01*
X141391127Y-63617856D01*
X141391126Y-63617855D01*
X141270057Y-63540049D01*
X141270054Y-63540047D01*
X141270053Y-63540047D01*
X141270050Y-63540046D01*
X141131964Y-63499500D01*
X141131961Y-63499500D01*
X140988039Y-63499500D01*
X140988035Y-63499500D01*
X140849949Y-63540046D01*
X140849942Y-63540049D01*
X140728873Y-63617855D01*
X140634622Y-63726628D01*
X140574834Y-63857543D01*
X140557492Y-63978164D01*
X140547782Y-63997911D01*
X140557492Y-64021835D01*
X140574834Y-64142456D01*
X140582808Y-64159916D01*
X140634623Y-64273373D01*
X140668448Y-64312410D01*
X140733509Y-64387494D01*
X140731471Y-64389259D01*
X140756925Y-64431458D01*
X140759500Y-64453893D01*
X140759500Y-66800500D01*
X140740593Y-66858691D01*
X140691093Y-66894655D01*
X140660500Y-66899500D01*
X140605252Y-66899500D01*
X140605251Y-66899500D01*
X140605241Y-66899501D01*
X140546772Y-66911132D01*
X140546767Y-66911134D01*
X140514501Y-66932694D01*
X140455613Y-66949302D01*
X140398210Y-66928124D01*
X140364217Y-66877251D01*
X140360500Y-66850378D01*
X140360500Y-64035924D01*
X140370597Y-64004847D01*
X140360500Y-63964075D01*
X140360500Y-61149621D01*
X140379407Y-61091430D01*
X140428907Y-61055466D01*
X140490093Y-61055466D01*
X140514496Y-61067302D01*
X140546769Y-61088867D01*
X140589496Y-61097366D01*
X140605241Y-61100498D01*
X140605246Y-61100498D01*
X140605252Y-61100500D01*
X140605253Y-61100500D01*
X141344747Y-61100500D01*
X141344748Y-61100500D01*
X141403231Y-61088867D01*
X141469552Y-61044552D01*
X141513867Y-60978231D01*
X141525500Y-60919748D01*
X141525500Y-60180252D01*
X141513867Y-60121769D01*
X141469552Y-60055448D01*
X141469549Y-60055446D01*
X141469253Y-60055003D01*
X141452644Y-59996115D01*
X141469253Y-59944997D01*
X141469549Y-59944553D01*
X141469552Y-59944552D01*
X141513867Y-59878231D01*
X141525500Y-59819748D01*
X141525500Y-59080252D01*
X141513867Y-59021769D01*
X141469552Y-58955448D01*
X141469548Y-58955445D01*
X141403233Y-58911134D01*
X141403231Y-58911133D01*
X141403228Y-58911132D01*
X141403227Y-58911132D01*
X141344758Y-58899501D01*
X141344748Y-58899500D01*
X140605252Y-58899500D01*
X140605251Y-58899500D01*
X140605241Y-58899501D01*
X140546772Y-58911132D01*
X140546767Y-58911134D01*
X140514501Y-58932694D01*
X140455613Y-58949302D01*
X140398210Y-58928124D01*
X140364217Y-58877251D01*
X140360500Y-58850378D01*
X140360500Y-56480037D01*
X140379407Y-56421846D01*
X140428907Y-56385882D01*
X140430739Y-56385307D01*
X140463954Y-56375232D01*
X140646450Y-56277685D01*
X140806410Y-56146410D01*
X140937685Y-55986450D01*
X141035232Y-55803954D01*
X141095300Y-55605934D01*
X141095301Y-55605929D01*
X141115583Y-55400003D01*
X141115583Y-55399996D01*
X141544417Y-55399996D01*
X141544417Y-55400003D01*
X141564698Y-55605929D01*
X141564699Y-55605934D01*
X141624768Y-55803954D01*
X141722316Y-55986452D01*
X141853302Y-56146059D01*
X141853590Y-56146410D01*
X141853595Y-56146414D01*
X142013547Y-56277683D01*
X142013548Y-56277683D01*
X142013550Y-56277685D01*
X142196046Y-56375232D01*
X142196054Y-56375234D01*
X142198371Y-56376194D01*
X142199250Y-56376944D01*
X142200336Y-56377525D01*
X142200208Y-56377763D01*
X142244903Y-56415923D01*
X142259500Y-56467664D01*
X142259500Y-75212827D01*
X142240593Y-75271018D01*
X142233258Y-75279011D01*
X142233509Y-75279228D01*
X142228872Y-75284578D01*
X142228872Y-75284579D01*
X142195123Y-75323528D01*
X142134622Y-75393350D01*
X142074834Y-75524265D01*
X142054353Y-75666719D01*
X142054353Y-75666724D01*
X142074834Y-75809178D01*
X142111684Y-75889867D01*
X142134623Y-75940095D01*
X142221231Y-76040047D01*
X142228873Y-76048866D01*
X142349942Y-76126672D01*
X142349947Y-76126675D01*
X142456403Y-76157933D01*
X142488035Y-76167221D01*
X142488036Y-76167221D01*
X142488039Y-76167222D01*
X142488041Y-76167222D01*
X142631959Y-76167222D01*
X142631961Y-76167222D01*
X142770053Y-76126675D01*
X142891128Y-76048865D01*
X142985377Y-75940095D01*
X143045165Y-75809179D01*
X143065647Y-75666722D01*
X143053110Y-75579527D01*
X143045165Y-75524265D01*
X143023013Y-75475759D01*
X142985377Y-75393349D01*
X142891128Y-75284579D01*
X142891127Y-75284578D01*
X142886491Y-75279228D01*
X142888524Y-75277465D01*
X142863067Y-75235227D01*
X142860500Y-75212827D01*
X142860500Y-65499997D01*
X152054353Y-65499997D01*
X152054353Y-65500002D01*
X152074834Y-65642456D01*
X152134623Y-65773373D01*
X152233509Y-65887494D01*
X152231471Y-65889259D01*
X152256925Y-65931458D01*
X152259500Y-65953893D01*
X152259500Y-78196105D01*
X152240593Y-78254296D01*
X152233258Y-78262289D01*
X152233509Y-78262506D01*
X152228872Y-78267856D01*
X152228872Y-78267857D01*
X152207335Y-78292712D01*
X152134622Y-78376628D01*
X152074834Y-78507543D01*
X152054353Y-78649997D01*
X152054353Y-78650002D01*
X152074834Y-78792456D01*
X152115794Y-78882144D01*
X152134623Y-78923373D01*
X152228872Y-79032143D01*
X152228873Y-79032144D01*
X152349942Y-79109950D01*
X152349947Y-79109953D01*
X152456403Y-79141211D01*
X152488035Y-79150499D01*
X152488036Y-79150499D01*
X152488039Y-79150500D01*
X152488041Y-79150500D01*
X152631959Y-79150500D01*
X152631961Y-79150500D01*
X152770053Y-79109953D01*
X152891128Y-79032143D01*
X152985377Y-78923373D01*
X153045165Y-78792457D01*
X153058316Y-78700989D01*
X153065647Y-78650002D01*
X153065647Y-78649997D01*
X153045165Y-78507543D01*
X153028250Y-78470504D01*
X152985377Y-78376627D01*
X152891128Y-78267857D01*
X152891127Y-78267856D01*
X152886491Y-78262506D01*
X152888524Y-78260743D01*
X152863067Y-78218505D01*
X152860500Y-78196105D01*
X152860500Y-77015572D01*
X154661088Y-77015572D01*
X154661089Y-77015577D01*
X154686663Y-77090916D01*
X154739124Y-77150738D01*
X154792471Y-77177045D01*
X155052979Y-77246848D01*
X155169447Y-76812182D01*
X154734782Y-76695714D01*
X154664978Y-76956226D01*
X154661088Y-77015572D01*
X152860500Y-77015572D01*
X152860500Y-76502528D01*
X154786545Y-76502528D01*
X155221211Y-76618996D01*
X155337679Y-76184331D01*
X155077168Y-76114527D01*
X155017822Y-76110637D01*
X155017817Y-76110638D01*
X154942478Y-76136212D01*
X154882656Y-76188673D01*
X154856349Y-76242020D01*
X154786545Y-76502528D01*
X152860500Y-76502528D01*
X152860500Y-75247994D01*
X155134220Y-75247994D01*
X155134221Y-75247997D01*
X155159861Y-75323528D01*
X155212453Y-75383498D01*
X155265932Y-75409871D01*
X155980230Y-75601267D01*
X156014230Y-75603495D01*
X156039728Y-75605167D01*
X156039728Y-75605166D01*
X156039731Y-75605167D01*
X156115262Y-75579527D01*
X156115262Y-75579526D01*
X156115768Y-75579355D01*
X156176948Y-75578554D01*
X156222023Y-75607826D01*
X156273671Y-75666719D01*
X156274969Y-75668199D01*
X156328448Y-75694572D01*
X157042746Y-75885968D01*
X157076746Y-75888196D01*
X157102244Y-75889868D01*
X157102244Y-75889867D01*
X157102247Y-75889868D01*
X157177778Y-75864228D01*
X157237748Y-75811636D01*
X157264121Y-75758157D01*
X157455517Y-75043859D01*
X157459417Y-74984358D01*
X157433777Y-74908827D01*
X157381185Y-74848857D01*
X157381184Y-74848856D01*
X157381183Y-74848855D01*
X157340961Y-74829020D01*
X157297134Y-74786326D01*
X157286773Y-74726024D01*
X157313834Y-74671149D01*
X157314674Y-74670297D01*
X158670535Y-73314436D01*
X158710096Y-73245914D01*
X158730575Y-73169487D01*
X158730575Y-72103269D01*
X158749482Y-72045078D01*
X158751542Y-72042344D01*
X159091515Y-71607200D01*
X159118353Y-71553953D01*
X159124264Y-71474408D01*
X159099285Y-71398656D01*
X159099285Y-71398655D01*
X159060364Y-71353485D01*
X159060362Y-71353484D01*
X158477632Y-70898204D01*
X158424385Y-70871366D01*
X158424386Y-70871366D01*
X158343766Y-70865375D01*
X158287136Y-70842207D01*
X158257083Y-70797650D01*
X158232032Y-70721682D01*
X158232033Y-70721682D01*
X158193202Y-70676617D01*
X157980677Y-70510574D01*
X157642065Y-70943982D01*
X157642065Y-70943983D01*
X157303451Y-71377387D01*
X157515978Y-71543432D01*
X157569089Y-71570202D01*
X157648864Y-71576131D01*
X157705493Y-71599299D01*
X157735547Y-71643855D01*
X157760865Y-71720633D01*
X157799785Y-71765802D01*
X157799791Y-71765807D01*
X158091525Y-71993734D01*
X158125740Y-72044459D01*
X158129575Y-72071747D01*
X158129575Y-72964446D01*
X158110668Y-73022637D01*
X158100579Y-73034450D01*
X156934658Y-74200371D01*
X156880141Y-74228148D01*
X156864654Y-74229367D01*
X156169956Y-74229367D01*
X156093532Y-74249845D01*
X156093528Y-74249847D01*
X156025010Y-74289406D01*
X155920294Y-74394121D01*
X155865777Y-74421898D01*
X155824669Y-74419744D01*
X155632027Y-74368127D01*
X155550892Y-74346387D01*
X155550889Y-74346386D01*
X155550886Y-74346386D01*
X155491393Y-74342486D01*
X155491390Y-74342487D01*
X155415861Y-74368126D01*
X155415859Y-74368127D01*
X155355890Y-74420718D01*
X155329516Y-74474199D01*
X155138120Y-75188500D01*
X155138120Y-75188501D01*
X155134220Y-75247994D01*
X152860500Y-75247994D01*
X152860500Y-70967592D01*
X156869580Y-70967592D01*
X156894495Y-71043149D01*
X156894494Y-71043149D01*
X156933325Y-71088214D01*
X157145849Y-71254255D01*
X157422896Y-70899650D01*
X157422895Y-70899649D01*
X157068291Y-70622602D01*
X157068290Y-70622603D01*
X156902251Y-70835124D01*
X156902247Y-70835131D01*
X156875477Y-70888241D01*
X156869580Y-70967592D01*
X152860500Y-70967592D01*
X152860500Y-70465001D01*
X157191422Y-70465001D01*
X157546028Y-70742048D01*
X157546029Y-70742047D01*
X157823076Y-70387443D01*
X157823076Y-70387442D01*
X157610555Y-70221403D01*
X157610548Y-70221399D01*
X157557438Y-70194629D01*
X157478087Y-70188732D01*
X157402530Y-70213647D01*
X157357465Y-70252477D01*
X157191422Y-70465001D01*
X152860500Y-70465001D01*
X152860500Y-69525594D01*
X157995736Y-69525594D01*
X158020714Y-69601344D01*
X158059635Y-69646514D01*
X158059637Y-69646515D01*
X158642367Y-70101795D01*
X158695614Y-70128633D01*
X158695616Y-70128634D01*
X158775161Y-70134545D01*
X158775162Y-70134544D01*
X158775693Y-70134584D01*
X158832323Y-70157752D01*
X158862377Y-70202308D01*
X158887526Y-70278573D01*
X158926446Y-70323742D01*
X158926448Y-70323743D01*
X158926449Y-70323744D01*
X159066188Y-70432920D01*
X159509178Y-70779023D01*
X159562425Y-70805861D01*
X159562427Y-70805862D01*
X159641972Y-70811773D01*
X159717724Y-70786794D01*
X159762894Y-70747873D01*
X159762894Y-70747872D01*
X159762896Y-70747871D01*
X160218176Y-70165140D01*
X160245014Y-70111893D01*
X160250925Y-70032348D01*
X160225946Y-69956596D01*
X160225946Y-69956595D01*
X160187025Y-69911425D01*
X160187023Y-69911424D01*
X160141963Y-69876219D01*
X159804616Y-69612655D01*
X159790755Y-69599480D01*
X159730850Y-69530345D01*
X159730849Y-69530344D01*
X159730848Y-69530343D01*
X159609779Y-69452537D01*
X159609776Y-69452536D01*
X159609775Y-69452535D01*
X159588114Y-69446174D01*
X159571454Y-69439592D01*
X159551048Y-69429307D01*
X159551038Y-69429304D01*
X159534228Y-69428055D01*
X159513679Y-69424318D01*
X159471688Y-69411989D01*
X159471684Y-69411988D01*
X159471683Y-69411988D01*
X159471681Y-69411988D01*
X159464676Y-69410981D01*
X159464974Y-69408904D01*
X159416274Y-69393081D01*
X159380445Y-69343991D01*
X159359135Y-69279367D01*
X159320214Y-69234197D01*
X159320212Y-69234196D01*
X158737482Y-68778916D01*
X158684235Y-68752078D01*
X158684236Y-68752078D01*
X158652416Y-68749713D01*
X158604689Y-68746167D01*
X158604688Y-68746167D01*
X158604686Y-68746167D01*
X158528936Y-68771145D01*
X158483766Y-68810066D01*
X158483765Y-68810068D01*
X158028485Y-69392798D01*
X158001647Y-69446045D01*
X157999698Y-69472269D01*
X157997954Y-69495751D01*
X157995736Y-69525594D01*
X152860500Y-69525594D01*
X152860500Y-65953893D01*
X152879407Y-65895702D01*
X152886741Y-65887711D01*
X152886491Y-65887494D01*
X152892319Y-65880768D01*
X152985377Y-65773373D01*
X153045165Y-65642457D01*
X153065604Y-65500299D01*
X153065647Y-65500002D01*
X153065647Y-65499997D01*
X153062313Y-65476810D01*
X159097766Y-65476810D01*
X159097766Y-65476817D01*
X159118047Y-65682743D01*
X159118048Y-65682748D01*
X159178117Y-65880768D01*
X159275665Y-66063266D01*
X159343440Y-66145850D01*
X159406939Y-66223224D01*
X159406944Y-66223228D01*
X159566896Y-66354497D01*
X159566897Y-66354497D01*
X159566899Y-66354499D01*
X159749395Y-66452046D01*
X159887346Y-66493892D01*
X159947414Y-66512114D01*
X159947419Y-66512115D01*
X160153346Y-66532397D01*
X160153349Y-66532397D01*
X160153352Y-66532397D01*
X160359278Y-66512115D01*
X160359283Y-66512114D01*
X160557303Y-66452046D01*
X160739799Y-66354499D01*
X160899759Y-66223224D01*
X161031034Y-66063264D01*
X161128581Y-65880768D01*
X161188649Y-65682748D01*
X161188650Y-65682743D01*
X161208932Y-65476817D01*
X161208932Y-65476810D01*
X161188650Y-65270884D01*
X161188649Y-65270879D01*
X161170427Y-65210811D01*
X161128581Y-65072860D01*
X161031034Y-64890364D01*
X160899759Y-64730404D01*
X160899753Y-64730399D01*
X160739801Y-64599130D01*
X160557303Y-64501582D01*
X160359283Y-64441513D01*
X160359278Y-64441512D01*
X160153352Y-64421231D01*
X160153346Y-64421231D01*
X159947419Y-64441512D01*
X159947414Y-64441513D01*
X159749394Y-64501582D01*
X159566896Y-64599130D01*
X159406944Y-64730399D01*
X159406934Y-64730409D01*
X159275665Y-64890361D01*
X159178117Y-65072859D01*
X159118048Y-65270879D01*
X159118047Y-65270884D01*
X159097766Y-65476810D01*
X153062313Y-65476810D01*
X153045165Y-65357543D01*
X152985377Y-65226627D01*
X152891128Y-65117857D01*
X152891127Y-65117856D01*
X152891126Y-65117855D01*
X152770057Y-65040049D01*
X152770054Y-65040047D01*
X152770053Y-65040047D01*
X152770050Y-65040046D01*
X152631964Y-64999500D01*
X152631961Y-64999500D01*
X152488039Y-64999500D01*
X152488035Y-64999500D01*
X152349949Y-65040046D01*
X152349942Y-65040049D01*
X152228873Y-65117855D01*
X152134622Y-65226628D01*
X152074834Y-65357543D01*
X152054353Y-65499997D01*
X142860500Y-65499997D01*
X142860500Y-63277106D01*
X157827766Y-63277106D01*
X157827766Y-63277113D01*
X157848047Y-63483039D01*
X157848048Y-63483044D01*
X157908117Y-63681064D01*
X158005665Y-63863562D01*
X158135556Y-64021835D01*
X158136939Y-64023520D01*
X158136944Y-64023524D01*
X158296896Y-64154793D01*
X158296897Y-64154793D01*
X158296899Y-64154795D01*
X158479395Y-64252342D01*
X158617346Y-64294188D01*
X158677414Y-64312410D01*
X158677419Y-64312411D01*
X158883346Y-64332693D01*
X158883349Y-64332693D01*
X158883352Y-64332693D01*
X159089278Y-64312411D01*
X159089283Y-64312410D01*
X159287303Y-64252342D01*
X159469799Y-64154795D01*
X159629759Y-64023520D01*
X159761034Y-63863560D01*
X159858581Y-63681064D01*
X159918649Y-63483044D01*
X159918650Y-63483039D01*
X159938932Y-63277113D01*
X159938932Y-63277106D01*
X159918650Y-63071180D01*
X159918649Y-63071175D01*
X159866873Y-62900492D01*
X159858581Y-62873156D01*
X159761034Y-62690660D01*
X159759660Y-62688986D01*
X159629763Y-62530705D01*
X159629759Y-62530700D01*
X159629753Y-62530695D01*
X159469801Y-62399426D01*
X159287303Y-62301878D01*
X159089283Y-62241809D01*
X159089278Y-62241808D01*
X158883352Y-62221527D01*
X158883346Y-62221527D01*
X158677419Y-62241808D01*
X158677414Y-62241809D01*
X158479394Y-62301878D01*
X158296896Y-62399426D01*
X158136944Y-62530695D01*
X158136934Y-62530705D01*
X158005665Y-62690657D01*
X157908117Y-62873155D01*
X157848048Y-63071175D01*
X157848047Y-63071180D01*
X157827766Y-63277106D01*
X142860500Y-63277106D01*
X142860500Y-56492170D01*
X142879407Y-56433979D01*
X142928907Y-56398015D01*
X142930615Y-56397478D01*
X143003954Y-56375232D01*
X143186450Y-56277685D01*
X143346410Y-56146410D01*
X143477685Y-55986450D01*
X143575232Y-55803954D01*
X143635300Y-55605934D01*
X143635301Y-55605929D01*
X143655583Y-55400003D01*
X143655583Y-55399996D01*
X143635301Y-55194070D01*
X143635300Y-55194065D01*
X143576401Y-54999901D01*
X143575232Y-54996046D01*
X143477685Y-54813550D01*
X143346410Y-54653590D01*
X143196123Y-54530253D01*
X144089500Y-54530253D01*
X144089500Y-56269746D01*
X144089501Y-56269758D01*
X144101132Y-56328227D01*
X144101134Y-56328233D01*
X144145400Y-56394480D01*
X144145448Y-56394552D01*
X144211769Y-56438867D01*
X144256231Y-56447711D01*
X144270241Y-56450498D01*
X144270246Y-56450498D01*
X144270252Y-56450500D01*
X144270253Y-56450500D01*
X146009747Y-56450500D01*
X146009748Y-56450500D01*
X146068231Y-56438867D01*
X146134552Y-56394552D01*
X146178867Y-56328231D01*
X146190500Y-56269748D01*
X146190500Y-54530252D01*
X146188921Y-54522316D01*
X146187711Y-54516231D01*
X146178867Y-54471769D01*
X146134552Y-54405448D01*
X146134548Y-54405445D01*
X146068233Y-54361134D01*
X146068231Y-54361133D01*
X146068228Y-54361132D01*
X146068227Y-54361132D01*
X146009758Y-54349501D01*
X146009748Y-54349500D01*
X144270252Y-54349500D01*
X144270251Y-54349500D01*
X144270241Y-54349501D01*
X144211772Y-54361132D01*
X144211766Y-54361134D01*
X144145451Y-54405445D01*
X144145445Y-54405451D01*
X144101134Y-54471766D01*
X144101132Y-54471772D01*
X144089501Y-54530241D01*
X144089500Y-54530253D01*
X143196123Y-54530253D01*
X143186452Y-54522316D01*
X143003954Y-54424768D01*
X142805934Y-54364699D01*
X142805929Y-54364698D01*
X142600003Y-54344417D01*
X142599997Y-54344417D01*
X142394070Y-54364698D01*
X142394065Y-54364699D01*
X142196045Y-54424768D01*
X142013547Y-54522316D01*
X141853595Y-54653585D01*
X141853585Y-54653595D01*
X141722316Y-54813547D01*
X141624768Y-54996045D01*
X141564699Y-55194065D01*
X141564698Y-55194070D01*
X141544417Y-55399996D01*
X141115583Y-55399996D01*
X141095301Y-55194070D01*
X141095300Y-55194065D01*
X141036401Y-54999901D01*
X141035232Y-54996046D01*
X140937685Y-54813550D01*
X140806410Y-54653590D01*
X140656123Y-54530253D01*
X140646452Y-54522316D01*
X140463954Y-54424768D01*
X140265934Y-54364699D01*
X140265929Y-54364698D01*
X140060003Y-54344417D01*
X140059997Y-54344417D01*
X139854070Y-54364698D01*
X139854065Y-54364699D01*
X139656045Y-54424768D01*
X139473547Y-54522316D01*
X139313595Y-54653585D01*
X139313585Y-54653595D01*
X139182316Y-54813547D01*
X139084768Y-54996045D01*
X139024699Y-55194065D01*
X139024698Y-55194070D01*
X139004417Y-55399996D01*
X139004417Y-55400003D01*
X139024698Y-55605929D01*
X139024699Y-55605934D01*
X139084768Y-55803954D01*
X139182316Y-55986452D01*
X139313302Y-56146059D01*
X139313590Y-56146410D01*
X139313595Y-56146414D01*
X139473547Y-56277683D01*
X139473548Y-56277683D01*
X139473550Y-56277685D01*
X139656046Y-56375232D01*
X139689237Y-56385300D01*
X139739434Y-56420284D01*
X139759481Y-56478092D01*
X139759500Y-56480037D01*
X139759500Y-58850979D01*
X139740593Y-58909170D01*
X139691093Y-58945134D01*
X139629907Y-58945134D01*
X139605499Y-58933294D01*
X139573039Y-58911604D01*
X139573036Y-58911603D01*
X139514700Y-58900000D01*
X139245001Y-58900000D01*
X139245000Y-58900001D01*
X139245000Y-59351000D01*
X139226093Y-59409191D01*
X139176593Y-59445155D01*
X139146000Y-59450000D01*
X139145000Y-59450000D01*
X139145000Y-59451000D01*
X139126093Y-59509191D01*
X139076593Y-59545155D01*
X139046000Y-59550000D01*
X138595001Y-59550000D01*
X138595000Y-59550001D01*
X138595000Y-59819700D01*
X138606603Y-59878036D01*
X138651046Y-59944548D01*
X138667655Y-60003436D01*
X138651046Y-60054552D01*
X138606134Y-60121766D01*
X138606132Y-60121772D01*
X138594501Y-60180241D01*
X138594500Y-60180253D01*
X138594500Y-60919746D01*
X138594501Y-60919758D01*
X138606132Y-60978227D01*
X138606133Y-60978231D01*
X138650448Y-61044552D01*
X138715502Y-61088020D01*
X138753381Y-61136070D01*
X138759500Y-61170335D01*
X138759500Y-63546105D01*
X138740593Y-63604296D01*
X138733258Y-63612289D01*
X138733509Y-63612506D01*
X138634622Y-63726628D01*
X138574834Y-63857543D01*
X138554353Y-63999997D01*
X137860500Y-63999997D01*
X137860500Y-59080299D01*
X138595000Y-59080299D01*
X138595000Y-59349999D01*
X138595001Y-59350000D01*
X139045000Y-59350000D01*
X139045000Y-58900001D01*
X139044999Y-58900000D01*
X138775299Y-58900000D01*
X138716963Y-58911603D01*
X138650810Y-58955806D01*
X138650806Y-58955810D01*
X138606603Y-59021963D01*
X138595000Y-59080299D01*
X137860500Y-59080299D01*
X137860500Y-56467664D01*
X137879407Y-56409473D01*
X137919745Y-56377678D01*
X137919664Y-56377525D01*
X137920522Y-56377066D01*
X137921629Y-56376194D01*
X137923941Y-56375235D01*
X137923954Y-56375232D01*
X138106450Y-56277685D01*
X138266410Y-56146410D01*
X138397685Y-55986450D01*
X138495232Y-55803954D01*
X138555300Y-55605934D01*
X138555301Y-55605929D01*
X138575583Y-55400003D01*
X138575583Y-55399996D01*
X138555301Y-55194070D01*
X138555300Y-55194065D01*
X138496401Y-54999901D01*
X138495232Y-54996046D01*
X138397685Y-54813550D01*
X138266410Y-54653590D01*
X138116123Y-54530253D01*
X138106452Y-54522316D01*
X137923954Y-54424768D01*
X137725934Y-54364699D01*
X137725929Y-54364698D01*
X137520003Y-54344417D01*
X137519997Y-54344417D01*
X137314070Y-54364698D01*
X137314065Y-54364699D01*
X137116045Y-54424768D01*
X136933547Y-54522316D01*
X136773595Y-54653585D01*
X136773585Y-54653595D01*
X136642316Y-54813547D01*
X136544768Y-54996045D01*
X136484699Y-55194065D01*
X136484698Y-55194070D01*
X136464417Y-55399996D01*
X135480000Y-55399996D01*
X135480000Y-55334174D01*
X135470843Y-55300000D01*
X136025232Y-55300000D01*
X136025232Y-55299999D01*
X136014809Y-55194168D01*
X136014808Y-55194163D01*
X135954767Y-54996237D01*
X135954765Y-54996232D01*
X135857275Y-54813839D01*
X135857268Y-54813829D01*
X135726059Y-54653949D01*
X135726050Y-54653940D01*
X135566170Y-54522731D01*
X135566160Y-54522724D01*
X135383767Y-54425234D01*
X135383762Y-54425232D01*
X135185836Y-54365191D01*
X135185831Y-54365190D01*
X135080000Y-54354767D01*
X135080000Y-54909157D01*
X135045826Y-54900000D01*
X134914174Y-54900000D01*
X134880000Y-54909157D01*
X134880000Y-54354767D01*
X134879999Y-54354767D01*
X134774168Y-54365190D01*
X134774163Y-54365191D01*
X134576237Y-54425232D01*
X134576232Y-54425234D01*
X134393839Y-54522724D01*
X134393829Y-54522731D01*
X134233949Y-54653940D01*
X134233940Y-54653949D01*
X134102731Y-54813829D01*
X134102724Y-54813839D01*
X134005234Y-54996232D01*
X134005232Y-54996237D01*
X133945191Y-55194163D01*
X133945190Y-55194168D01*
X133934767Y-55299999D01*
X130360500Y-55299999D01*
X130360500Y-51953893D01*
X130379407Y-51895702D01*
X130386741Y-51887711D01*
X130386491Y-51887494D01*
X130391128Y-51882143D01*
X130485377Y-51773373D01*
X130545165Y-51642457D01*
X130565647Y-51500000D01*
X130545165Y-51357543D01*
X130485377Y-51226627D01*
X130391128Y-51117857D01*
X130391127Y-51117856D01*
X130391126Y-51117855D01*
X130270057Y-51040049D01*
X130270054Y-51040047D01*
X130270053Y-51040047D01*
X130270050Y-51040046D01*
X130131964Y-50999500D01*
X130131961Y-50999500D01*
X129988039Y-50999500D01*
X129988035Y-50999500D01*
X129849949Y-51040046D01*
X129849942Y-51040049D01*
X129728873Y-51117855D01*
X129634622Y-51226628D01*
X129574834Y-51357543D01*
X129554353Y-51499997D01*
X129554353Y-51500002D01*
X129574834Y-51642456D01*
X129634623Y-51773373D01*
X129733509Y-51887494D01*
X129731471Y-51889259D01*
X129756925Y-51931458D01*
X129759500Y-51953893D01*
X129759500Y-65714223D01*
X129749402Y-65745299D01*
X129759500Y-65786072D01*
X129759500Y-77046105D01*
X129740593Y-77104296D01*
X129733258Y-77112289D01*
X129733509Y-77112506D01*
X129728872Y-77117856D01*
X129728872Y-77117857D01*
X129711999Y-77137330D01*
X129634622Y-77226628D01*
X129574834Y-77357543D01*
X129557492Y-77478164D01*
X129547782Y-77497911D01*
X129368879Y-77497911D01*
X129360500Y-77464075D01*
X129360500Y-66204041D01*
X129379407Y-66145850D01*
X129386741Y-66137859D01*
X129386491Y-66137642D01*
X129391128Y-66132291D01*
X129485377Y-66023521D01*
X129545165Y-65892605D01*
X129562508Y-65771983D01*
X129572217Y-65752235D01*
X129562508Y-65728312D01*
X129545165Y-65607691D01*
X129496120Y-65500299D01*
X129485377Y-65476775D01*
X129391128Y-65368005D01*
X129391127Y-65368004D01*
X129391126Y-65368003D01*
X129270057Y-65290197D01*
X129270054Y-65290195D01*
X129270053Y-65290195D01*
X129270050Y-65290194D01*
X129131964Y-65249648D01*
X129131961Y-65249648D01*
X128988039Y-65249648D01*
X128988035Y-65249648D01*
X128849949Y-65290194D01*
X128849942Y-65290197D01*
X128728873Y-65368003D01*
X128634622Y-65476776D01*
X128574834Y-65607691D01*
X128554353Y-65750145D01*
X121051979Y-65750145D01*
X121065300Y-65706230D01*
X121065301Y-65706225D01*
X121085583Y-65500299D01*
X121085583Y-65500292D01*
X121065301Y-65294366D01*
X121065300Y-65294361D01*
X121011758Y-65117857D01*
X121005232Y-65096342D01*
X120907685Y-64913846D01*
X120888411Y-64890361D01*
X120776414Y-64753891D01*
X120776410Y-64753886D01*
X120747791Y-64730399D01*
X120616452Y-64622612D01*
X120433954Y-64525064D01*
X120235934Y-64464995D01*
X120235929Y-64464994D01*
X120030003Y-64444713D01*
X120029997Y-64444713D01*
X119824070Y-64464994D01*
X119824065Y-64464995D01*
X119626045Y-64525064D01*
X119443547Y-64622612D01*
X119283595Y-64753881D01*
X119283585Y-64753891D01*
X119152316Y-64913843D01*
X119054768Y-65096341D01*
X118994699Y-65294361D01*
X118994698Y-65294366D01*
X118974417Y-65500292D01*
X114368321Y-65500292D01*
X115474058Y-63585099D01*
X119936704Y-63585099D01*
X119941908Y-63664492D01*
X119977097Y-63735848D01*
X119977099Y-63735851D01*
X120021815Y-63775066D01*
X120688395Y-64159916D01*
X120967974Y-63675671D01*
X120992993Y-63700690D01*
X121107007Y-63766516D01*
X121141180Y-63775673D01*
X120861602Y-64259917D01*
X121528184Y-64644768D01*
X121584503Y-64663885D01*
X121584508Y-64663886D01*
X121663901Y-64658682D01*
X121735257Y-64623493D01*
X121735260Y-64623491D01*
X121774475Y-64578775D01*
X122159325Y-63912194D01*
X121675081Y-63632615D01*
X121700099Y-63607598D01*
X121765925Y-63493584D01*
X121775082Y-63459408D01*
X122259326Y-63738987D01*
X122644177Y-63072406D01*
X122663294Y-63016087D01*
X122663295Y-63016082D01*
X122658091Y-62936689D01*
X122622902Y-62865333D01*
X122622900Y-62865330D01*
X122578184Y-62826115D01*
X121911603Y-62441264D01*
X121632023Y-62925508D01*
X121607007Y-62900492D01*
X121492993Y-62834666D01*
X121458816Y-62825508D01*
X121738396Y-62341263D01*
X121071815Y-61956413D01*
X121015496Y-61937296D01*
X121015491Y-61937295D01*
X120936098Y-61942499D01*
X120864742Y-61977688D01*
X120864739Y-61977690D01*
X120825523Y-62022407D01*
X120825519Y-62022413D01*
X120440673Y-62688985D01*
X120440673Y-62688986D01*
X120924919Y-62968565D01*
X120899901Y-62993584D01*
X120834075Y-63107598D01*
X120824917Y-63141772D01*
X120340672Y-62862193D01*
X119955822Y-63528775D01*
X119936705Y-63585094D01*
X119936704Y-63585099D01*
X115474058Y-63585099D01*
X122999877Y-50549999D01*
X123045347Y-50509059D01*
X123085614Y-50500500D01*
X157034386Y-50500500D01*
X157092577Y-50519407D01*
G37*
%TD.AperFunction*%
%TD*%
M02*
