%TF.GenerationSoftware,KiCad,Pcbnew,8.0.8*%
%TF.CreationDate,2025-02-21T18:34:30-05:00*%
%TF.ProjectId,pcb_tile_game,7063625f-7469-46c6-955f-67616d652e6b,0.1*%
%TF.SameCoordinates,Original*%
%TF.FileFunction,Soldermask,Bot*%
%TF.FilePolarity,Negative*%
%FSLAX46Y46*%
G04 Gerber Fmt 4.6, Leading zero omitted, Abs format (unit mm)*
G04 Created by KiCad (PCBNEW 8.0.8) date 2025-02-21 18:34:30*
%MOMM*%
%LPD*%
G01*
G04 APERTURE LIST*
G04 Aperture macros list*
%AMHorizOval*
0 Thick line with rounded ends*
0 $1 width*
0 $2 $3 position (X,Y) of the first rounded end (center of the circle)*
0 $4 $5 position (X,Y) of the second rounded end (center of the circle)*
0 Add line between two ends*
20,1,$1,$2,$3,$4,$5,0*
0 Add two circle primitives to create the rounded ends*
1,1,$1,$2,$3*
1,1,$1,$4,$5*%
%AMRotRect*
0 Rectangle, with rotation*
0 The origin of the aperture is its center*
0 $1 length*
0 $2 width*
0 $3 Rotation angle, in degrees counterclockwise*
0 Add horizontal line*
21,1,$1,$2,0,0,$3*%
G04 Aperture macros list end*
%ADD10R,1.700000X1.700000*%
%ADD11O,1.700000X1.700000*%
%ADD12RotRect,1.700000X1.700000X150.000000*%
%ADD13HorizOval,1.700000X0.000000X0.000000X0.000000X0.000000X0*%
%ADD14RotRect,1.700000X1.700000X330.000000*%
%ADD15HorizOval,1.700000X0.000000X0.000000X0.000000X0.000000X0*%
%ADD16RotRect,1.700000X1.700000X210.000000*%
%ADD17HorizOval,1.700000X0.000000X0.000000X0.000000X0.000000X0*%
%ADD18RotRect,1.700000X1.700000X30.000000*%
%ADD19HorizOval,1.700000X0.000000X0.000000X0.000000X0.000000X0*%
%ADD20R,0.700000X0.700000*%
%ADD21RotRect,0.700000X0.700000X255.000000*%
%ADD22RotRect,0.700000X0.700000X308.000000*%
%ADD23RotRect,0.700000X0.700000X285.000000*%
%ADD24RotRect,0.700000X0.700000X232.000000*%
G04 APERTURE END LIST*
D10*
%TO.C,J2*%
X134980000Y-104600000D03*
D11*
X137520000Y-104600000D03*
X140060000Y-104600000D03*
X142600000Y-104600000D03*
X145140000Y-104600000D03*
%TD*%
D12*
%TO.C,J3*%
X158920000Y-96689409D03*
D13*
X160190000Y-94489704D03*
X161460000Y-92290000D03*
X162730000Y-90090295D03*
X164000000Y-87890591D03*
%TD*%
D14*
%TO.C,J6*%
X121300000Y-63300591D03*
D15*
X120030000Y-65500296D03*
X118760000Y-67700000D03*
X117490000Y-69899705D03*
X116220000Y-72099409D03*
%TD*%
D16*
%TO.C,J4*%
X163963349Y-72075928D03*
D17*
X162693349Y-69876223D03*
X161423349Y-67676519D03*
X160153349Y-65476814D03*
X158883349Y-63277110D03*
%TD*%
D18*
%TO.C,J1*%
X116220000Y-87900591D03*
D19*
X117490000Y-90100296D03*
X118760000Y-92300000D03*
X120030000Y-94499705D03*
X121300000Y-96699409D03*
%TD*%
D10*
%TO.C,J5*%
X145140000Y-55400000D03*
D11*
X142600000Y-55400000D03*
X140060000Y-55400000D03*
X137520000Y-55400000D03*
X134980000Y-55400000D03*
%TD*%
D20*
%TO.C,D5*%
X140975000Y-67450000D03*
X140975000Y-68550000D03*
X139145000Y-68550000D03*
X139145000Y-67450000D03*
%TD*%
%TO.C,D6*%
X140975000Y-59450000D03*
X140975000Y-60550000D03*
X139145000Y-60550000D03*
X139145000Y-59450000D03*
%TD*%
D21*
%TO.C,D9*%
X155765561Y-74973827D03*
X156828077Y-75258528D03*
X156354439Y-77026173D03*
X155291923Y-76741472D03*
%TD*%
D20*
%TO.C,D2*%
X140975000Y-91450000D03*
X140975000Y-92550000D03*
X139145000Y-92550000D03*
X139145000Y-91450000D03*
%TD*%
D22*
%TO.C,D14*%
X120563264Y-70117584D03*
X121430075Y-69440356D03*
X122556736Y-70882416D03*
X121689925Y-71559644D03*
%TD*%
D20*
%TO.C,D1*%
X140975000Y-99450000D03*
X140975000Y-100550000D03*
X139145000Y-100550000D03*
X139145000Y-99450000D03*
%TD*%
D23*
%TO.C,D13*%
X123291921Y-75258528D03*
X124354440Y-74973827D03*
X124828079Y-76741472D03*
X123765560Y-77026173D03*
%TD*%
D20*
%TO.C,D3*%
X140975000Y-83450000D03*
X140975000Y-84550000D03*
X139145000Y-84550000D03*
X139145000Y-83450000D03*
%TD*%
D23*
%TO.C,D8*%
X155291921Y-83258528D03*
X156354440Y-82973827D03*
X156828079Y-84741472D03*
X155765560Y-85026173D03*
%TD*%
D22*
%TO.C,D7*%
X158689924Y-90559644D03*
X159556736Y-89882416D03*
X158430076Y-88440356D03*
X157563264Y-89117584D03*
%TD*%
D20*
%TO.C,D4*%
X140975000Y-75450000D03*
X140975000Y-76550000D03*
X139145000Y-76550000D03*
X139145000Y-75450000D03*
%TD*%
D21*
%TO.C,D12*%
X123765560Y-82973827D03*
X124828079Y-83258528D03*
X124354440Y-85026173D03*
X123291921Y-84741472D03*
%TD*%
D24*
%TO.C,D11*%
X121689924Y-88440356D03*
X122556736Y-89117584D03*
X121430076Y-90559644D03*
X120563264Y-89882416D03*
%TD*%
%TO.C,D10*%
X157563264Y-70882416D03*
X158430075Y-71559644D03*
X159556736Y-70117584D03*
X158689925Y-69440356D03*
%TD*%
M02*
