M48
; DRILL file {KiCad 8.0.8} date 2025-04-07T13:41:21-0400
; FORMAT={-:-/ absolute / inch / decimal}
; #@! TF.CreationDate,2025-04-07T13:41:21-04:00
; #@! TF.GenerationSoftware,Kicad,Pcbnew,8.0.8
; #@! TF.FileFunction,Plated,1,2,PTH
FMAT,2
INCH
; #@! TA.AperFunction,Plated,PTH,ViaDrill
T1C0.0118
; #@! TA.AperFunction,Plated,PTH,ComponentDrill
T2C0.0236
%
G90
G05
T1
X4.6559Y-3.248
X4.6913Y-3.2736
X4.6953Y-3.0866
X4.6992Y-3.1993
X4.7179Y-3.2992
X4.7268Y-3.0709
X4.7937Y-3.0512
X4.8528Y-2.8346
X4.8868Y-2.5419
X4.8902Y-2.9941
X4.898Y-3.2657
X4.9Y-3.4764
X4.9039Y-2.0276
X4.9315Y-4.0551
X4.9315Y-3.298
X4.9453Y-2.9604
X4.9567Y-4.0307
X4.9591Y-3.3187
X4.9732Y-2.9419
X4.9846Y-3.3445
X4.9866Y-4.0157
X4.9906Y-2.9902
X5.0102Y-3.2523
X5.0142Y-3.9094
X5.022Y-2.9961
X5.0299Y-2.9134
X5.0417Y-2.2264
X5.0496Y-3.7008
X5.0614Y-2.252
X5.1008Y-2.2795
X5.1205Y-3.2953
X5.1205Y-3.7283
X5.1559Y-2.626
X5.1559Y-2.9016
X5.2366Y-2.6417
X5.2917Y-2.3228
X5.2917Y-2.4803
X5.3134Y-3.6772
X5.337Y-3.5984
X5.337Y-3.7756
X5.3409Y-3.2205
X5.3409Y-3.2795
X5.3449Y-2.9606
X5.406Y-3.4764
X5.4079Y-2.5157
X5.4079Y-2.6024
X5.6087Y-3.5197
X5.6126Y-2.5551
X5.6126Y-2.874
X5.6283Y-3.4764
X5.6559Y-2.7598
X5.6559Y-2.9041
X5.6717Y-2.4803
X5.6717Y-2.7008
X5.6835Y-3.7795
X5.6835Y-3.9764
X5.6874Y-3.6575
X5.6913Y-3.0197
X5.6913Y-3.2205
X5.6913Y-3.3386
X5.6953Y-2.5197
X5.7494Y-2.6339
X5.7504Y-3.2205
X5.8055Y-3.6575
X5.8094Y-2.315
X5.8134Y-3.9055
X5.8449Y-3.3819
X5.8528Y-3.7165
X5.8843Y-3.3819
X5.8843Y-3.6811
X6.0575Y-2.7008
X6.0575Y-2.815
X6.089Y-2.5787
X6.148Y-3.748
X6.3055Y-3.0709
X6.3291Y-3.1811
X6.3507Y-3.0906
X6.3567Y-3.1614
X6.3779Y-3.1072
X6.4079Y-3.1378
T2
X4.5756Y-2.8386
X4.5756Y-3.4607
X4.6256Y-2.752
X4.6256Y-3.5473
X4.6756Y-2.6654
X4.6756Y-3.6339
X4.7256Y-2.5788
X4.7256Y-3.7205
X4.7756Y-2.4921
X4.7756Y-3.8071
X5.3142Y-2.1811
X5.3142Y-4.1181
X5.4142Y-2.1811
X5.4142Y-4.1181
X5.5142Y-2.1811
X5.5142Y-4.1181
X5.6142Y-2.1811
X5.6142Y-4.1181
X5.7142Y-2.1811
X5.7142Y-4.1181
X6.2552Y-2.4912
X6.2567Y-3.8067
X6.3052Y-2.5778
X6.3067Y-3.7201
X6.3552Y-2.6644
X6.3567Y-3.6335
X6.4052Y-2.751
X6.4067Y-3.5469
X6.4552Y-2.8376
X6.4567Y-3.4603
M30
