%TF.GenerationSoftware,KiCad,Pcbnew,8.0.8*%
%TF.CreationDate,2025-04-07T13:41:04-04:00*%
%TF.ProjectId,pcb_tile_game_tile_sos,7063625f-7469-46c6-955f-67616d655f74,1.0*%
%TF.SameCoordinates,Original*%
%TF.FileFunction,Profile,NP*%
%FSLAX46Y46*%
G04 Gerber Fmt 4.6, Leading zero omitted, Abs format (unit mm)*
G04 Created by KiCad (PCBNEW 8.0.8) date 2025-04-07 13:41:04*
%MOMM*%
%LPD*%
G01*
G04 APERTURE LIST*
%TA.AperFunction,Profile*%
%ADD10C,0.200000*%
%TD*%
%TA.AperFunction,Profile*%
%ADD11C,0.100000*%
%TD*%
G04 APERTURE END LIST*
D10*
X122739492Y-110000000D02*
X157380508Y-110000000D01*
X157380508Y-110000000D02*
X174701016Y-80000000D01*
X174701016Y-80000000D02*
X157380508Y-50000000D01*
X122739492Y-50000000D02*
X105418984Y-80000000D01*
X105418984Y-80000000D02*
X122739492Y-110000000D01*
X157380508Y-50000000D02*
X122739492Y-50000000D01*
D11*
%TO.C,LED2*%
X138260001Y-92852842D02*
X138260001Y-91447158D01*
X139165547Y-90650001D02*
X140754452Y-90650001D01*
X140754452Y-93650000D02*
X139165548Y-93650000D01*
X141659999Y-91447158D02*
X141659999Y-92852842D01*
X138210516Y-91230280D02*
G75*
G02*
X138260003Y-91447157I-449816J-216724D01*
G01*
X138210516Y-91230280D02*
G75*
G02*
X138913287Y-90581705I450514J216876D01*
G01*
X138260001Y-92852842D02*
G75*
G02*
X138210514Y-93069719I-499701J-62D01*
G01*
X138913289Y-93718299D02*
G75*
G02*
X138210522Y-93069722I-252259J431695D01*
G01*
X138913289Y-93718299D02*
G75*
G02*
X139165548Y-93649999I252261J-431705D01*
G01*
X139165547Y-90650001D02*
G75*
G02*
X138913289Y-90581702I3J500007D01*
G01*
X140754452Y-93650000D02*
G75*
G02*
X141006710Y-93718299I-3J-500009D01*
G01*
X141006711Y-90581701D02*
G75*
G02*
X140754453Y-90650000I-252261J431710D01*
G01*
X141006711Y-90581701D02*
G75*
G02*
X141709484Y-91230280I252258J-431701D01*
G01*
X141659999Y-91447158D02*
G75*
G02*
X141709484Y-91230280I499990J2D01*
G01*
X141709484Y-93069720D02*
G75*
G02*
X141006711Y-93718297I-450515J-216877D01*
G01*
X141709484Y-93069720D02*
G75*
G02*
X141659999Y-92852843I450505J216876D01*
G01*
%TO.C,LED12*%
X131933808Y-89506952D02*
X131933808Y-87918048D01*
X132730966Y-87012501D02*
X134136650Y-87012501D01*
X134136650Y-90412499D02*
X132730966Y-90412499D01*
X134933807Y-87918047D02*
X134933807Y-89506952D01*
X131865509Y-87665789D02*
G75*
G02*
X131933809Y-87918048I-431705J-252261D01*
G01*
X131865509Y-87665789D02*
G75*
G02*
X132514086Y-86963022I431695J252259D01*
G01*
X131933808Y-89506952D02*
G75*
G02*
X131865509Y-89759210I-500009J3D01*
G01*
X132514088Y-90461984D02*
G75*
G02*
X131865511Y-89759211I-216877J450515D01*
G01*
X132514088Y-90461984D02*
G75*
G02*
X132730965Y-90412499I216876J-450505D01*
G01*
X132730966Y-87012501D02*
G75*
G02*
X132514089Y-86963014I-62J499701D01*
G01*
X134136650Y-90412499D02*
G75*
G02*
X134353528Y-90461984I2J-499990D01*
G01*
X134353528Y-86963016D02*
G75*
G02*
X134136651Y-87012503I-216724J449816D01*
G01*
X134353528Y-86963016D02*
G75*
G02*
X135002103Y-87665787I216876J-450514D01*
G01*
X134933807Y-87918047D02*
G75*
G02*
X135002106Y-87665789I500007J-3D01*
G01*
X135002107Y-89759211D02*
G75*
G02*
X134353528Y-90461984I-431701J-252258D01*
G01*
X135002107Y-89759211D02*
G75*
G02*
X134933808Y-89506953I431710J252261D01*
G01*
%TO.C,LED10*%
X156202281Y-67580418D02*
X157419640Y-66877578D01*
X156759150Y-70139255D02*
X155964697Y-68763224D01*
X158562772Y-67263224D02*
X159357223Y-68639257D01*
X159119639Y-69822060D02*
X157902281Y-70524904D01*
X155779419Y-68578911D02*
G75*
G02*
X155964696Y-68763224I-247752J-434326D01*
G01*
X155779419Y-68578911D02*
G75*
G02*
X155989718Y-67646003I247731J434313D01*
G01*
X156202281Y-67580418D02*
G75*
G02*
X155989718Y-67646002I-250000J433012D01*
G01*
X156759150Y-70139255D02*
G75*
G02*
X156826127Y-70391869I-432964J-249981D01*
G01*
X157582719Y-66726282D02*
G75*
G02*
X157419641Y-66877576I-413062J281696D01*
G01*
X157582719Y-66726282D02*
G75*
G02*
X158495790Y-67010613I413078J-281720D01*
G01*
X157739201Y-70676200D02*
G75*
G02*
X156826131Y-70391869I-413077J281721D01*
G01*
X157739201Y-70676200D02*
G75*
G02*
X157902280Y-70524905I413220J-281867D01*
G01*
X158562772Y-67263224D02*
G75*
G02*
X158495791Y-67010614I433054J250011D01*
G01*
X159119639Y-69822060D02*
G75*
G02*
X159332204Y-69756479I249904J-432724D01*
G01*
X159542503Y-68823567D02*
G75*
G02*
X159332202Y-69756473I-247730J-434312D01*
G01*
X159542503Y-68823567D02*
G75*
G02*
X159357224Y-68639256I247728J434310D01*
G01*
%TO.C,LED5*%
X138260001Y-68552842D02*
X138260001Y-67147158D01*
X139165547Y-66350001D02*
X140754452Y-66350001D01*
X140754452Y-69350000D02*
X139165548Y-69350000D01*
X141659999Y-67147158D02*
X141659999Y-68552842D01*
X138210516Y-66930280D02*
G75*
G02*
X138260003Y-67147157I-449816J-216724D01*
G01*
X138210516Y-66930280D02*
G75*
G02*
X138913287Y-66281705I450514J216876D01*
G01*
X138260001Y-68552842D02*
G75*
G02*
X138210514Y-68769719I-499701J-62D01*
G01*
X138913289Y-69418299D02*
G75*
G02*
X138210522Y-68769722I-252259J431695D01*
G01*
X138913289Y-69418299D02*
G75*
G02*
X139165548Y-69349999I252261J-431705D01*
G01*
X139165547Y-66350001D02*
G75*
G02*
X138913289Y-66281702I3J500007D01*
G01*
X140754452Y-69350000D02*
G75*
G02*
X141006710Y-69418299I-3J-500009D01*
G01*
X141006711Y-66281701D02*
G75*
G02*
X140754453Y-66350000I-252261J431710D01*
G01*
X141006711Y-66281701D02*
G75*
G02*
X141709484Y-66930280I252258J-431701D01*
G01*
X141659999Y-67147158D02*
G75*
G02*
X141709484Y-66930280I499990J2D01*
G01*
X141709484Y-68769720D02*
G75*
G02*
X141006711Y-69418297I-450515J-216877D01*
G01*
X141709484Y-68769720D02*
G75*
G02*
X141659999Y-68552843I450505J216876D01*
G01*
%TO.C,LED1*%
X138260001Y-100952842D02*
X138260001Y-99547158D01*
X139165547Y-98750001D02*
X140754452Y-98750001D01*
X140754452Y-101750000D02*
X139165548Y-101750000D01*
X141659999Y-99547158D02*
X141659999Y-100952842D01*
X138210516Y-99330280D02*
G75*
G02*
X138260003Y-99547157I-449816J-216724D01*
G01*
X138210516Y-99330280D02*
G75*
G02*
X138913287Y-98681705I450514J216876D01*
G01*
X138260001Y-100952842D02*
G75*
G02*
X138210514Y-101169719I-499701J-62D01*
G01*
X138913289Y-101818299D02*
G75*
G02*
X138210522Y-101169722I-252259J431695D01*
G01*
X138913289Y-101818299D02*
G75*
G02*
X139165548Y-101749999I252261J-431705D01*
G01*
X139165547Y-98750001D02*
G75*
G02*
X138913289Y-98681702I3J500007D01*
G01*
X140754452Y-101750000D02*
G75*
G02*
X141006710Y-101818299I-3J-500009D01*
G01*
X141006711Y-98681701D02*
G75*
G02*
X140754453Y-98750000I-252261J431710D01*
G01*
X141006711Y-98681701D02*
G75*
G02*
X141709484Y-99330280I252258J-431701D01*
G01*
X141659999Y-99547158D02*
G75*
G02*
X141709484Y-99330280I499990J2D01*
G01*
X141709484Y-101169720D02*
G75*
G02*
X141006711Y-101818297I-450515J-216877D01*
G01*
X141709484Y-101169720D02*
G75*
G02*
X141659999Y-100952843I450505J216876D01*
G01*
%TO.C,LED3*%
X138260001Y-84752842D02*
X138260001Y-83347158D01*
X139165547Y-82550001D02*
X140754452Y-82550001D01*
X140754452Y-85550000D02*
X139165548Y-85550000D01*
X141659999Y-83347158D02*
X141659999Y-84752842D01*
X138210516Y-83130280D02*
G75*
G02*
X138260003Y-83347157I-449816J-216724D01*
G01*
X138210516Y-83130280D02*
G75*
G02*
X138913287Y-82481705I450514J216876D01*
G01*
X138260001Y-84752842D02*
G75*
G02*
X138210514Y-84969719I-499701J-62D01*
G01*
X138913289Y-85618299D02*
G75*
G02*
X138210522Y-84969722I-252259J431695D01*
G01*
X138913289Y-85618299D02*
G75*
G02*
X139165548Y-85549999I252261J-431705D01*
G01*
X139165547Y-82550001D02*
G75*
G02*
X138913289Y-82481702I3J500007D01*
G01*
X140754452Y-85550000D02*
G75*
G02*
X141006710Y-85618299I-3J-500009D01*
G01*
X141006711Y-82481701D02*
G75*
G02*
X140754453Y-82550000I-252261J431710D01*
G01*
X141006711Y-82481701D02*
G75*
G02*
X141709484Y-83130280I252258J-431701D01*
G01*
X141659999Y-83347158D02*
G75*
G02*
X141709484Y-83130280I499990J2D01*
G01*
X141709484Y-84969720D02*
G75*
G02*
X141006711Y-85618297I-450515J-216877D01*
G01*
X141709484Y-84969720D02*
G75*
G02*
X141659999Y-84752843I450505J216876D01*
G01*
%TO.C,LED7*%
X120463737Y-68442589D02*
X121258188Y-67066557D01*
X121918679Y-70328235D02*
X120701321Y-69625393D01*
X122401320Y-66680908D02*
X123618678Y-67383751D01*
X123856264Y-68566556D02*
X123061811Y-69942588D01*
X120463737Y-68442589D02*
G75*
G02*
X120278457Y-68626900I-433031J250025D01*
G01*
X120488757Y-69559809D02*
G75*
G02*
X120278459Y-68626905I37436J498594D01*
G01*
X120488757Y-69559809D02*
G75*
G02*
X120701318Y-69625394I-37774J-499674D01*
G01*
X121325168Y-66813943D02*
G75*
G02*
X121258188Y-67066556I-499997J-2612D01*
G01*
X121325168Y-66813943D02*
G75*
G02*
X122238242Y-66529614I499996J2604D01*
G01*
X121918679Y-70328235D02*
G75*
G02*
X122081757Y-70479531I-249797J-432785D01*
G01*
X122401320Y-66680908D02*
G75*
G02*
X122238241Y-66529615I249946J432955D01*
G01*
X122994831Y-70195200D02*
G75*
G02*
X122081762Y-70479526I-499989J-2615D01*
G01*
X122994831Y-70195200D02*
G75*
G02*
X123061811Y-69942588I499998J2612D01*
G01*
X123831243Y-67449334D02*
G75*
G02*
X123618678Y-67383752I37338J498293D01*
G01*
X123831243Y-67449334D02*
G75*
G02*
X124041540Y-68382241I-37436J-498595D01*
G01*
X123856264Y-68566556D02*
G75*
G02*
X124041541Y-68382244I433013J-250002D01*
G01*
%TO.C,LED14*%
X156314216Y-91311350D02*
X157108668Y-89935318D01*
X157769160Y-93196997D02*
X156551802Y-92494155D01*
X158251801Y-89549671D02*
X159469159Y-90252513D01*
X159706744Y-91435317D02*
X158912292Y-92811349D01*
X156314216Y-91311350D02*
G75*
G02*
X156128939Y-91495662I-433013J250002D01*
G01*
X156339238Y-92428572D02*
G75*
G02*
X156128940Y-91495663I37435J498596D01*
G01*
X156339238Y-92428572D02*
G75*
G02*
X156551801Y-92494155I-37433J-498586D01*
G01*
X157175649Y-89682706D02*
G75*
G02*
X157108668Y-89935318I-500046J-2596D01*
G01*
X157175649Y-89682706D02*
G75*
G02*
X158088718Y-89398380I499989J2615D01*
G01*
X157769160Y-93196997D02*
G75*
G02*
X157932239Y-93348292I-249982J-432991D01*
G01*
X158251801Y-89549671D02*
G75*
G02*
X158088723Y-89398375I249797J432785D01*
G01*
X158845312Y-93063962D02*
G75*
G02*
X157932239Y-93348292I-499994J-2610D01*
G01*
X158845312Y-93063962D02*
G75*
G02*
X158912292Y-92811350I500002J2610D01*
G01*
X159681723Y-90318096D02*
G75*
G02*
X159469159Y-90252515I37220J497914D01*
G01*
X159681723Y-90318096D02*
G75*
G02*
X159892021Y-91251003I-37436J-498595D01*
G01*
X159706744Y-91435317D02*
G75*
G02*
X159892022Y-91251005I433018J-250006D01*
G01*
%TO.C,LED8*%
X132260481Y-71959859D02*
X132260481Y-70370954D01*
X133057638Y-69465407D02*
X134463322Y-69465407D01*
X134463322Y-72865405D02*
X133057638Y-72865405D01*
X135260480Y-70370954D02*
X135260480Y-71959858D01*
X132192181Y-70118695D02*
G75*
G02*
X132260480Y-70370953I-431710J-252261D01*
G01*
X132192181Y-70118695D02*
G75*
G02*
X132840760Y-69415922I431701J252258D01*
G01*
X132260481Y-71959859D02*
G75*
G02*
X132192182Y-72212117I-500007J3D01*
G01*
X132840760Y-72914890D02*
G75*
G02*
X132192185Y-72212119I-216876J450514D01*
G01*
X132840760Y-72914890D02*
G75*
G02*
X133057637Y-72865403I216724J-449816D01*
G01*
X133057638Y-69465407D02*
G75*
G02*
X132840760Y-69415922I-2J499990D01*
G01*
X134463322Y-72865405D02*
G75*
G02*
X134680199Y-72914892I62J-499701D01*
G01*
X134680200Y-69415922D02*
G75*
G02*
X134463323Y-69465407I-216876J450505D01*
G01*
X134680200Y-69415922D02*
G75*
G02*
X135328777Y-70118695I216877J-450515D01*
G01*
X135260480Y-70370954D02*
G75*
G02*
X135328779Y-70118696I500009J-3D01*
G01*
X135328779Y-72212117D02*
G75*
G02*
X134680202Y-72914884I-431695J-252259D01*
G01*
X135328779Y-72212117D02*
G75*
G02*
X135260479Y-71959858I431705J252261D01*
G01*
%TO.C,LED11*%
X121050841Y-90055845D02*
X122268199Y-89353003D01*
X121607708Y-92614682D02*
X120813255Y-91238651D01*
X123411330Y-89738650D02*
X124205783Y-91114682D01*
X123968198Y-92297487D02*
X122750840Y-93000329D01*
X120627977Y-91054337D02*
G75*
G02*
X120813255Y-91238651I-247695J-434270D01*
G01*
X120627977Y-91054337D02*
G75*
G02*
X120838278Y-90121435I247730J434310D01*
G01*
X121050841Y-90055845D02*
G75*
G02*
X120838276Y-90121426I-249904J432723D01*
G01*
X121607708Y-92614682D02*
G75*
G02*
X121674688Y-92867293I-433015J-249999D01*
G01*
X122431278Y-89201709D02*
G75*
G02*
X122268201Y-89353004I-412596J281191D01*
G01*
X122431278Y-89201709D02*
G75*
G02*
X123344348Y-89486039I413078J-281718D01*
G01*
X122587761Y-93151624D02*
G75*
G02*
X121674690Y-92867293I-413078J281720D01*
G01*
X122587761Y-93151624D02*
G75*
G02*
X122750839Y-93000330I413062J-281696D01*
G01*
X123411330Y-89738650D02*
G75*
G02*
X123344350Y-89486039I433021J250001D01*
G01*
X123968198Y-92297487D02*
G75*
G02*
X124180763Y-92231904I249966J-432912D01*
G01*
X124391062Y-91298995D02*
G75*
G02*
X124180763Y-92231905I-247735J-434313D01*
G01*
X124391062Y-91298995D02*
G75*
G02*
X124205784Y-91114682I247741J434320D01*
G01*
%TO.C,LED4*%
X138260001Y-76652842D02*
X138260001Y-75247158D01*
X139165547Y-74450001D02*
X140754452Y-74450001D01*
X140754452Y-77450000D02*
X139165548Y-77450000D01*
X141659999Y-75247158D02*
X141659999Y-76652842D01*
X138210516Y-75030280D02*
G75*
G02*
X138260003Y-75247157I-449816J-216724D01*
G01*
X138210516Y-75030280D02*
G75*
G02*
X138913287Y-74381705I450514J216876D01*
G01*
X138260001Y-76652842D02*
G75*
G02*
X138210514Y-76869719I-499701J-62D01*
G01*
X138913289Y-77518299D02*
G75*
G02*
X138210522Y-76869722I-252259J431695D01*
G01*
X138913289Y-77518299D02*
G75*
G02*
X139165548Y-77449999I252261J-431705D01*
G01*
X139165547Y-74450001D02*
G75*
G02*
X138913289Y-74381702I3J500007D01*
G01*
X140754452Y-77450000D02*
G75*
G02*
X141006710Y-77518299I-3J-500009D01*
G01*
X141006711Y-74381701D02*
G75*
G02*
X140754453Y-74450000I-252261J431710D01*
G01*
X141006711Y-74381701D02*
G75*
G02*
X141709484Y-75030280I252258J-431701D01*
G01*
X141659999Y-75247158D02*
G75*
G02*
X141709484Y-75030280I499990J2D01*
G01*
X141709484Y-76869720D02*
G75*
G02*
X141006711Y-77518297I-450515J-216877D01*
G01*
X141709484Y-76869720D02*
G75*
G02*
X141659999Y-76652843I450505J216876D01*
G01*
%TO.C,LED6*%
X138260001Y-60452842D02*
X138260001Y-59047158D01*
X139165547Y-58250001D02*
X140754452Y-58250001D01*
X140754452Y-61250000D02*
X139165548Y-61250000D01*
X141659999Y-59047158D02*
X141659999Y-60452842D01*
X138210516Y-58830280D02*
G75*
G02*
X138260003Y-59047157I-449816J-216724D01*
G01*
X138210516Y-58830280D02*
G75*
G02*
X138913287Y-58181705I450514J216876D01*
G01*
X138260001Y-60452842D02*
G75*
G02*
X138210514Y-60669719I-499701J-62D01*
G01*
X138913289Y-61318299D02*
G75*
G02*
X138210522Y-60669722I-252259J431695D01*
G01*
X138913289Y-61318299D02*
G75*
G02*
X139165548Y-61249999I252261J-431705D01*
G01*
X139165547Y-58250001D02*
G75*
G02*
X138913289Y-58181702I3J500007D01*
G01*
X140754452Y-61250000D02*
G75*
G02*
X141006710Y-61318299I-3J-500009D01*
G01*
X141006711Y-58181701D02*
G75*
G02*
X140754453Y-58250000I-252261J431710D01*
G01*
X141006711Y-58181701D02*
G75*
G02*
X141709484Y-58830280I252258J-431701D01*
G01*
X141659999Y-59047158D02*
G75*
G02*
X141709484Y-58830280I499990J2D01*
G01*
X141709484Y-60669720D02*
G75*
G02*
X141006711Y-61318297I-450515J-216877D01*
G01*
X141709484Y-60669720D02*
G75*
G02*
X141659999Y-60452843I450505J216876D01*
G01*
%TO.C,LED9*%
X145236673Y-71959859D02*
X145236673Y-70370954D01*
X146033830Y-69465407D02*
X147439514Y-69465407D01*
X147439514Y-72865405D02*
X146033830Y-72865405D01*
X148236672Y-70370954D02*
X148236672Y-71959858D01*
X145168373Y-70118695D02*
G75*
G02*
X145236672Y-70370953I-431710J-252261D01*
G01*
X145168373Y-70118695D02*
G75*
G02*
X145816952Y-69415922I431701J252258D01*
G01*
X145236673Y-71959859D02*
G75*
G02*
X145168374Y-72212117I-500007J3D01*
G01*
X145816952Y-72914890D02*
G75*
G02*
X145168377Y-72212119I-216876J450514D01*
G01*
X145816952Y-72914890D02*
G75*
G02*
X146033829Y-72865403I216724J-449816D01*
G01*
X146033830Y-69465407D02*
G75*
G02*
X145816952Y-69415922I-2J499990D01*
G01*
X147439514Y-72865405D02*
G75*
G02*
X147656391Y-72914892I62J-499701D01*
G01*
X147656392Y-69415922D02*
G75*
G02*
X147439515Y-69465407I-216876J450505D01*
G01*
X147656392Y-69415922D02*
G75*
G02*
X148304969Y-70118695I216877J-450515D01*
G01*
X148236672Y-70370954D02*
G75*
G02*
X148304971Y-70118696I500009J-3D01*
G01*
X148304971Y-72212117D02*
G75*
G02*
X147656394Y-72914884I-431695J-252259D01*
G01*
X148304971Y-72212117D02*
G75*
G02*
X148236671Y-71959858I431705J252261D01*
G01*
%TO.C,LED13*%
X144910000Y-89506952D02*
X144910000Y-87918048D01*
X145707158Y-87012501D02*
X147112842Y-87012501D01*
X147112842Y-90412499D02*
X145707158Y-90412499D01*
X147909999Y-87918047D02*
X147909999Y-89506952D01*
X144841701Y-87665789D02*
G75*
G02*
X144910001Y-87918048I-431705J-252261D01*
G01*
X144841701Y-87665789D02*
G75*
G02*
X145490278Y-86963022I431695J252259D01*
G01*
X144910000Y-89506952D02*
G75*
G02*
X144841701Y-89759210I-500009J3D01*
G01*
X145490280Y-90461984D02*
G75*
G02*
X144841703Y-89759211I-216877J450515D01*
G01*
X145490280Y-90461984D02*
G75*
G02*
X145707157Y-90412499I216876J-450505D01*
G01*
X145707158Y-87012501D02*
G75*
G02*
X145490281Y-86963014I-62J499701D01*
G01*
X147112842Y-90412499D02*
G75*
G02*
X147329720Y-90461984I2J-499990D01*
G01*
X147329720Y-86963016D02*
G75*
G02*
X147112843Y-87012503I-216724J449816D01*
G01*
X147329720Y-86963016D02*
G75*
G02*
X147978295Y-87665787I216876J-450514D01*
G01*
X147909999Y-87918047D02*
G75*
G02*
X147978298Y-87665789I500007J-3D01*
G01*
X147978299Y-89759211D02*
G75*
G02*
X147329720Y-90461984I-431701J-252258D01*
G01*
X147978299Y-89759211D02*
G75*
G02*
X147910000Y-89506953I431710J252261D01*
G01*
%TD*%
M02*
