%TF.GenerationSoftware,KiCad,Pcbnew,8.0.8*%
%TF.CreationDate,2025-04-07T13:41:04-04:00*%
%TF.ProjectId,pcb_tile_game_tile_sos,7063625f-7469-46c6-955f-67616d655f74,1.0*%
%TF.SameCoordinates,Original*%
%TF.FileFunction,Legend,Bot*%
%TF.FilePolarity,Positive*%
%FSLAX46Y46*%
G04 Gerber Fmt 4.6, Leading zero omitted, Abs format (unit mm)*
G04 Created by KiCad (PCBNEW 8.0.8) date 2025-04-07 13:41:04*
%MOMM*%
%LPD*%
G01*
G04 APERTURE LIST*
%ADD10C,0.000000*%
%ADD11C,0.239466*%
G04 APERTURE END LIST*
D10*
G36*
X166921334Y-66744887D02*
G01*
X165386094Y-67573249D01*
X163825517Y-68351633D01*
X162241234Y-69079608D01*
X160634874Y-69756745D01*
X159008068Y-70382615D01*
X157362446Y-70956785D01*
X155699637Y-71478828D01*
X154021271Y-71948313D01*
X152328979Y-72364810D01*
X150624391Y-72727889D01*
X148909137Y-73037120D01*
X147184846Y-73292073D01*
X145453149Y-73492318D01*
X143715675Y-73637426D01*
X141974056Y-73726966D01*
X140229920Y-73760508D01*
X138464318Y-73737132D01*
X136700983Y-73656354D01*
X134941604Y-73518615D01*
X133187871Y-73324354D01*
X131441475Y-73074013D01*
X129704105Y-72768031D01*
X127977452Y-72406849D01*
X126263205Y-71990908D01*
X124563055Y-71520648D01*
X122878691Y-70996510D01*
X121211804Y-70418933D01*
X119564083Y-69788359D01*
X117937219Y-69105227D01*
X116332901Y-68369978D01*
X114752820Y-67583052D01*
X113198666Y-66744891D01*
X115155696Y-63256602D01*
X115155700Y-63256598D01*
X116594802Y-64032578D01*
X118058728Y-64761327D01*
X119545795Y-65442411D01*
X121054323Y-66075392D01*
X122582628Y-66659835D01*
X124129028Y-67195304D01*
X125691841Y-67681364D01*
X127269386Y-68117577D01*
X128859979Y-68503508D01*
X130461939Y-68838721D01*
X132073584Y-69122781D01*
X133693231Y-69355250D01*
X135319199Y-69535694D01*
X136949804Y-69663675D01*
X138583366Y-69738759D01*
X140218201Y-69760508D01*
X141833217Y-69729348D01*
X143446712Y-69646156D01*
X145057061Y-69511360D01*
X146662640Y-69325385D01*
X148261825Y-69088657D01*
X149852990Y-68801600D01*
X151434513Y-68464640D01*
X153004767Y-68078204D01*
X154562130Y-67642715D01*
X156104977Y-67158601D01*
X157631683Y-66626286D01*
X159140624Y-66046197D01*
X160630176Y-65418757D01*
X162098714Y-64744394D01*
X163544614Y-64023533D01*
X164966252Y-63256598D01*
X166921334Y-66744887D01*
G37*
D11*
X141968728Y-109880269D02*
X138208187Y-109880269D01*
X138208187Y-50119731D01*
X141968728Y-50119731D01*
X141968728Y-109880269D01*
G36*
X141968728Y-109880269D02*
G01*
X138208187Y-109880269D01*
X138208187Y-50119731D01*
X141968728Y-50119731D01*
X141968728Y-109880269D01*
G37*
D10*
G36*
X141974056Y-86272581D02*
G01*
X143715675Y-86362125D01*
X145453149Y-86507235D01*
X147184846Y-86707482D01*
X148909136Y-86962435D01*
X150624391Y-87271666D01*
X152328979Y-87634744D01*
X154021270Y-88051240D01*
X155699635Y-88520723D01*
X157362444Y-89042764D01*
X159008066Y-89616932D01*
X160634871Y-90242799D01*
X162241230Y-90919934D01*
X163825512Y-91647908D01*
X165386087Y-92426290D01*
X166921326Y-93254651D01*
X164966248Y-96744893D01*
X163544610Y-95977937D01*
X162098710Y-95257015D01*
X160630172Y-94582557D01*
X159140620Y-93954994D01*
X157631679Y-93374758D01*
X156104973Y-92842279D01*
X154562126Y-92357990D01*
X153004764Y-91922320D01*
X151434509Y-91535702D01*
X149852986Y-91198567D01*
X148261821Y-90911345D01*
X146662636Y-90674468D01*
X145057057Y-90488367D01*
X143446708Y-90353474D01*
X141833214Y-90270219D01*
X140218197Y-90239034D01*
X138583362Y-90260801D01*
X136949800Y-90335944D01*
X135319195Y-90464019D01*
X133693227Y-90644586D01*
X132073580Y-90877202D01*
X130461936Y-91161426D01*
X128859975Y-91496816D01*
X127269382Y-91882930D01*
X125691838Y-92319326D01*
X124129024Y-92805562D01*
X122582624Y-93341198D01*
X121054319Y-93925790D01*
X119545792Y-94558897D01*
X118058725Y-95240078D01*
X116594799Y-95968891D01*
X115155697Y-96744893D01*
X113198667Y-93254651D01*
X114752822Y-92416488D01*
X116332903Y-91629561D01*
X117937220Y-90894311D01*
X119564084Y-90211178D01*
X121211805Y-89580602D01*
X122878692Y-89003025D01*
X124563056Y-88478885D01*
X126263206Y-88008625D01*
X127977453Y-87592684D01*
X129704106Y-87231502D01*
X131441475Y-86925521D01*
X133187871Y-86675180D01*
X134941604Y-86480921D01*
X136700983Y-86343183D01*
X138464318Y-86262407D01*
X140229920Y-86239034D01*
X141974056Y-86272581D01*
G37*
M02*
