%TF.GenerationSoftware,KiCad,Pcbnew,8.0.8*%
%TF.CreationDate,2025-04-07T13:38:17-04:00*%
%TF.ProjectId,pcb_tile_game_tile_ooo,7063625f-7469-46c6-955f-67616d655f74,1.0*%
%TF.SameCoordinates,Original*%
%TF.FileFunction,Copper,L2,Bot*%
%TF.FilePolarity,Positive*%
%FSLAX46Y46*%
G04 Gerber Fmt 4.6, Leading zero omitted, Abs format (unit mm)*
G04 Created by KiCad (PCBNEW 8.0.8) date 2025-04-07 13:38:17*
%MOMM*%
%LPD*%
G01*
G04 APERTURE LIST*
G04 Aperture macros list*
%AMHorizOval*
0 Thick line with rounded ends*
0 $1 width*
0 $2 $3 position (X,Y) of the first rounded end (center of the circle)*
0 $4 $5 position (X,Y) of the second rounded end (center of the circle)*
0 Add line between two ends*
20,1,$1,$2,$3,$4,$5,0*
0 Add two circle primitives to create the rounded ends*
1,1,$1,$2,$3*
1,1,$1,$4,$5*%
%AMRotRect*
0 Rectangle, with rotation*
0 The origin of the aperture is its center*
0 $1 length*
0 $2 width*
0 $3 Rotation angle, in degrees counterclockwise*
0 Add horizontal line*
21,1,$1,$2,0,0,$3*%
G04 Aperture macros list end*
%TA.AperFunction,ComponentPad*%
%ADD10R,1.700000X1.700000*%
%TD*%
%TA.AperFunction,ComponentPad*%
%ADD11O,1.700000X1.700000*%
%TD*%
%TA.AperFunction,ComponentPad*%
%ADD12RotRect,1.700000X1.700000X150.000000*%
%TD*%
%TA.AperFunction,ComponentPad*%
%ADD13HorizOval,1.700000X0.000000X0.000000X0.000000X0.000000X0*%
%TD*%
%TA.AperFunction,ComponentPad*%
%ADD14RotRect,1.700000X1.700000X330.000000*%
%TD*%
%TA.AperFunction,ComponentPad*%
%ADD15HorizOval,1.700000X0.000000X0.000000X0.000000X0.000000X0*%
%TD*%
%TA.AperFunction,ComponentPad*%
%ADD16RotRect,1.700000X1.700000X210.000000*%
%TD*%
%TA.AperFunction,ComponentPad*%
%ADD17HorizOval,1.700000X0.000000X0.000000X0.000000X0.000000X0*%
%TD*%
%TA.AperFunction,ComponentPad*%
%ADD18RotRect,1.700000X1.700000X30.000000*%
%TD*%
%TA.AperFunction,ComponentPad*%
%ADD19HorizOval,1.700000X0.000000X0.000000X0.000000X0.000000X0*%
%TD*%
%TA.AperFunction,ViaPad*%
%ADD20C,0.600000*%
%TD*%
%TA.AperFunction,Conductor*%
%ADD21C,0.200000*%
%TD*%
G04 APERTURE END LIST*
D10*
%TO.P,J2,1,Pin_1*%
%TO.N,VCC*%
X134980000Y-104600000D03*
D11*
%TO.P,J2,2,Pin_2*%
%TO.N,/TX_J2*%
X137520000Y-104600000D03*
%TO.P,J2,3,Pin_3*%
%TO.N,/DATA_J2*%
X140060000Y-104600000D03*
%TO.P,J2,4,Pin_4*%
%TO.N,/RX_J2*%
X142600000Y-104600000D03*
%TO.P,J2,5,Pin_5*%
%TO.N,GND*%
X145140000Y-104600000D03*
%TD*%
D12*
%TO.P,J3,1,Pin_1*%
%TO.N,GND*%
X158920000Y-96689409D03*
D13*
%TO.P,J3,2,Pin_2*%
%TO.N,/TX_J3*%
X160190000Y-94489704D03*
%TO.P,J3,3,Pin_3*%
%TO.N,/DATA_J3*%
X161460000Y-92290000D03*
%TO.P,J3,4,Pin_4*%
%TO.N,/RX_J3*%
X162730000Y-90090295D03*
%TO.P,J3,5,Pin_5*%
%TO.N,VCC*%
X164000000Y-87890591D03*
%TD*%
D14*
%TO.P,J6,1,Pin_1*%
%TO.N,VCC*%
X121300000Y-63300591D03*
D15*
%TO.P,J6,2,Pin_2*%
%TO.N,/TX_J6*%
X120030000Y-65500296D03*
%TO.P,J6,3,Pin_3*%
%TO.N,/DATA_J6*%
X118760000Y-67700000D03*
%TO.P,J6,4,Pin_4*%
%TO.N,/RX_J6*%
X117490000Y-69899705D03*
%TO.P,J6,5,Pin_5*%
%TO.N,GND*%
X116220000Y-72099409D03*
%TD*%
D16*
%TO.P,J4,1,Pin_1*%
%TO.N,VCC*%
X163963349Y-72075928D03*
D17*
%TO.P,J4,2,Pin_2*%
%TO.N,/TX_J4*%
X162693349Y-69876223D03*
%TO.P,J4,3,Pin_3*%
%TO.N,/DATA_J4*%
X161423349Y-67676519D03*
%TO.P,J4,4,Pin_4*%
%TO.N,/RX_J4*%
X160153349Y-65476814D03*
%TO.P,J4,5,Pin_5*%
%TO.N,GND*%
X158883349Y-63277110D03*
%TD*%
D18*
%TO.P,J1,1,Pin_1*%
%TO.N,GND*%
X116220000Y-87900591D03*
D19*
%TO.P,J1,2,Pin_2*%
%TO.N,/TX_J1*%
X117490000Y-90100296D03*
%TO.P,J1,3,Pin_3*%
%TO.N,/DATA_J1*%
X118760000Y-92300000D03*
%TO.P,J1,4,Pin_4*%
%TO.N,/RX_J1*%
X120030000Y-94499705D03*
%TO.P,J1,5,Pin_5*%
%TO.N,VCC*%
X121300000Y-96699409D03*
%TD*%
D10*
%TO.P,J5,1,Pin_1*%
%TO.N,GND*%
X145140000Y-55400000D03*
D11*
%TO.P,J5,2,Pin_2*%
%TO.N,/TX_J5*%
X142600000Y-55400000D03*
%TO.P,J5,3,Pin_3*%
%TO.N,/DATA_J5*%
X140060000Y-55400000D03*
%TO.P,J5,4,Pin_4*%
%TO.N,/RX_J5*%
X137520000Y-55400000D03*
%TO.P,J5,5,Pin_5*%
%TO.N,VCC*%
X134980000Y-55400000D03*
%TD*%
D20*
%TO.N,GND*%
X134760000Y-87100000D03*
X135060000Y-59600000D03*
X135160000Y-88800000D03*
X135860000Y-61100000D03*
%TO.N,VCC*%
X144460000Y-58775000D03*
X126659999Y-96000000D03*
X141860000Y-80400000D03*
X129360000Y-75568750D03*
X126849386Y-58525000D03*
X162834520Y-75425480D03*
X150360000Y-86153053D03*
X134659039Y-94000000D03*
X143860000Y-93700000D03*
X141870164Y-81763414D03*
X157893650Y-90033650D03*
X135260000Y-80200000D03*
X144560000Y-67100000D03*
X123160000Y-69311027D03*
X144460000Y-99137500D03*
X144660000Y-75200000D03*
X150160000Y-85500000D03*
X157260000Y-80720714D03*
X126549386Y-65237500D03*
%TO.N,Net-(LED1-DOUT)*%
X144260000Y-65400000D03*
X144260000Y-60900000D03*
%TO.N,Net-(LED2-DOUT)*%
X142550380Y-70050000D03*
X142560000Y-74000000D03*
%TO.N,Net-(LED3-DOUT)*%
X137260000Y-78300000D03*
X137260000Y-82400000D03*
%TO.N,Net-(LED4-DOUT)*%
X142560000Y-90000000D03*
X142560000Y-86250000D03*
%TO.N,Net-(LED5-DOUT)*%
X142560000Y-98000000D03*
X142560000Y-94400000D03*
%TO.N,/DATA_J1*%
X128925578Y-73342629D03*
X128949386Y-66825000D03*
X123460000Y-73600000D03*
%TO.N,/TX_J1*%
X122806113Y-72940224D03*
X128160000Y-72800000D03*
X128240314Y-66275000D03*
%TO.N,/RX_J1*%
X129849386Y-67425000D03*
X129648076Y-73799456D03*
X124060000Y-74400000D03*
%TO.N,/TX_J2*%
X131860000Y-68300000D03*
%TO.N,/DATA_J2*%
X133160000Y-68400000D03*
%TO.N,/RX_J2*%
X133860000Y-68900000D03*
%TO.N,/RX_J3*%
X153260000Y-63800000D03*
%TO.N,/DATA_J3*%
X152360000Y-64200000D03*
%TO.N,/TX_J3*%
X150360000Y-64800008D03*
%TO.N,/TX_J4*%
X154360000Y-63300000D03*
X154360000Y-68500000D03*
%TO.N,/RX_J4*%
X156060000Y-65500000D03*
X156060000Y-62100000D03*
%TO.N,/DATA_J4*%
X155160000Y-67500000D03*
X155160000Y-62700000D03*
%TO.N,/UPDI*%
X124560000Y-51500000D03*
X126049386Y-60037500D03*
%TO.N,/RX_J5*%
X132443525Y-59021185D03*
%TO.N,/TX_J5*%
X133999386Y-59925000D03*
%TO.N,/DATA_J5*%
X133349386Y-58524998D03*
%TO.N,Net-(LED10-DOUT)*%
X126660000Y-93200000D03*
X126560000Y-90000000D03*
%TO.N,/DATA_J6*%
X118760000Y-61800000D03*
%TO.N,/RX_J6*%
X123865772Y-67800000D03*
X123865772Y-62655021D03*
%TO.N,/TX_J6*%
X119660000Y-61200000D03*
%TO.N,Net-(LED12-DOUT)*%
X123460000Y-71200000D03*
X124660000Y-78299998D03*
%TO.N,Net-(LED13-DOUT)*%
X128560000Y-85900000D03*
X129212383Y-79803449D03*
%TO.N,Net-(LED14-DOUT)*%
X135760000Y-86800000D03*
X136360000Y-80400000D03*
X144160000Y-86900000D03*
X144160000Y-91200000D03*
%TO.N,Net-(LED15-DOUT)*%
X150060000Y-95500000D03*
X150160000Y-89600000D03*
%TO.N,/LED_J1-J4*%
X134499386Y-66584620D03*
X134460000Y-70700000D03*
%TD*%
D21*
%TO.N,GND*%
X134760000Y-87100000D02*
X134760000Y-88400000D01*
X134760000Y-88400000D02*
X135160000Y-88800000D01*
X135860000Y-60400000D02*
X135060000Y-59600000D01*
X135860000Y-61100000D02*
X135860000Y-60400000D01*
%TO.N,VCC*%
X141860000Y-80400000D02*
X141860000Y-81753250D01*
X141860000Y-81753250D02*
X141870164Y-81763414D01*
%TO.N,Net-(LED1-DOUT)*%
X144260000Y-60900000D02*
X144260000Y-65400000D01*
%TO.N,Net-(LED2-DOUT)*%
X142560000Y-70059620D02*
X142550380Y-70050000D01*
X142560000Y-74000000D02*
X142560000Y-70059620D01*
%TO.N,Net-(LED3-DOUT)*%
X137260000Y-78300000D02*
X137260000Y-82400000D01*
%TO.N,Net-(LED4-DOUT)*%
X142560000Y-90000000D02*
X142560000Y-86250000D01*
%TO.N,Net-(LED5-DOUT)*%
X142560000Y-94400000D02*
X142560000Y-98000000D01*
%TO.N,/DATA_J1*%
X123460000Y-73600000D02*
X123460000Y-87600000D01*
X128949386Y-66825000D02*
X128949386Y-73318821D01*
X123460000Y-87600000D02*
X118760000Y-92300000D01*
X128949386Y-73318821D02*
X128925578Y-73342629D01*
%TO.N,/TX_J1*%
X122710000Y-73036337D02*
X122710000Y-86450000D01*
X119059704Y-90100296D02*
X117490000Y-90100296D01*
X128240314Y-72719686D02*
X128160000Y-72800000D01*
X122710000Y-86450000D02*
X119059704Y-90100296D01*
X122806113Y-72940224D02*
X122710000Y-73036337D01*
X128240314Y-66275000D02*
X128240314Y-72719686D01*
%TO.N,/RX_J1*%
X120030000Y-92030000D02*
X120030000Y-94499705D01*
X124060000Y-88000000D02*
X120030000Y-92030000D01*
X129849386Y-73598146D02*
X129648076Y-73799456D01*
X129849386Y-67425000D02*
X129849386Y-73598146D01*
X124060000Y-74400000D02*
X124060000Y-88000000D01*
%TO.N,/TX_J2*%
X137520000Y-104600000D02*
X129160000Y-96240000D01*
X130460000Y-87800000D02*
X130460000Y-69700000D01*
X130460000Y-69700000D02*
X131860000Y-68300000D01*
X129160000Y-96240000D02*
X129160000Y-89100000D01*
X129160000Y-89100000D02*
X130460000Y-87800000D01*
%TO.N,/DATA_J2*%
X133160000Y-68400000D02*
X130860000Y-70700000D01*
X129560000Y-94800000D02*
X139360000Y-104600000D01*
X139360000Y-104600000D02*
X140060000Y-104600000D01*
X130860000Y-70700000D02*
X130860000Y-88064747D01*
X130860000Y-88064747D02*
X129560000Y-89364747D01*
X129560000Y-89364747D02*
X129560000Y-94800000D01*
%TO.N,/RX_J2*%
X129964128Y-89561558D02*
X129964128Y-94263470D01*
X138194922Y-102494264D02*
X140494264Y-102494264D01*
X129964128Y-94263470D02*
X138194922Y-102494264D01*
X131264143Y-71495857D02*
X131264143Y-88261543D01*
X133860000Y-68900000D02*
X131264143Y-71495857D01*
X131264143Y-88261543D02*
X129964128Y-89561558D01*
X140494264Y-102494264D02*
X142600000Y-104600000D01*
%TO.N,/RX_J3*%
X162730000Y-84200775D02*
X162730000Y-90090295D01*
X153260000Y-74730775D02*
X162730000Y-84200775D01*
X153260000Y-63800000D02*
X153260000Y-74730775D01*
%TO.N,/DATA_J3*%
X161460000Y-92290000D02*
X161460000Y-83496461D01*
X161460000Y-83496461D02*
X152360000Y-74396461D01*
X152360000Y-74396461D02*
X152360000Y-64200000D01*
%TO.N,/TX_J3*%
X160190000Y-93287623D02*
X150360000Y-83457623D01*
X160190000Y-94489704D02*
X160190000Y-93287623D01*
X150360000Y-83457623D02*
X150360000Y-64800008D01*
%TO.N,/TX_J4*%
X154360000Y-63300000D02*
X154360000Y-68500000D01*
%TO.N,/RX_J4*%
X156060000Y-62100000D02*
X156060000Y-65500000D01*
%TO.N,/DATA_J4*%
X155160000Y-62700000D02*
X155160000Y-67500000D01*
%TO.N,/UPDI*%
X124560000Y-51500000D02*
X126060000Y-53000000D01*
X126060000Y-60026886D02*
X126049386Y-60037500D01*
X126060000Y-53000000D02*
X126060000Y-60026886D01*
%TO.N,/RX_J5*%
X136370000Y-56550000D02*
X134010000Y-56550000D01*
X134010000Y-56550000D02*
X132560000Y-58000000D01*
X132560000Y-58000000D02*
X132443525Y-58116475D01*
X132443525Y-58116475D02*
X132443525Y-59021185D01*
X137520000Y-55400000D02*
X136370000Y-56550000D01*
%TO.N,/TX_J5*%
X134149386Y-59775000D02*
X133999386Y-59925000D01*
X140500000Y-57500000D02*
X142600000Y-55400000D01*
X133999386Y-59925000D02*
X133999386Y-58440684D01*
X133999386Y-58440684D02*
X134940070Y-57500000D01*
X134940070Y-57500000D02*
X140500000Y-57500000D01*
%TO.N,/DATA_J5*%
X134774384Y-57100000D02*
X133349386Y-58524998D01*
X140060000Y-55400000D02*
X138360000Y-57100000D01*
X138360000Y-57100000D02*
X134774384Y-57100000D01*
%TO.N,Net-(LED10-DOUT)*%
X126660000Y-93200000D02*
X126560000Y-93100000D01*
X126560000Y-93100000D02*
X126560000Y-90000000D01*
%TO.N,/DATA_J6*%
X118760000Y-67700000D02*
X118760000Y-61800000D01*
%TO.N,/RX_J6*%
X123865772Y-62655021D02*
X123735244Y-62524493D01*
X123865772Y-62655021D02*
X123865772Y-67800000D01*
X118186641Y-69899705D02*
X117490000Y-69899705D01*
%TO.N,/TX_J6*%
X119660000Y-65130296D02*
X119660000Y-61200000D01*
X120030000Y-65500296D02*
X119660000Y-65130296D01*
%TO.N,Net-(LED12-DOUT)*%
X124760000Y-78199998D02*
X124660000Y-78299998D01*
X123460000Y-71200000D02*
X124760000Y-72500000D01*
X124760000Y-72500000D02*
X124760000Y-78199998D01*
%TO.N,Net-(LED13-DOUT)*%
X128560000Y-80533408D02*
X128560000Y-85900000D01*
X128665971Y-80349861D02*
X128560000Y-80533408D01*
X129212383Y-79803449D02*
X128665971Y-80349861D01*
%TO.N,Net-(LED14-DOUT)*%
X136754895Y-85805105D02*
X136754895Y-82794895D01*
X135760000Y-86800000D02*
X136754895Y-85805105D01*
X136754895Y-82794895D02*
X136360000Y-82400000D01*
X144160000Y-91200000D02*
X144160000Y-86900000D01*
X136360000Y-82400000D02*
X136360000Y-80400000D01*
%TO.N,Net-(LED15-DOUT)*%
X150160000Y-89600000D02*
X150160000Y-95400000D01*
X150160000Y-95400000D02*
X150060000Y-95500000D01*
%TO.N,/LED_J1-J4*%
X134460000Y-66624006D02*
X134499386Y-66584620D01*
X134460000Y-70700000D02*
X134460000Y-66624006D01*
%TD*%
%TA.AperFunction,Conductor*%
%TO.N,VCC*%
G36*
X157092577Y-50519407D02*
G01*
X157120122Y-50549999D01*
X164852261Y-63942456D01*
X174094509Y-79950500D01*
X174107230Y-80010348D01*
X174094509Y-80049500D01*
X165710656Y-94570760D01*
X159310831Y-105655583D01*
X157120123Y-109450000D01*
X157074653Y-109490941D01*
X157034386Y-109499500D01*
X123085614Y-109499500D01*
X123027423Y-109480593D01*
X122999877Y-109450000D01*
X120799246Y-105638396D01*
X115638316Y-96699404D01*
X120244919Y-96699404D01*
X120244919Y-96699413D01*
X120265190Y-96905239D01*
X120265191Y-96905245D01*
X120325230Y-97103163D01*
X120325236Y-97103180D01*
X120343019Y-97136450D01*
X120343020Y-97136450D01*
X121004231Y-96754698D01*
X121020444Y-96815205D01*
X121059940Y-96883614D01*
X121104231Y-96927905D01*
X120442661Y-97309863D01*
X120442661Y-97309864D01*
X120553947Y-97445466D01*
X120713829Y-97576677D01*
X120713839Y-97576684D01*
X120896232Y-97674174D01*
X120896237Y-97674176D01*
X121094163Y-97734217D01*
X121094169Y-97734218D01*
X121299996Y-97754490D01*
X121300004Y-97754490D01*
X121505830Y-97734218D01*
X121505836Y-97734217D01*
X121703761Y-97674177D01*
X121737042Y-97656387D01*
X121355291Y-96995176D01*
X121415796Y-96978965D01*
X121484205Y-96939469D01*
X121528497Y-96895176D01*
X121910455Y-97556746D01*
X122046049Y-97445468D01*
X122046058Y-97445459D01*
X122177268Y-97285579D01*
X122177275Y-97285569D01*
X122274765Y-97103176D01*
X122274767Y-97103171D01*
X122334808Y-96905245D01*
X122334809Y-96905239D01*
X122355081Y-96699413D01*
X122355081Y-96699404D01*
X122334809Y-96493578D01*
X122334808Y-96493572D01*
X122274767Y-96295646D01*
X122274765Y-96295641D01*
X122256979Y-96262366D01*
X122256978Y-96262366D01*
X121595767Y-96644116D01*
X121579556Y-96583613D01*
X121540060Y-96515204D01*
X121495766Y-96470910D01*
X122157337Y-96088953D01*
X122157337Y-96088952D01*
X122046052Y-95953351D01*
X121886170Y-95822140D01*
X121886160Y-95822133D01*
X121703767Y-95724643D01*
X121703762Y-95724641D01*
X121505836Y-95664600D01*
X121505830Y-95664599D01*
X121300004Y-95644328D01*
X121299996Y-95644328D01*
X121094169Y-95664599D01*
X121094163Y-95664600D01*
X120896241Y-95724640D01*
X120896232Y-95724643D01*
X120862956Y-95742429D01*
X120862956Y-95742430D01*
X121244708Y-96403641D01*
X121184204Y-96419853D01*
X121115795Y-96459349D01*
X121071502Y-96503641D01*
X120689544Y-95842070D01*
X120689543Y-95842070D01*
X120553942Y-95953356D01*
X120422731Y-96113238D01*
X120422724Y-96113248D01*
X120325234Y-96295641D01*
X120325232Y-96295646D01*
X120265191Y-96493572D01*
X120265190Y-96493578D01*
X120244919Y-96699404D01*
X115638316Y-96699404D01*
X111828317Y-90100292D01*
X116434417Y-90100292D01*
X116434417Y-90100299D01*
X116454698Y-90306225D01*
X116454699Y-90306230D01*
X116514768Y-90504250D01*
X116612316Y-90686748D01*
X116735382Y-90836705D01*
X116743590Y-90846706D01*
X116743595Y-90846710D01*
X116903547Y-90977979D01*
X116903548Y-90977979D01*
X116903550Y-90977981D01*
X117086046Y-91075528D01*
X117223997Y-91117374D01*
X117284065Y-91135596D01*
X117284070Y-91135597D01*
X117489997Y-91155879D01*
X117490000Y-91155879D01*
X117490003Y-91155879D01*
X117695929Y-91135597D01*
X117695934Y-91135596D01*
X117697717Y-91135055D01*
X117893954Y-91075528D01*
X118076450Y-90977981D01*
X118236410Y-90846706D01*
X118367685Y-90686746D01*
X118465232Y-90504250D01*
X118475300Y-90471058D01*
X118510284Y-90420862D01*
X118568092Y-90400815D01*
X118570037Y-90400796D01*
X119099267Y-90400796D01*
X119099267Y-90400795D01*
X119175693Y-90380317D01*
X119244215Y-90340756D01*
X119300164Y-90284807D01*
X122950460Y-86634511D01*
X122954592Y-86627354D01*
X122957617Y-86622116D01*
X122974763Y-86592417D01*
X123020232Y-86551475D01*
X123081082Y-86545079D01*
X123134071Y-86575671D01*
X123158958Y-86631567D01*
X123159500Y-86641916D01*
X123159500Y-87434520D01*
X123140593Y-87492711D01*
X123130504Y-87504524D01*
X119311215Y-91323812D01*
X119256698Y-91351589D01*
X119196266Y-91342018D01*
X119194583Y-91341139D01*
X119163954Y-91324768D01*
X118965934Y-91264699D01*
X118965929Y-91264698D01*
X118760003Y-91244417D01*
X118759997Y-91244417D01*
X118554070Y-91264698D01*
X118554065Y-91264699D01*
X118356045Y-91324768D01*
X118173547Y-91422316D01*
X118013595Y-91553585D01*
X118013585Y-91553595D01*
X117882316Y-91713547D01*
X117784768Y-91896045D01*
X117724699Y-92094065D01*
X117724698Y-92094070D01*
X117704417Y-92299996D01*
X117704417Y-92300003D01*
X117724698Y-92505929D01*
X117724699Y-92505934D01*
X117784768Y-92703954D01*
X117882316Y-92886452D01*
X118013585Y-93046404D01*
X118013590Y-93046410D01*
X118014159Y-93046877D01*
X118173547Y-93177683D01*
X118173548Y-93177683D01*
X118173550Y-93177685D01*
X118356046Y-93275232D01*
X118493997Y-93317078D01*
X118554065Y-93335300D01*
X118554070Y-93335301D01*
X118759997Y-93355583D01*
X118760000Y-93355583D01*
X118760003Y-93355583D01*
X118965929Y-93335301D01*
X118965934Y-93335300D01*
X119163954Y-93275232D01*
X119346450Y-93177685D01*
X119506410Y-93046410D01*
X119553972Y-92988454D01*
X119605503Y-92955468D01*
X119666582Y-92959070D01*
X119713879Y-92997885D01*
X119729500Y-93051260D01*
X119729500Y-93419666D01*
X119710593Y-93477857D01*
X119661093Y-93513821D01*
X119659241Y-93514402D01*
X119626054Y-93524470D01*
X119626041Y-93524475D01*
X119443547Y-93622021D01*
X119283595Y-93753290D01*
X119283585Y-93753300D01*
X119152316Y-93913252D01*
X119054768Y-94095750D01*
X118994699Y-94293770D01*
X118994698Y-94293775D01*
X118974417Y-94499701D01*
X118974417Y-94499708D01*
X118994698Y-94705634D01*
X118994699Y-94705639D01*
X119054768Y-94903659D01*
X119152316Y-95086157D01*
X119280612Y-95242486D01*
X119283590Y-95246115D01*
X119311583Y-95269088D01*
X119443547Y-95377388D01*
X119443548Y-95377388D01*
X119443550Y-95377390D01*
X119626046Y-95474937D01*
X119763997Y-95516783D01*
X119824065Y-95535005D01*
X119824070Y-95535006D01*
X120029997Y-95555288D01*
X120030000Y-95555288D01*
X120030003Y-95555288D01*
X120235929Y-95535006D01*
X120235934Y-95535005D01*
X120433954Y-95474937D01*
X120616450Y-95377390D01*
X120776410Y-95246115D01*
X120907685Y-95086155D01*
X121005232Y-94903659D01*
X121065300Y-94705639D01*
X121065301Y-94705634D01*
X121085583Y-94499708D01*
X121085583Y-94499701D01*
X121065301Y-94293775D01*
X121065300Y-94293770D01*
X121035747Y-94196348D01*
X121005232Y-94095751D01*
X120907685Y-93913255D01*
X120899477Y-93903254D01*
X120776414Y-93753300D01*
X120776410Y-93753295D01*
X120712078Y-93700499D01*
X120616452Y-93622021D01*
X120433958Y-93524475D01*
X120433957Y-93524474D01*
X120433954Y-93524473D01*
X120433948Y-93524471D01*
X120433945Y-93524470D01*
X120400759Y-93514402D01*
X120350563Y-93479416D01*
X120330519Y-93421607D01*
X120330500Y-93419666D01*
X120330500Y-92518211D01*
X120973469Y-92518211D01*
X120973470Y-92518217D01*
X120999363Y-92698944D01*
X120999364Y-92698949D01*
X120999365Y-92698954D01*
X121039753Y-92819086D01*
X121057551Y-92872027D01*
X121057554Y-92872032D01*
X121136239Y-93013922D01*
X121146100Y-93031703D01*
X121146105Y-93031709D01*
X121262087Y-93172712D01*
X121262094Y-93172719D01*
X121401689Y-93290403D01*
X121417593Y-93299502D01*
X121418774Y-93300284D01*
X121457560Y-93322409D01*
X121494244Y-93358904D01*
X121516934Y-93398208D01*
X121516961Y-93398249D01*
X122240234Y-94650999D01*
X122240256Y-94651041D01*
X122261721Y-94688215D01*
X122274985Y-94738116D01*
X122274865Y-94767987D01*
X122274865Y-94768096D01*
X122274788Y-94783091D01*
X122274802Y-94783349D01*
X122274725Y-94802619D01*
X122297911Y-94932432D01*
X122306834Y-94982386D01*
X122370955Y-95153367D01*
X122464967Y-95309916D01*
X122585766Y-95446859D01*
X122585770Y-95446862D01*
X122585771Y-95446863D01*
X122729354Y-95559668D01*
X122729356Y-95559669D01*
X122729360Y-95559672D01*
X122891003Y-95644627D01*
X123065355Y-95698917D01*
X123246654Y-95720747D01*
X123428910Y-95709397D01*
X123606099Y-95665241D01*
X123772368Y-95589738D01*
X123922222Y-95485384D01*
X124050709Y-95355627D01*
X124061029Y-95340531D01*
X124061825Y-95339517D01*
X124067752Y-95330826D01*
X124089424Y-95299046D01*
X124121712Y-95269091D01*
X124159119Y-95247495D01*
X124159120Y-95247492D01*
X124167793Y-95242486D01*
X124167799Y-95242481D01*
X125255981Y-94614221D01*
X125256019Y-94614203D01*
X125262358Y-94610542D01*
X125262364Y-94610541D01*
X125299725Y-94588966D01*
X125341688Y-94575989D01*
X125353161Y-94575113D01*
X125353277Y-94575142D01*
X125353275Y-94575105D01*
X125353276Y-94575105D01*
X125384942Y-94572726D01*
X125384946Y-94572724D01*
X125391046Y-94572266D01*
X125391692Y-94572174D01*
X125410225Y-94570760D01*
X125586832Y-94524356D01*
X125752121Y-94446749D01*
X125900632Y-94340504D01*
X126027456Y-94209130D01*
X126128403Y-94056968D01*
X126200138Y-93889047D01*
X126240291Y-93710915D01*
X126240614Y-93702755D01*
X126261810Y-93645362D01*
X126312695Y-93611386D01*
X126373833Y-93613808D01*
X126393059Y-93623394D01*
X126434869Y-93650263D01*
X126449947Y-93659953D01*
X126556403Y-93691211D01*
X126588035Y-93700499D01*
X126588036Y-93700499D01*
X126588039Y-93700500D01*
X126588041Y-93700500D01*
X126731959Y-93700500D01*
X126731961Y-93700500D01*
X126870053Y-93659953D01*
X126991128Y-93582143D01*
X127085377Y-93473373D01*
X127145165Y-93342457D01*
X127155485Y-93270682D01*
X127165647Y-93200002D01*
X127165647Y-93199997D01*
X127145165Y-93057543D01*
X127133364Y-93031703D01*
X127085377Y-92926627D01*
X126991128Y-92817857D01*
X126905976Y-92763133D01*
X126867245Y-92715767D01*
X126860500Y-92679849D01*
X126860500Y-90453893D01*
X126879407Y-90395702D01*
X126886741Y-90387711D01*
X126886491Y-90387494D01*
X126909993Y-90360371D01*
X126985377Y-90273373D01*
X127045165Y-90142457D01*
X127055840Y-90068211D01*
X127065647Y-90000002D01*
X127065647Y-89999997D01*
X127045165Y-89857543D01*
X126985377Y-89726627D01*
X126891128Y-89617857D01*
X126891127Y-89617856D01*
X126891126Y-89617855D01*
X126770057Y-89540049D01*
X126770054Y-89540047D01*
X126770053Y-89540047D01*
X126769001Y-89539738D01*
X126631964Y-89499500D01*
X126631961Y-89499500D01*
X126488039Y-89499500D01*
X126488035Y-89499500D01*
X126349949Y-89540046D01*
X126349942Y-89540049D01*
X126228873Y-89617855D01*
X126134622Y-89726628D01*
X126074834Y-89857543D01*
X126054353Y-89999997D01*
X126054353Y-90000002D01*
X126074834Y-90142456D01*
X126134623Y-90273373D01*
X126233509Y-90387494D01*
X126231471Y-90389259D01*
X126256925Y-90431458D01*
X126259500Y-90453893D01*
X126259500Y-92860992D01*
X126240593Y-92919183D01*
X126235321Y-92925821D01*
X126234623Y-92926626D01*
X126217491Y-92964139D01*
X126176118Y-93009217D01*
X126116151Y-93021367D01*
X126060496Y-92995948D01*
X126050985Y-92985908D01*
X125958861Y-92873928D01*
X125958860Y-92873927D01*
X125958856Y-92873922D01*
X125819236Y-92756237D01*
X125819235Y-92756236D01*
X125819231Y-92756233D01*
X125803319Y-92747132D01*
X125802238Y-92746416D01*
X125763402Y-92724262D01*
X125726723Y-92687774D01*
X125718059Y-92672769D01*
X125718057Y-92672765D01*
X124982461Y-91398677D01*
X124982450Y-91398654D01*
X124978676Y-91392118D01*
X124978676Y-91392116D01*
X124959207Y-91358399D01*
X124945944Y-91308381D01*
X124946147Y-91269411D01*
X124946146Y-91269408D01*
X124946175Y-91263903D01*
X124946064Y-91262098D01*
X124946137Y-91244019D01*
X124914022Y-91064276D01*
X124849902Y-90893316D01*
X124755895Y-90736787D01*
X124679110Y-90649742D01*
X124635108Y-90599860D01*
X124508636Y-90500499D01*
X124491529Y-90487059D01*
X124491525Y-90487057D01*
X124491524Y-90487056D01*
X124329907Y-90402112D01*
X124329906Y-90402111D01*
X124329905Y-90402111D01*
X124199663Y-90361552D01*
X124155574Y-90347822D01*
X123974293Y-90325986D01*
X123792055Y-90337325D01*
X123614886Y-90381463D01*
X123614880Y-90381465D01*
X123455347Y-90453893D01*
X123448627Y-90456944D01*
X123406532Y-90486252D01*
X123298779Y-90561272D01*
X123298778Y-90561273D01*
X123170294Y-90690998D01*
X123170288Y-90691005D01*
X123159919Y-90706168D01*
X123159101Y-90707212D01*
X123131533Y-90747627D01*
X123099249Y-90777575D01*
X121962952Y-91433618D01*
X121962913Y-91433638D01*
X121921222Y-91457710D01*
X121879116Y-91470698D01*
X121830693Y-91474325D01*
X121829090Y-91474551D01*
X121810717Y-91475955D01*
X121810713Y-91475955D01*
X121810712Y-91475956D01*
X121763097Y-91488470D01*
X121634118Y-91522367D01*
X121468848Y-91599976D01*
X121320352Y-91706219D01*
X121193536Y-91837590D01*
X121092602Y-91989733D01*
X121092598Y-91989742D01*
X121020872Y-92157641D01*
X121020871Y-92157643D01*
X121020870Y-92157647D01*
X120980970Y-92334648D01*
X120980718Y-92335767D01*
X120980717Y-92335768D01*
X120973469Y-92518211D01*
X120330500Y-92518211D01*
X120330500Y-92195478D01*
X120349407Y-92137287D01*
X120359490Y-92125480D01*
X124300460Y-88184511D01*
X124320495Y-88149810D01*
X124340020Y-88115992D01*
X124340020Y-88115990D01*
X124340022Y-88115988D01*
X124360500Y-88039562D01*
X124360500Y-87960438D01*
X124360500Y-79818058D01*
X124379407Y-79759867D01*
X124428907Y-79723903D01*
X124490093Y-79723903D01*
X124539593Y-79759867D01*
X124550541Y-79779167D01*
X124562351Y-79806814D01*
X124592610Y-79877646D01*
X124592612Y-79877649D01*
X124592615Y-79877655D01*
X124693543Y-80029793D01*
X124693548Y-80029799D01*
X124750894Y-80089205D01*
X124820355Y-80161163D01*
X124865113Y-80193186D01*
X124968846Y-80267405D01*
X124978044Y-80271724D01*
X125134120Y-80345015D01*
X125310710Y-80391427D01*
X125328993Y-80392823D01*
X125330720Y-80393069D01*
X125374670Y-80396355D01*
X125379085Y-80396686D01*
X125421241Y-80409696D01*
X125463766Y-80434273D01*
X125464215Y-80434495D01*
X126555534Y-81064568D01*
X126561851Y-81068215D01*
X126561853Y-81068217D01*
X126592526Y-81085925D01*
X126599224Y-81089792D01*
X126631449Y-81119653D01*
X126633861Y-81123181D01*
X126633859Y-81123181D01*
X126633928Y-81123280D01*
X126653610Y-81152152D01*
X126659130Y-81160249D01*
X126659753Y-81161044D01*
X126670233Y-81176371D01*
X126670248Y-81176392D01*
X126798739Y-81306133D01*
X126914931Y-81387033D01*
X126948596Y-81410473D01*
X127093907Y-81476446D01*
X127114858Y-81485958D01*
X127292041Y-81530102D01*
X127474288Y-81541444D01*
X127655577Y-81519608D01*
X127829919Y-81465316D01*
X127991552Y-81380362D01*
X128099338Y-81295679D01*
X128156776Y-81274596D01*
X128215637Y-81291301D01*
X128253437Y-81339414D01*
X128259500Y-81373526D01*
X128259500Y-85446105D01*
X128240593Y-85504296D01*
X128233258Y-85512289D01*
X128233509Y-85512506D01*
X128228872Y-85517856D01*
X128228872Y-85517857D01*
X128167901Y-85588222D01*
X128134622Y-85626628D01*
X128074834Y-85757543D01*
X128054353Y-85899997D01*
X128054353Y-85900002D01*
X128074834Y-86042456D01*
X128127812Y-86158460D01*
X128134623Y-86173373D01*
X128201018Y-86249997D01*
X128228873Y-86282144D01*
X128341501Y-86354525D01*
X128349947Y-86359953D01*
X128436558Y-86385384D01*
X128488035Y-86400499D01*
X128488036Y-86400499D01*
X128488039Y-86400500D01*
X128488041Y-86400500D01*
X128631959Y-86400500D01*
X128631961Y-86400500D01*
X128770053Y-86359953D01*
X128891128Y-86282143D01*
X128985377Y-86173373D01*
X129045165Y-86042457D01*
X129062614Y-85921094D01*
X129065647Y-85900002D01*
X129065647Y-85899997D01*
X129045165Y-85757543D01*
X129017888Y-85697816D01*
X128985377Y-85626627D01*
X128891128Y-85517857D01*
X128891127Y-85517856D01*
X128886491Y-85512506D01*
X128888524Y-85510743D01*
X128863067Y-85468505D01*
X128860500Y-85446105D01*
X128860500Y-80640453D01*
X128873763Y-80590954D01*
X128899915Y-80545656D01*
X128915646Y-80525156D01*
X129107858Y-80332945D01*
X129162374Y-80305168D01*
X129177861Y-80303949D01*
X129284342Y-80303949D01*
X129284344Y-80303949D01*
X129422436Y-80263402D01*
X129543511Y-80185592D01*
X129637760Y-80076822D01*
X129697548Y-79945906D01*
X129704375Y-79898420D01*
X129718030Y-79803451D01*
X129718030Y-79803446D01*
X129697548Y-79660992D01*
X129638467Y-79531625D01*
X129637760Y-79530076D01*
X129543511Y-79421306D01*
X129543510Y-79421305D01*
X129543509Y-79421304D01*
X129422440Y-79343498D01*
X129422437Y-79343497D01*
X129422436Y-79343496D01*
X129384634Y-79332396D01*
X129308966Y-79310178D01*
X129258459Y-79275642D01*
X129237898Y-79218015D01*
X129255137Y-79159308D01*
X129287802Y-79129197D01*
X129297284Y-79123788D01*
X129297286Y-79123785D01*
X129302290Y-79120931D01*
X129303436Y-79120171D01*
X129319236Y-79111135D01*
X129458850Y-78993452D01*
X129574855Y-78852439D01*
X129658032Y-78702467D01*
X129663413Y-78692765D01*
X129663413Y-78692762D01*
X129663417Y-78692757D01*
X129721610Y-78519682D01*
X129747512Y-78338932D01*
X129740267Y-78156479D01*
X129700114Y-77978352D01*
X129628379Y-77810436D01*
X129527433Y-77658279D01*
X129400612Y-77526910D01*
X129400611Y-77526909D01*
X129400610Y-77526908D01*
X129293445Y-77450243D01*
X129252105Y-77420668D01*
X129252096Y-77420664D01*
X129086822Y-77343065D01*
X129086820Y-77343064D01*
X129003024Y-77321046D01*
X128910220Y-77296662D01*
X128891894Y-77295263D01*
X128890628Y-77295084D01*
X128841831Y-77291416D01*
X128799745Y-77278427D01*
X128757332Y-77253935D01*
X128757241Y-77253889D01*
X127621712Y-76598291D01*
X127589423Y-76568333D01*
X127562195Y-76528405D01*
X127560681Y-76526473D01*
X127550647Y-76511797D01*
X127550645Y-76511794D01*
X127549329Y-76510465D01*
X127422165Y-76382050D01*
X127422156Y-76382044D01*
X127422153Y-76382041D01*
X127272330Y-76277712D01*
X127272323Y-76277708D01*
X127106071Y-76202216D01*
X127106063Y-76202214D01*
X127103818Y-76201654D01*
X126928893Y-76158065D01*
X126746653Y-76146716D01*
X126746652Y-76146716D01*
X126565372Y-76168544D01*
X126565367Y-76168545D01*
X126457236Y-76202215D01*
X126391033Y-76222829D01*
X126391030Y-76222830D01*
X126391028Y-76222831D01*
X126229408Y-76307771D01*
X126229402Y-76307775D01*
X126085822Y-76420574D01*
X125965028Y-76557507D01*
X125871022Y-76714037D01*
X125871020Y-76714041D01*
X125806903Y-76885001D01*
X125774791Y-77064751D01*
X125774865Y-77083114D01*
X125774786Y-77084406D01*
X125775017Y-77129100D01*
X125761755Y-77179108D01*
X125742277Y-77212847D01*
X125742276Y-77212849D01*
X125742275Y-77212849D01*
X125264010Y-78041226D01*
X125218541Y-78082167D01*
X125157691Y-78088563D01*
X125104703Y-78057970D01*
X125088220Y-78032850D01*
X125085377Y-78026624D01*
X125084679Y-78025819D01*
X125084332Y-78024999D01*
X125081549Y-78020668D01*
X125082298Y-78020186D01*
X125060863Y-77969459D01*
X125060500Y-77960990D01*
X125060500Y-72799997D01*
X127654353Y-72799997D01*
X127654353Y-72800002D01*
X127674834Y-72942456D01*
X127723428Y-73048860D01*
X127734623Y-73073373D01*
X127805346Y-73154992D01*
X127828873Y-73182144D01*
X127899858Y-73227763D01*
X127949947Y-73259953D01*
X128056403Y-73291211D01*
X128088035Y-73300499D01*
X128088036Y-73300499D01*
X128088039Y-73300500D01*
X128088041Y-73300500D01*
X128231959Y-73300500D01*
X128231961Y-73300500D01*
X128296880Y-73281438D01*
X128358040Y-73283184D01*
X128406493Y-73320546D01*
X128422764Y-73362338D01*
X128440412Y-73485085D01*
X128497799Y-73610743D01*
X128500201Y-73616002D01*
X128559876Y-73684871D01*
X128594451Y-73724773D01*
X128715520Y-73802579D01*
X128715525Y-73802582D01*
X128821981Y-73833840D01*
X128853613Y-73843128D01*
X128853614Y-73843128D01*
X128853617Y-73843129D01*
X128853619Y-73843129D01*
X128997537Y-73843129D01*
X128997539Y-73843129D01*
X129032958Y-73832729D01*
X129094119Y-73834475D01*
X129142572Y-73871837D01*
X129158843Y-73913627D01*
X129162910Y-73941912D01*
X129220907Y-74068905D01*
X129222699Y-74072829D01*
X129293375Y-74154394D01*
X129316949Y-74181600D01*
X129417888Y-74246469D01*
X129438023Y-74259409D01*
X129529443Y-74286252D01*
X129576111Y-74299955D01*
X129576112Y-74299955D01*
X129576115Y-74299956D01*
X129576117Y-74299956D01*
X129720035Y-74299956D01*
X129720037Y-74299956D01*
X129858129Y-74259409D01*
X129979204Y-74181599D01*
X129985679Y-74174125D01*
X130038073Y-74142529D01*
X130099035Y-74147762D01*
X130145277Y-74187829D01*
X130159500Y-74238955D01*
X130159500Y-87634521D01*
X130140593Y-87692712D01*
X130130504Y-87704525D01*
X128975489Y-88859540D01*
X128975488Y-88859539D01*
X128919539Y-88915489D01*
X128879980Y-88984007D01*
X128879978Y-88984011D01*
X128859500Y-89060435D01*
X128859500Y-96279564D01*
X128879977Y-96355985D01*
X128879978Y-96355987D01*
X128879979Y-96355989D01*
X128917096Y-96420278D01*
X128919540Y-96424511D01*
X135876025Y-103380996D01*
X135903802Y-103435513D01*
X135894231Y-103495945D01*
X135850966Y-103539210D01*
X135806021Y-103550000D01*
X135080001Y-103550000D01*
X135080000Y-103550001D01*
X135080000Y-104316211D01*
X135019496Y-104300000D01*
X134940504Y-104300000D01*
X134880000Y-104316211D01*
X134880000Y-103550001D01*
X134879999Y-103550000D01*
X134110299Y-103550000D01*
X134051963Y-103561603D01*
X133985810Y-103605806D01*
X133985806Y-103605810D01*
X133941603Y-103671963D01*
X133930000Y-103730299D01*
X133930000Y-104499999D01*
X133930001Y-104500000D01*
X134696212Y-104500000D01*
X134680000Y-104560504D01*
X134680000Y-104639496D01*
X134696212Y-104700000D01*
X133930001Y-104700000D01*
X133930000Y-104700001D01*
X133930000Y-105469700D01*
X133941603Y-105528036D01*
X133985806Y-105594189D01*
X133985810Y-105594193D01*
X134051963Y-105638396D01*
X134110299Y-105649999D01*
X134110303Y-105650000D01*
X134879999Y-105650000D01*
X134880000Y-105649999D01*
X134880000Y-104883788D01*
X134940504Y-104900000D01*
X135019496Y-104900000D01*
X135080000Y-104883788D01*
X135080000Y-105649999D01*
X135080001Y-105650000D01*
X135849697Y-105650000D01*
X135849700Y-105649999D01*
X135908036Y-105638396D01*
X135974189Y-105594193D01*
X135974193Y-105594189D01*
X136018396Y-105528036D01*
X136029999Y-105469700D01*
X136030000Y-105469697D01*
X136030000Y-104700001D01*
X136029999Y-104700000D01*
X135263788Y-104700000D01*
X135280000Y-104639496D01*
X135280000Y-104560504D01*
X135263788Y-104500000D01*
X136029999Y-104500000D01*
X136030000Y-104499999D01*
X136030000Y-103773979D01*
X136048907Y-103715788D01*
X136098407Y-103679824D01*
X136159593Y-103679824D01*
X136199004Y-103703975D01*
X136543812Y-104048783D01*
X136571589Y-104103300D01*
X136562018Y-104163732D01*
X136561120Y-104165453D01*
X136544769Y-104196044D01*
X136544766Y-104196052D01*
X136484699Y-104394065D01*
X136484698Y-104394070D01*
X136464417Y-104599996D01*
X136464417Y-104600003D01*
X136484698Y-104805929D01*
X136484699Y-104805934D01*
X136544768Y-105003954D01*
X136642316Y-105186452D01*
X136773585Y-105346404D01*
X136773590Y-105346410D01*
X136773595Y-105346414D01*
X136933547Y-105477683D01*
X136933548Y-105477683D01*
X136933550Y-105477685D01*
X137116046Y-105575232D01*
X137253997Y-105617078D01*
X137314065Y-105635300D01*
X137314070Y-105635301D01*
X137519997Y-105655583D01*
X137520000Y-105655583D01*
X137520003Y-105655583D01*
X137725929Y-105635301D01*
X137725934Y-105635300D01*
X137923954Y-105575232D01*
X138106450Y-105477685D01*
X138266410Y-105346410D01*
X138397685Y-105186450D01*
X138495232Y-105003954D01*
X138555300Y-104805934D01*
X138555301Y-104805929D01*
X138575583Y-104600003D01*
X138575583Y-104599997D01*
X138563433Y-104476639D01*
X138576545Y-104416875D01*
X138622282Y-104376232D01*
X138683172Y-104370235D01*
X138731960Y-104396931D01*
X138986950Y-104651921D01*
X139014727Y-104706438D01*
X139015469Y-104712220D01*
X139024700Y-104805934D01*
X139024701Y-104805939D01*
X139084768Y-105003954D01*
X139182316Y-105186452D01*
X139313585Y-105346404D01*
X139313590Y-105346410D01*
X139313595Y-105346414D01*
X139473547Y-105477683D01*
X139473548Y-105477683D01*
X139473550Y-105477685D01*
X139656046Y-105575232D01*
X139793997Y-105617078D01*
X139854065Y-105635300D01*
X139854070Y-105635301D01*
X140059997Y-105655583D01*
X140060000Y-105655583D01*
X140060003Y-105655583D01*
X140265929Y-105635301D01*
X140265934Y-105635300D01*
X140463954Y-105575232D01*
X140646450Y-105477685D01*
X140806410Y-105346410D01*
X140937685Y-105186450D01*
X141035232Y-105003954D01*
X141095300Y-104805934D01*
X141095301Y-104805929D01*
X141115583Y-104600003D01*
X141115583Y-104599996D01*
X141095301Y-104394070D01*
X141095300Y-104394065D01*
X141066766Y-104300000D01*
X141035232Y-104196046D01*
X140937685Y-104013550D01*
X140930379Y-104004648D01*
X140806414Y-103853595D01*
X140806410Y-103853590D01*
X140806404Y-103853585D01*
X140646452Y-103722316D01*
X140463954Y-103624768D01*
X140265934Y-103564699D01*
X140265929Y-103564698D01*
X140060003Y-103544417D01*
X140059997Y-103544417D01*
X139854070Y-103564698D01*
X139854065Y-103564699D01*
X139656045Y-103624768D01*
X139473547Y-103722316D01*
X139313595Y-103853585D01*
X139313591Y-103853589D01*
X139258914Y-103920213D01*
X139207382Y-103953200D01*
X139146303Y-103949597D01*
X139112382Y-103927411D01*
X138148739Y-102963768D01*
X138120962Y-102909251D01*
X138130533Y-102848819D01*
X138173798Y-102805554D01*
X138218743Y-102794764D01*
X138234484Y-102794764D01*
X140328785Y-102794764D01*
X140386976Y-102813671D01*
X140398789Y-102823760D01*
X141623812Y-104048783D01*
X141651589Y-104103300D01*
X141642018Y-104163732D01*
X141641120Y-104165453D01*
X141624769Y-104196044D01*
X141624766Y-104196052D01*
X141564699Y-104394065D01*
X141564698Y-104394070D01*
X141544417Y-104599996D01*
X141544417Y-104600003D01*
X141564698Y-104805929D01*
X141564699Y-104805934D01*
X141624768Y-105003954D01*
X141722316Y-105186452D01*
X141853585Y-105346404D01*
X141853590Y-105346410D01*
X141853595Y-105346414D01*
X142013547Y-105477683D01*
X142013548Y-105477683D01*
X142013550Y-105477685D01*
X142196046Y-105575232D01*
X142333997Y-105617078D01*
X142394065Y-105635300D01*
X142394070Y-105635301D01*
X142599997Y-105655583D01*
X142600000Y-105655583D01*
X142600003Y-105655583D01*
X142805929Y-105635301D01*
X142805934Y-105635300D01*
X143003954Y-105575232D01*
X143186450Y-105477685D01*
X143346410Y-105346410D01*
X143477685Y-105186450D01*
X143575232Y-105003954D01*
X143635300Y-104805934D01*
X143635301Y-104805929D01*
X143655583Y-104600003D01*
X143655583Y-104599996D01*
X144084417Y-104599996D01*
X144084417Y-104600003D01*
X144104698Y-104805929D01*
X144104699Y-104805934D01*
X144164768Y-105003954D01*
X144262316Y-105186452D01*
X144393585Y-105346404D01*
X144393590Y-105346410D01*
X144393595Y-105346414D01*
X144553547Y-105477683D01*
X144553548Y-105477683D01*
X144553550Y-105477685D01*
X144736046Y-105575232D01*
X144873997Y-105617078D01*
X144934065Y-105635300D01*
X144934070Y-105635301D01*
X145139997Y-105655583D01*
X145140000Y-105655583D01*
X145140003Y-105655583D01*
X145345929Y-105635301D01*
X145345934Y-105635300D01*
X145543954Y-105575232D01*
X145726450Y-105477685D01*
X145886410Y-105346410D01*
X146017685Y-105186450D01*
X146115232Y-105003954D01*
X146175300Y-104805934D01*
X146175301Y-104805929D01*
X146195583Y-104600003D01*
X146195583Y-104599996D01*
X146175301Y-104394070D01*
X146175300Y-104394065D01*
X146146766Y-104300000D01*
X146115232Y-104196046D01*
X146017685Y-104013550D01*
X146010379Y-104004648D01*
X145886414Y-103853595D01*
X145886410Y-103853590D01*
X145886404Y-103853585D01*
X145726452Y-103722316D01*
X145543954Y-103624768D01*
X145345934Y-103564699D01*
X145345929Y-103564698D01*
X145140003Y-103544417D01*
X145139997Y-103544417D01*
X144934070Y-103564698D01*
X144934065Y-103564699D01*
X144736045Y-103624768D01*
X144553547Y-103722316D01*
X144393595Y-103853585D01*
X144393585Y-103853595D01*
X144262316Y-104013547D01*
X144164768Y-104196045D01*
X144104699Y-104394065D01*
X144104698Y-104394070D01*
X144084417Y-104599996D01*
X143655583Y-104599996D01*
X143635301Y-104394070D01*
X143635300Y-104394065D01*
X143606766Y-104300000D01*
X143575232Y-104196046D01*
X143477685Y-104013550D01*
X143470379Y-104004648D01*
X143346414Y-103853595D01*
X143346410Y-103853590D01*
X143346404Y-103853585D01*
X143186452Y-103722316D01*
X143003954Y-103624768D01*
X142805934Y-103564699D01*
X142805929Y-103564698D01*
X142600003Y-103544417D01*
X142599997Y-103544417D01*
X142394070Y-103564698D01*
X142394065Y-103564699D01*
X142196052Y-103624766D01*
X142196049Y-103624766D01*
X142196046Y-103624768D01*
X142196044Y-103624768D01*
X142196044Y-103624769D01*
X142165453Y-103641120D01*
X142105220Y-103651874D01*
X142050169Y-103625171D01*
X142048783Y-103623812D01*
X141805967Y-103380996D01*
X140957534Y-102532563D01*
X140929759Y-102478049D01*
X140939330Y-102417617D01*
X140982595Y-102374352D01*
X141043027Y-102364781D01*
X141043573Y-102364869D01*
X141184920Y-102388381D01*
X141367488Y-102385240D01*
X141546472Y-102349103D01*
X141715958Y-102281163D01*
X141870344Y-102183664D01*
X142004531Y-102059829D01*
X142114083Y-101913748D01*
X142195382Y-101750250D01*
X142245741Y-101574736D01*
X142263496Y-101393006D01*
X142248060Y-101211064D01*
X142199944Y-101034922D01*
X142192025Y-101018422D01*
X142191494Y-101017100D01*
X142170300Y-100973083D01*
X142160499Y-100930134D01*
X142160499Y-99569889D01*
X142170245Y-99527055D01*
X142173913Y-99519412D01*
X142173969Y-99519297D01*
X142186030Y-99494247D01*
X142189019Y-99488040D01*
X142189019Y-99488039D01*
X142191626Y-99482625D01*
X142191923Y-99481884D01*
X142199982Y-99465093D01*
X142248100Y-99288944D01*
X142263537Y-99106994D01*
X142245781Y-98925257D01*
X142195420Y-98749736D01*
X142114118Y-98586231D01*
X142004562Y-98440145D01*
X142004558Y-98440141D01*
X142004556Y-98440139D01*
X141870374Y-98316307D01*
X141870371Y-98316305D01*
X141870370Y-98316304D01*
X141715977Y-98218802D01*
X141546485Y-98150858D01*
X141546484Y-98150857D01*
X141546480Y-98150856D01*
X141367494Y-98114719D01*
X141367485Y-98114718D01*
X141184918Y-98111577D01*
X141004795Y-98141539D01*
X141004792Y-98141539D01*
X141004790Y-98141540D01*
X141004788Y-98141540D01*
X141004778Y-98141543D01*
X140833062Y-98203613D01*
X140817166Y-98212875D01*
X140816035Y-98213441D01*
X140777459Y-98235978D01*
X140727513Y-98249496D01*
X140688608Y-98249494D01*
X140688606Y-98249494D01*
X140682148Y-98249494D01*
X140682042Y-98249501D01*
X139238038Y-98249501D01*
X139237933Y-98249494D01*
X139192485Y-98249497D01*
X139142538Y-98235978D01*
X139104159Y-98213556D01*
X139102496Y-98212727D01*
X139092464Y-98206881D01*
X139086921Y-98203650D01*
X139086918Y-98203649D01*
X138915211Y-98141583D01*
X138915196Y-98141579D01*
X138735075Y-98111618D01*
X138552519Y-98114759D01*
X138552510Y-98114760D01*
X138373529Y-98150896D01*
X138204041Y-98218838D01*
X138049650Y-98316339D01*
X137915473Y-98440166D01*
X137915470Y-98440169D01*
X137805920Y-98586246D01*
X137724618Y-98749749D01*
X137724615Y-98749756D01*
X137674261Y-98925253D01*
X137674259Y-98925262D01*
X137656504Y-99106995D01*
X137671939Y-99288935D01*
X137720054Y-99465072D01*
X137720056Y-99465078D01*
X137727204Y-99479973D01*
X137728007Y-99481646D01*
X137728648Y-99483237D01*
X137749681Y-99526892D01*
X137759493Y-99569892D01*
X137759478Y-99619213D01*
X137759501Y-99619562D01*
X137759501Y-100880488D01*
X137759492Y-100880626D01*
X137759497Y-100930103D01*
X137749755Y-100972938D01*
X137745920Y-100980931D01*
X137745862Y-100981051D01*
X137728461Y-101017192D01*
X137728156Y-101017948D01*
X137720020Y-101034902D01*
X137720019Y-101034906D01*
X137671900Y-101211055D01*
X137667153Y-101267009D01*
X137663694Y-101307781D01*
X137639934Y-101364165D01*
X137587571Y-101395815D01*
X137526605Y-101390642D01*
X137495044Y-101369415D01*
X130525626Y-94399997D01*
X142054353Y-94399997D01*
X142054353Y-94400002D01*
X142074834Y-94542456D01*
X142107612Y-94614228D01*
X142134623Y-94673373D01*
X142216700Y-94768096D01*
X142233509Y-94787494D01*
X142231471Y-94789259D01*
X142256925Y-94831458D01*
X142259500Y-94853893D01*
X142259500Y-97546105D01*
X142240593Y-97604296D01*
X142233258Y-97612289D01*
X142233509Y-97612506D01*
X142228872Y-97617856D01*
X142228872Y-97617857D01*
X142180072Y-97674176D01*
X142134622Y-97726628D01*
X142074834Y-97857543D01*
X142054353Y-97999997D01*
X142054353Y-98000002D01*
X142074834Y-98142456D01*
X142107305Y-98213556D01*
X142134623Y-98273373D01*
X142171853Y-98316339D01*
X142228873Y-98382144D01*
X142319162Y-98440169D01*
X142349947Y-98459953D01*
X142456403Y-98491211D01*
X142488035Y-98500499D01*
X142488036Y-98500499D01*
X142488039Y-98500500D01*
X142488041Y-98500500D01*
X142631959Y-98500500D01*
X142631961Y-98500500D01*
X142770053Y-98459953D01*
X142891128Y-98382143D01*
X142985377Y-98273373D01*
X143045165Y-98142457D01*
X143060752Y-98034045D01*
X143065647Y-98000002D01*
X143065647Y-97999997D01*
X143045165Y-97857543D01*
X142985377Y-97726627D01*
X142891128Y-97617857D01*
X142891127Y-97617856D01*
X142886491Y-97612506D01*
X142888524Y-97610743D01*
X142863067Y-97568505D01*
X142860500Y-97546105D01*
X142860500Y-96973845D01*
X157556199Y-96973845D01*
X157556199Y-96973849D01*
X157557875Y-96999409D01*
X157561417Y-97053440D01*
X157596695Y-97124979D01*
X157596696Y-97124980D01*
X157596697Y-97124982D01*
X157641522Y-97164292D01*
X157641523Y-97164292D01*
X157641526Y-97164295D01*
X159147974Y-98034043D01*
X159147977Y-98034044D01*
X159147979Y-98034045D01*
X159175376Y-98043344D01*
X159204438Y-98053210D01*
X159284031Y-98047992D01*
X159355570Y-98012714D01*
X159394886Y-97967883D01*
X160264634Y-96461435D01*
X160283801Y-96404971D01*
X160278583Y-96325378D01*
X160243305Y-96253839D01*
X160243303Y-96253837D01*
X160243302Y-96253835D01*
X160198477Y-96214525D01*
X160166883Y-96196284D01*
X158692026Y-95344775D01*
X158692024Y-95344774D01*
X158692020Y-95344772D01*
X158635563Y-95325608D01*
X158635559Y-95325608D01*
X158575867Y-95329521D01*
X158555969Y-95330826D01*
X158555968Y-95330826D01*
X158484428Y-95366105D01*
X158484426Y-95366106D01*
X158445116Y-95410931D01*
X157575363Y-96917388D01*
X157556199Y-96973845D01*
X142860500Y-96973845D01*
X142860500Y-94853893D01*
X142879407Y-94795702D01*
X142886741Y-94787711D01*
X142886491Y-94787494D01*
X142891128Y-94782143D01*
X142985377Y-94673373D01*
X143045165Y-94542457D01*
X143065647Y-94400000D01*
X143064337Y-94390892D01*
X143045165Y-94257543D01*
X143023055Y-94209130D01*
X142985377Y-94126627D01*
X142891128Y-94017857D01*
X142891127Y-94017856D01*
X142891126Y-94017855D01*
X142770057Y-93940049D01*
X142770054Y-93940047D01*
X142770053Y-93940047D01*
X142770050Y-93940046D01*
X142631964Y-93899500D01*
X142631961Y-93899500D01*
X142488039Y-93899500D01*
X142488035Y-93899500D01*
X142349949Y-93940046D01*
X142349942Y-93940049D01*
X142228873Y-94017855D01*
X142134622Y-94126628D01*
X142074834Y-94257543D01*
X142054353Y-94399997D01*
X130525626Y-94399997D01*
X130293624Y-94167995D01*
X130265847Y-94113478D01*
X130264628Y-94097991D01*
X130264628Y-90854313D01*
X130283535Y-90796122D01*
X130333035Y-90760158D01*
X130394221Y-90760158D01*
X130427431Y-90778615D01*
X130500753Y-90840422D01*
X130516664Y-90849524D01*
X130517723Y-90850225D01*
X130522721Y-90853076D01*
X130522722Y-90853077D01*
X130556596Y-90872402D01*
X130593275Y-90908895D01*
X130612733Y-90942603D01*
X130612734Y-90942604D01*
X130615960Y-90948192D01*
X130615991Y-90948238D01*
X130919178Y-91473373D01*
X131338491Y-92199646D01*
X131338533Y-92199728D01*
X131341331Y-92204574D01*
X131341333Y-92204579D01*
X131360790Y-92238273D01*
X131374056Y-92288284D01*
X131373829Y-92332681D01*
X131373949Y-92334648D01*
X131373876Y-92352614D01*
X131405982Y-92532366D01*
X131405983Y-92532369D01*
X131469074Y-92700613D01*
X131470095Y-92703334D01*
X131564099Y-92859872D01*
X131597658Y-92897917D01*
X131684885Y-92996807D01*
X131828458Y-93109610D01*
X131828463Y-93109614D01*
X131831195Y-93111050D01*
X131990094Y-93194568D01*
X132164430Y-93248859D01*
X132345606Y-93270682D01*
X132345706Y-93270694D01*
X132345713Y-93270695D01*
X132345713Y-93270694D01*
X132345714Y-93270695D01*
X132527956Y-93259353D01*
X132705134Y-93215209D01*
X132871394Y-93139722D01*
X133021242Y-93035385D01*
X133149727Y-92905646D01*
X133160033Y-92890572D01*
X133160849Y-92889532D01*
X133164116Y-92884741D01*
X133164118Y-92884740D01*
X133188462Y-92849046D01*
X133220753Y-92819090D01*
X133258131Y-92797515D01*
X133258132Y-92797513D01*
X133264741Y-92793699D01*
X133264789Y-92793665D01*
X134398735Y-92138981D01*
X134440685Y-92126008D01*
X134461415Y-92124425D01*
X134461552Y-92124458D01*
X134461549Y-92124415D01*
X134475127Y-92123395D01*
X134483942Y-92122734D01*
X134483942Y-92122733D01*
X134490188Y-92122265D01*
X134490747Y-92122184D01*
X134509300Y-92120768D01*
X134685897Y-92074354D01*
X134685900Y-92074352D01*
X134685902Y-92074352D01*
X134803181Y-92019278D01*
X134851176Y-91996740D01*
X134999676Y-91890492D01*
X135126490Y-91759118D01*
X135227430Y-91606960D01*
X135299160Y-91439044D01*
X135339311Y-91260918D01*
X135346002Y-91092385D01*
X135346555Y-91078469D01*
X135346133Y-91075527D01*
X135328133Y-90949905D01*
X135320656Y-90897722D01*
X135320655Y-90897718D01*
X135316611Y-90885690D01*
X135262464Y-90724644D01*
X135251316Y-90704543D01*
X135173911Y-90564968D01*
X135173910Y-90564967D01*
X135173907Y-90564961D01*
X135057908Y-90423946D01*
X135057907Y-90423945D01*
X135057905Y-90423943D01*
X134918300Y-90306258D01*
X134918301Y-90306258D01*
X134902392Y-90297157D01*
X134901275Y-90296417D01*
X134896284Y-90293570D01*
X134862443Y-90274264D01*
X134825761Y-90237767D01*
X134803096Y-90198503D01*
X134803040Y-90198419D01*
X134081503Y-88948683D01*
X134081464Y-88948601D01*
X134058298Y-88908486D01*
X134045030Y-88858583D01*
X134045287Y-88794020D01*
X134045286Y-88794019D01*
X134045287Y-88794016D01*
X134013169Y-88614259D01*
X134013168Y-88614256D01*
X134013167Y-88614252D01*
X133950081Y-88446054D01*
X133949043Y-88443286D01*
X133855026Y-88286745D01*
X133855025Y-88286744D01*
X133855024Y-88286742D01*
X133734229Y-88149810D01*
X133590635Y-88037003D01*
X133590633Y-88037002D01*
X133429000Y-87952055D01*
X133428994Y-87952053D01*
X133254647Y-87897765D01*
X133254644Y-87897764D01*
X133254643Y-87897764D01*
X133073354Y-87875935D01*
X133073353Y-87875935D01*
X132891103Y-87887283D01*
X132891099Y-87887283D01*
X132891098Y-87887284D01*
X132713920Y-87931434D01*
X132713918Y-87931434D01*
X132713917Y-87931435D01*
X132668509Y-87952053D01*
X132547652Y-88006929D01*
X132397799Y-88111274D01*
X132269306Y-88241026D01*
X132269303Y-88241028D01*
X132258900Y-88256242D01*
X132257857Y-88257575D01*
X132230586Y-88297589D01*
X132198257Y-88327583D01*
X132155740Y-88352114D01*
X132155458Y-88352301D01*
X131488569Y-88737330D01*
X131428721Y-88750052D01*
X131372825Y-88725165D01*
X131342232Y-88672177D01*
X131348628Y-88611327D01*
X131369064Y-88581592D01*
X131504603Y-88446054D01*
X131522905Y-88414354D01*
X131544164Y-88377532D01*
X131564643Y-88301105D01*
X131564643Y-85322312D01*
X131583550Y-85264121D01*
X131633050Y-85228157D01*
X131694236Y-85228157D01*
X131721246Y-85241796D01*
X131867897Y-85346713D01*
X131867898Y-85346713D01*
X131867899Y-85346714D01*
X132033182Y-85424318D01*
X132209782Y-85470720D01*
X132228068Y-85472114D01*
X132229837Y-85472366D01*
X132235293Y-85472773D01*
X132235295Y-85472774D01*
X132278125Y-85475972D01*
X132320280Y-85488976D01*
X132363124Y-85513731D01*
X132363450Y-85513891D01*
X133187420Y-85989611D01*
X133455266Y-86144252D01*
X133455392Y-86144336D01*
X133460940Y-86147538D01*
X133460941Y-86147539D01*
X133463720Y-86149143D01*
X133498273Y-86169086D01*
X133530580Y-86199059D01*
X133557779Y-86238952D01*
X133559246Y-86240823D01*
X133569337Y-86255583D01*
X133569338Y-86255584D01*
X133569341Y-86255588D01*
X133569341Y-86255589D01*
X133697810Y-86385328D01*
X133697813Y-86385330D01*
X133697816Y-86385333D01*
X133847660Y-86489682D01*
X133847662Y-86489683D01*
X133875619Y-86502378D01*
X134013918Y-86565180D01*
X134191097Y-86609334D01*
X134306235Y-86616504D01*
X134363137Y-86638992D01*
X134395954Y-86690632D01*
X134392151Y-86751699D01*
X134374900Y-86780143D01*
X134334623Y-86826626D01*
X134274834Y-86957543D01*
X134254353Y-87099997D01*
X134254353Y-87100002D01*
X134274834Y-87242456D01*
X134301948Y-87301826D01*
X134334623Y-87373373D01*
X134414032Y-87465017D01*
X134433509Y-87487494D01*
X134431471Y-87489259D01*
X134456925Y-87531458D01*
X134459500Y-87553893D01*
X134459500Y-88439564D01*
X134479978Y-88515988D01*
X134479979Y-88515990D01*
X134486119Y-88526624D01*
X134486120Y-88526626D01*
X134497831Y-88546909D01*
X134518594Y-88582873D01*
X134519541Y-88584512D01*
X134629453Y-88694425D01*
X134657230Y-88748941D01*
X134657441Y-88778514D01*
X134654354Y-88799997D01*
X134654353Y-88800002D01*
X134674834Y-88942456D01*
X134721534Y-89044713D01*
X134734623Y-89073373D01*
X134822542Y-89174838D01*
X134828873Y-89182144D01*
X134948733Y-89259173D01*
X134949947Y-89259953D01*
X135056403Y-89291211D01*
X135088035Y-89300499D01*
X135088036Y-89300499D01*
X135088039Y-89300500D01*
X135088041Y-89300500D01*
X135231959Y-89300500D01*
X135231961Y-89300500D01*
X135370053Y-89259953D01*
X135491128Y-89182143D01*
X135585377Y-89073373D01*
X135645165Y-88942457D01*
X135665647Y-88800000D01*
X135664787Y-88794020D01*
X135645165Y-88657543D01*
X135625402Y-88614268D01*
X135585377Y-88526627D01*
X135491128Y-88417857D01*
X135491127Y-88417856D01*
X135491126Y-88417855D01*
X135370057Y-88340049D01*
X135370054Y-88340047D01*
X135370053Y-88340047D01*
X135356822Y-88336162D01*
X135231964Y-88299500D01*
X135231961Y-88299500D01*
X135159500Y-88299500D01*
X135101309Y-88280593D01*
X135065345Y-88231093D01*
X135060500Y-88200500D01*
X135060500Y-87553893D01*
X135079407Y-87495702D01*
X135086741Y-87487711D01*
X135086491Y-87487494D01*
X135105964Y-87465021D01*
X135185377Y-87373373D01*
X135245165Y-87242457D01*
X135247895Y-87223463D01*
X135274890Y-87168557D01*
X135329004Y-87140002D01*
X135389567Y-87148708D01*
X135420707Y-87172720D01*
X135428872Y-87182143D01*
X135522722Y-87242457D01*
X135549947Y-87259953D01*
X135643744Y-87287494D01*
X135688035Y-87300499D01*
X135688036Y-87300499D01*
X135688039Y-87300500D01*
X135688041Y-87300500D01*
X135831959Y-87300500D01*
X135831961Y-87300500D01*
X135970053Y-87259953D01*
X136091128Y-87182143D01*
X136185377Y-87073373D01*
X136245165Y-86942457D01*
X136257627Y-86855781D01*
X136265647Y-86800002D01*
X136265647Y-86800000D01*
X136262558Y-86778518D01*
X136272990Y-86718228D01*
X136290543Y-86694426D01*
X136995355Y-85989616D01*
X137006692Y-85969979D01*
X137034916Y-85921094D01*
X137055395Y-85844667D01*
X137055395Y-82993801D01*
X137074302Y-82935610D01*
X137123802Y-82899646D01*
X137182288Y-82898812D01*
X137188033Y-82900499D01*
X137188038Y-82900499D01*
X137188039Y-82900500D01*
X137188040Y-82900500D01*
X137331959Y-82900500D01*
X137331961Y-82900500D01*
X137470053Y-82859953D01*
X137504806Y-82837618D01*
X137563979Y-82822064D01*
X137620995Y-82844262D01*
X137654075Y-82895734D01*
X137656974Y-82912534D01*
X137671939Y-83088935D01*
X137712049Y-83235767D01*
X137720056Y-83265078D01*
X137724052Y-83273405D01*
X137728007Y-83281646D01*
X137728648Y-83283237D01*
X137749681Y-83326892D01*
X137759493Y-83369892D01*
X137759478Y-83419213D01*
X137759501Y-83419562D01*
X137759501Y-84680488D01*
X137759492Y-84680626D01*
X137759497Y-84730104D01*
X137749757Y-84772935D01*
X137746857Y-84778980D01*
X137746792Y-84779116D01*
X137728458Y-84817183D01*
X137728119Y-84818024D01*
X137720022Y-84834897D01*
X137720019Y-84834904D01*
X137720019Y-84834906D01*
X137671900Y-85011055D01*
X137656463Y-85193004D01*
X137661101Y-85240472D01*
X137674218Y-85374737D01*
X137674219Y-85374742D01*
X137724579Y-85550263D01*
X137805881Y-85713768D01*
X137915438Y-85859855D01*
X137915441Y-85859857D01*
X137915443Y-85859860D01*
X137993954Y-85932315D01*
X138049595Y-85983664D01*
X138049627Y-85983693D01*
X138049629Y-85983695D01*
X138204015Y-86081194D01*
X138204016Y-86081194D01*
X138204022Y-86081198D01*
X138373514Y-86149142D01*
X138373517Y-86149142D01*
X138373518Y-86149143D01*
X138408283Y-86156162D01*
X138552505Y-86185281D01*
X138714794Y-86188073D01*
X138735080Y-86188422D01*
X138735080Y-86188421D01*
X138735081Y-86188422D01*
X138915210Y-86158460D01*
X139086938Y-86096386D01*
X139102741Y-86087176D01*
X139103849Y-86086624D01*
X139108864Y-86083693D01*
X139108870Y-86083692D01*
X139142537Y-86064021D01*
X139192485Y-86050502D01*
X139231392Y-86050507D01*
X139231394Y-86050506D01*
X139237842Y-86050507D01*
X139237963Y-86050500D01*
X140727507Y-86050500D01*
X140777462Y-86064028D01*
X140815686Y-86086368D01*
X140817527Y-86087286D01*
X140833077Y-86096348D01*
X140930796Y-86131670D01*
X141004787Y-86158416D01*
X141004790Y-86158416D01*
X141004799Y-86158420D01*
X141184920Y-86188381D01*
X141367488Y-86185240D01*
X141546472Y-86149103D01*
X141715958Y-86081163D01*
X141870344Y-85983664D01*
X141959990Y-85900933D01*
X142015574Y-85875365D01*
X142075573Y-85887351D01*
X142117069Y-85932315D01*
X142124211Y-85993082D01*
X142117183Y-86014814D01*
X142074833Y-86107545D01*
X142054353Y-86249997D01*
X142054353Y-86250002D01*
X142074834Y-86392456D01*
X142105531Y-86459672D01*
X142134623Y-86523373D01*
X142224093Y-86626628D01*
X142233509Y-86637494D01*
X142231471Y-86639259D01*
X142256925Y-86681458D01*
X142259500Y-86703893D01*
X142259500Y-89546105D01*
X142240593Y-89604296D01*
X142233258Y-89612289D01*
X142233509Y-89612506D01*
X142134622Y-89726628D01*
X142074834Y-89857543D01*
X142054353Y-89999997D01*
X142054353Y-90000002D01*
X142074833Y-90142454D01*
X142077669Y-90148662D01*
X142084645Y-90209448D01*
X142054559Y-90262726D01*
X141998903Y-90288144D01*
X141938936Y-90275995D01*
X141920475Y-90262544D01*
X141893629Y-90237769D01*
X141870370Y-90216304D01*
X141715977Y-90118802D01*
X141546485Y-90050858D01*
X141546484Y-90050857D01*
X141546480Y-90050856D01*
X141367494Y-90014719D01*
X141367485Y-90014718D01*
X141184918Y-90011577D01*
X141004795Y-90041539D01*
X141004792Y-90041539D01*
X141004790Y-90041540D01*
X141004788Y-90041540D01*
X141004778Y-90041543D01*
X140833062Y-90103613D01*
X140817166Y-90112875D01*
X140816035Y-90113441D01*
X140777459Y-90135978D01*
X140727513Y-90149496D01*
X140688608Y-90149494D01*
X140688606Y-90149494D01*
X140682148Y-90149494D01*
X140682042Y-90149501D01*
X139238038Y-90149501D01*
X139237933Y-90149494D01*
X139192485Y-90149497D01*
X139142538Y-90135978D01*
X139104159Y-90113556D01*
X139102496Y-90112727D01*
X139092464Y-90106881D01*
X139086921Y-90103650D01*
X139086918Y-90103649D01*
X138915211Y-90041583D01*
X138915196Y-90041579D01*
X138735075Y-90011618D01*
X138552519Y-90014759D01*
X138552510Y-90014760D01*
X138373529Y-90050896D01*
X138204041Y-90118838D01*
X138049650Y-90216339D01*
X137915473Y-90340166D01*
X137915470Y-90340169D01*
X137805920Y-90486246D01*
X137724618Y-90649749D01*
X137724615Y-90649756D01*
X137674261Y-90825253D01*
X137674259Y-90825262D01*
X137656504Y-91006995D01*
X137671939Y-91188935D01*
X137720054Y-91365072D01*
X137720056Y-91365078D01*
X137725168Y-91375730D01*
X137728007Y-91381646D01*
X137728648Y-91383237D01*
X137749681Y-91426892D01*
X137759493Y-91469892D01*
X137759478Y-91519213D01*
X137759501Y-91519562D01*
X137759501Y-92780488D01*
X137759492Y-92780626D01*
X137759497Y-92830104D01*
X137749757Y-92872935D01*
X137746857Y-92878980D01*
X137746792Y-92879116D01*
X137728458Y-92917183D01*
X137728119Y-92918024D01*
X137720022Y-92934897D01*
X137720019Y-92934904D01*
X137720019Y-92934906D01*
X137703107Y-92996817D01*
X137672293Y-93109617D01*
X137671900Y-93111055D01*
X137656463Y-93293004D01*
X137661295Y-93342456D01*
X137674218Y-93474737D01*
X137674219Y-93474742D01*
X137724579Y-93650263D01*
X137805881Y-93813768D01*
X137915438Y-93959855D01*
X137915441Y-93959857D01*
X137915443Y-93959860D01*
X137991244Y-94029814D01*
X138049595Y-94083664D01*
X138049627Y-94083693D01*
X138049629Y-94083695D01*
X138204015Y-94181194D01*
X138204016Y-94181194D01*
X138204022Y-94181198D01*
X138373514Y-94249142D01*
X138373517Y-94249142D01*
X138373518Y-94249143D01*
X138408283Y-94256162D01*
X138552505Y-94285281D01*
X138714794Y-94288073D01*
X138735080Y-94288422D01*
X138735080Y-94288421D01*
X138735081Y-94288422D01*
X138915210Y-94258460D01*
X139086938Y-94196386D01*
X139102741Y-94187176D01*
X139103849Y-94186624D01*
X139108864Y-94183693D01*
X139108870Y-94183692D01*
X139142537Y-94164021D01*
X139192485Y-94150502D01*
X139231392Y-94150507D01*
X139231394Y-94150506D01*
X139237842Y-94150507D01*
X139237963Y-94150500D01*
X140727507Y-94150500D01*
X140777462Y-94164028D01*
X140815686Y-94186368D01*
X140817527Y-94187286D01*
X140833077Y-94196348D01*
X140930796Y-94231670D01*
X141004787Y-94258416D01*
X141004790Y-94258416D01*
X141004799Y-94258420D01*
X141184920Y-94288381D01*
X141367488Y-94285240D01*
X141546472Y-94249103D01*
X141715958Y-94181163D01*
X141867041Y-94085750D01*
X141870341Y-94083666D01*
X141870341Y-94083665D01*
X141870344Y-94083664D01*
X142004531Y-93959829D01*
X142114083Y-93813748D01*
X142195382Y-93650250D01*
X142245741Y-93474736D01*
X142263496Y-93293006D01*
X142248060Y-93111064D01*
X142199944Y-92934922D01*
X142192025Y-92918422D01*
X142191494Y-92917100D01*
X142170300Y-92873083D01*
X142160499Y-92830134D01*
X142160499Y-91469889D01*
X142170245Y-91427055D01*
X142173913Y-91419412D01*
X142173969Y-91419297D01*
X142187056Y-91392116D01*
X142189019Y-91388040D01*
X142189019Y-91388039D01*
X142191626Y-91382625D01*
X142191923Y-91381884D01*
X142199982Y-91365093D01*
X142248100Y-91188944D01*
X142263537Y-91006994D01*
X142245781Y-90825257D01*
X142243658Y-90817857D01*
X142195422Y-90649742D01*
X142195421Y-90649740D01*
X142195420Y-90649736D01*
X142144000Y-90546327D01*
X142135022Y-90485806D01*
X142163333Y-90431564D01*
X142218119Y-90404322D01*
X142278454Y-90414485D01*
X142286158Y-90418959D01*
X142349947Y-90459953D01*
X142456403Y-90491211D01*
X142488035Y-90500499D01*
X142488036Y-90500499D01*
X142488039Y-90500500D01*
X142488041Y-90500500D01*
X142631959Y-90500500D01*
X142631961Y-90500500D01*
X142770053Y-90459953D01*
X142891128Y-90382143D01*
X142985377Y-90273373D01*
X143045165Y-90142457D01*
X143055840Y-90068211D01*
X143065647Y-90000002D01*
X143065647Y-89999997D01*
X143045165Y-89857543D01*
X142985377Y-89726627D01*
X142891128Y-89617857D01*
X142891127Y-89617856D01*
X142886491Y-89612506D01*
X142888524Y-89610743D01*
X142863067Y-89568505D01*
X142860500Y-89546105D01*
X142860500Y-86899997D01*
X143654353Y-86899997D01*
X143654353Y-86900002D01*
X143674834Y-87042456D01*
X143688953Y-87073371D01*
X143734623Y-87173373D01*
X143809644Y-87259953D01*
X143833509Y-87287494D01*
X143831471Y-87289259D01*
X143856925Y-87331458D01*
X143859500Y-87353893D01*
X143859500Y-90746105D01*
X143840593Y-90804296D01*
X143833258Y-90812289D01*
X143833509Y-90812506D01*
X143828872Y-90817856D01*
X143828872Y-90817857D01*
X143803871Y-90846710D01*
X143734622Y-90926628D01*
X143674834Y-91057543D01*
X143654353Y-91199997D01*
X143654353Y-91200002D01*
X143674834Y-91342456D01*
X143732624Y-91468996D01*
X143734623Y-91473373D01*
X143828288Y-91581469D01*
X143828873Y-91582144D01*
X143867488Y-91606960D01*
X143949947Y-91659953D01*
X144056403Y-91691211D01*
X144088035Y-91700499D01*
X144088036Y-91700499D01*
X144088039Y-91700500D01*
X144088041Y-91700500D01*
X144231959Y-91700500D01*
X144231961Y-91700500D01*
X144370053Y-91659953D01*
X144452512Y-91606960D01*
X144467973Y-91597024D01*
X144527148Y-91581469D01*
X144584164Y-91603668D01*
X144603992Y-91625578D01*
X144689526Y-91754506D01*
X144692576Y-91759104D01*
X144692579Y-91759107D01*
X144692582Y-91759111D01*
X144819391Y-91890469D01*
X144819394Y-91890471D01*
X144819395Y-91890472D01*
X144967899Y-91996714D01*
X145133182Y-92074318D01*
X145309782Y-92120720D01*
X145328068Y-92122114D01*
X145329838Y-92122366D01*
X145335292Y-92122773D01*
X145335295Y-92122774D01*
X145378127Y-92125972D01*
X145420278Y-92138974D01*
X145457506Y-92160485D01*
X145457508Y-92160485D01*
X145463118Y-92163727D01*
X145463437Y-92163884D01*
X146555277Y-92794258D01*
X146555403Y-92794342D01*
X146560939Y-92797537D01*
X146560941Y-92797539D01*
X146580753Y-92808974D01*
X146598273Y-92819086D01*
X146630580Y-92849059D01*
X146657779Y-92888952D01*
X146659246Y-92890823D01*
X146669337Y-92905583D01*
X146669338Y-92905584D01*
X146669341Y-92905588D01*
X146669341Y-92905589D01*
X146797810Y-93035328D01*
X146797813Y-93035330D01*
X146797816Y-93035333D01*
X146947660Y-93139682D01*
X147113918Y-93215180D01*
X147291097Y-93259334D01*
X147473341Y-93270684D01*
X147654629Y-93248856D01*
X147828971Y-93194570D01*
X147990604Y-93109620D01*
X148134189Y-92996814D01*
X148254981Y-92859879D01*
X148348988Y-92703340D01*
X148413105Y-92532370D01*
X148445211Y-92352617D01*
X148445137Y-92334289D01*
X148445211Y-92333075D01*
X148445181Y-92327291D01*
X148445182Y-92327289D01*
X148444981Y-92288280D01*
X148458245Y-92238272D01*
X148477718Y-92204550D01*
X148477718Y-92204545D01*
X148481751Y-92197563D01*
X148481763Y-92197536D01*
X149202089Y-90949893D01*
X149202105Y-90949872D01*
X149206291Y-90942620D01*
X149206294Y-90942618D01*
X149225760Y-90908897D01*
X149262443Y-90872403D01*
X149296289Y-90853097D01*
X149296292Y-90853093D01*
X149301312Y-90850230D01*
X149302410Y-90849502D01*
X149318311Y-90840406D01*
X149430169Y-90746105D01*
X149457904Y-90722723D01*
X149457904Y-90722722D01*
X149457911Y-90722717D01*
X149573902Y-90581704D01*
X149662452Y-90422025D01*
X149666661Y-90409503D01*
X149703125Y-90360371D01*
X149761504Y-90342055D01*
X149819500Y-90361552D01*
X149854960Y-90411414D01*
X149859500Y-90441050D01*
X149859500Y-94979849D01*
X149840593Y-95038040D01*
X149814024Y-95063133D01*
X149728872Y-95117857D01*
X149634622Y-95226628D01*
X149574834Y-95357543D01*
X149554353Y-95499997D01*
X149554353Y-95500002D01*
X149574834Y-95642456D01*
X149634622Y-95773371D01*
X149634623Y-95773373D01*
X149676880Y-95822140D01*
X149728873Y-95882144D01*
X149847549Y-95958412D01*
X149849947Y-95959953D01*
X149944994Y-95987861D01*
X149988035Y-96000499D01*
X149988036Y-96000499D01*
X149988039Y-96000500D01*
X149988041Y-96000500D01*
X150131959Y-96000500D01*
X150131961Y-96000500D01*
X150270053Y-95959953D01*
X150391128Y-95882143D01*
X150485377Y-95773373D01*
X150545165Y-95642457D01*
X150563705Y-95513509D01*
X150565647Y-95500002D01*
X150565647Y-95499997D01*
X150545165Y-95357543D01*
X150532964Y-95330826D01*
X150485377Y-95226627D01*
X150484679Y-95225821D01*
X150484332Y-95225001D01*
X150481549Y-95220670D01*
X150482298Y-95220188D01*
X150460863Y-95169461D01*
X150460500Y-95160992D01*
X150460500Y-94239370D01*
X153532308Y-94239370D01*
X153535881Y-94329340D01*
X153539552Y-94421804D01*
X153546139Y-94451030D01*
X153575603Y-94581754D01*
X153579697Y-94599914D01*
X153627310Y-94711375D01*
X153651420Y-94767818D01*
X153752346Y-94919963D01*
X153868259Y-95040047D01*
X153879146Y-95051326D01*
X154027630Y-95157569D01*
X154192891Y-95235181D01*
X154196440Y-95236114D01*
X154364855Y-95280385D01*
X154369470Y-95281598D01*
X154387805Y-95282999D01*
X154389604Y-95283254D01*
X154394992Y-95283656D01*
X154394996Y-95283658D01*
X154437866Y-95286862D01*
X154480018Y-95299869D01*
X154522668Y-95324514D01*
X154523043Y-95324699D01*
X154826674Y-95500000D01*
X155300166Y-95773371D01*
X155615007Y-95955144D01*
X155615080Y-95955193D01*
X155620655Y-95958411D01*
X155620656Y-95958412D01*
X155658015Y-95979977D01*
X155690320Y-96009950D01*
X155717856Y-96050341D01*
X155718614Y-96051307D01*
X155729025Y-96066534D01*
X155729029Y-96066539D01*
X155857506Y-96196279D01*
X155857510Y-96196282D01*
X155857512Y-96196284D01*
X155883705Y-96214523D01*
X156007364Y-96300632D01*
X156061861Y-96325377D01*
X156173631Y-96376128D01*
X156350817Y-96420278D01*
X156533068Y-96431624D01*
X156714362Y-96409791D01*
X156858293Y-96364970D01*
X156888702Y-96355501D01*
X156888702Y-96355500D01*
X156888708Y-96355499D01*
X157050345Y-96270543D01*
X157193933Y-96157730D01*
X157314726Y-96020788D01*
X157408733Y-95864242D01*
X157472849Y-95693264D01*
X157504954Y-95513505D01*
X157504879Y-95495196D01*
X157504950Y-95494046D01*
X157504920Y-95488192D01*
X157504921Y-95488189D01*
X157504721Y-95449176D01*
X157517989Y-95399162D01*
X157537078Y-95366106D01*
X157537447Y-95365467D01*
X157537447Y-95365465D01*
X157541009Y-95359298D01*
X157541050Y-95359213D01*
X158285491Y-94069803D01*
X158322065Y-94033375D01*
X158328244Y-94029841D01*
X158328373Y-94029814D01*
X158328353Y-94029779D01*
X158355998Y-94014013D01*
X158355999Y-94014011D01*
X158361336Y-94010968D01*
X158361936Y-94010570D01*
X158366938Y-94007708D01*
X158378040Y-94001359D01*
X158517661Y-93883672D01*
X158633672Y-93742653D01*
X158679539Y-93659953D01*
X158722234Y-93582972D01*
X158722234Y-93582969D01*
X158722238Y-93582964D01*
X158780433Y-93409881D01*
X158806335Y-93229123D01*
X158799087Y-93046662D01*
X158799086Y-93046657D01*
X158799086Y-93046655D01*
X158758930Y-92868530D01*
X158758927Y-92868521D01*
X158687192Y-92700613D01*
X158687189Y-92700609D01*
X158687188Y-92700605D01*
X158586234Y-92548445D01*
X158459403Y-92417073D01*
X158345746Y-92335768D01*
X158310885Y-92310830D01*
X158145588Y-92233228D01*
X157968981Y-92186833D01*
X157968974Y-92186832D01*
X157950657Y-92185435D01*
X157949271Y-92185239D01*
X157943646Y-92184817D01*
X157939564Y-92184510D01*
X157900613Y-92181589D01*
X157858519Y-92168602D01*
X156680498Y-91488470D01*
X156648204Y-91458507D01*
X156620951Y-91418539D01*
X156619583Y-91416793D01*
X156616521Y-91412316D01*
X156609422Y-91401934D01*
X156609417Y-91401929D01*
X156609416Y-91401927D01*
X156480940Y-91272202D01*
X156480936Y-91272198D01*
X156331099Y-91167871D01*
X156331090Y-91167866D01*
X156164847Y-91092385D01*
X156164838Y-91092382D01*
X155987668Y-91048239D01*
X155816776Y-91037602D01*
X155805433Y-91036896D01*
X155805432Y-91036896D01*
X155624155Y-91058726D01*
X155624144Y-91058729D01*
X155449828Y-91113008D01*
X155449822Y-91113011D01*
X155288196Y-91197954D01*
X155288195Y-91197955D01*
X155166390Y-91293646D01*
X155144616Y-91310752D01*
X155133095Y-91323812D01*
X155023822Y-91447679D01*
X154929814Y-91604203D01*
X154929813Y-91604205D01*
X154865694Y-91775154D01*
X154865691Y-91775166D01*
X154833573Y-91954903D01*
X154833646Y-91973278D01*
X154833563Y-91974650D01*
X154833794Y-92019278D01*
X154820532Y-92069290D01*
X154561344Y-92518217D01*
X154053020Y-93398658D01*
X154016331Y-93435154D01*
X153978222Y-93456888D01*
X153975920Y-93458410D01*
X153960517Y-93467223D01*
X153820926Y-93584902D01*
X153820925Y-93584903D01*
X153704939Y-93725906D01*
X153704935Y-93725912D01*
X153616391Y-93885576D01*
X153616388Y-93885583D01*
X153558207Y-94058634D01*
X153558206Y-94058640D01*
X153532308Y-94239370D01*
X150460500Y-94239370D01*
X150460500Y-90053893D01*
X150479407Y-89995702D01*
X150486741Y-89987711D01*
X150486491Y-89987494D01*
X150491128Y-89982143D01*
X150585377Y-89873373D01*
X150645165Y-89742457D01*
X150663880Y-89612289D01*
X150665647Y-89600002D01*
X150665647Y-89599997D01*
X150645165Y-89457543D01*
X150634790Y-89434826D01*
X150585377Y-89326627D01*
X150491128Y-89217857D01*
X150491127Y-89217856D01*
X150491126Y-89217855D01*
X150370057Y-89140049D01*
X150370054Y-89140047D01*
X150370053Y-89140047D01*
X150370050Y-89140046D01*
X150231964Y-89099500D01*
X150231961Y-89099500D01*
X150088039Y-89099500D01*
X150088035Y-89099500D01*
X149949949Y-89140046D01*
X149949942Y-89140049D01*
X149828873Y-89217855D01*
X149734622Y-89326628D01*
X149707294Y-89386467D01*
X149665922Y-89431544D01*
X149605955Y-89443695D01*
X149550299Y-89418277D01*
X149534744Y-89400069D01*
X149526463Y-89387586D01*
X149399651Y-89256218D01*
X149251155Y-89149975D01*
X149085883Y-89072366D01*
X148980663Y-89044713D01*
X148909290Y-89025955D01*
X148909286Y-89025954D01*
X148909283Y-89025954D01*
X148890955Y-89024554D01*
X148889548Y-89024354D01*
X148840873Y-89020699D01*
X148798788Y-89007714D01*
X148761387Y-88986121D01*
X148761387Y-88986120D01*
X148761385Y-88986120D01*
X147663769Y-88352410D01*
X147663760Y-88352404D01*
X147642353Y-88340046D01*
X147620755Y-88327577D01*
X147588374Y-88297484D01*
X147588372Y-88297486D01*
X147564137Y-88261947D01*
X147564135Y-88261945D01*
X147560794Y-88257046D01*
X147560190Y-88256275D01*
X147549733Y-88240983D01*
X147549731Y-88240982D01*
X147421243Y-88111251D01*
X147318274Y-88039562D01*
X147271389Y-88006919D01*
X147105127Y-87931436D01*
X147105124Y-87931435D01*
X146927949Y-87887296D01*
X146745705Y-87875955D01*
X146745697Y-87875956D01*
X146564423Y-87897792D01*
X146390084Y-87952082D01*
X146228459Y-88037030D01*
X146228452Y-88037035D01*
X146084871Y-88149837D01*
X145964083Y-88286766D01*
X145964081Y-88286768D01*
X145964081Y-88286769D01*
X145939944Y-88326959D01*
X145870070Y-88443304D01*
X145805949Y-88614268D01*
X145773832Y-88794020D01*
X145773905Y-88812421D01*
X145773824Y-88813771D01*
X145774055Y-88858382D01*
X145760791Y-88908396D01*
X145738845Y-88946404D01*
X145738815Y-88946461D01*
X144993278Y-90237769D01*
X144956597Y-90274260D01*
X144918116Y-90296212D01*
X144916485Y-90297289D01*
X144900792Y-90306266D01*
X144900781Y-90306274D01*
X144761174Y-90423949D01*
X144761168Y-90423956D01*
X144645165Y-90564961D01*
X144642631Y-90568687D01*
X144641295Y-90567778D01*
X144601316Y-90605040D01*
X144540585Y-90612481D01*
X144487079Y-90582805D01*
X144461235Y-90527345D01*
X144460500Y-90515305D01*
X144460500Y-87353893D01*
X144479407Y-87295702D01*
X144486741Y-87287711D01*
X144486491Y-87287494D01*
X144491128Y-87282143D01*
X144585377Y-87173373D01*
X144645165Y-87042457D01*
X144660815Y-86933610D01*
X144665647Y-86900002D01*
X144665647Y-86899997D01*
X144645165Y-86757543D01*
X144627040Y-86717856D01*
X144585377Y-86626627D01*
X144491128Y-86517857D01*
X144491127Y-86517856D01*
X144491126Y-86517855D01*
X144370057Y-86440049D01*
X144370054Y-86440047D01*
X144370053Y-86440047D01*
X144370050Y-86440046D01*
X144231964Y-86399500D01*
X144231961Y-86399500D01*
X144088039Y-86399500D01*
X144088035Y-86399500D01*
X143949949Y-86440046D01*
X143949942Y-86440049D01*
X143828873Y-86517855D01*
X143734622Y-86626628D01*
X143674834Y-86757543D01*
X143654353Y-86899997D01*
X142860500Y-86899997D01*
X142860500Y-86703893D01*
X142879407Y-86645702D01*
X142886741Y-86637711D01*
X142886491Y-86637494D01*
X142891627Y-86631567D01*
X142985377Y-86523373D01*
X143045165Y-86392457D01*
X143060684Y-86284521D01*
X143065647Y-86250002D01*
X143065647Y-86249997D01*
X143045165Y-86107543D01*
X143035865Y-86087179D01*
X142985377Y-85976627D01*
X142891128Y-85867857D01*
X142891127Y-85867856D01*
X142891126Y-85867855D01*
X142770057Y-85790049D01*
X142770054Y-85790047D01*
X142770053Y-85790047D01*
X142770050Y-85790046D01*
X142631964Y-85749500D01*
X142631961Y-85749500D01*
X142488039Y-85749500D01*
X142488035Y-85749500D01*
X142349949Y-85790046D01*
X142349947Y-85790047D01*
X142246951Y-85856238D01*
X142187775Y-85871791D01*
X142130759Y-85849593D01*
X142097680Y-85798120D01*
X142101174Y-85737034D01*
X142111916Y-85717713D01*
X142111715Y-85717589D01*
X142114075Y-85713757D01*
X142114083Y-85713748D01*
X142195382Y-85550250D01*
X142245741Y-85374736D01*
X142263496Y-85193006D01*
X142248060Y-85011064D01*
X142199944Y-84834922D01*
X142192025Y-84818422D01*
X142191494Y-84817100D01*
X142170300Y-84773083D01*
X142160499Y-84730134D01*
X142160499Y-83418211D01*
X143273470Y-83418211D01*
X143273471Y-83418214D01*
X143299365Y-83598944D01*
X143299366Y-83598949D01*
X143299367Y-83598952D01*
X143326507Y-83679681D01*
X143357552Y-83772024D01*
X143357557Y-83772034D01*
X143446096Y-83931693D01*
X143446100Y-83931699D01*
X143562087Y-84072709D01*
X143562093Y-84072715D01*
X143676143Y-84168865D01*
X143701690Y-84190402D01*
X143717652Y-84199534D01*
X143718822Y-84200308D01*
X143723708Y-84203095D01*
X143723711Y-84203098D01*
X143757555Y-84222403D01*
X143794238Y-84258897D01*
X143813706Y-84292619D01*
X143816947Y-84298233D01*
X143816956Y-84298247D01*
X144538824Y-85548558D01*
X144538830Y-85548570D01*
X144542281Y-85554548D01*
X144542282Y-85554550D01*
X144554332Y-85575420D01*
X144561723Y-85588222D01*
X144574985Y-85638120D01*
X144574865Y-85667987D01*
X144574865Y-85668096D01*
X144574788Y-85683091D01*
X144574802Y-85683349D01*
X144574725Y-85702619D01*
X144591783Y-85798120D01*
X144606834Y-85882386D01*
X144644815Y-85983664D01*
X144669880Y-86050502D01*
X144670955Y-86053367D01*
X144764967Y-86209916D01*
X144885766Y-86346859D01*
X144885770Y-86346862D01*
X144885771Y-86346863D01*
X145029354Y-86459668D01*
X145029356Y-86459669D01*
X145029360Y-86459672D01*
X145191003Y-86544627D01*
X145365355Y-86598917D01*
X145546654Y-86620747D01*
X145728910Y-86609397D01*
X145906099Y-86565241D01*
X146072368Y-86489738D01*
X146222222Y-86385384D01*
X146350709Y-86255627D01*
X146361029Y-86240531D01*
X146361825Y-86239517D01*
X146365121Y-86234684D01*
X146389424Y-86199046D01*
X146421711Y-86169092D01*
X146459119Y-86147495D01*
X146459119Y-86147494D01*
X146464589Y-86144336D01*
X146482090Y-86134232D01*
X146482092Y-86134231D01*
X147148465Y-85749500D01*
X147555803Y-85514322D01*
X147555828Y-85514312D01*
X147562361Y-85510539D01*
X147562363Y-85510539D01*
X147599722Y-85488967D01*
X147641685Y-85475990D01*
X147654024Y-85475048D01*
X147654141Y-85475077D01*
X147654139Y-85475040D01*
X147684942Y-85472726D01*
X147684944Y-85472725D01*
X147691056Y-85472266D01*
X147691703Y-85472174D01*
X147710225Y-85470761D01*
X147886832Y-85424357D01*
X148052122Y-85346750D01*
X148200632Y-85240505D01*
X148327456Y-85109131D01*
X148428404Y-84956969D01*
X148500139Y-84789048D01*
X148540292Y-84610916D01*
X148547536Y-84428457D01*
X148521631Y-84247702D01*
X148505422Y-84199496D01*
X148463438Y-84074632D01*
X148463435Y-84074627D01*
X148463434Y-84074623D01*
X148374868Y-83914937D01*
X148374867Y-83914935D01*
X148258863Y-83773928D01*
X148258862Y-83773927D01*
X148258858Y-83773922D01*
X148119238Y-83656237D01*
X148103298Y-83647119D01*
X148102318Y-83646470D01*
X148063401Y-83624264D01*
X148026723Y-83587767D01*
X148004078Y-83548532D01*
X148004001Y-83548417D01*
X147281720Y-82297391D01*
X147281709Y-82297369D01*
X147259208Y-82258399D01*
X147245943Y-82208379D01*
X147246146Y-82169411D01*
X147246145Y-82169408D01*
X147246174Y-82163902D01*
X147246063Y-82162098D01*
X147246136Y-82144022D01*
X147214022Y-81964279D01*
X147149902Y-81793319D01*
X147055895Y-81636789D01*
X146971788Y-81541444D01*
X146935108Y-81499862D01*
X146821327Y-81410471D01*
X146791529Y-81387060D01*
X146791525Y-81387058D01*
X146791524Y-81387057D01*
X146629911Y-81302114D01*
X146455573Y-81247823D01*
X146395145Y-81240544D01*
X146274293Y-81225988D01*
X146274291Y-81225988D01*
X146092055Y-81237327D01*
X145914885Y-81281465D01*
X145748625Y-81356947D01*
X145598777Y-81461275D01*
X145598776Y-81461275D01*
X145470293Y-81591000D01*
X145470288Y-81591007D01*
X145459916Y-81606173D01*
X145458845Y-81607541D01*
X145431549Y-81647589D01*
X145399212Y-81677586D01*
X145356748Y-81702080D01*
X145356384Y-81702323D01*
X144264030Y-82332994D01*
X144263803Y-82333106D01*
X144221226Y-82357701D01*
X144179108Y-82370698D01*
X144130637Y-82374331D01*
X144129022Y-82374559D01*
X144110716Y-82375957D01*
X143934119Y-82422369D01*
X143768847Y-82499978D01*
X143620353Y-82606220D01*
X143493538Y-82737591D01*
X143392604Y-82889734D01*
X143392600Y-82889743D01*
X143320873Y-83057641D01*
X143280719Y-83235767D01*
X143273470Y-83418211D01*
X142160499Y-83418211D01*
X142160499Y-83369889D01*
X142170245Y-83327055D01*
X142173913Y-83319412D01*
X142173969Y-83319297D01*
X142187043Y-83292144D01*
X142189019Y-83288040D01*
X142189019Y-83288039D01*
X142191626Y-83282625D01*
X142191923Y-83281884D01*
X142199982Y-83265093D01*
X142248100Y-83088944D01*
X142263537Y-82906994D01*
X142245781Y-82725257D01*
X142245778Y-82725246D01*
X142195422Y-82549742D01*
X142195421Y-82549740D01*
X142195420Y-82549736D01*
X142114118Y-82386231D01*
X142004562Y-82240145D01*
X142004558Y-82240141D01*
X142004556Y-82240139D01*
X141870374Y-82116307D01*
X141870371Y-82116305D01*
X141870370Y-82116304D01*
X141715977Y-82018802D01*
X141546485Y-81950858D01*
X141546484Y-81950857D01*
X141546480Y-81950856D01*
X141367494Y-81914719D01*
X141367485Y-81914718D01*
X141184918Y-81911577D01*
X141004795Y-81941539D01*
X141004792Y-81941539D01*
X141004790Y-81941540D01*
X141004788Y-81941540D01*
X141004778Y-81941543D01*
X140833062Y-82003613D01*
X140817166Y-82012875D01*
X140816035Y-82013441D01*
X140777459Y-82035978D01*
X140727513Y-82049496D01*
X140688608Y-82049494D01*
X140688606Y-82049494D01*
X140682148Y-82049494D01*
X140682042Y-82049501D01*
X139238038Y-82049501D01*
X139237933Y-82049494D01*
X139192485Y-82049497D01*
X139142538Y-82035978D01*
X139104159Y-82013556D01*
X139102496Y-82012727D01*
X139088029Y-82004296D01*
X139086921Y-82003650D01*
X139086918Y-82003649D01*
X138915211Y-81941583D01*
X138915196Y-81941579D01*
X138735075Y-81911618D01*
X138552519Y-81914759D01*
X138552510Y-81914760D01*
X138373529Y-81950896D01*
X138204041Y-82018838D01*
X138049650Y-82116339D01*
X137915473Y-82240166D01*
X137915469Y-82240171D01*
X137904697Y-82254534D01*
X137854657Y-82289741D01*
X137793479Y-82288812D01*
X137744531Y-82252100D01*
X137735445Y-82236259D01*
X137685378Y-82126629D01*
X137685377Y-82126628D01*
X137685377Y-82126627D01*
X137591128Y-82017857D01*
X137591127Y-82017856D01*
X137586491Y-82012506D01*
X137588524Y-82010743D01*
X137563067Y-81968505D01*
X137560500Y-81946105D01*
X137560500Y-78753893D01*
X137579407Y-78695702D01*
X137586741Y-78687711D01*
X137586491Y-78687494D01*
X137591128Y-78682143D01*
X137685377Y-78573373D01*
X137745165Y-78442457D01*
X137751992Y-78394971D01*
X137765647Y-78300002D01*
X137765647Y-78299997D01*
X137745165Y-78157543D01*
X137744679Y-78156478D01*
X137685377Y-78026627D01*
X137591128Y-77917857D01*
X137591127Y-77917856D01*
X137591126Y-77917855D01*
X137470057Y-77840049D01*
X137470054Y-77840047D01*
X137470053Y-77840047D01*
X137470050Y-77840046D01*
X137331964Y-77799500D01*
X137331961Y-77799500D01*
X137188039Y-77799500D01*
X137188035Y-77799500D01*
X137049949Y-77840046D01*
X137049942Y-77840049D01*
X136928873Y-77917855D01*
X136834622Y-78026628D01*
X136774834Y-78157543D01*
X136754353Y-78299997D01*
X136754353Y-78300002D01*
X136774834Y-78442456D01*
X136821655Y-78544977D01*
X136834623Y-78573373D01*
X136856447Y-78598560D01*
X136933509Y-78687494D01*
X136931471Y-78689259D01*
X136956925Y-78731458D01*
X136959500Y-78753893D01*
X136959500Y-80062146D01*
X136940593Y-80120337D01*
X136891093Y-80156301D01*
X136829907Y-80156301D01*
X136785681Y-80126977D01*
X136691129Y-80017858D01*
X136691127Y-80017856D01*
X136570057Y-79940049D01*
X136570054Y-79940047D01*
X136570053Y-79940047D01*
X136570050Y-79940046D01*
X136431964Y-79899500D01*
X136431961Y-79899500D01*
X136288039Y-79899500D01*
X136288035Y-79899500D01*
X136149949Y-79940046D01*
X136149942Y-79940049D01*
X136028873Y-80017855D01*
X135934622Y-80126628D01*
X135874834Y-80257543D01*
X135854353Y-80399997D01*
X135854353Y-80400002D01*
X135874834Y-80542456D01*
X135934623Y-80673373D01*
X136033509Y-80787494D01*
X136031471Y-80789259D01*
X136056925Y-80831458D01*
X136059500Y-80853893D01*
X136059500Y-82313333D01*
X136040593Y-82371524D01*
X135991093Y-82407488D01*
X135935336Y-82409081D01*
X135809290Y-82375955D01*
X135809286Y-82375954D01*
X135809283Y-82375954D01*
X135792160Y-82374646D01*
X135790954Y-82374553D01*
X135789548Y-82374354D01*
X135740873Y-82370699D01*
X135698788Y-82357714D01*
X135661387Y-82336121D01*
X135661387Y-82336120D01*
X135661385Y-82336120D01*
X134563769Y-81702410D01*
X134563760Y-81702404D01*
X134555972Y-81697908D01*
X134520755Y-81677577D01*
X134488374Y-81647484D01*
X134488372Y-81647486D01*
X134464137Y-81611947D01*
X134464135Y-81611945D01*
X134460794Y-81607046D01*
X134460190Y-81606275D01*
X134449733Y-81590983D01*
X134449731Y-81590982D01*
X134321243Y-81461251D01*
X134248246Y-81410429D01*
X134171389Y-81356919D01*
X134005127Y-81281436D01*
X134005124Y-81281435D01*
X133827949Y-81237296D01*
X133645705Y-81225955D01*
X133645697Y-81225956D01*
X133464423Y-81247792D01*
X133290084Y-81302082D01*
X133128459Y-81387030D01*
X133128452Y-81387035D01*
X132984871Y-81499837D01*
X132864083Y-81636766D01*
X132864081Y-81636768D01*
X132864081Y-81636769D01*
X132839944Y-81676959D01*
X132770070Y-81793304D01*
X132705949Y-81964268D01*
X132673832Y-82144020D01*
X132673905Y-82162421D01*
X132673824Y-82163771D01*
X132674055Y-82208382D01*
X132660791Y-82258396D01*
X132638845Y-82296404D01*
X132638815Y-82296461D01*
X131893278Y-83587769D01*
X131856597Y-83624260D01*
X131818116Y-83646212D01*
X131816485Y-83647289D01*
X131800792Y-83656266D01*
X131800782Y-83656274D01*
X131727447Y-83718088D01*
X131670768Y-83741134D01*
X131611368Y-83726464D01*
X131571934Y-83679681D01*
X131564643Y-83642391D01*
X131564643Y-71661335D01*
X131583550Y-71603144D01*
X131593633Y-71591337D01*
X133755474Y-69429495D01*
X133809991Y-69401719D01*
X133825478Y-69400500D01*
X133931959Y-69400500D01*
X133931961Y-69400500D01*
X134032610Y-69370947D01*
X134093769Y-69372694D01*
X134142222Y-69410057D01*
X134159500Y-69465937D01*
X134159500Y-70246105D01*
X134140593Y-70304296D01*
X134133258Y-70312289D01*
X134133509Y-70312506D01*
X134128872Y-70317856D01*
X134128872Y-70317857D01*
X134120441Y-70327587D01*
X134034622Y-70426628D01*
X133974834Y-70557543D01*
X133954353Y-70699997D01*
X133954353Y-70700002D01*
X133974834Y-70842456D01*
X134033402Y-70970700D01*
X134034623Y-70973373D01*
X134125057Y-71077740D01*
X134128873Y-71082144D01*
X134249942Y-71159950D01*
X134249947Y-71159953D01*
X134356403Y-71191211D01*
X134388035Y-71200499D01*
X134388036Y-71200499D01*
X134388039Y-71200500D01*
X134388041Y-71200500D01*
X134531959Y-71200500D01*
X134531961Y-71200500D01*
X134670053Y-71159953D01*
X134791128Y-71082143D01*
X134885377Y-70973373D01*
X134945165Y-70842457D01*
X134965647Y-70700000D01*
X134965575Y-70699500D01*
X134945165Y-70557543D01*
X134885377Y-70426627D01*
X134791128Y-70317857D01*
X134791127Y-70317856D01*
X134786491Y-70312506D01*
X134788524Y-70310743D01*
X134763067Y-70268505D01*
X134760500Y-70246105D01*
X134760500Y-68993003D01*
X137656463Y-68993003D01*
X137674218Y-69174737D01*
X137674219Y-69174742D01*
X137724579Y-69350263D01*
X137805881Y-69513768D01*
X137915438Y-69659855D01*
X137915441Y-69659857D01*
X137915443Y-69659860D01*
X137952189Y-69693771D01*
X138049595Y-69783664D01*
X138049627Y-69783693D01*
X138049629Y-69783695D01*
X138204015Y-69881194D01*
X138204016Y-69881194D01*
X138204022Y-69881198D01*
X138373514Y-69949142D01*
X138373517Y-69949142D01*
X138373518Y-69949143D01*
X138408283Y-69956162D01*
X138552505Y-69985281D01*
X138714794Y-69988073D01*
X138735080Y-69988422D01*
X138735080Y-69988421D01*
X138735081Y-69988422D01*
X138915210Y-69958460D01*
X139086938Y-69896386D01*
X139102741Y-69887176D01*
X139103849Y-69886624D01*
X139108864Y-69883693D01*
X139108870Y-69883692D01*
X139142537Y-69864021D01*
X139192485Y-69850502D01*
X139231392Y-69850507D01*
X139231394Y-69850506D01*
X139237842Y-69850507D01*
X139237963Y-69850500D01*
X140727507Y-69850500D01*
X140777462Y-69864028D01*
X140815686Y-69886368D01*
X140817525Y-69887285D01*
X140833077Y-69896348D01*
X140930142Y-69931434D01*
X141004787Y-69958416D01*
X141004790Y-69958416D01*
X141004799Y-69958420D01*
X141184920Y-69988381D01*
X141367488Y-69985240D01*
X141546472Y-69949103D01*
X141715958Y-69881163D01*
X141870344Y-69783664D01*
X141943360Y-69716281D01*
X141998946Y-69690711D01*
X142058946Y-69702697D01*
X142100441Y-69747661D01*
X142107583Y-69808428D01*
X142100554Y-69830160D01*
X142065214Y-69907541D01*
X142065214Y-69907543D01*
X142044733Y-70049997D01*
X142044733Y-70050002D01*
X142065214Y-70192456D01*
X142125003Y-70323373D01*
X142219254Y-70432146D01*
X142224607Y-70436784D01*
X142222525Y-70439186D01*
X142252747Y-70476130D01*
X142259500Y-70512067D01*
X142259500Y-73546105D01*
X142240593Y-73604296D01*
X142233258Y-73612289D01*
X142233509Y-73612506D01*
X142228872Y-73617856D01*
X142228872Y-73617857D01*
X142160915Y-73696283D01*
X142134622Y-73726628D01*
X142074834Y-73857543D01*
X142057521Y-73977959D01*
X142030525Y-74032867D01*
X141976411Y-74061420D01*
X141915848Y-74052712D01*
X141892388Y-74036623D01*
X141870374Y-74016307D01*
X141870371Y-74016305D01*
X141870370Y-74016304D01*
X141715977Y-73918802D01*
X141546485Y-73850858D01*
X141546484Y-73850857D01*
X141546480Y-73850856D01*
X141367494Y-73814719D01*
X141367485Y-73814718D01*
X141184918Y-73811577D01*
X141004795Y-73841539D01*
X141004792Y-73841539D01*
X141004790Y-73841540D01*
X141004788Y-73841540D01*
X141004778Y-73841543D01*
X140833062Y-73903613D01*
X140817166Y-73912875D01*
X140816035Y-73913441D01*
X140777459Y-73935978D01*
X140727513Y-73949496D01*
X140688608Y-73949494D01*
X140688606Y-73949494D01*
X140682148Y-73949494D01*
X140682042Y-73949501D01*
X139238038Y-73949501D01*
X139237933Y-73949494D01*
X139192485Y-73949497D01*
X139142538Y-73935978D01*
X139104159Y-73913556D01*
X139102496Y-73912727D01*
X139092464Y-73906881D01*
X139086921Y-73903650D01*
X139086918Y-73903649D01*
X138915211Y-73841583D01*
X138915196Y-73841579D01*
X138735075Y-73811618D01*
X138552519Y-73814759D01*
X138552510Y-73814760D01*
X138373529Y-73850896D01*
X138204041Y-73918838D01*
X138049650Y-74016339D01*
X137915473Y-74140166D01*
X137915470Y-74140169D01*
X137805920Y-74286246D01*
X137724618Y-74449749D01*
X137724615Y-74449756D01*
X137674261Y-74625253D01*
X137674259Y-74625262D01*
X137674259Y-74625264D01*
X137657280Y-74799057D01*
X137656504Y-74806995D01*
X137671939Y-74988935D01*
X137714453Y-75144567D01*
X137720056Y-75165078D01*
X137727204Y-75179973D01*
X137728007Y-75181646D01*
X137728648Y-75183237D01*
X137749681Y-75226892D01*
X137759493Y-75269892D01*
X137759478Y-75319213D01*
X137759501Y-75319562D01*
X137759501Y-76580488D01*
X137759492Y-76580626D01*
X137759497Y-76630104D01*
X137749757Y-76672935D01*
X137746857Y-76678980D01*
X137746792Y-76679116D01*
X137728458Y-76717183D01*
X137728119Y-76718024D01*
X137720022Y-76734897D01*
X137720019Y-76734904D01*
X137720019Y-76734906D01*
X137671900Y-76911055D01*
X137659869Y-77052861D01*
X137656463Y-77093003D01*
X137674218Y-77274737D01*
X137674219Y-77274742D01*
X137724579Y-77450263D01*
X137805881Y-77613768D01*
X137915438Y-77759855D01*
X137915441Y-77759857D01*
X137915443Y-77759860D01*
X137970247Y-77810436D01*
X138049595Y-77883664D01*
X138049627Y-77883693D01*
X138049629Y-77883695D01*
X138204015Y-77981194D01*
X138204016Y-77981194D01*
X138204022Y-77981198D01*
X138373514Y-78049142D01*
X138373517Y-78049142D01*
X138373518Y-78049143D01*
X138408283Y-78056162D01*
X138552505Y-78085281D01*
X138714794Y-78088073D01*
X138735080Y-78088422D01*
X138735080Y-78088421D01*
X138735081Y-78088422D01*
X138915210Y-78058460D01*
X139086938Y-77996386D01*
X139102741Y-77987176D01*
X139103849Y-77986624D01*
X139108864Y-77983693D01*
X139108870Y-77983692D01*
X139142537Y-77964021D01*
X139192485Y-77950502D01*
X139231392Y-77950507D01*
X139231394Y-77950506D01*
X139237842Y-77950507D01*
X139237963Y-77950500D01*
X140727507Y-77950500D01*
X140777462Y-77964028D01*
X140815686Y-77986368D01*
X140817527Y-77987286D01*
X140833077Y-77996348D01*
X140916838Y-78026625D01*
X141004787Y-78058416D01*
X141004790Y-78058416D01*
X141004799Y-78058420D01*
X141184920Y-78088381D01*
X141367488Y-78085240D01*
X141546472Y-78049103D01*
X141715958Y-77981163D01*
X141870344Y-77883664D01*
X142004531Y-77759829D01*
X142114083Y-77613748D01*
X142195382Y-77450250D01*
X142245741Y-77274736D01*
X142263496Y-77093006D01*
X142248060Y-76911064D01*
X142199944Y-76734922D01*
X142192025Y-76718422D01*
X142191494Y-76717100D01*
X142170300Y-76673083D01*
X142160499Y-76630134D01*
X142160499Y-75269889D01*
X142170245Y-75227055D01*
X142173913Y-75219412D01*
X142173969Y-75219297D01*
X142186030Y-75194247D01*
X142189019Y-75188040D01*
X142189019Y-75188039D01*
X142191626Y-75182625D01*
X142191923Y-75181884D01*
X142199982Y-75165093D01*
X142248100Y-74988944D01*
X142263537Y-74806994D01*
X142245781Y-74625257D01*
X142234042Y-74584343D01*
X142236166Y-74523198D01*
X142273827Y-74474976D01*
X142332639Y-74458101D01*
X142357091Y-74462050D01*
X142426297Y-74482371D01*
X142488035Y-74500499D01*
X142488036Y-74500499D01*
X142488039Y-74500500D01*
X142488041Y-74500500D01*
X142631959Y-74500500D01*
X142631961Y-74500500D01*
X142770053Y-74459953D01*
X142891128Y-74382143D01*
X142985377Y-74273373D01*
X143045165Y-74142457D01*
X143055184Y-74072775D01*
X143065647Y-74000002D01*
X143065647Y-73999997D01*
X143045165Y-73857543D01*
X143033833Y-73832729D01*
X142985377Y-73726627D01*
X142891128Y-73617857D01*
X142891127Y-73617856D01*
X142886491Y-73612506D01*
X142888524Y-73610743D01*
X142863067Y-73568505D01*
X142860500Y-73546105D01*
X142860500Y-70493312D01*
X142879407Y-70435121D01*
X142884681Y-70428481D01*
X142886287Y-70426628D01*
X142975757Y-70323373D01*
X143035545Y-70192457D01*
X143047217Y-70111276D01*
X143056027Y-70050002D01*
X143056027Y-70049997D01*
X143035545Y-69907543D01*
X143026245Y-69887179D01*
X142975757Y-69776627D01*
X142881508Y-69667857D01*
X142881507Y-69667856D01*
X142881506Y-69667855D01*
X142760437Y-69590049D01*
X142760434Y-69590047D01*
X142760433Y-69590047D01*
X142751408Y-69587397D01*
X142622344Y-69549500D01*
X142622341Y-69549500D01*
X142478419Y-69549500D01*
X142478415Y-69549500D01*
X142340329Y-69590046D01*
X142340322Y-69590049D01*
X142254017Y-69645514D01*
X142194842Y-69661069D01*
X142137825Y-69638870D01*
X142104746Y-69587397D01*
X142108240Y-69526312D01*
X142112409Y-69517950D01*
X142112075Y-69517784D01*
X142114079Y-69513752D01*
X142114083Y-69513748D01*
X142195382Y-69350250D01*
X142245741Y-69174736D01*
X142263496Y-68993006D01*
X142248060Y-68811064D01*
X142199944Y-68634922D01*
X142192025Y-68618422D01*
X142191494Y-68617100D01*
X142170300Y-68573083D01*
X142160499Y-68530134D01*
X142160499Y-67169889D01*
X142170245Y-67127055D01*
X142173913Y-67119412D01*
X142173969Y-67119297D01*
X142188043Y-67090066D01*
X142189019Y-67088040D01*
X142189019Y-67088039D01*
X142191626Y-67082625D01*
X142191923Y-67081884D01*
X142199982Y-67065093D01*
X142248100Y-66888944D01*
X142263537Y-66706994D01*
X142245781Y-66525257D01*
X142231513Y-66475528D01*
X142195422Y-66349742D01*
X142195421Y-66349740D01*
X142195420Y-66349736D01*
X142114118Y-66186231D01*
X142004562Y-66040145D01*
X142004558Y-66040141D01*
X142004556Y-66040139D01*
X141870374Y-65916307D01*
X141870371Y-65916305D01*
X141870370Y-65916304D01*
X141715977Y-65818802D01*
X141546485Y-65750858D01*
X141546484Y-65750857D01*
X141546480Y-65750856D01*
X141367494Y-65714719D01*
X141367485Y-65714718D01*
X141184918Y-65711577D01*
X141004795Y-65741539D01*
X141004792Y-65741539D01*
X141004790Y-65741540D01*
X141004788Y-65741540D01*
X141004778Y-65741543D01*
X140833062Y-65803613D01*
X140817166Y-65812875D01*
X140816035Y-65813441D01*
X140777459Y-65835978D01*
X140727513Y-65849496D01*
X140688608Y-65849494D01*
X140688606Y-65849494D01*
X140682148Y-65849494D01*
X140682042Y-65849501D01*
X139238038Y-65849501D01*
X139237933Y-65849494D01*
X139192485Y-65849497D01*
X139142538Y-65835978D01*
X139104159Y-65813556D01*
X139102496Y-65812727D01*
X139092464Y-65806881D01*
X139086921Y-65803650D01*
X139086918Y-65803649D01*
X138915211Y-65741583D01*
X138915196Y-65741579D01*
X138735075Y-65711618D01*
X138552519Y-65714759D01*
X138552510Y-65714760D01*
X138373529Y-65750896D01*
X138204041Y-65818838D01*
X138049650Y-65916339D01*
X137915473Y-66040166D01*
X137915470Y-66040169D01*
X137805920Y-66186246D01*
X137724618Y-66349749D01*
X137724615Y-66349756D01*
X137674261Y-66525253D01*
X137674259Y-66525262D01*
X137656504Y-66706995D01*
X137671939Y-66888935D01*
X137713985Y-67042855D01*
X137720056Y-67065078D01*
X137727204Y-67079973D01*
X137728007Y-67081646D01*
X137728648Y-67083237D01*
X137749681Y-67126892D01*
X137759493Y-67169892D01*
X137759478Y-67219213D01*
X137759501Y-67219562D01*
X137759501Y-68480488D01*
X137759492Y-68480626D01*
X137759497Y-68530104D01*
X137749757Y-68572935D01*
X137746857Y-68578980D01*
X137746853Y-68578989D01*
X137743779Y-68585371D01*
X137728458Y-68617183D01*
X137728119Y-68618024D01*
X137720022Y-68634897D01*
X137720019Y-68634904D01*
X137720019Y-68634906D01*
X137710340Y-68670337D01*
X137674784Y-68800499D01*
X137671900Y-68811055D01*
X137659869Y-68952861D01*
X137656463Y-68993003D01*
X134760500Y-68993003D01*
X134760500Y-67065816D01*
X134779407Y-67007625D01*
X134805977Y-66982532D01*
X134830512Y-66966764D01*
X134830511Y-66966764D01*
X134830514Y-66966763D01*
X134924763Y-66857993D01*
X134984551Y-66727077D01*
X135005033Y-66584620D01*
X135000289Y-66551627D01*
X134984551Y-66442163D01*
X134973268Y-66417457D01*
X134924763Y-66311247D01*
X134830514Y-66202477D01*
X134830513Y-66202476D01*
X134830512Y-66202475D01*
X134709443Y-66124669D01*
X134709440Y-66124667D01*
X134709439Y-66124667D01*
X134709436Y-66124666D01*
X134571350Y-66084120D01*
X134571347Y-66084120D01*
X134427425Y-66084120D01*
X134427421Y-66084120D01*
X134289335Y-66124666D01*
X134289328Y-66124669D01*
X134168259Y-66202475D01*
X134074008Y-66311248D01*
X134014220Y-66442163D01*
X133993739Y-66584617D01*
X133993739Y-66584622D01*
X134014220Y-66727076D01*
X134070587Y-66850501D01*
X134074009Y-66857993D01*
X134135320Y-66928750D01*
X134159137Y-66985107D01*
X134159500Y-66993579D01*
X134159500Y-68334062D01*
X134140593Y-68392253D01*
X134091093Y-68428217D01*
X134032609Y-68429052D01*
X133931964Y-68399500D01*
X133931961Y-68399500D01*
X133788039Y-68399500D01*
X133788037Y-68399500D01*
X133788032Y-68399501D01*
X133780155Y-68401814D01*
X133718995Y-68400064D01*
X133670544Y-68362699D01*
X133654276Y-68320911D01*
X133645945Y-68262969D01*
X133645165Y-68257543D01*
X133585377Y-68126627D01*
X133491128Y-68017857D01*
X133491127Y-68017856D01*
X133491126Y-68017855D01*
X133370057Y-67940049D01*
X133370054Y-67940047D01*
X133370053Y-67940047D01*
X133370050Y-67940046D01*
X133231964Y-67899500D01*
X133231961Y-67899500D01*
X133088039Y-67899500D01*
X133088035Y-67899500D01*
X132949949Y-67940046D01*
X132949942Y-67940049D01*
X132828873Y-68017855D01*
X132734622Y-68126628D01*
X132674834Y-68257543D01*
X132654353Y-68399997D01*
X132654353Y-68400003D01*
X132657441Y-68421482D01*
X132647007Y-68481771D01*
X132629453Y-68505574D01*
X132439631Y-68695396D01*
X132385114Y-68723173D01*
X132324682Y-68713602D01*
X132281417Y-68670337D01*
X132271846Y-68609905D01*
X132283186Y-68580155D01*
X132282436Y-68579813D01*
X132305124Y-68530134D01*
X132345165Y-68442457D01*
X132360750Y-68334062D01*
X132365647Y-68300002D01*
X132365647Y-68299997D01*
X132345165Y-68157543D01*
X132323792Y-68110743D01*
X132285377Y-68026627D01*
X132191128Y-67917857D01*
X132191127Y-67917856D01*
X132191126Y-67917855D01*
X132070057Y-67840049D01*
X132070054Y-67840047D01*
X132070053Y-67840047D01*
X132070050Y-67840046D01*
X131931964Y-67799500D01*
X131931961Y-67799500D01*
X131788039Y-67799500D01*
X131788035Y-67799500D01*
X131649949Y-67840046D01*
X131649942Y-67840049D01*
X131528873Y-67917855D01*
X131434622Y-68026628D01*
X131374834Y-68157543D01*
X131354353Y-68299997D01*
X131354353Y-68300003D01*
X131357441Y-68321482D01*
X131347007Y-68381771D01*
X131329453Y-68405574D01*
X130318890Y-69416138D01*
X130264373Y-69443915D01*
X130203941Y-69434344D01*
X130160676Y-69391079D01*
X130149886Y-69346134D01*
X130149886Y-67878893D01*
X130168793Y-67820702D01*
X130176127Y-67812711D01*
X130175877Y-67812494D01*
X130180514Y-67807143D01*
X130274763Y-67698373D01*
X130334551Y-67567457D01*
X130341378Y-67519971D01*
X130355033Y-67425002D01*
X130355033Y-67424997D01*
X130334551Y-67282543D01*
X130329994Y-67272564D01*
X130274763Y-67151627D01*
X130180514Y-67042857D01*
X130180513Y-67042856D01*
X130180512Y-67042855D01*
X130059443Y-66965049D01*
X130059440Y-66965047D01*
X130059439Y-66965047D01*
X130059436Y-66965046D01*
X129921350Y-66924500D01*
X129921347Y-66924500D01*
X129777425Y-66924500D01*
X129777421Y-66924500D01*
X129639335Y-66965046D01*
X129639329Y-66965048D01*
X129596449Y-66992606D01*
X129537274Y-67008159D01*
X129480258Y-66985960D01*
X129447179Y-66934487D01*
X129444935Y-66895231D01*
X129445839Y-66888949D01*
X129455033Y-66825000D01*
X129454647Y-66822316D01*
X129434551Y-66682543D01*
X129406857Y-66621902D01*
X129374763Y-66551627D01*
X129280514Y-66442857D01*
X129280513Y-66442856D01*
X129280512Y-66442855D01*
X129159443Y-66365049D01*
X129159440Y-66365047D01*
X129159439Y-66365047D01*
X129159436Y-66365046D01*
X129021350Y-66324500D01*
X129021347Y-66324500D01*
X128877425Y-66324500D01*
X128877423Y-66324500D01*
X128877419Y-66324501D01*
X128867737Y-66327344D01*
X128806577Y-66325596D01*
X128758124Y-66288233D01*
X128741855Y-66246442D01*
X128725479Y-66132544D01*
X128721882Y-66124666D01*
X128665691Y-66001627D01*
X128571442Y-65892857D01*
X128571441Y-65892856D01*
X128571440Y-65892855D01*
X128450371Y-65815049D01*
X128450368Y-65815047D01*
X128450367Y-65815047D01*
X128450364Y-65815046D01*
X128312278Y-65774500D01*
X128312275Y-65774500D01*
X128168353Y-65774500D01*
X128168349Y-65774500D01*
X128030263Y-65815046D01*
X128030256Y-65815049D01*
X127909187Y-65892855D01*
X127814936Y-66001628D01*
X127755148Y-66132543D01*
X127734667Y-66274997D01*
X127734667Y-66275002D01*
X127755148Y-66417456D01*
X127814937Y-66548373D01*
X127913823Y-66662494D01*
X127911785Y-66664259D01*
X127937239Y-66706458D01*
X127939814Y-66728893D01*
X127939814Y-72292501D01*
X127920907Y-72350692D01*
X127894337Y-72375785D01*
X127828873Y-72417855D01*
X127734622Y-72526628D01*
X127674834Y-72657543D01*
X127654353Y-72799997D01*
X125060500Y-72799997D01*
X125060500Y-72460439D01*
X125060499Y-72460435D01*
X125054934Y-72439665D01*
X125040022Y-72384012D01*
X125035355Y-72375928D01*
X125000463Y-72315493D01*
X125000462Y-72315492D01*
X125000461Y-72315491D01*
X125000460Y-72315489D01*
X123990546Y-71305575D01*
X123962769Y-71251058D01*
X123962558Y-71221482D01*
X123965647Y-71200000D01*
X123962902Y-71180911D01*
X123945165Y-71057543D01*
X123930109Y-71024575D01*
X123885377Y-70926627D01*
X123791128Y-70817857D01*
X123791127Y-70817856D01*
X123791126Y-70817855D01*
X123670057Y-70740049D01*
X123670054Y-70740047D01*
X123670053Y-70740047D01*
X123670050Y-70740046D01*
X123531964Y-70699500D01*
X123531961Y-70699500D01*
X123388039Y-70699500D01*
X123388035Y-70699500D01*
X123249949Y-70740046D01*
X123249942Y-70740049D01*
X123128873Y-70817855D01*
X123034622Y-70926628D01*
X122974834Y-71057543D01*
X122954353Y-71199997D01*
X122954353Y-71200002D01*
X122974833Y-71342454D01*
X122994717Y-71385993D01*
X123000916Y-71440026D01*
X123029906Y-71468091D01*
X123029987Y-71468022D01*
X123030778Y-71468934D01*
X123033406Y-71471479D01*
X123034621Y-71473370D01*
X123034622Y-71473371D01*
X123034623Y-71473373D01*
X123128872Y-71582143D01*
X123128873Y-71582144D01*
X123246362Y-71657649D01*
X123249947Y-71659953D01*
X123356403Y-71691211D01*
X123388035Y-71700499D01*
X123388036Y-71700499D01*
X123388039Y-71700500D01*
X123388041Y-71700500D01*
X123494521Y-71700500D01*
X123552712Y-71719407D01*
X123564525Y-71729496D01*
X124430504Y-72595475D01*
X124458281Y-72649992D01*
X124459500Y-72665479D01*
X124459500Y-73880492D01*
X124440593Y-73938683D01*
X124391093Y-73974647D01*
X124329907Y-73974647D01*
X124306977Y-73963776D01*
X124270057Y-73940049D01*
X124270054Y-73940047D01*
X124270053Y-73940047D01*
X124265408Y-73938683D01*
X124131964Y-73899500D01*
X124131961Y-73899500D01*
X124027493Y-73899500D01*
X123969302Y-73880593D01*
X123933338Y-73831093D01*
X123933338Y-73769907D01*
X123937440Y-73759373D01*
X123945165Y-73742456D01*
X123947708Y-73724773D01*
X123957877Y-73654043D01*
X123965647Y-73600002D01*
X123965647Y-73599997D01*
X123945165Y-73457543D01*
X123913878Y-73389035D01*
X123885377Y-73326627D01*
X123791128Y-73217857D01*
X123791127Y-73217856D01*
X123791126Y-73217855D01*
X123670057Y-73140049D01*
X123670054Y-73140047D01*
X123670053Y-73140047D01*
X123670050Y-73140046D01*
X123531964Y-73099500D01*
X123531961Y-73099500D01*
X123403112Y-73099500D01*
X123344921Y-73080593D01*
X123308957Y-73031093D01*
X123305120Y-72986411D01*
X123311760Y-72940227D01*
X123311760Y-72940221D01*
X123291278Y-72797767D01*
X123231490Y-72666851D01*
X123137241Y-72558081D01*
X123137240Y-72558080D01*
X123137239Y-72558079D01*
X123016170Y-72480273D01*
X123016167Y-72480272D01*
X123016166Y-72480271D01*
X122941879Y-72458458D01*
X122891374Y-72423923D01*
X122870812Y-72366296D01*
X122875932Y-72331923D01*
X122920635Y-72198956D01*
X122946531Y-72018213D01*
X122939284Y-71835768D01*
X122899132Y-71657649D01*
X122859080Y-71563893D01*
X122854406Y-71511857D01*
X122822166Y-71481848D01*
X122815287Y-71471479D01*
X122726464Y-71337589D01*
X122599652Y-71206221D01*
X122451157Y-71099977D01*
X122285883Y-71022368D01*
X122109292Y-70975956D01*
X122091008Y-70974559D01*
X122089613Y-70974361D01*
X122040875Y-70970700D01*
X121998783Y-70957710D01*
X121955892Y-70932941D01*
X121955787Y-70932890D01*
X121953909Y-70931806D01*
X121459079Y-70646115D01*
X120863774Y-70302415D01*
X120863747Y-70302397D01*
X120820757Y-70277578D01*
X120815403Y-70272616D01*
X120811709Y-70271416D01*
X120790215Y-70249271D01*
X120788519Y-70247699D01*
X120788165Y-70247181D01*
X120788178Y-70247172D01*
X120788109Y-70247101D01*
X120760815Y-70207077D01*
X120760219Y-70206319D01*
X120749734Y-70190986D01*
X120621243Y-70061252D01*
X120471390Y-69956920D01*
X120305128Y-69881437D01*
X120305126Y-69881436D01*
X120305125Y-69881436D01*
X120260212Y-69870247D01*
X120127949Y-69837296D01*
X120127945Y-69837295D01*
X120127947Y-69837295D01*
X119945705Y-69825955D01*
X119945697Y-69825956D01*
X119764423Y-69847792D01*
X119590084Y-69902082D01*
X119428459Y-69987030D01*
X119428452Y-69987035D01*
X119284874Y-70099836D01*
X119284872Y-70099837D01*
X119284872Y-70099838D01*
X119164081Y-70236770D01*
X119164079Y-70236772D01*
X119164079Y-70236773D01*
X119070070Y-70393305D01*
X119005949Y-70564268D01*
X118973832Y-70744022D01*
X118973905Y-70762421D01*
X118973824Y-70763771D01*
X118973853Y-70769410D01*
X118973853Y-70769411D01*
X118973981Y-70794016D01*
X118974055Y-70808382D01*
X118960791Y-70858396D01*
X118939187Y-70895811D01*
X118939148Y-70895884D01*
X118193279Y-72187771D01*
X118156597Y-72224263D01*
X118118105Y-72246220D01*
X118116499Y-72247281D01*
X118100788Y-72256269D01*
X118100787Y-72256270D01*
X117961172Y-72373950D01*
X117961169Y-72373953D01*
X117961166Y-72373956D01*
X117845167Y-72514957D01*
X117756603Y-72674638D01*
X117756599Y-72674647D01*
X117698411Y-72847703D01*
X117698409Y-72847710D01*
X117698409Y-72847711D01*
X117672505Y-73028458D01*
X117672505Y-73028461D01*
X117672505Y-73028462D01*
X117679748Y-73210904D01*
X117679749Y-73210911D01*
X117709748Y-73343998D01*
X117719900Y-73389035D01*
X117791630Y-73556944D01*
X117791635Y-73556955D01*
X117892575Y-73709104D01*
X118019391Y-73840470D01*
X118019394Y-73840472D01*
X118019395Y-73840473D01*
X118167899Y-73946715D01*
X118167900Y-73946715D01*
X118167901Y-73946716D01*
X118173833Y-73949501D01*
X118333182Y-74024319D01*
X118509782Y-74070721D01*
X118528068Y-74072115D01*
X118529838Y-74072367D01*
X118535292Y-74072774D01*
X118535295Y-74072775D01*
X118578127Y-74075973D01*
X118620277Y-74088975D01*
X118657506Y-74110486D01*
X118657508Y-74110486D01*
X118663118Y-74113728D01*
X118663437Y-74113885D01*
X119755283Y-74744263D01*
X119755406Y-74744345D01*
X119798272Y-74769086D01*
X119830579Y-74799057D01*
X119857788Y-74838962D01*
X119859248Y-74840826D01*
X119869338Y-74855585D01*
X119869342Y-74855590D01*
X119963325Y-74950501D01*
X119997817Y-74985334D01*
X120147661Y-75089682D01*
X120313919Y-75165180D01*
X120491097Y-75209334D01*
X120673341Y-75220684D01*
X120854629Y-75198856D01*
X121028970Y-75144570D01*
X121190604Y-75059621D01*
X121334189Y-74946815D01*
X121454980Y-74809880D01*
X121518969Y-74703329D01*
X121548984Y-74653350D01*
X121548985Y-74653345D01*
X121548988Y-74653342D01*
X121613104Y-74482371D01*
X121645211Y-74302619D01*
X121645136Y-74284343D01*
X121645225Y-74282915D01*
X121645194Y-74277190D01*
X121645195Y-74277188D01*
X121644987Y-74238292D01*
X121658248Y-74188265D01*
X122215369Y-73223305D01*
X122260838Y-73182365D01*
X122321688Y-73175969D01*
X122374676Y-73206562D01*
X122376016Y-73208316D01*
X122376098Y-73208245D01*
X122385318Y-73218885D01*
X122409137Y-73275244D01*
X122409500Y-73283718D01*
X122409500Y-86284521D01*
X122390593Y-86342712D01*
X122380504Y-86354525D01*
X118964229Y-89770800D01*
X118909712Y-89798577D01*
X118894225Y-89799796D01*
X118570037Y-89799796D01*
X118511846Y-89780889D01*
X118475882Y-89731389D01*
X118475300Y-89729533D01*
X118474419Y-89726628D01*
X118465232Y-89696342D01*
X118367685Y-89513846D01*
X118359477Y-89503845D01*
X118236414Y-89353891D01*
X118236410Y-89353886D01*
X118205138Y-89328222D01*
X118076452Y-89222612D01*
X117893954Y-89125064D01*
X117695934Y-89064995D01*
X117695929Y-89064994D01*
X117490003Y-89044713D01*
X117489997Y-89044713D01*
X117284070Y-89064994D01*
X117284065Y-89064995D01*
X117086045Y-89125064D01*
X116903547Y-89222612D01*
X116743595Y-89353881D01*
X116743585Y-89353891D01*
X116612316Y-89513843D01*
X116514768Y-89696341D01*
X116454699Y-89894361D01*
X116454698Y-89894366D01*
X116434417Y-90100292D01*
X111828317Y-90100292D01*
X110394097Y-87616150D01*
X114856199Y-87616150D01*
X114856199Y-87616154D01*
X114875363Y-87672611D01*
X114875365Y-87672615D01*
X114875366Y-87672617D01*
X115742674Y-89174838D01*
X115745116Y-89179068D01*
X115784426Y-89223893D01*
X115784428Y-89223894D01*
X115784430Y-89223896D01*
X115855969Y-89259174D01*
X115935562Y-89264392D01*
X115992026Y-89245225D01*
X117498474Y-88375477D01*
X117543305Y-88336161D01*
X117578583Y-88264622D01*
X117583801Y-88185029D01*
X117564634Y-88128565D01*
X116694886Y-86622117D01*
X116694883Y-86622114D01*
X116694883Y-86622113D01*
X116655573Y-86577288D01*
X116655571Y-86577287D01*
X116655570Y-86577286D01*
X116584031Y-86542008D01*
X116557500Y-86540268D01*
X116504440Y-86536790D01*
X116504436Y-86536790D01*
X116447979Y-86555954D01*
X114941522Y-87425707D01*
X114896697Y-87465017D01*
X114896696Y-87465019D01*
X114861417Y-87536559D01*
X114861417Y-87536561D01*
X114856199Y-87616150D01*
X110394097Y-87616150D01*
X106025488Y-80049497D01*
X106012768Y-79989652D01*
X106025487Y-79950503D01*
X110558321Y-72099405D01*
X115164417Y-72099405D01*
X115164417Y-72099412D01*
X115184698Y-72305338D01*
X115184699Y-72305343D01*
X115244768Y-72503363D01*
X115342316Y-72685861D01*
X115451434Y-72818822D01*
X115473590Y-72845819D01*
X115478108Y-72849527D01*
X115633547Y-72977092D01*
X115633548Y-72977092D01*
X115633550Y-72977094D01*
X115816046Y-73074641D01*
X115918630Y-73105759D01*
X116014065Y-73134709D01*
X116014070Y-73134710D01*
X116219997Y-73154992D01*
X116220000Y-73154992D01*
X116220003Y-73154992D01*
X116425929Y-73134710D01*
X116425934Y-73134709D01*
X116434304Y-73132170D01*
X116623954Y-73074641D01*
X116806450Y-72977094D01*
X116966410Y-72845819D01*
X117097685Y-72685859D01*
X117195232Y-72503363D01*
X117255300Y-72305343D01*
X117255301Y-72305338D01*
X117275583Y-72099412D01*
X117275583Y-72099405D01*
X117255301Y-71893479D01*
X117255300Y-71893474D01*
X117225844Y-71796372D01*
X117195232Y-71695455D01*
X117097685Y-71512959D01*
X117065195Y-71473370D01*
X116966414Y-71353004D01*
X116966410Y-71352999D01*
X116966404Y-71352994D01*
X116806452Y-71221725D01*
X116623954Y-71124177D01*
X116425934Y-71064108D01*
X116425929Y-71064107D01*
X116220003Y-71043826D01*
X116219997Y-71043826D01*
X116014070Y-71064107D01*
X116014065Y-71064108D01*
X115816045Y-71124177D01*
X115633547Y-71221725D01*
X115473595Y-71352994D01*
X115473585Y-71353004D01*
X115342316Y-71512956D01*
X115244768Y-71695454D01*
X115184699Y-71893474D01*
X115184698Y-71893479D01*
X115164417Y-72099405D01*
X110558321Y-72099405D01*
X111828321Y-69899701D01*
X116434417Y-69899701D01*
X116434417Y-69899708D01*
X116454698Y-70105634D01*
X116454699Y-70105639D01*
X116514768Y-70303659D01*
X116612316Y-70486157D01*
X116717446Y-70614258D01*
X116743590Y-70646115D01*
X116743595Y-70646119D01*
X116903547Y-70777388D01*
X116903548Y-70777388D01*
X116903550Y-70777390D01*
X117086046Y-70874937D01*
X117206659Y-70911524D01*
X117284065Y-70935005D01*
X117284070Y-70935006D01*
X117489997Y-70955288D01*
X117490000Y-70955288D01*
X117490003Y-70955288D01*
X117695929Y-70935006D01*
X117695934Y-70935005D01*
X117706480Y-70931806D01*
X117893954Y-70874937D01*
X118076450Y-70777390D01*
X118236410Y-70646115D01*
X118367685Y-70486155D01*
X118465232Y-70303659D01*
X118525300Y-70105639D01*
X118525301Y-70105634D01*
X118545583Y-69899708D01*
X118545583Y-69899701D01*
X118525301Y-69693775D01*
X118525300Y-69693770D01*
X118507078Y-69633702D01*
X118465232Y-69495751D01*
X118367685Y-69313255D01*
X118358833Y-69302469D01*
X118236414Y-69153300D01*
X118236410Y-69153295D01*
X118134310Y-69069504D01*
X118076452Y-69022021D01*
X117893954Y-68924473D01*
X117695934Y-68864404D01*
X117695929Y-68864403D01*
X117490003Y-68844122D01*
X117489997Y-68844122D01*
X117284070Y-68864403D01*
X117284065Y-68864404D01*
X117086045Y-68924473D01*
X116903547Y-69022021D01*
X116743595Y-69153290D01*
X116743585Y-69153300D01*
X116612316Y-69313252D01*
X116514768Y-69495750D01*
X116454699Y-69693770D01*
X116454698Y-69693775D01*
X116434417Y-69899701D01*
X111828321Y-69899701D01*
X113098321Y-67699996D01*
X117704417Y-67699996D01*
X117704417Y-67700003D01*
X117724698Y-67905929D01*
X117724699Y-67905934D01*
X117784768Y-68103954D01*
X117882316Y-68286452D01*
X117975505Y-68400003D01*
X118013590Y-68446410D01*
X118013595Y-68446414D01*
X118173547Y-68577683D01*
X118173548Y-68577683D01*
X118173550Y-68577685D01*
X118356046Y-68675232D01*
X118490007Y-68715868D01*
X118554065Y-68735300D01*
X118554070Y-68735301D01*
X118759997Y-68755583D01*
X118760000Y-68755583D01*
X118760003Y-68755583D01*
X118965929Y-68735301D01*
X118965934Y-68735300D01*
X119163954Y-68675232D01*
X119346450Y-68577685D01*
X119506410Y-68446410D01*
X119637685Y-68286450D01*
X119735232Y-68103954D01*
X119795300Y-67905934D01*
X119795301Y-67905929D01*
X119815583Y-67700003D01*
X119815583Y-67699996D01*
X119795301Y-67494070D01*
X119795300Y-67494065D01*
X119774348Y-67424997D01*
X119735232Y-67296046D01*
X119637685Y-67113550D01*
X119636828Y-67112506D01*
X119506414Y-66953595D01*
X119506410Y-66953590D01*
X119435299Y-66895231D01*
X119346452Y-66822316D01*
X119163958Y-66724770D01*
X119163957Y-66724769D01*
X119163954Y-66724768D01*
X119163948Y-66724766D01*
X119163945Y-66724765D01*
X119130759Y-66714697D01*
X119080563Y-66679711D01*
X119060519Y-66621902D01*
X119060500Y-66619961D01*
X119060500Y-66251556D01*
X119079407Y-66193365D01*
X119128907Y-66157401D01*
X119190093Y-66157401D01*
X119236027Y-66188750D01*
X119283590Y-66246706D01*
X119283595Y-66246710D01*
X119443547Y-66377979D01*
X119443548Y-66377979D01*
X119443550Y-66377981D01*
X119626046Y-66475528D01*
X119746659Y-66512115D01*
X119824065Y-66535596D01*
X119824070Y-66535597D01*
X120029997Y-66555879D01*
X120030000Y-66555879D01*
X120030003Y-66555879D01*
X120235929Y-66535597D01*
X120235934Y-66535596D01*
X120269994Y-66525264D01*
X120433954Y-66475528D01*
X120616450Y-66377981D01*
X120776410Y-66246706D01*
X120907685Y-66086746D01*
X121005232Y-65904250D01*
X121065300Y-65706230D01*
X121065301Y-65706225D01*
X121085583Y-65500299D01*
X121085583Y-65500292D01*
X121065301Y-65294366D01*
X121065300Y-65294361D01*
X121037232Y-65201834D01*
X121005232Y-65096342D01*
X120907685Y-64913846D01*
X120888411Y-64890361D01*
X120776414Y-64753891D01*
X120776410Y-64753886D01*
X120714350Y-64702955D01*
X120616452Y-64622612D01*
X120433954Y-64525064D01*
X120235934Y-64464995D01*
X120235929Y-64464994D01*
X120049796Y-64446662D01*
X119993739Y-64422142D01*
X119962800Y-64369355D01*
X119960500Y-64348139D01*
X119960500Y-63911139D01*
X119979407Y-63852948D01*
X120028907Y-63816984D01*
X120090093Y-63816984D01*
X120109000Y-63825402D01*
X120688395Y-64159916D01*
X121071501Y-63496357D01*
X121115795Y-63540651D01*
X121184204Y-63580147D01*
X121244708Y-63596358D01*
X120861602Y-64259917D01*
X121528184Y-64644768D01*
X121584503Y-64663885D01*
X121584508Y-64663886D01*
X121663901Y-64658682D01*
X121735257Y-64623493D01*
X121735260Y-64623491D01*
X121774475Y-64578775D01*
X122159325Y-63912194D01*
X121495767Y-63529088D01*
X121540060Y-63484796D01*
X121579556Y-63416387D01*
X121595768Y-63355881D01*
X122259326Y-63738987D01*
X122644177Y-63072406D01*
X122663294Y-63016087D01*
X122663295Y-63016082D01*
X122658091Y-62936689D01*
X122622902Y-62865333D01*
X122622900Y-62865330D01*
X122578184Y-62826115D01*
X122281836Y-62655018D01*
X123360125Y-62655018D01*
X123360125Y-62655023D01*
X123380606Y-62797477D01*
X123415168Y-62873155D01*
X123440395Y-62928394D01*
X123520668Y-63021035D01*
X123539281Y-63042515D01*
X123537243Y-63044280D01*
X123562697Y-63086479D01*
X123565272Y-63108914D01*
X123565272Y-67346105D01*
X123546365Y-67404296D01*
X123539030Y-67412289D01*
X123539281Y-67412506D01*
X123534644Y-67417856D01*
X123534644Y-67417857D01*
X123528455Y-67425000D01*
X123440394Y-67526628D01*
X123380606Y-67657543D01*
X123360125Y-67799997D01*
X123360125Y-67800002D01*
X123380606Y-67942456D01*
X123419047Y-68026628D01*
X123440395Y-68073373D01*
X123513328Y-68157543D01*
X123534645Y-68182144D01*
X123655714Y-68259950D01*
X123655719Y-68259953D01*
X123762175Y-68291211D01*
X123793807Y-68300499D01*
X123793808Y-68300499D01*
X123793811Y-68300500D01*
X123793813Y-68300500D01*
X123937731Y-68300500D01*
X123937733Y-68300500D01*
X124075825Y-68259953D01*
X124196900Y-68182143D01*
X124291149Y-68073373D01*
X124350937Y-67942457D01*
X124359565Y-67882448D01*
X124371419Y-67800002D01*
X124371419Y-67799997D01*
X124350937Y-67657543D01*
X124344047Y-67642456D01*
X124291149Y-67526627D01*
X124196900Y-67417857D01*
X124196899Y-67417856D01*
X124192263Y-67412506D01*
X124194296Y-67410743D01*
X124168839Y-67368505D01*
X124166272Y-67346105D01*
X124166272Y-63108914D01*
X124185179Y-63050723D01*
X124192513Y-63042732D01*
X124192263Y-63042515D01*
X124206030Y-63026627D01*
X124291149Y-62928394D01*
X124350937Y-62797478D01*
X124364952Y-62700000D01*
X124371419Y-62655023D01*
X124371419Y-62655018D01*
X124350937Y-62512564D01*
X124299268Y-62399426D01*
X124291149Y-62381648D01*
X124196900Y-62272878D01*
X124196899Y-62272877D01*
X124196898Y-62272876D01*
X124075829Y-62195070D01*
X124075826Y-62195068D01*
X124075825Y-62195068D01*
X124075822Y-62195067D01*
X123937736Y-62154521D01*
X123937733Y-62154521D01*
X123793811Y-62154521D01*
X123793807Y-62154521D01*
X123655721Y-62195067D01*
X123655714Y-62195070D01*
X123534645Y-62272876D01*
X123440394Y-62381649D01*
X123380606Y-62512564D01*
X123360125Y-62655018D01*
X122281836Y-62655018D01*
X121911603Y-62441264D01*
X121528496Y-63104822D01*
X121484205Y-63060531D01*
X121415796Y-63021035D01*
X121355289Y-63004822D01*
X121738396Y-62341263D01*
X121071815Y-61956413D01*
X121015496Y-61937296D01*
X121015491Y-61937295D01*
X120936098Y-61942499D01*
X120864742Y-61977688D01*
X120864739Y-61977690D01*
X120825523Y-62022407D01*
X120825519Y-62022413D01*
X120440673Y-62688985D01*
X120440673Y-62688986D01*
X121104232Y-63072093D01*
X121059940Y-63116386D01*
X121020444Y-63184795D01*
X121004232Y-63245300D01*
X120340672Y-62862193D01*
X120340671Y-62862193D01*
X120145236Y-63200697D01*
X120099767Y-63241638D01*
X120038917Y-63248034D01*
X119985929Y-63217441D01*
X119961042Y-63161545D01*
X119960500Y-63151197D01*
X119960500Y-61653893D01*
X119979407Y-61595702D01*
X119986741Y-61587711D01*
X119986491Y-61587494D01*
X119991128Y-61582143D01*
X120085377Y-61473373D01*
X120145165Y-61342457D01*
X120165647Y-61200000D01*
X120145165Y-61057543D01*
X120085377Y-60926627D01*
X119991128Y-60817857D01*
X119991127Y-60817856D01*
X119991126Y-60817855D01*
X119870057Y-60740049D01*
X119870054Y-60740047D01*
X119870053Y-60740047D01*
X119870050Y-60740046D01*
X119731964Y-60699500D01*
X119731961Y-60699500D01*
X119588039Y-60699500D01*
X119588035Y-60699500D01*
X119449949Y-60740046D01*
X119449942Y-60740049D01*
X119328873Y-60817855D01*
X119234622Y-60926628D01*
X119174834Y-61057543D01*
X119154353Y-61199997D01*
X119154353Y-61200003D01*
X119164450Y-61270232D01*
X119154017Y-61330522D01*
X119110138Y-61373164D01*
X119049576Y-61381871D01*
X119012935Y-61367605D01*
X118970057Y-61340049D01*
X118970054Y-61340047D01*
X118970053Y-61340047D01*
X118970050Y-61340046D01*
X118831964Y-61299500D01*
X118831961Y-61299500D01*
X118688039Y-61299500D01*
X118688035Y-61299500D01*
X118549949Y-61340046D01*
X118549942Y-61340049D01*
X118428873Y-61417855D01*
X118334622Y-61526628D01*
X118274834Y-61657543D01*
X118254353Y-61799997D01*
X118254353Y-61800002D01*
X118274834Y-61942456D01*
X118334623Y-62073373D01*
X118433509Y-62187494D01*
X118431471Y-62189259D01*
X118456925Y-62231458D01*
X118459500Y-62253893D01*
X118459500Y-66619961D01*
X118440593Y-66678152D01*
X118391093Y-66714116D01*
X118389241Y-66714697D01*
X118356054Y-66724765D01*
X118356041Y-66724770D01*
X118173547Y-66822316D01*
X118013595Y-66953585D01*
X118013585Y-66953595D01*
X117882316Y-67113547D01*
X117784768Y-67296045D01*
X117724699Y-67494065D01*
X117724698Y-67494070D01*
X117704417Y-67699996D01*
X113098321Y-67699996D01*
X122451395Y-51499997D01*
X124054353Y-51499997D01*
X124054353Y-51500002D01*
X124074834Y-51642456D01*
X124134622Y-51773371D01*
X124134623Y-51773373D01*
X124228872Y-51882143D01*
X124228873Y-51882144D01*
X124349942Y-51959950D01*
X124349947Y-51959953D01*
X124456403Y-51991211D01*
X124488035Y-52000499D01*
X124488036Y-52000499D01*
X124488039Y-52000500D01*
X124488041Y-52000500D01*
X124594521Y-52000500D01*
X124652712Y-52019407D01*
X124664525Y-52029496D01*
X125730504Y-53095475D01*
X125758281Y-53149992D01*
X125759500Y-53165479D01*
X125759500Y-59574794D01*
X125740593Y-59632985D01*
X125722801Y-59649790D01*
X125723608Y-59650721D01*
X125718260Y-59655354D01*
X125624008Y-59764128D01*
X125564220Y-59895043D01*
X125543739Y-60037497D01*
X125543739Y-60037502D01*
X125564220Y-60179956D01*
X125622306Y-60307144D01*
X125624009Y-60310873D01*
X125689948Y-60386971D01*
X125718259Y-60419644D01*
X125801412Y-60473083D01*
X125839333Y-60497453D01*
X125910765Y-60518427D01*
X125977421Y-60537999D01*
X125977422Y-60537999D01*
X125977425Y-60538000D01*
X125977427Y-60538000D01*
X126121345Y-60538000D01*
X126121347Y-60538000D01*
X126259439Y-60497453D01*
X126380514Y-60419643D01*
X126474763Y-60310873D01*
X126534551Y-60179957D01*
X126555033Y-60037500D01*
X126534551Y-59895043D01*
X126474763Y-59764127D01*
X126384679Y-59660164D01*
X126360863Y-59603805D01*
X126360500Y-59595334D01*
X126360500Y-59021182D01*
X131937878Y-59021182D01*
X131937878Y-59021187D01*
X131958359Y-59163641D01*
X131983119Y-59217857D01*
X132018148Y-59294558D01*
X132045936Y-59326627D01*
X132112398Y-59403329D01*
X132217860Y-59471105D01*
X132233472Y-59481138D01*
X132339928Y-59512396D01*
X132371560Y-59521684D01*
X132371561Y-59521684D01*
X132371564Y-59521685D01*
X132371566Y-59521685D01*
X132515484Y-59521685D01*
X132515486Y-59521685D01*
X132653578Y-59481138D01*
X132774653Y-59403328D01*
X132868902Y-59294558D01*
X132928690Y-59163642D01*
X132935970Y-59113008D01*
X132948103Y-59028623D01*
X132975099Y-58973715D01*
X133029213Y-58945162D01*
X133089776Y-58953869D01*
X133099618Y-58959428D01*
X133139328Y-58984948D01*
X133139333Y-58984951D01*
X133245789Y-59016209D01*
X133277421Y-59025497D01*
X133277422Y-59025497D01*
X133277425Y-59025498D01*
X133277427Y-59025498D01*
X133421345Y-59025498D01*
X133421347Y-59025498D01*
X133559439Y-58984951D01*
X133559439Y-58984950D01*
X133566233Y-58982956D01*
X133566644Y-58984357D01*
X133619538Y-58978284D01*
X133672818Y-59008367D01*
X133698240Y-59064021D01*
X133698886Y-59075314D01*
X133698886Y-59471105D01*
X133679979Y-59529296D01*
X133672644Y-59537289D01*
X133672895Y-59537506D01*
X133668258Y-59542856D01*
X133668258Y-59542857D01*
X133618744Y-59600000D01*
X133574008Y-59651628D01*
X133514220Y-59782543D01*
X133493739Y-59924997D01*
X133493739Y-59925002D01*
X133514220Y-60067456D01*
X133574008Y-60198371D01*
X133574009Y-60198373D01*
X133648211Y-60284007D01*
X133668259Y-60307144D01*
X133782385Y-60380488D01*
X133789333Y-60384953D01*
X133895789Y-60416211D01*
X133927421Y-60425499D01*
X133927422Y-60425499D01*
X133927425Y-60425500D01*
X133927427Y-60425500D01*
X134071345Y-60425500D01*
X134071347Y-60425500D01*
X134209439Y-60384953D01*
X134330514Y-60307143D01*
X134424763Y-60198373D01*
X134484551Y-60067457D01*
X134498991Y-59967024D01*
X134525986Y-59912116D01*
X134580100Y-59883562D01*
X134640663Y-59892269D01*
X134671802Y-59916281D01*
X134728870Y-59982141D01*
X134728872Y-59982143D01*
X134815004Y-60037497D01*
X134849947Y-60059953D01*
X134956403Y-60091211D01*
X134988035Y-60100499D01*
X134988036Y-60100499D01*
X134988039Y-60100500D01*
X134988041Y-60100500D01*
X135094521Y-60100500D01*
X135152712Y-60119407D01*
X135164525Y-60129496D01*
X135530504Y-60495475D01*
X135558281Y-60549992D01*
X135559500Y-60565479D01*
X135559500Y-60646105D01*
X135540593Y-60704296D01*
X135533258Y-60712289D01*
X135533509Y-60712506D01*
X135528872Y-60717856D01*
X135528872Y-60717857D01*
X135494484Y-60757543D01*
X135434622Y-60826628D01*
X135374834Y-60957543D01*
X135354353Y-61099997D01*
X135354353Y-61100002D01*
X135374834Y-61242456D01*
X135434622Y-61373371D01*
X135434623Y-61373373D01*
X135521273Y-61473373D01*
X135528873Y-61482144D01*
X135649802Y-61559860D01*
X135649947Y-61559953D01*
X135743744Y-61587494D01*
X135788035Y-61600499D01*
X135788036Y-61600499D01*
X135788039Y-61600500D01*
X135788041Y-61600500D01*
X135931959Y-61600500D01*
X135931961Y-61600500D01*
X136070053Y-61559953D01*
X136191128Y-61482143D01*
X136285377Y-61373373D01*
X136345165Y-61242457D01*
X136365647Y-61100000D01*
X136362015Y-61074742D01*
X136345165Y-60957543D01*
X136331046Y-60926627D01*
X136285377Y-60826627D01*
X136191128Y-60717857D01*
X136191127Y-60717856D01*
X136186491Y-60712506D01*
X136188524Y-60710743D01*
X136163067Y-60668505D01*
X136160500Y-60646105D01*
X136160500Y-60360437D01*
X136160499Y-60360435D01*
X136140021Y-60284011D01*
X136140019Y-60284007D01*
X136100460Y-60215489D01*
X136044511Y-60159539D01*
X136044511Y-60159540D01*
X135590546Y-59705575D01*
X135562769Y-59651058D01*
X135562558Y-59621482D01*
X135565647Y-59600000D01*
X135564976Y-59595334D01*
X135545165Y-59457543D01*
X135520406Y-59403329D01*
X135485377Y-59326627D01*
X135391128Y-59217857D01*
X135391127Y-59217856D01*
X135391126Y-59217855D01*
X135270057Y-59140049D01*
X135270054Y-59140047D01*
X135270053Y-59140047D01*
X135270050Y-59140046D01*
X135131964Y-59099500D01*
X135131961Y-59099500D01*
X134988039Y-59099500D01*
X134988035Y-59099500D01*
X134849949Y-59140046D01*
X134849942Y-59140049D01*
X134728873Y-59217855D01*
X134634622Y-59326628D01*
X134574834Y-59457543D01*
X134562993Y-59539898D01*
X134535997Y-59594805D01*
X134481882Y-59623358D01*
X134421320Y-59614650D01*
X134395791Y-59593720D01*
X134394434Y-59595078D01*
X134389847Y-59590491D01*
X134389846Y-59590489D01*
X134333897Y-59534540D01*
X134333894Y-59534538D01*
X134329308Y-59529952D01*
X134331479Y-59527780D01*
X134303958Y-59487722D01*
X134299886Y-59459621D01*
X134299886Y-58606163D01*
X134318793Y-58547972D01*
X134328882Y-58536159D01*
X135035545Y-57829496D01*
X135090062Y-57801719D01*
X135105549Y-57800500D01*
X137822224Y-57800500D01*
X137880415Y-57819407D01*
X137916379Y-57868907D01*
X137916379Y-57930093D01*
X137901426Y-57958897D01*
X137805920Y-58086246D01*
X137724618Y-58249749D01*
X137724615Y-58249756D01*
X137674261Y-58425253D01*
X137674259Y-58425262D01*
X137656504Y-58606995D01*
X137671939Y-58788935D01*
X137720054Y-58965072D01*
X137720056Y-58965078D01*
X137724201Y-58973715D01*
X137728007Y-58981646D01*
X137728648Y-58983237D01*
X137749681Y-59026892D01*
X137759493Y-59069892D01*
X137759478Y-59119213D01*
X137759501Y-59119562D01*
X137759501Y-60380488D01*
X137759492Y-60380626D01*
X137759497Y-60430103D01*
X137749755Y-60472938D01*
X137745920Y-60480931D01*
X137745862Y-60481051D01*
X137728461Y-60517192D01*
X137728156Y-60517948D01*
X137720020Y-60534902D01*
X137675057Y-60699500D01*
X137671900Y-60711055D01*
X137659869Y-60852861D01*
X137656463Y-60893003D01*
X137674218Y-61074737D01*
X137674219Y-61074742D01*
X137724579Y-61250263D01*
X137805881Y-61413768D01*
X137915438Y-61559855D01*
X137915441Y-61559857D01*
X137915443Y-61559860D01*
X137959479Y-61600499D01*
X138049595Y-61683664D01*
X138049627Y-61683693D01*
X138049629Y-61683695D01*
X138204015Y-61781194D01*
X138204016Y-61781194D01*
X138204022Y-61781198D01*
X138373514Y-61849142D01*
X138373517Y-61849142D01*
X138373518Y-61849143D01*
X138408283Y-61856162D01*
X138552505Y-61885281D01*
X138714794Y-61888073D01*
X138735080Y-61888422D01*
X138735080Y-61888421D01*
X138735081Y-61888422D01*
X138915210Y-61858460D01*
X139086938Y-61796386D01*
X139102741Y-61787176D01*
X139103849Y-61786624D01*
X139108864Y-61783693D01*
X139108870Y-61783692D01*
X139142537Y-61764021D01*
X139192485Y-61750502D01*
X139231392Y-61750507D01*
X139231394Y-61750506D01*
X139237842Y-61750507D01*
X139237963Y-61750500D01*
X140727507Y-61750500D01*
X140777462Y-61764028D01*
X140815686Y-61786368D01*
X140817527Y-61787286D01*
X140833077Y-61796348D01*
X140916844Y-61826627D01*
X141004787Y-61858416D01*
X141004790Y-61858416D01*
X141004799Y-61858420D01*
X141184920Y-61888381D01*
X141367488Y-61885240D01*
X141546472Y-61849103D01*
X141715958Y-61781163D01*
X141870344Y-61683664D01*
X142004531Y-61559829D01*
X142114083Y-61413748D01*
X142195382Y-61250250D01*
X142245741Y-61074736D01*
X142262813Y-60899997D01*
X143754353Y-60899997D01*
X143754353Y-60900002D01*
X143774834Y-61042456D01*
X143789581Y-61074746D01*
X143834623Y-61173373D01*
X143894483Y-61242456D01*
X143933509Y-61287494D01*
X143931471Y-61289259D01*
X143956925Y-61331458D01*
X143959500Y-61353893D01*
X143959500Y-64946105D01*
X143940593Y-65004296D01*
X143933258Y-65012289D01*
X143933509Y-65012506D01*
X143834622Y-65126628D01*
X143774834Y-65257543D01*
X143754353Y-65399997D01*
X143754353Y-65400002D01*
X143774834Y-65542456D01*
X143820504Y-65642457D01*
X143834623Y-65673373D01*
X143926722Y-65779662D01*
X143928873Y-65782144D01*
X144033683Y-65849501D01*
X144049947Y-65859953D01*
X144156403Y-65891211D01*
X144188035Y-65900499D01*
X144188036Y-65900499D01*
X144188039Y-65900500D01*
X144188041Y-65900500D01*
X144331959Y-65900500D01*
X144331961Y-65900500D01*
X144470053Y-65859953D01*
X144591128Y-65782143D01*
X144685377Y-65673373D01*
X144745165Y-65542457D01*
X144765647Y-65400000D01*
X144745165Y-65257543D01*
X144685377Y-65126627D01*
X144591128Y-65017857D01*
X144591127Y-65017856D01*
X144586491Y-65012506D01*
X144588524Y-65010743D01*
X144563067Y-64968505D01*
X144560500Y-64946105D01*
X144560500Y-64800005D01*
X149854353Y-64800005D01*
X149854353Y-64800010D01*
X149874834Y-64942464D01*
X149906017Y-65010743D01*
X149934623Y-65073381D01*
X149980761Y-65126628D01*
X150033509Y-65187502D01*
X150031471Y-65189267D01*
X150056925Y-65231466D01*
X150059500Y-65253901D01*
X150059500Y-83497187D01*
X150079977Y-83573608D01*
X150079977Y-83573609D01*
X150079979Y-83573612D01*
X150109327Y-83624445D01*
X150119540Y-83642134D01*
X154978451Y-88501045D01*
X159827177Y-93349771D01*
X159854954Y-93404288D01*
X159845383Y-93464720D01*
X159802118Y-93507985D01*
X159787201Y-93513994D01*
X159786041Y-93514474D01*
X159603547Y-93612020D01*
X159443595Y-93743289D01*
X159443585Y-93743299D01*
X159312316Y-93903251D01*
X159214768Y-94085749D01*
X159154699Y-94283769D01*
X159154698Y-94283774D01*
X159134417Y-94489700D01*
X159134417Y-94489707D01*
X159154698Y-94695633D01*
X159154699Y-94695638D01*
X159214768Y-94893658D01*
X159312316Y-95076156D01*
X159434470Y-95225001D01*
X159443590Y-95236114D01*
X159443595Y-95236118D01*
X159603547Y-95367387D01*
X159603548Y-95367387D01*
X159603550Y-95367389D01*
X159786046Y-95464936D01*
X159923997Y-95506782D01*
X159984065Y-95525004D01*
X159984070Y-95525005D01*
X160189997Y-95545287D01*
X160190000Y-95545287D01*
X160190003Y-95545287D01*
X160395929Y-95525005D01*
X160395934Y-95525004D01*
X160433828Y-95513509D01*
X160593954Y-95464936D01*
X160776450Y-95367389D01*
X160936410Y-95236114D01*
X161067685Y-95076154D01*
X161165232Y-94893658D01*
X161225300Y-94695638D01*
X161225301Y-94695633D01*
X161245583Y-94489707D01*
X161245583Y-94489700D01*
X161225301Y-94283774D01*
X161225300Y-94283769D01*
X161194175Y-94181163D01*
X161165232Y-94085750D01*
X161067685Y-93903254D01*
X161064604Y-93899500D01*
X160944622Y-93753300D01*
X160936410Y-93743294D01*
X160935629Y-93742653D01*
X160776452Y-93612020D01*
X160593958Y-93514474D01*
X160593957Y-93514473D01*
X160593954Y-93514472D01*
X160593948Y-93514470D01*
X160593945Y-93514469D01*
X160560759Y-93504401D01*
X160510563Y-93469415D01*
X160490519Y-93411606D01*
X160490500Y-93409665D01*
X160490500Y-93248060D01*
X160490499Y-93248058D01*
X160478054Y-93201615D01*
X160470021Y-93171634D01*
X160451247Y-93139117D01*
X160430460Y-93103112D01*
X160374511Y-93047162D01*
X160374511Y-93047163D01*
X150689496Y-83362148D01*
X150661719Y-83307631D01*
X150660500Y-83292144D01*
X150660500Y-79025142D01*
X150679407Y-78966951D01*
X150728907Y-78930987D01*
X150790093Y-78930987D01*
X150835956Y-78962250D01*
X150861610Y-78993437D01*
X150861615Y-78993442D01*
X150861617Y-78993444D01*
X151001226Y-79111130D01*
X151017190Y-79120262D01*
X151018294Y-79120992D01*
X151057073Y-79143115D01*
X151093757Y-79179613D01*
X151116428Y-79218888D01*
X151116480Y-79218966D01*
X151838756Y-80469983D01*
X151838795Y-80470062D01*
X151841813Y-80475289D01*
X151841814Y-80475290D01*
X151861270Y-80508982D01*
X151874537Y-80558998D01*
X151874309Y-80603150D01*
X151874457Y-80605581D01*
X151874386Y-80623343D01*
X151906492Y-80803076D01*
X151906494Y-80803083D01*
X151970608Y-80974044D01*
X152027163Y-81068217D01*
X152061065Y-81124671D01*
X152064613Y-81130578D01*
X152185392Y-81267502D01*
X152185395Y-81267505D01*
X152328969Y-81380308D01*
X152483014Y-81461275D01*
X152490594Y-81465259D01*
X152664911Y-81519546D01*
X152664921Y-81519549D01*
X152846198Y-81541386D01*
X153028434Y-81530049D01*
X153205606Y-81485911D01*
X153371862Y-81410431D01*
X153521709Y-81306102D01*
X153650194Y-81176373D01*
X153660537Y-81161247D01*
X153661447Y-81160086D01*
X153664627Y-81155421D01*
X153664632Y-81155418D01*
X153688941Y-81119766D01*
X153721240Y-81089801D01*
X153758601Y-81068237D01*
X153758603Y-81068233D01*
X153764870Y-81064617D01*
X153764935Y-81064572D01*
X154855894Y-80434707D01*
X154856018Y-80434648D01*
X154899266Y-80409671D01*
X154941361Y-80396678D01*
X154984450Y-80393442D01*
X154984450Y-80393441D01*
X154990414Y-80392994D01*
X154991374Y-80392856D01*
X155009759Y-80391453D01*
X155186358Y-80345046D01*
X155351640Y-80267437D01*
X155500143Y-80161193D01*
X155626960Y-80029822D01*
X155727903Y-79877666D01*
X155799636Y-79709751D01*
X155839789Y-79531625D01*
X155847035Y-79349173D01*
X155824885Y-79194592D01*
X155821136Y-79168428D01*
X155821134Y-79168420D01*
X155794558Y-79089378D01*
X155762944Y-78995349D01*
X155674386Y-78835667D01*
X155558385Y-78694653D01*
X155556145Y-78692765D01*
X155520489Y-78662708D01*
X155418776Y-78576966D01*
X155402812Y-78567833D01*
X155401710Y-78567105D01*
X155362924Y-78544977D01*
X155326241Y-78508479D01*
X155303583Y-78469226D01*
X155303519Y-78469131D01*
X154717580Y-77454256D01*
X154704860Y-77394410D01*
X154729747Y-77338514D01*
X154782735Y-77307921D01*
X154843585Y-77314317D01*
X154873322Y-77334754D01*
X161130504Y-83591936D01*
X161158281Y-83646453D01*
X161159500Y-83661940D01*
X161159500Y-91209961D01*
X161140593Y-91268152D01*
X161091093Y-91304116D01*
X161089241Y-91304697D01*
X161056054Y-91314765D01*
X161056041Y-91314770D01*
X160873547Y-91412316D01*
X160713595Y-91543585D01*
X160713585Y-91543595D01*
X160582316Y-91703547D01*
X160484768Y-91886045D01*
X160424699Y-92084065D01*
X160424698Y-92084070D01*
X160404417Y-92289996D01*
X160404417Y-92290003D01*
X160424698Y-92495929D01*
X160424699Y-92495934D01*
X160484768Y-92693954D01*
X160582316Y-92876452D01*
X160709719Y-93031693D01*
X160713590Y-93036410D01*
X160713595Y-93036414D01*
X160873547Y-93167683D01*
X160873548Y-93167683D01*
X160873550Y-93167685D01*
X161056046Y-93265232D01*
X161180878Y-93303099D01*
X161254065Y-93325300D01*
X161254070Y-93325301D01*
X161459997Y-93345583D01*
X161460000Y-93345583D01*
X161460003Y-93345583D01*
X161665929Y-93325301D01*
X161665934Y-93325300D01*
X161675464Y-93322409D01*
X161863954Y-93265232D01*
X162046450Y-93167685D01*
X162206410Y-93036410D01*
X162337685Y-92876450D01*
X162435232Y-92693954D01*
X162495300Y-92495934D01*
X162495301Y-92495929D01*
X162515583Y-92290003D01*
X162515583Y-92289996D01*
X162495301Y-92084070D01*
X162495300Y-92084065D01*
X162468742Y-91996516D01*
X162435232Y-91886046D01*
X162337685Y-91703550D01*
X162335181Y-91700499D01*
X162206414Y-91543595D01*
X162206410Y-91543590D01*
X162206404Y-91543585D01*
X162046452Y-91412316D01*
X161863958Y-91314770D01*
X161863957Y-91314769D01*
X161863954Y-91314768D01*
X161863948Y-91314766D01*
X161863945Y-91314765D01*
X161830759Y-91304697D01*
X161780563Y-91269711D01*
X161760519Y-91211902D01*
X161760500Y-91209961D01*
X161760500Y-90841555D01*
X161779407Y-90783364D01*
X161828907Y-90747400D01*
X161890093Y-90747400D01*
X161936027Y-90778749D01*
X161983590Y-90836705D01*
X161983595Y-90836709D01*
X162143547Y-90967978D01*
X162143548Y-90967978D01*
X162143550Y-90967980D01*
X162326046Y-91065527D01*
X162432358Y-91097776D01*
X162524065Y-91125595D01*
X162524070Y-91125596D01*
X162729997Y-91145878D01*
X162730000Y-91145878D01*
X162730003Y-91145878D01*
X162935929Y-91125596D01*
X162935934Y-91125595D01*
X162977428Y-91113008D01*
X163133954Y-91065527D01*
X163316450Y-90967980D01*
X163476410Y-90836705D01*
X163607685Y-90676745D01*
X163705232Y-90494249D01*
X163765300Y-90296229D01*
X163765301Y-90296224D01*
X163785583Y-90090298D01*
X163785583Y-90090291D01*
X163765301Y-89884365D01*
X163765300Y-89884360D01*
X163718334Y-89729533D01*
X163705232Y-89686341D01*
X163607685Y-89503845D01*
X163604119Y-89499500D01*
X163484622Y-89353891D01*
X163476410Y-89343885D01*
X163457667Y-89328503D01*
X163316452Y-89212611D01*
X163133958Y-89115065D01*
X163133957Y-89115064D01*
X163133954Y-89115063D01*
X163133948Y-89115061D01*
X163133945Y-89115060D01*
X163100759Y-89104992D01*
X163050563Y-89070006D01*
X163030519Y-89012197D01*
X163030500Y-89010256D01*
X163030500Y-88641064D01*
X163049407Y-88582873D01*
X163098907Y-88546909D01*
X163160093Y-88546909D01*
X163206028Y-88578260D01*
X163253938Y-88636640D01*
X163253941Y-88636643D01*
X163389543Y-88747928D01*
X163389544Y-88747928D01*
X163771502Y-88086358D01*
X163815795Y-88130651D01*
X163884204Y-88170147D01*
X163944707Y-88186358D01*
X163562957Y-88847569D01*
X163562957Y-88847570D01*
X163596232Y-88865356D01*
X163596237Y-88865358D01*
X163794163Y-88925399D01*
X163794169Y-88925400D01*
X163999996Y-88945672D01*
X164000004Y-88945672D01*
X164205830Y-88925400D01*
X164205836Y-88925399D01*
X164403762Y-88865358D01*
X164403767Y-88865356D01*
X164586160Y-88767866D01*
X164586170Y-88767859D01*
X164746050Y-88636649D01*
X164746059Y-88636640D01*
X164857337Y-88501046D01*
X164857337Y-88501045D01*
X164195768Y-88119087D01*
X164240060Y-88074796D01*
X164279556Y-88006387D01*
X164295767Y-87945882D01*
X164956978Y-88327633D01*
X164974768Y-88294352D01*
X165034808Y-88096427D01*
X165034809Y-88096421D01*
X165055081Y-87890595D01*
X165055081Y-87890586D01*
X165034809Y-87684760D01*
X165034808Y-87684754D01*
X164974767Y-87486828D01*
X164974765Y-87486823D01*
X164877275Y-87304430D01*
X164877268Y-87304420D01*
X164746057Y-87144538D01*
X164610455Y-87033252D01*
X164610454Y-87033252D01*
X164228496Y-87694822D01*
X164184205Y-87650531D01*
X164115796Y-87611035D01*
X164055290Y-87594822D01*
X164437041Y-86933610D01*
X164403771Y-86915827D01*
X164403754Y-86915821D01*
X164205836Y-86855782D01*
X164205830Y-86855781D01*
X164000004Y-86835510D01*
X163999996Y-86835510D01*
X163794169Y-86855781D01*
X163794163Y-86855782D01*
X163596237Y-86915823D01*
X163596232Y-86915825D01*
X163413839Y-87013315D01*
X163413829Y-87013322D01*
X163253949Y-87144531D01*
X163253940Y-87144540D01*
X163206028Y-87202922D01*
X163154497Y-87235909D01*
X163093417Y-87232307D01*
X163046120Y-87193492D01*
X163030500Y-87140117D01*
X163030500Y-84161212D01*
X163030499Y-84161210D01*
X163010021Y-84084786D01*
X163010019Y-84084782D01*
X162970460Y-84016264D01*
X162914511Y-83960314D01*
X162914511Y-83960315D01*
X153589496Y-74635300D01*
X153561719Y-74580783D01*
X153560500Y-74565296D01*
X153560500Y-72068216D01*
X157272491Y-72068216D01*
X157298389Y-72248964D01*
X157298391Y-72248972D01*
X157331202Y-72346559D01*
X157356581Y-72422043D01*
X157445141Y-72581725D01*
X157561142Y-72722738D01*
X157700754Y-72840423D01*
X157716674Y-72849529D01*
X157717724Y-72850224D01*
X157722723Y-72853076D01*
X157756594Y-72872400D01*
X157793276Y-72908896D01*
X157812648Y-72942456D01*
X157815953Y-72948181D01*
X157815998Y-72948249D01*
X158394067Y-73949494D01*
X158512366Y-74154394D01*
X158538278Y-74199274D01*
X158538324Y-74199367D01*
X158560791Y-74238274D01*
X158574057Y-74288285D01*
X158573830Y-74332704D01*
X158573948Y-74334637D01*
X158573875Y-74352614D01*
X158605980Y-74532363D01*
X158670092Y-74703329D01*
X158670093Y-74703332D01*
X158670095Y-74703335D01*
X158717420Y-74782143D01*
X158764097Y-74859872D01*
X158840787Y-74946814D01*
X158884885Y-74996808D01*
X159028465Y-75109616D01*
X159190094Y-75194569D01*
X159364430Y-75248860D01*
X159545715Y-75270696D01*
X159727957Y-75259354D01*
X159905135Y-75215210D01*
X160071395Y-75139722D01*
X160221243Y-75035385D01*
X160349729Y-74905645D01*
X160360042Y-74890561D01*
X160360852Y-74889530D01*
X160364117Y-74884742D01*
X160364119Y-74884741D01*
X160388461Y-74849048D01*
X160420756Y-74819090D01*
X160458131Y-74797516D01*
X160458131Y-74797515D01*
X160464651Y-74793752D01*
X160464704Y-74793714D01*
X161598731Y-74138984D01*
X161640687Y-74126009D01*
X161653409Y-74125037D01*
X161662434Y-74124348D01*
X161662435Y-74124373D01*
X161662561Y-74124338D01*
X161683942Y-74122734D01*
X161683944Y-74122733D01*
X161690080Y-74122273D01*
X161690610Y-74122196D01*
X161709302Y-74120769D01*
X161885899Y-74074354D01*
X162051178Y-73996741D01*
X162181337Y-73903614D01*
X162199673Y-73890495D01*
X162199673Y-73890494D01*
X162199677Y-73890492D01*
X162326492Y-73759118D01*
X162427431Y-73606960D01*
X162499161Y-73439044D01*
X162539312Y-73260918D01*
X162546556Y-73078467D01*
X162526746Y-72940221D01*
X162520657Y-72897724D01*
X162520654Y-72897712D01*
X162462468Y-72724649D01*
X162462466Y-72724644D01*
X162373908Y-72564961D01*
X162373906Y-72564958D01*
X162257914Y-72423950D01*
X162257902Y-72423938D01*
X162118302Y-72306258D01*
X162118302Y-72306257D01*
X162102330Y-72297119D01*
X162101227Y-72296390D01*
X162094410Y-72292501D01*
X162062442Y-72274263D01*
X162025761Y-72237766D01*
X162006312Y-72204071D01*
X162006308Y-72204067D01*
X162003095Y-72198500D01*
X162003041Y-72198419D01*
X161768059Y-71791419D01*
X162600053Y-71791419D01*
X162600054Y-71791424D01*
X162619171Y-71847743D01*
X163004021Y-72514324D01*
X163667580Y-72131217D01*
X163683793Y-72191724D01*
X163723289Y-72260133D01*
X163767580Y-72304424D01*
X163104022Y-72687531D01*
X163488873Y-73354112D01*
X163528088Y-73398828D01*
X163528091Y-73398830D01*
X163599447Y-73434019D01*
X163678840Y-73439223D01*
X163678845Y-73439222D01*
X163735164Y-73420105D01*
X164401745Y-73035254D01*
X164018639Y-72371696D01*
X164079145Y-72355484D01*
X164147554Y-72315988D01*
X164191846Y-72271695D01*
X164574952Y-72935253D01*
X165241533Y-72550403D01*
X165286249Y-72511188D01*
X165286251Y-72511185D01*
X165321440Y-72439829D01*
X165326644Y-72360436D01*
X165326643Y-72360431D01*
X165307526Y-72304112D01*
X164922675Y-71637530D01*
X164259116Y-72020636D01*
X164242905Y-71960132D01*
X164203409Y-71891723D01*
X164159115Y-71847429D01*
X164822674Y-71464323D01*
X164437824Y-70797743D01*
X164398609Y-70753027D01*
X164398606Y-70753025D01*
X164327250Y-70717836D01*
X164247857Y-70712632D01*
X164247852Y-70712633D01*
X164191533Y-70731750D01*
X163524951Y-71116600D01*
X163908058Y-71780160D01*
X163847553Y-71796372D01*
X163779144Y-71835868D01*
X163734851Y-71880160D01*
X163351744Y-71216601D01*
X163351743Y-71216601D01*
X162685171Y-71601447D01*
X162685165Y-71601451D01*
X162640448Y-71640667D01*
X162640446Y-71640670D01*
X162605257Y-71712026D01*
X162600053Y-71791419D01*
X161768059Y-71791419D01*
X161281340Y-70948399D01*
X161281317Y-70948350D01*
X161277709Y-70942102D01*
X161277708Y-70942097D01*
X161258292Y-70908474D01*
X161245028Y-70858580D01*
X161245181Y-70820211D01*
X161245186Y-70819412D01*
X161245185Y-70819411D01*
X161245222Y-70813521D01*
X161245209Y-70813287D01*
X161245286Y-70794019D01*
X161245285Y-70794018D01*
X161245286Y-70794016D01*
X161213168Y-70614260D01*
X161213166Y-70614256D01*
X161213166Y-70614253D01*
X161174839Y-70512067D01*
X161149042Y-70443287D01*
X161055026Y-70286746D01*
X160934226Y-70149810D01*
X160885179Y-70111279D01*
X160790634Y-70037004D01*
X160790633Y-70037003D01*
X160628994Y-69952053D01*
X160628995Y-69952053D01*
X160454647Y-69897766D01*
X160275704Y-69876219D01*
X161637766Y-69876219D01*
X161637766Y-69876226D01*
X161658047Y-70082152D01*
X161658048Y-70082157D01*
X161718117Y-70280177D01*
X161815665Y-70462675D01*
X161856200Y-70512067D01*
X161946939Y-70622633D01*
X161946944Y-70622637D01*
X162106896Y-70753906D01*
X162106897Y-70753906D01*
X162106899Y-70753908D01*
X162289395Y-70851455D01*
X162415312Y-70889651D01*
X162487414Y-70911523D01*
X162487419Y-70911524D01*
X162693346Y-70931806D01*
X162693349Y-70931806D01*
X162693352Y-70931806D01*
X162899278Y-70911524D01*
X162899283Y-70911523D01*
X162909318Y-70908479D01*
X163097303Y-70851455D01*
X163279799Y-70753908D01*
X163439759Y-70622633D01*
X163571034Y-70462673D01*
X163668581Y-70280177D01*
X163728649Y-70082157D01*
X163728650Y-70082152D01*
X163748932Y-69876226D01*
X163748932Y-69876219D01*
X163728650Y-69670293D01*
X163728649Y-69670288D01*
X163692008Y-69549500D01*
X163668581Y-69472269D01*
X163571034Y-69289773D01*
X163439759Y-69129813D01*
X163366272Y-69069504D01*
X163279801Y-68998539D01*
X163097303Y-68900991D01*
X162899283Y-68840922D01*
X162899278Y-68840921D01*
X162693352Y-68820640D01*
X162693346Y-68820640D01*
X162487419Y-68840921D01*
X162487414Y-68840922D01*
X162289394Y-68900991D01*
X162106896Y-68998539D01*
X161946944Y-69129808D01*
X161946934Y-69129818D01*
X161815665Y-69289770D01*
X161718117Y-69472268D01*
X161658048Y-69670288D01*
X161658047Y-69670293D01*
X161637766Y-69876219D01*
X160275704Y-69876219D01*
X160273354Y-69875936D01*
X160091104Y-69887284D01*
X160091100Y-69887285D01*
X159913919Y-69931434D01*
X159747655Y-70006929D01*
X159597795Y-70111278D01*
X159597794Y-70111279D01*
X159469316Y-70241017D01*
X159469309Y-70241024D01*
X159458923Y-70256213D01*
X159457866Y-70257563D01*
X159430585Y-70297592D01*
X159398253Y-70327587D01*
X159355756Y-70352105D01*
X159355457Y-70352304D01*
X158263182Y-70982930D01*
X158263048Y-70982996D01*
X158220272Y-71007701D01*
X158178150Y-71020695D01*
X158129906Y-71024305D01*
X158127998Y-71024575D01*
X158109784Y-71025965D01*
X157933196Y-71072361D01*
X157933188Y-71072364D01*
X157767901Y-71149969D01*
X157767898Y-71149971D01*
X157619395Y-71256207D01*
X157492576Y-71387573D01*
X157391631Y-71539723D01*
X157391626Y-71539733D01*
X157319892Y-71707643D01*
X157319891Y-71707649D01*
X157279739Y-71885758D01*
X157279737Y-71885770D01*
X157272491Y-72068216D01*
X153560500Y-72068216D01*
X153560500Y-64253893D01*
X153579407Y-64195702D01*
X153586741Y-64187711D01*
X153586491Y-64187494D01*
X153591128Y-64182143D01*
X153685377Y-64073373D01*
X153745165Y-63942457D01*
X153765647Y-63800000D01*
X153758893Y-63753026D01*
X153745165Y-63657543D01*
X153743726Y-63654392D01*
X153685377Y-63526627D01*
X153591128Y-63417857D01*
X153591127Y-63417856D01*
X153591126Y-63417855D01*
X153470057Y-63340049D01*
X153470054Y-63340047D01*
X153470053Y-63340047D01*
X153470050Y-63340046D01*
X153333657Y-63299997D01*
X153854353Y-63299997D01*
X153854353Y-63300002D01*
X153874834Y-63442456D01*
X153913275Y-63526628D01*
X153934623Y-63573373D01*
X154026228Y-63679092D01*
X154033509Y-63687494D01*
X154031471Y-63689259D01*
X154056925Y-63731458D01*
X154059500Y-63753893D01*
X154059500Y-68046105D01*
X154040593Y-68104296D01*
X154033258Y-68112289D01*
X154033509Y-68112506D01*
X153934622Y-68226628D01*
X153874834Y-68357543D01*
X153854353Y-68499997D01*
X153854353Y-68500002D01*
X153874834Y-68642456D01*
X153906512Y-68711819D01*
X153934623Y-68773373D01*
X154015771Y-68867023D01*
X154028873Y-68882144D01*
X154149942Y-68959950D01*
X154149947Y-68959953D01*
X154256403Y-68991211D01*
X154288035Y-69000499D01*
X154288036Y-69000499D01*
X154288039Y-69000500D01*
X154288041Y-69000500D01*
X154431959Y-69000500D01*
X154431961Y-69000500D01*
X154570053Y-68959953D01*
X154691128Y-68882143D01*
X154785377Y-68773373D01*
X154845165Y-68642457D01*
X154858091Y-68552555D01*
X154865647Y-68500002D01*
X154865647Y-68499997D01*
X154845165Y-68357543D01*
X154828696Y-68321482D01*
X154785377Y-68226627D01*
X154691128Y-68117857D01*
X154691127Y-68117856D01*
X154686491Y-68112506D01*
X154688524Y-68110743D01*
X154663067Y-68068505D01*
X154660500Y-68046105D01*
X154660500Y-67953027D01*
X154679407Y-67894836D01*
X154728907Y-67858872D01*
X154790093Y-67858872D01*
X154824334Y-67878210D01*
X154828869Y-67882140D01*
X154828872Y-67882143D01*
X154828874Y-67882144D01*
X154828875Y-67882145D01*
X154922722Y-67942457D01*
X154949947Y-67959953D01*
X155056403Y-67991211D01*
X155088035Y-68000499D01*
X155088036Y-68000499D01*
X155088039Y-68000500D01*
X155088041Y-68000500D01*
X155231959Y-68000500D01*
X155231961Y-68000500D01*
X155370053Y-67959953D01*
X155491128Y-67882143D01*
X155585377Y-67773373D01*
X155629611Y-67676515D01*
X160367766Y-67676515D01*
X160367766Y-67676522D01*
X160388047Y-67882448D01*
X160388048Y-67882453D01*
X160448117Y-68080473D01*
X160545665Y-68262971D01*
X160651764Y-68392253D01*
X160676939Y-68422929D01*
X160700733Y-68442456D01*
X160836896Y-68554202D01*
X160836897Y-68554202D01*
X160836899Y-68554204D01*
X161019395Y-68651751D01*
X161157346Y-68693597D01*
X161217414Y-68711819D01*
X161217419Y-68711820D01*
X161423346Y-68732102D01*
X161423349Y-68732102D01*
X161423352Y-68732102D01*
X161629278Y-68711820D01*
X161629283Y-68711819D01*
X161637838Y-68709224D01*
X161827303Y-68651751D01*
X162009799Y-68554204D01*
X162169759Y-68422929D01*
X162301034Y-68262969D01*
X162398581Y-68080473D01*
X162458649Y-67882453D01*
X162458650Y-67882448D01*
X162478932Y-67676522D01*
X162478932Y-67676515D01*
X162458650Y-67470589D01*
X162458649Y-67470584D01*
X162420889Y-67346105D01*
X162398581Y-67272565D01*
X162301034Y-67090069D01*
X162299147Y-67087770D01*
X162169763Y-66930114D01*
X162169759Y-66930109D01*
X162162924Y-66924500D01*
X162009801Y-66798835D01*
X161827303Y-66701287D01*
X161629283Y-66641218D01*
X161629278Y-66641217D01*
X161423352Y-66620936D01*
X161423346Y-66620936D01*
X161217419Y-66641217D01*
X161217414Y-66641218D01*
X161019394Y-66701287D01*
X160836896Y-66798835D01*
X160676944Y-66930104D01*
X160676934Y-66930114D01*
X160545665Y-67090066D01*
X160448117Y-67272564D01*
X160388048Y-67470584D01*
X160388047Y-67470589D01*
X160367766Y-67676515D01*
X155629611Y-67676515D01*
X155645165Y-67642457D01*
X155665647Y-67500000D01*
X155664794Y-67494070D01*
X155645165Y-67357543D01*
X155606356Y-67272564D01*
X155585377Y-67226627D01*
X155491128Y-67117857D01*
X155491127Y-67117856D01*
X155486491Y-67112506D01*
X155488524Y-67110743D01*
X155463067Y-67068505D01*
X155460500Y-67046105D01*
X155460500Y-65837853D01*
X155479407Y-65779662D01*
X155528907Y-65743698D01*
X155590093Y-65743698D01*
X155634320Y-65773022D01*
X155634621Y-65773370D01*
X155634623Y-65773373D01*
X155727681Y-65880768D01*
X155728873Y-65882144D01*
X155782032Y-65916307D01*
X155849947Y-65959953D01*
X155956403Y-65991211D01*
X155988035Y-66000499D01*
X155988036Y-66000499D01*
X155988039Y-66000500D01*
X155988041Y-66000500D01*
X156131959Y-66000500D01*
X156131961Y-66000500D01*
X156270053Y-65959953D01*
X156391128Y-65882143D01*
X156485377Y-65773373D01*
X156545165Y-65642457D01*
X156565604Y-65500299D01*
X156565647Y-65500002D01*
X156565647Y-65499997D01*
X156562313Y-65476810D01*
X159097766Y-65476810D01*
X159097766Y-65476817D01*
X159118047Y-65682743D01*
X159118048Y-65682748D01*
X159178117Y-65880768D01*
X159275665Y-66063266D01*
X159376579Y-66186230D01*
X159406939Y-66223224D01*
X159406944Y-66223228D01*
X159566896Y-66354497D01*
X159566897Y-66354497D01*
X159566899Y-66354499D01*
X159749395Y-66452046D01*
X159887346Y-66493892D01*
X159947414Y-66512114D01*
X159947419Y-66512115D01*
X160153346Y-66532397D01*
X160153349Y-66532397D01*
X160153352Y-66532397D01*
X160359278Y-66512115D01*
X160359283Y-66512114D01*
X160557303Y-66452046D01*
X160739799Y-66354499D01*
X160899759Y-66223224D01*
X161031034Y-66063264D01*
X161128581Y-65880768D01*
X161188649Y-65682748D01*
X161188650Y-65682743D01*
X161208932Y-65476817D01*
X161208932Y-65476810D01*
X161188650Y-65270884D01*
X161188649Y-65270879D01*
X161144891Y-65126628D01*
X161128581Y-65072860D01*
X161031034Y-64890364D01*
X160966591Y-64811840D01*
X160899763Y-64730409D01*
X160899759Y-64730404D01*
X160866312Y-64702955D01*
X160739801Y-64599130D01*
X160557303Y-64501582D01*
X160359283Y-64441513D01*
X160359278Y-64441512D01*
X160153352Y-64421231D01*
X160153346Y-64421231D01*
X159947419Y-64441512D01*
X159947414Y-64441513D01*
X159749394Y-64501582D01*
X159566896Y-64599130D01*
X159406944Y-64730399D01*
X159406934Y-64730409D01*
X159275665Y-64890361D01*
X159178117Y-65072859D01*
X159118048Y-65270879D01*
X159118047Y-65270884D01*
X159097766Y-65476810D01*
X156562313Y-65476810D01*
X156545165Y-65357543D01*
X156485377Y-65226627D01*
X156391128Y-65117857D01*
X156391127Y-65117856D01*
X156386491Y-65112506D01*
X156388524Y-65110743D01*
X156363067Y-65068505D01*
X156360500Y-65046105D01*
X156360500Y-63277106D01*
X157827766Y-63277106D01*
X157827766Y-63277113D01*
X157848047Y-63483039D01*
X157848048Y-63483044D01*
X157908117Y-63681064D01*
X158005665Y-63863562D01*
X158136934Y-64023514D01*
X158136939Y-64023520D01*
X158136944Y-64023524D01*
X158296896Y-64154793D01*
X158296897Y-64154793D01*
X158296899Y-64154795D01*
X158479395Y-64252342D01*
X158617346Y-64294188D01*
X158677414Y-64312410D01*
X158677419Y-64312411D01*
X158883346Y-64332693D01*
X158883349Y-64332693D01*
X158883352Y-64332693D01*
X159089278Y-64312411D01*
X159089283Y-64312410D01*
X159287303Y-64252342D01*
X159469799Y-64154795D01*
X159629759Y-64023520D01*
X159761034Y-63863560D01*
X159858581Y-63681064D01*
X159918649Y-63483044D01*
X159918650Y-63483039D01*
X159938932Y-63277113D01*
X159938932Y-63277106D01*
X159918650Y-63071180D01*
X159918649Y-63071175D01*
X159900427Y-63011107D01*
X159858581Y-62873156D01*
X159761034Y-62690660D01*
X159759660Y-62688986D01*
X159629763Y-62530705D01*
X159629759Y-62530700D01*
X159587114Y-62495702D01*
X159469801Y-62399426D01*
X159287303Y-62301878D01*
X159089283Y-62241809D01*
X159089278Y-62241808D01*
X158883352Y-62221527D01*
X158883346Y-62221527D01*
X158677419Y-62241808D01*
X158677414Y-62241809D01*
X158479394Y-62301878D01*
X158296896Y-62399426D01*
X158136944Y-62530695D01*
X158136934Y-62530705D01*
X158005665Y-62690657D01*
X157908117Y-62873155D01*
X157848048Y-63071175D01*
X157848047Y-63071180D01*
X157827766Y-63277106D01*
X156360500Y-63277106D01*
X156360500Y-62553893D01*
X156379407Y-62495702D01*
X156386741Y-62487711D01*
X156386491Y-62487494D01*
X156391128Y-62482143D01*
X156485377Y-62373373D01*
X156545165Y-62242457D01*
X156565647Y-62100000D01*
X156561768Y-62073022D01*
X156545165Y-61957543D01*
X156513579Y-61888380D01*
X156485377Y-61826627D01*
X156391128Y-61717857D01*
X156391127Y-61717856D01*
X156391126Y-61717855D01*
X156270057Y-61640049D01*
X156270054Y-61640047D01*
X156270053Y-61640047D01*
X156270050Y-61640046D01*
X156131964Y-61599500D01*
X156131961Y-61599500D01*
X155988039Y-61599500D01*
X155988035Y-61599500D01*
X155849949Y-61640046D01*
X155849942Y-61640049D01*
X155728873Y-61717855D01*
X155634622Y-61826628D01*
X155574834Y-61957543D01*
X155554353Y-62099997D01*
X155554353Y-62100003D01*
X155564450Y-62170232D01*
X155554017Y-62230522D01*
X155510138Y-62273164D01*
X155449576Y-62281871D01*
X155412935Y-62267605D01*
X155370057Y-62240049D01*
X155370054Y-62240047D01*
X155370053Y-62240047D01*
X155370050Y-62240046D01*
X155231964Y-62199500D01*
X155231961Y-62199500D01*
X155088039Y-62199500D01*
X155088035Y-62199500D01*
X154949949Y-62240046D01*
X154949942Y-62240049D01*
X154828873Y-62317855D01*
X154734622Y-62426628D01*
X154674834Y-62557543D01*
X154654353Y-62699997D01*
X154657169Y-62719585D01*
X154646734Y-62779874D01*
X154602856Y-62822516D01*
X154542293Y-62831223D01*
X154531285Y-62828663D01*
X154431964Y-62799500D01*
X154431961Y-62799500D01*
X154288039Y-62799500D01*
X154288035Y-62799500D01*
X154149949Y-62840046D01*
X154149942Y-62840049D01*
X154028873Y-62917855D01*
X153934622Y-63026628D01*
X153874834Y-63157543D01*
X153854353Y-63299997D01*
X153333657Y-63299997D01*
X153331964Y-63299500D01*
X153331961Y-63299500D01*
X153188039Y-63299500D01*
X153188035Y-63299500D01*
X153049949Y-63340046D01*
X153049942Y-63340049D01*
X152928873Y-63417855D01*
X152834622Y-63526628D01*
X152774834Y-63657544D01*
X152768577Y-63701062D01*
X152741581Y-63755970D01*
X152687466Y-63784523D01*
X152626904Y-63775815D01*
X152617062Y-63770257D01*
X152570057Y-63740049D01*
X152570054Y-63740047D01*
X152570053Y-63740047D01*
X152566443Y-63738987D01*
X152431964Y-63699500D01*
X152431961Y-63699500D01*
X152288039Y-63699500D01*
X152288035Y-63699500D01*
X152149949Y-63740046D01*
X152149942Y-63740049D01*
X152028873Y-63817855D01*
X151934622Y-63926628D01*
X151874834Y-64057543D01*
X151854353Y-64199997D01*
X151854353Y-64200002D01*
X151874834Y-64342456D01*
X151887119Y-64369355D01*
X151934623Y-64473373D01*
X151980774Y-64526635D01*
X152033509Y-64587494D01*
X152031471Y-64589259D01*
X152056925Y-64631458D01*
X152059500Y-64653893D01*
X152059500Y-74436025D01*
X152079978Y-74512449D01*
X152102089Y-74550745D01*
X152119540Y-74580972D01*
X152851460Y-75312892D01*
X153523565Y-75984997D01*
X153551342Y-76039514D01*
X153541771Y-76099946D01*
X153498506Y-76143211D01*
X153459709Y-76153810D01*
X153391567Y-76158050D01*
X153391566Y-76158050D01*
X153214392Y-76202189D01*
X153048137Y-76277669D01*
X152898291Y-76381995D01*
X152769814Y-76511715D01*
X152769809Y-76511721D01*
X152759383Y-76526965D01*
X152758889Y-76527598D01*
X152731054Y-76568363D01*
X152698796Y-76598273D01*
X151563166Y-77253929D01*
X151563011Y-77254007D01*
X151520742Y-77278419D01*
X151478632Y-77291412D01*
X151430045Y-77295054D01*
X151428755Y-77295236D01*
X151410245Y-77296650D01*
X151410241Y-77296650D01*
X151233653Y-77343054D01*
X151233645Y-77343057D01*
X151068368Y-77420662D01*
X150919860Y-77526910D01*
X150830726Y-77619243D01*
X150776708Y-77647977D01*
X150716116Y-77639472D01*
X150672096Y-77596977D01*
X150660500Y-77550484D01*
X150660500Y-65253901D01*
X150679407Y-65195710D01*
X150686741Y-65187719D01*
X150686491Y-65187502D01*
X150708462Y-65162146D01*
X150785377Y-65073381D01*
X150845165Y-64942465D01*
X150865647Y-64800008D01*
X150859016Y-64753891D01*
X150845165Y-64657551D01*
X150813270Y-64587711D01*
X150785377Y-64526635D01*
X150691128Y-64417865D01*
X150691127Y-64417864D01*
X150691126Y-64417863D01*
X150570057Y-64340057D01*
X150570054Y-64340055D01*
X150570053Y-64340055D01*
X150570050Y-64340054D01*
X150431964Y-64299508D01*
X150431961Y-64299508D01*
X150288039Y-64299508D01*
X150288035Y-64299508D01*
X150149949Y-64340054D01*
X150149942Y-64340057D01*
X150028873Y-64417863D01*
X149934622Y-64526636D01*
X149874834Y-64657551D01*
X149854353Y-64800005D01*
X144560500Y-64800005D01*
X144560500Y-61353893D01*
X144579407Y-61295702D01*
X144586741Y-61287711D01*
X144586491Y-61287494D01*
X144591128Y-61282143D01*
X144685377Y-61173373D01*
X144745165Y-61042457D01*
X144765647Y-60900000D01*
X144764641Y-60893006D01*
X144745165Y-60757543D01*
X144724498Y-60712289D01*
X144685377Y-60626627D01*
X144591128Y-60517857D01*
X144591127Y-60517856D01*
X144591126Y-60517855D01*
X144470057Y-60440049D01*
X144470054Y-60440047D01*
X144470053Y-60440047D01*
X144470050Y-60440046D01*
X144331964Y-60399500D01*
X144331961Y-60399500D01*
X144188039Y-60399500D01*
X144188035Y-60399500D01*
X144049949Y-60440046D01*
X144049942Y-60440049D01*
X143928873Y-60517855D01*
X143834622Y-60626628D01*
X143774834Y-60757543D01*
X143754353Y-60899997D01*
X142262813Y-60899997D01*
X142263496Y-60893006D01*
X142248060Y-60711064D01*
X142199944Y-60534922D01*
X142192025Y-60518422D01*
X142191494Y-60517100D01*
X142170300Y-60473083D01*
X142160499Y-60430134D01*
X142160499Y-59069889D01*
X142170245Y-59027055D01*
X142173913Y-59019412D01*
X142173969Y-59019297D01*
X142186030Y-58994247D01*
X142189019Y-58988040D01*
X142189019Y-58988039D01*
X142191626Y-58982625D01*
X142191923Y-58981884D01*
X142199982Y-58965093D01*
X142248100Y-58788944D01*
X142263537Y-58606994D01*
X142245781Y-58425257D01*
X142195420Y-58249736D01*
X142114118Y-58086231D01*
X142004562Y-57940145D01*
X142004558Y-57940141D01*
X142004556Y-57940139D01*
X141870374Y-57816307D01*
X141870371Y-57816305D01*
X141870370Y-57816304D01*
X141715977Y-57718802D01*
X141546485Y-57650858D01*
X141546484Y-57650857D01*
X141546480Y-57650856D01*
X141367494Y-57614719D01*
X141367485Y-57614718D01*
X141184918Y-57611577D01*
X141043835Y-57635045D01*
X140983331Y-57625942D01*
X140939732Y-57583014D01*
X140929693Y-57522658D01*
X140957047Y-57467928D01*
X140957496Y-57467474D01*
X142048784Y-56376185D01*
X142103299Y-56348410D01*
X142163731Y-56357981D01*
X142165454Y-56358881D01*
X142196040Y-56375229D01*
X142196046Y-56375232D01*
X142333997Y-56417078D01*
X142394065Y-56435300D01*
X142394070Y-56435301D01*
X142599997Y-56455583D01*
X142600000Y-56455583D01*
X142600003Y-56455583D01*
X142805929Y-56435301D01*
X142805934Y-56435300D01*
X143003954Y-56375232D01*
X143186450Y-56277685D01*
X143346410Y-56146410D01*
X143477685Y-55986450D01*
X143575232Y-55803954D01*
X143635300Y-55605934D01*
X143635301Y-55605929D01*
X143655583Y-55400003D01*
X143655583Y-55399996D01*
X143635301Y-55194070D01*
X143635300Y-55194065D01*
X143606766Y-55100000D01*
X143575232Y-54996046D01*
X143477685Y-54813550D01*
X143346410Y-54653590D01*
X143196123Y-54530253D01*
X144089500Y-54530253D01*
X144089500Y-56269746D01*
X144089501Y-56269758D01*
X144101132Y-56328227D01*
X144101134Y-56328233D01*
X144133177Y-56376188D01*
X144145448Y-56394552D01*
X144211769Y-56438867D01*
X144256231Y-56447711D01*
X144270241Y-56450498D01*
X144270246Y-56450498D01*
X144270252Y-56450500D01*
X144270253Y-56450500D01*
X146009747Y-56450500D01*
X146009748Y-56450500D01*
X146068231Y-56438867D01*
X146134552Y-56394552D01*
X146178867Y-56328231D01*
X146190500Y-56269748D01*
X146190500Y-54530252D01*
X146188921Y-54522316D01*
X146187711Y-54516231D01*
X146178867Y-54471769D01*
X146134552Y-54405448D01*
X146134548Y-54405445D01*
X146068233Y-54361134D01*
X146068231Y-54361133D01*
X146068228Y-54361132D01*
X146068227Y-54361132D01*
X146009758Y-54349501D01*
X146009748Y-54349500D01*
X144270252Y-54349500D01*
X144270251Y-54349500D01*
X144270241Y-54349501D01*
X144211772Y-54361132D01*
X144211766Y-54361134D01*
X144145451Y-54405445D01*
X144145445Y-54405451D01*
X144101134Y-54471766D01*
X144101132Y-54471772D01*
X144089501Y-54530241D01*
X144089500Y-54530253D01*
X143196123Y-54530253D01*
X143186452Y-54522316D01*
X143003954Y-54424768D01*
X142805934Y-54364699D01*
X142805929Y-54364698D01*
X142600003Y-54344417D01*
X142599997Y-54344417D01*
X142394070Y-54364698D01*
X142394065Y-54364699D01*
X142196045Y-54424768D01*
X142013547Y-54522316D01*
X141853595Y-54653585D01*
X141853585Y-54653595D01*
X141722316Y-54813547D01*
X141624768Y-54996045D01*
X141564699Y-55194065D01*
X141564698Y-55194070D01*
X141544417Y-55399996D01*
X141544417Y-55400003D01*
X141564698Y-55605929D01*
X141564699Y-55605934D01*
X141593234Y-55700000D01*
X141624768Y-55803954D01*
X141641118Y-55834543D01*
X141651874Y-55894775D01*
X141625173Y-55949826D01*
X141623812Y-55951215D01*
X140404525Y-57170504D01*
X140350008Y-57198281D01*
X140334521Y-57199500D01*
X138924479Y-57199500D01*
X138866288Y-57180593D01*
X138830324Y-57131093D01*
X138830324Y-57069907D01*
X138854475Y-57030497D01*
X139508782Y-56376188D01*
X139563299Y-56348410D01*
X139623731Y-56357981D01*
X139625454Y-56358881D01*
X139656040Y-56375229D01*
X139656046Y-56375232D01*
X139793997Y-56417078D01*
X139854065Y-56435300D01*
X139854070Y-56435301D01*
X140059997Y-56455583D01*
X140060000Y-56455583D01*
X140060003Y-56455583D01*
X140265929Y-56435301D01*
X140265934Y-56435300D01*
X140463954Y-56375232D01*
X140646450Y-56277685D01*
X140806410Y-56146410D01*
X140937685Y-55986450D01*
X141035232Y-55803954D01*
X141095300Y-55605934D01*
X141095301Y-55605929D01*
X141115583Y-55400003D01*
X141115583Y-55399996D01*
X141095301Y-55194070D01*
X141095300Y-55194065D01*
X141066766Y-55100000D01*
X141035232Y-54996046D01*
X140937685Y-54813550D01*
X140806410Y-54653590D01*
X140656123Y-54530253D01*
X140646452Y-54522316D01*
X140463954Y-54424768D01*
X140265934Y-54364699D01*
X140265929Y-54364698D01*
X140060003Y-54344417D01*
X140059997Y-54344417D01*
X139854070Y-54364698D01*
X139854065Y-54364699D01*
X139656045Y-54424768D01*
X139473547Y-54522316D01*
X139313595Y-54653585D01*
X139313585Y-54653595D01*
X139182316Y-54813547D01*
X139084768Y-54996045D01*
X139024699Y-55194065D01*
X139024698Y-55194070D01*
X139004417Y-55399996D01*
X139004417Y-55400003D01*
X139024698Y-55605929D01*
X139024699Y-55605934D01*
X139053234Y-55700000D01*
X139084768Y-55803954D01*
X139101118Y-55834543D01*
X139111874Y-55894775D01*
X139085173Y-55949826D01*
X139083812Y-55951214D01*
X138264525Y-56770503D01*
X138210008Y-56798281D01*
X138194521Y-56799500D01*
X136784478Y-56799500D01*
X136726287Y-56780593D01*
X136690323Y-56731093D01*
X136690323Y-56669907D01*
X136714474Y-56630497D01*
X136894472Y-56450498D01*
X136968784Y-56376185D01*
X137023299Y-56348409D01*
X137083731Y-56357980D01*
X137085431Y-56358868D01*
X137116046Y-56375232D01*
X137253997Y-56417078D01*
X137314065Y-56435300D01*
X137314070Y-56435301D01*
X137519997Y-56455583D01*
X137520000Y-56455583D01*
X137520003Y-56455583D01*
X137725929Y-56435301D01*
X137725934Y-56435300D01*
X137923954Y-56375232D01*
X138106450Y-56277685D01*
X138266410Y-56146410D01*
X138397685Y-55986450D01*
X138495232Y-55803954D01*
X138555300Y-55605934D01*
X138555301Y-55605929D01*
X138575583Y-55400003D01*
X138575583Y-55399996D01*
X138555301Y-55194070D01*
X138555300Y-55194065D01*
X138526766Y-55100000D01*
X138495232Y-54996046D01*
X138397685Y-54813550D01*
X138266410Y-54653590D01*
X138116123Y-54530253D01*
X138106452Y-54522316D01*
X137923954Y-54424768D01*
X137725934Y-54364699D01*
X137725929Y-54364698D01*
X137520003Y-54344417D01*
X137519997Y-54344417D01*
X137314070Y-54364698D01*
X137314065Y-54364699D01*
X137116045Y-54424768D01*
X136933547Y-54522316D01*
X136773595Y-54653585D01*
X136773585Y-54653595D01*
X136642316Y-54813547D01*
X136544768Y-54996045D01*
X136484699Y-55194065D01*
X136484698Y-55194070D01*
X136464417Y-55399996D01*
X136464417Y-55400003D01*
X136484698Y-55605929D01*
X136484699Y-55605934D01*
X136544768Y-55803954D01*
X136544770Y-55803959D01*
X136561118Y-55834544D01*
X136571874Y-55894777D01*
X136545172Y-55949828D01*
X136543812Y-55951215D01*
X136274526Y-56220503D01*
X136220009Y-56248281D01*
X136204522Y-56249500D01*
X135850478Y-56249500D01*
X135792287Y-56230593D01*
X135756323Y-56181093D01*
X135756323Y-56119907D01*
X135773950Y-56087695D01*
X135857268Y-55986170D01*
X135857275Y-55986160D01*
X135954765Y-55803767D01*
X135954767Y-55803762D01*
X136014808Y-55605836D01*
X136014809Y-55605831D01*
X136025232Y-55500000D01*
X135263788Y-55500000D01*
X135280000Y-55439496D01*
X135280000Y-55360504D01*
X135263788Y-55300000D01*
X136025232Y-55300000D01*
X136025232Y-55299999D01*
X136014809Y-55194168D01*
X136014808Y-55194163D01*
X135954767Y-54996237D01*
X135954765Y-54996232D01*
X135857275Y-54813839D01*
X135857268Y-54813829D01*
X135726059Y-54653949D01*
X135726050Y-54653940D01*
X135566170Y-54522731D01*
X135566160Y-54522724D01*
X135383767Y-54425234D01*
X135383762Y-54425232D01*
X135185836Y-54365191D01*
X135185831Y-54365190D01*
X135080000Y-54354767D01*
X135080000Y-55116211D01*
X135019496Y-55100000D01*
X134940504Y-55100000D01*
X134880000Y-55116211D01*
X134880000Y-54354767D01*
X134879999Y-54354767D01*
X134774168Y-54365190D01*
X134774163Y-54365191D01*
X134576237Y-54425232D01*
X134576232Y-54425234D01*
X134393839Y-54522724D01*
X134393829Y-54522731D01*
X134233949Y-54653940D01*
X134233940Y-54653949D01*
X134102731Y-54813829D01*
X134102724Y-54813839D01*
X134005234Y-54996232D01*
X134005232Y-54996237D01*
X133945191Y-55194163D01*
X133945190Y-55194168D01*
X133934767Y-55299999D01*
X133934768Y-55300000D01*
X134696212Y-55300000D01*
X134680000Y-55360504D01*
X134680000Y-55439496D01*
X134696212Y-55500000D01*
X133934767Y-55500000D01*
X133945190Y-55605831D01*
X133945191Y-55605836D01*
X134005232Y-55803762D01*
X134005234Y-55803767D01*
X134102724Y-55986160D01*
X134102731Y-55986170D01*
X134186050Y-56087695D01*
X134208350Y-56144672D01*
X134192901Y-56203875D01*
X134145604Y-56242690D01*
X134109522Y-56249500D01*
X134049562Y-56249500D01*
X133970438Y-56249500D01*
X133923661Y-56262033D01*
X133894007Y-56269979D01*
X133825493Y-56309536D01*
X133825489Y-56309540D01*
X132375489Y-57759540D01*
X132259014Y-57876015D01*
X132259013Y-57876014D01*
X132203064Y-57931964D01*
X132163505Y-58000482D01*
X132163503Y-58000486D01*
X132143025Y-58076910D01*
X132143025Y-58567290D01*
X132124118Y-58625481D01*
X132116783Y-58633474D01*
X132117034Y-58633691D01*
X132112397Y-58639041D01*
X132112397Y-58639042D01*
X132076373Y-58680616D01*
X132018147Y-58747813D01*
X131958359Y-58878728D01*
X131937878Y-59021182D01*
X126360500Y-59021182D01*
X126360500Y-52960437D01*
X126360499Y-52960435D01*
X126340021Y-52884011D01*
X126340019Y-52884007D01*
X126300460Y-52815489D01*
X126244511Y-52759539D01*
X126244511Y-52759540D01*
X125090546Y-51605575D01*
X125062769Y-51551058D01*
X125062558Y-51521482D01*
X125065647Y-51500000D01*
X125045165Y-51357543D01*
X124985377Y-51226627D01*
X124891128Y-51117857D01*
X124891127Y-51117856D01*
X124891126Y-51117855D01*
X124770057Y-51040049D01*
X124770054Y-51040047D01*
X124770053Y-51040047D01*
X124770050Y-51040046D01*
X124631964Y-50999500D01*
X124631961Y-50999500D01*
X124488039Y-50999500D01*
X124488035Y-50999500D01*
X124349949Y-51040046D01*
X124349942Y-51040049D01*
X124228873Y-51117855D01*
X124134622Y-51226628D01*
X124074834Y-51357543D01*
X124054353Y-51499997D01*
X122451395Y-51499997D01*
X122999877Y-50549999D01*
X123045347Y-50509059D01*
X123085614Y-50500500D01*
X157034386Y-50500500D01*
X157092577Y-50519407D01*
G37*
%TD.AperFunction*%
%TD*%
M02*
