%TF.GenerationSoftware,KiCad,Pcbnew,8.0.8*%
%TF.CreationDate,2025-04-07T13:38:17-04:00*%
%TF.ProjectId,pcb_tile_game_tile_ooo,7063625f-7469-46c6-955f-67616d655f74,1.0*%
%TF.SameCoordinates,Original*%
%TF.FileFunction,AssemblyDrawing,Bot*%
%FSLAX46Y46*%
G04 Gerber Fmt 4.6, Leading zero omitted, Abs format (unit mm)*
G04 Created by KiCad (PCBNEW 8.0.8) date 2025-04-07 13:38:17*
%MOMM*%
%LPD*%
G01*
G04 APERTURE LIST*
%ADD10C,0.150000*%
G04 APERTURE END LIST*
D10*
X145293332Y-87999104D02*
X145150475Y-88046723D01*
X145150475Y-88046723D02*
X144912380Y-88046723D01*
X144912380Y-88046723D02*
X144817142Y-87999104D01*
X144817142Y-87999104D02*
X144769523Y-87951484D01*
X144769523Y-87951484D02*
X144721904Y-87856246D01*
X144721904Y-87856246D02*
X144721904Y-87761008D01*
X144721904Y-87761008D02*
X144769523Y-87665770D01*
X144769523Y-87665770D02*
X144817142Y-87618151D01*
X144817142Y-87618151D02*
X144912380Y-87570532D01*
X144912380Y-87570532D02*
X145102856Y-87522913D01*
X145102856Y-87522913D02*
X145198094Y-87475294D01*
X145198094Y-87475294D02*
X145245713Y-87427675D01*
X145245713Y-87427675D02*
X145293332Y-87332437D01*
X145293332Y-87332437D02*
X145293332Y-87237199D01*
X145293332Y-87237199D02*
X145245713Y-87141961D01*
X145245713Y-87141961D02*
X145198094Y-87094342D01*
X145198094Y-87094342D02*
X145102856Y-87046723D01*
X145102856Y-87046723D02*
X144864761Y-87046723D01*
X144864761Y-87046723D02*
X144721904Y-87094342D01*
X144293332Y-88046723D02*
X144293332Y-87046723D01*
X143721904Y-88046723D02*
X144150475Y-87475294D01*
X143721904Y-87046723D02*
X144293332Y-87618151D01*
X142864761Y-87046723D02*
X143055237Y-87046723D01*
X143055237Y-87046723D02*
X143150475Y-87094342D01*
X143150475Y-87094342D02*
X143198094Y-87141961D01*
X143198094Y-87141961D02*
X143293332Y-87284818D01*
X143293332Y-87284818D02*
X143340951Y-87475294D01*
X143340951Y-87475294D02*
X143340951Y-87856246D01*
X143340951Y-87856246D02*
X143293332Y-87951484D01*
X143293332Y-87951484D02*
X143245713Y-87999104D01*
X143245713Y-87999104D02*
X143150475Y-88046723D01*
X143150475Y-88046723D02*
X142959999Y-88046723D01*
X142959999Y-88046723D02*
X142864761Y-87999104D01*
X142864761Y-87999104D02*
X142817142Y-87951484D01*
X142817142Y-87951484D02*
X142769523Y-87856246D01*
X142769523Y-87856246D02*
X142769523Y-87618151D01*
X142769523Y-87618151D02*
X142817142Y-87522913D01*
X142817142Y-87522913D02*
X142864761Y-87475294D01*
X142864761Y-87475294D02*
X142959999Y-87427675D01*
X142959999Y-87427675D02*
X143150475Y-87427675D01*
X143150475Y-87427675D02*
X143245713Y-87475294D01*
X143245713Y-87475294D02*
X143293332Y-87522913D01*
X143293332Y-87522913D02*
X143340951Y-87618151D01*
X142198094Y-87475294D02*
X142293332Y-87427675D01*
X142293332Y-87427675D02*
X142340951Y-87380056D01*
X142340951Y-87380056D02*
X142388570Y-87284818D01*
X142388570Y-87284818D02*
X142388570Y-87237199D01*
X142388570Y-87237199D02*
X142340951Y-87141961D01*
X142340951Y-87141961D02*
X142293332Y-87094342D01*
X142293332Y-87094342D02*
X142198094Y-87046723D01*
X142198094Y-87046723D02*
X142007618Y-87046723D01*
X142007618Y-87046723D02*
X141912380Y-87094342D01*
X141912380Y-87094342D02*
X141864761Y-87141961D01*
X141864761Y-87141961D02*
X141817142Y-87237199D01*
X141817142Y-87237199D02*
X141817142Y-87284818D01*
X141817142Y-87284818D02*
X141864761Y-87380056D01*
X141864761Y-87380056D02*
X141912380Y-87427675D01*
X141912380Y-87427675D02*
X142007618Y-87475294D01*
X142007618Y-87475294D02*
X142198094Y-87475294D01*
X142198094Y-87475294D02*
X142293332Y-87522913D01*
X142293332Y-87522913D02*
X142340951Y-87570532D01*
X142340951Y-87570532D02*
X142388570Y-87665770D01*
X142388570Y-87665770D02*
X142388570Y-87856246D01*
X142388570Y-87856246D02*
X142340951Y-87951484D01*
X142340951Y-87951484D02*
X142293332Y-87999104D01*
X142293332Y-87999104D02*
X142198094Y-88046723D01*
X142198094Y-88046723D02*
X142007618Y-88046723D01*
X142007618Y-88046723D02*
X141912380Y-87999104D01*
X141912380Y-87999104D02*
X141864761Y-87951484D01*
X141864761Y-87951484D02*
X141817142Y-87856246D01*
X141817142Y-87856246D02*
X141817142Y-87665770D01*
X141817142Y-87665770D02*
X141864761Y-87570532D01*
X141864761Y-87570532D02*
X141912380Y-87522913D01*
X141912380Y-87522913D02*
X142007618Y-87475294D01*
X140864761Y-88046723D02*
X141436189Y-88046723D01*
X141150475Y-88046723D02*
X141150475Y-87046723D01*
X141150475Y-87046723D02*
X141245713Y-87189580D01*
X141245713Y-87189580D02*
X141340951Y-87284818D01*
X141340951Y-87284818D02*
X141436189Y-87332437D01*
X140483808Y-87141961D02*
X140436189Y-87094342D01*
X140436189Y-87094342D02*
X140340951Y-87046723D01*
X140340951Y-87046723D02*
X140102856Y-87046723D01*
X140102856Y-87046723D02*
X140007618Y-87094342D01*
X140007618Y-87094342D02*
X139959999Y-87141961D01*
X139959999Y-87141961D02*
X139912380Y-87237199D01*
X139912380Y-87237199D02*
X139912380Y-87332437D01*
X139912380Y-87332437D02*
X139959999Y-87475294D01*
X139959999Y-87475294D02*
X140531427Y-88046723D01*
X140531427Y-88046723D02*
X139912380Y-88046723D01*
X139483808Y-88046723D02*
X139483808Y-87046723D01*
X139483808Y-87046723D02*
X139150475Y-87761008D01*
X139150475Y-87761008D02*
X138817142Y-87046723D01*
X138817142Y-87046723D02*
X138817142Y-88046723D01*
X138340951Y-88046723D02*
X138340951Y-87046723D01*
X137864761Y-88046723D02*
X137864761Y-87046723D01*
X137864761Y-87046723D02*
X137293333Y-88046723D01*
X137293333Y-88046723D02*
X137293333Y-87046723D01*
X136817142Y-88046723D02*
X136817142Y-87046723D01*
X136340952Y-87665770D02*
X135579048Y-87665770D01*
X135102857Y-87522913D02*
X134769524Y-87522913D01*
X134626667Y-88046723D02*
X135102857Y-88046723D01*
X135102857Y-88046723D02*
X135102857Y-87046723D01*
X135102857Y-87046723D02*
X134626667Y-87046723D01*
X145293332Y-79899104D02*
X145150475Y-79946723D01*
X145150475Y-79946723D02*
X144912380Y-79946723D01*
X144912380Y-79946723D02*
X144817142Y-79899104D01*
X144817142Y-79899104D02*
X144769523Y-79851484D01*
X144769523Y-79851484D02*
X144721904Y-79756246D01*
X144721904Y-79756246D02*
X144721904Y-79661008D01*
X144721904Y-79661008D02*
X144769523Y-79565770D01*
X144769523Y-79565770D02*
X144817142Y-79518151D01*
X144817142Y-79518151D02*
X144912380Y-79470532D01*
X144912380Y-79470532D02*
X145102856Y-79422913D01*
X145102856Y-79422913D02*
X145198094Y-79375294D01*
X145198094Y-79375294D02*
X145245713Y-79327675D01*
X145245713Y-79327675D02*
X145293332Y-79232437D01*
X145293332Y-79232437D02*
X145293332Y-79137199D01*
X145293332Y-79137199D02*
X145245713Y-79041961D01*
X145245713Y-79041961D02*
X145198094Y-78994342D01*
X145198094Y-78994342D02*
X145102856Y-78946723D01*
X145102856Y-78946723D02*
X144864761Y-78946723D01*
X144864761Y-78946723D02*
X144721904Y-78994342D01*
X144293332Y-79946723D02*
X144293332Y-78946723D01*
X143721904Y-79946723D02*
X144150475Y-79375294D01*
X143721904Y-78946723D02*
X144293332Y-79518151D01*
X142864761Y-78946723D02*
X143055237Y-78946723D01*
X143055237Y-78946723D02*
X143150475Y-78994342D01*
X143150475Y-78994342D02*
X143198094Y-79041961D01*
X143198094Y-79041961D02*
X143293332Y-79184818D01*
X143293332Y-79184818D02*
X143340951Y-79375294D01*
X143340951Y-79375294D02*
X143340951Y-79756246D01*
X143340951Y-79756246D02*
X143293332Y-79851484D01*
X143293332Y-79851484D02*
X143245713Y-79899104D01*
X143245713Y-79899104D02*
X143150475Y-79946723D01*
X143150475Y-79946723D02*
X142959999Y-79946723D01*
X142959999Y-79946723D02*
X142864761Y-79899104D01*
X142864761Y-79899104D02*
X142817142Y-79851484D01*
X142817142Y-79851484D02*
X142769523Y-79756246D01*
X142769523Y-79756246D02*
X142769523Y-79518151D01*
X142769523Y-79518151D02*
X142817142Y-79422913D01*
X142817142Y-79422913D02*
X142864761Y-79375294D01*
X142864761Y-79375294D02*
X142959999Y-79327675D01*
X142959999Y-79327675D02*
X143150475Y-79327675D01*
X143150475Y-79327675D02*
X143245713Y-79375294D01*
X143245713Y-79375294D02*
X143293332Y-79422913D01*
X143293332Y-79422913D02*
X143340951Y-79518151D01*
X142198094Y-79375294D02*
X142293332Y-79327675D01*
X142293332Y-79327675D02*
X142340951Y-79280056D01*
X142340951Y-79280056D02*
X142388570Y-79184818D01*
X142388570Y-79184818D02*
X142388570Y-79137199D01*
X142388570Y-79137199D02*
X142340951Y-79041961D01*
X142340951Y-79041961D02*
X142293332Y-78994342D01*
X142293332Y-78994342D02*
X142198094Y-78946723D01*
X142198094Y-78946723D02*
X142007618Y-78946723D01*
X142007618Y-78946723D02*
X141912380Y-78994342D01*
X141912380Y-78994342D02*
X141864761Y-79041961D01*
X141864761Y-79041961D02*
X141817142Y-79137199D01*
X141817142Y-79137199D02*
X141817142Y-79184818D01*
X141817142Y-79184818D02*
X141864761Y-79280056D01*
X141864761Y-79280056D02*
X141912380Y-79327675D01*
X141912380Y-79327675D02*
X142007618Y-79375294D01*
X142007618Y-79375294D02*
X142198094Y-79375294D01*
X142198094Y-79375294D02*
X142293332Y-79422913D01*
X142293332Y-79422913D02*
X142340951Y-79470532D01*
X142340951Y-79470532D02*
X142388570Y-79565770D01*
X142388570Y-79565770D02*
X142388570Y-79756246D01*
X142388570Y-79756246D02*
X142340951Y-79851484D01*
X142340951Y-79851484D02*
X142293332Y-79899104D01*
X142293332Y-79899104D02*
X142198094Y-79946723D01*
X142198094Y-79946723D02*
X142007618Y-79946723D01*
X142007618Y-79946723D02*
X141912380Y-79899104D01*
X141912380Y-79899104D02*
X141864761Y-79851484D01*
X141864761Y-79851484D02*
X141817142Y-79756246D01*
X141817142Y-79756246D02*
X141817142Y-79565770D01*
X141817142Y-79565770D02*
X141864761Y-79470532D01*
X141864761Y-79470532D02*
X141912380Y-79422913D01*
X141912380Y-79422913D02*
X142007618Y-79375294D01*
X140864761Y-79946723D02*
X141436189Y-79946723D01*
X141150475Y-79946723D02*
X141150475Y-78946723D01*
X141150475Y-78946723D02*
X141245713Y-79089580D01*
X141245713Y-79089580D02*
X141340951Y-79184818D01*
X141340951Y-79184818D02*
X141436189Y-79232437D01*
X140483808Y-79041961D02*
X140436189Y-78994342D01*
X140436189Y-78994342D02*
X140340951Y-78946723D01*
X140340951Y-78946723D02*
X140102856Y-78946723D01*
X140102856Y-78946723D02*
X140007618Y-78994342D01*
X140007618Y-78994342D02*
X139959999Y-79041961D01*
X139959999Y-79041961D02*
X139912380Y-79137199D01*
X139912380Y-79137199D02*
X139912380Y-79232437D01*
X139912380Y-79232437D02*
X139959999Y-79375294D01*
X139959999Y-79375294D02*
X140531427Y-79946723D01*
X140531427Y-79946723D02*
X139912380Y-79946723D01*
X139483808Y-79946723D02*
X139483808Y-78946723D01*
X139483808Y-78946723D02*
X139150475Y-79661008D01*
X139150475Y-79661008D02*
X138817142Y-78946723D01*
X138817142Y-78946723D02*
X138817142Y-79946723D01*
X138340951Y-79946723D02*
X138340951Y-78946723D01*
X137864761Y-79946723D02*
X137864761Y-78946723D01*
X137864761Y-78946723D02*
X137293333Y-79946723D01*
X137293333Y-79946723D02*
X137293333Y-78946723D01*
X136817142Y-79946723D02*
X136817142Y-78946723D01*
X136340952Y-79565770D02*
X135579048Y-79565770D01*
X135102857Y-79422913D02*
X134769524Y-79422913D01*
X134626667Y-79946723D02*
X135102857Y-79946723D01*
X135102857Y-79946723D02*
X135102857Y-78946723D01*
X135102857Y-78946723D02*
X134626667Y-78946723D01*
X133197170Y-76199799D02*
X133166981Y-76347326D01*
X133166981Y-76347326D02*
X133047934Y-76553523D01*
X133047934Y-76553523D02*
X132959075Y-76612192D01*
X132959075Y-76612192D02*
X132894026Y-76629622D01*
X132894026Y-76629622D02*
X132787738Y-76623242D01*
X132787738Y-76623242D02*
X132705260Y-76575623D01*
X132705260Y-76575623D02*
X132646591Y-76486764D01*
X132646591Y-76486764D02*
X132629161Y-76421716D01*
X132629161Y-76421716D02*
X132635541Y-76315428D01*
X132635541Y-76315428D02*
X132689539Y-76126661D01*
X132689539Y-76126661D02*
X132695919Y-76020373D01*
X132695919Y-76020373D02*
X132678489Y-75955324D01*
X132678489Y-75955324D02*
X132619820Y-75866465D01*
X132619820Y-75866465D02*
X132537342Y-75818846D01*
X132537342Y-75818846D02*
X132431053Y-75812467D01*
X132431053Y-75812467D02*
X132366005Y-75829896D01*
X132366005Y-75829896D02*
X132277146Y-75888566D01*
X132277146Y-75888566D02*
X132158099Y-76094762D01*
X132158099Y-76094762D02*
X132127909Y-76242290D01*
X132738410Y-77089634D02*
X131872384Y-76589634D01*
X132452695Y-77584505D02*
X132172109Y-76927637D01*
X131586670Y-77084505D02*
X132367256Y-76875348D01*
X131158099Y-77826813D02*
X131253337Y-77661856D01*
X131253337Y-77661856D02*
X131342195Y-77603187D01*
X131342195Y-77603187D02*
X131407244Y-77585757D01*
X131407244Y-77585757D02*
X131578581Y-77574707D01*
X131578581Y-77574707D02*
X131767348Y-77628706D01*
X131767348Y-77628706D02*
X132097262Y-77819182D01*
X132097262Y-77819182D02*
X132155931Y-77908040D01*
X132155931Y-77908040D02*
X132173361Y-77973089D01*
X132173361Y-77973089D02*
X132166981Y-78079377D01*
X132166981Y-78079377D02*
X132071743Y-78244334D01*
X132071743Y-78244334D02*
X131982885Y-78303003D01*
X131982885Y-78303003D02*
X131917836Y-78320433D01*
X131917836Y-78320433D02*
X131811548Y-78314053D01*
X131811548Y-78314053D02*
X131605351Y-78195006D01*
X131605351Y-78195006D02*
X131546682Y-78106147D01*
X131546682Y-78106147D02*
X131529252Y-78041099D01*
X131529252Y-78041099D02*
X131535632Y-77934810D01*
X131535632Y-77934810D02*
X131630870Y-77769853D01*
X131630870Y-77769853D02*
X131719729Y-77711184D01*
X131719729Y-77711184D02*
X131784777Y-77693754D01*
X131784777Y-77693754D02*
X131891066Y-77700134D01*
X131195919Y-78618449D02*
X131202299Y-78512161D01*
X131202299Y-78512161D02*
X131184869Y-78447112D01*
X131184869Y-78447112D02*
X131126200Y-78358254D01*
X131126200Y-78358254D02*
X131084961Y-78334444D01*
X131084961Y-78334444D02*
X130978672Y-78328064D01*
X130978672Y-78328064D02*
X130913624Y-78345494D01*
X130913624Y-78345494D02*
X130824765Y-78404163D01*
X130824765Y-78404163D02*
X130729527Y-78569120D01*
X130729527Y-78569120D02*
X130723147Y-78675409D01*
X130723147Y-78675409D02*
X130740577Y-78740457D01*
X130740577Y-78740457D02*
X130799246Y-78829316D01*
X130799246Y-78829316D02*
X130840486Y-78853125D01*
X130840486Y-78853125D02*
X130946774Y-78859505D01*
X130946774Y-78859505D02*
X131011823Y-78842075D01*
X131011823Y-78842075D02*
X131100681Y-78783406D01*
X131100681Y-78783406D02*
X131195919Y-78618449D01*
X131195919Y-78618449D02*
X131284777Y-78559780D01*
X131284777Y-78559780D02*
X131349826Y-78542350D01*
X131349826Y-78542350D02*
X131456114Y-78548730D01*
X131456114Y-78548730D02*
X131621072Y-78643968D01*
X131621072Y-78643968D02*
X131679741Y-78732826D01*
X131679741Y-78732826D02*
X131697170Y-78797875D01*
X131697170Y-78797875D02*
X131690791Y-78904163D01*
X131690791Y-78904163D02*
X131595553Y-79069120D01*
X131595553Y-79069120D02*
X131506694Y-79127790D01*
X131506694Y-79127790D02*
X131441645Y-79145219D01*
X131441645Y-79145219D02*
X131335357Y-79138840D01*
X131335357Y-79138840D02*
X131170400Y-79043601D01*
X131170400Y-79043601D02*
X131111731Y-78954743D01*
X131111731Y-78954743D02*
X131094301Y-78889694D01*
X131094301Y-78889694D02*
X131100681Y-78783406D01*
X131024124Y-80058864D02*
X131309838Y-79563992D01*
X131166981Y-79811428D02*
X130300956Y-79311428D01*
X130300956Y-79311428D02*
X130472293Y-79300378D01*
X130472293Y-79300378D02*
X130602390Y-79265518D01*
X130602390Y-79265518D02*
X130691249Y-79206849D01*
X130050101Y-79936397D02*
X129985052Y-79953827D01*
X129985052Y-79953827D02*
X129896194Y-80012496D01*
X129896194Y-80012496D02*
X129777146Y-80218693D01*
X129777146Y-80218693D02*
X129770766Y-80324981D01*
X129770766Y-80324981D02*
X129788196Y-80390030D01*
X129788196Y-80390030D02*
X129846865Y-80478888D01*
X129846865Y-80478888D02*
X129929344Y-80526507D01*
X129929344Y-80526507D02*
X130076871Y-80556696D01*
X130076871Y-80556696D02*
X130857457Y-80347539D01*
X130857457Y-80347539D02*
X130547933Y-80883650D01*
X130333648Y-81254804D02*
X129467622Y-80754804D01*
X129467622Y-80754804D02*
X129919545Y-81400622D01*
X129919545Y-81400622D02*
X129134289Y-81332154D01*
X129134289Y-81332154D02*
X130000314Y-81832154D01*
X129762219Y-82244547D02*
X128896194Y-81744547D01*
X129524124Y-82656940D02*
X128658099Y-82156940D01*
X128658099Y-82156940D02*
X129238410Y-83151811D01*
X129238410Y-83151811D02*
X128372385Y-82651811D01*
X129000315Y-83564204D02*
X128134289Y-83064204D01*
X128432305Y-83786121D02*
X128051353Y-84445950D01*
X127689540Y-84786914D02*
X127522873Y-85075589D01*
X127905077Y-85461212D02*
X128143172Y-85048819D01*
X128143172Y-85048819D02*
X127277147Y-84548819D01*
X127277147Y-84548819D02*
X127039052Y-84961212D01*
X152456642Y-85437401D02*
X152343974Y-85337493D01*
X152343974Y-85337493D02*
X152224927Y-85131296D01*
X152224927Y-85131296D02*
X152218547Y-85025008D01*
X152218547Y-85025008D02*
X152235977Y-84959959D01*
X152235977Y-84959959D02*
X152294646Y-84871101D01*
X152294646Y-84871101D02*
X152377125Y-84823482D01*
X152377125Y-84823482D02*
X152483413Y-84817102D01*
X152483413Y-84817102D02*
X152548462Y-84834532D01*
X152548462Y-84834532D02*
X152637320Y-84893201D01*
X152637320Y-84893201D02*
X152773797Y-85034349D01*
X152773797Y-85034349D02*
X152862656Y-85093018D01*
X152862656Y-85093018D02*
X152927704Y-85110448D01*
X152927704Y-85110448D02*
X153033993Y-85104068D01*
X153033993Y-85104068D02*
X153116471Y-85056449D01*
X153116471Y-85056449D02*
X153175140Y-84967590D01*
X153175140Y-84967590D02*
X153192570Y-84902542D01*
X153192570Y-84902542D02*
X153186190Y-84796254D01*
X153186190Y-84796254D02*
X153067143Y-84590057D01*
X153067143Y-84590057D02*
X152954475Y-84490149D01*
X151915403Y-84595185D02*
X152781428Y-84095185D01*
X151629689Y-84100314D02*
X152338846Y-84185753D01*
X152495714Y-83600314D02*
X152286557Y-84380900D01*
X152067143Y-82858006D02*
X152162381Y-83022963D01*
X152162381Y-83022963D02*
X152168761Y-83129251D01*
X152168761Y-83129251D02*
X152151331Y-83194300D01*
X152151331Y-83194300D02*
X152075232Y-83348207D01*
X152075232Y-83348207D02*
X151934084Y-83484685D01*
X151934084Y-83484685D02*
X151604170Y-83675161D01*
X151604170Y-83675161D02*
X151497882Y-83681541D01*
X151497882Y-83681541D02*
X151432833Y-83664111D01*
X151432833Y-83664111D02*
X151343974Y-83605442D01*
X151343974Y-83605442D02*
X151248736Y-83440485D01*
X151248736Y-83440485D02*
X151242357Y-83334197D01*
X151242357Y-83334197D02*
X151259786Y-83269148D01*
X151259786Y-83269148D02*
X151318455Y-83180289D01*
X151318455Y-83180289D02*
X151524652Y-83061242D01*
X151524652Y-83061242D02*
X151630940Y-83054862D01*
X151630940Y-83054862D02*
X151695989Y-83072292D01*
X151695989Y-83072292D02*
X151784847Y-83130961D01*
X151784847Y-83130961D02*
X151880085Y-83295918D01*
X151880085Y-83295918D02*
X151886465Y-83402206D01*
X151886465Y-83402206D02*
X151869035Y-83467255D01*
X151869035Y-83467255D02*
X151810366Y-83556113D01*
X151362656Y-82494942D02*
X151451514Y-82553611D01*
X151451514Y-82553611D02*
X151516563Y-82571040D01*
X151516563Y-82571040D02*
X151622851Y-82564661D01*
X151622851Y-82564661D02*
X151664090Y-82540851D01*
X151664090Y-82540851D02*
X151722759Y-82451993D01*
X151722759Y-82451993D02*
X151740189Y-82386944D01*
X151740189Y-82386944D02*
X151733809Y-82280656D01*
X151733809Y-82280656D02*
X151638571Y-82115699D01*
X151638571Y-82115699D02*
X151549713Y-82057030D01*
X151549713Y-82057030D02*
X151484664Y-82039600D01*
X151484664Y-82039600D02*
X151378376Y-82045979D01*
X151378376Y-82045979D02*
X151337137Y-82069789D01*
X151337137Y-82069789D02*
X151278468Y-82158647D01*
X151278468Y-82158647D02*
X151261038Y-82223696D01*
X151261038Y-82223696D02*
X151267418Y-82329984D01*
X151267418Y-82329984D02*
X151362656Y-82494942D01*
X151362656Y-82494942D02*
X151369035Y-82601230D01*
X151369035Y-82601230D02*
X151351606Y-82666278D01*
X151351606Y-82666278D02*
X151292936Y-82755137D01*
X151292936Y-82755137D02*
X151127979Y-82850375D01*
X151127979Y-82850375D02*
X151021691Y-82856755D01*
X151021691Y-82856755D02*
X150956642Y-82839325D01*
X150956642Y-82839325D02*
X150867784Y-82780656D01*
X150867784Y-82780656D02*
X150772546Y-82615699D01*
X150772546Y-82615699D02*
X150766166Y-82509410D01*
X150766166Y-82509410D02*
X150783596Y-82444362D01*
X150783596Y-82444362D02*
X150842265Y-82355503D01*
X150842265Y-82355503D02*
X151007222Y-82260265D01*
X151007222Y-82260265D02*
X151113510Y-82253885D01*
X151113510Y-82253885D02*
X151178559Y-82271315D01*
X151178559Y-82271315D02*
X151267418Y-82329984D01*
X150201117Y-81625955D02*
X150486832Y-82120827D01*
X150343974Y-81873391D02*
X151210000Y-81373391D01*
X151210000Y-81373391D02*
X151133901Y-81527298D01*
X151133901Y-81527298D02*
X151099041Y-81657396D01*
X151099041Y-81657396D02*
X151105421Y-81763684D01*
X150794188Y-80843660D02*
X150811618Y-80778611D01*
X150811618Y-80778611D02*
X150805238Y-80672323D01*
X150805238Y-80672323D02*
X150686190Y-80466126D01*
X150686190Y-80466126D02*
X150597332Y-80407457D01*
X150597332Y-80407457D02*
X150532283Y-80390027D01*
X150532283Y-80390027D02*
X150425995Y-80396407D01*
X150425995Y-80396407D02*
X150343516Y-80444026D01*
X150343516Y-80444026D02*
X150243608Y-80556694D01*
X150243608Y-80556694D02*
X150034451Y-81337280D01*
X150034451Y-81337280D02*
X149724927Y-80801169D01*
X149510641Y-80430015D02*
X150376666Y-79930015D01*
X150376666Y-79930015D02*
X149591410Y-79998483D01*
X149591410Y-79998483D02*
X150043333Y-79352665D01*
X150043333Y-79352665D02*
X149177308Y-79852665D01*
X148939213Y-79440272D02*
X149805238Y-78940272D01*
X148701118Y-79027879D02*
X149567143Y-78527879D01*
X149567143Y-78527879D02*
X148415403Y-78533008D01*
X148415403Y-78533008D02*
X149281429Y-78033008D01*
X148177308Y-78120615D02*
X149043333Y-77620615D01*
X148269127Y-77517746D02*
X147888175Y-76857917D01*
X147773798Y-76374096D02*
X147607131Y-76085421D01*
X147082070Y-76223607D02*
X147320166Y-76636000D01*
X147320166Y-76636000D02*
X148186191Y-76136000D01*
X148186191Y-76136000D02*
X147948096Y-75723607D01*
X122857123Y-99616687D02*
X122744455Y-99516779D01*
X122744455Y-99516779D02*
X122625408Y-99310582D01*
X122625408Y-99310582D02*
X122619028Y-99204294D01*
X122619028Y-99204294D02*
X122636458Y-99139245D01*
X122636458Y-99139245D02*
X122695127Y-99050387D01*
X122695127Y-99050387D02*
X122777606Y-99002768D01*
X122777606Y-99002768D02*
X122883894Y-98996388D01*
X122883894Y-98996388D02*
X122948943Y-99013818D01*
X122948943Y-99013818D02*
X123037801Y-99072487D01*
X123037801Y-99072487D02*
X123174278Y-99213635D01*
X123174278Y-99213635D02*
X123263137Y-99272304D01*
X123263137Y-99272304D02*
X123328185Y-99289734D01*
X123328185Y-99289734D02*
X123434474Y-99283354D01*
X123434474Y-99283354D02*
X123516952Y-99235735D01*
X123516952Y-99235735D02*
X123575621Y-99146876D01*
X123575621Y-99146876D02*
X123593051Y-99081828D01*
X123593051Y-99081828D02*
X123586671Y-98975540D01*
X123586671Y-98975540D02*
X123467624Y-98769343D01*
X123467624Y-98769343D02*
X123354956Y-98669435D01*
X122315884Y-98774471D02*
X123181909Y-98274471D01*
X122030170Y-98279600D02*
X122739327Y-98365039D01*
X122896195Y-97779600D02*
X122687038Y-98560186D01*
X122467624Y-97037292D02*
X122562862Y-97202249D01*
X122562862Y-97202249D02*
X122569242Y-97308537D01*
X122569242Y-97308537D02*
X122551812Y-97373586D01*
X122551812Y-97373586D02*
X122475713Y-97527493D01*
X122475713Y-97527493D02*
X122334565Y-97663971D01*
X122334565Y-97663971D02*
X122004651Y-97854447D01*
X122004651Y-97854447D02*
X121898363Y-97860827D01*
X121898363Y-97860827D02*
X121833314Y-97843397D01*
X121833314Y-97843397D02*
X121744455Y-97784728D01*
X121744455Y-97784728D02*
X121649217Y-97619771D01*
X121649217Y-97619771D02*
X121642838Y-97513483D01*
X121642838Y-97513483D02*
X121660267Y-97448434D01*
X121660267Y-97448434D02*
X121718936Y-97359575D01*
X121718936Y-97359575D02*
X121925133Y-97240528D01*
X121925133Y-97240528D02*
X122031421Y-97234148D01*
X122031421Y-97234148D02*
X122096470Y-97251578D01*
X122096470Y-97251578D02*
X122185328Y-97310247D01*
X122185328Y-97310247D02*
X122280566Y-97475204D01*
X122280566Y-97475204D02*
X122286946Y-97581492D01*
X122286946Y-97581492D02*
X122269516Y-97646541D01*
X122269516Y-97646541D02*
X122210847Y-97735399D01*
X121763137Y-96674228D02*
X121851995Y-96732897D01*
X121851995Y-96732897D02*
X121917044Y-96750326D01*
X121917044Y-96750326D02*
X122023332Y-96743947D01*
X122023332Y-96743947D02*
X122064571Y-96720137D01*
X122064571Y-96720137D02*
X122123240Y-96631279D01*
X122123240Y-96631279D02*
X122140670Y-96566230D01*
X122140670Y-96566230D02*
X122134290Y-96459942D01*
X122134290Y-96459942D02*
X122039052Y-96294985D01*
X122039052Y-96294985D02*
X121950194Y-96236316D01*
X121950194Y-96236316D02*
X121885145Y-96218886D01*
X121885145Y-96218886D02*
X121778857Y-96225265D01*
X121778857Y-96225265D02*
X121737618Y-96249075D01*
X121737618Y-96249075D02*
X121678949Y-96337933D01*
X121678949Y-96337933D02*
X121661519Y-96402982D01*
X121661519Y-96402982D02*
X121667899Y-96509270D01*
X121667899Y-96509270D02*
X121763137Y-96674228D01*
X121763137Y-96674228D02*
X121769516Y-96780516D01*
X121769516Y-96780516D02*
X121752087Y-96845564D01*
X121752087Y-96845564D02*
X121693417Y-96934423D01*
X121693417Y-96934423D02*
X121528460Y-97029661D01*
X121528460Y-97029661D02*
X121422172Y-97036041D01*
X121422172Y-97036041D02*
X121357123Y-97018611D01*
X121357123Y-97018611D02*
X121268265Y-96959942D01*
X121268265Y-96959942D02*
X121173027Y-96794985D01*
X121173027Y-96794985D02*
X121166647Y-96688696D01*
X121166647Y-96688696D02*
X121184077Y-96623648D01*
X121184077Y-96623648D02*
X121242746Y-96534789D01*
X121242746Y-96534789D02*
X121407703Y-96439551D01*
X121407703Y-96439551D02*
X121513991Y-96433171D01*
X121513991Y-96433171D02*
X121579040Y-96450601D01*
X121579040Y-96450601D02*
X121667899Y-96509270D01*
X120601598Y-95805241D02*
X120887313Y-96300113D01*
X120744455Y-96052677D02*
X121610481Y-95552677D01*
X121610481Y-95552677D02*
X121534382Y-95706584D01*
X121534382Y-95706584D02*
X121499522Y-95836682D01*
X121499522Y-95836682D02*
X121505902Y-95942970D01*
X121194669Y-95022946D02*
X121212099Y-94957897D01*
X121212099Y-94957897D02*
X121205719Y-94851609D01*
X121205719Y-94851609D02*
X121086671Y-94645412D01*
X121086671Y-94645412D02*
X120997813Y-94586743D01*
X120997813Y-94586743D02*
X120932764Y-94569313D01*
X120932764Y-94569313D02*
X120826476Y-94575693D01*
X120826476Y-94575693D02*
X120743997Y-94623312D01*
X120743997Y-94623312D02*
X120644089Y-94735980D01*
X120644089Y-94735980D02*
X120434932Y-95516566D01*
X120434932Y-95516566D02*
X120125408Y-94980455D01*
X119911122Y-94609301D02*
X120777147Y-94109301D01*
X120777147Y-94109301D02*
X119991891Y-94177769D01*
X119991891Y-94177769D02*
X120443814Y-93531951D01*
X120443814Y-93531951D02*
X119577789Y-94031951D01*
X119339694Y-93619558D02*
X120205719Y-93119558D01*
X119101599Y-93207165D02*
X119967624Y-92707165D01*
X119967624Y-92707165D02*
X118815884Y-92712294D01*
X118815884Y-92712294D02*
X119681910Y-92212294D01*
X118577789Y-92299901D02*
X119443814Y-91799901D01*
X118669608Y-91697032D02*
X118288656Y-91037203D01*
X118174279Y-90553382D02*
X118007612Y-90264707D01*
X117482551Y-90402893D02*
X117720647Y-90815286D01*
X117720647Y-90815286D02*
X118586672Y-90315286D01*
X118586672Y-90315286D02*
X118348577Y-89902893D01*
X145293332Y-71799104D02*
X145150475Y-71846723D01*
X145150475Y-71846723D02*
X144912380Y-71846723D01*
X144912380Y-71846723D02*
X144817142Y-71799104D01*
X144817142Y-71799104D02*
X144769523Y-71751484D01*
X144769523Y-71751484D02*
X144721904Y-71656246D01*
X144721904Y-71656246D02*
X144721904Y-71561008D01*
X144721904Y-71561008D02*
X144769523Y-71465770D01*
X144769523Y-71465770D02*
X144817142Y-71418151D01*
X144817142Y-71418151D02*
X144912380Y-71370532D01*
X144912380Y-71370532D02*
X145102856Y-71322913D01*
X145102856Y-71322913D02*
X145198094Y-71275294D01*
X145198094Y-71275294D02*
X145245713Y-71227675D01*
X145245713Y-71227675D02*
X145293332Y-71132437D01*
X145293332Y-71132437D02*
X145293332Y-71037199D01*
X145293332Y-71037199D02*
X145245713Y-70941961D01*
X145245713Y-70941961D02*
X145198094Y-70894342D01*
X145198094Y-70894342D02*
X145102856Y-70846723D01*
X145102856Y-70846723D02*
X144864761Y-70846723D01*
X144864761Y-70846723D02*
X144721904Y-70894342D01*
X144293332Y-71846723D02*
X144293332Y-70846723D01*
X143721904Y-71846723D02*
X144150475Y-71275294D01*
X143721904Y-70846723D02*
X144293332Y-71418151D01*
X142864761Y-70846723D02*
X143055237Y-70846723D01*
X143055237Y-70846723D02*
X143150475Y-70894342D01*
X143150475Y-70894342D02*
X143198094Y-70941961D01*
X143198094Y-70941961D02*
X143293332Y-71084818D01*
X143293332Y-71084818D02*
X143340951Y-71275294D01*
X143340951Y-71275294D02*
X143340951Y-71656246D01*
X143340951Y-71656246D02*
X143293332Y-71751484D01*
X143293332Y-71751484D02*
X143245713Y-71799104D01*
X143245713Y-71799104D02*
X143150475Y-71846723D01*
X143150475Y-71846723D02*
X142959999Y-71846723D01*
X142959999Y-71846723D02*
X142864761Y-71799104D01*
X142864761Y-71799104D02*
X142817142Y-71751484D01*
X142817142Y-71751484D02*
X142769523Y-71656246D01*
X142769523Y-71656246D02*
X142769523Y-71418151D01*
X142769523Y-71418151D02*
X142817142Y-71322913D01*
X142817142Y-71322913D02*
X142864761Y-71275294D01*
X142864761Y-71275294D02*
X142959999Y-71227675D01*
X142959999Y-71227675D02*
X143150475Y-71227675D01*
X143150475Y-71227675D02*
X143245713Y-71275294D01*
X143245713Y-71275294D02*
X143293332Y-71322913D01*
X143293332Y-71322913D02*
X143340951Y-71418151D01*
X142198094Y-71275294D02*
X142293332Y-71227675D01*
X142293332Y-71227675D02*
X142340951Y-71180056D01*
X142340951Y-71180056D02*
X142388570Y-71084818D01*
X142388570Y-71084818D02*
X142388570Y-71037199D01*
X142388570Y-71037199D02*
X142340951Y-70941961D01*
X142340951Y-70941961D02*
X142293332Y-70894342D01*
X142293332Y-70894342D02*
X142198094Y-70846723D01*
X142198094Y-70846723D02*
X142007618Y-70846723D01*
X142007618Y-70846723D02*
X141912380Y-70894342D01*
X141912380Y-70894342D02*
X141864761Y-70941961D01*
X141864761Y-70941961D02*
X141817142Y-71037199D01*
X141817142Y-71037199D02*
X141817142Y-71084818D01*
X141817142Y-71084818D02*
X141864761Y-71180056D01*
X141864761Y-71180056D02*
X141912380Y-71227675D01*
X141912380Y-71227675D02*
X142007618Y-71275294D01*
X142007618Y-71275294D02*
X142198094Y-71275294D01*
X142198094Y-71275294D02*
X142293332Y-71322913D01*
X142293332Y-71322913D02*
X142340951Y-71370532D01*
X142340951Y-71370532D02*
X142388570Y-71465770D01*
X142388570Y-71465770D02*
X142388570Y-71656246D01*
X142388570Y-71656246D02*
X142340951Y-71751484D01*
X142340951Y-71751484D02*
X142293332Y-71799104D01*
X142293332Y-71799104D02*
X142198094Y-71846723D01*
X142198094Y-71846723D02*
X142007618Y-71846723D01*
X142007618Y-71846723D02*
X141912380Y-71799104D01*
X141912380Y-71799104D02*
X141864761Y-71751484D01*
X141864761Y-71751484D02*
X141817142Y-71656246D01*
X141817142Y-71656246D02*
X141817142Y-71465770D01*
X141817142Y-71465770D02*
X141864761Y-71370532D01*
X141864761Y-71370532D02*
X141912380Y-71322913D01*
X141912380Y-71322913D02*
X142007618Y-71275294D01*
X140864761Y-71846723D02*
X141436189Y-71846723D01*
X141150475Y-71846723D02*
X141150475Y-70846723D01*
X141150475Y-70846723D02*
X141245713Y-70989580D01*
X141245713Y-70989580D02*
X141340951Y-71084818D01*
X141340951Y-71084818D02*
X141436189Y-71132437D01*
X140483808Y-70941961D02*
X140436189Y-70894342D01*
X140436189Y-70894342D02*
X140340951Y-70846723D01*
X140340951Y-70846723D02*
X140102856Y-70846723D01*
X140102856Y-70846723D02*
X140007618Y-70894342D01*
X140007618Y-70894342D02*
X139959999Y-70941961D01*
X139959999Y-70941961D02*
X139912380Y-71037199D01*
X139912380Y-71037199D02*
X139912380Y-71132437D01*
X139912380Y-71132437D02*
X139959999Y-71275294D01*
X139959999Y-71275294D02*
X140531427Y-71846723D01*
X140531427Y-71846723D02*
X139912380Y-71846723D01*
X139483808Y-71846723D02*
X139483808Y-70846723D01*
X139483808Y-70846723D02*
X139150475Y-71561008D01*
X139150475Y-71561008D02*
X138817142Y-70846723D01*
X138817142Y-70846723D02*
X138817142Y-71846723D01*
X138340951Y-71846723D02*
X138340951Y-70846723D01*
X137864761Y-71846723D02*
X137864761Y-70846723D01*
X137864761Y-70846723D02*
X137293333Y-71846723D01*
X137293333Y-71846723D02*
X137293333Y-70846723D01*
X136817142Y-71846723D02*
X136817142Y-70846723D01*
X136340952Y-71465770D02*
X135579048Y-71465770D01*
X135102857Y-71322913D02*
X134769524Y-71322913D01*
X134626667Y-71846723D02*
X135102857Y-71846723D01*
X135102857Y-71846723D02*
X135102857Y-70846723D01*
X135102857Y-70846723D02*
X134626667Y-70846723D01*
X145293332Y-96099104D02*
X145150475Y-96146723D01*
X145150475Y-96146723D02*
X144912380Y-96146723D01*
X144912380Y-96146723D02*
X144817142Y-96099104D01*
X144817142Y-96099104D02*
X144769523Y-96051484D01*
X144769523Y-96051484D02*
X144721904Y-95956246D01*
X144721904Y-95956246D02*
X144721904Y-95861008D01*
X144721904Y-95861008D02*
X144769523Y-95765770D01*
X144769523Y-95765770D02*
X144817142Y-95718151D01*
X144817142Y-95718151D02*
X144912380Y-95670532D01*
X144912380Y-95670532D02*
X145102856Y-95622913D01*
X145102856Y-95622913D02*
X145198094Y-95575294D01*
X145198094Y-95575294D02*
X145245713Y-95527675D01*
X145245713Y-95527675D02*
X145293332Y-95432437D01*
X145293332Y-95432437D02*
X145293332Y-95337199D01*
X145293332Y-95337199D02*
X145245713Y-95241961D01*
X145245713Y-95241961D02*
X145198094Y-95194342D01*
X145198094Y-95194342D02*
X145102856Y-95146723D01*
X145102856Y-95146723D02*
X144864761Y-95146723D01*
X144864761Y-95146723D02*
X144721904Y-95194342D01*
X144293332Y-96146723D02*
X144293332Y-95146723D01*
X143721904Y-96146723D02*
X144150475Y-95575294D01*
X143721904Y-95146723D02*
X144293332Y-95718151D01*
X142864761Y-95146723D02*
X143055237Y-95146723D01*
X143055237Y-95146723D02*
X143150475Y-95194342D01*
X143150475Y-95194342D02*
X143198094Y-95241961D01*
X143198094Y-95241961D02*
X143293332Y-95384818D01*
X143293332Y-95384818D02*
X143340951Y-95575294D01*
X143340951Y-95575294D02*
X143340951Y-95956246D01*
X143340951Y-95956246D02*
X143293332Y-96051484D01*
X143293332Y-96051484D02*
X143245713Y-96099104D01*
X143245713Y-96099104D02*
X143150475Y-96146723D01*
X143150475Y-96146723D02*
X142959999Y-96146723D01*
X142959999Y-96146723D02*
X142864761Y-96099104D01*
X142864761Y-96099104D02*
X142817142Y-96051484D01*
X142817142Y-96051484D02*
X142769523Y-95956246D01*
X142769523Y-95956246D02*
X142769523Y-95718151D01*
X142769523Y-95718151D02*
X142817142Y-95622913D01*
X142817142Y-95622913D02*
X142864761Y-95575294D01*
X142864761Y-95575294D02*
X142959999Y-95527675D01*
X142959999Y-95527675D02*
X143150475Y-95527675D01*
X143150475Y-95527675D02*
X143245713Y-95575294D01*
X143245713Y-95575294D02*
X143293332Y-95622913D01*
X143293332Y-95622913D02*
X143340951Y-95718151D01*
X142198094Y-95575294D02*
X142293332Y-95527675D01*
X142293332Y-95527675D02*
X142340951Y-95480056D01*
X142340951Y-95480056D02*
X142388570Y-95384818D01*
X142388570Y-95384818D02*
X142388570Y-95337199D01*
X142388570Y-95337199D02*
X142340951Y-95241961D01*
X142340951Y-95241961D02*
X142293332Y-95194342D01*
X142293332Y-95194342D02*
X142198094Y-95146723D01*
X142198094Y-95146723D02*
X142007618Y-95146723D01*
X142007618Y-95146723D02*
X141912380Y-95194342D01*
X141912380Y-95194342D02*
X141864761Y-95241961D01*
X141864761Y-95241961D02*
X141817142Y-95337199D01*
X141817142Y-95337199D02*
X141817142Y-95384818D01*
X141817142Y-95384818D02*
X141864761Y-95480056D01*
X141864761Y-95480056D02*
X141912380Y-95527675D01*
X141912380Y-95527675D02*
X142007618Y-95575294D01*
X142007618Y-95575294D02*
X142198094Y-95575294D01*
X142198094Y-95575294D02*
X142293332Y-95622913D01*
X142293332Y-95622913D02*
X142340951Y-95670532D01*
X142340951Y-95670532D02*
X142388570Y-95765770D01*
X142388570Y-95765770D02*
X142388570Y-95956246D01*
X142388570Y-95956246D02*
X142340951Y-96051484D01*
X142340951Y-96051484D02*
X142293332Y-96099104D01*
X142293332Y-96099104D02*
X142198094Y-96146723D01*
X142198094Y-96146723D02*
X142007618Y-96146723D01*
X142007618Y-96146723D02*
X141912380Y-96099104D01*
X141912380Y-96099104D02*
X141864761Y-96051484D01*
X141864761Y-96051484D02*
X141817142Y-95956246D01*
X141817142Y-95956246D02*
X141817142Y-95765770D01*
X141817142Y-95765770D02*
X141864761Y-95670532D01*
X141864761Y-95670532D02*
X141912380Y-95622913D01*
X141912380Y-95622913D02*
X142007618Y-95575294D01*
X140864761Y-96146723D02*
X141436189Y-96146723D01*
X141150475Y-96146723D02*
X141150475Y-95146723D01*
X141150475Y-95146723D02*
X141245713Y-95289580D01*
X141245713Y-95289580D02*
X141340951Y-95384818D01*
X141340951Y-95384818D02*
X141436189Y-95432437D01*
X140483808Y-95241961D02*
X140436189Y-95194342D01*
X140436189Y-95194342D02*
X140340951Y-95146723D01*
X140340951Y-95146723D02*
X140102856Y-95146723D01*
X140102856Y-95146723D02*
X140007618Y-95194342D01*
X140007618Y-95194342D02*
X139959999Y-95241961D01*
X139959999Y-95241961D02*
X139912380Y-95337199D01*
X139912380Y-95337199D02*
X139912380Y-95432437D01*
X139912380Y-95432437D02*
X139959999Y-95575294D01*
X139959999Y-95575294D02*
X140531427Y-96146723D01*
X140531427Y-96146723D02*
X139912380Y-96146723D01*
X139483808Y-96146723D02*
X139483808Y-95146723D01*
X139483808Y-95146723D02*
X139150475Y-95861008D01*
X139150475Y-95861008D02*
X138817142Y-95146723D01*
X138817142Y-95146723D02*
X138817142Y-96146723D01*
X138340951Y-96146723D02*
X138340951Y-95146723D01*
X137864761Y-96146723D02*
X137864761Y-95146723D01*
X137864761Y-95146723D02*
X137293333Y-96146723D01*
X137293333Y-96146723D02*
X137293333Y-95146723D01*
X136817142Y-96146723D02*
X136817142Y-95146723D01*
X136340952Y-95765770D02*
X135579048Y-95765770D01*
X135102857Y-95622913D02*
X134769524Y-95622913D01*
X134626667Y-96146723D02*
X135102857Y-96146723D01*
X135102857Y-96146723D02*
X135102857Y-95146723D01*
X135102857Y-95146723D02*
X134626667Y-95146723D01*
X159156162Y-79166687D02*
X159043494Y-79066779D01*
X159043494Y-79066779D02*
X158924447Y-78860582D01*
X158924447Y-78860582D02*
X158918067Y-78754294D01*
X158918067Y-78754294D02*
X158935497Y-78689245D01*
X158935497Y-78689245D02*
X158994166Y-78600387D01*
X158994166Y-78600387D02*
X159076645Y-78552768D01*
X159076645Y-78552768D02*
X159182933Y-78546388D01*
X159182933Y-78546388D02*
X159247982Y-78563818D01*
X159247982Y-78563818D02*
X159336840Y-78622487D01*
X159336840Y-78622487D02*
X159473317Y-78763635D01*
X159473317Y-78763635D02*
X159562176Y-78822304D01*
X159562176Y-78822304D02*
X159627224Y-78839734D01*
X159627224Y-78839734D02*
X159733513Y-78833354D01*
X159733513Y-78833354D02*
X159815991Y-78785735D01*
X159815991Y-78785735D02*
X159874660Y-78696876D01*
X159874660Y-78696876D02*
X159892090Y-78631828D01*
X159892090Y-78631828D02*
X159885710Y-78525540D01*
X159885710Y-78525540D02*
X159766663Y-78319343D01*
X159766663Y-78319343D02*
X159653995Y-78219435D01*
X158614923Y-78324471D02*
X159480948Y-77824471D01*
X158329209Y-77829600D02*
X159038366Y-77915039D01*
X159195234Y-77329600D02*
X158986077Y-78110186D01*
X158766663Y-76587292D02*
X158861901Y-76752249D01*
X158861901Y-76752249D02*
X158868281Y-76858537D01*
X158868281Y-76858537D02*
X158850851Y-76923586D01*
X158850851Y-76923586D02*
X158774752Y-77077493D01*
X158774752Y-77077493D02*
X158633604Y-77213971D01*
X158633604Y-77213971D02*
X158303690Y-77404447D01*
X158303690Y-77404447D02*
X158197402Y-77410827D01*
X158197402Y-77410827D02*
X158132353Y-77393397D01*
X158132353Y-77393397D02*
X158043494Y-77334728D01*
X158043494Y-77334728D02*
X157948256Y-77169771D01*
X157948256Y-77169771D02*
X157941877Y-77063483D01*
X157941877Y-77063483D02*
X157959306Y-76998434D01*
X157959306Y-76998434D02*
X158017975Y-76909575D01*
X158017975Y-76909575D02*
X158224172Y-76790528D01*
X158224172Y-76790528D02*
X158330460Y-76784148D01*
X158330460Y-76784148D02*
X158395509Y-76801578D01*
X158395509Y-76801578D02*
X158484367Y-76860247D01*
X158484367Y-76860247D02*
X158579605Y-77025204D01*
X158579605Y-77025204D02*
X158585985Y-77131492D01*
X158585985Y-77131492D02*
X158568555Y-77196541D01*
X158568555Y-77196541D02*
X158509886Y-77285399D01*
X158062176Y-76224228D02*
X158151034Y-76282897D01*
X158151034Y-76282897D02*
X158216083Y-76300326D01*
X158216083Y-76300326D02*
X158322371Y-76293947D01*
X158322371Y-76293947D02*
X158363610Y-76270137D01*
X158363610Y-76270137D02*
X158422279Y-76181279D01*
X158422279Y-76181279D02*
X158439709Y-76116230D01*
X158439709Y-76116230D02*
X158433329Y-76009942D01*
X158433329Y-76009942D02*
X158338091Y-75844985D01*
X158338091Y-75844985D02*
X158249233Y-75786316D01*
X158249233Y-75786316D02*
X158184184Y-75768886D01*
X158184184Y-75768886D02*
X158077896Y-75775265D01*
X158077896Y-75775265D02*
X158036657Y-75799075D01*
X158036657Y-75799075D02*
X157977988Y-75887933D01*
X157977988Y-75887933D02*
X157960558Y-75952982D01*
X157960558Y-75952982D02*
X157966938Y-76059270D01*
X157966938Y-76059270D02*
X158062176Y-76224228D01*
X158062176Y-76224228D02*
X158068555Y-76330516D01*
X158068555Y-76330516D02*
X158051126Y-76395564D01*
X158051126Y-76395564D02*
X157992456Y-76484423D01*
X157992456Y-76484423D02*
X157827499Y-76579661D01*
X157827499Y-76579661D02*
X157721211Y-76586041D01*
X157721211Y-76586041D02*
X157656162Y-76568611D01*
X157656162Y-76568611D02*
X157567304Y-76509942D01*
X157567304Y-76509942D02*
X157472066Y-76344985D01*
X157472066Y-76344985D02*
X157465686Y-76238696D01*
X157465686Y-76238696D02*
X157483116Y-76173648D01*
X157483116Y-76173648D02*
X157541785Y-76084789D01*
X157541785Y-76084789D02*
X157706742Y-75989551D01*
X157706742Y-75989551D02*
X157813030Y-75983171D01*
X157813030Y-75983171D02*
X157878079Y-76000601D01*
X157878079Y-76000601D02*
X157966938Y-76059270D01*
X156900637Y-75355241D02*
X157186352Y-75850113D01*
X157043494Y-75602677D02*
X157909520Y-75102677D01*
X157909520Y-75102677D02*
X157833421Y-75256584D01*
X157833421Y-75256584D02*
X157798561Y-75386682D01*
X157798561Y-75386682D02*
X157804941Y-75492970D01*
X157493708Y-74572946D02*
X157511138Y-74507897D01*
X157511138Y-74507897D02*
X157504758Y-74401609D01*
X157504758Y-74401609D02*
X157385710Y-74195412D01*
X157385710Y-74195412D02*
X157296852Y-74136743D01*
X157296852Y-74136743D02*
X157231803Y-74119313D01*
X157231803Y-74119313D02*
X157125515Y-74125693D01*
X157125515Y-74125693D02*
X157043036Y-74173312D01*
X157043036Y-74173312D02*
X156943128Y-74285980D01*
X156943128Y-74285980D02*
X156733971Y-75066566D01*
X156733971Y-75066566D02*
X156424447Y-74530455D01*
X156210161Y-74159301D02*
X157076186Y-73659301D01*
X157076186Y-73659301D02*
X156290930Y-73727769D01*
X156290930Y-73727769D02*
X156742853Y-73081951D01*
X156742853Y-73081951D02*
X155876828Y-73581951D01*
X155638733Y-73169558D02*
X156504758Y-72669558D01*
X155400638Y-72757165D02*
X156266663Y-72257165D01*
X156266663Y-72257165D02*
X155114923Y-72262294D01*
X155114923Y-72262294D02*
X155980949Y-71762294D01*
X154876828Y-71849901D02*
X155742853Y-71349901D01*
X154968647Y-71247032D02*
X154587695Y-70587203D01*
X154473318Y-70103382D02*
X154306651Y-69814707D01*
X153781590Y-69952893D02*
X154019686Y-70365286D01*
X154019686Y-70365286D02*
X154885711Y-69865286D01*
X154885711Y-69865286D02*
X154647616Y-69452893D01*
X145293332Y-63699104D02*
X145150475Y-63746723D01*
X145150475Y-63746723D02*
X144912380Y-63746723D01*
X144912380Y-63746723D02*
X144817142Y-63699104D01*
X144817142Y-63699104D02*
X144769523Y-63651484D01*
X144769523Y-63651484D02*
X144721904Y-63556246D01*
X144721904Y-63556246D02*
X144721904Y-63461008D01*
X144721904Y-63461008D02*
X144769523Y-63365770D01*
X144769523Y-63365770D02*
X144817142Y-63318151D01*
X144817142Y-63318151D02*
X144912380Y-63270532D01*
X144912380Y-63270532D02*
X145102856Y-63222913D01*
X145102856Y-63222913D02*
X145198094Y-63175294D01*
X145198094Y-63175294D02*
X145245713Y-63127675D01*
X145245713Y-63127675D02*
X145293332Y-63032437D01*
X145293332Y-63032437D02*
X145293332Y-62937199D01*
X145293332Y-62937199D02*
X145245713Y-62841961D01*
X145245713Y-62841961D02*
X145198094Y-62794342D01*
X145198094Y-62794342D02*
X145102856Y-62746723D01*
X145102856Y-62746723D02*
X144864761Y-62746723D01*
X144864761Y-62746723D02*
X144721904Y-62794342D01*
X144293332Y-63746723D02*
X144293332Y-62746723D01*
X143721904Y-63746723D02*
X144150475Y-63175294D01*
X143721904Y-62746723D02*
X144293332Y-63318151D01*
X142864761Y-62746723D02*
X143055237Y-62746723D01*
X143055237Y-62746723D02*
X143150475Y-62794342D01*
X143150475Y-62794342D02*
X143198094Y-62841961D01*
X143198094Y-62841961D02*
X143293332Y-62984818D01*
X143293332Y-62984818D02*
X143340951Y-63175294D01*
X143340951Y-63175294D02*
X143340951Y-63556246D01*
X143340951Y-63556246D02*
X143293332Y-63651484D01*
X143293332Y-63651484D02*
X143245713Y-63699104D01*
X143245713Y-63699104D02*
X143150475Y-63746723D01*
X143150475Y-63746723D02*
X142959999Y-63746723D01*
X142959999Y-63746723D02*
X142864761Y-63699104D01*
X142864761Y-63699104D02*
X142817142Y-63651484D01*
X142817142Y-63651484D02*
X142769523Y-63556246D01*
X142769523Y-63556246D02*
X142769523Y-63318151D01*
X142769523Y-63318151D02*
X142817142Y-63222913D01*
X142817142Y-63222913D02*
X142864761Y-63175294D01*
X142864761Y-63175294D02*
X142959999Y-63127675D01*
X142959999Y-63127675D02*
X143150475Y-63127675D01*
X143150475Y-63127675D02*
X143245713Y-63175294D01*
X143245713Y-63175294D02*
X143293332Y-63222913D01*
X143293332Y-63222913D02*
X143340951Y-63318151D01*
X142198094Y-63175294D02*
X142293332Y-63127675D01*
X142293332Y-63127675D02*
X142340951Y-63080056D01*
X142340951Y-63080056D02*
X142388570Y-62984818D01*
X142388570Y-62984818D02*
X142388570Y-62937199D01*
X142388570Y-62937199D02*
X142340951Y-62841961D01*
X142340951Y-62841961D02*
X142293332Y-62794342D01*
X142293332Y-62794342D02*
X142198094Y-62746723D01*
X142198094Y-62746723D02*
X142007618Y-62746723D01*
X142007618Y-62746723D02*
X141912380Y-62794342D01*
X141912380Y-62794342D02*
X141864761Y-62841961D01*
X141864761Y-62841961D02*
X141817142Y-62937199D01*
X141817142Y-62937199D02*
X141817142Y-62984818D01*
X141817142Y-62984818D02*
X141864761Y-63080056D01*
X141864761Y-63080056D02*
X141912380Y-63127675D01*
X141912380Y-63127675D02*
X142007618Y-63175294D01*
X142007618Y-63175294D02*
X142198094Y-63175294D01*
X142198094Y-63175294D02*
X142293332Y-63222913D01*
X142293332Y-63222913D02*
X142340951Y-63270532D01*
X142340951Y-63270532D02*
X142388570Y-63365770D01*
X142388570Y-63365770D02*
X142388570Y-63556246D01*
X142388570Y-63556246D02*
X142340951Y-63651484D01*
X142340951Y-63651484D02*
X142293332Y-63699104D01*
X142293332Y-63699104D02*
X142198094Y-63746723D01*
X142198094Y-63746723D02*
X142007618Y-63746723D01*
X142007618Y-63746723D02*
X141912380Y-63699104D01*
X141912380Y-63699104D02*
X141864761Y-63651484D01*
X141864761Y-63651484D02*
X141817142Y-63556246D01*
X141817142Y-63556246D02*
X141817142Y-63365770D01*
X141817142Y-63365770D02*
X141864761Y-63270532D01*
X141864761Y-63270532D02*
X141912380Y-63222913D01*
X141912380Y-63222913D02*
X142007618Y-63175294D01*
X140864761Y-63746723D02*
X141436189Y-63746723D01*
X141150475Y-63746723D02*
X141150475Y-62746723D01*
X141150475Y-62746723D02*
X141245713Y-62889580D01*
X141245713Y-62889580D02*
X141340951Y-62984818D01*
X141340951Y-62984818D02*
X141436189Y-63032437D01*
X140483808Y-62841961D02*
X140436189Y-62794342D01*
X140436189Y-62794342D02*
X140340951Y-62746723D01*
X140340951Y-62746723D02*
X140102856Y-62746723D01*
X140102856Y-62746723D02*
X140007618Y-62794342D01*
X140007618Y-62794342D02*
X139959999Y-62841961D01*
X139959999Y-62841961D02*
X139912380Y-62937199D01*
X139912380Y-62937199D02*
X139912380Y-63032437D01*
X139912380Y-63032437D02*
X139959999Y-63175294D01*
X139959999Y-63175294D02*
X140531427Y-63746723D01*
X140531427Y-63746723D02*
X139912380Y-63746723D01*
X139483808Y-63746723D02*
X139483808Y-62746723D01*
X139483808Y-62746723D02*
X139150475Y-63461008D01*
X139150475Y-63461008D02*
X138817142Y-62746723D01*
X138817142Y-62746723D02*
X138817142Y-63746723D01*
X138340951Y-63746723D02*
X138340951Y-62746723D01*
X137864761Y-63746723D02*
X137864761Y-62746723D01*
X137864761Y-62746723D02*
X137293333Y-63746723D01*
X137293333Y-63746723D02*
X137293333Y-62746723D01*
X136817142Y-63746723D02*
X136817142Y-62746723D01*
X136340952Y-63365770D02*
X135579048Y-63365770D01*
X135102857Y-63222913D02*
X134769524Y-63222913D01*
X134626667Y-63746723D02*
X135102857Y-63746723D01*
X135102857Y-63746723D02*
X135102857Y-62746723D01*
X135102857Y-62746723D02*
X134626667Y-62746723D01*
X162255949Y-91089975D02*
X162225760Y-91237502D01*
X162225760Y-91237502D02*
X162106713Y-91443699D01*
X162106713Y-91443699D02*
X162017854Y-91502368D01*
X162017854Y-91502368D02*
X161952805Y-91519798D01*
X161952805Y-91519798D02*
X161846517Y-91513418D01*
X161846517Y-91513418D02*
X161764039Y-91465799D01*
X161764039Y-91465799D02*
X161705370Y-91376940D01*
X161705370Y-91376940D02*
X161687940Y-91311892D01*
X161687940Y-91311892D02*
X161694320Y-91205604D01*
X161694320Y-91205604D02*
X161748318Y-91016837D01*
X161748318Y-91016837D02*
X161754698Y-90910549D01*
X161754698Y-90910549D02*
X161737268Y-90845500D01*
X161737268Y-90845500D02*
X161678599Y-90756641D01*
X161678599Y-90756641D02*
X161596121Y-90709022D01*
X161596121Y-90709022D02*
X161489832Y-90702643D01*
X161489832Y-90702643D02*
X161424784Y-90720072D01*
X161424784Y-90720072D02*
X161335925Y-90778742D01*
X161335925Y-90778742D02*
X161216878Y-90984938D01*
X161216878Y-90984938D02*
X161186688Y-91132466D01*
X161797189Y-91979810D02*
X160931163Y-91479810D01*
X161511474Y-92474681D02*
X161230888Y-91817813D01*
X160645449Y-91974681D02*
X161426035Y-91765524D01*
X160216878Y-92716989D02*
X160312116Y-92552032D01*
X160312116Y-92552032D02*
X160400974Y-92493363D01*
X160400974Y-92493363D02*
X160466023Y-92475933D01*
X160466023Y-92475933D02*
X160637360Y-92464883D01*
X160637360Y-92464883D02*
X160826127Y-92518882D01*
X160826127Y-92518882D02*
X161156041Y-92709358D01*
X161156041Y-92709358D02*
X161214710Y-92798216D01*
X161214710Y-92798216D02*
X161232140Y-92863265D01*
X161232140Y-92863265D02*
X161225760Y-92969553D01*
X161225760Y-92969553D02*
X161130522Y-93134510D01*
X161130522Y-93134510D02*
X161041664Y-93193179D01*
X161041664Y-93193179D02*
X160976615Y-93210609D01*
X160976615Y-93210609D02*
X160870327Y-93204229D01*
X160870327Y-93204229D02*
X160664130Y-93085182D01*
X160664130Y-93085182D02*
X160605461Y-92996323D01*
X160605461Y-92996323D02*
X160588031Y-92931275D01*
X160588031Y-92931275D02*
X160594411Y-92824986D01*
X160594411Y-92824986D02*
X160689649Y-92660029D01*
X160689649Y-92660029D02*
X160778508Y-92601360D01*
X160778508Y-92601360D02*
X160843556Y-92583930D01*
X160843556Y-92583930D02*
X160949845Y-92590310D01*
X160254698Y-93508625D02*
X160261078Y-93402337D01*
X160261078Y-93402337D02*
X160243648Y-93337288D01*
X160243648Y-93337288D02*
X160184979Y-93248430D01*
X160184979Y-93248430D02*
X160143740Y-93224620D01*
X160143740Y-93224620D02*
X160037451Y-93218240D01*
X160037451Y-93218240D02*
X159972403Y-93235670D01*
X159972403Y-93235670D02*
X159883544Y-93294339D01*
X159883544Y-93294339D02*
X159788306Y-93459296D01*
X159788306Y-93459296D02*
X159781926Y-93565585D01*
X159781926Y-93565585D02*
X159799356Y-93630633D01*
X159799356Y-93630633D02*
X159858025Y-93719492D01*
X159858025Y-93719492D02*
X159899265Y-93743301D01*
X159899265Y-93743301D02*
X160005553Y-93749681D01*
X160005553Y-93749681D02*
X160070602Y-93732251D01*
X160070602Y-93732251D02*
X160159460Y-93673582D01*
X160159460Y-93673582D02*
X160254698Y-93508625D01*
X160254698Y-93508625D02*
X160343556Y-93449956D01*
X160343556Y-93449956D02*
X160408605Y-93432526D01*
X160408605Y-93432526D02*
X160514893Y-93438906D01*
X160514893Y-93438906D02*
X160679851Y-93534144D01*
X160679851Y-93534144D02*
X160738520Y-93623002D01*
X160738520Y-93623002D02*
X160755949Y-93688051D01*
X160755949Y-93688051D02*
X160749570Y-93794339D01*
X160749570Y-93794339D02*
X160654332Y-93959296D01*
X160654332Y-93959296D02*
X160565473Y-94017966D01*
X160565473Y-94017966D02*
X160500424Y-94035395D01*
X160500424Y-94035395D02*
X160394136Y-94029016D01*
X160394136Y-94029016D02*
X160229179Y-93933777D01*
X160229179Y-93933777D02*
X160170510Y-93844919D01*
X160170510Y-93844919D02*
X160153080Y-93779870D01*
X160153080Y-93779870D02*
X160159460Y-93673582D01*
X160082903Y-94949040D02*
X160368617Y-94454168D01*
X160225760Y-94701604D02*
X159359735Y-94201604D01*
X159359735Y-94201604D02*
X159531072Y-94190554D01*
X159531072Y-94190554D02*
X159661169Y-94155694D01*
X159661169Y-94155694D02*
X159750028Y-94097025D01*
X159108880Y-94826573D02*
X159043831Y-94844003D01*
X159043831Y-94844003D02*
X158954973Y-94902672D01*
X158954973Y-94902672D02*
X158835925Y-95108869D01*
X158835925Y-95108869D02*
X158829545Y-95215157D01*
X158829545Y-95215157D02*
X158846975Y-95280206D01*
X158846975Y-95280206D02*
X158905644Y-95369064D01*
X158905644Y-95369064D02*
X158988123Y-95416683D01*
X158988123Y-95416683D02*
X159135650Y-95446872D01*
X159135650Y-95446872D02*
X159916236Y-95237715D01*
X159916236Y-95237715D02*
X159606712Y-95773826D01*
X159392427Y-96144980D02*
X158526401Y-95644980D01*
X158526401Y-95644980D02*
X158978324Y-96290798D01*
X158978324Y-96290798D02*
X158193068Y-96222330D01*
X158193068Y-96222330D02*
X159059093Y-96722330D01*
X158820998Y-97134723D02*
X157954973Y-96634723D01*
X158582903Y-97547116D02*
X157716878Y-97047116D01*
X157716878Y-97047116D02*
X158297189Y-98041987D01*
X158297189Y-98041987D02*
X157431164Y-97541987D01*
X158059094Y-98454380D02*
X157193068Y-97954380D01*
X157491084Y-98676297D02*
X157110132Y-99336126D01*
X156748319Y-99677090D02*
X156581652Y-99965765D01*
X156963856Y-100351388D02*
X157201951Y-99938995D01*
X157201951Y-99938995D02*
X156335926Y-99438995D01*
X156335926Y-99438995D02*
X156097831Y-99851388D01*
X153196209Y-87929083D02*
X153166020Y-88076610D01*
X153166020Y-88076610D02*
X153046973Y-88282807D01*
X153046973Y-88282807D02*
X152958114Y-88341476D01*
X152958114Y-88341476D02*
X152893065Y-88358906D01*
X152893065Y-88358906D02*
X152786777Y-88352526D01*
X152786777Y-88352526D02*
X152704299Y-88304907D01*
X152704299Y-88304907D02*
X152645630Y-88216048D01*
X152645630Y-88216048D02*
X152628200Y-88151000D01*
X152628200Y-88151000D02*
X152634580Y-88044712D01*
X152634580Y-88044712D02*
X152688578Y-87855945D01*
X152688578Y-87855945D02*
X152694958Y-87749657D01*
X152694958Y-87749657D02*
X152677528Y-87684608D01*
X152677528Y-87684608D02*
X152618859Y-87595749D01*
X152618859Y-87595749D02*
X152536381Y-87548130D01*
X152536381Y-87548130D02*
X152430092Y-87541751D01*
X152430092Y-87541751D02*
X152365044Y-87559180D01*
X152365044Y-87559180D02*
X152276185Y-87617850D01*
X152276185Y-87617850D02*
X152157138Y-87824046D01*
X152157138Y-87824046D02*
X152126948Y-87971574D01*
X152737449Y-88818918D02*
X151871423Y-88318918D01*
X152451734Y-89313789D02*
X152171148Y-88656921D01*
X151585709Y-88813789D02*
X152366295Y-88604632D01*
X151157138Y-89556097D02*
X151252376Y-89391140D01*
X151252376Y-89391140D02*
X151341234Y-89332471D01*
X151341234Y-89332471D02*
X151406283Y-89315041D01*
X151406283Y-89315041D02*
X151577620Y-89303991D01*
X151577620Y-89303991D02*
X151766387Y-89357990D01*
X151766387Y-89357990D02*
X152096301Y-89548466D01*
X152096301Y-89548466D02*
X152154970Y-89637324D01*
X152154970Y-89637324D02*
X152172400Y-89702373D01*
X152172400Y-89702373D02*
X152166020Y-89808661D01*
X152166020Y-89808661D02*
X152070782Y-89973618D01*
X152070782Y-89973618D02*
X151981924Y-90032287D01*
X151981924Y-90032287D02*
X151916875Y-90049717D01*
X151916875Y-90049717D02*
X151810587Y-90043337D01*
X151810587Y-90043337D02*
X151604390Y-89924290D01*
X151604390Y-89924290D02*
X151545721Y-89835431D01*
X151545721Y-89835431D02*
X151528291Y-89770383D01*
X151528291Y-89770383D02*
X151534671Y-89664094D01*
X151534671Y-89664094D02*
X151629909Y-89499137D01*
X151629909Y-89499137D02*
X151718768Y-89440468D01*
X151718768Y-89440468D02*
X151783816Y-89423038D01*
X151783816Y-89423038D02*
X151890105Y-89429418D01*
X151194958Y-90347733D02*
X151201338Y-90241445D01*
X151201338Y-90241445D02*
X151183908Y-90176396D01*
X151183908Y-90176396D02*
X151125239Y-90087538D01*
X151125239Y-90087538D02*
X151084000Y-90063728D01*
X151084000Y-90063728D02*
X150977711Y-90057348D01*
X150977711Y-90057348D02*
X150912663Y-90074778D01*
X150912663Y-90074778D02*
X150823804Y-90133447D01*
X150823804Y-90133447D02*
X150728566Y-90298404D01*
X150728566Y-90298404D02*
X150722186Y-90404693D01*
X150722186Y-90404693D02*
X150739616Y-90469741D01*
X150739616Y-90469741D02*
X150798285Y-90558600D01*
X150798285Y-90558600D02*
X150839525Y-90582409D01*
X150839525Y-90582409D02*
X150945813Y-90588789D01*
X150945813Y-90588789D02*
X151010862Y-90571359D01*
X151010862Y-90571359D02*
X151099720Y-90512690D01*
X151099720Y-90512690D02*
X151194958Y-90347733D01*
X151194958Y-90347733D02*
X151283816Y-90289064D01*
X151283816Y-90289064D02*
X151348865Y-90271634D01*
X151348865Y-90271634D02*
X151455153Y-90278014D01*
X151455153Y-90278014D02*
X151620111Y-90373252D01*
X151620111Y-90373252D02*
X151678780Y-90462110D01*
X151678780Y-90462110D02*
X151696209Y-90527159D01*
X151696209Y-90527159D02*
X151689830Y-90633447D01*
X151689830Y-90633447D02*
X151594592Y-90798404D01*
X151594592Y-90798404D02*
X151505733Y-90857074D01*
X151505733Y-90857074D02*
X151440684Y-90874503D01*
X151440684Y-90874503D02*
X151334396Y-90868124D01*
X151334396Y-90868124D02*
X151169439Y-90772885D01*
X151169439Y-90772885D02*
X151110770Y-90684027D01*
X151110770Y-90684027D02*
X151093340Y-90618978D01*
X151093340Y-90618978D02*
X151099720Y-90512690D01*
X151023163Y-91788148D02*
X151308877Y-91293276D01*
X151166020Y-91540712D02*
X150299995Y-91040712D01*
X150299995Y-91040712D02*
X150471332Y-91029662D01*
X150471332Y-91029662D02*
X150601429Y-90994802D01*
X150601429Y-90994802D02*
X150690288Y-90936133D01*
X150049140Y-91665681D02*
X149984091Y-91683111D01*
X149984091Y-91683111D02*
X149895233Y-91741780D01*
X149895233Y-91741780D02*
X149776185Y-91947977D01*
X149776185Y-91947977D02*
X149769805Y-92054265D01*
X149769805Y-92054265D02*
X149787235Y-92119314D01*
X149787235Y-92119314D02*
X149845904Y-92208172D01*
X149845904Y-92208172D02*
X149928383Y-92255791D01*
X149928383Y-92255791D02*
X150075910Y-92285980D01*
X150075910Y-92285980D02*
X150856496Y-92076823D01*
X150856496Y-92076823D02*
X150546972Y-92612934D01*
X150332687Y-92984088D02*
X149466661Y-92484088D01*
X149466661Y-92484088D02*
X149918584Y-93129906D01*
X149918584Y-93129906D02*
X149133328Y-93061438D01*
X149133328Y-93061438D02*
X149999353Y-93561438D01*
X149761258Y-93973831D02*
X148895233Y-93473831D01*
X149523163Y-94386224D02*
X148657138Y-93886224D01*
X148657138Y-93886224D02*
X149237449Y-94881095D01*
X149237449Y-94881095D02*
X148371424Y-94381095D01*
X148999354Y-95293488D02*
X148133328Y-94793488D01*
X148431344Y-95515405D02*
X148050392Y-96175234D01*
X147688579Y-96516198D02*
X147521912Y-96804873D01*
X147904116Y-97190496D02*
X148142211Y-96778103D01*
X148142211Y-96778103D02*
X147276186Y-96278103D01*
X147276186Y-96278103D02*
X147038091Y-96690496D01*
X145157122Y-90516687D02*
X145044454Y-90416779D01*
X145044454Y-90416779D02*
X144925407Y-90210582D01*
X144925407Y-90210582D02*
X144919027Y-90104294D01*
X144919027Y-90104294D02*
X144936457Y-90039245D01*
X144936457Y-90039245D02*
X144995126Y-89950387D01*
X144995126Y-89950387D02*
X145077605Y-89902768D01*
X145077605Y-89902768D02*
X145183893Y-89896388D01*
X145183893Y-89896388D02*
X145248942Y-89913818D01*
X145248942Y-89913818D02*
X145337800Y-89972487D01*
X145337800Y-89972487D02*
X145474277Y-90113635D01*
X145474277Y-90113635D02*
X145563136Y-90172304D01*
X145563136Y-90172304D02*
X145628184Y-90189734D01*
X145628184Y-90189734D02*
X145734473Y-90183354D01*
X145734473Y-90183354D02*
X145816951Y-90135735D01*
X145816951Y-90135735D02*
X145875620Y-90046876D01*
X145875620Y-90046876D02*
X145893050Y-89981828D01*
X145893050Y-89981828D02*
X145886670Y-89875540D01*
X145886670Y-89875540D02*
X145767623Y-89669343D01*
X145767623Y-89669343D02*
X145654955Y-89569435D01*
X144615883Y-89674471D02*
X145481908Y-89174471D01*
X144330169Y-89179600D02*
X145039326Y-89265039D01*
X145196194Y-88679600D02*
X144987037Y-89460186D01*
X144767623Y-87937292D02*
X144862861Y-88102249D01*
X144862861Y-88102249D02*
X144869241Y-88208537D01*
X144869241Y-88208537D02*
X144851811Y-88273586D01*
X144851811Y-88273586D02*
X144775712Y-88427493D01*
X144775712Y-88427493D02*
X144634564Y-88563971D01*
X144634564Y-88563971D02*
X144304650Y-88754447D01*
X144304650Y-88754447D02*
X144198362Y-88760827D01*
X144198362Y-88760827D02*
X144133313Y-88743397D01*
X144133313Y-88743397D02*
X144044454Y-88684728D01*
X144044454Y-88684728D02*
X143949216Y-88519771D01*
X143949216Y-88519771D02*
X143942837Y-88413483D01*
X143942837Y-88413483D02*
X143960266Y-88348434D01*
X143960266Y-88348434D02*
X144018935Y-88259575D01*
X144018935Y-88259575D02*
X144225132Y-88140528D01*
X144225132Y-88140528D02*
X144331420Y-88134148D01*
X144331420Y-88134148D02*
X144396469Y-88151578D01*
X144396469Y-88151578D02*
X144485327Y-88210247D01*
X144485327Y-88210247D02*
X144580565Y-88375204D01*
X144580565Y-88375204D02*
X144586945Y-88481492D01*
X144586945Y-88481492D02*
X144569515Y-88546541D01*
X144569515Y-88546541D02*
X144510846Y-88635399D01*
X144063136Y-87574228D02*
X144151994Y-87632897D01*
X144151994Y-87632897D02*
X144217043Y-87650326D01*
X144217043Y-87650326D02*
X144323331Y-87643947D01*
X144323331Y-87643947D02*
X144364570Y-87620137D01*
X144364570Y-87620137D02*
X144423239Y-87531279D01*
X144423239Y-87531279D02*
X144440669Y-87466230D01*
X144440669Y-87466230D02*
X144434289Y-87359942D01*
X144434289Y-87359942D02*
X144339051Y-87194985D01*
X144339051Y-87194985D02*
X144250193Y-87136316D01*
X144250193Y-87136316D02*
X144185144Y-87118886D01*
X144185144Y-87118886D02*
X144078856Y-87125265D01*
X144078856Y-87125265D02*
X144037617Y-87149075D01*
X144037617Y-87149075D02*
X143978948Y-87237933D01*
X143978948Y-87237933D02*
X143961518Y-87302982D01*
X143961518Y-87302982D02*
X143967898Y-87409270D01*
X143967898Y-87409270D02*
X144063136Y-87574228D01*
X144063136Y-87574228D02*
X144069515Y-87680516D01*
X144069515Y-87680516D02*
X144052086Y-87745564D01*
X144052086Y-87745564D02*
X143993416Y-87834423D01*
X143993416Y-87834423D02*
X143828459Y-87929661D01*
X143828459Y-87929661D02*
X143722171Y-87936041D01*
X143722171Y-87936041D02*
X143657122Y-87918611D01*
X143657122Y-87918611D02*
X143568264Y-87859942D01*
X143568264Y-87859942D02*
X143473026Y-87694985D01*
X143473026Y-87694985D02*
X143466646Y-87588696D01*
X143466646Y-87588696D02*
X143484076Y-87523648D01*
X143484076Y-87523648D02*
X143542745Y-87434789D01*
X143542745Y-87434789D02*
X143707702Y-87339551D01*
X143707702Y-87339551D02*
X143813990Y-87333171D01*
X143813990Y-87333171D02*
X143879039Y-87350601D01*
X143879039Y-87350601D02*
X143967898Y-87409270D01*
X142901597Y-86705241D02*
X143187312Y-87200113D01*
X143044454Y-86952677D02*
X143910480Y-86452677D01*
X143910480Y-86452677D02*
X143834381Y-86606584D01*
X143834381Y-86606584D02*
X143799521Y-86736682D01*
X143799521Y-86736682D02*
X143805901Y-86842970D01*
X143494668Y-85922946D02*
X143512098Y-85857897D01*
X143512098Y-85857897D02*
X143505718Y-85751609D01*
X143505718Y-85751609D02*
X143386670Y-85545412D01*
X143386670Y-85545412D02*
X143297812Y-85486743D01*
X143297812Y-85486743D02*
X143232763Y-85469313D01*
X143232763Y-85469313D02*
X143126475Y-85475693D01*
X143126475Y-85475693D02*
X143043996Y-85523312D01*
X143043996Y-85523312D02*
X142944088Y-85635980D01*
X142944088Y-85635980D02*
X142734931Y-86416566D01*
X142734931Y-86416566D02*
X142425407Y-85880455D01*
X142211121Y-85509301D02*
X143077146Y-85009301D01*
X143077146Y-85009301D02*
X142291890Y-85077769D01*
X142291890Y-85077769D02*
X142743813Y-84431951D01*
X142743813Y-84431951D02*
X141877788Y-84931951D01*
X141639693Y-84519558D02*
X142505718Y-84019558D01*
X141401598Y-84107165D02*
X142267623Y-83607165D01*
X142267623Y-83607165D02*
X141115883Y-83612294D01*
X141115883Y-83612294D02*
X141981909Y-83112294D01*
X140877788Y-83199901D02*
X141743813Y-82699901D01*
X140969607Y-82597032D02*
X140588655Y-81937203D01*
X140474278Y-81453382D02*
X140307611Y-81164707D01*
X139782550Y-81302893D02*
X140020646Y-81715286D01*
X140020646Y-81715286D02*
X140886671Y-81215286D01*
X140886671Y-81215286D02*
X140648576Y-80802893D01*
X126396209Y-69879084D02*
X126366020Y-70026611D01*
X126366020Y-70026611D02*
X126246973Y-70232808D01*
X126246973Y-70232808D02*
X126158114Y-70291477D01*
X126158114Y-70291477D02*
X126093065Y-70308907D01*
X126093065Y-70308907D02*
X125986777Y-70302527D01*
X125986777Y-70302527D02*
X125904299Y-70254908D01*
X125904299Y-70254908D02*
X125845630Y-70166049D01*
X125845630Y-70166049D02*
X125828200Y-70101001D01*
X125828200Y-70101001D02*
X125834580Y-69994713D01*
X125834580Y-69994713D02*
X125888578Y-69805946D01*
X125888578Y-69805946D02*
X125894958Y-69699658D01*
X125894958Y-69699658D02*
X125877528Y-69634609D01*
X125877528Y-69634609D02*
X125818859Y-69545750D01*
X125818859Y-69545750D02*
X125736381Y-69498131D01*
X125736381Y-69498131D02*
X125630092Y-69491752D01*
X125630092Y-69491752D02*
X125565044Y-69509181D01*
X125565044Y-69509181D02*
X125476185Y-69567851D01*
X125476185Y-69567851D02*
X125357138Y-69774047D01*
X125357138Y-69774047D02*
X125326948Y-69921575D01*
X125937449Y-70768919D02*
X125071423Y-70268919D01*
X125651734Y-71263790D02*
X125371148Y-70606922D01*
X124785709Y-70763790D02*
X125566295Y-70554633D01*
X124357138Y-71506098D02*
X124452376Y-71341141D01*
X124452376Y-71341141D02*
X124541234Y-71282472D01*
X124541234Y-71282472D02*
X124606283Y-71265042D01*
X124606283Y-71265042D02*
X124777620Y-71253992D01*
X124777620Y-71253992D02*
X124966387Y-71307991D01*
X124966387Y-71307991D02*
X125296301Y-71498467D01*
X125296301Y-71498467D02*
X125354970Y-71587325D01*
X125354970Y-71587325D02*
X125372400Y-71652374D01*
X125372400Y-71652374D02*
X125366020Y-71758662D01*
X125366020Y-71758662D02*
X125270782Y-71923619D01*
X125270782Y-71923619D02*
X125181924Y-71982288D01*
X125181924Y-71982288D02*
X125116875Y-71999718D01*
X125116875Y-71999718D02*
X125010587Y-71993338D01*
X125010587Y-71993338D02*
X124804390Y-71874291D01*
X124804390Y-71874291D02*
X124745721Y-71785432D01*
X124745721Y-71785432D02*
X124728291Y-71720384D01*
X124728291Y-71720384D02*
X124734671Y-71614095D01*
X124734671Y-71614095D02*
X124829909Y-71449138D01*
X124829909Y-71449138D02*
X124918768Y-71390469D01*
X124918768Y-71390469D02*
X124983816Y-71373039D01*
X124983816Y-71373039D02*
X125090105Y-71379419D01*
X124394958Y-72297734D02*
X124401338Y-72191446D01*
X124401338Y-72191446D02*
X124383908Y-72126397D01*
X124383908Y-72126397D02*
X124325239Y-72037539D01*
X124325239Y-72037539D02*
X124284000Y-72013729D01*
X124284000Y-72013729D02*
X124177711Y-72007349D01*
X124177711Y-72007349D02*
X124112663Y-72024779D01*
X124112663Y-72024779D02*
X124023804Y-72083448D01*
X124023804Y-72083448D02*
X123928566Y-72248405D01*
X123928566Y-72248405D02*
X123922186Y-72354694D01*
X123922186Y-72354694D02*
X123939616Y-72419742D01*
X123939616Y-72419742D02*
X123998285Y-72508601D01*
X123998285Y-72508601D02*
X124039525Y-72532410D01*
X124039525Y-72532410D02*
X124145813Y-72538790D01*
X124145813Y-72538790D02*
X124210862Y-72521360D01*
X124210862Y-72521360D02*
X124299720Y-72462691D01*
X124299720Y-72462691D02*
X124394958Y-72297734D01*
X124394958Y-72297734D02*
X124483816Y-72239065D01*
X124483816Y-72239065D02*
X124548865Y-72221635D01*
X124548865Y-72221635D02*
X124655153Y-72228015D01*
X124655153Y-72228015D02*
X124820111Y-72323253D01*
X124820111Y-72323253D02*
X124878780Y-72412111D01*
X124878780Y-72412111D02*
X124896209Y-72477160D01*
X124896209Y-72477160D02*
X124889830Y-72583448D01*
X124889830Y-72583448D02*
X124794592Y-72748405D01*
X124794592Y-72748405D02*
X124705733Y-72807075D01*
X124705733Y-72807075D02*
X124640684Y-72824504D01*
X124640684Y-72824504D02*
X124534396Y-72818125D01*
X124534396Y-72818125D02*
X124369439Y-72722886D01*
X124369439Y-72722886D02*
X124310770Y-72634028D01*
X124310770Y-72634028D02*
X124293340Y-72568979D01*
X124293340Y-72568979D02*
X124299720Y-72462691D01*
X124223163Y-73738149D02*
X124508877Y-73243277D01*
X124366020Y-73490713D02*
X123499995Y-72990713D01*
X123499995Y-72990713D02*
X123671332Y-72979663D01*
X123671332Y-72979663D02*
X123801429Y-72944803D01*
X123801429Y-72944803D02*
X123890288Y-72886134D01*
X123249140Y-73615682D02*
X123184091Y-73633112D01*
X123184091Y-73633112D02*
X123095233Y-73691781D01*
X123095233Y-73691781D02*
X122976185Y-73897978D01*
X122976185Y-73897978D02*
X122969805Y-74004266D01*
X122969805Y-74004266D02*
X122987235Y-74069315D01*
X122987235Y-74069315D02*
X123045904Y-74158173D01*
X123045904Y-74158173D02*
X123128383Y-74205792D01*
X123128383Y-74205792D02*
X123275910Y-74235981D01*
X123275910Y-74235981D02*
X124056496Y-74026824D01*
X124056496Y-74026824D02*
X123746972Y-74562935D01*
X123532687Y-74934089D02*
X122666661Y-74434089D01*
X122666661Y-74434089D02*
X123118584Y-75079907D01*
X123118584Y-75079907D02*
X122333328Y-75011439D01*
X122333328Y-75011439D02*
X123199353Y-75511439D01*
X122961258Y-75923832D02*
X122095233Y-75423832D01*
X122723163Y-76336225D02*
X121857138Y-75836225D01*
X121857138Y-75836225D02*
X122437449Y-76831096D01*
X122437449Y-76831096D02*
X121571424Y-76331096D01*
X122199354Y-77243489D02*
X121333328Y-76743489D01*
X121631344Y-77465406D02*
X121250392Y-78125235D01*
X120888579Y-78466199D02*
X120721912Y-78754874D01*
X121104116Y-79140497D02*
X121342211Y-78728104D01*
X121342211Y-78728104D02*
X120476186Y-78228104D01*
X120476186Y-78228104D02*
X120238091Y-78640497D01*
X145293332Y-104199104D02*
X145150475Y-104246723D01*
X145150475Y-104246723D02*
X144912380Y-104246723D01*
X144912380Y-104246723D02*
X144817142Y-104199104D01*
X144817142Y-104199104D02*
X144769523Y-104151484D01*
X144769523Y-104151484D02*
X144721904Y-104056246D01*
X144721904Y-104056246D02*
X144721904Y-103961008D01*
X144721904Y-103961008D02*
X144769523Y-103865770D01*
X144769523Y-103865770D02*
X144817142Y-103818151D01*
X144817142Y-103818151D02*
X144912380Y-103770532D01*
X144912380Y-103770532D02*
X145102856Y-103722913D01*
X145102856Y-103722913D02*
X145198094Y-103675294D01*
X145198094Y-103675294D02*
X145245713Y-103627675D01*
X145245713Y-103627675D02*
X145293332Y-103532437D01*
X145293332Y-103532437D02*
X145293332Y-103437199D01*
X145293332Y-103437199D02*
X145245713Y-103341961D01*
X145245713Y-103341961D02*
X145198094Y-103294342D01*
X145198094Y-103294342D02*
X145102856Y-103246723D01*
X145102856Y-103246723D02*
X144864761Y-103246723D01*
X144864761Y-103246723D02*
X144721904Y-103294342D01*
X144293332Y-104246723D02*
X144293332Y-103246723D01*
X143721904Y-104246723D02*
X144150475Y-103675294D01*
X143721904Y-103246723D02*
X144293332Y-103818151D01*
X142864761Y-103246723D02*
X143055237Y-103246723D01*
X143055237Y-103246723D02*
X143150475Y-103294342D01*
X143150475Y-103294342D02*
X143198094Y-103341961D01*
X143198094Y-103341961D02*
X143293332Y-103484818D01*
X143293332Y-103484818D02*
X143340951Y-103675294D01*
X143340951Y-103675294D02*
X143340951Y-104056246D01*
X143340951Y-104056246D02*
X143293332Y-104151484D01*
X143293332Y-104151484D02*
X143245713Y-104199104D01*
X143245713Y-104199104D02*
X143150475Y-104246723D01*
X143150475Y-104246723D02*
X142959999Y-104246723D01*
X142959999Y-104246723D02*
X142864761Y-104199104D01*
X142864761Y-104199104D02*
X142817142Y-104151484D01*
X142817142Y-104151484D02*
X142769523Y-104056246D01*
X142769523Y-104056246D02*
X142769523Y-103818151D01*
X142769523Y-103818151D02*
X142817142Y-103722913D01*
X142817142Y-103722913D02*
X142864761Y-103675294D01*
X142864761Y-103675294D02*
X142959999Y-103627675D01*
X142959999Y-103627675D02*
X143150475Y-103627675D01*
X143150475Y-103627675D02*
X143245713Y-103675294D01*
X143245713Y-103675294D02*
X143293332Y-103722913D01*
X143293332Y-103722913D02*
X143340951Y-103818151D01*
X142198094Y-103675294D02*
X142293332Y-103627675D01*
X142293332Y-103627675D02*
X142340951Y-103580056D01*
X142340951Y-103580056D02*
X142388570Y-103484818D01*
X142388570Y-103484818D02*
X142388570Y-103437199D01*
X142388570Y-103437199D02*
X142340951Y-103341961D01*
X142340951Y-103341961D02*
X142293332Y-103294342D01*
X142293332Y-103294342D02*
X142198094Y-103246723D01*
X142198094Y-103246723D02*
X142007618Y-103246723D01*
X142007618Y-103246723D02*
X141912380Y-103294342D01*
X141912380Y-103294342D02*
X141864761Y-103341961D01*
X141864761Y-103341961D02*
X141817142Y-103437199D01*
X141817142Y-103437199D02*
X141817142Y-103484818D01*
X141817142Y-103484818D02*
X141864761Y-103580056D01*
X141864761Y-103580056D02*
X141912380Y-103627675D01*
X141912380Y-103627675D02*
X142007618Y-103675294D01*
X142007618Y-103675294D02*
X142198094Y-103675294D01*
X142198094Y-103675294D02*
X142293332Y-103722913D01*
X142293332Y-103722913D02*
X142340951Y-103770532D01*
X142340951Y-103770532D02*
X142388570Y-103865770D01*
X142388570Y-103865770D02*
X142388570Y-104056246D01*
X142388570Y-104056246D02*
X142340951Y-104151484D01*
X142340951Y-104151484D02*
X142293332Y-104199104D01*
X142293332Y-104199104D02*
X142198094Y-104246723D01*
X142198094Y-104246723D02*
X142007618Y-104246723D01*
X142007618Y-104246723D02*
X141912380Y-104199104D01*
X141912380Y-104199104D02*
X141864761Y-104151484D01*
X141864761Y-104151484D02*
X141817142Y-104056246D01*
X141817142Y-104056246D02*
X141817142Y-103865770D01*
X141817142Y-103865770D02*
X141864761Y-103770532D01*
X141864761Y-103770532D02*
X141912380Y-103722913D01*
X141912380Y-103722913D02*
X142007618Y-103675294D01*
X140864761Y-104246723D02*
X141436189Y-104246723D01*
X141150475Y-104246723D02*
X141150475Y-103246723D01*
X141150475Y-103246723D02*
X141245713Y-103389580D01*
X141245713Y-103389580D02*
X141340951Y-103484818D01*
X141340951Y-103484818D02*
X141436189Y-103532437D01*
X140483808Y-103341961D02*
X140436189Y-103294342D01*
X140436189Y-103294342D02*
X140340951Y-103246723D01*
X140340951Y-103246723D02*
X140102856Y-103246723D01*
X140102856Y-103246723D02*
X140007618Y-103294342D01*
X140007618Y-103294342D02*
X139959999Y-103341961D01*
X139959999Y-103341961D02*
X139912380Y-103437199D01*
X139912380Y-103437199D02*
X139912380Y-103532437D01*
X139912380Y-103532437D02*
X139959999Y-103675294D01*
X139959999Y-103675294D02*
X140531427Y-104246723D01*
X140531427Y-104246723D02*
X139912380Y-104246723D01*
X139483808Y-104246723D02*
X139483808Y-103246723D01*
X139483808Y-103246723D02*
X139150475Y-103961008D01*
X139150475Y-103961008D02*
X138817142Y-103246723D01*
X138817142Y-103246723D02*
X138817142Y-104246723D01*
X138340951Y-104246723D02*
X138340951Y-103246723D01*
X137864761Y-104246723D02*
X137864761Y-103246723D01*
X137864761Y-103246723D02*
X137293333Y-104246723D01*
X137293333Y-104246723D02*
X137293333Y-103246723D01*
X136817142Y-104246723D02*
X136817142Y-103246723D01*
X136340952Y-103865770D02*
X135579048Y-103865770D01*
X135102857Y-103722913D02*
X134769524Y-103722913D01*
X134626667Y-104246723D02*
X135102857Y-104246723D01*
X135102857Y-104246723D02*
X135102857Y-103246723D01*
X135102857Y-103246723D02*
X134626667Y-103246723D01*
X131956161Y-97166687D02*
X131843493Y-97066779D01*
X131843493Y-97066779D02*
X131724446Y-96860582D01*
X131724446Y-96860582D02*
X131718066Y-96754294D01*
X131718066Y-96754294D02*
X131735496Y-96689245D01*
X131735496Y-96689245D02*
X131794165Y-96600387D01*
X131794165Y-96600387D02*
X131876644Y-96552768D01*
X131876644Y-96552768D02*
X131982932Y-96546388D01*
X131982932Y-96546388D02*
X132047981Y-96563818D01*
X132047981Y-96563818D02*
X132136839Y-96622487D01*
X132136839Y-96622487D02*
X132273316Y-96763635D01*
X132273316Y-96763635D02*
X132362175Y-96822304D01*
X132362175Y-96822304D02*
X132427223Y-96839734D01*
X132427223Y-96839734D02*
X132533512Y-96833354D01*
X132533512Y-96833354D02*
X132615990Y-96785735D01*
X132615990Y-96785735D02*
X132674659Y-96696876D01*
X132674659Y-96696876D02*
X132692089Y-96631828D01*
X132692089Y-96631828D02*
X132685709Y-96525540D01*
X132685709Y-96525540D02*
X132566662Y-96319343D01*
X132566662Y-96319343D02*
X132453994Y-96219435D01*
X131414922Y-96324471D02*
X132280947Y-95824471D01*
X131129208Y-95829600D02*
X131838365Y-95915039D01*
X131995233Y-95329600D02*
X131786076Y-96110186D01*
X131566662Y-94587292D02*
X131661900Y-94752249D01*
X131661900Y-94752249D02*
X131668280Y-94858537D01*
X131668280Y-94858537D02*
X131650850Y-94923586D01*
X131650850Y-94923586D02*
X131574751Y-95077493D01*
X131574751Y-95077493D02*
X131433603Y-95213971D01*
X131433603Y-95213971D02*
X131103689Y-95404447D01*
X131103689Y-95404447D02*
X130997401Y-95410827D01*
X130997401Y-95410827D02*
X130932352Y-95393397D01*
X130932352Y-95393397D02*
X130843493Y-95334728D01*
X130843493Y-95334728D02*
X130748255Y-95169771D01*
X130748255Y-95169771D02*
X130741876Y-95063483D01*
X130741876Y-95063483D02*
X130759305Y-94998434D01*
X130759305Y-94998434D02*
X130817974Y-94909575D01*
X130817974Y-94909575D02*
X131024171Y-94790528D01*
X131024171Y-94790528D02*
X131130459Y-94784148D01*
X131130459Y-94784148D02*
X131195508Y-94801578D01*
X131195508Y-94801578D02*
X131284366Y-94860247D01*
X131284366Y-94860247D02*
X131379604Y-95025204D01*
X131379604Y-95025204D02*
X131385984Y-95131492D01*
X131385984Y-95131492D02*
X131368554Y-95196541D01*
X131368554Y-95196541D02*
X131309885Y-95285399D01*
X130862175Y-94224228D02*
X130951033Y-94282897D01*
X130951033Y-94282897D02*
X131016082Y-94300326D01*
X131016082Y-94300326D02*
X131122370Y-94293947D01*
X131122370Y-94293947D02*
X131163609Y-94270137D01*
X131163609Y-94270137D02*
X131222278Y-94181279D01*
X131222278Y-94181279D02*
X131239708Y-94116230D01*
X131239708Y-94116230D02*
X131233328Y-94009942D01*
X131233328Y-94009942D02*
X131138090Y-93844985D01*
X131138090Y-93844985D02*
X131049232Y-93786316D01*
X131049232Y-93786316D02*
X130984183Y-93768886D01*
X130984183Y-93768886D02*
X130877895Y-93775265D01*
X130877895Y-93775265D02*
X130836656Y-93799075D01*
X130836656Y-93799075D02*
X130777987Y-93887933D01*
X130777987Y-93887933D02*
X130760557Y-93952982D01*
X130760557Y-93952982D02*
X130766937Y-94059270D01*
X130766937Y-94059270D02*
X130862175Y-94224228D01*
X130862175Y-94224228D02*
X130868554Y-94330516D01*
X130868554Y-94330516D02*
X130851125Y-94395564D01*
X130851125Y-94395564D02*
X130792455Y-94484423D01*
X130792455Y-94484423D02*
X130627498Y-94579661D01*
X130627498Y-94579661D02*
X130521210Y-94586041D01*
X130521210Y-94586041D02*
X130456161Y-94568611D01*
X130456161Y-94568611D02*
X130367303Y-94509942D01*
X130367303Y-94509942D02*
X130272065Y-94344985D01*
X130272065Y-94344985D02*
X130265685Y-94238696D01*
X130265685Y-94238696D02*
X130283115Y-94173648D01*
X130283115Y-94173648D02*
X130341784Y-94084789D01*
X130341784Y-94084789D02*
X130506741Y-93989551D01*
X130506741Y-93989551D02*
X130613029Y-93983171D01*
X130613029Y-93983171D02*
X130678078Y-94000601D01*
X130678078Y-94000601D02*
X130766937Y-94059270D01*
X129700636Y-93355241D02*
X129986351Y-93850113D01*
X129843493Y-93602677D02*
X130709519Y-93102677D01*
X130709519Y-93102677D02*
X130633420Y-93256584D01*
X130633420Y-93256584D02*
X130598560Y-93386682D01*
X130598560Y-93386682D02*
X130604940Y-93492970D01*
X130293707Y-92572946D02*
X130311137Y-92507897D01*
X130311137Y-92507897D02*
X130304757Y-92401609D01*
X130304757Y-92401609D02*
X130185709Y-92195412D01*
X130185709Y-92195412D02*
X130096851Y-92136743D01*
X130096851Y-92136743D02*
X130031802Y-92119313D01*
X130031802Y-92119313D02*
X129925514Y-92125693D01*
X129925514Y-92125693D02*
X129843035Y-92173312D01*
X129843035Y-92173312D02*
X129743127Y-92285980D01*
X129743127Y-92285980D02*
X129533970Y-93066566D01*
X129533970Y-93066566D02*
X129224446Y-92530455D01*
X129010160Y-92159301D02*
X129876185Y-91659301D01*
X129876185Y-91659301D02*
X129090929Y-91727769D01*
X129090929Y-91727769D02*
X129542852Y-91081951D01*
X129542852Y-91081951D02*
X128676827Y-91581951D01*
X128438732Y-91169558D02*
X129304757Y-90669558D01*
X128200637Y-90757165D02*
X129066662Y-90257165D01*
X129066662Y-90257165D02*
X127914922Y-90262294D01*
X127914922Y-90262294D02*
X128780948Y-89762294D01*
X127676827Y-89849901D02*
X128542852Y-89349901D01*
X127768646Y-89247032D02*
X127387694Y-88587203D01*
X127273317Y-88103382D02*
X127106650Y-87814707D01*
X126581589Y-87952893D02*
X126819685Y-88365286D01*
X126819685Y-88365286D02*
X127685710Y-87865286D01*
X127685710Y-87865286D02*
X127447615Y-87452893D01*
X140096209Y-81279083D02*
X140066020Y-81426610D01*
X140066020Y-81426610D02*
X139946973Y-81632807D01*
X139946973Y-81632807D02*
X139858114Y-81691476D01*
X139858114Y-81691476D02*
X139793065Y-81708906D01*
X139793065Y-81708906D02*
X139686777Y-81702526D01*
X139686777Y-81702526D02*
X139604299Y-81654907D01*
X139604299Y-81654907D02*
X139545630Y-81566048D01*
X139545630Y-81566048D02*
X139528200Y-81501000D01*
X139528200Y-81501000D02*
X139534580Y-81394712D01*
X139534580Y-81394712D02*
X139588578Y-81205945D01*
X139588578Y-81205945D02*
X139594958Y-81099657D01*
X139594958Y-81099657D02*
X139577528Y-81034608D01*
X139577528Y-81034608D02*
X139518859Y-80945749D01*
X139518859Y-80945749D02*
X139436381Y-80898130D01*
X139436381Y-80898130D02*
X139330092Y-80891751D01*
X139330092Y-80891751D02*
X139265044Y-80909180D01*
X139265044Y-80909180D02*
X139176185Y-80967850D01*
X139176185Y-80967850D02*
X139057138Y-81174046D01*
X139057138Y-81174046D02*
X139026948Y-81321574D01*
X139637449Y-82168918D02*
X138771423Y-81668918D01*
X139351734Y-82663789D02*
X139071148Y-82006921D01*
X138485709Y-82163789D02*
X139266295Y-81954632D01*
X138057138Y-82906097D02*
X138152376Y-82741140D01*
X138152376Y-82741140D02*
X138241234Y-82682471D01*
X138241234Y-82682471D02*
X138306283Y-82665041D01*
X138306283Y-82665041D02*
X138477620Y-82653991D01*
X138477620Y-82653991D02*
X138666387Y-82707990D01*
X138666387Y-82707990D02*
X138996301Y-82898466D01*
X138996301Y-82898466D02*
X139054970Y-82987324D01*
X139054970Y-82987324D02*
X139072400Y-83052373D01*
X139072400Y-83052373D02*
X139066020Y-83158661D01*
X139066020Y-83158661D02*
X138970782Y-83323618D01*
X138970782Y-83323618D02*
X138881924Y-83382287D01*
X138881924Y-83382287D02*
X138816875Y-83399717D01*
X138816875Y-83399717D02*
X138710587Y-83393337D01*
X138710587Y-83393337D02*
X138504390Y-83274290D01*
X138504390Y-83274290D02*
X138445721Y-83185431D01*
X138445721Y-83185431D02*
X138428291Y-83120383D01*
X138428291Y-83120383D02*
X138434671Y-83014094D01*
X138434671Y-83014094D02*
X138529909Y-82849137D01*
X138529909Y-82849137D02*
X138618768Y-82790468D01*
X138618768Y-82790468D02*
X138683816Y-82773038D01*
X138683816Y-82773038D02*
X138790105Y-82779418D01*
X138094958Y-83697733D02*
X138101338Y-83591445D01*
X138101338Y-83591445D02*
X138083908Y-83526396D01*
X138083908Y-83526396D02*
X138025239Y-83437538D01*
X138025239Y-83437538D02*
X137984000Y-83413728D01*
X137984000Y-83413728D02*
X137877711Y-83407348D01*
X137877711Y-83407348D02*
X137812663Y-83424778D01*
X137812663Y-83424778D02*
X137723804Y-83483447D01*
X137723804Y-83483447D02*
X137628566Y-83648404D01*
X137628566Y-83648404D02*
X137622186Y-83754693D01*
X137622186Y-83754693D02*
X137639616Y-83819741D01*
X137639616Y-83819741D02*
X137698285Y-83908600D01*
X137698285Y-83908600D02*
X137739525Y-83932409D01*
X137739525Y-83932409D02*
X137845813Y-83938789D01*
X137845813Y-83938789D02*
X137910862Y-83921359D01*
X137910862Y-83921359D02*
X137999720Y-83862690D01*
X137999720Y-83862690D02*
X138094958Y-83697733D01*
X138094958Y-83697733D02*
X138183816Y-83639064D01*
X138183816Y-83639064D02*
X138248865Y-83621634D01*
X138248865Y-83621634D02*
X138355153Y-83628014D01*
X138355153Y-83628014D02*
X138520111Y-83723252D01*
X138520111Y-83723252D02*
X138578780Y-83812110D01*
X138578780Y-83812110D02*
X138596209Y-83877159D01*
X138596209Y-83877159D02*
X138589830Y-83983447D01*
X138589830Y-83983447D02*
X138494592Y-84148404D01*
X138494592Y-84148404D02*
X138405733Y-84207074D01*
X138405733Y-84207074D02*
X138340684Y-84224503D01*
X138340684Y-84224503D02*
X138234396Y-84218124D01*
X138234396Y-84218124D02*
X138069439Y-84122885D01*
X138069439Y-84122885D02*
X138010770Y-84034027D01*
X138010770Y-84034027D02*
X137993340Y-83968978D01*
X137993340Y-83968978D02*
X137999720Y-83862690D01*
X137923163Y-85138148D02*
X138208877Y-84643276D01*
X138066020Y-84890712D02*
X137199995Y-84390712D01*
X137199995Y-84390712D02*
X137371332Y-84379662D01*
X137371332Y-84379662D02*
X137501429Y-84344802D01*
X137501429Y-84344802D02*
X137590288Y-84286133D01*
X136949140Y-85015681D02*
X136884091Y-85033111D01*
X136884091Y-85033111D02*
X136795233Y-85091780D01*
X136795233Y-85091780D02*
X136676185Y-85297977D01*
X136676185Y-85297977D02*
X136669805Y-85404265D01*
X136669805Y-85404265D02*
X136687235Y-85469314D01*
X136687235Y-85469314D02*
X136745904Y-85558172D01*
X136745904Y-85558172D02*
X136828383Y-85605791D01*
X136828383Y-85605791D02*
X136975910Y-85635980D01*
X136975910Y-85635980D02*
X137756496Y-85426823D01*
X137756496Y-85426823D02*
X137446972Y-85962934D01*
X137232687Y-86334088D02*
X136366661Y-85834088D01*
X136366661Y-85834088D02*
X136818584Y-86479906D01*
X136818584Y-86479906D02*
X136033328Y-86411438D01*
X136033328Y-86411438D02*
X136899353Y-86911438D01*
X136661258Y-87323831D02*
X135795233Y-86823831D01*
X136423163Y-87736224D02*
X135557138Y-87236224D01*
X135557138Y-87236224D02*
X136137449Y-88231095D01*
X136137449Y-88231095D02*
X135271424Y-87731095D01*
X135899354Y-88643488D02*
X135033328Y-88143488D01*
X135331344Y-88865405D02*
X134950392Y-89525234D01*
X134588579Y-89866198D02*
X134421912Y-90154873D01*
X134804116Y-90540496D02*
X135042211Y-90128103D01*
X135042211Y-90128103D02*
X134176186Y-89628103D01*
X134176186Y-89628103D02*
X133938091Y-90040496D01*
M02*
