%TF.GenerationSoftware,KiCad,Pcbnew,8.0.8*%
%TF.CreationDate,2025-04-07T13:38:17-04:00*%
%TF.ProjectId,pcb_tile_game_tile_ooo,7063625f-7469-46c6-955f-67616d655f74,1.0*%
%TF.SameCoordinates,Original*%
%TF.FileFunction,Legend,Top*%
%TF.FilePolarity,Positive*%
%FSLAX46Y46*%
G04 Gerber Fmt 4.6, Leading zero omitted, Abs format (unit mm)*
G04 Created by KiCad (PCBNEW 8.0.8) date 2025-04-07 13:38:17*
%MOMM*%
%LPD*%
G01*
G04 APERTURE LIST*
%ADD10C,0.200000*%
%ADD11C,0.150000*%
%ADD12C,0.120000*%
%ADD13C,0.000000*%
%ADD14C,0.100000*%
G04 APERTURE END LIST*
D10*
X148250475Y-105952219D02*
X147917142Y-105476028D01*
X147679047Y-105952219D02*
X147679047Y-104952219D01*
X147679047Y-104952219D02*
X148059999Y-104952219D01*
X148059999Y-104952219D02*
X148155237Y-104999838D01*
X148155237Y-104999838D02*
X148202856Y-105047457D01*
X148202856Y-105047457D02*
X148250475Y-105142695D01*
X148250475Y-105142695D02*
X148250475Y-105285552D01*
X148250475Y-105285552D02*
X148202856Y-105380790D01*
X148202856Y-105380790D02*
X148155237Y-105428409D01*
X148155237Y-105428409D02*
X148059999Y-105476028D01*
X148059999Y-105476028D02*
X147679047Y-105476028D01*
X149059999Y-105904600D02*
X148964761Y-105952219D01*
X148964761Y-105952219D02*
X148774285Y-105952219D01*
X148774285Y-105952219D02*
X148679047Y-105904600D01*
X148679047Y-105904600D02*
X148631428Y-105809361D01*
X148631428Y-105809361D02*
X148631428Y-105428409D01*
X148631428Y-105428409D02*
X148679047Y-105333171D01*
X148679047Y-105333171D02*
X148774285Y-105285552D01*
X148774285Y-105285552D02*
X148964761Y-105285552D01*
X148964761Y-105285552D02*
X149059999Y-105333171D01*
X149059999Y-105333171D02*
X149107618Y-105428409D01*
X149107618Y-105428409D02*
X149107618Y-105523647D01*
X149107618Y-105523647D02*
X148631428Y-105618885D01*
X149440952Y-105285552D02*
X149679047Y-105952219D01*
X149679047Y-105952219D02*
X149917142Y-105285552D01*
X151583809Y-105952219D02*
X151012381Y-105952219D01*
X151298095Y-105952219D02*
X151298095Y-104952219D01*
X151298095Y-104952219D02*
X151202857Y-105095076D01*
X151202857Y-105095076D02*
X151107619Y-105190314D01*
X151107619Y-105190314D02*
X151012381Y-105237933D01*
X152012381Y-105856980D02*
X152060000Y-105904600D01*
X152060000Y-105904600D02*
X152012381Y-105952219D01*
X152012381Y-105952219D02*
X151964762Y-105904600D01*
X151964762Y-105904600D02*
X152012381Y-105856980D01*
X152012381Y-105856980D02*
X152012381Y-105952219D01*
X152679047Y-104952219D02*
X152774285Y-104952219D01*
X152774285Y-104952219D02*
X152869523Y-104999838D01*
X152869523Y-104999838D02*
X152917142Y-105047457D01*
X152917142Y-105047457D02*
X152964761Y-105142695D01*
X152964761Y-105142695D02*
X153012380Y-105333171D01*
X153012380Y-105333171D02*
X153012380Y-105571266D01*
X153012380Y-105571266D02*
X152964761Y-105761742D01*
X152964761Y-105761742D02*
X152917142Y-105856980D01*
X152917142Y-105856980D02*
X152869523Y-105904600D01*
X152869523Y-105904600D02*
X152774285Y-105952219D01*
X152774285Y-105952219D02*
X152679047Y-105952219D01*
X152679047Y-105952219D02*
X152583809Y-105904600D01*
X152583809Y-105904600D02*
X152536190Y-105856980D01*
X152536190Y-105856980D02*
X152488571Y-105761742D01*
X152488571Y-105761742D02*
X152440952Y-105571266D01*
X152440952Y-105571266D02*
X152440952Y-105333171D01*
X152440952Y-105333171D02*
X152488571Y-105142695D01*
X152488571Y-105142695D02*
X152536190Y-105047457D01*
X152536190Y-105047457D02*
X152583809Y-104999838D01*
X152583809Y-104999838D02*
X152679047Y-104952219D01*
X123036191Y-53452219D02*
X123036191Y-54261742D01*
X123036191Y-54261742D02*
X123083810Y-54356980D01*
X123083810Y-54356980D02*
X123131429Y-54404600D01*
X123131429Y-54404600D02*
X123226667Y-54452219D01*
X123226667Y-54452219D02*
X123417143Y-54452219D01*
X123417143Y-54452219D02*
X123512381Y-54404600D01*
X123512381Y-54404600D02*
X123560000Y-54356980D01*
X123560000Y-54356980D02*
X123607619Y-54261742D01*
X123607619Y-54261742D02*
X123607619Y-53452219D01*
X124083810Y-54452219D02*
X124083810Y-53452219D01*
X124083810Y-53452219D02*
X124464762Y-53452219D01*
X124464762Y-53452219D02*
X124560000Y-53499838D01*
X124560000Y-53499838D02*
X124607619Y-53547457D01*
X124607619Y-53547457D02*
X124655238Y-53642695D01*
X124655238Y-53642695D02*
X124655238Y-53785552D01*
X124655238Y-53785552D02*
X124607619Y-53880790D01*
X124607619Y-53880790D02*
X124560000Y-53928409D01*
X124560000Y-53928409D02*
X124464762Y-53976028D01*
X124464762Y-53976028D02*
X124083810Y-53976028D01*
X125083810Y-54452219D02*
X125083810Y-53452219D01*
X125083810Y-53452219D02*
X125321905Y-53452219D01*
X125321905Y-53452219D02*
X125464762Y-53499838D01*
X125464762Y-53499838D02*
X125560000Y-53595076D01*
X125560000Y-53595076D02*
X125607619Y-53690314D01*
X125607619Y-53690314D02*
X125655238Y-53880790D01*
X125655238Y-53880790D02*
X125655238Y-54023647D01*
X125655238Y-54023647D02*
X125607619Y-54214123D01*
X125607619Y-54214123D02*
X125560000Y-54309361D01*
X125560000Y-54309361D02*
X125464762Y-54404600D01*
X125464762Y-54404600D02*
X125321905Y-54452219D01*
X125321905Y-54452219D02*
X125083810Y-54452219D01*
X126083810Y-54452219D02*
X126083810Y-53452219D01*
X147679047Y-103952219D02*
X147679047Y-102952219D01*
X147679047Y-102952219D02*
X148059999Y-102952219D01*
X148059999Y-102952219D02*
X148155237Y-102999838D01*
X148155237Y-102999838D02*
X148202856Y-103047457D01*
X148202856Y-103047457D02*
X148250475Y-103142695D01*
X148250475Y-103142695D02*
X148250475Y-103285552D01*
X148250475Y-103285552D02*
X148202856Y-103380790D01*
X148202856Y-103380790D02*
X148155237Y-103428409D01*
X148155237Y-103428409D02*
X148059999Y-103476028D01*
X148059999Y-103476028D02*
X147679047Y-103476028D01*
X149250475Y-103856980D02*
X149202856Y-103904600D01*
X149202856Y-103904600D02*
X149059999Y-103952219D01*
X149059999Y-103952219D02*
X148964761Y-103952219D01*
X148964761Y-103952219D02*
X148821904Y-103904600D01*
X148821904Y-103904600D02*
X148726666Y-103809361D01*
X148726666Y-103809361D02*
X148679047Y-103714123D01*
X148679047Y-103714123D02*
X148631428Y-103523647D01*
X148631428Y-103523647D02*
X148631428Y-103380790D01*
X148631428Y-103380790D02*
X148679047Y-103190314D01*
X148679047Y-103190314D02*
X148726666Y-103095076D01*
X148726666Y-103095076D02*
X148821904Y-102999838D01*
X148821904Y-102999838D02*
X148964761Y-102952219D01*
X148964761Y-102952219D02*
X149059999Y-102952219D01*
X149059999Y-102952219D02*
X149202856Y-102999838D01*
X149202856Y-102999838D02*
X149250475Y-103047457D01*
X150012380Y-103428409D02*
X150155237Y-103476028D01*
X150155237Y-103476028D02*
X150202856Y-103523647D01*
X150202856Y-103523647D02*
X150250475Y-103618885D01*
X150250475Y-103618885D02*
X150250475Y-103761742D01*
X150250475Y-103761742D02*
X150202856Y-103856980D01*
X150202856Y-103856980D02*
X150155237Y-103904600D01*
X150155237Y-103904600D02*
X150059999Y-103952219D01*
X150059999Y-103952219D02*
X149679047Y-103952219D01*
X149679047Y-103952219D02*
X149679047Y-102952219D01*
X149679047Y-102952219D02*
X150012380Y-102952219D01*
X150012380Y-102952219D02*
X150107618Y-102999838D01*
X150107618Y-102999838D02*
X150155237Y-103047457D01*
X150155237Y-103047457D02*
X150202856Y-103142695D01*
X150202856Y-103142695D02*
X150202856Y-103237933D01*
X150202856Y-103237933D02*
X150155237Y-103333171D01*
X150155237Y-103333171D02*
X150107618Y-103380790D01*
X150107618Y-103380790D02*
X150012380Y-103428409D01*
X150012380Y-103428409D02*
X149679047Y-103428409D01*
X151298095Y-102952219D02*
X151869523Y-102952219D01*
X151583809Y-103952219D02*
X151583809Y-102952219D01*
X152202857Y-103952219D02*
X152202857Y-103285552D01*
X152202857Y-102952219D02*
X152155238Y-102999838D01*
X152155238Y-102999838D02*
X152202857Y-103047457D01*
X152202857Y-103047457D02*
X152250476Y-102999838D01*
X152250476Y-102999838D02*
X152202857Y-102952219D01*
X152202857Y-102952219D02*
X152202857Y-103047457D01*
X152821904Y-103952219D02*
X152726666Y-103904600D01*
X152726666Y-103904600D02*
X152679047Y-103809361D01*
X152679047Y-103809361D02*
X152679047Y-102952219D01*
X153583809Y-103904600D02*
X153488571Y-103952219D01*
X153488571Y-103952219D02*
X153298095Y-103952219D01*
X153298095Y-103952219D02*
X153202857Y-103904600D01*
X153202857Y-103904600D02*
X153155238Y-103809361D01*
X153155238Y-103809361D02*
X153155238Y-103428409D01*
X153155238Y-103428409D02*
X153202857Y-103333171D01*
X153202857Y-103333171D02*
X153298095Y-103285552D01*
X153298095Y-103285552D02*
X153488571Y-103285552D01*
X153488571Y-103285552D02*
X153583809Y-103333171D01*
X153583809Y-103333171D02*
X153631428Y-103428409D01*
X153631428Y-103428409D02*
X153631428Y-103523647D01*
X153631428Y-103523647D02*
X153155238Y-103618885D01*
X155345714Y-102999838D02*
X155250476Y-102952219D01*
X155250476Y-102952219D02*
X155107619Y-102952219D01*
X155107619Y-102952219D02*
X154964762Y-102999838D01*
X154964762Y-102999838D02*
X154869524Y-103095076D01*
X154869524Y-103095076D02*
X154821905Y-103190314D01*
X154821905Y-103190314D02*
X154774286Y-103380790D01*
X154774286Y-103380790D02*
X154774286Y-103523647D01*
X154774286Y-103523647D02*
X154821905Y-103714123D01*
X154821905Y-103714123D02*
X154869524Y-103809361D01*
X154869524Y-103809361D02*
X154964762Y-103904600D01*
X154964762Y-103904600D02*
X155107619Y-103952219D01*
X155107619Y-103952219D02*
X155202857Y-103952219D01*
X155202857Y-103952219D02*
X155345714Y-103904600D01*
X155345714Y-103904600D02*
X155393333Y-103856980D01*
X155393333Y-103856980D02*
X155393333Y-103523647D01*
X155393333Y-103523647D02*
X155202857Y-103523647D01*
X156250476Y-103952219D02*
X156250476Y-103428409D01*
X156250476Y-103428409D02*
X156202857Y-103333171D01*
X156202857Y-103333171D02*
X156107619Y-103285552D01*
X156107619Y-103285552D02*
X155917143Y-103285552D01*
X155917143Y-103285552D02*
X155821905Y-103333171D01*
X156250476Y-103904600D02*
X156155238Y-103952219D01*
X156155238Y-103952219D02*
X155917143Y-103952219D01*
X155917143Y-103952219D02*
X155821905Y-103904600D01*
X155821905Y-103904600D02*
X155774286Y-103809361D01*
X155774286Y-103809361D02*
X155774286Y-103714123D01*
X155774286Y-103714123D02*
X155821905Y-103618885D01*
X155821905Y-103618885D02*
X155917143Y-103571266D01*
X155917143Y-103571266D02*
X156155238Y-103571266D01*
X156155238Y-103571266D02*
X156250476Y-103523647D01*
X156726667Y-103952219D02*
X156726667Y-103285552D01*
X156726667Y-103380790D02*
X156774286Y-103333171D01*
X156774286Y-103333171D02*
X156869524Y-103285552D01*
X156869524Y-103285552D02*
X157012381Y-103285552D01*
X157012381Y-103285552D02*
X157107619Y-103333171D01*
X157107619Y-103333171D02*
X157155238Y-103428409D01*
X157155238Y-103428409D02*
X157155238Y-103952219D01*
X157155238Y-103428409D02*
X157202857Y-103333171D01*
X157202857Y-103333171D02*
X157298095Y-103285552D01*
X157298095Y-103285552D02*
X157440952Y-103285552D01*
X157440952Y-103285552D02*
X157536191Y-103333171D01*
X157536191Y-103333171D02*
X157583810Y-103428409D01*
X157583810Y-103428409D02*
X157583810Y-103952219D01*
X158440952Y-103904600D02*
X158345714Y-103952219D01*
X158345714Y-103952219D02*
X158155238Y-103952219D01*
X158155238Y-103952219D02*
X158060000Y-103904600D01*
X158060000Y-103904600D02*
X158012381Y-103809361D01*
X158012381Y-103809361D02*
X158012381Y-103428409D01*
X158012381Y-103428409D02*
X158060000Y-103333171D01*
X158060000Y-103333171D02*
X158155238Y-103285552D01*
X158155238Y-103285552D02*
X158345714Y-103285552D01*
X158345714Y-103285552D02*
X158440952Y-103333171D01*
X158440952Y-103333171D02*
X158488571Y-103428409D01*
X158488571Y-103428409D02*
X158488571Y-103523647D01*
X158488571Y-103523647D02*
X158012381Y-103618885D01*
D11*
X145693333Y-96394580D02*
X145645714Y-96442200D01*
X145645714Y-96442200D02*
X145502857Y-96489819D01*
X145502857Y-96489819D02*
X145407619Y-96489819D01*
X145407619Y-96489819D02*
X145264762Y-96442200D01*
X145264762Y-96442200D02*
X145169524Y-96346961D01*
X145169524Y-96346961D02*
X145121905Y-96251723D01*
X145121905Y-96251723D02*
X145074286Y-96061247D01*
X145074286Y-96061247D02*
X145074286Y-95918390D01*
X145074286Y-95918390D02*
X145121905Y-95727914D01*
X145121905Y-95727914D02*
X145169524Y-95632676D01*
X145169524Y-95632676D02*
X145264762Y-95537438D01*
X145264762Y-95537438D02*
X145407619Y-95489819D01*
X145407619Y-95489819D02*
X145502857Y-95489819D01*
X145502857Y-95489819D02*
X145645714Y-95537438D01*
X145645714Y-95537438D02*
X145693333Y-95585057D01*
X146074286Y-95585057D02*
X146121905Y-95537438D01*
X146121905Y-95537438D02*
X146217143Y-95489819D01*
X146217143Y-95489819D02*
X146455238Y-95489819D01*
X146455238Y-95489819D02*
X146550476Y-95537438D01*
X146550476Y-95537438D02*
X146598095Y-95585057D01*
X146598095Y-95585057D02*
X146645714Y-95680295D01*
X146645714Y-95680295D02*
X146645714Y-95775533D01*
X146645714Y-95775533D02*
X146598095Y-95918390D01*
X146598095Y-95918390D02*
X146026667Y-96489819D01*
X146026667Y-96489819D02*
X146645714Y-96489819D01*
X131723478Y-79489977D02*
X131658430Y-79507407D01*
X131658430Y-79507407D02*
X131510902Y-79477218D01*
X131510902Y-79477218D02*
X131428423Y-79429599D01*
X131428423Y-79429599D02*
X131328515Y-79316931D01*
X131328515Y-79316931D02*
X131293656Y-79186833D01*
X131293656Y-79186833D02*
X131300035Y-79080545D01*
X131300035Y-79080545D02*
X131354034Y-78891778D01*
X131354034Y-78891778D02*
X131425463Y-78768060D01*
X131425463Y-78768060D02*
X131561940Y-78626913D01*
X131561940Y-78626913D02*
X131650798Y-78568244D01*
X131650798Y-78568244D02*
X131780896Y-78533384D01*
X131780896Y-78533384D02*
X131928423Y-78563573D01*
X131928423Y-78563573D02*
X132010902Y-78611192D01*
X132010902Y-78611192D02*
X132110810Y-78723860D01*
X132110810Y-78723860D02*
X132128240Y-78788909D01*
X132500645Y-80048646D02*
X132005774Y-79762932D01*
X132253210Y-79905789D02*
X132753210Y-79039764D01*
X132753210Y-79039764D02*
X132599302Y-79115863D01*
X132599302Y-79115863D02*
X132469205Y-79150722D01*
X132469205Y-79150722D02*
X132362917Y-79144342D01*
X133576286Y-79899867D02*
X133242953Y-80477218D01*
X133560566Y-79450905D02*
X132997227Y-79950447D01*
X132997227Y-79950447D02*
X133533338Y-80259971D01*
X143202080Y-77566666D02*
X143249700Y-77614285D01*
X143249700Y-77614285D02*
X143297319Y-77757142D01*
X143297319Y-77757142D02*
X143297319Y-77852380D01*
X143297319Y-77852380D02*
X143249700Y-77995237D01*
X143249700Y-77995237D02*
X143154461Y-78090475D01*
X143154461Y-78090475D02*
X143059223Y-78138094D01*
X143059223Y-78138094D02*
X142868747Y-78185713D01*
X142868747Y-78185713D02*
X142725890Y-78185713D01*
X142725890Y-78185713D02*
X142535414Y-78138094D01*
X142535414Y-78138094D02*
X142440176Y-78090475D01*
X142440176Y-78090475D02*
X142344938Y-77995237D01*
X142344938Y-77995237D02*
X142297319Y-77852380D01*
X142297319Y-77852380D02*
X142297319Y-77757142D01*
X142297319Y-77757142D02*
X142344938Y-77614285D01*
X142344938Y-77614285D02*
X142392557Y-77566666D01*
X142297319Y-77233332D02*
X142297319Y-76614285D01*
X142297319Y-76614285D02*
X142678271Y-76947618D01*
X142678271Y-76947618D02*
X142678271Y-76804761D01*
X142678271Y-76804761D02*
X142725890Y-76709523D01*
X142725890Y-76709523D02*
X142773509Y-76661904D01*
X142773509Y-76661904D02*
X142868747Y-76614285D01*
X142868747Y-76614285D02*
X143106842Y-76614285D01*
X143106842Y-76614285D02*
X143202080Y-76661904D01*
X143202080Y-76661904D02*
X143249700Y-76709523D01*
X143249700Y-76709523D02*
X143297319Y-76804761D01*
X143297319Y-76804761D02*
X143297319Y-77090475D01*
X143297319Y-77090475D02*
X143249700Y-77185713D01*
X143249700Y-77185713D02*
X143202080Y-77233332D01*
X131876666Y-104054819D02*
X131876666Y-104769104D01*
X131876666Y-104769104D02*
X131829047Y-104911961D01*
X131829047Y-104911961D02*
X131733809Y-105007200D01*
X131733809Y-105007200D02*
X131590952Y-105054819D01*
X131590952Y-105054819D02*
X131495714Y-105054819D01*
X132305238Y-104150057D02*
X132352857Y-104102438D01*
X132352857Y-104102438D02*
X132448095Y-104054819D01*
X132448095Y-104054819D02*
X132686190Y-104054819D01*
X132686190Y-104054819D02*
X132781428Y-104102438D01*
X132781428Y-104102438D02*
X132829047Y-104150057D01*
X132829047Y-104150057D02*
X132876666Y-104245295D01*
X132876666Y-104245295D02*
X132876666Y-104340533D01*
X132876666Y-104340533D02*
X132829047Y-104483390D01*
X132829047Y-104483390D02*
X132257619Y-105054819D01*
X132257619Y-105054819D02*
X132876666Y-105054819D01*
X126432719Y-59554819D02*
X126099386Y-59078628D01*
X125861291Y-59554819D02*
X125861291Y-58554819D01*
X125861291Y-58554819D02*
X126242243Y-58554819D01*
X126242243Y-58554819D02*
X126337481Y-58602438D01*
X126337481Y-58602438D02*
X126385100Y-58650057D01*
X126385100Y-58650057D02*
X126432719Y-58745295D01*
X126432719Y-58745295D02*
X126432719Y-58888152D01*
X126432719Y-58888152D02*
X126385100Y-58983390D01*
X126385100Y-58983390D02*
X126337481Y-59031009D01*
X126337481Y-59031009D02*
X126242243Y-59078628D01*
X126242243Y-59078628D02*
X125861291Y-59078628D01*
X127385100Y-59554819D02*
X126813672Y-59554819D01*
X127099386Y-59554819D02*
X127099386Y-58554819D01*
X127099386Y-58554819D02*
X127004148Y-58697676D01*
X127004148Y-58697676D02*
X126908910Y-58792914D01*
X126908910Y-58792914D02*
X126813672Y-58840533D01*
X123674112Y-99091809D02*
X123609063Y-99074380D01*
X123609063Y-99074380D02*
X123496395Y-98974471D01*
X123496395Y-98974471D02*
X123448776Y-98891993D01*
X123448776Y-98891993D02*
X123418587Y-98744465D01*
X123418587Y-98744465D02*
X123453446Y-98614367D01*
X123453446Y-98614367D02*
X123512115Y-98525509D01*
X123512115Y-98525509D02*
X123653263Y-98389032D01*
X123653263Y-98389032D02*
X123776981Y-98317603D01*
X123776981Y-98317603D02*
X123965748Y-98263604D01*
X123965748Y-98263604D02*
X124072036Y-98257225D01*
X124072036Y-98257225D02*
X124202133Y-98292084D01*
X124202133Y-98292084D02*
X124314801Y-98391993D01*
X124314801Y-98391993D02*
X124362420Y-98474471D01*
X124362420Y-98474471D02*
X124392610Y-98621999D01*
X124392610Y-98621999D02*
X124375180Y-98687047D01*
X124067824Y-99964214D02*
X123782109Y-99469343D01*
X123924966Y-99716779D02*
X124790992Y-99216779D01*
X124790992Y-99216779D02*
X124619655Y-99205729D01*
X124619655Y-99205729D02*
X124489557Y-99170869D01*
X124489557Y-99170869D02*
X124400699Y-99112200D01*
X124544014Y-100789001D02*
X124258300Y-100294129D01*
X124401157Y-100541565D02*
X125267182Y-100041565D01*
X125267182Y-100041565D02*
X125095845Y-100030515D01*
X125095845Y-100030515D02*
X124965748Y-99995655D01*
X124965748Y-99995655D02*
X124876889Y-99936986D01*
X127028966Y-65017857D02*
X127076586Y-65065476D01*
X127076586Y-65065476D02*
X127124205Y-65208333D01*
X127124205Y-65208333D02*
X127124205Y-65303571D01*
X127124205Y-65303571D02*
X127076586Y-65446428D01*
X127076586Y-65446428D02*
X126981347Y-65541666D01*
X126981347Y-65541666D02*
X126886109Y-65589285D01*
X126886109Y-65589285D02*
X126695633Y-65636904D01*
X126695633Y-65636904D02*
X126552776Y-65636904D01*
X126552776Y-65636904D02*
X126362300Y-65589285D01*
X126362300Y-65589285D02*
X126267062Y-65541666D01*
X126267062Y-65541666D02*
X126171824Y-65446428D01*
X126171824Y-65446428D02*
X126124205Y-65303571D01*
X126124205Y-65303571D02*
X126124205Y-65208333D01*
X126124205Y-65208333D02*
X126171824Y-65065476D01*
X126171824Y-65065476D02*
X126219443Y-65017857D01*
X127124205Y-64065476D02*
X127124205Y-64636904D01*
X127124205Y-64351190D02*
X126124205Y-64351190D01*
X126124205Y-64351190D02*
X126267062Y-64446428D01*
X126267062Y-64446428D02*
X126362300Y-64541666D01*
X126362300Y-64541666D02*
X126409919Y-64636904D01*
X126552776Y-63494047D02*
X126505157Y-63589285D01*
X126505157Y-63589285D02*
X126457538Y-63636904D01*
X126457538Y-63636904D02*
X126362300Y-63684523D01*
X126362300Y-63684523D02*
X126314681Y-63684523D01*
X126314681Y-63684523D02*
X126219443Y-63636904D01*
X126219443Y-63636904D02*
X126171824Y-63589285D01*
X126171824Y-63589285D02*
X126124205Y-63494047D01*
X126124205Y-63494047D02*
X126124205Y-63303571D01*
X126124205Y-63303571D02*
X126171824Y-63208333D01*
X126171824Y-63208333D02*
X126219443Y-63160714D01*
X126219443Y-63160714D02*
X126314681Y-63113095D01*
X126314681Y-63113095D02*
X126362300Y-63113095D01*
X126362300Y-63113095D02*
X126457538Y-63160714D01*
X126457538Y-63160714D02*
X126505157Y-63208333D01*
X126505157Y-63208333D02*
X126552776Y-63303571D01*
X126552776Y-63303571D02*
X126552776Y-63494047D01*
X126552776Y-63494047D02*
X126600395Y-63589285D01*
X126600395Y-63589285D02*
X126648014Y-63636904D01*
X126648014Y-63636904D02*
X126743252Y-63684523D01*
X126743252Y-63684523D02*
X126933728Y-63684523D01*
X126933728Y-63684523D02*
X127028966Y-63636904D01*
X127028966Y-63636904D02*
X127076586Y-63589285D01*
X127076586Y-63589285D02*
X127124205Y-63494047D01*
X127124205Y-63494047D02*
X127124205Y-63303571D01*
X127124205Y-63303571D02*
X127076586Y-63208333D01*
X127076586Y-63208333D02*
X127028966Y-63160714D01*
X127028966Y-63160714D02*
X126933728Y-63113095D01*
X126933728Y-63113095D02*
X126743252Y-63113095D01*
X126743252Y-63113095D02*
X126648014Y-63160714D01*
X126648014Y-63160714D02*
X126600395Y-63208333D01*
X126600395Y-63208333D02*
X126552776Y-63303571D01*
X147893333Y-68359580D02*
X147845714Y-68407200D01*
X147845714Y-68407200D02*
X147702857Y-68454819D01*
X147702857Y-68454819D02*
X147607619Y-68454819D01*
X147607619Y-68454819D02*
X147464762Y-68407200D01*
X147464762Y-68407200D02*
X147369524Y-68311961D01*
X147369524Y-68311961D02*
X147321905Y-68216723D01*
X147321905Y-68216723D02*
X147274286Y-68026247D01*
X147274286Y-68026247D02*
X147274286Y-67883390D01*
X147274286Y-67883390D02*
X147321905Y-67692914D01*
X147321905Y-67692914D02*
X147369524Y-67597676D01*
X147369524Y-67597676D02*
X147464762Y-67502438D01*
X147464762Y-67502438D02*
X147607619Y-67454819D01*
X147607619Y-67454819D02*
X147702857Y-67454819D01*
X147702857Y-67454819D02*
X147845714Y-67502438D01*
X147845714Y-67502438D02*
X147893333Y-67550057D01*
X148798095Y-67454819D02*
X148321905Y-67454819D01*
X148321905Y-67454819D02*
X148274286Y-67931009D01*
X148274286Y-67931009D02*
X148321905Y-67883390D01*
X148321905Y-67883390D02*
X148417143Y-67835771D01*
X148417143Y-67835771D02*
X148655238Y-67835771D01*
X148655238Y-67835771D02*
X148750476Y-67883390D01*
X148750476Y-67883390D02*
X148798095Y-67931009D01*
X148798095Y-67931009D02*
X148845714Y-68026247D01*
X148845714Y-68026247D02*
X148845714Y-68264342D01*
X148845714Y-68264342D02*
X148798095Y-68359580D01*
X148798095Y-68359580D02*
X148750476Y-68407200D01*
X148750476Y-68407200D02*
X148655238Y-68454819D01*
X148655238Y-68454819D02*
X148417143Y-68454819D01*
X148417143Y-68454819D02*
X148321905Y-68407200D01*
X148321905Y-68407200D02*
X148274286Y-68359580D01*
X148944371Y-81488563D02*
X148879322Y-81471133D01*
X148879322Y-81471133D02*
X148766654Y-81371225D01*
X148766654Y-81371225D02*
X148719035Y-81288746D01*
X148719035Y-81288746D02*
X148688846Y-81141219D01*
X148688846Y-81141219D02*
X148723706Y-81011121D01*
X148723706Y-81011121D02*
X148782375Y-80922263D01*
X148782375Y-80922263D02*
X148923522Y-80785785D01*
X148923522Y-80785785D02*
X149047240Y-80714357D01*
X149047240Y-80714357D02*
X149236007Y-80660358D01*
X149236007Y-80660358D02*
X149342295Y-80653978D01*
X149342295Y-80653978D02*
X149472393Y-80688838D01*
X149472393Y-80688838D02*
X149585061Y-80788746D01*
X149585061Y-80788746D02*
X149632680Y-80871225D01*
X149632680Y-80871225D02*
X149662869Y-81018752D01*
X149662869Y-81018752D02*
X149645439Y-81083801D01*
X149099988Y-81948575D02*
X149195226Y-82113532D01*
X149195226Y-82113532D02*
X149284084Y-82172201D01*
X149284084Y-82172201D02*
X149349133Y-82189631D01*
X149349133Y-82189631D02*
X149520470Y-82200681D01*
X149520470Y-82200681D02*
X149709237Y-82146682D01*
X149709237Y-82146682D02*
X150039151Y-81956206D01*
X150039151Y-81956206D02*
X150097820Y-81867348D01*
X150097820Y-81867348D02*
X150115250Y-81802299D01*
X150115250Y-81802299D02*
X150108870Y-81696011D01*
X150108870Y-81696011D02*
X150013632Y-81531054D01*
X150013632Y-81531054D02*
X149924774Y-81472384D01*
X149924774Y-81472384D02*
X149859725Y-81454955D01*
X149859725Y-81454955D02*
X149753437Y-81461334D01*
X149753437Y-81461334D02*
X149547240Y-81580382D01*
X149547240Y-81580382D02*
X149488571Y-81669240D01*
X149488571Y-81669240D02*
X149471142Y-81734289D01*
X149471142Y-81734289D02*
X149477521Y-81840577D01*
X149477521Y-81840577D02*
X149572759Y-82005535D01*
X149572759Y-82005535D02*
X149661618Y-82064204D01*
X149661618Y-82064204D02*
X149726667Y-82081633D01*
X149726667Y-82081633D02*
X149832955Y-82075254D01*
X147893333Y-59859580D02*
X147845714Y-59907200D01*
X147845714Y-59907200D02*
X147702857Y-59954819D01*
X147702857Y-59954819D02*
X147607619Y-59954819D01*
X147607619Y-59954819D02*
X147464762Y-59907200D01*
X147464762Y-59907200D02*
X147369524Y-59811961D01*
X147369524Y-59811961D02*
X147321905Y-59716723D01*
X147321905Y-59716723D02*
X147274286Y-59526247D01*
X147274286Y-59526247D02*
X147274286Y-59383390D01*
X147274286Y-59383390D02*
X147321905Y-59192914D01*
X147321905Y-59192914D02*
X147369524Y-59097676D01*
X147369524Y-59097676D02*
X147464762Y-59002438D01*
X147464762Y-59002438D02*
X147607619Y-58954819D01*
X147607619Y-58954819D02*
X147702857Y-58954819D01*
X147702857Y-58954819D02*
X147845714Y-59002438D01*
X147845714Y-59002438D02*
X147893333Y-59050057D01*
X148750476Y-58954819D02*
X148560000Y-58954819D01*
X148560000Y-58954819D02*
X148464762Y-59002438D01*
X148464762Y-59002438D02*
X148417143Y-59050057D01*
X148417143Y-59050057D02*
X148321905Y-59192914D01*
X148321905Y-59192914D02*
X148274286Y-59383390D01*
X148274286Y-59383390D02*
X148274286Y-59764342D01*
X148274286Y-59764342D02*
X148321905Y-59859580D01*
X148321905Y-59859580D02*
X148369524Y-59907200D01*
X148369524Y-59907200D02*
X148464762Y-59954819D01*
X148464762Y-59954819D02*
X148655238Y-59954819D01*
X148655238Y-59954819D02*
X148750476Y-59907200D01*
X148750476Y-59907200D02*
X148798095Y-59859580D01*
X148798095Y-59859580D02*
X148845714Y-59764342D01*
X148845714Y-59764342D02*
X148845714Y-59526247D01*
X148845714Y-59526247D02*
X148798095Y-59431009D01*
X148798095Y-59431009D02*
X148750476Y-59383390D01*
X148750476Y-59383390D02*
X148655238Y-59335771D01*
X148655238Y-59335771D02*
X148464762Y-59335771D01*
X148464762Y-59335771D02*
X148369524Y-59383390D01*
X148369524Y-59383390D02*
X148321905Y-59431009D01*
X148321905Y-59431009D02*
X148274286Y-59526247D01*
X157738915Y-98068440D02*
X157381772Y-98687030D01*
X157381772Y-98687030D02*
X157269104Y-98786938D01*
X157269104Y-98786938D02*
X157139006Y-98821798D01*
X157139006Y-98821798D02*
X156991479Y-98791608D01*
X156991479Y-98791608D02*
X156909000Y-98743989D01*
X158068829Y-98258917D02*
X158604940Y-98568440D01*
X158604940Y-98568440D02*
X158125789Y-98731688D01*
X158125789Y-98731688D02*
X158249507Y-98803117D01*
X158249507Y-98803117D02*
X158308176Y-98891975D01*
X158308176Y-98891975D02*
X158325606Y-98957024D01*
X158325606Y-98957024D02*
X158319226Y-99063312D01*
X158319226Y-99063312D02*
X158200178Y-99269509D01*
X158200178Y-99269509D02*
X158111320Y-99328178D01*
X158111320Y-99328178D02*
X158046271Y-99345607D01*
X158046271Y-99345607D02*
X157939983Y-99339228D01*
X157939983Y-99339228D02*
X157692547Y-99196370D01*
X157692547Y-99196370D02*
X157633878Y-99107512D01*
X157633878Y-99107512D02*
X157616448Y-99042463D01*
X153259313Y-89376816D02*
X153194264Y-89359387D01*
X153194264Y-89359387D02*
X153081596Y-89259478D01*
X153081596Y-89259478D02*
X153033977Y-89177000D01*
X153033977Y-89177000D02*
X153003788Y-89029472D01*
X153003788Y-89029472D02*
X153038647Y-88899374D01*
X153038647Y-88899374D02*
X153097316Y-88810516D01*
X153097316Y-88810516D02*
X153238464Y-88674039D01*
X153238464Y-88674039D02*
X153362182Y-88602610D01*
X153362182Y-88602610D02*
X153550949Y-88548611D01*
X153550949Y-88548611D02*
X153657237Y-88542232D01*
X153657237Y-88542232D02*
X153787334Y-88577091D01*
X153787334Y-88577091D02*
X153900002Y-88677000D01*
X153900002Y-88677000D02*
X153947621Y-88759478D01*
X153947621Y-88759478D02*
X153977811Y-88907006D01*
X153977811Y-88907006D02*
X153960381Y-88972054D01*
X153653025Y-90249221D02*
X153367310Y-89754350D01*
X153510167Y-90001786D02*
X154376193Y-89501786D01*
X154376193Y-89501786D02*
X154204856Y-89490736D01*
X154204856Y-89490736D02*
X154074758Y-89455876D01*
X154074758Y-89455876D02*
X153985900Y-89397207D01*
X154971431Y-90532768D02*
X154733336Y-90120375D01*
X154733336Y-90120375D02*
X154297133Y-90317231D01*
X154297133Y-90317231D02*
X154362182Y-90334661D01*
X154362182Y-90334661D02*
X154451040Y-90393330D01*
X154451040Y-90393330D02*
X154570088Y-90599527D01*
X154570088Y-90599527D02*
X154576468Y-90705815D01*
X154576468Y-90705815D02*
X154559038Y-90770864D01*
X154559038Y-90770864D02*
X154500369Y-90859722D01*
X154500369Y-90859722D02*
X154294172Y-90978770D01*
X154294172Y-90978770D02*
X154187884Y-90985149D01*
X154187884Y-90985149D02*
X154122835Y-90967719D01*
X154122835Y-90967719D02*
X154033977Y-90909050D01*
X154033977Y-90909050D02*
X153914929Y-90702854D01*
X153914929Y-90702854D02*
X153908550Y-90596566D01*
X153908550Y-90596566D02*
X153925979Y-90531517D01*
X159865260Y-78235453D02*
X159800211Y-78218023D01*
X159800211Y-78218023D02*
X159687543Y-78118115D01*
X159687543Y-78118115D02*
X159639924Y-78035636D01*
X159639924Y-78035636D02*
X159609735Y-77888109D01*
X159609735Y-77888109D02*
X159644595Y-77758011D01*
X159644595Y-77758011D02*
X159703264Y-77669153D01*
X159703264Y-77669153D02*
X159844411Y-77532675D01*
X159844411Y-77532675D02*
X159968129Y-77461247D01*
X159968129Y-77461247D02*
X160156896Y-77407248D01*
X160156896Y-77407248D02*
X160263184Y-77400868D01*
X160263184Y-77400868D02*
X160393282Y-77435728D01*
X160393282Y-77435728D02*
X160505950Y-77535636D01*
X160505950Y-77535636D02*
X160553569Y-77618115D01*
X160553569Y-77618115D02*
X160583758Y-77765642D01*
X160583758Y-77765642D02*
X160566328Y-77830691D01*
X160815474Y-78071747D02*
X161148807Y-78649097D01*
X161148807Y-78649097D02*
X160068496Y-78777944D01*
X159619643Y-89604574D02*
X159637073Y-89669622D01*
X159637073Y-89669622D02*
X159606884Y-89817150D01*
X159606884Y-89817150D02*
X159559265Y-89899629D01*
X159559265Y-89899629D02*
X159446597Y-89999537D01*
X159446597Y-89999537D02*
X159316499Y-90034396D01*
X159316499Y-90034396D02*
X159210211Y-90028017D01*
X159210211Y-90028017D02*
X159021444Y-89974018D01*
X159021444Y-89974018D02*
X158897726Y-89902589D01*
X158897726Y-89902589D02*
X158756579Y-89766112D01*
X158756579Y-89766112D02*
X158697910Y-89677254D01*
X158697910Y-89677254D02*
X158663050Y-89547156D01*
X158663050Y-89547156D02*
X158693239Y-89399629D01*
X158693239Y-89399629D02*
X158740858Y-89317150D01*
X158740858Y-89317150D02*
X158853526Y-89217242D01*
X158853526Y-89217242D02*
X158918575Y-89199812D01*
X160178312Y-88827407D02*
X159892598Y-89322278D01*
X160035455Y-89074842D02*
X159169430Y-88574842D01*
X159169430Y-88574842D02*
X159245529Y-88728750D01*
X159245529Y-88728750D02*
X159280388Y-88858847D01*
X159280388Y-88858847D02*
X159274008Y-88965135D01*
X159740858Y-87585099D02*
X159645620Y-87750056D01*
X159645620Y-87750056D02*
X159639240Y-87856344D01*
X159639240Y-87856344D02*
X159656670Y-87921393D01*
X159656670Y-87921393D02*
X159732769Y-88075300D01*
X159732769Y-88075300D02*
X159873917Y-88211778D01*
X159873917Y-88211778D02*
X160203831Y-88402254D01*
X160203831Y-88402254D02*
X160310119Y-88408634D01*
X160310119Y-88408634D02*
X160375168Y-88391204D01*
X160375168Y-88391204D02*
X160464027Y-88332535D01*
X160464027Y-88332535D02*
X160559265Y-88167578D01*
X160559265Y-88167578D02*
X160565644Y-88061290D01*
X160565644Y-88061290D02*
X160548215Y-87996241D01*
X160548215Y-87996241D02*
X160489546Y-87907382D01*
X160489546Y-87907382D02*
X160283349Y-87788335D01*
X160283349Y-87788335D02*
X160177061Y-87781955D01*
X160177061Y-87781955D02*
X160112012Y-87799385D01*
X160112012Y-87799385D02*
X160023154Y-87858054D01*
X160023154Y-87858054D02*
X159927916Y-88023011D01*
X159927916Y-88023011D02*
X159921536Y-88129299D01*
X159921536Y-88129299D02*
X159938966Y-88194348D01*
X159938966Y-88194348D02*
X159997635Y-88283206D01*
X131323477Y-74789977D02*
X131258429Y-74807407D01*
X131258429Y-74807407D02*
X131110901Y-74777218D01*
X131110901Y-74777218D02*
X131028422Y-74729599D01*
X131028422Y-74729599D02*
X130928514Y-74616931D01*
X130928514Y-74616931D02*
X130893655Y-74486833D01*
X130893655Y-74486833D02*
X130900034Y-74380545D01*
X130900034Y-74380545D02*
X130954033Y-74191778D01*
X130954033Y-74191778D02*
X131025462Y-74068060D01*
X131025462Y-74068060D02*
X131161939Y-73926913D01*
X131161939Y-73926913D02*
X131250797Y-73868244D01*
X131250797Y-73868244D02*
X131380895Y-73833384D01*
X131380895Y-73833384D02*
X131528422Y-73863573D01*
X131528422Y-73863573D02*
X131610901Y-73911192D01*
X131610901Y-73911192D02*
X131710809Y-74023860D01*
X131710809Y-74023860D02*
X131728239Y-74088909D01*
X132100644Y-75348646D02*
X131605773Y-75062932D01*
X131853209Y-75205789D02*
X132353209Y-74339764D01*
X132353209Y-74339764D02*
X132199301Y-74415863D01*
X132199301Y-74415863D02*
X132069204Y-74450722D01*
X132069204Y-74450722D02*
X131962916Y-74444342D01*
X132889320Y-74649288D02*
X133425431Y-74958811D01*
X133425431Y-74958811D02*
X132946279Y-75122059D01*
X132946279Y-75122059D02*
X133069997Y-75193488D01*
X133069997Y-75193488D02*
X133128666Y-75282346D01*
X133128666Y-75282346D02*
X133146096Y-75347395D01*
X133146096Y-75347395D02*
X133139716Y-75453683D01*
X133139716Y-75453683D02*
X133020669Y-75659880D01*
X133020669Y-75659880D02*
X132931810Y-75718549D01*
X132931810Y-75718549D02*
X132866761Y-75735978D01*
X132866761Y-75735978D02*
X132760473Y-75729599D01*
X132760473Y-75729599D02*
X132513038Y-75586741D01*
X132513038Y-75586741D02*
X132454368Y-75497883D01*
X132454368Y-75497883D02*
X132436939Y-75432834D01*
X122668915Y-60262893D02*
X122311772Y-60881483D01*
X122311772Y-60881483D02*
X122199104Y-60981391D01*
X122199104Y-60981391D02*
X122069006Y-61016251D01*
X122069006Y-61016251D02*
X121921479Y-60986061D01*
X121921479Y-60986061D02*
X121839000Y-60938442D01*
X123452462Y-60715274D02*
X123287504Y-60620036D01*
X123287504Y-60620036D02*
X123181216Y-60613656D01*
X123181216Y-60613656D02*
X123116168Y-60631086D01*
X123116168Y-60631086D02*
X122962260Y-60707185D01*
X122962260Y-60707185D02*
X122825783Y-60848333D01*
X122825783Y-60848333D02*
X122635307Y-61178247D01*
X122635307Y-61178247D02*
X122628927Y-61284535D01*
X122628927Y-61284535D02*
X122646357Y-61349584D01*
X122646357Y-61349584D02*
X122705026Y-61438443D01*
X122705026Y-61438443D02*
X122869983Y-61533681D01*
X122869983Y-61533681D02*
X122976271Y-61540060D01*
X122976271Y-61540060D02*
X123041320Y-61522631D01*
X123041320Y-61522631D02*
X123130178Y-61463962D01*
X123130178Y-61463962D02*
X123249226Y-61257765D01*
X123249226Y-61257765D02*
X123255606Y-61151477D01*
X123255606Y-61151477D02*
X123238176Y-61086428D01*
X123238176Y-61086428D02*
X123179507Y-60997570D01*
X123179507Y-60997570D02*
X123014550Y-60902332D01*
X123014550Y-60902332D02*
X122908262Y-60895952D01*
X122908262Y-60895952D02*
X122843213Y-60913382D01*
X122843213Y-60913382D02*
X122754354Y-60972051D01*
X156359010Y-76572962D02*
X156293961Y-76555532D01*
X156293961Y-76555532D02*
X156181293Y-76455624D01*
X156181293Y-76455624D02*
X156133674Y-76373145D01*
X156133674Y-76373145D02*
X156103485Y-76225618D01*
X156103485Y-76225618D02*
X156138345Y-76095520D01*
X156138345Y-76095520D02*
X156197014Y-76006662D01*
X156197014Y-76006662D02*
X156338161Y-75870184D01*
X156338161Y-75870184D02*
X156461879Y-75798756D01*
X156461879Y-75798756D02*
X156650646Y-75744757D01*
X156650646Y-75744757D02*
X156756934Y-75738377D01*
X156756934Y-75738377D02*
X156887032Y-75773237D01*
X156887032Y-75773237D02*
X156999700Y-75873145D01*
X156999700Y-75873145D02*
X157047319Y-75955624D01*
X157047319Y-75955624D02*
X157077508Y-76103151D01*
X157077508Y-76103151D02*
X157060078Y-76168200D01*
X157057118Y-76829738D02*
X157050738Y-76723450D01*
X157050738Y-76723450D02*
X157068168Y-76658401D01*
X157068168Y-76658401D02*
X157126837Y-76569543D01*
X157126837Y-76569543D02*
X157168076Y-76545733D01*
X157168076Y-76545733D02*
X157274364Y-76539354D01*
X157274364Y-76539354D02*
X157339413Y-76556783D01*
X157339413Y-76556783D02*
X157428271Y-76615453D01*
X157428271Y-76615453D02*
X157523509Y-76780410D01*
X157523509Y-76780410D02*
X157529889Y-76886698D01*
X157529889Y-76886698D02*
X157512459Y-76951747D01*
X157512459Y-76951747D02*
X157453790Y-77040605D01*
X157453790Y-77040605D02*
X157412551Y-77064415D01*
X157412551Y-77064415D02*
X157306263Y-77070794D01*
X157306263Y-77070794D02*
X157241214Y-77053365D01*
X157241214Y-77053365D02*
X157152356Y-76994695D01*
X157152356Y-76994695D02*
X157057118Y-76829738D01*
X157057118Y-76829738D02*
X156968259Y-76771069D01*
X156968259Y-76771069D02*
X156903210Y-76753639D01*
X156903210Y-76753639D02*
X156796922Y-76760019D01*
X156796922Y-76760019D02*
X156631965Y-76855257D01*
X156631965Y-76855257D02*
X156573296Y-76944116D01*
X156573296Y-76944116D02*
X156555866Y-77009164D01*
X156555866Y-77009164D02*
X156562246Y-77115453D01*
X156562246Y-77115453D02*
X156657484Y-77280410D01*
X156657484Y-77280410D02*
X156746342Y-77339079D01*
X156746342Y-77339079D02*
X156811391Y-77356509D01*
X156811391Y-77356509D02*
X156917679Y-77350129D01*
X156917679Y-77350129D02*
X157082636Y-77254891D01*
X157082636Y-77254891D02*
X157141306Y-77166032D01*
X157141306Y-77166032D02*
X157158735Y-77100984D01*
X157158735Y-77100984D02*
X157152356Y-76994695D01*
X147793333Y-100359580D02*
X147745714Y-100407200D01*
X147745714Y-100407200D02*
X147602857Y-100454819D01*
X147602857Y-100454819D02*
X147507619Y-100454819D01*
X147507619Y-100454819D02*
X147364762Y-100407200D01*
X147364762Y-100407200D02*
X147269524Y-100311961D01*
X147269524Y-100311961D02*
X147221905Y-100216723D01*
X147221905Y-100216723D02*
X147174286Y-100026247D01*
X147174286Y-100026247D02*
X147174286Y-99883390D01*
X147174286Y-99883390D02*
X147221905Y-99692914D01*
X147221905Y-99692914D02*
X147269524Y-99597676D01*
X147269524Y-99597676D02*
X147364762Y-99502438D01*
X147364762Y-99502438D02*
X147507619Y-99454819D01*
X147507619Y-99454819D02*
X147602857Y-99454819D01*
X147602857Y-99454819D02*
X147745714Y-99502438D01*
X147745714Y-99502438D02*
X147793333Y-99550057D01*
X148745714Y-100454819D02*
X148174286Y-100454819D01*
X148460000Y-100454819D02*
X148460000Y-99454819D01*
X148460000Y-99454819D02*
X148364762Y-99597676D01*
X148364762Y-99597676D02*
X148269524Y-99692914D01*
X148269524Y-99692914D02*
X148174286Y-99740533D01*
X164787083Y-74169344D02*
X165144226Y-74787933D01*
X165144226Y-74787933D02*
X165174415Y-74935461D01*
X165174415Y-74935461D02*
X165139555Y-75065558D01*
X165139555Y-75065558D02*
X165039647Y-75178226D01*
X165039647Y-75178226D02*
X164957168Y-75225845D01*
X165737296Y-74005638D02*
X166070630Y-74582988D01*
X165340624Y-73794771D02*
X165491570Y-74532408D01*
X165491570Y-74532408D02*
X166027681Y-74222884D01*
X131504061Y-97364084D02*
X131486632Y-97429133D01*
X131486632Y-97429133D02*
X131386723Y-97541801D01*
X131386723Y-97541801D02*
X131304245Y-97589420D01*
X131304245Y-97589420D02*
X131156717Y-97619609D01*
X131156717Y-97619609D02*
X131026619Y-97584750D01*
X131026619Y-97584750D02*
X130937761Y-97526081D01*
X130937761Y-97526081D02*
X130801284Y-97384933D01*
X130801284Y-97384933D02*
X130729855Y-97261215D01*
X130729855Y-97261215D02*
X130675856Y-97072448D01*
X130675856Y-97072448D02*
X130669477Y-96966160D01*
X130669477Y-96966160D02*
X130704336Y-96836063D01*
X130704336Y-96836063D02*
X130804245Y-96723395D01*
X130804245Y-96723395D02*
X130886723Y-96675776D01*
X130886723Y-96675776D02*
X131034251Y-96645586D01*
X131034251Y-96645586D02*
X131099299Y-96663016D01*
X132376466Y-96970372D02*
X131881595Y-97256087D01*
X132129031Y-97113230D02*
X131629031Y-96247204D01*
X131629031Y-96247204D02*
X131617981Y-96418541D01*
X131617981Y-96418541D02*
X131583121Y-96548639D01*
X131583121Y-96548639D02*
X131524452Y-96637497D01*
X132412577Y-95794823D02*
X132495056Y-95747204D01*
X132495056Y-95747204D02*
X132601344Y-95740824D01*
X132601344Y-95740824D02*
X132666393Y-95758254D01*
X132666393Y-95758254D02*
X132755251Y-95816923D01*
X132755251Y-95816923D02*
X132891729Y-95958071D01*
X132891729Y-95958071D02*
X133010776Y-96164268D01*
X133010776Y-96164268D02*
X133064775Y-96353034D01*
X133064775Y-96353034D02*
X133071155Y-96459322D01*
X133071155Y-96459322D02*
X133053725Y-96524371D01*
X133053725Y-96524371D02*
X132995056Y-96613230D01*
X132995056Y-96613230D02*
X132912577Y-96660849D01*
X132912577Y-96660849D02*
X132806289Y-96667228D01*
X132806289Y-96667228D02*
X132741241Y-96649799D01*
X132741241Y-96649799D02*
X132652382Y-96591130D01*
X132652382Y-96591130D02*
X132515905Y-96449982D01*
X132515905Y-96449982D02*
X132396857Y-96243785D01*
X132396857Y-96243785D02*
X132342858Y-96055019D01*
X132342858Y-96055019D02*
X132336479Y-95948730D01*
X132336479Y-95948730D02*
X132353908Y-95883682D01*
X132353908Y-95883682D02*
X132412577Y-95794823D01*
X114493734Y-85577278D02*
X114850877Y-86195867D01*
X114850877Y-86195867D02*
X114881066Y-86343395D01*
X114881066Y-86343395D02*
X114846206Y-86473492D01*
X114846206Y-86473492D02*
X114746298Y-86586160D01*
X114746298Y-86586160D02*
X114663819Y-86633779D01*
X115859759Y-85943303D02*
X115364888Y-86229017D01*
X115612324Y-86086160D02*
X115112324Y-85220135D01*
X115112324Y-85220135D02*
X115101274Y-85391472D01*
X115101274Y-85391472D02*
X115066414Y-85521569D01*
X115066414Y-85521569D02*
X115007745Y-85610428D01*
X147893333Y-76359580D02*
X147845714Y-76407200D01*
X147845714Y-76407200D02*
X147702857Y-76454819D01*
X147702857Y-76454819D02*
X147607619Y-76454819D01*
X147607619Y-76454819D02*
X147464762Y-76407200D01*
X147464762Y-76407200D02*
X147369524Y-76311961D01*
X147369524Y-76311961D02*
X147321905Y-76216723D01*
X147321905Y-76216723D02*
X147274286Y-76026247D01*
X147274286Y-76026247D02*
X147274286Y-75883390D01*
X147274286Y-75883390D02*
X147321905Y-75692914D01*
X147321905Y-75692914D02*
X147369524Y-75597676D01*
X147369524Y-75597676D02*
X147464762Y-75502438D01*
X147464762Y-75502438D02*
X147607619Y-75454819D01*
X147607619Y-75454819D02*
X147702857Y-75454819D01*
X147702857Y-75454819D02*
X147845714Y-75502438D01*
X147845714Y-75502438D02*
X147893333Y-75550057D01*
X148750476Y-75788152D02*
X148750476Y-76454819D01*
X148512381Y-75407200D02*
X148274286Y-76121485D01*
X148274286Y-76121485D02*
X148893333Y-76121485D01*
X147136666Y-54854819D02*
X147136666Y-55569104D01*
X147136666Y-55569104D02*
X147089047Y-55711961D01*
X147089047Y-55711961D02*
X146993809Y-55807200D01*
X146993809Y-55807200D02*
X146850952Y-55854819D01*
X146850952Y-55854819D02*
X146755714Y-55854819D01*
X148089047Y-54854819D02*
X147612857Y-54854819D01*
X147612857Y-54854819D02*
X147565238Y-55331009D01*
X147565238Y-55331009D02*
X147612857Y-55283390D01*
X147612857Y-55283390D02*
X147708095Y-55235771D01*
X147708095Y-55235771D02*
X147946190Y-55235771D01*
X147946190Y-55235771D02*
X148041428Y-55283390D01*
X148041428Y-55283390D02*
X148089047Y-55331009D01*
X148089047Y-55331009D02*
X148136666Y-55426247D01*
X148136666Y-55426247D02*
X148136666Y-55664342D01*
X148136666Y-55664342D02*
X148089047Y-55759580D01*
X148089047Y-55759580D02*
X148041428Y-55807200D01*
X148041428Y-55807200D02*
X147946190Y-55854819D01*
X147946190Y-55854819D02*
X147708095Y-55854819D01*
X147708095Y-55854819D02*
X147612857Y-55807200D01*
X147612857Y-55807200D02*
X147565238Y-55759580D01*
X132187481Y-59479819D02*
X132187481Y-60289342D01*
X132187481Y-60289342D02*
X132235100Y-60384580D01*
X132235100Y-60384580D02*
X132282719Y-60432200D01*
X132282719Y-60432200D02*
X132377957Y-60479819D01*
X132377957Y-60479819D02*
X132568433Y-60479819D01*
X132568433Y-60479819D02*
X132663671Y-60432200D01*
X132663671Y-60432200D02*
X132711290Y-60384580D01*
X132711290Y-60384580D02*
X132758909Y-60289342D01*
X132758909Y-60289342D02*
X132758909Y-59479819D01*
X133187481Y-59575057D02*
X133235100Y-59527438D01*
X133235100Y-59527438D02*
X133330338Y-59479819D01*
X133330338Y-59479819D02*
X133568433Y-59479819D01*
X133568433Y-59479819D02*
X133663671Y-59527438D01*
X133663671Y-59527438D02*
X133711290Y-59575057D01*
X133711290Y-59575057D02*
X133758909Y-59670295D01*
X133758909Y-59670295D02*
X133758909Y-59765533D01*
X133758909Y-59765533D02*
X133711290Y-59908390D01*
X133711290Y-59908390D02*
X133139862Y-60479819D01*
X133139862Y-60479819D02*
X133758909Y-60479819D01*
X124028966Y-65017857D02*
X124076586Y-65065476D01*
X124076586Y-65065476D02*
X124124205Y-65208333D01*
X124124205Y-65208333D02*
X124124205Y-65303571D01*
X124124205Y-65303571D02*
X124076586Y-65446428D01*
X124076586Y-65446428D02*
X123981347Y-65541666D01*
X123981347Y-65541666D02*
X123886109Y-65589285D01*
X123886109Y-65589285D02*
X123695633Y-65636904D01*
X123695633Y-65636904D02*
X123552776Y-65636904D01*
X123552776Y-65636904D02*
X123362300Y-65589285D01*
X123362300Y-65589285D02*
X123267062Y-65541666D01*
X123267062Y-65541666D02*
X123171824Y-65446428D01*
X123171824Y-65446428D02*
X123124205Y-65303571D01*
X123124205Y-65303571D02*
X123124205Y-65208333D01*
X123124205Y-65208333D02*
X123171824Y-65065476D01*
X123171824Y-65065476D02*
X123219443Y-65017857D01*
X124124205Y-64065476D02*
X124124205Y-64636904D01*
X124124205Y-64351190D02*
X123124205Y-64351190D01*
X123124205Y-64351190D02*
X123267062Y-64446428D01*
X123267062Y-64446428D02*
X123362300Y-64541666D01*
X123362300Y-64541666D02*
X123409919Y-64636904D01*
X123124205Y-63732142D02*
X123124205Y-63065476D01*
X123124205Y-63065476D02*
X124124205Y-63494047D01*
X127792142Y-70359580D02*
X127744523Y-70407200D01*
X127744523Y-70407200D02*
X127601666Y-70454819D01*
X127601666Y-70454819D02*
X127506428Y-70454819D01*
X127506428Y-70454819D02*
X127363571Y-70407200D01*
X127363571Y-70407200D02*
X127268333Y-70311961D01*
X127268333Y-70311961D02*
X127220714Y-70216723D01*
X127220714Y-70216723D02*
X127173095Y-70026247D01*
X127173095Y-70026247D02*
X127173095Y-69883390D01*
X127173095Y-69883390D02*
X127220714Y-69692914D01*
X127220714Y-69692914D02*
X127268333Y-69597676D01*
X127268333Y-69597676D02*
X127363571Y-69502438D01*
X127363571Y-69502438D02*
X127506428Y-69454819D01*
X127506428Y-69454819D02*
X127601666Y-69454819D01*
X127601666Y-69454819D02*
X127744523Y-69502438D01*
X127744523Y-69502438D02*
X127792142Y-69550057D01*
X128744523Y-70454819D02*
X128173095Y-70454819D01*
X128458809Y-70454819D02*
X128458809Y-69454819D01*
X128458809Y-69454819D02*
X128363571Y-69597676D01*
X128363571Y-69597676D02*
X128268333Y-69692914D01*
X128268333Y-69692914D02*
X128173095Y-69740533D01*
X129125476Y-69550057D02*
X129173095Y-69502438D01*
X129173095Y-69502438D02*
X129268333Y-69454819D01*
X129268333Y-69454819D02*
X129506428Y-69454819D01*
X129506428Y-69454819D02*
X129601666Y-69502438D01*
X129601666Y-69502438D02*
X129649285Y-69550057D01*
X129649285Y-69550057D02*
X129696904Y-69645295D01*
X129696904Y-69645295D02*
X129696904Y-69740533D01*
X129696904Y-69740533D02*
X129649285Y-69883390D01*
X129649285Y-69883390D02*
X129077857Y-70454819D01*
X129077857Y-70454819D02*
X129696904Y-70454819D01*
D12*
%TO.C,C2*%
X143350000Y-96108767D02*
X143350000Y-95816233D01*
X144370000Y-96108767D02*
X144370000Y-95816233D01*
%TO.C,C14*%
X134131381Y-79237290D02*
X134384723Y-79383558D01*
X134641383Y-78353944D02*
X134894725Y-78500212D01*
%TO.C,C3*%
X142843767Y-78890000D02*
X142551233Y-78890000D01*
X142843767Y-79910000D02*
X142551233Y-79910000D01*
%TO.C,J2*%
X133650000Y-103270000D02*
X134980000Y-103270000D01*
X133650000Y-104600000D02*
X133650000Y-103270000D01*
X136250000Y-103270000D02*
X146470000Y-103270000D01*
X136250000Y-105930000D02*
X136250000Y-103270000D01*
X136250000Y-105930000D02*
X146470000Y-105930000D01*
X146470000Y-105930000D02*
X146470000Y-103270000D01*
%TO.C,R1*%
X127576886Y-58932776D02*
X127576886Y-59442224D01*
X128621886Y-58932776D02*
X128621886Y-59442224D01*
%TO.C,C11*%
X125778330Y-97231461D02*
X126031670Y-97085194D01*
X126288330Y-98114806D02*
X126541670Y-97968539D01*
%TO.C,C18*%
X127589386Y-64521267D02*
X127589386Y-64228733D01*
X128609386Y-64521267D02*
X128609386Y-64228733D01*
%TO.C,C5*%
X145550000Y-67856267D02*
X145550000Y-67563733D01*
X146570000Y-67856267D02*
X146570000Y-67563733D01*
%TO.C,C9*%
X150113944Y-83981382D02*
X150260211Y-84234724D01*
X150997289Y-83471382D02*
X151143556Y-83724724D01*
%TO.C,C6*%
X145550000Y-59783767D02*
X145550000Y-59491233D01*
X146570000Y-59783767D02*
X146570000Y-59491233D01*
%TO.C,J3*%
X158403186Y-94924557D02*
X163513186Y-86073777D01*
X159406814Y-98506223D02*
X158255000Y-97841223D01*
X160071814Y-97354409D02*
X159406814Y-98506223D01*
X160706814Y-96254557D02*
X158403186Y-94924557D01*
X160706814Y-96254557D02*
X165816814Y-87403777D01*
X165816814Y-87403777D02*
X163513186Y-86073777D01*
%TO.C,C15*%
X151991461Y-87281671D02*
X151845194Y-87028330D01*
X152874806Y-86771670D02*
X152728539Y-86518329D01*
%TO.C,C7*%
X162078329Y-76531461D02*
X162331671Y-76385194D01*
X162588329Y-77414806D02*
X162841671Y-77268539D01*
%TO.C,C16*%
X158022711Y-87771382D02*
X157876444Y-88024724D01*
X158906056Y-88281382D02*
X158759789Y-88534724D01*
%TO.C,C13*%
X131131671Y-76514806D02*
X130878329Y-76368539D01*
X131641671Y-75631461D02*
X131388329Y-75485194D01*
%TO.C,J6*%
X114403186Y-72586223D02*
X116706814Y-73916223D01*
X119513186Y-63735443D02*
X114403186Y-72586223D01*
X119513186Y-63735443D02*
X121816814Y-65065443D01*
X121816814Y-65065443D02*
X116706814Y-73916223D01*
X121965000Y-62148777D02*
X123116814Y-62813777D01*
X123116814Y-62813777D02*
X122451814Y-63965591D01*
%TO.C,C8*%
X157545194Y-78928330D02*
X157691461Y-79181671D01*
X158428539Y-78418329D02*
X158574806Y-78671670D01*
%TO.C,C1*%
X145550000Y-100146267D02*
X145550000Y-99853733D01*
X146570000Y-100146267D02*
X146570000Y-99853733D01*
D13*
%TO.C,G\u002A\u002A\u002A*%
G36*
X127190576Y-104828035D02*
G01*
X127057229Y-104828035D01*
X127057229Y-104705355D01*
X127190576Y-104705355D01*
X127190576Y-104828035D01*
G37*
G36*
X127190576Y-105446767D02*
G01*
X127057229Y-105446767D01*
X127057229Y-104924045D01*
X127190576Y-104924045D01*
X127190576Y-105446767D01*
G37*
G36*
X128089337Y-103755922D02*
G01*
X128305360Y-103755922D01*
X128305359Y-103886603D01*
X128089337Y-103886603D01*
X128089337Y-104278645D01*
X127953323Y-104278644D01*
X127953323Y-103886603D01*
X127793306Y-103886603D01*
X127793306Y-103755923D01*
X127953323Y-103755922D01*
X127953323Y-103587905D01*
X128089337Y-103587905D01*
X128089337Y-103755922D01*
G37*
G36*
X127719965Y-104359986D02*
G01*
X127713704Y-104378654D01*
X127704511Y-104402069D01*
X127693548Y-104421883D01*
X127679803Y-104439776D01*
X127671674Y-104448424D01*
X127660068Y-104459356D01*
X127649037Y-104467788D01*
X127636375Y-104475283D01*
X127627440Y-104479806D01*
X127618328Y-104484172D01*
X127610074Y-104487858D01*
X127602136Y-104490917D01*
X127593976Y-104493410D01*
X127585050Y-104495395D01*
X127574823Y-104496930D01*
X127562751Y-104498072D01*
X127548295Y-104498881D01*
X127530916Y-104499415D01*
X127510072Y-104499731D01*
X127485223Y-104499889D01*
X127455830Y-104499946D01*
X127440602Y-104499954D01*
X127315922Y-104500000D01*
X127315922Y-104366653D01*
X127439269Y-104366643D01*
X127468232Y-104366630D01*
X127492344Y-104366585D01*
X127512088Y-104366488D01*
X127527948Y-104366321D01*
X127540406Y-104366067D01*
X127549946Y-104365706D01*
X127557049Y-104365221D01*
X127562201Y-104364592D01*
X127565883Y-104363801D01*
X127568578Y-104362830D01*
X127570770Y-104361660D01*
X127570829Y-104361623D01*
X127573461Y-104360113D01*
X127575808Y-104358772D01*
X127577888Y-104357304D01*
X127579717Y-104355412D01*
X127581311Y-104352803D01*
X127582686Y-104349179D01*
X127583857Y-104344243D01*
X127584842Y-104337701D01*
X127585657Y-104329255D01*
X127586317Y-104318610D01*
X127586838Y-104305470D01*
X127587235Y-104289538D01*
X127587529Y-104270519D01*
X127587732Y-104248117D01*
X127587859Y-104222035D01*
X127587929Y-104191979D01*
X127587958Y-104157649D01*
X127587959Y-104118752D01*
X127587953Y-104074991D01*
X127587951Y-104046883D01*
X127587951Y-103755922D01*
X127721451Y-103755922D01*
X127719965Y-104359986D01*
G37*
G36*
X127275922Y-103935275D02*
G01*
X127275920Y-103971724D01*
X127275933Y-104003226D01*
X127275994Y-104030165D01*
X127276133Y-104052927D01*
X127276383Y-104071896D01*
X127276776Y-104087461D01*
X127277346Y-104100006D01*
X127278122Y-104109914D01*
X127279137Y-104117576D01*
X127280423Y-104123373D01*
X127282013Y-104127691D01*
X127283937Y-104130919D01*
X127286229Y-104133439D01*
X127288919Y-104135638D01*
X127292041Y-104137902D01*
X127292779Y-104138440D01*
X127294690Y-104139731D01*
X127296912Y-104140807D01*
X127299925Y-104141692D01*
X127304210Y-104142409D01*
X127310245Y-104142981D01*
X127318513Y-104143430D01*
X127329490Y-104143780D01*
X127343660Y-104144052D01*
X127361501Y-104144272D01*
X127383495Y-104144461D01*
X127410119Y-104144643D01*
X127424126Y-104144731D01*
X127547947Y-104145498D01*
X127547947Y-104278644D01*
X127427267Y-104278330D01*
X127401920Y-104278219D01*
X127377828Y-104278027D01*
X127355599Y-104277765D01*
X127335838Y-104277444D01*
X127319153Y-104277076D01*
X127306148Y-104276670D01*
X127297432Y-104276238D01*
X127294136Y-104275915D01*
X127262625Y-104268228D01*
X127234112Y-104256398D01*
X127208852Y-104240603D01*
X127187103Y-104221030D01*
X127169119Y-104197851D01*
X127159748Y-104181300D01*
X127156589Y-104174794D01*
X127153843Y-104168632D01*
X127151480Y-104162404D01*
X127149474Y-104155702D01*
X127147794Y-104148118D01*
X127146408Y-104139243D01*
X127145295Y-104128669D01*
X127144419Y-104115984D01*
X127143754Y-104100782D01*
X127143271Y-104082654D01*
X127142941Y-104061191D01*
X127142735Y-104035983D01*
X127142624Y-104006623D01*
X127142579Y-103972702D01*
X127142571Y-103938374D01*
X127142571Y-103755922D01*
X127275918Y-103755922D01*
X127275922Y-103935275D01*
G37*
G36*
X129639054Y-104977255D02*
G01*
X129670601Y-104984350D01*
X129699684Y-104995773D01*
X129726057Y-105011079D01*
X129749465Y-105029819D01*
X129769663Y-105051548D01*
X129786399Y-105075817D01*
X129799425Y-105102182D01*
X129808492Y-105130191D01*
X129813350Y-105159401D01*
X129813750Y-105189364D01*
X129809442Y-105219632D01*
X129800178Y-105249760D01*
X129796220Y-105259092D01*
X129780553Y-105287438D01*
X129760991Y-105312469D01*
X129738015Y-105333875D01*
X129712109Y-105351344D01*
X129683755Y-105364569D01*
X129653436Y-105373239D01*
X129621635Y-105377047D01*
X129612163Y-105377195D01*
X129598701Y-105376704D01*
X129585070Y-105375562D01*
X129573640Y-105373989D01*
X129570826Y-105373427D01*
X129540157Y-105363973D01*
X129511526Y-105349983D01*
X129485501Y-105331907D01*
X129462650Y-105310198D01*
X129443544Y-105285304D01*
X129430986Y-105262652D01*
X129421165Y-105238061D01*
X129415195Y-105213864D01*
X129412732Y-105188272D01*
X129412878Y-105173593D01*
X129521721Y-105173593D01*
X129522793Y-105193682D01*
X129525501Y-105205591D01*
X129533321Y-105222828D01*
X129545307Y-105238721D01*
X129560296Y-105252097D01*
X129577122Y-105261787D01*
X129583884Y-105264299D01*
X129600128Y-105267384D01*
X129618423Y-105267671D01*
X129636326Y-105265235D01*
X129646067Y-105262422D01*
X129656740Y-105257511D01*
X129666831Y-105250441D01*
X129678000Y-105240062D01*
X129686688Y-105230815D01*
X129692488Y-105223115D01*
X129696580Y-105215064D01*
X129700147Y-105204760D01*
X129700351Y-105204089D01*
X129704595Y-105183065D01*
X129703928Y-105163189D01*
X129698258Y-105143358D01*
X129694814Y-105135688D01*
X129683361Y-105117848D01*
X129668803Y-105103787D01*
X129651878Y-105093582D01*
X129633321Y-105087312D01*
X129613871Y-105085053D01*
X129594263Y-105086885D01*
X129575234Y-105092883D01*
X129557521Y-105103127D01*
X129541859Y-105117694D01*
X129540434Y-105119394D01*
X129530791Y-105135014D01*
X129524470Y-105153558D01*
X129521721Y-105173593D01*
X129412878Y-105173593D01*
X129412932Y-105168153D01*
X129414592Y-105146287D01*
X129417682Y-105127776D01*
X129422675Y-105110728D01*
X129430046Y-105093251D01*
X129433408Y-105086419D01*
X129450030Y-105059209D01*
X129470356Y-105035293D01*
X129493838Y-105014963D01*
X129519927Y-104998510D01*
X129548071Y-104986225D01*
X129577722Y-104978400D01*
X129608332Y-104975328D01*
X129639054Y-104977255D01*
G37*
G36*
X127558427Y-104924047D02*
G01*
X127594094Y-104924058D01*
X127625120Y-104924086D01*
X127651847Y-104924138D01*
X127674622Y-104924223D01*
X127693788Y-104924349D01*
X127709692Y-104924522D01*
X127722678Y-104924752D01*
X127733094Y-104925046D01*
X127741282Y-104925411D01*
X127747589Y-104925856D01*
X127752360Y-104926388D01*
X127755939Y-104927016D01*
X127758673Y-104927746D01*
X127760905Y-104928587D01*
X127762985Y-104929548D01*
X127763120Y-104929613D01*
X127777457Y-104939281D01*
X127788667Y-104952315D01*
X127796378Y-104967675D01*
X127800222Y-104984319D01*
X127799827Y-105001209D01*
X127794823Y-105017303D01*
X127794524Y-105017911D01*
X127791965Y-105021184D01*
X127785926Y-105027905D01*
X127776712Y-105037764D01*
X127764626Y-105050447D01*
X127749971Y-105065641D01*
X127733049Y-105083036D01*
X127714164Y-105102315D01*
X127693620Y-105123170D01*
X127671718Y-105145285D01*
X127648761Y-105168349D01*
X127647043Y-105170071D01*
X127503961Y-105313419D01*
X127795973Y-105313419D01*
X127795973Y-105446767D01*
X127565949Y-105446526D01*
X127530085Y-105446461D01*
X127495923Y-105446344D01*
X127463839Y-105446182D01*
X127434214Y-105445977D01*
X127407425Y-105445733D01*
X127383851Y-105445456D01*
X127363872Y-105445148D01*
X127347864Y-105444815D01*
X127336209Y-105444461D01*
X127329283Y-105444089D01*
X127327563Y-105443862D01*
X127311462Y-105436657D01*
X127298019Y-105425666D01*
X127287690Y-105411810D01*
X127280934Y-105396007D01*
X127278212Y-105379176D01*
X127279981Y-105362237D01*
X127282696Y-105354005D01*
X127285195Y-105350263D01*
X127290871Y-105343497D01*
X127299807Y-105333621D01*
X127312084Y-105320551D01*
X127327783Y-105304203D01*
X127346984Y-105284493D01*
X127369769Y-105261335D01*
X127396219Y-105234646D01*
X127426415Y-105204341D01*
X127429379Y-105201374D01*
X127452208Y-105178497D01*
X127473907Y-105156702D01*
X127494186Y-105136285D01*
X127512754Y-105117541D01*
X127529319Y-105100766D01*
X127543591Y-105086254D01*
X127555279Y-105074300D01*
X127564092Y-105065200D01*
X127569740Y-105059249D01*
X127571931Y-105056742D01*
X127571949Y-105056693D01*
X127569363Y-105056322D01*
X127561929Y-105055973D01*
X127550133Y-105055655D01*
X127534461Y-105055372D01*
X127515398Y-105055132D01*
X127493431Y-105054942D01*
X127469046Y-105054808D01*
X127442728Y-105054735D01*
X127427934Y-105054725D01*
X127283920Y-105054725D01*
X127283919Y-104924045D01*
X127517768Y-104924045D01*
X127558427Y-104924047D01*
G37*
G36*
X126918547Y-105054725D02*
G01*
X126761864Y-105054991D01*
X126733263Y-105055070D01*
X126706123Y-105055205D01*
X126680936Y-105055388D01*
X126658196Y-105055613D01*
X126638394Y-105055875D01*
X126622022Y-105056166D01*
X126609574Y-105056480D01*
X126601542Y-105056811D01*
X126598538Y-105057106D01*
X126592164Y-105061370D01*
X126588640Y-105068842D01*
X126588601Y-105077878D01*
X126589393Y-105080728D01*
X126591969Y-105088062D01*
X126713254Y-105089610D01*
X126742884Y-105090013D01*
X126767686Y-105090415D01*
X126788160Y-105090838D01*
X126804809Y-105091304D01*
X126818138Y-105091836D01*
X126828649Y-105092455D01*
X126836847Y-105093183D01*
X126843233Y-105094043D01*
X126848311Y-105095056D01*
X126850539Y-105095633D01*
X126878214Y-105105929D01*
X126903454Y-105120436D01*
X126925651Y-105138660D01*
X126944199Y-105160107D01*
X126957748Y-105182739D01*
X126967634Y-105205634D01*
X126974008Y-105227081D01*
X126977354Y-105249168D01*
X126978179Y-105270748D01*
X126977046Y-105294817D01*
X126973437Y-105316071D01*
X126966869Y-105336643D01*
X126959459Y-105353423D01*
X126946780Y-105374143D01*
X126929883Y-105393538D01*
X126909879Y-105410522D01*
X126887878Y-105424011D01*
X126886544Y-105424673D01*
X126878806Y-105428489D01*
X126871983Y-105431798D01*
X126865647Y-105434637D01*
X126859369Y-105437044D01*
X126852728Y-105439058D01*
X126845297Y-105440717D01*
X126836648Y-105442059D01*
X126826359Y-105443122D01*
X126814001Y-105443944D01*
X126799150Y-105444562D01*
X126781379Y-105445016D01*
X126760263Y-105445344D01*
X126735377Y-105445581D01*
X126706294Y-105445769D01*
X126672588Y-105445944D01*
X126647186Y-105446073D01*
X126462500Y-105447036D01*
X126462499Y-105313419D01*
X126637851Y-105313361D01*
X126672799Y-105313344D01*
X126702818Y-105313310D01*
X126728314Y-105313248D01*
X126749691Y-105313146D01*
X126767355Y-105312993D01*
X126781711Y-105312777D01*
X126793165Y-105312488D01*
X126802120Y-105312114D01*
X126808983Y-105311643D01*
X126814158Y-105311064D01*
X126818051Y-105310366D01*
X126821067Y-105309537D01*
X126823613Y-105308566D01*
X126824653Y-105308106D01*
X126834788Y-105300839D01*
X126841735Y-105290447D01*
X126845525Y-105278059D01*
X126846187Y-105264802D01*
X126843754Y-105251804D01*
X126838256Y-105240192D01*
X126829723Y-105231096D01*
X126822432Y-105227013D01*
X126819181Y-105225950D01*
X126814899Y-105225076D01*
X126809081Y-105224372D01*
X126801219Y-105223821D01*
X126790807Y-105223405D01*
X126777340Y-105223108D01*
X126760309Y-105222911D01*
X126739210Y-105222797D01*
X126713536Y-105222748D01*
X126698897Y-105222743D01*
X126671039Y-105222727D01*
X126647948Y-105222665D01*
X126629054Y-105222533D01*
X126613791Y-105222308D01*
X126601591Y-105221972D01*
X126591885Y-105221497D01*
X126584106Y-105220865D01*
X126577686Y-105220048D01*
X126572057Y-105219029D01*
X126566651Y-105217782D01*
X126565330Y-105217448D01*
X126539968Y-105208405D01*
X126517538Y-105195338D01*
X126498243Y-105178801D01*
X126482287Y-105159354D01*
X126469874Y-105137555D01*
X126461209Y-105113962D01*
X126456493Y-105089133D01*
X126455933Y-105063626D01*
X126459731Y-105037997D01*
X126468092Y-105012808D01*
X126481218Y-104988613D01*
X126481537Y-104988134D01*
X126498467Y-104967494D01*
X126519181Y-104950611D01*
X126543675Y-104937490D01*
X126566476Y-104929568D01*
X126570726Y-104928439D01*
X126574992Y-104927475D01*
X126579714Y-104926663D01*
X126585330Y-104925990D01*
X126592280Y-104925444D01*
X126601003Y-104925010D01*
X126611939Y-104924676D01*
X126625525Y-104924430D01*
X126642203Y-104924257D01*
X126662410Y-104924146D01*
X126686588Y-104924082D01*
X126715173Y-104924052D01*
X126748606Y-104924045D01*
X126918547Y-104924045D01*
X126918547Y-105054725D01*
G37*
G36*
X126603848Y-104115171D02*
G01*
X126609848Y-104123988D01*
X126615942Y-104131474D01*
X126622762Y-104137915D01*
X126623376Y-104138384D01*
X126625265Y-104139681D01*
X126627441Y-104140763D01*
X126630382Y-104141653D01*
X126634564Y-104142375D01*
X126640464Y-104142950D01*
X126648559Y-104143402D01*
X126659326Y-104143752D01*
X126673243Y-104144025D01*
X126690786Y-104144242D01*
X126712432Y-104144426D01*
X126738658Y-104144601D01*
X126756167Y-104144706D01*
X126785384Y-104144870D01*
X126809760Y-104144972D01*
X126829786Y-104144998D01*
X126845954Y-104144931D01*
X126858757Y-104144757D01*
X126868687Y-104144459D01*
X126876234Y-104144022D01*
X126881893Y-104143431D01*
X126886154Y-104142669D01*
X126889509Y-104141721D01*
X126892451Y-104140571D01*
X126892926Y-104140364D01*
X126901688Y-104135206D01*
X126907777Y-104127871D01*
X126910246Y-104123248D01*
X126911753Y-104119997D01*
X126912968Y-104116721D01*
X126913920Y-104112851D01*
X126914633Y-104107817D01*
X126915136Y-104101051D01*
X126915452Y-104091983D01*
X126915608Y-104080043D01*
X126915631Y-104064662D01*
X126915544Y-104045271D01*
X126915376Y-104021301D01*
X126915308Y-104012437D01*
X126915101Y-103986848D01*
X126914892Y-103966048D01*
X126914649Y-103949490D01*
X126914338Y-103936629D01*
X126913927Y-103926919D01*
X126913384Y-103919813D01*
X126912675Y-103914767D01*
X126911767Y-103911235D01*
X126910630Y-103908671D01*
X126909229Y-103906530D01*
X126908935Y-103906130D01*
X126902650Y-103899547D01*
X126894914Y-103893662D01*
X126894266Y-103893270D01*
X126891910Y-103892006D01*
X126889190Y-103890954D01*
X126885613Y-103890089D01*
X126880686Y-103889390D01*
X126873916Y-103888833D01*
X126864810Y-103888393D01*
X126852875Y-103888050D01*
X126837617Y-103887777D01*
X126818544Y-103887554D01*
X126795162Y-103887356D01*
X126766978Y-103887159D01*
X126764531Y-103887143D01*
X126643852Y-103886350D01*
X126643852Y-103755922D01*
X126770105Y-103755922D01*
X126799642Y-103755935D01*
X126824369Y-103755987D01*
X126844815Y-103756096D01*
X126861505Y-103756281D01*
X126874964Y-103756560D01*
X126885718Y-103756954D01*
X126894294Y-103757480D01*
X126901217Y-103758157D01*
X126907013Y-103759005D01*
X126912209Y-103760042D01*
X126916885Y-103761172D01*
X126945308Y-103770980D01*
X126971638Y-103785120D01*
X126994856Y-103803020D01*
X126999903Y-103807864D01*
X127015597Y-103825693D01*
X127027814Y-103844673D01*
X127037523Y-103866437D01*
X127041651Y-103878602D01*
X127043162Y-103883565D01*
X127044406Y-103888242D01*
X127045411Y-103893185D01*
X127046202Y-103898948D01*
X127046805Y-103906086D01*
X127047243Y-103915151D01*
X127047545Y-103926698D01*
X127047736Y-103941280D01*
X127047840Y-103959451D01*
X127047884Y-103981766D01*
X127047894Y-104008777D01*
X127047894Y-104013283D01*
X127047879Y-104043047D01*
X127047787Y-104068059D01*
X127047551Y-104088899D01*
X127047103Y-104106149D01*
X127046376Y-104120390D01*
X127045301Y-104132202D01*
X127043811Y-104142167D01*
X127041837Y-104150866D01*
X127039313Y-104158880D01*
X127036170Y-104166790D01*
X127032341Y-104175178D01*
X127027947Y-104184236D01*
X127012660Y-104209557D01*
X126993403Y-104231378D01*
X126970372Y-104249531D01*
X126943762Y-104263852D01*
X126927882Y-104269962D01*
X126906547Y-104277146D01*
X126770532Y-104277668D01*
X126743655Y-104277726D01*
X126718053Y-104277701D01*
X126694288Y-104277595D01*
X126672923Y-104277417D01*
X126654521Y-104277171D01*
X126639644Y-104276865D01*
X126628856Y-104276503D01*
X126622718Y-104276094D01*
X126622065Y-104276003D01*
X126590116Y-104267965D01*
X126561312Y-104255639D01*
X126535683Y-104239039D01*
X126523180Y-104228309D01*
X126506623Y-104210632D01*
X126493645Y-104191762D01*
X126483168Y-104170020D01*
X126479364Y-104159940D01*
X126471833Y-104138629D01*
X126470368Y-103537233D01*
X126603848Y-103537233D01*
X126603848Y-104115171D01*
G37*
G36*
X128185711Y-104924143D02*
G01*
X128211902Y-104924188D01*
X128233745Y-104924283D01*
X128251731Y-104924443D01*
X128266353Y-104924684D01*
X128278103Y-104925022D01*
X128287473Y-104925473D01*
X128294956Y-104926054D01*
X128301044Y-104926781D01*
X128306230Y-104927669D01*
X128311006Y-104928735D01*
X128313283Y-104929310D01*
X128340483Y-104938345D01*
X128364204Y-104950657D01*
X128385615Y-104966902D01*
X128393621Y-104974475D01*
X128412811Y-104997282D01*
X128427426Y-105022524D01*
X128437369Y-105049741D01*
X128442545Y-105078473D01*
X128442857Y-105108260D01*
X128438209Y-105138640D01*
X128432186Y-105159349D01*
X128420471Y-105185498D01*
X128404615Y-105209260D01*
X128385243Y-105229997D01*
X128362984Y-105247066D01*
X128338462Y-105259831D01*
X128330875Y-105262686D01*
X128323100Y-105265133D01*
X128314862Y-105267190D01*
X128305641Y-105268886D01*
X128294913Y-105270255D01*
X128282156Y-105271328D01*
X128266849Y-105272139D01*
X128248468Y-105272721D01*
X128226494Y-105273106D01*
X128200401Y-105273324D01*
X128169669Y-105273410D01*
X128158485Y-105273415D01*
X128041332Y-105273415D01*
X128041332Y-105145402D01*
X128161430Y-105145402D01*
X128191355Y-105145395D01*
X128216426Y-105145338D01*
X128237125Y-105145171D01*
X128253933Y-105144837D01*
X128267330Y-105144278D01*
X128277797Y-105143437D01*
X128285815Y-105142257D01*
X128291865Y-105140676D01*
X128296427Y-105138640D01*
X128299982Y-105136090D01*
X128303013Y-105132968D01*
X128305997Y-105129217D01*
X128307008Y-105127890D01*
X128310982Y-105122145D01*
X128313294Y-105116714D01*
X128314382Y-105109842D01*
X128314688Y-105099765D01*
X128314694Y-105097133D01*
X128313906Y-105082781D01*
X128311076Y-105072305D01*
X128305504Y-105064421D01*
X128296489Y-105057841D01*
X128291970Y-105055392D01*
X128289130Y-105053987D01*
X128286273Y-105052820D01*
X128282903Y-105051870D01*
X128278521Y-105051115D01*
X128272631Y-105050534D01*
X128264735Y-105050103D01*
X128254334Y-105049800D01*
X128240931Y-105049604D01*
X128224029Y-105049495D01*
X128203130Y-105049448D01*
X128177736Y-105049442D01*
X128157446Y-105049450D01*
X128128476Y-105049476D01*
X128104345Y-105049536D01*
X128084558Y-105049649D01*
X128068620Y-105049834D01*
X128056037Y-105050108D01*
X128046314Y-105050491D01*
X128038955Y-105051001D01*
X128033466Y-105051657D01*
X128029352Y-105052478D01*
X128026119Y-105053481D01*
X128023733Y-105054473D01*
X128015172Y-105059798D01*
X128007700Y-105066755D01*
X128006398Y-105068416D01*
X127999994Y-105077394D01*
X127998488Y-105288372D01*
X128004596Y-105297562D01*
X128010854Y-105304466D01*
X128019320Y-105310899D01*
X128022583Y-105312752D01*
X128025497Y-105314177D01*
X128028427Y-105315354D01*
X128031878Y-105316311D01*
X128036357Y-105317069D01*
X128042371Y-105317651D01*
X128050425Y-105318080D01*
X128061027Y-105318381D01*
X128074683Y-105318575D01*
X128091899Y-105318686D01*
X128113182Y-105318738D01*
X128139038Y-105318752D01*
X128153909Y-105318753D01*
X128273356Y-105318753D01*
X128273356Y-105446767D01*
X128152677Y-105446453D01*
X128127329Y-105446342D01*
X128103237Y-105446149D01*
X128081008Y-105445888D01*
X128061248Y-105445567D01*
X128044562Y-105445197D01*
X128031558Y-105444793D01*
X128022841Y-105444361D01*
X128019545Y-105444038D01*
X127988376Y-105436364D01*
X127960252Y-105424450D01*
X127935370Y-105408439D01*
X127913926Y-105388475D01*
X127896119Y-105364704D01*
X127886199Y-105346464D01*
X127882521Y-105338257D01*
X127879454Y-105330191D01*
X127876951Y-105321712D01*
X127874963Y-105312265D01*
X127873441Y-105301296D01*
X127872337Y-105288251D01*
X127871602Y-105272575D01*
X127871189Y-105253715D01*
X127871046Y-105231114D01*
X127871128Y-105204220D01*
X127871345Y-105176786D01*
X127871626Y-105147998D01*
X127871935Y-105123942D01*
X127872347Y-105104017D01*
X127872934Y-105087621D01*
X127873774Y-105074153D01*
X127874936Y-105063010D01*
X127876497Y-105053593D01*
X127878530Y-105045298D01*
X127881107Y-105037526D01*
X127884304Y-105029673D01*
X127888194Y-105021139D01*
X127891234Y-105014721D01*
X127901485Y-104997526D01*
X127915526Y-104980112D01*
X127932042Y-104963811D01*
X127949722Y-104949955D01*
X127962932Y-104941982D01*
X127970262Y-104938243D01*
X127977001Y-104935065D01*
X127983640Y-104932404D01*
X127990671Y-104930213D01*
X127998584Y-104928448D01*
X128007872Y-104927061D01*
X128019025Y-104926008D01*
X128032538Y-104925243D01*
X128048898Y-104924720D01*
X128068598Y-104924392D01*
X128092130Y-104924216D01*
X128119984Y-104924143D01*
X128152653Y-104924130D01*
X128154677Y-104924130D01*
X128185711Y-104924143D01*
G37*
G36*
X128648062Y-103756008D02*
G01*
X128679096Y-103756020D01*
X128705288Y-103756066D01*
X128727130Y-103756161D01*
X128745117Y-103756320D01*
X128759738Y-103756561D01*
X128771488Y-103756899D01*
X128780858Y-103757351D01*
X128788341Y-103757932D01*
X128794429Y-103758657D01*
X128799614Y-103759546D01*
X128804392Y-103760612D01*
X128806668Y-103761188D01*
X128833868Y-103770223D01*
X128857589Y-103782535D01*
X128879000Y-103798780D01*
X128887006Y-103806352D01*
X128906196Y-103829159D01*
X128920811Y-103854401D01*
X128930755Y-103881619D01*
X128935930Y-103910351D01*
X128936242Y-103940136D01*
X128931594Y-103970518D01*
X128925570Y-103991226D01*
X128913857Y-104017375D01*
X128898000Y-104041138D01*
X128878629Y-104061873D01*
X128856369Y-104078942D01*
X128831847Y-104091709D01*
X128824260Y-104094563D01*
X128816485Y-104097011D01*
X128808246Y-104099067D01*
X128799026Y-104100763D01*
X128788298Y-104102132D01*
X128775541Y-104103206D01*
X128760234Y-104104017D01*
X128741854Y-104104598D01*
X128719879Y-104104982D01*
X128693786Y-104105201D01*
X128663054Y-104105288D01*
X128651870Y-104105292D01*
X128534717Y-104105292D01*
X128534717Y-103977279D01*
X128654815Y-103977279D01*
X128684740Y-103977273D01*
X128709811Y-103977214D01*
X128730510Y-103977048D01*
X128747318Y-103976714D01*
X128760715Y-103976156D01*
X128771182Y-103975315D01*
X128779200Y-103974133D01*
X128785250Y-103972552D01*
X128789812Y-103970517D01*
X128793368Y-103967967D01*
X128796397Y-103964845D01*
X128799382Y-103961094D01*
X128800393Y-103959768D01*
X128804367Y-103954021D01*
X128806679Y-103948592D01*
X128807767Y-103941719D01*
X128808073Y-103931642D01*
X128808078Y-103929010D01*
X128807291Y-103914658D01*
X128804461Y-103904183D01*
X128798889Y-103896298D01*
X128789875Y-103889718D01*
X128785355Y-103887269D01*
X128782515Y-103885864D01*
X128779658Y-103884697D01*
X128776288Y-103883748D01*
X128771907Y-103882993D01*
X128766016Y-103882411D01*
X128758120Y-103881980D01*
X128747719Y-103881678D01*
X128734316Y-103881484D01*
X128717414Y-103881373D01*
X128696515Y-103881325D01*
X128671122Y-103881320D01*
X128650831Y-103881327D01*
X128621861Y-103881352D01*
X128597730Y-103881414D01*
X128577943Y-103881527D01*
X128562006Y-103881711D01*
X128549422Y-103881986D01*
X128539699Y-103882369D01*
X128532340Y-103882879D01*
X128526851Y-103883535D01*
X128522737Y-103884354D01*
X128519504Y-103885358D01*
X128517118Y-103886351D01*
X128508557Y-103891675D01*
X128501084Y-103898632D01*
X128499783Y-103900293D01*
X128493379Y-103909272D01*
X128492626Y-104014760D01*
X128491873Y-104120248D01*
X128497982Y-104129439D01*
X128504239Y-104136343D01*
X128512706Y-104142776D01*
X128515968Y-104144630D01*
X128518882Y-104146053D01*
X128521812Y-104147232D01*
X128525264Y-104148188D01*
X128529743Y-104148946D01*
X128535756Y-104149528D01*
X128543811Y-104149958D01*
X128554413Y-104150258D01*
X128568068Y-104150452D01*
X128585285Y-104150564D01*
X128606567Y-104150615D01*
X128632423Y-104150630D01*
X128766741Y-104150630D01*
X128766741Y-104278645D01*
X128647394Y-104278311D01*
X128622142Y-104278198D01*
X128598106Y-104278009D01*
X128575905Y-104277754D01*
X128556155Y-104277444D01*
X128539473Y-104277090D01*
X128526476Y-104276703D01*
X128517780Y-104276293D01*
X128514652Y-104276009D01*
X128484497Y-104269137D01*
X128456871Y-104257952D01*
X128432145Y-104242800D01*
X128410698Y-104224025D01*
X128392900Y-104201973D01*
X128379127Y-104176990D01*
X128369753Y-104149420D01*
X128367796Y-104140385D01*
X128366747Y-104133950D01*
X128365908Y-104126548D01*
X128365266Y-104117615D01*
X128364808Y-104106585D01*
X128364520Y-104092896D01*
X128364389Y-104075983D01*
X128364403Y-104055282D01*
X128364546Y-104030226D01*
X128364729Y-104008663D01*
X128365011Y-103979875D01*
X128365320Y-103955818D01*
X128365732Y-103935894D01*
X128366320Y-103919498D01*
X128367159Y-103906029D01*
X128368321Y-103894888D01*
X128369882Y-103885469D01*
X128371913Y-103877176D01*
X128374492Y-103869403D01*
X128377689Y-103861550D01*
X128381579Y-103853016D01*
X128384619Y-103846599D01*
X128394870Y-103829404D01*
X128408911Y-103811988D01*
X128425428Y-103795688D01*
X128443107Y-103781833D01*
X128456317Y-103773860D01*
X128463647Y-103770120D01*
X128470386Y-103766942D01*
X128477025Y-103764281D01*
X128484056Y-103762091D01*
X128491969Y-103760325D01*
X128501258Y-103758939D01*
X128512412Y-103757885D01*
X128525923Y-103757120D01*
X128542283Y-103756597D01*
X128561983Y-103756270D01*
X128585514Y-103756093D01*
X128613369Y-103756021D01*
X128646038Y-103756007D01*
X128648062Y-103756008D01*
G37*
G36*
X129088761Y-105004720D02*
G01*
X129088638Y-105051779D01*
X129088531Y-105093819D01*
X129088426Y-105131157D01*
X129088302Y-105164107D01*
X129088144Y-105192988D01*
X129087935Y-105218112D01*
X129087656Y-105239796D01*
X129087290Y-105258356D01*
X129086819Y-105274106D01*
X129086229Y-105287364D01*
X129085496Y-105298444D01*
X129084610Y-105307662D01*
X129083549Y-105315333D01*
X129082296Y-105321774D01*
X129080836Y-105327300D01*
X129079149Y-105332226D01*
X129077218Y-105336869D01*
X129075027Y-105341543D01*
X129072558Y-105346564D01*
X129069792Y-105352249D01*
X129069571Y-105352714D01*
X129057099Y-105373475D01*
X129040434Y-105392921D01*
X129020707Y-105409937D01*
X128999054Y-105423411D01*
X128996099Y-105424872D01*
X128987088Y-105429185D01*
X128979173Y-105432834D01*
X128971827Y-105435875D01*
X128964523Y-105438367D01*
X128956736Y-105440368D01*
X128947938Y-105441935D01*
X128937602Y-105443126D01*
X128925204Y-105443999D01*
X128910215Y-105444611D01*
X128892109Y-105445021D01*
X128870360Y-105445286D01*
X128844441Y-105445464D01*
X128813825Y-105445613D01*
X128806746Y-105445646D01*
X128779962Y-105445727D01*
X128754422Y-105445726D01*
X128730695Y-105445645D01*
X128709353Y-105445491D01*
X128690966Y-105445269D01*
X128676106Y-105444985D01*
X128665343Y-105444644D01*
X128659249Y-105444252D01*
X128658729Y-105444182D01*
X128639762Y-105440425D01*
X128623010Y-105435132D01*
X128605705Y-105427385D01*
X128601391Y-105425177D01*
X128577600Y-105409824D01*
X128556880Y-105390330D01*
X128539547Y-105367118D01*
X128525918Y-105340616D01*
X128516308Y-105311250D01*
X128516089Y-105310344D01*
X128514725Y-105304281D01*
X128513613Y-105298187D01*
X128512728Y-105291458D01*
X128512044Y-105283485D01*
X128511536Y-105273663D01*
X128511177Y-105261386D01*
X128510944Y-105246045D01*
X128510810Y-105227035D01*
X128510747Y-105203749D01*
X128510733Y-105183293D01*
X128510765Y-105155246D01*
X128510884Y-105131960D01*
X128511110Y-105112865D01*
X128511461Y-105097389D01*
X128511958Y-105084961D01*
X128512618Y-105075009D01*
X128513463Y-105066961D01*
X128514510Y-105060246D01*
X128514953Y-105057985D01*
X128523323Y-105030205D01*
X128536269Y-105004771D01*
X128553402Y-104982070D01*
X128574334Y-104962496D01*
X128598676Y-104946440D01*
X128626040Y-104934296D01*
X128642487Y-104929360D01*
X128647712Y-104928119D01*
X128653010Y-104927087D01*
X128658909Y-104926245D01*
X128665938Y-104925573D01*
X128674623Y-104925053D01*
X128685497Y-104924665D01*
X128699084Y-104924390D01*
X128715914Y-104924210D01*
X128736514Y-104924105D01*
X128761413Y-104924057D01*
X128789837Y-104924045D01*
X128916090Y-104924045D01*
X128916090Y-105054475D01*
X128794078Y-105055267D01*
X128763965Y-105055468D01*
X128738716Y-105055686D01*
X128717861Y-105055984D01*
X128700931Y-105056422D01*
X128687456Y-105057062D01*
X128676965Y-105057965D01*
X128668991Y-105059193D01*
X128663062Y-105060807D01*
X128658709Y-105062869D01*
X128655462Y-105065440D01*
X128652851Y-105068580D01*
X128650408Y-105072352D01*
X128649288Y-105074190D01*
X128647952Y-105076627D01*
X128646866Y-105079485D01*
X128646004Y-105083304D01*
X128645341Y-105088629D01*
X128644850Y-105096001D01*
X128644505Y-105105964D01*
X128644282Y-105119062D01*
X128644154Y-105135834D01*
X128644096Y-105156827D01*
X128644082Y-105182583D01*
X128644082Y-105184072D01*
X128644095Y-105210094D01*
X128644150Y-105231325D01*
X128644274Y-105248307D01*
X128644492Y-105261585D01*
X128644830Y-105271699D01*
X128645313Y-105279194D01*
X128645967Y-105284611D01*
X128646818Y-105288495D01*
X128647891Y-105291387D01*
X128649212Y-105293831D01*
X128649278Y-105293939D01*
X128651684Y-105297937D01*
X128653920Y-105301301D01*
X128656442Y-105304086D01*
X128659705Y-105306346D01*
X128664164Y-105308136D01*
X128670275Y-105309510D01*
X128678493Y-105310523D01*
X128689273Y-105311230D01*
X128703071Y-105311686D01*
X128720342Y-105311944D01*
X128741541Y-105312061D01*
X128767123Y-105312090D01*
X128797545Y-105312086D01*
X128800432Y-105312086D01*
X128830277Y-105312079D01*
X128855254Y-105312051D01*
X128875825Y-105311981D01*
X128892457Y-105311850D01*
X128905613Y-105311640D01*
X128915760Y-105311333D01*
X128923359Y-105310911D01*
X128928878Y-105310354D01*
X128932780Y-105309644D01*
X128935530Y-105308763D01*
X128937593Y-105307692D01*
X128939231Y-105306562D01*
X128945694Y-105300243D01*
X128951154Y-105292408D01*
X128951423Y-105291894D01*
X128952160Y-105290196D01*
X128952815Y-105287955D01*
X128953394Y-105284868D01*
X128953900Y-105280631D01*
X128954339Y-105274939D01*
X128954715Y-105267488D01*
X128955034Y-105257976D01*
X128955300Y-105246097D01*
X128955517Y-105231549D01*
X128955691Y-105214026D01*
X128955826Y-105193226D01*
X128955927Y-105168843D01*
X128955999Y-105140575D01*
X128956047Y-105108118D01*
X128956075Y-105071167D01*
X128956088Y-105029418D01*
X128956090Y-104994053D01*
X128956095Y-104705355D01*
X129089596Y-104705355D01*
X129088761Y-105004720D01*
G37*
G36*
X127054728Y-101946666D02*
G01*
X127076801Y-101947721D01*
X127096168Y-101949658D01*
X127105876Y-101951251D01*
X127148621Y-101962412D01*
X127189178Y-101978294D01*
X127227227Y-101998634D01*
X127262443Y-102023175D01*
X127294502Y-102051654D01*
X127323083Y-102083810D01*
X127347861Y-102119385D01*
X127368514Y-102158113D01*
X127372118Y-102166207D01*
X127386803Y-102206810D01*
X127396373Y-102248249D01*
X127400899Y-102290125D01*
X127400458Y-102332037D01*
X127395118Y-102373585D01*
X127384956Y-102414372D01*
X127370044Y-102453995D01*
X127350454Y-102492056D01*
X127326261Y-102528154D01*
X127300323Y-102558942D01*
X127283919Y-102576478D01*
X127283919Y-102778266D01*
X127283915Y-102815896D01*
X127283898Y-102848564D01*
X127283857Y-102876644D01*
X127283784Y-102900506D01*
X127283669Y-102920527D01*
X127283504Y-102937074D01*
X127283279Y-102950522D01*
X127282984Y-102961244D01*
X127282611Y-102969611D01*
X127282152Y-102975997D01*
X127281593Y-102980773D01*
X127280929Y-102984313D01*
X127280150Y-102986988D01*
X127279247Y-102989171D01*
X127278663Y-102990357D01*
X127269738Y-103002777D01*
X127257518Y-103012882D01*
X127243774Y-103019242D01*
X127242412Y-103019610D01*
X127237376Y-103020199D01*
X127227574Y-103020719D01*
X127213529Y-103021170D01*
X127195768Y-103021554D01*
X127174812Y-103021871D01*
X127151185Y-103022122D01*
X127125411Y-103022307D01*
X127098014Y-103022428D01*
X127069517Y-103022486D01*
X127040444Y-103022480D01*
X127011320Y-103022413D01*
X126982667Y-103022284D01*
X126955010Y-103022095D01*
X126928871Y-103021847D01*
X126904775Y-103021540D01*
X126883246Y-103021174D01*
X126864806Y-103020752D01*
X126849982Y-103020273D01*
X126839295Y-103019739D01*
X126833269Y-103019150D01*
X126832481Y-103018973D01*
X126818611Y-103012222D01*
X126806466Y-103001791D01*
X126798528Y-102990496D01*
X126797535Y-102988416D01*
X126796675Y-102986090D01*
X126795936Y-102983146D01*
X126795308Y-102979210D01*
X126794786Y-102973911D01*
X126794358Y-102966875D01*
X126794015Y-102957729D01*
X126793747Y-102946102D01*
X126793545Y-102931620D01*
X126793400Y-102913910D01*
X126793303Y-102892600D01*
X126793244Y-102867317D01*
X126793213Y-102837688D01*
X126793202Y-102803341D01*
X126793201Y-102778266D01*
X126793201Y-102576478D01*
X126776797Y-102558942D01*
X126748213Y-102524635D01*
X126724091Y-102487713D01*
X126704616Y-102448560D01*
X126689977Y-102407560D01*
X126680363Y-102365098D01*
X126679734Y-102361109D01*
X126675900Y-102318578D01*
X126676575Y-102296506D01*
X126785667Y-102296506D01*
X126786031Y-102321105D01*
X126790246Y-102357719D01*
X126799233Y-102392061D01*
X126813063Y-102424281D01*
X126831806Y-102454526D01*
X126855534Y-102482952D01*
X126868052Y-102495373D01*
X126874264Y-102501035D01*
X126879653Y-102505815D01*
X126884279Y-102510112D01*
X126888200Y-102514327D01*
X126891477Y-102518860D01*
X126894168Y-102524111D01*
X126896331Y-102530481D01*
X126898027Y-102538370D01*
X126899316Y-102548178D01*
X126900255Y-102560305D01*
X126900904Y-102575152D01*
X126901323Y-102593118D01*
X126901571Y-102614606D01*
X126901706Y-102640012D01*
X126901789Y-102669739D01*
X126901877Y-102704187D01*
X126901948Y-102724481D01*
X126902683Y-102913167D01*
X127174437Y-102913167D01*
X127175172Y-102724481D01*
X127175288Y-102687370D01*
X127175367Y-102655192D01*
X127175466Y-102627547D01*
X127175648Y-102604034D01*
X127175969Y-102584253D01*
X127176489Y-102567804D01*
X127177267Y-102554287D01*
X127178363Y-102543300D01*
X127179836Y-102534445D01*
X127181745Y-102527320D01*
X127184149Y-102521527D01*
X127187108Y-102516663D01*
X127190680Y-102512328D01*
X127194925Y-102508126D01*
X127199903Y-102503652D01*
X127205671Y-102498506D01*
X127209067Y-102495373D01*
X127235096Y-102467730D01*
X127256107Y-102438336D01*
X127272173Y-102407037D01*
X127283364Y-102373683D01*
X127289750Y-102338124D01*
X127291088Y-102321105D01*
X127291402Y-102294834D01*
X127289354Y-102271188D01*
X127284617Y-102247868D01*
X127277496Y-102224395D01*
X127265378Y-102194833D01*
X127249931Y-102168105D01*
X127230359Y-102142943D01*
X127218579Y-102130350D01*
X127191506Y-102106153D01*
X127162862Y-102086905D01*
X127132265Y-102072355D01*
X127127353Y-102070516D01*
X127091536Y-102060248D01*
X127055599Y-102055155D01*
X127019956Y-102055149D01*
X126985025Y-102060132D01*
X126951225Y-102070012D01*
X126918971Y-102084698D01*
X126888682Y-102104096D01*
X126860775Y-102128114D01*
X126858541Y-102130350D01*
X126836569Y-102155203D01*
X126819126Y-102180977D01*
X126805416Y-102208940D01*
X126799624Y-102224395D01*
X126792090Y-102249486D01*
X126787546Y-102272756D01*
X126785667Y-102296506D01*
X126676575Y-102296506D01*
X126677190Y-102276409D01*
X126683394Y-102235004D01*
X126694305Y-102194762D01*
X126709711Y-102156085D01*
X126729405Y-102119372D01*
X126753175Y-102085026D01*
X126780814Y-102053446D01*
X126812112Y-102025032D01*
X126846858Y-102000186D01*
X126877385Y-101982953D01*
X126893896Y-101975517D01*
X126913733Y-101967925D01*
X126934953Y-101960831D01*
X126955611Y-101954893D01*
X126971243Y-101951252D01*
X126988207Y-101948784D01*
X127008839Y-101947197D01*
X127031543Y-101946491D01*
X127054728Y-101946666D01*
G37*
G36*
X127066028Y-105977392D02*
G01*
X127094664Y-105977479D01*
X127122269Y-105977625D01*
X127148312Y-105977831D01*
X127172266Y-105978098D01*
X127193598Y-105978422D01*
X127211778Y-105978808D01*
X127226276Y-105979253D01*
X127236562Y-105979758D01*
X127242105Y-105980323D01*
X127242413Y-105980391D01*
X127256211Y-105986307D01*
X127268660Y-105996109D01*
X127277984Y-106008366D01*
X127278663Y-106009645D01*
X127279643Y-106011712D01*
X127280493Y-106014057D01*
X127281222Y-106017050D01*
X127281840Y-106021064D01*
X127282356Y-106026473D01*
X127282778Y-106033646D01*
X127283118Y-106042958D01*
X127283381Y-106054781D01*
X127283581Y-106069488D01*
X127283722Y-106087450D01*
X127283819Y-106109040D01*
X127283877Y-106134630D01*
X127283907Y-106164596D01*
X127283918Y-106199306D01*
X127283919Y-106221735D01*
X127283919Y-106423523D01*
X127300323Y-106441059D01*
X127328905Y-106475365D01*
X127353029Y-106512288D01*
X127372504Y-106551441D01*
X127387143Y-106592442D01*
X127396757Y-106634903D01*
X127397386Y-106638892D01*
X127401242Y-106681379D01*
X127400018Y-106723275D01*
X127393961Y-106764230D01*
X127383318Y-106803894D01*
X127368337Y-106841919D01*
X127349265Y-106877954D01*
X127326350Y-106911651D01*
X127299839Y-106942659D01*
X127269981Y-106970630D01*
X127237020Y-106995215D01*
X127201208Y-107016062D01*
X127162790Y-107032825D01*
X127122014Y-107045153D01*
X127107315Y-107048338D01*
X127096227Y-107049988D01*
X127081582Y-107051444D01*
X127064780Y-107052642D01*
X127047219Y-107053516D01*
X127030300Y-107054003D01*
X127015423Y-107054035D01*
X127003987Y-107053549D01*
X127001223Y-107053266D01*
X126956856Y-107045151D01*
X126914588Y-107032407D01*
X126874746Y-107015204D01*
X126837646Y-106993718D01*
X126803612Y-106968117D01*
X126772966Y-106938573D01*
X126761340Y-106925220D01*
X126735003Y-106889384D01*
X126713514Y-106851721D01*
X126696858Y-106812607D01*
X126685025Y-106772417D01*
X126678003Y-106731525D01*
X126676580Y-106705167D01*
X126785717Y-106705167D01*
X126787766Y-106728814D01*
X126792503Y-106752133D01*
X126799623Y-106775606D01*
X126811742Y-106805168D01*
X126827189Y-106831896D01*
X126846761Y-106857058D01*
X126858541Y-106869650D01*
X126886271Y-106894094D01*
X126916487Y-106913953D01*
X126948784Y-106929096D01*
X126982762Y-106939396D01*
X127018017Y-106944723D01*
X127054149Y-106944946D01*
X127082019Y-106941611D01*
X127117473Y-106932926D01*
X127150331Y-106919635D01*
X127180825Y-106901618D01*
X127209185Y-106878751D01*
X127218580Y-106869651D01*
X127240551Y-106844798D01*
X127257993Y-106819024D01*
X127271705Y-106791061D01*
X127277496Y-106775607D01*
X127285029Y-106750515D01*
X127289574Y-106727245D01*
X127291453Y-106703495D01*
X127291088Y-106678896D01*
X127286874Y-106642282D01*
X127277887Y-106607940D01*
X127264057Y-106575720D01*
X127245314Y-106545473D01*
X127221586Y-106517049D01*
X127209067Y-106504628D01*
X127202857Y-106498966D01*
X127197468Y-106494186D01*
X127192841Y-106489889D01*
X127188920Y-106485674D01*
X127185643Y-106481141D01*
X127182953Y-106475890D01*
X127180789Y-106469520D01*
X127179093Y-106461631D01*
X127177804Y-106451823D01*
X127176865Y-106439697D01*
X127176216Y-106424849D01*
X127175797Y-106406883D01*
X127175549Y-106385396D01*
X127175413Y-106359989D01*
X127175331Y-106330262D01*
X127175242Y-106295814D01*
X127175172Y-106275519D01*
X127174436Y-106086834D01*
X126902684Y-106086834D01*
X126901949Y-106275520D01*
X126901833Y-106312631D01*
X126901753Y-106344809D01*
X126901653Y-106372454D01*
X126901472Y-106395967D01*
X126901151Y-106415748D01*
X126900630Y-106432197D01*
X126899853Y-106445714D01*
X126898758Y-106456701D01*
X126897284Y-106465555D01*
X126895375Y-106472681D01*
X126892971Y-106478474D01*
X126890012Y-106483338D01*
X126886440Y-106487671D01*
X126882195Y-106491875D01*
X126877217Y-106496350D01*
X126871448Y-106501496D01*
X126868052Y-106504628D01*
X126842024Y-106532270D01*
X126821012Y-106561665D01*
X126804946Y-106592965D01*
X126793757Y-106626318D01*
X126787369Y-106661876D01*
X126786030Y-106678896D01*
X126785717Y-106705167D01*
X126676580Y-106705167D01*
X126675779Y-106690308D01*
X126678341Y-106649138D01*
X126685677Y-106608395D01*
X126697777Y-106568451D01*
X126714626Y-106529680D01*
X126736216Y-106492460D01*
X126762530Y-106457166D01*
X126776797Y-106441059D01*
X126793201Y-106423523D01*
X126793201Y-106221735D01*
X126793205Y-106184105D01*
X126793222Y-106151436D01*
X126793263Y-106123357D01*
X126793336Y-106099494D01*
X126793451Y-106079474D01*
X126793616Y-106062926D01*
X126793841Y-106049479D01*
X126794136Y-106038757D01*
X126794509Y-106030390D01*
X126794969Y-106024004D01*
X126795527Y-106019229D01*
X126796189Y-106015688D01*
X126796969Y-106013013D01*
X126797873Y-106010830D01*
X126798457Y-106009645D01*
X126807381Y-105997224D01*
X126819602Y-105987119D01*
X126833347Y-105980759D01*
X126834709Y-105980391D01*
X126839675Y-105979820D01*
X126849447Y-105979308D01*
X126863491Y-105978856D01*
X126881277Y-105978463D01*
X126902276Y-105978131D01*
X126925957Y-105977858D01*
X126951790Y-105977645D01*
X126979243Y-105977492D01*
X127007788Y-105977399D01*
X127036893Y-105977366D01*
X127066028Y-105977392D01*
G37*
G36*
X128076169Y-101946666D02*
G01*
X128098242Y-101947721D01*
X128117609Y-101949658D01*
X128127317Y-101951252D01*
X128170061Y-101962412D01*
X128210619Y-101978293D01*
X128248667Y-101998634D01*
X128283883Y-102023175D01*
X128315943Y-102051654D01*
X128344524Y-102083810D01*
X128369302Y-102119384D01*
X128389955Y-102158113D01*
X128393559Y-102166207D01*
X128408244Y-102206810D01*
X128417813Y-102248249D01*
X128422340Y-102290125D01*
X128421897Y-102332036D01*
X128416559Y-102373586D01*
X128406396Y-102414372D01*
X128391484Y-102453995D01*
X128371895Y-102492056D01*
X128347701Y-102528154D01*
X128321764Y-102558941D01*
X128305360Y-102576478D01*
X128305360Y-102778266D01*
X128305356Y-102815896D01*
X128305338Y-102848564D01*
X128305297Y-102876644D01*
X128305224Y-102900506D01*
X128305110Y-102920527D01*
X128304945Y-102937074D01*
X128304719Y-102950522D01*
X128304425Y-102961244D01*
X128304052Y-102969611D01*
X128303590Y-102975997D01*
X128303034Y-102980773D01*
X128302370Y-102984313D01*
X128301591Y-102986988D01*
X128300687Y-102989171D01*
X128300103Y-102990357D01*
X128291180Y-103002777D01*
X128278959Y-103012882D01*
X128265214Y-103019242D01*
X128263853Y-103019610D01*
X128258816Y-103020199D01*
X128249014Y-103020719D01*
X128234971Y-103021170D01*
X128217209Y-103021554D01*
X128196252Y-103021871D01*
X128172625Y-103022122D01*
X128146853Y-103022307D01*
X128119454Y-103022428D01*
X128090958Y-103022485D01*
X128061884Y-103022480D01*
X128032761Y-103022413D01*
X128004108Y-103022284D01*
X127976450Y-103022095D01*
X127950312Y-103021847D01*
X127926216Y-103021540D01*
X127904687Y-103021174D01*
X127886248Y-103020752D01*
X127871423Y-103020273D01*
X127860735Y-103019739D01*
X127854709Y-103019150D01*
X127853921Y-103018972D01*
X127840051Y-103012222D01*
X127827907Y-103001791D01*
X127819969Y-102990496D01*
X127818976Y-102988416D01*
X127818115Y-102986090D01*
X127817376Y-102983146D01*
X127816748Y-102979210D01*
X127816227Y-102973911D01*
X127815799Y-102966875D01*
X127815455Y-102957729D01*
X127815187Y-102946102D01*
X127814986Y-102931620D01*
X127814841Y-102913910D01*
X127814744Y-102892600D01*
X127814684Y-102867317D01*
X127814654Y-102837688D01*
X127814643Y-102803341D01*
X127814641Y-102778266D01*
X127814641Y-102576478D01*
X127798237Y-102558942D01*
X127769655Y-102524635D01*
X127745532Y-102487713D01*
X127726057Y-102448560D01*
X127711418Y-102407560D01*
X127701804Y-102365098D01*
X127701175Y-102361109D01*
X127697340Y-102318578D01*
X127698015Y-102296506D01*
X127807108Y-102296506D01*
X127807472Y-102321105D01*
X127811687Y-102357719D01*
X127820673Y-102392061D01*
X127834503Y-102424281D01*
X127853247Y-102454527D01*
X127876974Y-102482952D01*
X127889493Y-102495373D01*
X127895705Y-102501035D01*
X127901094Y-102505815D01*
X127905719Y-102510112D01*
X127909641Y-102514327D01*
X127912917Y-102518860D01*
X127915608Y-102524111D01*
X127917771Y-102530481D01*
X127919468Y-102538370D01*
X127920756Y-102548178D01*
X127921695Y-102560305D01*
X127922345Y-102575152D01*
X127922764Y-102593118D01*
X127923011Y-102614606D01*
X127923147Y-102640012D01*
X127923230Y-102669738D01*
X127923319Y-102704187D01*
X127923388Y-102724481D01*
X127924123Y-102913167D01*
X128195877Y-102913167D01*
X128196613Y-102724481D01*
X128196729Y-102687370D01*
X128196807Y-102655192D01*
X128196908Y-102627547D01*
X128197088Y-102604034D01*
X128197409Y-102584253D01*
X128197929Y-102567804D01*
X128198708Y-102554287D01*
X128199804Y-102543300D01*
X128201277Y-102534445D01*
X128203186Y-102527320D01*
X128205590Y-102521527D01*
X128208548Y-102516663D01*
X128212121Y-102512329D01*
X128216366Y-102508126D01*
X128221343Y-102503652D01*
X128227112Y-102498506D01*
X128230508Y-102495373D01*
X128256536Y-102467730D01*
X128277548Y-102438336D01*
X128293614Y-102407036D01*
X128304805Y-102373683D01*
X128311191Y-102338125D01*
X128312529Y-102321105D01*
X128312844Y-102294834D01*
X128310794Y-102271188D01*
X128306057Y-102247868D01*
X128298936Y-102224395D01*
X128286818Y-102194833D01*
X128271371Y-102168105D01*
X128251800Y-102142943D01*
X128240019Y-102130350D01*
X128212946Y-102106153D01*
X128184302Y-102086905D01*
X128153705Y-102072355D01*
X128148794Y-102070516D01*
X128112978Y-102060248D01*
X128077040Y-102055156D01*
X128041397Y-102055149D01*
X128006466Y-102060132D01*
X127972665Y-102070012D01*
X127940412Y-102084698D01*
X127910123Y-102104096D01*
X127882215Y-102128114D01*
X127879982Y-102130350D01*
X127858010Y-102155203D01*
X127840566Y-102180977D01*
X127826856Y-102208940D01*
X127821065Y-102224395D01*
X127813531Y-102249486D01*
X127808986Y-102272756D01*
X127807108Y-102296506D01*
X127698015Y-102296506D01*
X127698630Y-102276409D01*
X127704835Y-102235004D01*
X127715745Y-102194762D01*
X127731152Y-102156085D01*
X127750845Y-102119372D01*
X127774616Y-102085026D01*
X127802255Y-102053447D01*
X127833552Y-102025032D01*
X127868299Y-102000187D01*
X127898826Y-101982953D01*
X127915336Y-101975517D01*
X127935174Y-101967925D01*
X127956394Y-101960831D01*
X127977051Y-101954893D01*
X127992685Y-101951252D01*
X128009648Y-101948784D01*
X128030277Y-101947197D01*
X128052983Y-101946491D01*
X128076169Y-101946666D01*
G37*
G36*
X128087469Y-105977393D02*
G01*
X128116104Y-105977479D01*
X128143709Y-105977625D01*
X128169753Y-105977831D01*
X128193707Y-105978097D01*
X128215038Y-105978422D01*
X128233218Y-105978808D01*
X128247716Y-105979253D01*
X128258002Y-105979758D01*
X128263545Y-105980323D01*
X128263853Y-105980391D01*
X128277652Y-105986307D01*
X128290100Y-105996109D01*
X128299425Y-106008366D01*
X128300103Y-106009645D01*
X128301083Y-106011712D01*
X128301933Y-106014057D01*
X128302663Y-106017050D01*
X128303281Y-106021065D01*
X128303796Y-106026473D01*
X128304219Y-106033646D01*
X128304558Y-106042958D01*
X128304822Y-106054781D01*
X128305021Y-106069488D01*
X128305164Y-106087450D01*
X128305259Y-106109040D01*
X128305318Y-106134631D01*
X128305349Y-106164596D01*
X128305359Y-106199306D01*
X128305359Y-106221735D01*
X128305359Y-106423523D01*
X128321764Y-106441059D01*
X128350347Y-106475365D01*
X128374469Y-106512288D01*
X128393944Y-106551441D01*
X128408583Y-106592441D01*
X128418197Y-106634903D01*
X128418826Y-106638892D01*
X128422683Y-106681379D01*
X128421459Y-106723275D01*
X128415402Y-106764230D01*
X128404759Y-106803894D01*
X128389777Y-106841919D01*
X128370705Y-106877954D01*
X128347790Y-106911651D01*
X128321279Y-106942659D01*
X128291421Y-106970630D01*
X128258461Y-106995215D01*
X128222648Y-107016062D01*
X128184230Y-107032825D01*
X128143454Y-107045153D01*
X128128756Y-107048337D01*
X128117668Y-107049988D01*
X128103023Y-107051444D01*
X128086220Y-107052642D01*
X128068660Y-107053516D01*
X128051741Y-107054002D01*
X128036863Y-107054035D01*
X128025427Y-107053549D01*
X128022663Y-107053266D01*
X127978296Y-107045151D01*
X127936030Y-107032407D01*
X127896186Y-107015204D01*
X127859087Y-106993718D01*
X127825052Y-106968117D01*
X127794407Y-106938573D01*
X127782780Y-106925220D01*
X127756444Y-106889384D01*
X127734954Y-106851721D01*
X127718299Y-106812607D01*
X127706466Y-106772417D01*
X127699443Y-106731525D01*
X127698021Y-106705167D01*
X127807157Y-106705167D01*
X127809207Y-106728813D01*
X127813944Y-106752133D01*
X127821065Y-106775606D01*
X127833183Y-106805169D01*
X127848630Y-106831896D01*
X127868201Y-106857058D01*
X127879982Y-106869651D01*
X127907712Y-106894094D01*
X127937927Y-106913953D01*
X127970226Y-106929096D01*
X128004202Y-106939396D01*
X128039458Y-106944723D01*
X128075589Y-106944946D01*
X128103460Y-106941611D01*
X128138913Y-106932926D01*
X128171772Y-106919635D01*
X128202266Y-106901618D01*
X128230626Y-106878751D01*
X128240020Y-106869651D01*
X128261991Y-106844798D01*
X128279435Y-106819024D01*
X128293145Y-106791061D01*
X128298936Y-106775607D01*
X128306470Y-106750515D01*
X128311015Y-106727245D01*
X128312893Y-106703495D01*
X128312530Y-106678896D01*
X128308314Y-106642282D01*
X128299328Y-106607940D01*
X128285498Y-106575720D01*
X128266754Y-106545474D01*
X128243027Y-106517049D01*
X128230508Y-106504628D01*
X128224297Y-106498966D01*
X128218906Y-106494186D01*
X128214283Y-106489889D01*
X128210360Y-106485674D01*
X128207084Y-106481141D01*
X128204393Y-106475890D01*
X128202230Y-106469520D01*
X128200533Y-106461631D01*
X128199245Y-106451823D01*
X128198306Y-106439696D01*
X128197656Y-106424849D01*
X128197237Y-106406883D01*
X128196989Y-106385396D01*
X128196855Y-106359989D01*
X128196771Y-106330262D01*
X128196682Y-106295814D01*
X128196613Y-106275520D01*
X128195877Y-106086834D01*
X127924124Y-106086834D01*
X127923389Y-106275520D01*
X127923273Y-106312631D01*
X127923194Y-106344809D01*
X127923093Y-106372454D01*
X127922913Y-106395967D01*
X127922592Y-106415748D01*
X127922072Y-106432197D01*
X127921293Y-106445714D01*
X127920198Y-106456701D01*
X127918724Y-106465555D01*
X127916815Y-106472681D01*
X127914411Y-106478474D01*
X127911453Y-106483339D01*
X127907880Y-106487672D01*
X127903635Y-106491875D01*
X127898658Y-106496350D01*
X127892889Y-106501495D01*
X127889493Y-106504628D01*
X127863465Y-106532270D01*
X127842453Y-106561665D01*
X127826387Y-106592965D01*
X127815197Y-106626318D01*
X127808810Y-106661876D01*
X127807472Y-106678896D01*
X127807157Y-106705167D01*
X127698021Y-106705167D01*
X127697219Y-106690308D01*
X127699781Y-106649138D01*
X127707118Y-106608395D01*
X127719217Y-106568451D01*
X127736067Y-106529680D01*
X127757656Y-106492460D01*
X127783970Y-106457166D01*
X127798237Y-106441059D01*
X127814641Y-106423523D01*
X127814641Y-106221735D01*
X127814645Y-106184105D01*
X127814663Y-106151436D01*
X127814704Y-106123357D01*
X127814777Y-106099494D01*
X127814891Y-106079474D01*
X127815056Y-106062926D01*
X127815281Y-106049479D01*
X127815576Y-106038757D01*
X127815949Y-106030390D01*
X127816410Y-106024004D01*
X127816967Y-106019229D01*
X127817631Y-106015688D01*
X127818409Y-106013013D01*
X127819314Y-106010830D01*
X127819898Y-106009644D01*
X127828821Y-105997224D01*
X127841042Y-105987119D01*
X127854787Y-105980759D01*
X127856147Y-105980391D01*
X127861116Y-105979820D01*
X127870888Y-105979308D01*
X127884932Y-105978856D01*
X127902718Y-105978464D01*
X127923717Y-105978131D01*
X127947398Y-105977858D01*
X127973230Y-105977645D01*
X128000684Y-105977492D01*
X128029228Y-105977399D01*
X128058333Y-105977366D01*
X128087469Y-105977393D01*
G37*
G36*
X129097609Y-101946666D02*
G01*
X129119682Y-101947721D01*
X129139049Y-101949658D01*
X129148758Y-101951252D01*
X129191502Y-101962411D01*
X129232060Y-101978293D01*
X129270108Y-101998633D01*
X129305324Y-102023175D01*
X129337384Y-102051654D01*
X129365964Y-102083810D01*
X129390743Y-102119384D01*
X129411395Y-102158113D01*
X129414999Y-102166207D01*
X129429684Y-102206810D01*
X129439255Y-102248249D01*
X129443781Y-102290125D01*
X129443338Y-102332037D01*
X129437999Y-102373586D01*
X129427838Y-102414372D01*
X129412925Y-102453995D01*
X129393335Y-102492056D01*
X129369142Y-102528154D01*
X129343204Y-102558941D01*
X129326800Y-102576478D01*
X129326800Y-102778266D01*
X129326796Y-102815896D01*
X129326779Y-102848565D01*
X129326738Y-102876643D01*
X129326665Y-102900507D01*
X129326550Y-102920527D01*
X129326385Y-102937074D01*
X129326160Y-102950522D01*
X129325865Y-102961244D01*
X129325492Y-102969611D01*
X129325032Y-102975997D01*
X129324474Y-102980773D01*
X129323811Y-102984313D01*
X129323032Y-102986988D01*
X129322127Y-102989171D01*
X129321544Y-102990357D01*
X129312620Y-103002777D01*
X129300399Y-103012882D01*
X129286654Y-103019242D01*
X129285293Y-103019610D01*
X129280257Y-103020199D01*
X129270455Y-103020720D01*
X129256411Y-103021170D01*
X129238649Y-103021554D01*
X129217693Y-103021871D01*
X129194066Y-103022122D01*
X129168293Y-103022307D01*
X129140895Y-103022429D01*
X129112397Y-103022486D01*
X129083326Y-103022480D01*
X129054201Y-103022413D01*
X129025548Y-103022284D01*
X128997891Y-103022095D01*
X128971752Y-103021847D01*
X128947656Y-103021540D01*
X128926127Y-103021174D01*
X128907688Y-103020752D01*
X128892863Y-103020273D01*
X128882176Y-103019739D01*
X128876150Y-103019150D01*
X128875362Y-103018973D01*
X128861492Y-103012221D01*
X128849347Y-103001791D01*
X128841409Y-102990496D01*
X128840416Y-102988416D01*
X128839555Y-102986090D01*
X128838816Y-102983146D01*
X128838190Y-102979210D01*
X128837667Y-102973911D01*
X128837239Y-102966875D01*
X128836896Y-102957729D01*
X128836628Y-102946102D01*
X128836426Y-102931620D01*
X128836282Y-102913910D01*
X128836184Y-102892600D01*
X128836124Y-102867317D01*
X128836094Y-102837688D01*
X128836083Y-102803341D01*
X128836082Y-102778266D01*
X128836082Y-102576478D01*
X128819678Y-102558941D01*
X128791096Y-102524635D01*
X128766972Y-102487713D01*
X128747497Y-102448560D01*
X128732858Y-102407560D01*
X128723244Y-102365098D01*
X128722616Y-102361109D01*
X128718781Y-102318578D01*
X128719456Y-102296506D01*
X128828548Y-102296506D01*
X128828913Y-102321105D01*
X128833127Y-102357719D01*
X128842114Y-102392061D01*
X128855944Y-102424281D01*
X128874687Y-102454527D01*
X128898415Y-102482952D01*
X128910934Y-102495373D01*
X128917145Y-102501035D01*
X128922534Y-102505815D01*
X128927161Y-102510112D01*
X128931081Y-102514327D01*
X128934358Y-102518860D01*
X128937048Y-102524111D01*
X128939211Y-102530481D01*
X128940908Y-102538371D01*
X128942197Y-102548178D01*
X128943136Y-102560305D01*
X128943785Y-102575152D01*
X128944204Y-102593118D01*
X128944452Y-102614605D01*
X128944588Y-102640012D01*
X128944670Y-102669738D01*
X128944759Y-102704187D01*
X128944829Y-102724481D01*
X128945565Y-102913167D01*
X129217317Y-102913167D01*
X129218053Y-102724481D01*
X129218169Y-102687370D01*
X129218248Y-102655192D01*
X129218348Y-102627547D01*
X129218530Y-102604034D01*
X129218850Y-102584253D01*
X129219370Y-102567804D01*
X129220148Y-102554287D01*
X129221244Y-102543300D01*
X129222717Y-102534445D01*
X129224626Y-102527320D01*
X129227030Y-102521527D01*
X129229989Y-102516663D01*
X129233561Y-102512329D01*
X129237806Y-102508126D01*
X129242784Y-102503651D01*
X129248553Y-102498506D01*
X129251949Y-102495374D01*
X129277977Y-102467731D01*
X129298989Y-102438336D01*
X129315055Y-102407037D01*
X129326245Y-102373683D01*
X129332632Y-102338125D01*
X129333970Y-102321105D01*
X129334284Y-102294834D01*
X129332235Y-102271188D01*
X129327498Y-102247867D01*
X129320377Y-102224395D01*
X129308260Y-102194833D01*
X129292812Y-102168105D01*
X129273240Y-102142943D01*
X129261460Y-102130350D01*
X129234386Y-102106153D01*
X129205743Y-102086905D01*
X129175145Y-102072355D01*
X129170235Y-102070516D01*
X129134418Y-102060248D01*
X129098480Y-102055156D01*
X129062837Y-102055149D01*
X129027907Y-102060132D01*
X128994106Y-102070013D01*
X128961852Y-102084698D01*
X128931563Y-102104096D01*
X128903657Y-102128114D01*
X128901422Y-102130350D01*
X128879450Y-102155203D01*
X128862007Y-102180977D01*
X128848296Y-102208940D01*
X128842505Y-102224395D01*
X128834971Y-102249486D01*
X128830427Y-102272757D01*
X128828548Y-102296506D01*
X128719456Y-102296506D01*
X128720071Y-102276409D01*
X128726276Y-102235004D01*
X128737186Y-102194762D01*
X128752592Y-102156085D01*
X128772286Y-102119372D01*
X128796056Y-102085026D01*
X128823695Y-102053446D01*
X128854993Y-102025032D01*
X128889739Y-102000187D01*
X128920267Y-101982953D01*
X128936777Y-101975518D01*
X128956614Y-101967925D01*
X128977834Y-101960831D01*
X128998491Y-101954893D01*
X129014125Y-101951252D01*
X129031088Y-101948784D01*
X129051719Y-101947197D01*
X129074424Y-101946490D01*
X129097609Y-101946666D01*
G37*
G36*
X129108909Y-105977393D02*
G01*
X129137545Y-105977479D01*
X129165149Y-105977625D01*
X129191194Y-105977831D01*
X129215147Y-105978097D01*
X129236479Y-105978423D01*
X129254659Y-105978808D01*
X129269157Y-105979253D01*
X129279443Y-105979759D01*
X129284986Y-105980322D01*
X129285293Y-105980391D01*
X129299092Y-105986308D01*
X129311541Y-105996109D01*
X129320865Y-106008366D01*
X129321544Y-106009644D01*
X129322524Y-106011712D01*
X129323373Y-106014057D01*
X129324103Y-106017050D01*
X129324721Y-106021065D01*
X129325237Y-106026472D01*
X129325659Y-106033646D01*
X129325998Y-106042958D01*
X129326262Y-106054781D01*
X129326461Y-106069488D01*
X129326604Y-106087450D01*
X129326699Y-106109040D01*
X129326758Y-106134631D01*
X129326789Y-106164596D01*
X129326799Y-106199306D01*
X129326799Y-106221735D01*
X129326799Y-106423523D01*
X129343204Y-106441059D01*
X129371787Y-106475365D01*
X129395910Y-106512288D01*
X129415384Y-106551441D01*
X129430024Y-106592441D01*
X129439638Y-106634903D01*
X129440267Y-106638892D01*
X129444123Y-106681379D01*
X129442900Y-106723275D01*
X129436842Y-106764230D01*
X129426199Y-106803894D01*
X129411219Y-106841919D01*
X129392146Y-106877955D01*
X129369231Y-106911652D01*
X129342720Y-106942659D01*
X129312861Y-106970630D01*
X129279901Y-106995215D01*
X129244089Y-107016063D01*
X129205671Y-107032825D01*
X129164895Y-107045153D01*
X129150196Y-107048337D01*
X129139108Y-107049988D01*
X129124463Y-107051444D01*
X129107661Y-107052642D01*
X129090100Y-107053516D01*
X129073181Y-107054002D01*
X129058304Y-107054035D01*
X129046868Y-107053549D01*
X129044104Y-107053266D01*
X128999737Y-107045151D01*
X128957470Y-107032407D01*
X128917627Y-107015205D01*
X128880527Y-106993718D01*
X128846494Y-106968117D01*
X128815847Y-106938573D01*
X128804221Y-106925220D01*
X128777885Y-106889384D01*
X128756395Y-106851721D01*
X128739739Y-106812607D01*
X128727906Y-106772417D01*
X128720884Y-106731525D01*
X128719462Y-106705167D01*
X128828598Y-106705167D01*
X128830647Y-106728813D01*
X128835384Y-106752133D01*
X128842505Y-106775606D01*
X128854623Y-106805169D01*
X128870070Y-106831896D01*
X128889642Y-106857058D01*
X128901422Y-106869651D01*
X128929154Y-106894094D01*
X128959368Y-106913953D01*
X128991666Y-106929096D01*
X129025643Y-106939395D01*
X129060898Y-106944723D01*
X129097029Y-106944946D01*
X129124900Y-106941611D01*
X129160355Y-106932926D01*
X129193213Y-106919635D01*
X129223707Y-106901618D01*
X129252066Y-106878751D01*
X129261460Y-106869651D01*
X129283432Y-106844798D01*
X129300875Y-106819024D01*
X129314586Y-106791061D01*
X129320377Y-106775606D01*
X129327911Y-106750515D01*
X129332455Y-106727245D01*
X129334334Y-106703495D01*
X129333970Y-106678896D01*
X129329755Y-106642282D01*
X129320768Y-106607940D01*
X129306938Y-106575720D01*
X129288195Y-106545474D01*
X129264468Y-106517049D01*
X129251949Y-106504628D01*
X129245737Y-106498966D01*
X129240348Y-106494186D01*
X129235723Y-106489889D01*
X129231800Y-106485674D01*
X129228524Y-106481141D01*
X129225834Y-106475889D01*
X129223670Y-106469520D01*
X129221975Y-106461631D01*
X129220685Y-106451823D01*
X129219746Y-106439696D01*
X129219097Y-106424849D01*
X129218678Y-106406883D01*
X129218430Y-106385396D01*
X129218295Y-106359989D01*
X129218212Y-106330262D01*
X129218123Y-106295814D01*
X129218053Y-106275520D01*
X129217317Y-106086834D01*
X128945565Y-106086834D01*
X128944829Y-106275520D01*
X128944713Y-106312631D01*
X128944634Y-106344809D01*
X128944534Y-106372454D01*
X128944353Y-106395967D01*
X128944032Y-106415748D01*
X128943512Y-106432197D01*
X128942734Y-106445714D01*
X128941638Y-106456701D01*
X128940165Y-106465556D01*
X128938256Y-106472681D01*
X128935852Y-106478474D01*
X128932893Y-106483339D01*
X128929321Y-106487672D01*
X128925076Y-106491875D01*
X128920098Y-106496350D01*
X128914330Y-106501495D01*
X128910933Y-106504628D01*
X128884905Y-106532270D01*
X128863894Y-106561665D01*
X128847828Y-106592965D01*
X128836637Y-106626318D01*
X128830251Y-106661876D01*
X128828913Y-106678896D01*
X128828598Y-106705167D01*
X128719462Y-106705167D01*
X128718660Y-106690308D01*
X128721222Y-106649139D01*
X128728559Y-106608395D01*
X128740658Y-106568451D01*
X128757509Y-106529680D01*
X128779096Y-106492460D01*
X128805411Y-106457165D01*
X128819678Y-106441059D01*
X128836082Y-106423523D01*
X128836082Y-106221735D01*
X128836086Y-106184105D01*
X128836103Y-106151436D01*
X128836144Y-106123357D01*
X128836217Y-106099494D01*
X128836332Y-106079474D01*
X128836497Y-106062927D01*
X128836721Y-106049479D01*
X128837017Y-106038757D01*
X128837389Y-106030390D01*
X128837850Y-106024004D01*
X128838408Y-106019228D01*
X128839072Y-106015688D01*
X128839851Y-106013013D01*
X128840754Y-106010830D01*
X128841338Y-106009644D01*
X128850262Y-105997224D01*
X128862483Y-105987119D01*
X128876228Y-105980759D01*
X128877589Y-105980391D01*
X128882557Y-105979820D01*
X128892328Y-105979308D01*
X128906372Y-105978856D01*
X128924159Y-105978463D01*
X128945158Y-105978131D01*
X128968838Y-105977858D01*
X128994671Y-105977646D01*
X129022124Y-105977492D01*
X129050669Y-105977399D01*
X129079774Y-105977365D01*
X129108909Y-105977393D01*
G37*
G36*
X128141384Y-103246397D02*
G01*
X128228512Y-103246405D01*
X128315318Y-103246419D01*
X128401637Y-103246438D01*
X128487302Y-103246464D01*
X128572146Y-103246495D01*
X128656003Y-103246532D01*
X128738708Y-103246574D01*
X128820092Y-103246622D01*
X128899991Y-103246676D01*
X128978239Y-103246735D01*
X129054667Y-103246800D01*
X129129111Y-103246871D01*
X129201404Y-103246948D01*
X129271379Y-103247030D01*
X129338871Y-103247118D01*
X129403713Y-103247212D01*
X129465738Y-103247312D01*
X129524780Y-103247417D01*
X129580673Y-103247528D01*
X129633251Y-103247643D01*
X129682347Y-103247767D01*
X129727795Y-103247895D01*
X129769429Y-103248028D01*
X129807082Y-103248168D01*
X129840588Y-103248313D01*
X129869780Y-103248464D01*
X129894493Y-103248621D01*
X129914559Y-103248782D01*
X129929814Y-103248950D01*
X129940089Y-103249124D01*
X129945219Y-103249303D01*
X129945509Y-103249328D01*
X129981371Y-103255578D01*
X130015181Y-103266582D01*
X130046594Y-103282039D01*
X130075263Y-103301646D01*
X130100843Y-103325108D01*
X130122987Y-103352120D01*
X130141349Y-103382383D01*
X130155586Y-103415597D01*
X130162191Y-103437550D01*
X130168222Y-103461224D01*
X130168222Y-105538776D01*
X130162191Y-105562451D01*
X130150689Y-105597342D01*
X130134846Y-105629471D01*
X130115005Y-105658536D01*
X130091517Y-105684235D01*
X130064724Y-105706268D01*
X130034972Y-105724336D01*
X130002608Y-105738137D01*
X129967978Y-105747372D01*
X129945509Y-105750673D01*
X129941319Y-105750830D01*
X129931962Y-105750981D01*
X129917604Y-105751127D01*
X129898410Y-105751268D01*
X129874546Y-105751404D01*
X129846179Y-105751535D01*
X129813475Y-105751661D01*
X129776597Y-105751783D01*
X129735713Y-105751897D01*
X129690990Y-105752008D01*
X129642592Y-105752113D01*
X129590685Y-105752213D01*
X129535437Y-105752309D01*
X129477010Y-105752399D01*
X129415574Y-105752484D01*
X129351292Y-105752564D01*
X129284331Y-105752639D01*
X129214857Y-105752709D01*
X129143035Y-105752774D01*
X129069032Y-105752834D01*
X128993014Y-105752888D01*
X128915145Y-105752938D01*
X128835593Y-105752983D01*
X128754523Y-105753023D01*
X128672100Y-105753058D01*
X128588492Y-105753087D01*
X128503863Y-105753112D01*
X128418379Y-105753132D01*
X128332207Y-105753147D01*
X128245512Y-105753157D01*
X128158460Y-105753161D01*
X128071217Y-105753161D01*
X127983949Y-105753156D01*
X127896822Y-105753146D01*
X127810002Y-105753131D01*
X127723653Y-105753112D01*
X127637944Y-105753087D01*
X127553039Y-105753057D01*
X127469103Y-105753023D01*
X127386303Y-105752983D01*
X127304806Y-105752939D01*
X127224776Y-105752889D01*
X127146380Y-105752835D01*
X127069783Y-105752776D01*
X126995153Y-105752712D01*
X126922652Y-105752643D01*
X126852449Y-105752569D01*
X126784709Y-105752491D01*
X126719598Y-105752408D01*
X126657281Y-105752319D01*
X126597926Y-105752227D01*
X126541696Y-105752128D01*
X126488760Y-105752024D01*
X126439281Y-105751918D01*
X126393426Y-105751806D01*
X126351362Y-105751688D01*
X126313253Y-105751565D01*
X126279266Y-105751440D01*
X126249567Y-105751308D01*
X126224321Y-105751172D01*
X126203694Y-105751030D01*
X126187853Y-105750885D01*
X126176963Y-105750734D01*
X126171191Y-105750578D01*
X126170469Y-105750530D01*
X126136187Y-105744348D01*
X126103554Y-105733334D01*
X126072971Y-105717849D01*
X126044844Y-105698249D01*
X126019576Y-105674890D01*
X125997571Y-105648130D01*
X125979233Y-105618324D01*
X125964965Y-105585833D01*
X125957810Y-105562452D01*
X125951779Y-105538776D01*
X125951779Y-104816464D01*
X126060261Y-104816464D01*
X126060264Y-104890502D01*
X126060281Y-104961076D01*
X126060313Y-105028071D01*
X126060358Y-105091370D01*
X126060417Y-105150858D01*
X126060490Y-105206419D01*
X126060576Y-105257938D01*
X126060674Y-105305295D01*
X126060786Y-105348379D01*
X126060910Y-105387071D01*
X126061047Y-105421255D01*
X126061195Y-105450817D01*
X126061356Y-105475640D01*
X126061530Y-105495607D01*
X126061715Y-105510604D01*
X126061911Y-105520513D01*
X126062117Y-105525220D01*
X126062146Y-105525441D01*
X126068709Y-105551535D01*
X126079672Y-105575253D01*
X126094572Y-105596127D01*
X126112944Y-105613700D01*
X126134326Y-105627509D01*
X126158255Y-105637093D01*
X126178470Y-105641348D01*
X126181971Y-105641460D01*
X126190671Y-105641570D01*
X126204431Y-105641677D01*
X126223119Y-105641781D01*
X126246595Y-105641883D01*
X126274724Y-105641981D01*
X126307370Y-105642077D01*
X126344396Y-105642170D01*
X126385667Y-105642259D01*
X126431048Y-105642344D01*
X126480400Y-105642426D01*
X126533589Y-105642505D01*
X126590477Y-105642579D01*
X126650930Y-105642650D01*
X126714810Y-105642716D01*
X126781981Y-105642779D01*
X126852310Y-105642837D01*
X126925656Y-105642890D01*
X127001886Y-105642939D01*
X127080863Y-105642983D01*
X127162451Y-105643022D01*
X127246513Y-105643057D01*
X127332914Y-105643086D01*
X127421518Y-105643110D01*
X127512187Y-105643128D01*
X127604786Y-105643142D01*
X127699180Y-105643149D01*
X127795231Y-105643151D01*
X127892805Y-105643147D01*
X127991763Y-105643136D01*
X128070668Y-105643124D01*
X128190626Y-105643101D01*
X128305366Y-105643081D01*
X128415007Y-105643060D01*
X128519664Y-105643036D01*
X128619454Y-105643013D01*
X128714495Y-105642989D01*
X128804904Y-105642963D01*
X128890796Y-105642935D01*
X128972289Y-105642906D01*
X129049500Y-105642874D01*
X129122546Y-105642840D01*
X129191542Y-105642801D01*
X129256609Y-105642759D01*
X129317859Y-105642714D01*
X129375412Y-105642665D01*
X129429384Y-105642611D01*
X129479892Y-105642553D01*
X129527052Y-105642488D01*
X129570982Y-105642420D01*
X129611797Y-105642346D01*
X129649617Y-105642265D01*
X129684556Y-105642178D01*
X129716733Y-105642085D01*
X129746263Y-105641985D01*
X129773263Y-105641877D01*
X129797852Y-105641761D01*
X129820143Y-105641638D01*
X129840258Y-105641506D01*
X129858310Y-105641366D01*
X129874416Y-105641216D01*
X129888695Y-105641058D01*
X129901262Y-105640890D01*
X129912234Y-105640711D01*
X129921729Y-105640523D01*
X129929863Y-105640324D01*
X129936753Y-105640115D01*
X129942516Y-105639894D01*
X129947269Y-105639661D01*
X129951128Y-105639417D01*
X129954211Y-105639160D01*
X129956634Y-105638892D01*
X129958514Y-105638609D01*
X129959968Y-105638314D01*
X129961113Y-105638006D01*
X129961533Y-105637871D01*
X129987402Y-105626586D01*
X130009859Y-105611331D01*
X130028640Y-105592361D01*
X130043484Y-105569931D01*
X130052645Y-105548821D01*
X130058877Y-105530775D01*
X130058877Y-103469226D01*
X130052645Y-103451180D01*
X130041276Y-103426073D01*
X130025788Y-103404220D01*
X130006519Y-103385949D01*
X129983809Y-103371585D01*
X129960200Y-103362112D01*
X129959063Y-103361800D01*
X129957663Y-103361501D01*
X129955881Y-103361215D01*
X129953603Y-103360942D01*
X129950711Y-103360682D01*
X129947088Y-103360434D01*
X129942617Y-103360199D01*
X129937183Y-103359975D01*
X129930668Y-103359762D01*
X129922955Y-103359561D01*
X129913929Y-103359371D01*
X129903472Y-103359191D01*
X129891468Y-103359021D01*
X129877799Y-103358862D01*
X129862350Y-103358712D01*
X129845004Y-103358570D01*
X129825643Y-103358441D01*
X129804151Y-103358317D01*
X129780413Y-103358203D01*
X129754310Y-103358097D01*
X129725727Y-103357998D01*
X129694546Y-103357908D01*
X129660651Y-103357824D01*
X129623926Y-103357748D01*
X129584252Y-103357678D01*
X129541515Y-103357614D01*
X129495597Y-103357557D01*
X129446383Y-103357505D01*
X129393753Y-103357459D01*
X129337592Y-103357418D01*
X129277784Y-103357381D01*
X129214212Y-103357350D01*
X129146759Y-103357322D01*
X129075308Y-103357298D01*
X128999745Y-103357279D01*
X128919950Y-103357262D01*
X128835807Y-103357249D01*
X128747200Y-103357238D01*
X128654012Y-103357229D01*
X128556127Y-103357223D01*
X128453427Y-103357219D01*
X128345796Y-103357216D01*
X128233119Y-103357215D01*
X128115277Y-103357214D01*
X127939774Y-103357214D01*
X127824764Y-103357215D01*
X127714855Y-103357217D01*
X127609930Y-103357220D01*
X127509872Y-103357226D01*
X127414564Y-103357234D01*
X127323891Y-103357243D01*
X127237734Y-103357256D01*
X127155977Y-103357271D01*
X127078506Y-103357289D01*
X127005201Y-103357311D01*
X126935947Y-103357337D01*
X126870626Y-103357366D01*
X126809122Y-103357400D01*
X126751319Y-103357440D01*
X126697099Y-103357483D01*
X126646347Y-103357532D01*
X126598946Y-103357587D01*
X126554778Y-103357648D01*
X126513728Y-103357715D01*
X126475677Y-103357788D01*
X126440511Y-103357869D01*
X126408111Y-103357956D01*
X126378362Y-103358051D01*
X126351147Y-103358154D01*
X126326349Y-103358264D01*
X126303851Y-103358383D01*
X126283537Y-103358510D01*
X126265290Y-103358647D01*
X126248993Y-103358793D01*
X126234530Y-103358948D01*
X126221784Y-103359113D01*
X126210639Y-103359288D01*
X126200977Y-103359473D01*
X126192682Y-103359670D01*
X126185637Y-103359877D01*
X126179726Y-103360096D01*
X126174833Y-103360326D01*
X126170840Y-103360568D01*
X126167630Y-103360822D01*
X126165086Y-103361089D01*
X126163093Y-103361369D01*
X126161534Y-103361662D01*
X126160293Y-103361968D01*
X126159800Y-103362112D01*
X126134091Y-103372590D01*
X126111717Y-103387210D01*
X126092802Y-103405854D01*
X126077476Y-103428404D01*
X126068252Y-103448212D01*
X126061124Y-103466559D01*
X126060393Y-104487999D01*
X126060338Y-104574731D01*
X126060297Y-104658463D01*
X126060272Y-104739078D01*
X126060261Y-104816464D01*
X125951779Y-104816464D01*
X125951779Y-103461225D01*
X125957810Y-103437550D01*
X125969312Y-103402658D01*
X125985155Y-103370529D01*
X126004995Y-103341465D01*
X126028485Y-103315766D01*
X126055276Y-103293733D01*
X126085028Y-103275665D01*
X126117393Y-103261864D01*
X126152023Y-103252629D01*
X126174492Y-103249328D01*
X126178914Y-103249148D01*
X126188504Y-103248973D01*
X126203095Y-103248805D01*
X126222521Y-103248643D01*
X126246615Y-103248484D01*
X126275212Y-103248333D01*
X126308145Y-103248188D01*
X126345247Y-103248047D01*
X126386352Y-103247912D01*
X126431295Y-103247784D01*
X126479907Y-103247661D01*
X126532024Y-103247542D01*
X126587479Y-103247432D01*
X126646106Y-103247326D01*
X126707738Y-103247225D01*
X126772208Y-103247131D01*
X126839351Y-103247042D01*
X126909001Y-103246959D01*
X126980990Y-103246881D01*
X127055153Y-103246810D01*
X127131323Y-103246744D01*
X127209334Y-103246683D01*
X127289020Y-103246629D01*
X127370214Y-103246580D01*
X127452750Y-103246537D01*
X127536461Y-103246499D01*
X127621181Y-103246468D01*
X127706745Y-103246442D01*
X127792985Y-103246421D01*
X127879735Y-103246406D01*
X127966830Y-103246398D01*
X128054101Y-103246394D01*
X128141384Y-103246397D01*
G37*
D12*
%TO.C,J4*%
X159370163Y-61460296D02*
X157066535Y-62790296D01*
X162176535Y-71641076D02*
X157066535Y-62790296D01*
X163476535Y-73892742D02*
X162811535Y-72740928D01*
X164480163Y-70311076D02*
X159370163Y-61460296D01*
X164480163Y-70311076D02*
X162176535Y-71641076D01*
X164628349Y-73227742D02*
X163476535Y-73892742D01*
%TO.C,C10*%
X133978329Y-94931461D02*
X134231670Y-94785194D01*
X134488330Y-95814806D02*
X134741671Y-95668539D01*
%TO.C,J1*%
X114403186Y-87413777D02*
X115555000Y-86748777D01*
X115068186Y-88565591D02*
X114403186Y-87413777D01*
X115703186Y-89665443D02*
X118006814Y-88335443D01*
X115703186Y-89665443D02*
X120813186Y-98516223D01*
X118006814Y-88335443D02*
X123116814Y-97186223D01*
X120813186Y-98516223D02*
X123116814Y-97186223D01*
%TO.C,C4*%
X145550000Y-75928767D02*
X145550000Y-75636233D01*
X146570000Y-75928767D02*
X146570000Y-75636233D01*
%TO.C,J5*%
X133650000Y-54070000D02*
X133650000Y-56730000D01*
X143870000Y-54070000D02*
X133650000Y-54070000D01*
X143870000Y-54070000D02*
X143870000Y-56730000D01*
X143870000Y-56730000D02*
X133650000Y-56730000D01*
X145140000Y-54070000D02*
X146470000Y-54070000D01*
X146470000Y-54070000D02*
X146470000Y-55400000D01*
%TO.C,TP1*%
X123360000Y-50300000D02*
X125760000Y-50300000D01*
X123360000Y-52700000D02*
X123360000Y-50300000D01*
X125760000Y-50300000D02*
X125760000Y-52700000D01*
X125760000Y-52700000D02*
X123360000Y-52700000D01*
%TO.C,U2*%
X130989386Y-61740000D02*
X130989386Y-61505000D01*
X130989386Y-65485000D02*
X130989386Y-65010000D01*
X131464386Y-61265000D02*
X131289386Y-61265000D01*
X131464386Y-65485000D02*
X130989386Y-65485000D01*
X134734386Y-61265000D02*
X135209386Y-61265000D01*
X134734386Y-65485000D02*
X135209386Y-65485000D01*
X135209386Y-61265000D02*
X135209386Y-61740000D01*
X135209386Y-65485000D02*
X135209386Y-65010000D01*
X130989386Y-61265000D02*
X130749386Y-60935000D01*
X131229386Y-60935000D01*
X130989386Y-61265000D01*
G36*
X130989386Y-61265000D02*
G01*
X130749386Y-60935000D01*
X131229386Y-60935000D01*
X130989386Y-61265000D01*
G37*
%TO.C,C17*%
X124589386Y-64521267D02*
X124589386Y-64228733D01*
X125609386Y-64521267D02*
X125609386Y-64228733D01*
%TO.C,C12*%
X125343766Y-70410000D02*
X125051233Y-70409999D01*
X125343767Y-69390001D02*
X125051234Y-69390000D01*
D14*
%TO.C,LED4*%
X136910000Y-86121904D02*
X136010000Y-86121904D01*
X136010000Y-85221904D01*
X136910000Y-86121904D01*
G36*
X136910000Y-86121904D02*
G01*
X136010000Y-86121904D01*
X136010000Y-85221904D01*
X136910000Y-86121904D01*
G37*
%TO.C,LED3*%
X136910000Y-78021904D02*
X136010000Y-78021904D01*
X136010000Y-77121904D01*
X136910000Y-78021904D01*
G36*
X136910000Y-78021904D02*
G01*
X136010000Y-78021904D01*
X136010000Y-77121904D01*
X136910000Y-78021904D01*
G37*
%TO.C,LED13*%
X126929802Y-83300801D02*
X126150379Y-82850801D01*
X127379802Y-82521378D01*
X126929802Y-83300801D01*
G36*
X126929802Y-83300801D02*
G01*
X126150379Y-82850801D01*
X127379802Y-82521378D01*
X126929802Y-83300801D01*
G37*
%TO.C,LED8*%
X149890679Y-77238623D02*
X149440679Y-76459200D01*
X150220102Y-76009201D01*
X149890679Y-77238623D01*
G36*
X149890679Y-77238623D02*
G01*
X149440679Y-76459200D01*
X150220102Y-76009201D01*
X149890679Y-77238623D01*
G37*
%TO.C,LED11*%
X120291159Y-91417907D02*
X119841159Y-90638487D01*
X120620581Y-90188485D01*
X120291159Y-91417907D01*
G36*
X120291159Y-91417907D02*
G01*
X119841159Y-90638487D01*
X120620581Y-90188485D01*
X120291159Y-91417907D01*
G37*
%TO.C,LED2*%
X136910000Y-69921904D02*
X136010000Y-69921904D01*
X136010000Y-69021904D01*
X136910000Y-69921904D01*
G36*
X136910000Y-69921904D02*
G01*
X136010000Y-69921904D01*
X136010000Y-69021904D01*
X136910000Y-69921904D01*
G37*
%TO.C,LED5*%
X136910000Y-94221904D02*
X136010000Y-94221904D01*
X136010000Y-93321904D01*
X136910000Y-94221904D01*
G36*
X136910000Y-94221904D02*
G01*
X136010000Y-94221904D01*
X136010000Y-93321904D01*
X136910000Y-94221904D01*
G37*
%TO.C,LED7*%
X156590199Y-70967909D02*
X156140199Y-70188486D01*
X156919622Y-69738486D01*
X156590199Y-70967909D01*
G36*
X156590199Y-70967909D02*
G01*
X156140199Y-70188486D01*
X156919622Y-69738486D01*
X156590199Y-70967909D01*
G37*
%TO.C,LED1*%
X136910000Y-61821904D02*
X136010000Y-61821904D01*
X136010000Y-60921904D01*
X136910000Y-61821904D01*
G36*
X136910000Y-61821904D02*
G01*
X136010000Y-61821904D01*
X136010000Y-60921904D01*
X136910000Y-61821904D01*
G37*
%TO.C,LED16*%
X155988581Y-98190977D02*
X155209158Y-97740977D01*
X156438581Y-97411554D01*
X155988581Y-98190977D01*
G36*
X155988581Y-98190977D02*
G01*
X155209158Y-97740977D01*
X156438581Y-97411554D01*
X155988581Y-98190977D01*
G37*
%TO.C,LED15*%
X146928841Y-95030085D02*
X146149418Y-94580085D01*
X147378841Y-94250662D01*
X146928841Y-95030085D01*
G36*
X146928841Y-95030085D02*
G01*
X146149418Y-94580085D01*
X147378841Y-94250662D01*
X146928841Y-95030085D01*
G37*
%TO.C,LED9*%
X142591159Y-82317909D02*
X142141159Y-81538486D01*
X142920582Y-81088486D01*
X142591159Y-82317909D01*
G36*
X142591159Y-82317909D02*
G01*
X142141159Y-81538486D01*
X142920582Y-81088486D01*
X142591159Y-82317909D01*
G37*
%TO.C,LED12*%
X120128841Y-76980086D02*
X119349418Y-76530086D01*
X120578841Y-76200663D01*
X120128841Y-76980086D01*
G36*
X120128841Y-76980086D02*
G01*
X119349418Y-76530086D01*
X120578841Y-76200663D01*
X120128841Y-76980086D01*
G37*
%TO.C,LED6*%
X136910000Y-102321904D02*
X136010000Y-102321904D01*
X136010000Y-101421904D01*
X136910000Y-102321904D01*
G36*
X136910000Y-102321904D02*
G01*
X136010000Y-102321904D01*
X136010000Y-101421904D01*
X136910000Y-102321904D01*
G37*
%TO.C,LED10*%
X129390198Y-88967909D02*
X128940198Y-88188486D01*
X129719621Y-87738486D01*
X129390198Y-88967909D01*
G36*
X129390198Y-88967909D02*
G01*
X128940198Y-88188486D01*
X129719621Y-87738486D01*
X129390198Y-88967909D01*
G37*
%TO.C,LED14*%
X133828841Y-88380085D02*
X133049418Y-87930085D01*
X134278841Y-87600662D01*
X133828841Y-88380085D01*
G36*
X133828841Y-88380085D02*
G01*
X133049418Y-87930085D01*
X134278841Y-87600662D01*
X133828841Y-88380085D01*
G37*
%TD*%
M02*
