M48
; DRILL file {KiCad 8.0.8} date 2025-04-07T13:38:20-0400
; FORMAT={-:-/ absolute / inch / decimal}
; #@! TF.CreationDate,2025-04-07T13:38:20-04:00
; #@! TF.GenerationSoftware,Kicad,Pcbnew,8.0.8
; #@! TF.FileFunction,Plated,1,2,PTH
FMAT,2
INCH
; #@! TA.AperFunction,Plated,PTH,ViaDrill
T1C0.0118
; #@! TA.AperFunction,Plated,PTH,ComponentDrill
T2C0.0236
%
G90
G05
T1
X4.6756Y-2.4331
X4.711Y-2.4094
X4.8349Y-2.8717
X4.8488Y-2.7288
X4.8606Y-2.8031
X4.8606Y-2.8976
X4.8766Y-2.4667
X4.8766Y-2.6693
X4.8843Y-2.9291
X4.9039Y-2.0276
X4.9079Y-3.0827
X4.9626Y-2.3637
X4.9823Y-2.5684
X4.9827Y-3.5433
X4.9866Y-3.7795
X4.9866Y-3.6693
X4.9941Y-2.3041
X5.0457Y-2.8661
X5.0488Y-2.6093
X5.0614Y-3.3819
X5.0758Y-2.8875
X5.0767Y-2.6309
X5.0871Y-3.1419
X5.0929Y-2.9751
X5.1043Y-2.9055
X5.1122Y-2.6545
X5.1913Y-2.689
X5.2143Y-2.3237
X5.2425Y-2.6929
X5.25Y-2.3041
X5.2701Y-2.7126
X5.2756Y-2.3593
X5.2937Y-2.7835
X5.2953Y-2.6214
X5.3015Y-3.7008
X5.3055Y-3.4291
X5.3173Y-2.3465
X5.3213Y-3.4961
X5.3252Y-3.1575
X5.3449Y-3.4173
X5.3488Y-2.4055
X5.3685Y-3.1654
X5.4039Y-3.0827
X5.4039Y-3.2441
X5.585Y-3.1654
X5.5854Y-3.219
X5.6122Y-2.7579
X5.6126Y-2.9134
X5.6126Y-3.3957
X5.6126Y-3.5433
X5.6126Y-3.7165
X5.6126Y-3.8583
X5.6638Y-3.689
X5.6756Y-3.4213
X5.6756Y-3.5906
X5.6795Y-2.3976
X5.6795Y-2.5748
X5.6874Y-2.314
X5.6874Y-3.9031
X5.6913Y-2.6417
X5.6953Y-2.9606
X5.9079Y-3.7598
X5.9118Y-3.3661
X5.9118Y-3.5276
X5.9197Y-2.5512
X5.9197Y-3.3919
X5.9984Y-2.5276
X6.0339Y-2.5118
X6.0772Y-2.4921
X6.0772Y-2.6969
X6.1087Y-2.4685
X6.1087Y-2.6575
X6.1441Y-2.4449
X6.1441Y-2.5787
X6.1913Y-3.178
X6.2163Y-3.5446
X6.4108Y-2.9695
T2
X4.5756Y-2.8386
X4.5756Y-3.4607
X4.6256Y-2.752
X4.6256Y-3.5473
X4.6756Y-2.6654
X4.6756Y-3.6339
X4.7256Y-2.5788
X4.7256Y-3.7205
X4.7756Y-2.4921
X4.7756Y-3.8071
X5.3142Y-2.1811
X5.3142Y-4.1181
X5.4142Y-2.1811
X5.4142Y-4.1181
X5.5142Y-2.1811
X5.5142Y-4.1181
X5.6142Y-2.1811
X5.6142Y-4.1181
X5.7142Y-2.1811
X5.7142Y-4.1181
X6.2552Y-2.4912
X6.2567Y-3.8067
X6.3052Y-2.5778
X6.3067Y-3.7201
X6.3552Y-2.6644
X6.3567Y-3.6335
X6.4052Y-2.751
X6.4067Y-3.5469
X6.4552Y-2.8376
X6.4567Y-3.4603
M30
