%TF.GenerationSoftware,KiCad,Pcbnew,8.0.8*%
%TF.CreationDate,2025-04-07T13:38:17-04:00*%
%TF.ProjectId,pcb_tile_game_tile_ooo,7063625f-7469-46c6-955f-67616d655f74,1.0*%
%TF.SameCoordinates,Original*%
%TF.FileFunction,Legend,Bot*%
%TF.FilePolarity,Positive*%
%FSLAX46Y46*%
G04 Gerber Fmt 4.6, Leading zero omitted, Abs format (unit mm)*
G04 Created by KiCad (PCBNEW 8.0.8) date 2025-04-07 13:38:17*
%MOMM*%
%LPD*%
G01*
G04 APERTURE LIST*
%ADD10C,0.000000*%
%ADD11C,0.239466*%
G04 APERTURE END LIST*
D10*
G36*
X116374961Y-64181887D02*
G01*
X117516690Y-65784467D01*
X118717554Y-67407290D01*
X119967221Y-69023824D01*
X121255357Y-70607532D01*
X122571632Y-72131881D01*
X123237092Y-72863504D01*
X123905713Y-73570337D01*
X124576201Y-74249062D01*
X125247267Y-74896364D01*
X127362615Y-76793493D01*
X129575049Y-78602953D01*
X131877487Y-80321874D01*
X134262848Y-81947385D01*
X136724051Y-83476616D01*
X139254014Y-84906695D01*
X141845657Y-86234752D01*
X144491897Y-87457917D01*
X147185654Y-88573318D01*
X149919846Y-89578086D01*
X152687392Y-90469348D01*
X155481211Y-91244235D01*
X158294221Y-91899876D01*
X161119341Y-92433400D01*
X163949490Y-92841936D01*
X166977586Y-93222614D01*
X164885537Y-96843395D01*
X161703691Y-96450090D01*
X158759241Y-96029727D01*
X155854054Y-95484109D01*
X152989998Y-94815035D01*
X150168939Y-94024308D01*
X147392744Y-93113729D01*
X144663279Y-92085100D01*
X141982411Y-90940221D01*
X139352008Y-89680894D01*
X136773935Y-88308920D01*
X134250060Y-86826101D01*
X131782249Y-85234239D01*
X129372370Y-83535133D01*
X127022288Y-81730587D01*
X124733871Y-79822401D01*
X122508985Y-77812376D01*
X121128651Y-76484737D01*
X119824550Y-75165517D01*
X118584864Y-73840311D01*
X117397777Y-72494714D01*
X116251469Y-71114321D01*
X115134123Y-69684729D01*
X114033922Y-68191532D01*
X113039047Y-66720325D01*
X115402698Y-62726085D01*
X116374961Y-64181887D01*
G37*
G36*
X166980952Y-66626335D02*
G01*
X165436020Y-68962038D01*
X163599752Y-71301825D01*
X161674640Y-73544981D01*
X159663178Y-75690790D01*
X157567860Y-77738535D01*
X155391178Y-79687501D01*
X153135627Y-81536972D01*
X150803699Y-83286231D01*
X148397889Y-84934564D01*
X145920689Y-86481253D01*
X143374593Y-87925584D01*
X140762094Y-89266839D01*
X138085687Y-90504304D01*
X135347863Y-91637262D01*
X132551117Y-92664997D01*
X129697943Y-93586794D01*
X127858007Y-94118378D01*
X126063477Y-94588152D01*
X124295971Y-94999148D01*
X122537105Y-95354397D01*
X120768495Y-95656932D01*
X118971758Y-95909785D01*
X117128510Y-96115988D01*
X114920369Y-96378574D01*
X112643090Y-92334484D01*
X114826585Y-92083775D01*
X116785323Y-91896296D01*
X118791161Y-91667727D01*
X120815952Y-91393750D01*
X122831551Y-91070045D01*
X124809812Y-90692293D01*
X126722591Y-90256175D01*
X127645629Y-90014879D01*
X128541742Y-89757372D01*
X131242377Y-88873991D01*
X133915632Y-87862697D01*
X136555481Y-86728188D01*
X139155895Y-85475160D01*
X141710849Y-84108311D01*
X144214316Y-82632338D01*
X146660269Y-81051938D01*
X149042681Y-79371809D01*
X151355526Y-77596647D01*
X153592776Y-75731151D01*
X155748405Y-73780016D01*
X157816387Y-71747941D01*
X159790694Y-69639623D01*
X161665299Y-67459758D01*
X163434177Y-65213045D01*
X164891299Y-63004180D01*
X166980952Y-66626335D01*
G37*
D11*
X141688017Y-109880265D02*
X137927477Y-109880265D01*
X137927477Y-50119734D01*
X141688017Y-50119734D01*
X141688017Y-109880265D01*
G36*
X141688017Y-109880265D02*
G01*
X137927477Y-109880265D01*
X137927477Y-50119734D01*
X141688017Y-50119734D01*
X141688017Y-109880265D01*
G37*
M02*
