%TF.GenerationSoftware,KiCad,Pcbnew,8.0.8*%
%TF.CreationDate,2025-04-07T13:38:17-04:00*%
%TF.ProjectId,pcb_tile_game_tile_ooo,7063625f-7469-46c6-955f-67616d655f74,1.0*%
%TF.SameCoordinates,Original*%
%TF.FileFunction,Soldermask,Top*%
%TF.FilePolarity,Negative*%
%FSLAX46Y46*%
G04 Gerber Fmt 4.6, Leading zero omitted, Abs format (unit mm)*
G04 Created by KiCad (PCBNEW 8.0.8) date 2025-04-07 13:38:17*
%MOMM*%
%LPD*%
G01*
G04 APERTURE LIST*
G04 Aperture macros list*
%AMRoundRect*
0 Rectangle with rounded corners*
0 $1 Rounding radius*
0 $2 $3 $4 $5 $6 $7 $8 $9 X,Y pos of 4 corners*
0 Add a 4 corners polygon primitive as box body*
4,1,4,$2,$3,$4,$5,$6,$7,$8,$9,$2,$3,0*
0 Add four circle primitives for the rounded corners*
1,1,$1+$1,$2,$3*
1,1,$1+$1,$4,$5*
1,1,$1+$1,$6,$7*
1,1,$1+$1,$8,$9*
0 Add four rect primitives between the rounded corners*
20,1,$1+$1,$2,$3,$4,$5,0*
20,1,$1+$1,$4,$5,$6,$7,0*
20,1,$1+$1,$6,$7,$8,$9,0*
20,1,$1+$1,$8,$9,$2,$3,0*%
%AMHorizOval*
0 Thick line with rounded ends*
0 $1 width*
0 $2 $3 position (X,Y) of the first rounded end (center of the circle)*
0 $4 $5 position (X,Y) of the second rounded end (center of the circle)*
0 Add line between two ends*
20,1,$1,$2,$3,$4,$5,0*
0 Add two circle primitives to create the rounded ends*
1,1,$1,$2,$3*
1,1,$1,$4,$5*%
%AMRotRect*
0 Rectangle, with rotation*
0 The origin of the aperture is its center*
0 $1 length*
0 $2 width*
0 $3 Rotation angle, in degrees counterclockwise*
0 Add horizontal line*
21,1,$1,$2,0,0,$3*%
G04 Aperture macros list end*
%ADD10RoundRect,0.237500X0.237500X-0.300000X0.237500X0.300000X-0.237500X0.300000X-0.237500X-0.300000X0*%
%ADD11RoundRect,0.237500X-0.378558X-0.055681X0.141058X-0.355681X0.378558X0.055681X-0.141058X0.355681X0*%
%ADD12RoundRect,0.237500X0.300000X0.237500X-0.300000X0.237500X-0.300000X-0.237500X0.300000X-0.237500X0*%
%ADD13R,1.700000X1.700000*%
%ADD14O,1.700000X1.700000*%
%ADD15RoundRect,0.237500X-0.237500X0.250000X-0.237500X-0.250000X0.237500X-0.250000X0.237500X0.250000X0*%
%ADD16RoundRect,0.237500X-0.141058X-0.355681X0.378558X-0.055681X0.141058X0.355681X-0.378558X0.055681X0*%
%ADD17RoundRect,0.237500X-0.355681X0.141058X-0.055681X-0.378558X0.355681X-0.141058X0.055681X0.378558X0*%
%ADD18RotRect,1.700000X1.700000X150.000000*%
%ADD19HorizOval,1.700000X0.000000X0.000000X0.000000X0.000000X0*%
%ADD20RoundRect,0.237500X0.355681X-0.141058X0.055681X0.378558X-0.355681X0.141058X-0.055681X-0.378558X0*%
%ADD21RoundRect,0.237500X-0.055681X0.378558X-0.355681X-0.141058X0.055681X-0.378558X0.355681X0.141058X0*%
%ADD22RoundRect,0.237500X0.378558X0.055681X-0.141058X0.355681X-0.378558X-0.055681X0.141058X-0.355681X0*%
%ADD23RotRect,1.700000X1.700000X330.000000*%
%ADD24HorizOval,1.700000X0.000000X0.000000X0.000000X0.000000X0*%
%ADD25RotRect,1.700000X1.700000X210.000000*%
%ADD26HorizOval,1.700000X0.000000X0.000000X0.000000X0.000000X0*%
%ADD27RotRect,1.700000X1.700000X30.000000*%
%ADD28HorizOval,1.700000X0.000000X0.000000X0.000000X0.000000X0*%
%ADD29R,2.000000X2.000000*%
%ADD30RoundRect,0.062500X-0.350000X-0.062500X0.350000X-0.062500X0.350000X0.062500X-0.350000X0.062500X0*%
%ADD31RoundRect,0.062500X-0.062500X-0.350000X0.062500X-0.350000X0.062500X0.350000X-0.062500X0.350000X0*%
%ADD32R,2.600000X2.600000*%
%ADD33RoundRect,0.082000X-0.718000X0.328000X-0.718000X-0.328000X0.718000X-0.328000X0.718000X0.328000X0*%
%ADD34RoundRect,0.082000X-0.643056X-0.457806X-0.074944X-0.785806X0.643056X0.457806X0.074944X0.785806X0*%
%ADD35RoundRect,0.082000X-0.074944X0.785806X-0.643056X0.457806X0.074944X-0.785806X0.643056X-0.457806X0*%
G04 APERTURE END LIST*
D10*
%TO.C,C2*%
X143860000Y-96825000D03*
X143860000Y-95100000D03*
%TD*%
D11*
%TO.C,C14*%
X133766106Y-78437502D03*
X135260000Y-79300000D03*
%TD*%
D12*
%TO.C,C3*%
X143560000Y-79400000D03*
X141835000Y-79400000D03*
%TD*%
D13*
%TO.C,J2*%
X134980000Y-104600000D03*
D14*
X137520000Y-104600000D03*
X140060000Y-104600000D03*
X142600000Y-104600000D03*
X145140000Y-104600000D03*
%TD*%
D15*
%TO.C,R1*%
X128099386Y-58275000D03*
X128099386Y-60100000D03*
%TD*%
D16*
%TO.C,C11*%
X125413053Y-98031250D03*
X126906947Y-97168750D03*
%TD*%
D10*
%TO.C,C18*%
X128099386Y-65237500D03*
X128099386Y-63512500D03*
%TD*%
%TO.C,C5*%
X146060000Y-68572500D03*
X146060000Y-66847500D03*
%TD*%
D17*
%TO.C,C9*%
X150197500Y-83106106D03*
X151060000Y-84600000D03*
%TD*%
D10*
%TO.C,C6*%
X146060000Y-60500000D03*
X146060000Y-58775000D03*
%TD*%
D18*
%TO.C,J3*%
X158920000Y-96689409D03*
D19*
X160190000Y-94489704D03*
X161460000Y-92290000D03*
X162730000Y-90090295D03*
X164000000Y-87890591D03*
%TD*%
D20*
%TO.C,C15*%
X152791249Y-87646947D03*
X151928751Y-86153053D03*
%TD*%
D16*
%TO.C,C7*%
X161713053Y-77331250D03*
X163206947Y-76468750D03*
%TD*%
D21*
%TO.C,C16*%
X158822500Y-87406106D03*
X157960000Y-88900000D03*
%TD*%
D22*
%TO.C,C13*%
X132006947Y-76431250D03*
X130513053Y-75568750D03*
%TD*%
D23*
%TO.C,J6*%
X121300000Y-63300591D03*
D24*
X120030000Y-65500296D03*
X118760000Y-67700000D03*
X117490000Y-69899705D03*
X116220000Y-72099409D03*
%TD*%
D17*
%TO.C,C8*%
X157628750Y-78053053D03*
X158491250Y-79546947D03*
%TD*%
D10*
%TO.C,C1*%
X146060000Y-100862500D03*
X146060000Y-99137500D03*
%TD*%
D25*
%TO.C,J4*%
X163963349Y-72075928D03*
D26*
X162693349Y-69876223D03*
X161423349Y-67676519D03*
X160153349Y-65476814D03*
X158883349Y-63277110D03*
%TD*%
D16*
%TO.C,C10*%
X133613053Y-95731250D03*
X135106947Y-94868750D03*
%TD*%
D27*
%TO.C,J1*%
X116220000Y-87900591D03*
D28*
X117490000Y-90100296D03*
X118760000Y-92300000D03*
X120030000Y-94499705D03*
X121300000Y-96699409D03*
%TD*%
D10*
%TO.C,C4*%
X146060000Y-76645000D03*
X146060000Y-74920000D03*
%TD*%
D13*
%TO.C,J5*%
X145140000Y-55400000D03*
D14*
X142600000Y-55400000D03*
X140060000Y-55400000D03*
X137520000Y-55400000D03*
X134980000Y-55400000D03*
%TD*%
D29*
%TO.C,TP1*%
X124560000Y-51500000D03*
%TD*%
D30*
%TO.C,U2*%
X131161886Y-62125000D03*
X131161886Y-62625000D03*
X131161886Y-63125000D03*
X131161886Y-63625000D03*
X131161886Y-64125000D03*
X131161886Y-64625000D03*
D31*
X131849386Y-65312500D03*
X132349386Y-65312500D03*
X132849386Y-65312500D03*
X133349386Y-65312500D03*
X133849386Y-65312500D03*
X134349386Y-65312500D03*
D30*
X135036886Y-64625000D03*
X135036886Y-64125000D03*
X135036886Y-63625000D03*
X135036886Y-63125000D03*
X135036886Y-62625000D03*
X135036886Y-62125000D03*
D31*
X134349386Y-61437500D03*
X133849386Y-61437500D03*
X133349386Y-61437500D03*
X132849386Y-61437500D03*
X132349386Y-61437500D03*
X131849386Y-61437500D03*
D32*
X133099386Y-63375000D03*
%TD*%
D10*
%TO.C,C17*%
X125099386Y-65237500D03*
X125099386Y-63512500D03*
%TD*%
D12*
%TO.C,C12*%
X126060000Y-69900000D03*
X124335000Y-69900000D03*
%TD*%
D33*
%TO.C,LED4*%
X142560000Y-83300000D03*
X142560000Y-84800000D03*
X137360000Y-84800000D03*
X137360000Y-83300000D03*
%TD*%
%TO.C,LED3*%
X142560000Y-75200000D03*
X142560000Y-76700000D03*
X137360000Y-76700000D03*
X137360000Y-75200000D03*
%TD*%
D34*
%TO.C,LED13*%
X127760961Y-76217383D03*
X129060000Y-76967383D03*
X126460000Y-81470715D03*
X125160961Y-80720715D03*
%TD*%
D35*
%TO.C,LED8*%
X155159520Y-80720714D03*
X153860481Y-81470714D03*
X151260481Y-76967382D03*
X152559521Y-76217382D03*
%TD*%
%TO.C,LED11*%
X125560000Y-94900001D03*
X124260960Y-95650000D03*
X121660961Y-91146668D03*
X122959998Y-90396668D03*
%TD*%
D33*
%TO.C,LED2*%
X142560000Y-67100000D03*
X142560000Y-68600000D03*
X137360000Y-68600000D03*
X137360000Y-67100000D03*
%TD*%
%TO.C,LED5*%
X142560000Y-91400000D03*
X142560000Y-92900000D03*
X137360000Y-92900000D03*
X137360000Y-91400000D03*
%TD*%
D35*
%TO.C,LED7*%
X161859040Y-74450000D03*
X160560001Y-75200000D03*
X157960001Y-70696668D03*
X159259040Y-69946668D03*
%TD*%
D33*
%TO.C,LED1*%
X142560000Y-59000000D03*
X142560000Y-60500000D03*
X137360000Y-60500000D03*
X137360000Y-59000000D03*
%TD*%
D34*
%TO.C,LED16*%
X156819740Y-91107559D03*
X158118779Y-91857559D03*
X155518779Y-96360891D03*
X154219740Y-95610891D03*
%TD*%
%TO.C,LED15*%
X147760000Y-87946667D03*
X149059039Y-88696667D03*
X146459039Y-93199999D03*
X145160000Y-92449999D03*
%TD*%
D35*
%TO.C,LED9*%
X147860000Y-85800000D03*
X146560961Y-86550000D03*
X143960961Y-82046668D03*
X145260000Y-81296668D03*
%TD*%
D34*
%TO.C,LED12*%
X120960000Y-69896668D03*
X122259039Y-70646668D03*
X119659039Y-75150000D03*
X118360000Y-74400000D03*
%TD*%
D33*
%TO.C,LED6*%
X142560000Y-99500000D03*
X142560000Y-101000000D03*
X137360000Y-101000000D03*
X137360000Y-99500000D03*
%TD*%
D35*
%TO.C,LED10*%
X134659039Y-92450000D03*
X133360000Y-93200000D03*
X130760000Y-88696668D03*
X132059039Y-87946668D03*
%TD*%
D34*
%TO.C,LED14*%
X134660000Y-81296667D03*
X135959039Y-82046667D03*
X133359039Y-86549999D03*
X132060000Y-85799999D03*
%TD*%
M02*
