M48
; DRILL file {KiCad 8.0.8} date 2025-04-07T13:45:24-0400
; FORMAT={-:-/ absolute / inch / decimal}
; #@! TF.CreationDate,2025-04-07T13:45:24-04:00
; #@! TF.GenerationSoftware,Kicad,Pcbnew,8.0.8
; #@! TF.FileFunction,Plated,1,2,PTH
FMAT,2
INCH
; #@! TA.AperFunction,Plated,PTH,ViaDrill
T1C0.0118
; #@! TA.AperFunction,Plated,PTH,ComponentDrill
T2C0.0236
%
G90
G05
T1
X4.648Y-2.9291
X4.648Y-3.1299
X4.7786Y-3.3725
X4.837Y-2.6654
X4.8613Y-2.8004
X4.8646Y-3.4724
X4.8803Y-2.6339
X4.8803Y-2.7717
X4.9039Y-2.0276
X4.9059Y-2.5846
X4.9143Y-2.7539
X4.9197Y-3.1772
X4.9197Y-3.6378
X4.9472Y-2.7244
X4.9669Y-2.9021
X4.9787Y-2.6535
X4.9787Y-3.0433
X4.9807Y-3.2351
X5.0024Y-2.9685
X5.0063Y-3.3031
X5.0335Y-2.9429
X5.0335Y-3.3701
X5.0614Y-2.9646
X5.0614Y-3.6654
X5.0969Y-2.9882
X5.0969Y-3.7205
X5.1362Y-3.0
X5.1362Y-3.3976
X5.199Y-2.6573
X5.2012Y-3.0008
X5.2287Y-3.0214
X5.2346Y-2.6378
X5.2543Y-3.0472
X5.2602Y-2.6929
X5.2799Y-2.9551
X5.286Y-3.8443
X5.2917Y-2.3228
X5.2917Y-2.4803
X5.3094Y-3.0079
X5.3134Y-3.815
X5.339Y-2.9528
X5.3449Y-3.7756
X5.3646Y-2.748
X5.3705Y-3.7028
X5.3921Y-2.689
X5.3921Y-3.2559
X5.4236Y-3.8583
X5.4276Y-3.4803
X5.4669Y-3.0039
X5.4669Y-3.6693
X5.4787Y-3.1339
X5.4787Y-3.2795
X5.6559Y-2.6102
X5.6992Y-2.3189
X5.7071Y-3.8622
X5.7071Y-4.0
X5.7268Y-3.0433
X5.7346Y-2.4803
X5.7346Y-2.752
X5.7465Y-3.4843
X5.7661Y-3.8858
X5.8171Y-3.6226
X5.8803Y-2.5787
X5.8803Y-2.7992
X5.8961Y-3.2835
X5.9039Y-3.6181
X5.9157Y-2.6024
X5.9157Y-2.8189
X5.9748Y-3.315
X6.0024Y-3.2717
X6.0535Y-2.8465
X6.0535Y-3.0236
X6.085Y-2.626
X6.085Y-3.2087
X6.1087Y-3.1654
X6.1598Y-3.8189
X6.1638Y-3.7756
X6.1913Y-2.878
X6.1913Y-3.1063
X6.2189Y-3.4213
X6.2671Y-3.4469
X6.3173Y-3.4213
X6.3528Y-2.8937
X6.3961Y-3.0236
X6.4079Y-3.1063
T2
X4.5756Y-2.8386
X4.5756Y-3.4607
X4.6256Y-2.752
X4.6256Y-3.5473
X4.6756Y-2.6654
X4.6756Y-3.6339
X4.7256Y-2.5788
X4.7256Y-3.7205
X4.7756Y-2.4921
X4.7756Y-3.8071
X5.3142Y-2.1811
X5.3142Y-4.1181
X5.4142Y-2.1811
X5.4142Y-4.1181
X5.5142Y-2.1811
X5.5142Y-4.1181
X5.6142Y-2.1811
X5.6142Y-4.1181
X5.7142Y-2.1811
X5.7142Y-4.1181
X6.2552Y-2.4912
X6.2567Y-3.8067
X6.3052Y-2.5778
X6.3067Y-3.7201
X6.3552Y-2.6644
X6.3567Y-3.6335
X6.4052Y-2.751
X6.4067Y-3.5469
X6.4552Y-2.8376
X6.4567Y-3.4603
M30
