%TF.GenerationSoftware,KiCad,Pcbnew,8.0.8*%
%TF.CreationDate,2025-04-07T13:45:20-04:00*%
%TF.ProjectId,pcb_tile_game_tile_ssa,7063625f-7469-46c6-955f-67616d655f74,1.0*%
%TF.SameCoordinates,Original*%
%TF.FileFunction,Legend,Top*%
%TF.FilePolarity,Positive*%
%FSLAX46Y46*%
G04 Gerber Fmt 4.6, Leading zero omitted, Abs format (unit mm)*
G04 Created by KiCad (PCBNEW 8.0.8) date 2025-04-07 13:45:20*
%MOMM*%
%LPD*%
G01*
G04 APERTURE LIST*
%ADD10C,0.400000*%
%ADD11C,0.200000*%
%ADD12C,0.150000*%
%ADD13C,0.120000*%
%ADD14C,0.000000*%
%ADD15C,0.100000*%
G04 APERTURE END LIST*
D10*
X126517142Y-100904438D02*
X125850475Y-99952057D01*
X125374285Y-100904438D02*
X125374285Y-98904438D01*
X125374285Y-98904438D02*
X126136190Y-98904438D01*
X126136190Y-98904438D02*
X126326666Y-98999676D01*
X126326666Y-98999676D02*
X126421904Y-99094914D01*
X126421904Y-99094914D02*
X126517142Y-99285390D01*
X126517142Y-99285390D02*
X126517142Y-99571104D01*
X126517142Y-99571104D02*
X126421904Y-99761580D01*
X126421904Y-99761580D02*
X126326666Y-99856819D01*
X126326666Y-99856819D02*
X126136190Y-99952057D01*
X126136190Y-99952057D02*
X125374285Y-99952057D01*
X128136190Y-100809200D02*
X127945714Y-100904438D01*
X127945714Y-100904438D02*
X127564761Y-100904438D01*
X127564761Y-100904438D02*
X127374285Y-100809200D01*
X127374285Y-100809200D02*
X127279047Y-100618723D01*
X127279047Y-100618723D02*
X127279047Y-99856819D01*
X127279047Y-99856819D02*
X127374285Y-99666342D01*
X127374285Y-99666342D02*
X127564761Y-99571104D01*
X127564761Y-99571104D02*
X127945714Y-99571104D01*
X127945714Y-99571104D02*
X128136190Y-99666342D01*
X128136190Y-99666342D02*
X128231428Y-99856819D01*
X128231428Y-99856819D02*
X128231428Y-100047295D01*
X128231428Y-100047295D02*
X127279047Y-100237771D01*
X128898095Y-99571104D02*
X129374285Y-100904438D01*
X129374285Y-100904438D02*
X129850476Y-99571104D01*
X133183810Y-100904438D02*
X132040953Y-100904438D01*
X132612381Y-100904438D02*
X132612381Y-98904438D01*
X132612381Y-98904438D02*
X132421905Y-99190152D01*
X132421905Y-99190152D02*
X132231429Y-99380628D01*
X132231429Y-99380628D02*
X132040953Y-99475866D01*
X134040953Y-100713961D02*
X134136191Y-100809200D01*
X134136191Y-100809200D02*
X134040953Y-100904438D01*
X134040953Y-100904438D02*
X133945715Y-100809200D01*
X133945715Y-100809200D02*
X134040953Y-100713961D01*
X134040953Y-100713961D02*
X134040953Y-100904438D01*
X135374286Y-98904438D02*
X135564763Y-98904438D01*
X135564763Y-98904438D02*
X135755239Y-98999676D01*
X135755239Y-98999676D02*
X135850477Y-99094914D01*
X135850477Y-99094914D02*
X135945715Y-99285390D01*
X135945715Y-99285390D02*
X136040953Y-99666342D01*
X136040953Y-99666342D02*
X136040953Y-100142533D01*
X136040953Y-100142533D02*
X135945715Y-100523485D01*
X135945715Y-100523485D02*
X135850477Y-100713961D01*
X135850477Y-100713961D02*
X135755239Y-100809200D01*
X135755239Y-100809200D02*
X135564763Y-100904438D01*
X135564763Y-100904438D02*
X135374286Y-100904438D01*
X135374286Y-100904438D02*
X135183810Y-100809200D01*
X135183810Y-100809200D02*
X135088572Y-100713961D01*
X135088572Y-100713961D02*
X134993334Y-100523485D01*
X134993334Y-100523485D02*
X134898096Y-100142533D01*
X134898096Y-100142533D02*
X134898096Y-99666342D01*
X134898096Y-99666342D02*
X134993334Y-99285390D01*
X134993334Y-99285390D02*
X135088572Y-99094914D01*
X135088572Y-99094914D02*
X135183810Y-98999676D01*
X135183810Y-98999676D02*
X135374286Y-98904438D01*
D11*
X123036191Y-53452219D02*
X123036191Y-54261742D01*
X123036191Y-54261742D02*
X123083810Y-54356980D01*
X123083810Y-54356980D02*
X123131429Y-54404600D01*
X123131429Y-54404600D02*
X123226667Y-54452219D01*
X123226667Y-54452219D02*
X123417143Y-54452219D01*
X123417143Y-54452219D02*
X123512381Y-54404600D01*
X123512381Y-54404600D02*
X123560000Y-54356980D01*
X123560000Y-54356980D02*
X123607619Y-54261742D01*
X123607619Y-54261742D02*
X123607619Y-53452219D01*
X124083810Y-54452219D02*
X124083810Y-53452219D01*
X124083810Y-53452219D02*
X124464762Y-53452219D01*
X124464762Y-53452219D02*
X124560000Y-53499838D01*
X124560000Y-53499838D02*
X124607619Y-53547457D01*
X124607619Y-53547457D02*
X124655238Y-53642695D01*
X124655238Y-53642695D02*
X124655238Y-53785552D01*
X124655238Y-53785552D02*
X124607619Y-53880790D01*
X124607619Y-53880790D02*
X124560000Y-53928409D01*
X124560000Y-53928409D02*
X124464762Y-53976028D01*
X124464762Y-53976028D02*
X124083810Y-53976028D01*
X125083810Y-54452219D02*
X125083810Y-53452219D01*
X125083810Y-53452219D02*
X125321905Y-53452219D01*
X125321905Y-53452219D02*
X125464762Y-53499838D01*
X125464762Y-53499838D02*
X125560000Y-53595076D01*
X125560000Y-53595076D02*
X125607619Y-53690314D01*
X125607619Y-53690314D02*
X125655238Y-53880790D01*
X125655238Y-53880790D02*
X125655238Y-54023647D01*
X125655238Y-54023647D02*
X125607619Y-54214123D01*
X125607619Y-54214123D02*
X125560000Y-54309361D01*
X125560000Y-54309361D02*
X125464762Y-54404600D01*
X125464762Y-54404600D02*
X125321905Y-54452219D01*
X125321905Y-54452219D02*
X125083810Y-54452219D01*
X126083810Y-54452219D02*
X126083810Y-53452219D01*
D10*
X123998094Y-96504438D02*
X123998094Y-94504438D01*
X123998094Y-94504438D02*
X124759999Y-94504438D01*
X124759999Y-94504438D02*
X124950475Y-94599676D01*
X124950475Y-94599676D02*
X125045713Y-94694914D01*
X125045713Y-94694914D02*
X125140951Y-94885390D01*
X125140951Y-94885390D02*
X125140951Y-95171104D01*
X125140951Y-95171104D02*
X125045713Y-95361580D01*
X125045713Y-95361580D02*
X124950475Y-95456819D01*
X124950475Y-95456819D02*
X124759999Y-95552057D01*
X124759999Y-95552057D02*
X123998094Y-95552057D01*
X127140951Y-96313961D02*
X127045713Y-96409200D01*
X127045713Y-96409200D02*
X126759999Y-96504438D01*
X126759999Y-96504438D02*
X126569523Y-96504438D01*
X126569523Y-96504438D02*
X126283808Y-96409200D01*
X126283808Y-96409200D02*
X126093332Y-96218723D01*
X126093332Y-96218723D02*
X125998094Y-96028247D01*
X125998094Y-96028247D02*
X125902856Y-95647295D01*
X125902856Y-95647295D02*
X125902856Y-95361580D01*
X125902856Y-95361580D02*
X125998094Y-94980628D01*
X125998094Y-94980628D02*
X126093332Y-94790152D01*
X126093332Y-94790152D02*
X126283808Y-94599676D01*
X126283808Y-94599676D02*
X126569523Y-94504438D01*
X126569523Y-94504438D02*
X126759999Y-94504438D01*
X126759999Y-94504438D02*
X127045713Y-94599676D01*
X127045713Y-94599676D02*
X127140951Y-94694914D01*
X128664761Y-95456819D02*
X128950475Y-95552057D01*
X128950475Y-95552057D02*
X129045713Y-95647295D01*
X129045713Y-95647295D02*
X129140951Y-95837771D01*
X129140951Y-95837771D02*
X129140951Y-96123485D01*
X129140951Y-96123485D02*
X129045713Y-96313961D01*
X129045713Y-96313961D02*
X128950475Y-96409200D01*
X128950475Y-96409200D02*
X128759999Y-96504438D01*
X128759999Y-96504438D02*
X127998094Y-96504438D01*
X127998094Y-96504438D02*
X127998094Y-94504438D01*
X127998094Y-94504438D02*
X128664761Y-94504438D01*
X128664761Y-94504438D02*
X128855237Y-94599676D01*
X128855237Y-94599676D02*
X128950475Y-94694914D01*
X128950475Y-94694914D02*
X129045713Y-94885390D01*
X129045713Y-94885390D02*
X129045713Y-95075866D01*
X129045713Y-95075866D02*
X128950475Y-95266342D01*
X128950475Y-95266342D02*
X128855237Y-95361580D01*
X128855237Y-95361580D02*
X128664761Y-95456819D01*
X128664761Y-95456819D02*
X127998094Y-95456819D01*
X131236190Y-94504438D02*
X132379047Y-94504438D01*
X131807618Y-96504438D02*
X131807618Y-94504438D01*
X133045714Y-96504438D02*
X133045714Y-95171104D01*
X133045714Y-94504438D02*
X132950476Y-94599676D01*
X132950476Y-94599676D02*
X133045714Y-94694914D01*
X133045714Y-94694914D02*
X133140952Y-94599676D01*
X133140952Y-94599676D02*
X133045714Y-94504438D01*
X133045714Y-94504438D02*
X133045714Y-94694914D01*
X134283809Y-96504438D02*
X134093333Y-96409200D01*
X134093333Y-96409200D02*
X133998095Y-96218723D01*
X133998095Y-96218723D02*
X133998095Y-94504438D01*
X135807619Y-96409200D02*
X135617143Y-96504438D01*
X135617143Y-96504438D02*
X135236190Y-96504438D01*
X135236190Y-96504438D02*
X135045714Y-96409200D01*
X135045714Y-96409200D02*
X134950476Y-96218723D01*
X134950476Y-96218723D02*
X134950476Y-95456819D01*
X134950476Y-95456819D02*
X135045714Y-95266342D01*
X135045714Y-95266342D02*
X135236190Y-95171104D01*
X135236190Y-95171104D02*
X135617143Y-95171104D01*
X135617143Y-95171104D02*
X135807619Y-95266342D01*
X135807619Y-95266342D02*
X135902857Y-95456819D01*
X135902857Y-95456819D02*
X135902857Y-95647295D01*
X135902857Y-95647295D02*
X134950476Y-95837771D01*
X139331429Y-94599676D02*
X139140953Y-94504438D01*
X139140953Y-94504438D02*
X138855239Y-94504438D01*
X138855239Y-94504438D02*
X138569524Y-94599676D01*
X138569524Y-94599676D02*
X138379048Y-94790152D01*
X138379048Y-94790152D02*
X138283810Y-94980628D01*
X138283810Y-94980628D02*
X138188572Y-95361580D01*
X138188572Y-95361580D02*
X138188572Y-95647295D01*
X138188572Y-95647295D02*
X138283810Y-96028247D01*
X138283810Y-96028247D02*
X138379048Y-96218723D01*
X138379048Y-96218723D02*
X138569524Y-96409200D01*
X138569524Y-96409200D02*
X138855239Y-96504438D01*
X138855239Y-96504438D02*
X139045715Y-96504438D01*
X139045715Y-96504438D02*
X139331429Y-96409200D01*
X139331429Y-96409200D02*
X139426667Y-96313961D01*
X139426667Y-96313961D02*
X139426667Y-95647295D01*
X139426667Y-95647295D02*
X139045715Y-95647295D01*
X141140953Y-96504438D02*
X141140953Y-95456819D01*
X141140953Y-95456819D02*
X141045715Y-95266342D01*
X141045715Y-95266342D02*
X140855239Y-95171104D01*
X140855239Y-95171104D02*
X140474286Y-95171104D01*
X140474286Y-95171104D02*
X140283810Y-95266342D01*
X141140953Y-96409200D02*
X140950477Y-96504438D01*
X140950477Y-96504438D02*
X140474286Y-96504438D01*
X140474286Y-96504438D02*
X140283810Y-96409200D01*
X140283810Y-96409200D02*
X140188572Y-96218723D01*
X140188572Y-96218723D02*
X140188572Y-96028247D01*
X140188572Y-96028247D02*
X140283810Y-95837771D01*
X140283810Y-95837771D02*
X140474286Y-95742533D01*
X140474286Y-95742533D02*
X140950477Y-95742533D01*
X140950477Y-95742533D02*
X141140953Y-95647295D01*
X142093334Y-96504438D02*
X142093334Y-95171104D01*
X142093334Y-95361580D02*
X142188572Y-95266342D01*
X142188572Y-95266342D02*
X142379048Y-95171104D01*
X142379048Y-95171104D02*
X142664763Y-95171104D01*
X142664763Y-95171104D02*
X142855239Y-95266342D01*
X142855239Y-95266342D02*
X142950477Y-95456819D01*
X142950477Y-95456819D02*
X142950477Y-96504438D01*
X142950477Y-95456819D02*
X143045715Y-95266342D01*
X143045715Y-95266342D02*
X143236191Y-95171104D01*
X143236191Y-95171104D02*
X143521905Y-95171104D01*
X143521905Y-95171104D02*
X143712382Y-95266342D01*
X143712382Y-95266342D02*
X143807620Y-95456819D01*
X143807620Y-95456819D02*
X143807620Y-96504438D01*
X145521906Y-96409200D02*
X145331430Y-96504438D01*
X145331430Y-96504438D02*
X144950477Y-96504438D01*
X144950477Y-96504438D02*
X144760001Y-96409200D01*
X144760001Y-96409200D02*
X144664763Y-96218723D01*
X144664763Y-96218723D02*
X144664763Y-95456819D01*
X144664763Y-95456819D02*
X144760001Y-95266342D01*
X144760001Y-95266342D02*
X144950477Y-95171104D01*
X144950477Y-95171104D02*
X145331430Y-95171104D01*
X145331430Y-95171104D02*
X145521906Y-95266342D01*
X145521906Y-95266342D02*
X145617144Y-95456819D01*
X145617144Y-95456819D02*
X145617144Y-95647295D01*
X145617144Y-95647295D02*
X144664763Y-95837771D01*
D12*
X151093333Y-94469580D02*
X151045714Y-94517200D01*
X151045714Y-94517200D02*
X150902857Y-94564819D01*
X150902857Y-94564819D02*
X150807619Y-94564819D01*
X150807619Y-94564819D02*
X150664762Y-94517200D01*
X150664762Y-94517200D02*
X150569524Y-94421961D01*
X150569524Y-94421961D02*
X150521905Y-94326723D01*
X150521905Y-94326723D02*
X150474286Y-94136247D01*
X150474286Y-94136247D02*
X150474286Y-93993390D01*
X150474286Y-93993390D02*
X150521905Y-93802914D01*
X150521905Y-93802914D02*
X150569524Y-93707676D01*
X150569524Y-93707676D02*
X150664762Y-93612438D01*
X150664762Y-93612438D02*
X150807619Y-93564819D01*
X150807619Y-93564819D02*
X150902857Y-93564819D01*
X150902857Y-93564819D02*
X151045714Y-93612438D01*
X151045714Y-93612438D02*
X151093333Y-93660057D01*
X151474286Y-93660057D02*
X151521905Y-93612438D01*
X151521905Y-93612438D02*
X151617143Y-93564819D01*
X151617143Y-93564819D02*
X151855238Y-93564819D01*
X151855238Y-93564819D02*
X151950476Y-93612438D01*
X151950476Y-93612438D02*
X151998095Y-93660057D01*
X151998095Y-93660057D02*
X152045714Y-93755295D01*
X152045714Y-93755295D02*
X152045714Y-93850533D01*
X152045714Y-93850533D02*
X151998095Y-93993390D01*
X151998095Y-93993390D02*
X151426667Y-94564819D01*
X151426667Y-94564819D02*
X152045714Y-94564819D01*
X131392142Y-78859582D02*
X131344523Y-78907202D01*
X131344523Y-78907202D02*
X131201666Y-78954821D01*
X131201666Y-78954821D02*
X131106428Y-78954821D01*
X131106428Y-78954821D02*
X130963571Y-78907202D01*
X130963571Y-78907202D02*
X130868333Y-78811963D01*
X130868333Y-78811963D02*
X130820714Y-78716725D01*
X130820714Y-78716725D02*
X130773095Y-78526249D01*
X130773095Y-78526249D02*
X130773095Y-78383392D01*
X130773095Y-78383392D02*
X130820714Y-78192916D01*
X130820714Y-78192916D02*
X130868333Y-78097678D01*
X130868333Y-78097678D02*
X130963571Y-78002440D01*
X130963571Y-78002440D02*
X131106428Y-77954821D01*
X131106428Y-77954821D02*
X131201666Y-77954821D01*
X131201666Y-77954821D02*
X131344523Y-78002440D01*
X131344523Y-78002440D02*
X131392142Y-78050059D01*
X132344523Y-78954821D02*
X131773095Y-78954821D01*
X132058809Y-78954821D02*
X132058809Y-77954821D01*
X132058809Y-77954821D02*
X131963571Y-78097678D01*
X131963571Y-78097678D02*
X131868333Y-78192916D01*
X131868333Y-78192916D02*
X131773095Y-78240535D01*
X132725476Y-78050059D02*
X132773095Y-78002440D01*
X132773095Y-78002440D02*
X132868333Y-77954821D01*
X132868333Y-77954821D02*
X133106428Y-77954821D01*
X133106428Y-77954821D02*
X133201666Y-78002440D01*
X133201666Y-78002440D02*
X133249285Y-78050059D01*
X133249285Y-78050059D02*
X133296904Y-78145297D01*
X133296904Y-78145297D02*
X133296904Y-78240535D01*
X133296904Y-78240535D02*
X133249285Y-78383392D01*
X133249285Y-78383392D02*
X132677857Y-78954821D01*
X132677857Y-78954821D02*
X133296904Y-78954821D01*
X158093333Y-81767080D02*
X158045714Y-81814700D01*
X158045714Y-81814700D02*
X157902857Y-81862319D01*
X157902857Y-81862319D02*
X157807619Y-81862319D01*
X157807619Y-81862319D02*
X157664762Y-81814700D01*
X157664762Y-81814700D02*
X157569524Y-81719461D01*
X157569524Y-81719461D02*
X157521905Y-81624223D01*
X157521905Y-81624223D02*
X157474286Y-81433747D01*
X157474286Y-81433747D02*
X157474286Y-81290890D01*
X157474286Y-81290890D02*
X157521905Y-81100414D01*
X157521905Y-81100414D02*
X157569524Y-81005176D01*
X157569524Y-81005176D02*
X157664762Y-80909938D01*
X157664762Y-80909938D02*
X157807619Y-80862319D01*
X157807619Y-80862319D02*
X157902857Y-80862319D01*
X157902857Y-80862319D02*
X158045714Y-80909938D01*
X158045714Y-80909938D02*
X158093333Y-80957557D01*
X158426667Y-80862319D02*
X159045714Y-80862319D01*
X159045714Y-80862319D02*
X158712381Y-81243271D01*
X158712381Y-81243271D02*
X158855238Y-81243271D01*
X158855238Y-81243271D02*
X158950476Y-81290890D01*
X158950476Y-81290890D02*
X158998095Y-81338509D01*
X158998095Y-81338509D02*
X159045714Y-81433747D01*
X159045714Y-81433747D02*
X159045714Y-81671842D01*
X159045714Y-81671842D02*
X158998095Y-81767080D01*
X158998095Y-81767080D02*
X158950476Y-81814700D01*
X158950476Y-81814700D02*
X158855238Y-81862319D01*
X158855238Y-81862319D02*
X158569524Y-81862319D01*
X158569524Y-81862319D02*
X158474286Y-81814700D01*
X158474286Y-81814700D02*
X158426667Y-81767080D01*
X131876666Y-104054819D02*
X131876666Y-104769104D01*
X131876666Y-104769104D02*
X131829047Y-104911961D01*
X131829047Y-104911961D02*
X131733809Y-105007200D01*
X131733809Y-105007200D02*
X131590952Y-105054819D01*
X131590952Y-105054819D02*
X131495714Y-105054819D01*
X132305238Y-104150057D02*
X132352857Y-104102438D01*
X132352857Y-104102438D02*
X132448095Y-104054819D01*
X132448095Y-104054819D02*
X132686190Y-104054819D01*
X132686190Y-104054819D02*
X132781428Y-104102438D01*
X132781428Y-104102438D02*
X132829047Y-104150057D01*
X132829047Y-104150057D02*
X132876666Y-104245295D01*
X132876666Y-104245295D02*
X132876666Y-104340533D01*
X132876666Y-104340533D02*
X132829047Y-104483390D01*
X132829047Y-104483390D02*
X132257619Y-105054819D01*
X132257619Y-105054819D02*
X132876666Y-105054819D01*
X126043333Y-68717319D02*
X125710000Y-68241128D01*
X125471905Y-68717319D02*
X125471905Y-67717319D01*
X125471905Y-67717319D02*
X125852857Y-67717319D01*
X125852857Y-67717319D02*
X125948095Y-67764938D01*
X125948095Y-67764938D02*
X125995714Y-67812557D01*
X125995714Y-67812557D02*
X126043333Y-67907795D01*
X126043333Y-67907795D02*
X126043333Y-68050652D01*
X126043333Y-68050652D02*
X125995714Y-68145890D01*
X125995714Y-68145890D02*
X125948095Y-68193509D01*
X125948095Y-68193509D02*
X125852857Y-68241128D01*
X125852857Y-68241128D02*
X125471905Y-68241128D01*
X126995714Y-68717319D02*
X126424286Y-68717319D01*
X126710000Y-68717319D02*
X126710000Y-67717319D01*
X126710000Y-67717319D02*
X126614762Y-67860176D01*
X126614762Y-67860176D02*
X126519524Y-67955414D01*
X126519524Y-67955414D02*
X126424286Y-68003033D01*
X147619580Y-72666666D02*
X147667200Y-72714285D01*
X147667200Y-72714285D02*
X147714819Y-72857142D01*
X147714819Y-72857142D02*
X147714819Y-72952380D01*
X147714819Y-72952380D02*
X147667200Y-73095237D01*
X147667200Y-73095237D02*
X147571961Y-73190475D01*
X147571961Y-73190475D02*
X147476723Y-73238094D01*
X147476723Y-73238094D02*
X147286247Y-73285713D01*
X147286247Y-73285713D02*
X147143390Y-73285713D01*
X147143390Y-73285713D02*
X146952914Y-73238094D01*
X146952914Y-73238094D02*
X146857676Y-73190475D01*
X146857676Y-73190475D02*
X146762438Y-73095237D01*
X146762438Y-73095237D02*
X146714819Y-72952380D01*
X146714819Y-72952380D02*
X146714819Y-72857142D01*
X146714819Y-72857142D02*
X146762438Y-72714285D01*
X146762438Y-72714285D02*
X146810057Y-72666666D01*
X147143390Y-72095237D02*
X147095771Y-72190475D01*
X147095771Y-72190475D02*
X147048152Y-72238094D01*
X147048152Y-72238094D02*
X146952914Y-72285713D01*
X146952914Y-72285713D02*
X146905295Y-72285713D01*
X146905295Y-72285713D02*
X146810057Y-72238094D01*
X146810057Y-72238094D02*
X146762438Y-72190475D01*
X146762438Y-72190475D02*
X146714819Y-72095237D01*
X146714819Y-72095237D02*
X146714819Y-71904761D01*
X146714819Y-71904761D02*
X146762438Y-71809523D01*
X146762438Y-71809523D02*
X146810057Y-71761904D01*
X146810057Y-71761904D02*
X146905295Y-71714285D01*
X146905295Y-71714285D02*
X146952914Y-71714285D01*
X146952914Y-71714285D02*
X147048152Y-71761904D01*
X147048152Y-71761904D02*
X147095771Y-71809523D01*
X147095771Y-71809523D02*
X147143390Y-71904761D01*
X147143390Y-71904761D02*
X147143390Y-72095237D01*
X147143390Y-72095237D02*
X147191009Y-72190475D01*
X147191009Y-72190475D02*
X147238628Y-72238094D01*
X147238628Y-72238094D02*
X147333866Y-72285713D01*
X147333866Y-72285713D02*
X147524342Y-72285713D01*
X147524342Y-72285713D02*
X147619580Y-72238094D01*
X147619580Y-72238094D02*
X147667200Y-72190475D01*
X147667200Y-72190475D02*
X147714819Y-72095237D01*
X147714819Y-72095237D02*
X147714819Y-71904761D01*
X147714819Y-71904761D02*
X147667200Y-71809523D01*
X147667200Y-71809523D02*
X147619580Y-71761904D01*
X147619580Y-71761904D02*
X147524342Y-71714285D01*
X147524342Y-71714285D02*
X147333866Y-71714285D01*
X147333866Y-71714285D02*
X147238628Y-71761904D01*
X147238628Y-71761904D02*
X147191009Y-71809523D01*
X147191009Y-71809523D02*
X147143390Y-71904761D01*
X126639580Y-73492857D02*
X126687200Y-73540476D01*
X126687200Y-73540476D02*
X126734819Y-73683333D01*
X126734819Y-73683333D02*
X126734819Y-73778571D01*
X126734819Y-73778571D02*
X126687200Y-73921428D01*
X126687200Y-73921428D02*
X126591961Y-74016666D01*
X126591961Y-74016666D02*
X126496723Y-74064285D01*
X126496723Y-74064285D02*
X126306247Y-74111904D01*
X126306247Y-74111904D02*
X126163390Y-74111904D01*
X126163390Y-74111904D02*
X125972914Y-74064285D01*
X125972914Y-74064285D02*
X125877676Y-74016666D01*
X125877676Y-74016666D02*
X125782438Y-73921428D01*
X125782438Y-73921428D02*
X125734819Y-73778571D01*
X125734819Y-73778571D02*
X125734819Y-73683333D01*
X125734819Y-73683333D02*
X125782438Y-73540476D01*
X125782438Y-73540476D02*
X125830057Y-73492857D01*
X126734819Y-72540476D02*
X126734819Y-73111904D01*
X126734819Y-72826190D02*
X125734819Y-72826190D01*
X125734819Y-72826190D02*
X125877676Y-72921428D01*
X125877676Y-72921428D02*
X125972914Y-73016666D01*
X125972914Y-73016666D02*
X126020533Y-73111904D01*
X125734819Y-71635714D02*
X125734819Y-72111904D01*
X125734819Y-72111904D02*
X126211009Y-72159523D01*
X126211009Y-72159523D02*
X126163390Y-72111904D01*
X126163390Y-72111904D02*
X126115771Y-72016666D01*
X126115771Y-72016666D02*
X126115771Y-71778571D01*
X126115771Y-71778571D02*
X126163390Y-71683333D01*
X126163390Y-71683333D02*
X126211009Y-71635714D01*
X126211009Y-71635714D02*
X126306247Y-71588095D01*
X126306247Y-71588095D02*
X126544342Y-71588095D01*
X126544342Y-71588095D02*
X126639580Y-71635714D01*
X126639580Y-71635714D02*
X126687200Y-71683333D01*
X126687200Y-71683333D02*
X126734819Y-71778571D01*
X126734819Y-71778571D02*
X126734819Y-72016666D01*
X126734819Y-72016666D02*
X126687200Y-72111904D01*
X126687200Y-72111904D02*
X126639580Y-72159523D01*
X147665987Y-81125731D02*
X147600938Y-81143160D01*
X147600938Y-81143160D02*
X147453411Y-81112971D01*
X147453411Y-81112971D02*
X147370932Y-81065352D01*
X147370932Y-81065352D02*
X147271024Y-80952684D01*
X147271024Y-80952684D02*
X147236164Y-80822587D01*
X147236164Y-80822587D02*
X147242544Y-80716298D01*
X147242544Y-80716298D02*
X147296543Y-80527532D01*
X147296543Y-80527532D02*
X147367971Y-80403814D01*
X147367971Y-80403814D02*
X147504449Y-80262666D01*
X147504449Y-80262666D02*
X147593307Y-80203997D01*
X147593307Y-80203997D02*
X147723405Y-80169137D01*
X147723405Y-80169137D02*
X147870932Y-80199327D01*
X147870932Y-80199327D02*
X147953411Y-80246946D01*
X147953411Y-80246946D02*
X148053319Y-80359614D01*
X148053319Y-80359614D02*
X148070749Y-80424662D01*
X148860675Y-80770755D02*
X148695718Y-80675517D01*
X148695718Y-80675517D02*
X148589430Y-80669137D01*
X148589430Y-80669137D02*
X148524381Y-80686567D01*
X148524381Y-80686567D02*
X148370474Y-80762666D01*
X148370474Y-80762666D02*
X148233997Y-80903814D01*
X148233997Y-80903814D02*
X148043520Y-81233728D01*
X148043520Y-81233728D02*
X148037141Y-81340016D01*
X148037141Y-81340016D02*
X148054570Y-81405065D01*
X148054570Y-81405065D02*
X148113239Y-81493924D01*
X148113239Y-81493924D02*
X148278197Y-81589162D01*
X148278197Y-81589162D02*
X148384485Y-81595541D01*
X148384485Y-81595541D02*
X148449534Y-81578112D01*
X148449534Y-81578112D02*
X148538392Y-81519443D01*
X148538392Y-81519443D02*
X148657440Y-81313246D01*
X148657440Y-81313246D02*
X148663819Y-81206958D01*
X148663819Y-81206958D02*
X148646390Y-81141909D01*
X148646390Y-81141909D02*
X148587721Y-81053051D01*
X148587721Y-81053051D02*
X148422763Y-80957813D01*
X148422763Y-80957813D02*
X148316475Y-80951433D01*
X148316475Y-80951433D02*
X148251426Y-80968863D01*
X148251426Y-80968863D02*
X148162568Y-81027532D01*
X157738915Y-98068440D02*
X157381772Y-98687030D01*
X157381772Y-98687030D02*
X157269104Y-98786938D01*
X157269104Y-98786938D02*
X157139006Y-98821798D01*
X157139006Y-98821798D02*
X156991479Y-98791608D01*
X156991479Y-98791608D02*
X156909000Y-98743989D01*
X158068829Y-98258917D02*
X158604940Y-98568440D01*
X158604940Y-98568440D02*
X158125789Y-98731688D01*
X158125789Y-98731688D02*
X158249507Y-98803117D01*
X158249507Y-98803117D02*
X158308176Y-98891975D01*
X158308176Y-98891975D02*
X158325606Y-98957024D01*
X158325606Y-98957024D02*
X158319226Y-99063312D01*
X158319226Y-99063312D02*
X158200178Y-99269509D01*
X158200178Y-99269509D02*
X158111320Y-99328178D01*
X158111320Y-99328178D02*
X158046271Y-99345607D01*
X158046271Y-99345607D02*
X157939983Y-99339228D01*
X157939983Y-99339228D02*
X157692547Y-99196370D01*
X157692547Y-99196370D02*
X157633878Y-99107512D01*
X157633878Y-99107512D02*
X157616448Y-99042463D01*
X130117142Y-65859580D02*
X130069523Y-65907200D01*
X130069523Y-65907200D02*
X129926666Y-65954819D01*
X129926666Y-65954819D02*
X129831428Y-65954819D01*
X129831428Y-65954819D02*
X129688571Y-65907200D01*
X129688571Y-65907200D02*
X129593333Y-65811961D01*
X129593333Y-65811961D02*
X129545714Y-65716723D01*
X129545714Y-65716723D02*
X129498095Y-65526247D01*
X129498095Y-65526247D02*
X129498095Y-65383390D01*
X129498095Y-65383390D02*
X129545714Y-65192914D01*
X129545714Y-65192914D02*
X129593333Y-65097676D01*
X129593333Y-65097676D02*
X129688571Y-65002438D01*
X129688571Y-65002438D02*
X129831428Y-64954819D01*
X129831428Y-64954819D02*
X129926666Y-64954819D01*
X129926666Y-64954819D02*
X130069523Y-65002438D01*
X130069523Y-65002438D02*
X130117142Y-65050057D01*
X131069523Y-65954819D02*
X130498095Y-65954819D01*
X130783809Y-65954819D02*
X130783809Y-64954819D01*
X130783809Y-64954819D02*
X130688571Y-65097676D01*
X130688571Y-65097676D02*
X130593333Y-65192914D01*
X130593333Y-65192914D02*
X130498095Y-65240533D01*
X131402857Y-64954819D02*
X132021904Y-64954819D01*
X132021904Y-64954819D02*
X131688571Y-65335771D01*
X131688571Y-65335771D02*
X131831428Y-65335771D01*
X131831428Y-65335771D02*
X131926666Y-65383390D01*
X131926666Y-65383390D02*
X131974285Y-65431009D01*
X131974285Y-65431009D02*
X132021904Y-65526247D01*
X132021904Y-65526247D02*
X132021904Y-65764342D01*
X132021904Y-65764342D02*
X131974285Y-65859580D01*
X131974285Y-65859580D02*
X131926666Y-65907200D01*
X131926666Y-65907200D02*
X131831428Y-65954819D01*
X131831428Y-65954819D02*
X131545714Y-65954819D01*
X131545714Y-65954819D02*
X131450476Y-65907200D01*
X131450476Y-65907200D02*
X131402857Y-65859580D01*
X145289580Y-59829166D02*
X145337200Y-59876785D01*
X145337200Y-59876785D02*
X145384819Y-60019642D01*
X145384819Y-60019642D02*
X145384819Y-60114880D01*
X145384819Y-60114880D02*
X145337200Y-60257737D01*
X145337200Y-60257737D02*
X145241961Y-60352975D01*
X145241961Y-60352975D02*
X145146723Y-60400594D01*
X145146723Y-60400594D02*
X144956247Y-60448213D01*
X144956247Y-60448213D02*
X144813390Y-60448213D01*
X144813390Y-60448213D02*
X144622914Y-60400594D01*
X144622914Y-60400594D02*
X144527676Y-60352975D01*
X144527676Y-60352975D02*
X144432438Y-60257737D01*
X144432438Y-60257737D02*
X144384819Y-60114880D01*
X144384819Y-60114880D02*
X144384819Y-60019642D01*
X144384819Y-60019642D02*
X144432438Y-59876785D01*
X144432438Y-59876785D02*
X144480057Y-59829166D01*
X145384819Y-59352975D02*
X145384819Y-59162499D01*
X145384819Y-59162499D02*
X145337200Y-59067261D01*
X145337200Y-59067261D02*
X145289580Y-59019642D01*
X145289580Y-59019642D02*
X145146723Y-58924404D01*
X145146723Y-58924404D02*
X144956247Y-58876785D01*
X144956247Y-58876785D02*
X144575295Y-58876785D01*
X144575295Y-58876785D02*
X144480057Y-58924404D01*
X144480057Y-58924404D02*
X144432438Y-58972023D01*
X144432438Y-58972023D02*
X144384819Y-59067261D01*
X144384819Y-59067261D02*
X144384819Y-59257737D01*
X144384819Y-59257737D02*
X144432438Y-59352975D01*
X144432438Y-59352975D02*
X144480057Y-59400594D01*
X144480057Y-59400594D02*
X144575295Y-59448213D01*
X144575295Y-59448213D02*
X144813390Y-59448213D01*
X144813390Y-59448213D02*
X144908628Y-59400594D01*
X144908628Y-59400594D02*
X144956247Y-59352975D01*
X144956247Y-59352975D02*
X145003866Y-59257737D01*
X145003866Y-59257737D02*
X145003866Y-59067261D01*
X145003866Y-59067261D02*
X144956247Y-58972023D01*
X144956247Y-58972023D02*
X144908628Y-58924404D01*
X144908628Y-58924404D02*
X144813390Y-58876785D01*
X131354642Y-81059580D02*
X131307023Y-81107200D01*
X131307023Y-81107200D02*
X131164166Y-81154819D01*
X131164166Y-81154819D02*
X131068928Y-81154819D01*
X131068928Y-81154819D02*
X130926071Y-81107200D01*
X130926071Y-81107200D02*
X130830833Y-81011961D01*
X130830833Y-81011961D02*
X130783214Y-80916723D01*
X130783214Y-80916723D02*
X130735595Y-80726247D01*
X130735595Y-80726247D02*
X130735595Y-80583390D01*
X130735595Y-80583390D02*
X130783214Y-80392914D01*
X130783214Y-80392914D02*
X130830833Y-80297676D01*
X130830833Y-80297676D02*
X130926071Y-80202438D01*
X130926071Y-80202438D02*
X131068928Y-80154819D01*
X131068928Y-80154819D02*
X131164166Y-80154819D01*
X131164166Y-80154819D02*
X131307023Y-80202438D01*
X131307023Y-80202438D02*
X131354642Y-80250057D01*
X132307023Y-81154819D02*
X131735595Y-81154819D01*
X132021309Y-81154819D02*
X132021309Y-80154819D01*
X132021309Y-80154819D02*
X131926071Y-80297676D01*
X131926071Y-80297676D02*
X131830833Y-80392914D01*
X131830833Y-80392914D02*
X131735595Y-80440533D01*
X133259404Y-81154819D02*
X132687976Y-81154819D01*
X132973690Y-81154819D02*
X132973690Y-80154819D01*
X132973690Y-80154819D02*
X132878452Y-80297676D01*
X132878452Y-80297676D02*
X132783214Y-80392914D01*
X132783214Y-80392914D02*
X132687976Y-80440533D01*
X122668915Y-60262893D02*
X122311772Y-60881483D01*
X122311772Y-60881483D02*
X122199104Y-60981391D01*
X122199104Y-60981391D02*
X122069006Y-61016251D01*
X122069006Y-61016251D02*
X121921479Y-60986061D01*
X121921479Y-60986061D02*
X121839000Y-60938442D01*
X123452462Y-60715274D02*
X123287504Y-60620036D01*
X123287504Y-60620036D02*
X123181216Y-60613656D01*
X123181216Y-60613656D02*
X123116168Y-60631086D01*
X123116168Y-60631086D02*
X122962260Y-60707185D01*
X122962260Y-60707185D02*
X122825783Y-60848333D01*
X122825783Y-60848333D02*
X122635307Y-61178247D01*
X122635307Y-61178247D02*
X122628927Y-61284535D01*
X122628927Y-61284535D02*
X122646357Y-61349584D01*
X122646357Y-61349584D02*
X122705026Y-61438443D01*
X122705026Y-61438443D02*
X122869983Y-61533681D01*
X122869983Y-61533681D02*
X122976271Y-61540060D01*
X122976271Y-61540060D02*
X123041320Y-61522631D01*
X123041320Y-61522631D02*
X123130178Y-61463962D01*
X123130178Y-61463962D02*
X123249226Y-61257765D01*
X123249226Y-61257765D02*
X123255606Y-61151477D01*
X123255606Y-61151477D02*
X123238176Y-61086428D01*
X123238176Y-61086428D02*
X123179507Y-60997570D01*
X123179507Y-60997570D02*
X123014550Y-60902332D01*
X123014550Y-60902332D02*
X122908262Y-60895952D01*
X122908262Y-60895952D02*
X122843213Y-60913382D01*
X122843213Y-60913382D02*
X122754354Y-60972051D01*
X162543333Y-85559580D02*
X162495714Y-85607200D01*
X162495714Y-85607200D02*
X162352857Y-85654819D01*
X162352857Y-85654819D02*
X162257619Y-85654819D01*
X162257619Y-85654819D02*
X162114762Y-85607200D01*
X162114762Y-85607200D02*
X162019524Y-85511961D01*
X162019524Y-85511961D02*
X161971905Y-85416723D01*
X161971905Y-85416723D02*
X161924286Y-85226247D01*
X161924286Y-85226247D02*
X161924286Y-85083390D01*
X161924286Y-85083390D02*
X161971905Y-84892914D01*
X161971905Y-84892914D02*
X162019524Y-84797676D01*
X162019524Y-84797676D02*
X162114762Y-84702438D01*
X162114762Y-84702438D02*
X162257619Y-84654819D01*
X162257619Y-84654819D02*
X162352857Y-84654819D01*
X162352857Y-84654819D02*
X162495714Y-84702438D01*
X162495714Y-84702438D02*
X162543333Y-84750057D01*
X163448095Y-84654819D02*
X162971905Y-84654819D01*
X162971905Y-84654819D02*
X162924286Y-85131009D01*
X162924286Y-85131009D02*
X162971905Y-85083390D01*
X162971905Y-85083390D02*
X163067143Y-85035771D01*
X163067143Y-85035771D02*
X163305238Y-85035771D01*
X163305238Y-85035771D02*
X163400476Y-85083390D01*
X163400476Y-85083390D02*
X163448095Y-85131009D01*
X163448095Y-85131009D02*
X163495714Y-85226247D01*
X163495714Y-85226247D02*
X163495714Y-85464342D01*
X163495714Y-85464342D02*
X163448095Y-85559580D01*
X163448095Y-85559580D02*
X163400476Y-85607200D01*
X163400476Y-85607200D02*
X163305238Y-85654819D01*
X163305238Y-85654819D02*
X163067143Y-85654819D01*
X163067143Y-85654819D02*
X162971905Y-85607200D01*
X162971905Y-85607200D02*
X162924286Y-85559580D01*
X148193333Y-101222080D02*
X148145714Y-101269700D01*
X148145714Y-101269700D02*
X148002857Y-101317319D01*
X148002857Y-101317319D02*
X147907619Y-101317319D01*
X147907619Y-101317319D02*
X147764762Y-101269700D01*
X147764762Y-101269700D02*
X147669524Y-101174461D01*
X147669524Y-101174461D02*
X147621905Y-101079223D01*
X147621905Y-101079223D02*
X147574286Y-100888747D01*
X147574286Y-100888747D02*
X147574286Y-100745890D01*
X147574286Y-100745890D02*
X147621905Y-100555414D01*
X147621905Y-100555414D02*
X147669524Y-100460176D01*
X147669524Y-100460176D02*
X147764762Y-100364938D01*
X147764762Y-100364938D02*
X147907619Y-100317319D01*
X147907619Y-100317319D02*
X148002857Y-100317319D01*
X148002857Y-100317319D02*
X148145714Y-100364938D01*
X148145714Y-100364938D02*
X148193333Y-100412557D01*
X149145714Y-101317319D02*
X148574286Y-101317319D01*
X148860000Y-101317319D02*
X148860000Y-100317319D01*
X148860000Y-100317319D02*
X148764762Y-100460176D01*
X148764762Y-100460176D02*
X148669524Y-100555414D01*
X148669524Y-100555414D02*
X148574286Y-100603033D01*
X164787083Y-74169344D02*
X165144226Y-74787933D01*
X165144226Y-74787933D02*
X165174415Y-74935461D01*
X165174415Y-74935461D02*
X165139555Y-75065558D01*
X165139555Y-75065558D02*
X165039647Y-75178226D01*
X165039647Y-75178226D02*
X164957168Y-75225845D01*
X165737296Y-74005638D02*
X166070630Y-74582988D01*
X165340624Y-73794771D02*
X165491570Y-74532408D01*
X165491570Y-74532408D02*
X166027681Y-74222884D01*
X139893333Y-77659580D02*
X139845714Y-77707200D01*
X139845714Y-77707200D02*
X139702857Y-77754819D01*
X139702857Y-77754819D02*
X139607619Y-77754819D01*
X139607619Y-77754819D02*
X139464762Y-77707200D01*
X139464762Y-77707200D02*
X139369524Y-77611961D01*
X139369524Y-77611961D02*
X139321905Y-77516723D01*
X139321905Y-77516723D02*
X139274286Y-77326247D01*
X139274286Y-77326247D02*
X139274286Y-77183390D01*
X139274286Y-77183390D02*
X139321905Y-76992914D01*
X139321905Y-76992914D02*
X139369524Y-76897676D01*
X139369524Y-76897676D02*
X139464762Y-76802438D01*
X139464762Y-76802438D02*
X139607619Y-76754819D01*
X139607619Y-76754819D02*
X139702857Y-76754819D01*
X139702857Y-76754819D02*
X139845714Y-76802438D01*
X139845714Y-76802438D02*
X139893333Y-76850057D01*
X140226667Y-76754819D02*
X140893333Y-76754819D01*
X140893333Y-76754819D02*
X140464762Y-77754819D01*
X114493734Y-85577278D02*
X114850877Y-86195867D01*
X114850877Y-86195867D02*
X114881066Y-86343395D01*
X114881066Y-86343395D02*
X114846206Y-86473492D01*
X114846206Y-86473492D02*
X114746298Y-86586160D01*
X114746298Y-86586160D02*
X114663819Y-86633779D01*
X115859759Y-85943303D02*
X115364888Y-86229017D01*
X115612324Y-86086160D02*
X115112324Y-85220135D01*
X115112324Y-85220135D02*
X115101274Y-85391472D01*
X115101274Y-85391472D02*
X115066414Y-85521569D01*
X115066414Y-85521569D02*
X115007745Y-85610428D01*
X161123846Y-77045004D02*
X161058797Y-77027574D01*
X161058797Y-77027574D02*
X160946129Y-76927666D01*
X160946129Y-76927666D02*
X160898510Y-76845187D01*
X160898510Y-76845187D02*
X160868321Y-76697660D01*
X160868321Y-76697660D02*
X160903181Y-76567562D01*
X160903181Y-76567562D02*
X160961850Y-76478704D01*
X160961850Y-76478704D02*
X161102997Y-76342226D01*
X161102997Y-76342226D02*
X161226715Y-76270798D01*
X161226715Y-76270798D02*
X161415482Y-76216799D01*
X161415482Y-76216799D02*
X161521770Y-76210419D01*
X161521770Y-76210419D02*
X161651868Y-76245279D01*
X161651868Y-76245279D02*
X161764536Y-76345187D01*
X161764536Y-76345187D02*
X161812155Y-76427666D01*
X161812155Y-76427666D02*
X161842344Y-76575193D01*
X161842344Y-76575193D02*
X161824914Y-76640242D01*
X162047289Y-77501597D02*
X161469939Y-77834930D01*
X162258156Y-77104924D02*
X161520519Y-77255871D01*
X161520519Y-77255871D02*
X161830043Y-77791982D01*
X147136666Y-54854819D02*
X147136666Y-55569104D01*
X147136666Y-55569104D02*
X147089047Y-55711961D01*
X147089047Y-55711961D02*
X146993809Y-55807200D01*
X146993809Y-55807200D02*
X146850952Y-55854819D01*
X146850952Y-55854819D02*
X146755714Y-55854819D01*
X148089047Y-54854819D02*
X147612857Y-54854819D01*
X147612857Y-54854819D02*
X147565238Y-55331009D01*
X147565238Y-55331009D02*
X147612857Y-55283390D01*
X147612857Y-55283390D02*
X147708095Y-55235771D01*
X147708095Y-55235771D02*
X147946190Y-55235771D01*
X147946190Y-55235771D02*
X148041428Y-55283390D01*
X148041428Y-55283390D02*
X148089047Y-55331009D01*
X148089047Y-55331009D02*
X148136666Y-55426247D01*
X148136666Y-55426247D02*
X148136666Y-55664342D01*
X148136666Y-55664342D02*
X148089047Y-55759580D01*
X148089047Y-55759580D02*
X148041428Y-55807200D01*
X148041428Y-55807200D02*
X147946190Y-55854819D01*
X147946190Y-55854819D02*
X147708095Y-55854819D01*
X147708095Y-55854819D02*
X147612857Y-55807200D01*
X147612857Y-55807200D02*
X147565238Y-55759580D01*
X131798095Y-67954819D02*
X131798095Y-68764342D01*
X131798095Y-68764342D02*
X131845714Y-68859580D01*
X131845714Y-68859580D02*
X131893333Y-68907200D01*
X131893333Y-68907200D02*
X131988571Y-68954819D01*
X131988571Y-68954819D02*
X132179047Y-68954819D01*
X132179047Y-68954819D02*
X132274285Y-68907200D01*
X132274285Y-68907200D02*
X132321904Y-68859580D01*
X132321904Y-68859580D02*
X132369523Y-68764342D01*
X132369523Y-68764342D02*
X132369523Y-67954819D01*
X132798095Y-68050057D02*
X132845714Y-68002438D01*
X132845714Y-68002438D02*
X132940952Y-67954819D01*
X132940952Y-67954819D02*
X133179047Y-67954819D01*
X133179047Y-67954819D02*
X133274285Y-68002438D01*
X133274285Y-68002438D02*
X133321904Y-68050057D01*
X133321904Y-68050057D02*
X133369523Y-68145295D01*
X133369523Y-68145295D02*
X133369523Y-68240533D01*
X133369523Y-68240533D02*
X133321904Y-68383390D01*
X133321904Y-68383390D02*
X132750476Y-68954819D01*
X132750476Y-68954819D02*
X133369523Y-68954819D01*
X123639580Y-73492857D02*
X123687200Y-73540476D01*
X123687200Y-73540476D02*
X123734819Y-73683333D01*
X123734819Y-73683333D02*
X123734819Y-73778571D01*
X123734819Y-73778571D02*
X123687200Y-73921428D01*
X123687200Y-73921428D02*
X123591961Y-74016666D01*
X123591961Y-74016666D02*
X123496723Y-74064285D01*
X123496723Y-74064285D02*
X123306247Y-74111904D01*
X123306247Y-74111904D02*
X123163390Y-74111904D01*
X123163390Y-74111904D02*
X122972914Y-74064285D01*
X122972914Y-74064285D02*
X122877676Y-74016666D01*
X122877676Y-74016666D02*
X122782438Y-73921428D01*
X122782438Y-73921428D02*
X122734819Y-73778571D01*
X122734819Y-73778571D02*
X122734819Y-73683333D01*
X122734819Y-73683333D02*
X122782438Y-73540476D01*
X122782438Y-73540476D02*
X122830057Y-73492857D01*
X123734819Y-72540476D02*
X123734819Y-73111904D01*
X123734819Y-72826190D02*
X122734819Y-72826190D01*
X122734819Y-72826190D02*
X122877676Y-72921428D01*
X122877676Y-72921428D02*
X122972914Y-73016666D01*
X122972914Y-73016666D02*
X123020533Y-73111904D01*
X123068152Y-71683333D02*
X123734819Y-71683333D01*
X122687200Y-71921428D02*
X123401485Y-72159523D01*
X123401485Y-72159523D02*
X123401485Y-71540476D01*
X127992142Y-89759580D02*
X127944523Y-89807200D01*
X127944523Y-89807200D02*
X127801666Y-89854819D01*
X127801666Y-89854819D02*
X127706428Y-89854819D01*
X127706428Y-89854819D02*
X127563571Y-89807200D01*
X127563571Y-89807200D02*
X127468333Y-89711961D01*
X127468333Y-89711961D02*
X127420714Y-89616723D01*
X127420714Y-89616723D02*
X127373095Y-89426247D01*
X127373095Y-89426247D02*
X127373095Y-89283390D01*
X127373095Y-89283390D02*
X127420714Y-89092914D01*
X127420714Y-89092914D02*
X127468333Y-88997676D01*
X127468333Y-88997676D02*
X127563571Y-88902438D01*
X127563571Y-88902438D02*
X127706428Y-88854819D01*
X127706428Y-88854819D02*
X127801666Y-88854819D01*
X127801666Y-88854819D02*
X127944523Y-88902438D01*
X127944523Y-88902438D02*
X127992142Y-88950057D01*
X128944523Y-89854819D02*
X128373095Y-89854819D01*
X128658809Y-89854819D02*
X128658809Y-88854819D01*
X128658809Y-88854819D02*
X128563571Y-88997676D01*
X128563571Y-88997676D02*
X128468333Y-89092914D01*
X128468333Y-89092914D02*
X128373095Y-89140533D01*
X129563571Y-88854819D02*
X129658809Y-88854819D01*
X129658809Y-88854819D02*
X129754047Y-88902438D01*
X129754047Y-88902438D02*
X129801666Y-88950057D01*
X129801666Y-88950057D02*
X129849285Y-89045295D01*
X129849285Y-89045295D02*
X129896904Y-89235771D01*
X129896904Y-89235771D02*
X129896904Y-89473866D01*
X129896904Y-89473866D02*
X129849285Y-89664342D01*
X129849285Y-89664342D02*
X129801666Y-89759580D01*
X129801666Y-89759580D02*
X129754047Y-89807200D01*
X129754047Y-89807200D02*
X129658809Y-89854819D01*
X129658809Y-89854819D02*
X129563571Y-89854819D01*
X129563571Y-89854819D02*
X129468333Y-89807200D01*
X129468333Y-89807200D02*
X129420714Y-89759580D01*
X129420714Y-89759580D02*
X129373095Y-89664342D01*
X129373095Y-89664342D02*
X129325476Y-89473866D01*
X129325476Y-89473866D02*
X129325476Y-89235771D01*
X129325476Y-89235771D02*
X129373095Y-89045295D01*
X129373095Y-89045295D02*
X129420714Y-88950057D01*
X129420714Y-88950057D02*
X129468333Y-88902438D01*
X129468333Y-88902438D02*
X129563571Y-88854819D01*
D13*
%TO.C,C2*%
X148750000Y-94183767D02*
X148750000Y-93891233D01*
X149770000Y-94183767D02*
X149770000Y-93891233D01*
%TO.C,C12*%
X128943767Y-79310002D02*
X128651232Y-79310001D01*
X128943768Y-78290001D02*
X128651233Y-78290000D01*
%TO.C,C3*%
X155750000Y-81408767D02*
X155750000Y-81116233D01*
X156770000Y-81408767D02*
X156770000Y-81116233D01*
%TO.C,J2*%
X133650000Y-103270000D02*
X134980000Y-103270000D01*
X133650000Y-104600000D02*
X133650000Y-103270000D01*
X136250000Y-103270000D02*
X146470000Y-103270000D01*
X136250000Y-105930000D02*
X136250000Y-103270000D01*
X136250000Y-105930000D02*
X146470000Y-105930000D01*
X146470000Y-105930000D02*
X146470000Y-103270000D01*
%TO.C,R1*%
X127187500Y-68095276D02*
X127187500Y-68604724D01*
X128232500Y-68095276D02*
X128232500Y-68604724D01*
%TO.C,C8*%
X146750001Y-69283767D02*
X146750000Y-68991234D01*
X147770000Y-69283766D02*
X147769999Y-68991233D01*
%TO.C,C15*%
X127200000Y-72996267D02*
X127200000Y-72703733D01*
X128220000Y-72996267D02*
X128220000Y-72703733D01*
%TO.C,C6*%
X149925276Y-82699789D02*
X150178618Y-82846056D01*
X150435276Y-81816444D02*
X150688618Y-81962711D01*
%TO.C,J3*%
X158403186Y-94924557D02*
X163513186Y-86073777D01*
X159406814Y-98506223D02*
X158255000Y-97841223D01*
X160071814Y-97354409D02*
X159406814Y-98506223D01*
X160706814Y-96254557D02*
X158403186Y-94924557D01*
X160706814Y-96254557D02*
X165816814Y-87403777D01*
X165816814Y-87403777D02*
X163513186Y-86073777D01*
%TO.C,C13*%
X127668766Y-64890001D02*
X127376233Y-64890002D01*
X127668767Y-65910000D02*
X127376234Y-65910001D01*
%TO.C,C9*%
X145850000Y-59808767D02*
X145850000Y-59516233D01*
X146870000Y-59808767D02*
X146870000Y-59516233D01*
%TO.C,C11*%
X128906267Y-80490000D02*
X128613733Y-80490000D01*
X128906267Y-81510000D02*
X128613733Y-81510000D01*
%TO.C,J6*%
X114403186Y-72586223D02*
X116706814Y-73916223D01*
X119513186Y-63735443D02*
X114403186Y-72586223D01*
X119513186Y-63735443D02*
X121816814Y-65065443D01*
X121816814Y-65065443D02*
X116706814Y-73916223D01*
X121965000Y-62148777D02*
X123116814Y-62813777D01*
X123116814Y-62813777D02*
X122451814Y-63965591D01*
%TO.C,C5*%
X160243766Y-84690000D02*
X159951233Y-84690001D01*
X160243767Y-85709999D02*
X159951234Y-85710000D01*
%TO.C,C1*%
X145950000Y-101008767D02*
X145950000Y-100716233D01*
X146970000Y-101008767D02*
X146970000Y-100716233D01*
D14*
%TO.C,G\u002A\u002A\u002A*%
G36*
X132490576Y-91228035D02*
G01*
X132357229Y-91228035D01*
X132357229Y-91105355D01*
X132490576Y-91105355D01*
X132490576Y-91228035D01*
G37*
G36*
X132490576Y-91846767D02*
G01*
X132357229Y-91846767D01*
X132357229Y-91324045D01*
X132490576Y-91324045D01*
X132490576Y-91846767D01*
G37*
G36*
X133389337Y-90155922D02*
G01*
X133605360Y-90155922D01*
X133605359Y-90286603D01*
X133389337Y-90286603D01*
X133389337Y-90678645D01*
X133253323Y-90678644D01*
X133253323Y-90286603D01*
X133093306Y-90286603D01*
X133093306Y-90155923D01*
X133253323Y-90155922D01*
X133253323Y-89987905D01*
X133389337Y-89987905D01*
X133389337Y-90155922D01*
G37*
G36*
X133019965Y-90759986D02*
G01*
X133013704Y-90778654D01*
X133004511Y-90802069D01*
X132993548Y-90821883D01*
X132979803Y-90839776D01*
X132971674Y-90848424D01*
X132960068Y-90859356D01*
X132949037Y-90867788D01*
X132936375Y-90875283D01*
X132927440Y-90879806D01*
X132918328Y-90884172D01*
X132910074Y-90887858D01*
X132902136Y-90890917D01*
X132893976Y-90893410D01*
X132885050Y-90895395D01*
X132874823Y-90896930D01*
X132862751Y-90898072D01*
X132848295Y-90898881D01*
X132830916Y-90899415D01*
X132810072Y-90899731D01*
X132785223Y-90899889D01*
X132755830Y-90899946D01*
X132740602Y-90899954D01*
X132615922Y-90900000D01*
X132615922Y-90766653D01*
X132739269Y-90766643D01*
X132768232Y-90766630D01*
X132792344Y-90766585D01*
X132812088Y-90766488D01*
X132827948Y-90766321D01*
X132840406Y-90766067D01*
X132849946Y-90765706D01*
X132857049Y-90765221D01*
X132862201Y-90764592D01*
X132865883Y-90763801D01*
X132868578Y-90762830D01*
X132870770Y-90761660D01*
X132870829Y-90761623D01*
X132873461Y-90760113D01*
X132875808Y-90758772D01*
X132877888Y-90757304D01*
X132879717Y-90755412D01*
X132881311Y-90752803D01*
X132882686Y-90749179D01*
X132883857Y-90744243D01*
X132884842Y-90737701D01*
X132885657Y-90729255D01*
X132886317Y-90718610D01*
X132886838Y-90705470D01*
X132887235Y-90689538D01*
X132887529Y-90670519D01*
X132887732Y-90648117D01*
X132887859Y-90622035D01*
X132887929Y-90591979D01*
X132887958Y-90557649D01*
X132887959Y-90518752D01*
X132887953Y-90474991D01*
X132887951Y-90446883D01*
X132887951Y-90155922D01*
X133021451Y-90155922D01*
X133019965Y-90759986D01*
G37*
G36*
X132575922Y-90335275D02*
G01*
X132575920Y-90371724D01*
X132575933Y-90403226D01*
X132575994Y-90430165D01*
X132576133Y-90452927D01*
X132576383Y-90471896D01*
X132576776Y-90487461D01*
X132577346Y-90500006D01*
X132578122Y-90509914D01*
X132579137Y-90517576D01*
X132580423Y-90523373D01*
X132582013Y-90527691D01*
X132583937Y-90530919D01*
X132586229Y-90533439D01*
X132588919Y-90535638D01*
X132592041Y-90537902D01*
X132592779Y-90538440D01*
X132594690Y-90539731D01*
X132596912Y-90540807D01*
X132599925Y-90541692D01*
X132604210Y-90542409D01*
X132610245Y-90542981D01*
X132618513Y-90543430D01*
X132629490Y-90543780D01*
X132643660Y-90544052D01*
X132661501Y-90544272D01*
X132683495Y-90544461D01*
X132710119Y-90544643D01*
X132724126Y-90544731D01*
X132847947Y-90545498D01*
X132847947Y-90678644D01*
X132727267Y-90678330D01*
X132701920Y-90678219D01*
X132677828Y-90678027D01*
X132655599Y-90677765D01*
X132635838Y-90677444D01*
X132619153Y-90677076D01*
X132606148Y-90676670D01*
X132597432Y-90676238D01*
X132594136Y-90675915D01*
X132562625Y-90668228D01*
X132534112Y-90656398D01*
X132508852Y-90640603D01*
X132487103Y-90621030D01*
X132469119Y-90597851D01*
X132459748Y-90581300D01*
X132456589Y-90574794D01*
X132453843Y-90568632D01*
X132451480Y-90562404D01*
X132449474Y-90555702D01*
X132447794Y-90548118D01*
X132446408Y-90539243D01*
X132445295Y-90528669D01*
X132444419Y-90515984D01*
X132443754Y-90500782D01*
X132443271Y-90482654D01*
X132442941Y-90461191D01*
X132442735Y-90435983D01*
X132442624Y-90406623D01*
X132442579Y-90372702D01*
X132442571Y-90338374D01*
X132442571Y-90155922D01*
X132575918Y-90155922D01*
X132575922Y-90335275D01*
G37*
G36*
X134939054Y-91377255D02*
G01*
X134970601Y-91384350D01*
X134999684Y-91395773D01*
X135026057Y-91411079D01*
X135049465Y-91429819D01*
X135069663Y-91451548D01*
X135086399Y-91475817D01*
X135099425Y-91502182D01*
X135108492Y-91530191D01*
X135113350Y-91559401D01*
X135113750Y-91589364D01*
X135109442Y-91619632D01*
X135100178Y-91649760D01*
X135096220Y-91659092D01*
X135080553Y-91687438D01*
X135060991Y-91712469D01*
X135038015Y-91733875D01*
X135012109Y-91751344D01*
X134983755Y-91764569D01*
X134953436Y-91773239D01*
X134921635Y-91777047D01*
X134912163Y-91777195D01*
X134898701Y-91776704D01*
X134885070Y-91775562D01*
X134873640Y-91773989D01*
X134870826Y-91773427D01*
X134840157Y-91763973D01*
X134811526Y-91749983D01*
X134785501Y-91731907D01*
X134762650Y-91710198D01*
X134743544Y-91685304D01*
X134730986Y-91662652D01*
X134721165Y-91638061D01*
X134715195Y-91613864D01*
X134712732Y-91588272D01*
X134712878Y-91573593D01*
X134821721Y-91573593D01*
X134822793Y-91593682D01*
X134825501Y-91605591D01*
X134833321Y-91622828D01*
X134845307Y-91638721D01*
X134860296Y-91652097D01*
X134877122Y-91661787D01*
X134883884Y-91664299D01*
X134900128Y-91667384D01*
X134918423Y-91667671D01*
X134936326Y-91665235D01*
X134946067Y-91662422D01*
X134956740Y-91657511D01*
X134966831Y-91650441D01*
X134978000Y-91640062D01*
X134986688Y-91630815D01*
X134992488Y-91623115D01*
X134996580Y-91615064D01*
X135000147Y-91604760D01*
X135000351Y-91604089D01*
X135004595Y-91583065D01*
X135003928Y-91563189D01*
X134998258Y-91543358D01*
X134994814Y-91535688D01*
X134983361Y-91517848D01*
X134968803Y-91503787D01*
X134951878Y-91493582D01*
X134933321Y-91487312D01*
X134913871Y-91485053D01*
X134894263Y-91486885D01*
X134875234Y-91492883D01*
X134857521Y-91503127D01*
X134841859Y-91517694D01*
X134840434Y-91519394D01*
X134830791Y-91535014D01*
X134824470Y-91553558D01*
X134821721Y-91573593D01*
X134712878Y-91573593D01*
X134712932Y-91568153D01*
X134714592Y-91546287D01*
X134717682Y-91527776D01*
X134722675Y-91510728D01*
X134730046Y-91493251D01*
X134733408Y-91486419D01*
X134750030Y-91459209D01*
X134770356Y-91435293D01*
X134793838Y-91414963D01*
X134819927Y-91398510D01*
X134848071Y-91386225D01*
X134877722Y-91378400D01*
X134908332Y-91375328D01*
X134939054Y-91377255D01*
G37*
G36*
X132858427Y-91324047D02*
G01*
X132894094Y-91324058D01*
X132925120Y-91324086D01*
X132951847Y-91324138D01*
X132974622Y-91324223D01*
X132993788Y-91324349D01*
X133009692Y-91324522D01*
X133022678Y-91324752D01*
X133033094Y-91325046D01*
X133041282Y-91325411D01*
X133047589Y-91325856D01*
X133052360Y-91326388D01*
X133055939Y-91327016D01*
X133058673Y-91327746D01*
X133060905Y-91328587D01*
X133062985Y-91329548D01*
X133063120Y-91329613D01*
X133077457Y-91339281D01*
X133088667Y-91352315D01*
X133096378Y-91367675D01*
X133100222Y-91384319D01*
X133099827Y-91401209D01*
X133094823Y-91417303D01*
X133094524Y-91417911D01*
X133091965Y-91421184D01*
X133085926Y-91427905D01*
X133076712Y-91437764D01*
X133064626Y-91450447D01*
X133049971Y-91465641D01*
X133033049Y-91483036D01*
X133014164Y-91502315D01*
X132993620Y-91523170D01*
X132971718Y-91545285D01*
X132948761Y-91568349D01*
X132947043Y-91570071D01*
X132803961Y-91713419D01*
X133095973Y-91713419D01*
X133095973Y-91846767D01*
X132865949Y-91846526D01*
X132830085Y-91846461D01*
X132795923Y-91846344D01*
X132763839Y-91846182D01*
X132734214Y-91845977D01*
X132707425Y-91845733D01*
X132683851Y-91845456D01*
X132663872Y-91845148D01*
X132647864Y-91844815D01*
X132636209Y-91844461D01*
X132629283Y-91844089D01*
X132627563Y-91843862D01*
X132611462Y-91836657D01*
X132598019Y-91825666D01*
X132587690Y-91811810D01*
X132580934Y-91796007D01*
X132578212Y-91779176D01*
X132579981Y-91762237D01*
X132582696Y-91754005D01*
X132585195Y-91750263D01*
X132590871Y-91743497D01*
X132599807Y-91733621D01*
X132612084Y-91720551D01*
X132627783Y-91704203D01*
X132646984Y-91684493D01*
X132669769Y-91661335D01*
X132696219Y-91634646D01*
X132726415Y-91604341D01*
X132729379Y-91601374D01*
X132752208Y-91578497D01*
X132773907Y-91556702D01*
X132794186Y-91536285D01*
X132812754Y-91517541D01*
X132829319Y-91500766D01*
X132843591Y-91486254D01*
X132855279Y-91474300D01*
X132864092Y-91465200D01*
X132869740Y-91459249D01*
X132871931Y-91456742D01*
X132871949Y-91456693D01*
X132869363Y-91456322D01*
X132861929Y-91455973D01*
X132850133Y-91455655D01*
X132834461Y-91455372D01*
X132815398Y-91455132D01*
X132793431Y-91454942D01*
X132769046Y-91454808D01*
X132742728Y-91454735D01*
X132727934Y-91454725D01*
X132583920Y-91454725D01*
X132583919Y-91324045D01*
X132817768Y-91324045D01*
X132858427Y-91324047D01*
G37*
G36*
X132218547Y-91454725D02*
G01*
X132061864Y-91454991D01*
X132033263Y-91455070D01*
X132006123Y-91455205D01*
X131980936Y-91455388D01*
X131958196Y-91455613D01*
X131938394Y-91455875D01*
X131922022Y-91456166D01*
X131909574Y-91456480D01*
X131901542Y-91456811D01*
X131898538Y-91457106D01*
X131892164Y-91461370D01*
X131888640Y-91468842D01*
X131888601Y-91477878D01*
X131889393Y-91480728D01*
X131891969Y-91488062D01*
X132013254Y-91489610D01*
X132042884Y-91490013D01*
X132067686Y-91490415D01*
X132088160Y-91490838D01*
X132104809Y-91491304D01*
X132118138Y-91491836D01*
X132128649Y-91492455D01*
X132136847Y-91493183D01*
X132143233Y-91494043D01*
X132148311Y-91495056D01*
X132150539Y-91495633D01*
X132178214Y-91505929D01*
X132203454Y-91520436D01*
X132225651Y-91538660D01*
X132244199Y-91560107D01*
X132257748Y-91582739D01*
X132267634Y-91605634D01*
X132274008Y-91627081D01*
X132277354Y-91649168D01*
X132278179Y-91670748D01*
X132277046Y-91694817D01*
X132273437Y-91716071D01*
X132266869Y-91736643D01*
X132259459Y-91753423D01*
X132246780Y-91774143D01*
X132229883Y-91793538D01*
X132209879Y-91810522D01*
X132187878Y-91824011D01*
X132186544Y-91824673D01*
X132178806Y-91828489D01*
X132171983Y-91831798D01*
X132165647Y-91834637D01*
X132159369Y-91837044D01*
X132152728Y-91839058D01*
X132145297Y-91840717D01*
X132136648Y-91842059D01*
X132126359Y-91843122D01*
X132114001Y-91843944D01*
X132099150Y-91844562D01*
X132081379Y-91845016D01*
X132060263Y-91845344D01*
X132035377Y-91845581D01*
X132006294Y-91845769D01*
X131972588Y-91845944D01*
X131947186Y-91846073D01*
X131762500Y-91847036D01*
X131762499Y-91713419D01*
X131937851Y-91713361D01*
X131972799Y-91713344D01*
X132002818Y-91713310D01*
X132028314Y-91713248D01*
X132049691Y-91713146D01*
X132067355Y-91712993D01*
X132081711Y-91712777D01*
X132093165Y-91712488D01*
X132102120Y-91712114D01*
X132108983Y-91711643D01*
X132114158Y-91711064D01*
X132118051Y-91710366D01*
X132121067Y-91709537D01*
X132123613Y-91708566D01*
X132124653Y-91708106D01*
X132134788Y-91700839D01*
X132141735Y-91690447D01*
X132145525Y-91678059D01*
X132146187Y-91664802D01*
X132143754Y-91651804D01*
X132138256Y-91640192D01*
X132129723Y-91631096D01*
X132122432Y-91627013D01*
X132119181Y-91625950D01*
X132114899Y-91625076D01*
X132109081Y-91624372D01*
X132101219Y-91623821D01*
X132090807Y-91623405D01*
X132077340Y-91623108D01*
X132060309Y-91622911D01*
X132039210Y-91622797D01*
X132013536Y-91622748D01*
X131998897Y-91622743D01*
X131971039Y-91622727D01*
X131947948Y-91622665D01*
X131929054Y-91622533D01*
X131913791Y-91622308D01*
X131901591Y-91621972D01*
X131891885Y-91621497D01*
X131884106Y-91620865D01*
X131877686Y-91620048D01*
X131872057Y-91619029D01*
X131866651Y-91617782D01*
X131865330Y-91617448D01*
X131839968Y-91608405D01*
X131817538Y-91595338D01*
X131798243Y-91578801D01*
X131782287Y-91559354D01*
X131769874Y-91537555D01*
X131761209Y-91513962D01*
X131756493Y-91489133D01*
X131755933Y-91463626D01*
X131759731Y-91437997D01*
X131768092Y-91412808D01*
X131781218Y-91388613D01*
X131781537Y-91388134D01*
X131798467Y-91367494D01*
X131819181Y-91350611D01*
X131843675Y-91337490D01*
X131866476Y-91329568D01*
X131870726Y-91328439D01*
X131874992Y-91327475D01*
X131879714Y-91326663D01*
X131885330Y-91325990D01*
X131892280Y-91325444D01*
X131901003Y-91325010D01*
X131911939Y-91324676D01*
X131925525Y-91324430D01*
X131942203Y-91324257D01*
X131962410Y-91324146D01*
X131986588Y-91324082D01*
X132015173Y-91324052D01*
X132048606Y-91324045D01*
X132218547Y-91324045D01*
X132218547Y-91454725D01*
G37*
G36*
X131903848Y-90515171D02*
G01*
X131909848Y-90523988D01*
X131915942Y-90531474D01*
X131922762Y-90537915D01*
X131923376Y-90538384D01*
X131925265Y-90539681D01*
X131927441Y-90540763D01*
X131930382Y-90541653D01*
X131934564Y-90542375D01*
X131940464Y-90542950D01*
X131948559Y-90543402D01*
X131959326Y-90543752D01*
X131973243Y-90544025D01*
X131990786Y-90544242D01*
X132012432Y-90544426D01*
X132038658Y-90544601D01*
X132056167Y-90544706D01*
X132085384Y-90544870D01*
X132109760Y-90544972D01*
X132129786Y-90544998D01*
X132145954Y-90544931D01*
X132158757Y-90544757D01*
X132168687Y-90544459D01*
X132176234Y-90544022D01*
X132181893Y-90543431D01*
X132186154Y-90542669D01*
X132189509Y-90541721D01*
X132192451Y-90540571D01*
X132192926Y-90540364D01*
X132201688Y-90535206D01*
X132207777Y-90527871D01*
X132210246Y-90523248D01*
X132211753Y-90519997D01*
X132212968Y-90516721D01*
X132213920Y-90512851D01*
X132214633Y-90507817D01*
X132215136Y-90501051D01*
X132215452Y-90491983D01*
X132215608Y-90480043D01*
X132215631Y-90464662D01*
X132215544Y-90445271D01*
X132215376Y-90421301D01*
X132215308Y-90412437D01*
X132215101Y-90386848D01*
X132214892Y-90366048D01*
X132214649Y-90349490D01*
X132214338Y-90336629D01*
X132213927Y-90326919D01*
X132213384Y-90319813D01*
X132212675Y-90314767D01*
X132211767Y-90311235D01*
X132210630Y-90308671D01*
X132209229Y-90306530D01*
X132208935Y-90306130D01*
X132202650Y-90299547D01*
X132194914Y-90293662D01*
X132194266Y-90293270D01*
X132191910Y-90292006D01*
X132189190Y-90290954D01*
X132185613Y-90290089D01*
X132180686Y-90289390D01*
X132173916Y-90288833D01*
X132164810Y-90288393D01*
X132152875Y-90288050D01*
X132137617Y-90287777D01*
X132118544Y-90287554D01*
X132095162Y-90287356D01*
X132066978Y-90287159D01*
X132064531Y-90287143D01*
X131943852Y-90286350D01*
X131943852Y-90155922D01*
X132070105Y-90155922D01*
X132099642Y-90155935D01*
X132124369Y-90155987D01*
X132144815Y-90156096D01*
X132161505Y-90156281D01*
X132174964Y-90156560D01*
X132185718Y-90156954D01*
X132194294Y-90157480D01*
X132201217Y-90158157D01*
X132207013Y-90159005D01*
X132212209Y-90160042D01*
X132216885Y-90161172D01*
X132245308Y-90170980D01*
X132271638Y-90185120D01*
X132294856Y-90203020D01*
X132299903Y-90207864D01*
X132315597Y-90225693D01*
X132327814Y-90244673D01*
X132337523Y-90266437D01*
X132341651Y-90278602D01*
X132343162Y-90283565D01*
X132344406Y-90288242D01*
X132345411Y-90293185D01*
X132346202Y-90298948D01*
X132346805Y-90306086D01*
X132347243Y-90315151D01*
X132347545Y-90326698D01*
X132347736Y-90341280D01*
X132347840Y-90359451D01*
X132347884Y-90381766D01*
X132347894Y-90408777D01*
X132347894Y-90413283D01*
X132347879Y-90443047D01*
X132347787Y-90468059D01*
X132347551Y-90488899D01*
X132347103Y-90506149D01*
X132346376Y-90520390D01*
X132345301Y-90532202D01*
X132343811Y-90542167D01*
X132341837Y-90550866D01*
X132339313Y-90558880D01*
X132336170Y-90566790D01*
X132332341Y-90575178D01*
X132327947Y-90584236D01*
X132312660Y-90609557D01*
X132293403Y-90631378D01*
X132270372Y-90649531D01*
X132243762Y-90663852D01*
X132227882Y-90669962D01*
X132206547Y-90677146D01*
X132070532Y-90677668D01*
X132043655Y-90677726D01*
X132018053Y-90677701D01*
X131994288Y-90677595D01*
X131972923Y-90677417D01*
X131954521Y-90677171D01*
X131939644Y-90676865D01*
X131928856Y-90676503D01*
X131922718Y-90676094D01*
X131922065Y-90676003D01*
X131890116Y-90667965D01*
X131861312Y-90655639D01*
X131835683Y-90639039D01*
X131823180Y-90628309D01*
X131806623Y-90610632D01*
X131793645Y-90591762D01*
X131783168Y-90570020D01*
X131779364Y-90559940D01*
X131771833Y-90538629D01*
X131770368Y-89937233D01*
X131903848Y-89937233D01*
X131903848Y-90515171D01*
G37*
G36*
X133485711Y-91324143D02*
G01*
X133511902Y-91324188D01*
X133533745Y-91324283D01*
X133551731Y-91324443D01*
X133566353Y-91324684D01*
X133578103Y-91325022D01*
X133587473Y-91325473D01*
X133594956Y-91326054D01*
X133601044Y-91326781D01*
X133606230Y-91327669D01*
X133611006Y-91328735D01*
X133613283Y-91329310D01*
X133640483Y-91338345D01*
X133664204Y-91350657D01*
X133685615Y-91366902D01*
X133693621Y-91374475D01*
X133712811Y-91397282D01*
X133727426Y-91422524D01*
X133737369Y-91449741D01*
X133742545Y-91478473D01*
X133742857Y-91508260D01*
X133738209Y-91538640D01*
X133732186Y-91559349D01*
X133720471Y-91585498D01*
X133704615Y-91609260D01*
X133685243Y-91629997D01*
X133662984Y-91647066D01*
X133638462Y-91659831D01*
X133630875Y-91662686D01*
X133623100Y-91665133D01*
X133614862Y-91667190D01*
X133605641Y-91668886D01*
X133594913Y-91670255D01*
X133582156Y-91671328D01*
X133566849Y-91672139D01*
X133548468Y-91672721D01*
X133526494Y-91673106D01*
X133500401Y-91673324D01*
X133469669Y-91673410D01*
X133458485Y-91673415D01*
X133341332Y-91673415D01*
X133341332Y-91545402D01*
X133461430Y-91545402D01*
X133491355Y-91545395D01*
X133516426Y-91545338D01*
X133537125Y-91545171D01*
X133553933Y-91544837D01*
X133567330Y-91544278D01*
X133577797Y-91543437D01*
X133585815Y-91542257D01*
X133591865Y-91540676D01*
X133596427Y-91538640D01*
X133599982Y-91536090D01*
X133603013Y-91532968D01*
X133605997Y-91529217D01*
X133607008Y-91527890D01*
X133610982Y-91522145D01*
X133613294Y-91516714D01*
X133614382Y-91509842D01*
X133614688Y-91499765D01*
X133614694Y-91497133D01*
X133613906Y-91482781D01*
X133611076Y-91472305D01*
X133605504Y-91464421D01*
X133596489Y-91457841D01*
X133591970Y-91455392D01*
X133589130Y-91453987D01*
X133586273Y-91452820D01*
X133582903Y-91451870D01*
X133578521Y-91451115D01*
X133572631Y-91450534D01*
X133564735Y-91450103D01*
X133554334Y-91449800D01*
X133540931Y-91449604D01*
X133524029Y-91449495D01*
X133503130Y-91449448D01*
X133477736Y-91449442D01*
X133457446Y-91449450D01*
X133428476Y-91449476D01*
X133404345Y-91449536D01*
X133384558Y-91449649D01*
X133368620Y-91449834D01*
X133356037Y-91450108D01*
X133346314Y-91450491D01*
X133338955Y-91451001D01*
X133333466Y-91451657D01*
X133329352Y-91452478D01*
X133326119Y-91453481D01*
X133323733Y-91454473D01*
X133315172Y-91459798D01*
X133307700Y-91466755D01*
X133306398Y-91468416D01*
X133299994Y-91477394D01*
X133298488Y-91688372D01*
X133304596Y-91697562D01*
X133310854Y-91704466D01*
X133319320Y-91710899D01*
X133322583Y-91712752D01*
X133325497Y-91714177D01*
X133328427Y-91715354D01*
X133331878Y-91716311D01*
X133336357Y-91717069D01*
X133342371Y-91717651D01*
X133350425Y-91718080D01*
X133361027Y-91718381D01*
X133374683Y-91718575D01*
X133391899Y-91718686D01*
X133413182Y-91718738D01*
X133439038Y-91718752D01*
X133453909Y-91718753D01*
X133573356Y-91718753D01*
X133573356Y-91846767D01*
X133452677Y-91846453D01*
X133427329Y-91846342D01*
X133403237Y-91846149D01*
X133381008Y-91845888D01*
X133361248Y-91845567D01*
X133344562Y-91845197D01*
X133331558Y-91844793D01*
X133322841Y-91844361D01*
X133319545Y-91844038D01*
X133288376Y-91836364D01*
X133260252Y-91824450D01*
X133235370Y-91808439D01*
X133213926Y-91788475D01*
X133196119Y-91764704D01*
X133186199Y-91746464D01*
X133182521Y-91738257D01*
X133179454Y-91730191D01*
X133176951Y-91721712D01*
X133174963Y-91712265D01*
X133173441Y-91701296D01*
X133172337Y-91688251D01*
X133171602Y-91672575D01*
X133171189Y-91653715D01*
X133171046Y-91631114D01*
X133171128Y-91604220D01*
X133171345Y-91576786D01*
X133171626Y-91547998D01*
X133171935Y-91523942D01*
X133172347Y-91504017D01*
X133172934Y-91487621D01*
X133173774Y-91474153D01*
X133174936Y-91463010D01*
X133176497Y-91453593D01*
X133178530Y-91445298D01*
X133181107Y-91437526D01*
X133184304Y-91429673D01*
X133188194Y-91421139D01*
X133191234Y-91414721D01*
X133201485Y-91397526D01*
X133215526Y-91380112D01*
X133232042Y-91363811D01*
X133249722Y-91349955D01*
X133262932Y-91341982D01*
X133270262Y-91338243D01*
X133277001Y-91335065D01*
X133283640Y-91332404D01*
X133290671Y-91330213D01*
X133298584Y-91328448D01*
X133307872Y-91327061D01*
X133319025Y-91326008D01*
X133332538Y-91325243D01*
X133348898Y-91324720D01*
X133368598Y-91324392D01*
X133392130Y-91324216D01*
X133419984Y-91324143D01*
X133452653Y-91324130D01*
X133454677Y-91324130D01*
X133485711Y-91324143D01*
G37*
G36*
X133948062Y-90156008D02*
G01*
X133979096Y-90156020D01*
X134005288Y-90156066D01*
X134027130Y-90156161D01*
X134045117Y-90156320D01*
X134059738Y-90156561D01*
X134071488Y-90156899D01*
X134080858Y-90157351D01*
X134088341Y-90157932D01*
X134094429Y-90158657D01*
X134099614Y-90159546D01*
X134104392Y-90160612D01*
X134106668Y-90161188D01*
X134133868Y-90170223D01*
X134157589Y-90182535D01*
X134179000Y-90198780D01*
X134187006Y-90206352D01*
X134206196Y-90229159D01*
X134220811Y-90254401D01*
X134230755Y-90281619D01*
X134235930Y-90310351D01*
X134236242Y-90340136D01*
X134231594Y-90370518D01*
X134225570Y-90391226D01*
X134213857Y-90417375D01*
X134198000Y-90441138D01*
X134178629Y-90461873D01*
X134156369Y-90478942D01*
X134131847Y-90491709D01*
X134124260Y-90494563D01*
X134116485Y-90497011D01*
X134108246Y-90499067D01*
X134099026Y-90500763D01*
X134088298Y-90502132D01*
X134075541Y-90503206D01*
X134060234Y-90504017D01*
X134041854Y-90504598D01*
X134019879Y-90504982D01*
X133993786Y-90505201D01*
X133963054Y-90505288D01*
X133951870Y-90505292D01*
X133834717Y-90505292D01*
X133834717Y-90377279D01*
X133954815Y-90377279D01*
X133984740Y-90377273D01*
X134009811Y-90377214D01*
X134030510Y-90377048D01*
X134047318Y-90376714D01*
X134060715Y-90376156D01*
X134071182Y-90375315D01*
X134079200Y-90374133D01*
X134085250Y-90372552D01*
X134089812Y-90370517D01*
X134093368Y-90367967D01*
X134096397Y-90364845D01*
X134099382Y-90361094D01*
X134100393Y-90359768D01*
X134104367Y-90354021D01*
X134106679Y-90348592D01*
X134107767Y-90341719D01*
X134108073Y-90331642D01*
X134108078Y-90329010D01*
X134107291Y-90314658D01*
X134104461Y-90304183D01*
X134098889Y-90296298D01*
X134089875Y-90289718D01*
X134085355Y-90287269D01*
X134082515Y-90285864D01*
X134079658Y-90284697D01*
X134076288Y-90283748D01*
X134071907Y-90282993D01*
X134066016Y-90282411D01*
X134058120Y-90281980D01*
X134047719Y-90281678D01*
X134034316Y-90281484D01*
X134017414Y-90281373D01*
X133996515Y-90281325D01*
X133971122Y-90281320D01*
X133950831Y-90281327D01*
X133921861Y-90281352D01*
X133897730Y-90281414D01*
X133877943Y-90281527D01*
X133862006Y-90281711D01*
X133849422Y-90281986D01*
X133839699Y-90282369D01*
X133832340Y-90282879D01*
X133826851Y-90283535D01*
X133822737Y-90284354D01*
X133819504Y-90285358D01*
X133817118Y-90286351D01*
X133808557Y-90291675D01*
X133801084Y-90298632D01*
X133799783Y-90300293D01*
X133793379Y-90309272D01*
X133792626Y-90414760D01*
X133791873Y-90520248D01*
X133797982Y-90529439D01*
X133804239Y-90536343D01*
X133812706Y-90542776D01*
X133815968Y-90544630D01*
X133818882Y-90546053D01*
X133821812Y-90547232D01*
X133825264Y-90548188D01*
X133829743Y-90548946D01*
X133835756Y-90549528D01*
X133843811Y-90549958D01*
X133854413Y-90550258D01*
X133868068Y-90550452D01*
X133885285Y-90550564D01*
X133906567Y-90550615D01*
X133932423Y-90550630D01*
X134066741Y-90550630D01*
X134066741Y-90678645D01*
X133947394Y-90678311D01*
X133922142Y-90678198D01*
X133898106Y-90678009D01*
X133875905Y-90677754D01*
X133856155Y-90677444D01*
X133839473Y-90677090D01*
X133826476Y-90676703D01*
X133817780Y-90676293D01*
X133814652Y-90676009D01*
X133784497Y-90669137D01*
X133756871Y-90657952D01*
X133732145Y-90642800D01*
X133710698Y-90624025D01*
X133692900Y-90601973D01*
X133679127Y-90576990D01*
X133669753Y-90549420D01*
X133667796Y-90540385D01*
X133666747Y-90533950D01*
X133665908Y-90526548D01*
X133665266Y-90517615D01*
X133664808Y-90506585D01*
X133664520Y-90492896D01*
X133664389Y-90475983D01*
X133664403Y-90455282D01*
X133664546Y-90430226D01*
X133664729Y-90408663D01*
X133665011Y-90379875D01*
X133665320Y-90355818D01*
X133665732Y-90335894D01*
X133666320Y-90319498D01*
X133667159Y-90306029D01*
X133668321Y-90294888D01*
X133669882Y-90285469D01*
X133671913Y-90277176D01*
X133674492Y-90269403D01*
X133677689Y-90261550D01*
X133681579Y-90253016D01*
X133684619Y-90246599D01*
X133694870Y-90229404D01*
X133708911Y-90211988D01*
X133725428Y-90195688D01*
X133743107Y-90181833D01*
X133756317Y-90173860D01*
X133763647Y-90170120D01*
X133770386Y-90166942D01*
X133777025Y-90164281D01*
X133784056Y-90162091D01*
X133791969Y-90160325D01*
X133801258Y-90158939D01*
X133812412Y-90157885D01*
X133825923Y-90157120D01*
X133842283Y-90156597D01*
X133861983Y-90156270D01*
X133885514Y-90156093D01*
X133913369Y-90156021D01*
X133946038Y-90156007D01*
X133948062Y-90156008D01*
G37*
G36*
X134388761Y-91404720D02*
G01*
X134388638Y-91451779D01*
X134388531Y-91493819D01*
X134388426Y-91531157D01*
X134388302Y-91564107D01*
X134388144Y-91592988D01*
X134387935Y-91618112D01*
X134387656Y-91639796D01*
X134387290Y-91658356D01*
X134386819Y-91674106D01*
X134386229Y-91687364D01*
X134385496Y-91698444D01*
X134384610Y-91707662D01*
X134383549Y-91715333D01*
X134382296Y-91721774D01*
X134380836Y-91727300D01*
X134379149Y-91732226D01*
X134377218Y-91736869D01*
X134375027Y-91741543D01*
X134372558Y-91746564D01*
X134369792Y-91752249D01*
X134369571Y-91752714D01*
X134357099Y-91773475D01*
X134340434Y-91792921D01*
X134320707Y-91809937D01*
X134299054Y-91823411D01*
X134296099Y-91824872D01*
X134287088Y-91829185D01*
X134279173Y-91832834D01*
X134271827Y-91835875D01*
X134264523Y-91838367D01*
X134256736Y-91840368D01*
X134247938Y-91841935D01*
X134237602Y-91843126D01*
X134225204Y-91843999D01*
X134210215Y-91844611D01*
X134192109Y-91845021D01*
X134170360Y-91845286D01*
X134144441Y-91845464D01*
X134113825Y-91845613D01*
X134106746Y-91845646D01*
X134079962Y-91845727D01*
X134054422Y-91845726D01*
X134030695Y-91845645D01*
X134009353Y-91845491D01*
X133990966Y-91845269D01*
X133976106Y-91844985D01*
X133965343Y-91844644D01*
X133959249Y-91844252D01*
X133958729Y-91844182D01*
X133939762Y-91840425D01*
X133923010Y-91835132D01*
X133905705Y-91827385D01*
X133901391Y-91825177D01*
X133877600Y-91809824D01*
X133856880Y-91790330D01*
X133839547Y-91767118D01*
X133825918Y-91740616D01*
X133816308Y-91711250D01*
X133816089Y-91710344D01*
X133814725Y-91704281D01*
X133813613Y-91698187D01*
X133812728Y-91691458D01*
X133812044Y-91683485D01*
X133811536Y-91673663D01*
X133811177Y-91661386D01*
X133810944Y-91646045D01*
X133810810Y-91627035D01*
X133810747Y-91603749D01*
X133810733Y-91583293D01*
X133810765Y-91555246D01*
X133810884Y-91531960D01*
X133811110Y-91512865D01*
X133811461Y-91497389D01*
X133811958Y-91484961D01*
X133812618Y-91475009D01*
X133813463Y-91466961D01*
X133814510Y-91460246D01*
X133814953Y-91457985D01*
X133823323Y-91430205D01*
X133836269Y-91404771D01*
X133853402Y-91382070D01*
X133874334Y-91362496D01*
X133898676Y-91346440D01*
X133926040Y-91334296D01*
X133942487Y-91329360D01*
X133947712Y-91328119D01*
X133953010Y-91327087D01*
X133958909Y-91326245D01*
X133965938Y-91325573D01*
X133974623Y-91325053D01*
X133985497Y-91324665D01*
X133999084Y-91324390D01*
X134015914Y-91324210D01*
X134036514Y-91324105D01*
X134061413Y-91324057D01*
X134089837Y-91324045D01*
X134216090Y-91324045D01*
X134216090Y-91454475D01*
X134094078Y-91455267D01*
X134063965Y-91455468D01*
X134038716Y-91455686D01*
X134017861Y-91455984D01*
X134000931Y-91456422D01*
X133987456Y-91457062D01*
X133976965Y-91457965D01*
X133968991Y-91459193D01*
X133963062Y-91460807D01*
X133958709Y-91462869D01*
X133955462Y-91465440D01*
X133952851Y-91468580D01*
X133950408Y-91472352D01*
X133949288Y-91474190D01*
X133947952Y-91476627D01*
X133946866Y-91479485D01*
X133946004Y-91483304D01*
X133945341Y-91488629D01*
X133944850Y-91496001D01*
X133944505Y-91505964D01*
X133944282Y-91519062D01*
X133944154Y-91535834D01*
X133944096Y-91556827D01*
X133944082Y-91582583D01*
X133944082Y-91584072D01*
X133944095Y-91610094D01*
X133944150Y-91631325D01*
X133944274Y-91648307D01*
X133944492Y-91661585D01*
X133944830Y-91671699D01*
X133945313Y-91679194D01*
X133945967Y-91684611D01*
X133946818Y-91688495D01*
X133947891Y-91691387D01*
X133949212Y-91693831D01*
X133949278Y-91693939D01*
X133951684Y-91697937D01*
X133953920Y-91701301D01*
X133956442Y-91704086D01*
X133959705Y-91706346D01*
X133964164Y-91708136D01*
X133970275Y-91709510D01*
X133978493Y-91710523D01*
X133989273Y-91711230D01*
X134003071Y-91711686D01*
X134020342Y-91711944D01*
X134041541Y-91712061D01*
X134067123Y-91712090D01*
X134097545Y-91712086D01*
X134100432Y-91712086D01*
X134130277Y-91712079D01*
X134155254Y-91712051D01*
X134175825Y-91711981D01*
X134192457Y-91711850D01*
X134205613Y-91711640D01*
X134215760Y-91711333D01*
X134223359Y-91710911D01*
X134228878Y-91710354D01*
X134232780Y-91709644D01*
X134235530Y-91708763D01*
X134237593Y-91707692D01*
X134239231Y-91706562D01*
X134245694Y-91700243D01*
X134251154Y-91692408D01*
X134251423Y-91691894D01*
X134252160Y-91690196D01*
X134252815Y-91687955D01*
X134253394Y-91684868D01*
X134253900Y-91680631D01*
X134254339Y-91674939D01*
X134254715Y-91667488D01*
X134255034Y-91657976D01*
X134255300Y-91646097D01*
X134255517Y-91631549D01*
X134255691Y-91614026D01*
X134255826Y-91593226D01*
X134255927Y-91568843D01*
X134255999Y-91540575D01*
X134256047Y-91508118D01*
X134256075Y-91471167D01*
X134256088Y-91429418D01*
X134256090Y-91394053D01*
X134256095Y-91105355D01*
X134389596Y-91105355D01*
X134388761Y-91404720D01*
G37*
G36*
X132354728Y-88346666D02*
G01*
X132376801Y-88347721D01*
X132396168Y-88349658D01*
X132405876Y-88351251D01*
X132448621Y-88362412D01*
X132489178Y-88378294D01*
X132527227Y-88398634D01*
X132562443Y-88423175D01*
X132594502Y-88451654D01*
X132623083Y-88483810D01*
X132647861Y-88519385D01*
X132668514Y-88558113D01*
X132672118Y-88566207D01*
X132686803Y-88606810D01*
X132696373Y-88648249D01*
X132700899Y-88690125D01*
X132700458Y-88732037D01*
X132695118Y-88773585D01*
X132684956Y-88814372D01*
X132670044Y-88853995D01*
X132650454Y-88892056D01*
X132626261Y-88928154D01*
X132600323Y-88958942D01*
X132583919Y-88976478D01*
X132583919Y-89178266D01*
X132583915Y-89215896D01*
X132583898Y-89248564D01*
X132583857Y-89276644D01*
X132583784Y-89300506D01*
X132583669Y-89320527D01*
X132583504Y-89337074D01*
X132583279Y-89350522D01*
X132582984Y-89361244D01*
X132582611Y-89369611D01*
X132582152Y-89375997D01*
X132581593Y-89380773D01*
X132580929Y-89384313D01*
X132580150Y-89386988D01*
X132579247Y-89389171D01*
X132578663Y-89390357D01*
X132569738Y-89402777D01*
X132557518Y-89412882D01*
X132543774Y-89419242D01*
X132542412Y-89419610D01*
X132537376Y-89420199D01*
X132527574Y-89420719D01*
X132513529Y-89421170D01*
X132495768Y-89421554D01*
X132474812Y-89421871D01*
X132451185Y-89422122D01*
X132425411Y-89422307D01*
X132398014Y-89422428D01*
X132369517Y-89422486D01*
X132340444Y-89422480D01*
X132311320Y-89422413D01*
X132282667Y-89422284D01*
X132255010Y-89422095D01*
X132228871Y-89421847D01*
X132204775Y-89421540D01*
X132183246Y-89421174D01*
X132164806Y-89420752D01*
X132149982Y-89420273D01*
X132139295Y-89419739D01*
X132133269Y-89419150D01*
X132132481Y-89418973D01*
X132118611Y-89412222D01*
X132106466Y-89401791D01*
X132098528Y-89390496D01*
X132097535Y-89388416D01*
X132096675Y-89386090D01*
X132095936Y-89383146D01*
X132095308Y-89379210D01*
X132094786Y-89373911D01*
X132094358Y-89366875D01*
X132094015Y-89357729D01*
X132093747Y-89346102D01*
X132093545Y-89331620D01*
X132093400Y-89313910D01*
X132093303Y-89292600D01*
X132093244Y-89267317D01*
X132093213Y-89237688D01*
X132093202Y-89203341D01*
X132093201Y-89178266D01*
X132093201Y-88976478D01*
X132076797Y-88958942D01*
X132048213Y-88924635D01*
X132024091Y-88887713D01*
X132004616Y-88848560D01*
X131989977Y-88807560D01*
X131980363Y-88765098D01*
X131979734Y-88761109D01*
X131975900Y-88718578D01*
X131976575Y-88696506D01*
X132085667Y-88696506D01*
X132086031Y-88721105D01*
X132090246Y-88757719D01*
X132099233Y-88792061D01*
X132113063Y-88824281D01*
X132131806Y-88854526D01*
X132155534Y-88882952D01*
X132168052Y-88895373D01*
X132174264Y-88901035D01*
X132179653Y-88905815D01*
X132184279Y-88910112D01*
X132188200Y-88914327D01*
X132191477Y-88918860D01*
X132194168Y-88924111D01*
X132196331Y-88930481D01*
X132198027Y-88938370D01*
X132199316Y-88948178D01*
X132200255Y-88960305D01*
X132200904Y-88975152D01*
X132201323Y-88993118D01*
X132201571Y-89014606D01*
X132201706Y-89040012D01*
X132201789Y-89069739D01*
X132201877Y-89104187D01*
X132201948Y-89124481D01*
X132202683Y-89313167D01*
X132474437Y-89313167D01*
X132475172Y-89124481D01*
X132475288Y-89087370D01*
X132475367Y-89055192D01*
X132475466Y-89027547D01*
X132475648Y-89004034D01*
X132475969Y-88984253D01*
X132476489Y-88967804D01*
X132477267Y-88954287D01*
X132478363Y-88943300D01*
X132479836Y-88934445D01*
X132481745Y-88927320D01*
X132484149Y-88921527D01*
X132487108Y-88916663D01*
X132490680Y-88912328D01*
X132494925Y-88908126D01*
X132499903Y-88903652D01*
X132505671Y-88898506D01*
X132509067Y-88895373D01*
X132535096Y-88867730D01*
X132556107Y-88838336D01*
X132572173Y-88807037D01*
X132583364Y-88773683D01*
X132589750Y-88738124D01*
X132591088Y-88721105D01*
X132591402Y-88694834D01*
X132589354Y-88671188D01*
X132584617Y-88647868D01*
X132577496Y-88624395D01*
X132565378Y-88594833D01*
X132549931Y-88568105D01*
X132530359Y-88542943D01*
X132518579Y-88530350D01*
X132491506Y-88506153D01*
X132462862Y-88486905D01*
X132432265Y-88472355D01*
X132427353Y-88470516D01*
X132391536Y-88460248D01*
X132355599Y-88455155D01*
X132319956Y-88455149D01*
X132285025Y-88460132D01*
X132251225Y-88470012D01*
X132218971Y-88484698D01*
X132188682Y-88504096D01*
X132160775Y-88528114D01*
X132158541Y-88530350D01*
X132136569Y-88555203D01*
X132119126Y-88580977D01*
X132105416Y-88608940D01*
X132099624Y-88624395D01*
X132092090Y-88649486D01*
X132087546Y-88672756D01*
X132085667Y-88696506D01*
X131976575Y-88696506D01*
X131977190Y-88676409D01*
X131983394Y-88635004D01*
X131994305Y-88594762D01*
X132009711Y-88556085D01*
X132029405Y-88519372D01*
X132053175Y-88485026D01*
X132080814Y-88453446D01*
X132112112Y-88425032D01*
X132146858Y-88400186D01*
X132177385Y-88382953D01*
X132193896Y-88375517D01*
X132213733Y-88367925D01*
X132234953Y-88360831D01*
X132255611Y-88354893D01*
X132271243Y-88351252D01*
X132288207Y-88348784D01*
X132308839Y-88347197D01*
X132331543Y-88346491D01*
X132354728Y-88346666D01*
G37*
G36*
X132366028Y-92377392D02*
G01*
X132394664Y-92377479D01*
X132422269Y-92377625D01*
X132448312Y-92377831D01*
X132472266Y-92378098D01*
X132493598Y-92378422D01*
X132511778Y-92378808D01*
X132526276Y-92379253D01*
X132536562Y-92379758D01*
X132542105Y-92380323D01*
X132542413Y-92380391D01*
X132556211Y-92386307D01*
X132568660Y-92396109D01*
X132577984Y-92408366D01*
X132578663Y-92409645D01*
X132579643Y-92411712D01*
X132580493Y-92414057D01*
X132581222Y-92417050D01*
X132581840Y-92421064D01*
X132582356Y-92426473D01*
X132582778Y-92433646D01*
X132583118Y-92442958D01*
X132583381Y-92454781D01*
X132583581Y-92469488D01*
X132583722Y-92487450D01*
X132583819Y-92509040D01*
X132583877Y-92534630D01*
X132583907Y-92564596D01*
X132583918Y-92599306D01*
X132583919Y-92621735D01*
X132583919Y-92823523D01*
X132600323Y-92841059D01*
X132628905Y-92875365D01*
X132653029Y-92912288D01*
X132672504Y-92951441D01*
X132687143Y-92992442D01*
X132696757Y-93034903D01*
X132697386Y-93038892D01*
X132701242Y-93081379D01*
X132700018Y-93123275D01*
X132693961Y-93164230D01*
X132683318Y-93203894D01*
X132668337Y-93241919D01*
X132649265Y-93277954D01*
X132626350Y-93311651D01*
X132599839Y-93342659D01*
X132569981Y-93370630D01*
X132537020Y-93395215D01*
X132501208Y-93416062D01*
X132462790Y-93432825D01*
X132422014Y-93445153D01*
X132407315Y-93448338D01*
X132396227Y-93449988D01*
X132381582Y-93451444D01*
X132364780Y-93452642D01*
X132347219Y-93453516D01*
X132330300Y-93454003D01*
X132315423Y-93454035D01*
X132303987Y-93453549D01*
X132301223Y-93453266D01*
X132256856Y-93445151D01*
X132214588Y-93432407D01*
X132174746Y-93415204D01*
X132137646Y-93393718D01*
X132103612Y-93368117D01*
X132072966Y-93338573D01*
X132061340Y-93325220D01*
X132035003Y-93289384D01*
X132013514Y-93251721D01*
X131996858Y-93212607D01*
X131985025Y-93172417D01*
X131978003Y-93131525D01*
X131976580Y-93105167D01*
X132085717Y-93105167D01*
X132087766Y-93128814D01*
X132092503Y-93152133D01*
X132099623Y-93175606D01*
X132111742Y-93205168D01*
X132127189Y-93231896D01*
X132146761Y-93257058D01*
X132158541Y-93269650D01*
X132186271Y-93294094D01*
X132216487Y-93313953D01*
X132248784Y-93329096D01*
X132282762Y-93339396D01*
X132318017Y-93344723D01*
X132354149Y-93344946D01*
X132382019Y-93341611D01*
X132417473Y-93332926D01*
X132450331Y-93319635D01*
X132480825Y-93301618D01*
X132509185Y-93278751D01*
X132518580Y-93269651D01*
X132540551Y-93244798D01*
X132557993Y-93219024D01*
X132571705Y-93191061D01*
X132577496Y-93175607D01*
X132585029Y-93150515D01*
X132589574Y-93127245D01*
X132591453Y-93103495D01*
X132591088Y-93078896D01*
X132586874Y-93042282D01*
X132577887Y-93007940D01*
X132564057Y-92975720D01*
X132545314Y-92945473D01*
X132521586Y-92917049D01*
X132509067Y-92904628D01*
X132502857Y-92898966D01*
X132497468Y-92894186D01*
X132492841Y-92889889D01*
X132488920Y-92885674D01*
X132485643Y-92881141D01*
X132482953Y-92875890D01*
X132480789Y-92869520D01*
X132479093Y-92861631D01*
X132477804Y-92851823D01*
X132476865Y-92839697D01*
X132476216Y-92824849D01*
X132475797Y-92806883D01*
X132475549Y-92785396D01*
X132475413Y-92759989D01*
X132475331Y-92730262D01*
X132475242Y-92695814D01*
X132475172Y-92675519D01*
X132474436Y-92486834D01*
X132202684Y-92486834D01*
X132201949Y-92675520D01*
X132201833Y-92712631D01*
X132201753Y-92744809D01*
X132201653Y-92772454D01*
X132201472Y-92795967D01*
X132201151Y-92815748D01*
X132200630Y-92832197D01*
X132199853Y-92845714D01*
X132198758Y-92856701D01*
X132197284Y-92865555D01*
X132195375Y-92872681D01*
X132192971Y-92878474D01*
X132190012Y-92883338D01*
X132186440Y-92887671D01*
X132182195Y-92891875D01*
X132177217Y-92896350D01*
X132171448Y-92901496D01*
X132168052Y-92904628D01*
X132142024Y-92932270D01*
X132121012Y-92961665D01*
X132104946Y-92992965D01*
X132093757Y-93026318D01*
X132087369Y-93061876D01*
X132086030Y-93078896D01*
X132085717Y-93105167D01*
X131976580Y-93105167D01*
X131975779Y-93090308D01*
X131978341Y-93049138D01*
X131985677Y-93008395D01*
X131997777Y-92968451D01*
X132014626Y-92929680D01*
X132036216Y-92892460D01*
X132062530Y-92857166D01*
X132076797Y-92841059D01*
X132093201Y-92823523D01*
X132093201Y-92621735D01*
X132093205Y-92584105D01*
X132093222Y-92551436D01*
X132093263Y-92523357D01*
X132093336Y-92499494D01*
X132093451Y-92479474D01*
X132093616Y-92462926D01*
X132093841Y-92449479D01*
X132094136Y-92438757D01*
X132094509Y-92430390D01*
X132094969Y-92424004D01*
X132095527Y-92419229D01*
X132096189Y-92415688D01*
X132096969Y-92413013D01*
X132097873Y-92410830D01*
X132098457Y-92409645D01*
X132107381Y-92397224D01*
X132119602Y-92387119D01*
X132133347Y-92380759D01*
X132134709Y-92380391D01*
X132139675Y-92379820D01*
X132149447Y-92379308D01*
X132163491Y-92378856D01*
X132181277Y-92378463D01*
X132202276Y-92378131D01*
X132225957Y-92377858D01*
X132251790Y-92377645D01*
X132279243Y-92377492D01*
X132307788Y-92377399D01*
X132336893Y-92377366D01*
X132366028Y-92377392D01*
G37*
G36*
X133376169Y-88346666D02*
G01*
X133398242Y-88347721D01*
X133417609Y-88349658D01*
X133427317Y-88351252D01*
X133470061Y-88362412D01*
X133510619Y-88378293D01*
X133548667Y-88398634D01*
X133583883Y-88423175D01*
X133615943Y-88451654D01*
X133644524Y-88483810D01*
X133669302Y-88519384D01*
X133689955Y-88558113D01*
X133693559Y-88566207D01*
X133708244Y-88606810D01*
X133717813Y-88648249D01*
X133722340Y-88690125D01*
X133721897Y-88732036D01*
X133716559Y-88773586D01*
X133706396Y-88814372D01*
X133691484Y-88853995D01*
X133671895Y-88892056D01*
X133647701Y-88928154D01*
X133621764Y-88958941D01*
X133605360Y-88976478D01*
X133605360Y-89178266D01*
X133605356Y-89215896D01*
X133605338Y-89248564D01*
X133605297Y-89276644D01*
X133605224Y-89300506D01*
X133605110Y-89320527D01*
X133604945Y-89337074D01*
X133604719Y-89350522D01*
X133604425Y-89361244D01*
X133604052Y-89369611D01*
X133603590Y-89375997D01*
X133603034Y-89380773D01*
X133602370Y-89384313D01*
X133601591Y-89386988D01*
X133600687Y-89389171D01*
X133600103Y-89390357D01*
X133591180Y-89402777D01*
X133578959Y-89412882D01*
X133565214Y-89419242D01*
X133563853Y-89419610D01*
X133558816Y-89420199D01*
X133549014Y-89420719D01*
X133534971Y-89421170D01*
X133517209Y-89421554D01*
X133496252Y-89421871D01*
X133472625Y-89422122D01*
X133446853Y-89422307D01*
X133419454Y-89422428D01*
X133390958Y-89422485D01*
X133361884Y-89422480D01*
X133332761Y-89422413D01*
X133304108Y-89422284D01*
X133276450Y-89422095D01*
X133250312Y-89421847D01*
X133226216Y-89421540D01*
X133204687Y-89421174D01*
X133186248Y-89420752D01*
X133171423Y-89420273D01*
X133160735Y-89419739D01*
X133154709Y-89419150D01*
X133153921Y-89418972D01*
X133140051Y-89412222D01*
X133127907Y-89401791D01*
X133119969Y-89390496D01*
X133118976Y-89388416D01*
X133118115Y-89386090D01*
X133117376Y-89383146D01*
X133116748Y-89379210D01*
X133116227Y-89373911D01*
X133115799Y-89366875D01*
X133115455Y-89357729D01*
X133115187Y-89346102D01*
X133114986Y-89331620D01*
X133114841Y-89313910D01*
X133114744Y-89292600D01*
X133114684Y-89267317D01*
X133114654Y-89237688D01*
X133114643Y-89203341D01*
X133114641Y-89178266D01*
X133114641Y-88976478D01*
X133098237Y-88958942D01*
X133069655Y-88924635D01*
X133045532Y-88887713D01*
X133026057Y-88848560D01*
X133011418Y-88807560D01*
X133001804Y-88765098D01*
X133001175Y-88761109D01*
X132997340Y-88718578D01*
X132998015Y-88696506D01*
X133107108Y-88696506D01*
X133107472Y-88721105D01*
X133111687Y-88757719D01*
X133120673Y-88792061D01*
X133134503Y-88824281D01*
X133153247Y-88854527D01*
X133176974Y-88882952D01*
X133189493Y-88895373D01*
X133195705Y-88901035D01*
X133201094Y-88905815D01*
X133205719Y-88910112D01*
X133209641Y-88914327D01*
X133212917Y-88918860D01*
X133215608Y-88924111D01*
X133217771Y-88930481D01*
X133219468Y-88938370D01*
X133220756Y-88948178D01*
X133221695Y-88960305D01*
X133222345Y-88975152D01*
X133222764Y-88993118D01*
X133223011Y-89014606D01*
X133223147Y-89040012D01*
X133223230Y-89069738D01*
X133223319Y-89104187D01*
X133223388Y-89124481D01*
X133224123Y-89313167D01*
X133495877Y-89313167D01*
X133496613Y-89124481D01*
X133496729Y-89087370D01*
X133496807Y-89055192D01*
X133496908Y-89027547D01*
X133497088Y-89004034D01*
X133497409Y-88984253D01*
X133497929Y-88967804D01*
X133498708Y-88954287D01*
X133499804Y-88943300D01*
X133501277Y-88934445D01*
X133503186Y-88927320D01*
X133505590Y-88921527D01*
X133508548Y-88916663D01*
X133512121Y-88912329D01*
X133516366Y-88908126D01*
X133521343Y-88903652D01*
X133527112Y-88898506D01*
X133530508Y-88895373D01*
X133556536Y-88867730D01*
X133577548Y-88838336D01*
X133593614Y-88807036D01*
X133604805Y-88773683D01*
X133611191Y-88738125D01*
X133612529Y-88721105D01*
X133612844Y-88694834D01*
X133610794Y-88671188D01*
X133606057Y-88647868D01*
X133598936Y-88624395D01*
X133586818Y-88594833D01*
X133571371Y-88568105D01*
X133551800Y-88542943D01*
X133540019Y-88530350D01*
X133512946Y-88506153D01*
X133484302Y-88486905D01*
X133453705Y-88472355D01*
X133448794Y-88470516D01*
X133412978Y-88460248D01*
X133377040Y-88455156D01*
X133341397Y-88455149D01*
X133306466Y-88460132D01*
X133272665Y-88470012D01*
X133240412Y-88484698D01*
X133210123Y-88504096D01*
X133182215Y-88528114D01*
X133179982Y-88530350D01*
X133158010Y-88555203D01*
X133140566Y-88580977D01*
X133126856Y-88608940D01*
X133121065Y-88624395D01*
X133113531Y-88649486D01*
X133108986Y-88672756D01*
X133107108Y-88696506D01*
X132998015Y-88696506D01*
X132998630Y-88676409D01*
X133004835Y-88635004D01*
X133015745Y-88594762D01*
X133031152Y-88556085D01*
X133050845Y-88519372D01*
X133074616Y-88485026D01*
X133102255Y-88453447D01*
X133133552Y-88425032D01*
X133168299Y-88400187D01*
X133198826Y-88382953D01*
X133215336Y-88375517D01*
X133235174Y-88367925D01*
X133256394Y-88360831D01*
X133277051Y-88354893D01*
X133292685Y-88351252D01*
X133309648Y-88348784D01*
X133330277Y-88347197D01*
X133352983Y-88346491D01*
X133376169Y-88346666D01*
G37*
G36*
X133387469Y-92377393D02*
G01*
X133416104Y-92377479D01*
X133443709Y-92377625D01*
X133469753Y-92377831D01*
X133493707Y-92378097D01*
X133515038Y-92378422D01*
X133533218Y-92378808D01*
X133547716Y-92379253D01*
X133558002Y-92379758D01*
X133563545Y-92380323D01*
X133563853Y-92380391D01*
X133577652Y-92386307D01*
X133590100Y-92396109D01*
X133599425Y-92408366D01*
X133600103Y-92409645D01*
X133601083Y-92411712D01*
X133601933Y-92414057D01*
X133602663Y-92417050D01*
X133603281Y-92421065D01*
X133603796Y-92426473D01*
X133604219Y-92433646D01*
X133604558Y-92442958D01*
X133604822Y-92454781D01*
X133605021Y-92469488D01*
X133605164Y-92487450D01*
X133605259Y-92509040D01*
X133605318Y-92534631D01*
X133605349Y-92564596D01*
X133605359Y-92599306D01*
X133605359Y-92621735D01*
X133605359Y-92823523D01*
X133621764Y-92841059D01*
X133650347Y-92875365D01*
X133674469Y-92912288D01*
X133693944Y-92951441D01*
X133708583Y-92992441D01*
X133718197Y-93034903D01*
X133718826Y-93038892D01*
X133722683Y-93081379D01*
X133721459Y-93123275D01*
X133715402Y-93164230D01*
X133704759Y-93203894D01*
X133689777Y-93241919D01*
X133670705Y-93277954D01*
X133647790Y-93311651D01*
X133621279Y-93342659D01*
X133591421Y-93370630D01*
X133558461Y-93395215D01*
X133522648Y-93416062D01*
X133484230Y-93432825D01*
X133443454Y-93445153D01*
X133428756Y-93448337D01*
X133417668Y-93449988D01*
X133403023Y-93451444D01*
X133386220Y-93452642D01*
X133368660Y-93453516D01*
X133351741Y-93454002D01*
X133336863Y-93454035D01*
X133325427Y-93453549D01*
X133322663Y-93453266D01*
X133278296Y-93445151D01*
X133236030Y-93432407D01*
X133196186Y-93415204D01*
X133159087Y-93393718D01*
X133125052Y-93368117D01*
X133094407Y-93338573D01*
X133082780Y-93325220D01*
X133056444Y-93289384D01*
X133034954Y-93251721D01*
X133018299Y-93212607D01*
X133006466Y-93172417D01*
X132999443Y-93131525D01*
X132998021Y-93105167D01*
X133107157Y-93105167D01*
X133109207Y-93128813D01*
X133113944Y-93152133D01*
X133121065Y-93175606D01*
X133133183Y-93205169D01*
X133148630Y-93231896D01*
X133168201Y-93257058D01*
X133179982Y-93269651D01*
X133207712Y-93294094D01*
X133237927Y-93313953D01*
X133270226Y-93329096D01*
X133304202Y-93339396D01*
X133339458Y-93344723D01*
X133375589Y-93344946D01*
X133403460Y-93341611D01*
X133438913Y-93332926D01*
X133471772Y-93319635D01*
X133502266Y-93301618D01*
X133530626Y-93278751D01*
X133540020Y-93269651D01*
X133561991Y-93244798D01*
X133579435Y-93219024D01*
X133593145Y-93191061D01*
X133598936Y-93175607D01*
X133606470Y-93150515D01*
X133611015Y-93127245D01*
X133612893Y-93103495D01*
X133612530Y-93078896D01*
X133608314Y-93042282D01*
X133599328Y-93007940D01*
X133585498Y-92975720D01*
X133566754Y-92945474D01*
X133543027Y-92917049D01*
X133530508Y-92904628D01*
X133524297Y-92898966D01*
X133518906Y-92894186D01*
X133514283Y-92889889D01*
X133510360Y-92885674D01*
X133507084Y-92881141D01*
X133504393Y-92875890D01*
X133502230Y-92869520D01*
X133500533Y-92861631D01*
X133499245Y-92851823D01*
X133498306Y-92839696D01*
X133497656Y-92824849D01*
X133497237Y-92806883D01*
X133496989Y-92785396D01*
X133496855Y-92759989D01*
X133496771Y-92730262D01*
X133496682Y-92695814D01*
X133496613Y-92675520D01*
X133495877Y-92486834D01*
X133224124Y-92486834D01*
X133223389Y-92675520D01*
X133223273Y-92712631D01*
X133223194Y-92744809D01*
X133223093Y-92772454D01*
X133222913Y-92795967D01*
X133222592Y-92815748D01*
X133222072Y-92832197D01*
X133221293Y-92845714D01*
X133220198Y-92856701D01*
X133218724Y-92865555D01*
X133216815Y-92872681D01*
X133214411Y-92878474D01*
X133211453Y-92883339D01*
X133207880Y-92887672D01*
X133203635Y-92891875D01*
X133198658Y-92896350D01*
X133192889Y-92901495D01*
X133189493Y-92904628D01*
X133163465Y-92932270D01*
X133142453Y-92961665D01*
X133126387Y-92992965D01*
X133115197Y-93026318D01*
X133108810Y-93061876D01*
X133107472Y-93078896D01*
X133107157Y-93105167D01*
X132998021Y-93105167D01*
X132997219Y-93090308D01*
X132999781Y-93049138D01*
X133007118Y-93008395D01*
X133019217Y-92968451D01*
X133036067Y-92929680D01*
X133057656Y-92892460D01*
X133083970Y-92857166D01*
X133098237Y-92841059D01*
X133114641Y-92823523D01*
X133114641Y-92621735D01*
X133114645Y-92584105D01*
X133114663Y-92551436D01*
X133114704Y-92523357D01*
X133114777Y-92499494D01*
X133114891Y-92479474D01*
X133115056Y-92462926D01*
X133115281Y-92449479D01*
X133115576Y-92438757D01*
X133115949Y-92430390D01*
X133116410Y-92424004D01*
X133116967Y-92419229D01*
X133117631Y-92415688D01*
X133118409Y-92413013D01*
X133119314Y-92410830D01*
X133119898Y-92409644D01*
X133128821Y-92397224D01*
X133141042Y-92387119D01*
X133154787Y-92380759D01*
X133156147Y-92380391D01*
X133161116Y-92379820D01*
X133170888Y-92379308D01*
X133184932Y-92378856D01*
X133202718Y-92378464D01*
X133223717Y-92378131D01*
X133247398Y-92377858D01*
X133273230Y-92377645D01*
X133300684Y-92377492D01*
X133329228Y-92377399D01*
X133358333Y-92377366D01*
X133387469Y-92377393D01*
G37*
G36*
X134397609Y-88346666D02*
G01*
X134419682Y-88347721D01*
X134439049Y-88349658D01*
X134448758Y-88351252D01*
X134491502Y-88362411D01*
X134532060Y-88378293D01*
X134570108Y-88398633D01*
X134605324Y-88423175D01*
X134637384Y-88451654D01*
X134665964Y-88483810D01*
X134690743Y-88519384D01*
X134711395Y-88558113D01*
X134714999Y-88566207D01*
X134729684Y-88606810D01*
X134739255Y-88648249D01*
X134743781Y-88690125D01*
X134743338Y-88732037D01*
X134737999Y-88773586D01*
X134727838Y-88814372D01*
X134712925Y-88853995D01*
X134693335Y-88892056D01*
X134669142Y-88928154D01*
X134643204Y-88958941D01*
X134626800Y-88976478D01*
X134626800Y-89178266D01*
X134626796Y-89215896D01*
X134626779Y-89248565D01*
X134626738Y-89276643D01*
X134626665Y-89300507D01*
X134626550Y-89320527D01*
X134626385Y-89337074D01*
X134626160Y-89350522D01*
X134625865Y-89361244D01*
X134625492Y-89369611D01*
X134625032Y-89375997D01*
X134624474Y-89380773D01*
X134623811Y-89384313D01*
X134623032Y-89386988D01*
X134622127Y-89389171D01*
X134621544Y-89390357D01*
X134612620Y-89402777D01*
X134600399Y-89412882D01*
X134586654Y-89419242D01*
X134585293Y-89419610D01*
X134580257Y-89420199D01*
X134570455Y-89420720D01*
X134556411Y-89421170D01*
X134538649Y-89421554D01*
X134517693Y-89421871D01*
X134494066Y-89422122D01*
X134468293Y-89422307D01*
X134440895Y-89422429D01*
X134412397Y-89422486D01*
X134383326Y-89422480D01*
X134354201Y-89422413D01*
X134325548Y-89422284D01*
X134297891Y-89422095D01*
X134271752Y-89421847D01*
X134247656Y-89421540D01*
X134226127Y-89421174D01*
X134207688Y-89420752D01*
X134192863Y-89420273D01*
X134182176Y-89419739D01*
X134176150Y-89419150D01*
X134175362Y-89418973D01*
X134161492Y-89412221D01*
X134149347Y-89401791D01*
X134141409Y-89390496D01*
X134140416Y-89388416D01*
X134139555Y-89386090D01*
X134138816Y-89383146D01*
X134138190Y-89379210D01*
X134137667Y-89373911D01*
X134137239Y-89366875D01*
X134136896Y-89357729D01*
X134136628Y-89346102D01*
X134136426Y-89331620D01*
X134136282Y-89313910D01*
X134136184Y-89292600D01*
X134136124Y-89267317D01*
X134136094Y-89237688D01*
X134136083Y-89203341D01*
X134136082Y-89178266D01*
X134136082Y-88976478D01*
X134119678Y-88958941D01*
X134091096Y-88924635D01*
X134066972Y-88887713D01*
X134047497Y-88848560D01*
X134032858Y-88807560D01*
X134023244Y-88765098D01*
X134022616Y-88761109D01*
X134018781Y-88718578D01*
X134019456Y-88696506D01*
X134128548Y-88696506D01*
X134128913Y-88721105D01*
X134133127Y-88757719D01*
X134142114Y-88792061D01*
X134155944Y-88824281D01*
X134174687Y-88854527D01*
X134198415Y-88882952D01*
X134210934Y-88895373D01*
X134217145Y-88901035D01*
X134222534Y-88905815D01*
X134227161Y-88910112D01*
X134231081Y-88914327D01*
X134234358Y-88918860D01*
X134237048Y-88924111D01*
X134239211Y-88930481D01*
X134240908Y-88938371D01*
X134242197Y-88948178D01*
X134243136Y-88960305D01*
X134243785Y-88975152D01*
X134244204Y-88993118D01*
X134244452Y-89014605D01*
X134244588Y-89040012D01*
X134244670Y-89069738D01*
X134244759Y-89104187D01*
X134244829Y-89124481D01*
X134245565Y-89313167D01*
X134517317Y-89313167D01*
X134518053Y-89124481D01*
X134518169Y-89087370D01*
X134518248Y-89055192D01*
X134518348Y-89027547D01*
X134518530Y-89004034D01*
X134518850Y-88984253D01*
X134519370Y-88967804D01*
X134520148Y-88954287D01*
X134521244Y-88943300D01*
X134522717Y-88934445D01*
X134524626Y-88927320D01*
X134527030Y-88921527D01*
X134529989Y-88916663D01*
X134533561Y-88912329D01*
X134537806Y-88908126D01*
X134542784Y-88903651D01*
X134548553Y-88898506D01*
X134551949Y-88895374D01*
X134577977Y-88867731D01*
X134598989Y-88838336D01*
X134615055Y-88807037D01*
X134626245Y-88773683D01*
X134632632Y-88738125D01*
X134633970Y-88721105D01*
X134634284Y-88694834D01*
X134632235Y-88671188D01*
X134627498Y-88647867D01*
X134620377Y-88624395D01*
X134608260Y-88594833D01*
X134592812Y-88568105D01*
X134573240Y-88542943D01*
X134561460Y-88530350D01*
X134534386Y-88506153D01*
X134505743Y-88486905D01*
X134475145Y-88472355D01*
X134470235Y-88470516D01*
X134434418Y-88460248D01*
X134398480Y-88455156D01*
X134362837Y-88455149D01*
X134327907Y-88460132D01*
X134294106Y-88470013D01*
X134261852Y-88484698D01*
X134231563Y-88504096D01*
X134203657Y-88528114D01*
X134201422Y-88530350D01*
X134179450Y-88555203D01*
X134162007Y-88580977D01*
X134148296Y-88608940D01*
X134142505Y-88624395D01*
X134134971Y-88649486D01*
X134130427Y-88672757D01*
X134128548Y-88696506D01*
X134019456Y-88696506D01*
X134020071Y-88676409D01*
X134026276Y-88635004D01*
X134037186Y-88594762D01*
X134052592Y-88556085D01*
X134072286Y-88519372D01*
X134096056Y-88485026D01*
X134123695Y-88453446D01*
X134154993Y-88425032D01*
X134189739Y-88400187D01*
X134220267Y-88382953D01*
X134236777Y-88375518D01*
X134256614Y-88367925D01*
X134277834Y-88360831D01*
X134298491Y-88354893D01*
X134314125Y-88351252D01*
X134331088Y-88348784D01*
X134351719Y-88347197D01*
X134374424Y-88346490D01*
X134397609Y-88346666D01*
G37*
G36*
X134408909Y-92377393D02*
G01*
X134437545Y-92377479D01*
X134465149Y-92377625D01*
X134491194Y-92377831D01*
X134515147Y-92378097D01*
X134536479Y-92378423D01*
X134554659Y-92378808D01*
X134569157Y-92379253D01*
X134579443Y-92379759D01*
X134584986Y-92380322D01*
X134585293Y-92380391D01*
X134599092Y-92386308D01*
X134611541Y-92396109D01*
X134620865Y-92408366D01*
X134621544Y-92409644D01*
X134622524Y-92411712D01*
X134623373Y-92414057D01*
X134624103Y-92417050D01*
X134624721Y-92421065D01*
X134625237Y-92426472D01*
X134625659Y-92433646D01*
X134625998Y-92442958D01*
X134626262Y-92454781D01*
X134626461Y-92469488D01*
X134626604Y-92487450D01*
X134626699Y-92509040D01*
X134626758Y-92534631D01*
X134626789Y-92564596D01*
X134626799Y-92599306D01*
X134626799Y-92621735D01*
X134626799Y-92823523D01*
X134643204Y-92841059D01*
X134671787Y-92875365D01*
X134695910Y-92912288D01*
X134715384Y-92951441D01*
X134730024Y-92992441D01*
X134739638Y-93034903D01*
X134740267Y-93038892D01*
X134744123Y-93081379D01*
X134742900Y-93123275D01*
X134736842Y-93164230D01*
X134726199Y-93203894D01*
X134711219Y-93241919D01*
X134692146Y-93277955D01*
X134669231Y-93311652D01*
X134642720Y-93342659D01*
X134612861Y-93370630D01*
X134579901Y-93395215D01*
X134544089Y-93416063D01*
X134505671Y-93432825D01*
X134464895Y-93445153D01*
X134450196Y-93448337D01*
X134439108Y-93449988D01*
X134424463Y-93451444D01*
X134407661Y-93452642D01*
X134390100Y-93453516D01*
X134373181Y-93454002D01*
X134358304Y-93454035D01*
X134346868Y-93453549D01*
X134344104Y-93453266D01*
X134299737Y-93445151D01*
X134257470Y-93432407D01*
X134217627Y-93415205D01*
X134180527Y-93393718D01*
X134146494Y-93368117D01*
X134115847Y-93338573D01*
X134104221Y-93325220D01*
X134077885Y-93289384D01*
X134056395Y-93251721D01*
X134039739Y-93212607D01*
X134027906Y-93172417D01*
X134020884Y-93131525D01*
X134019462Y-93105167D01*
X134128598Y-93105167D01*
X134130647Y-93128813D01*
X134135384Y-93152133D01*
X134142505Y-93175606D01*
X134154623Y-93205169D01*
X134170070Y-93231896D01*
X134189642Y-93257058D01*
X134201422Y-93269651D01*
X134229154Y-93294094D01*
X134259368Y-93313953D01*
X134291666Y-93329096D01*
X134325643Y-93339395D01*
X134360898Y-93344723D01*
X134397029Y-93344946D01*
X134424900Y-93341611D01*
X134460355Y-93332926D01*
X134493213Y-93319635D01*
X134523707Y-93301618D01*
X134552066Y-93278751D01*
X134561460Y-93269651D01*
X134583432Y-93244798D01*
X134600875Y-93219024D01*
X134614586Y-93191061D01*
X134620377Y-93175606D01*
X134627911Y-93150515D01*
X134632455Y-93127245D01*
X134634334Y-93103495D01*
X134633970Y-93078896D01*
X134629755Y-93042282D01*
X134620768Y-93007940D01*
X134606938Y-92975720D01*
X134588195Y-92945474D01*
X134564468Y-92917049D01*
X134551949Y-92904628D01*
X134545737Y-92898966D01*
X134540348Y-92894186D01*
X134535723Y-92889889D01*
X134531800Y-92885674D01*
X134528524Y-92881141D01*
X134525834Y-92875889D01*
X134523670Y-92869520D01*
X134521975Y-92861631D01*
X134520685Y-92851823D01*
X134519746Y-92839696D01*
X134519097Y-92824849D01*
X134518678Y-92806883D01*
X134518430Y-92785396D01*
X134518295Y-92759989D01*
X134518212Y-92730262D01*
X134518123Y-92695814D01*
X134518053Y-92675520D01*
X134517317Y-92486834D01*
X134245565Y-92486834D01*
X134244829Y-92675520D01*
X134244713Y-92712631D01*
X134244634Y-92744809D01*
X134244534Y-92772454D01*
X134244353Y-92795967D01*
X134244032Y-92815748D01*
X134243512Y-92832197D01*
X134242734Y-92845714D01*
X134241638Y-92856701D01*
X134240165Y-92865556D01*
X134238256Y-92872681D01*
X134235852Y-92878474D01*
X134232893Y-92883339D01*
X134229321Y-92887672D01*
X134225076Y-92891875D01*
X134220098Y-92896350D01*
X134214330Y-92901495D01*
X134210933Y-92904628D01*
X134184905Y-92932270D01*
X134163894Y-92961665D01*
X134147828Y-92992965D01*
X134136637Y-93026318D01*
X134130251Y-93061876D01*
X134128913Y-93078896D01*
X134128598Y-93105167D01*
X134019462Y-93105167D01*
X134018660Y-93090308D01*
X134021222Y-93049139D01*
X134028559Y-93008395D01*
X134040658Y-92968451D01*
X134057509Y-92929680D01*
X134079096Y-92892460D01*
X134105411Y-92857165D01*
X134119678Y-92841059D01*
X134136082Y-92823523D01*
X134136082Y-92621735D01*
X134136086Y-92584105D01*
X134136103Y-92551436D01*
X134136144Y-92523357D01*
X134136217Y-92499494D01*
X134136332Y-92479474D01*
X134136497Y-92462927D01*
X134136721Y-92449479D01*
X134137017Y-92438757D01*
X134137389Y-92430390D01*
X134137850Y-92424004D01*
X134138408Y-92419228D01*
X134139072Y-92415688D01*
X134139851Y-92413013D01*
X134140754Y-92410830D01*
X134141338Y-92409644D01*
X134150262Y-92397224D01*
X134162483Y-92387119D01*
X134176228Y-92380759D01*
X134177589Y-92380391D01*
X134182557Y-92379820D01*
X134192328Y-92379308D01*
X134206372Y-92378856D01*
X134224159Y-92378463D01*
X134245158Y-92378131D01*
X134268838Y-92377858D01*
X134294671Y-92377646D01*
X134322124Y-92377492D01*
X134350669Y-92377399D01*
X134379774Y-92377365D01*
X134408909Y-92377393D01*
G37*
G36*
X133441384Y-89646397D02*
G01*
X133528512Y-89646405D01*
X133615318Y-89646419D01*
X133701637Y-89646438D01*
X133787302Y-89646464D01*
X133872146Y-89646495D01*
X133956003Y-89646532D01*
X134038708Y-89646574D01*
X134120092Y-89646622D01*
X134199991Y-89646676D01*
X134278239Y-89646735D01*
X134354667Y-89646800D01*
X134429111Y-89646871D01*
X134501404Y-89646948D01*
X134571379Y-89647030D01*
X134638871Y-89647118D01*
X134703713Y-89647212D01*
X134765738Y-89647312D01*
X134824780Y-89647417D01*
X134880673Y-89647528D01*
X134933251Y-89647643D01*
X134982347Y-89647767D01*
X135027795Y-89647895D01*
X135069429Y-89648028D01*
X135107082Y-89648168D01*
X135140588Y-89648313D01*
X135169780Y-89648464D01*
X135194493Y-89648621D01*
X135214559Y-89648782D01*
X135229814Y-89648950D01*
X135240089Y-89649124D01*
X135245219Y-89649303D01*
X135245509Y-89649328D01*
X135281371Y-89655578D01*
X135315181Y-89666582D01*
X135346594Y-89682039D01*
X135375263Y-89701646D01*
X135400843Y-89725108D01*
X135422987Y-89752120D01*
X135441349Y-89782383D01*
X135455586Y-89815597D01*
X135462191Y-89837550D01*
X135468222Y-89861224D01*
X135468222Y-91938776D01*
X135462191Y-91962451D01*
X135450689Y-91997342D01*
X135434846Y-92029471D01*
X135415005Y-92058536D01*
X135391517Y-92084235D01*
X135364724Y-92106268D01*
X135334972Y-92124336D01*
X135302608Y-92138137D01*
X135267978Y-92147372D01*
X135245509Y-92150673D01*
X135241319Y-92150830D01*
X135231962Y-92150981D01*
X135217604Y-92151127D01*
X135198410Y-92151268D01*
X135174546Y-92151404D01*
X135146179Y-92151535D01*
X135113475Y-92151661D01*
X135076597Y-92151783D01*
X135035713Y-92151897D01*
X134990990Y-92152008D01*
X134942592Y-92152113D01*
X134890685Y-92152213D01*
X134835437Y-92152309D01*
X134777010Y-92152399D01*
X134715574Y-92152484D01*
X134651292Y-92152564D01*
X134584331Y-92152639D01*
X134514857Y-92152709D01*
X134443035Y-92152774D01*
X134369032Y-92152834D01*
X134293014Y-92152888D01*
X134215145Y-92152938D01*
X134135593Y-92152983D01*
X134054523Y-92153023D01*
X133972100Y-92153058D01*
X133888492Y-92153087D01*
X133803863Y-92153112D01*
X133718379Y-92153132D01*
X133632207Y-92153147D01*
X133545512Y-92153157D01*
X133458460Y-92153161D01*
X133371217Y-92153161D01*
X133283949Y-92153156D01*
X133196822Y-92153146D01*
X133110002Y-92153131D01*
X133023653Y-92153112D01*
X132937944Y-92153087D01*
X132853039Y-92153057D01*
X132769103Y-92153023D01*
X132686303Y-92152983D01*
X132604806Y-92152939D01*
X132524776Y-92152889D01*
X132446380Y-92152835D01*
X132369783Y-92152776D01*
X132295153Y-92152712D01*
X132222652Y-92152643D01*
X132152449Y-92152569D01*
X132084709Y-92152491D01*
X132019598Y-92152408D01*
X131957281Y-92152319D01*
X131897926Y-92152227D01*
X131841696Y-92152128D01*
X131788760Y-92152024D01*
X131739281Y-92151918D01*
X131693426Y-92151806D01*
X131651362Y-92151688D01*
X131613253Y-92151565D01*
X131579266Y-92151440D01*
X131549567Y-92151308D01*
X131524321Y-92151172D01*
X131503694Y-92151030D01*
X131487853Y-92150885D01*
X131476963Y-92150734D01*
X131471191Y-92150578D01*
X131470469Y-92150530D01*
X131436187Y-92144348D01*
X131403554Y-92133334D01*
X131372971Y-92117849D01*
X131344844Y-92098249D01*
X131319576Y-92074890D01*
X131297571Y-92048130D01*
X131279233Y-92018324D01*
X131264965Y-91985833D01*
X131257810Y-91962452D01*
X131251779Y-91938776D01*
X131251779Y-91216464D01*
X131360261Y-91216464D01*
X131360264Y-91290502D01*
X131360281Y-91361076D01*
X131360313Y-91428071D01*
X131360358Y-91491370D01*
X131360417Y-91550858D01*
X131360490Y-91606419D01*
X131360576Y-91657938D01*
X131360674Y-91705295D01*
X131360786Y-91748379D01*
X131360910Y-91787071D01*
X131361047Y-91821255D01*
X131361195Y-91850817D01*
X131361356Y-91875640D01*
X131361530Y-91895607D01*
X131361715Y-91910604D01*
X131361911Y-91920513D01*
X131362117Y-91925220D01*
X131362146Y-91925441D01*
X131368709Y-91951535D01*
X131379672Y-91975253D01*
X131394572Y-91996127D01*
X131412944Y-92013700D01*
X131434326Y-92027509D01*
X131458255Y-92037093D01*
X131478470Y-92041348D01*
X131481971Y-92041460D01*
X131490671Y-92041570D01*
X131504431Y-92041677D01*
X131523119Y-92041781D01*
X131546595Y-92041883D01*
X131574724Y-92041981D01*
X131607370Y-92042077D01*
X131644396Y-92042170D01*
X131685667Y-92042259D01*
X131731048Y-92042344D01*
X131780400Y-92042426D01*
X131833589Y-92042505D01*
X131890477Y-92042579D01*
X131950930Y-92042650D01*
X132014810Y-92042716D01*
X132081981Y-92042779D01*
X132152310Y-92042837D01*
X132225656Y-92042890D01*
X132301886Y-92042939D01*
X132380863Y-92042983D01*
X132462451Y-92043022D01*
X132546513Y-92043057D01*
X132632914Y-92043086D01*
X132721518Y-92043110D01*
X132812187Y-92043128D01*
X132904786Y-92043142D01*
X132999180Y-92043149D01*
X133095231Y-92043151D01*
X133192805Y-92043147D01*
X133291763Y-92043136D01*
X133370668Y-92043124D01*
X133490626Y-92043101D01*
X133605366Y-92043081D01*
X133715007Y-92043060D01*
X133819664Y-92043036D01*
X133919454Y-92043013D01*
X134014495Y-92042989D01*
X134104904Y-92042963D01*
X134190796Y-92042935D01*
X134272289Y-92042906D01*
X134349500Y-92042874D01*
X134422546Y-92042840D01*
X134491542Y-92042801D01*
X134556609Y-92042759D01*
X134617859Y-92042714D01*
X134675412Y-92042665D01*
X134729384Y-92042611D01*
X134779892Y-92042553D01*
X134827052Y-92042488D01*
X134870982Y-92042420D01*
X134911797Y-92042346D01*
X134949617Y-92042265D01*
X134984556Y-92042178D01*
X135016733Y-92042085D01*
X135046263Y-92041985D01*
X135073263Y-92041877D01*
X135097852Y-92041761D01*
X135120143Y-92041638D01*
X135140258Y-92041506D01*
X135158310Y-92041366D01*
X135174416Y-92041216D01*
X135188695Y-92041058D01*
X135201262Y-92040890D01*
X135212234Y-92040711D01*
X135221729Y-92040523D01*
X135229863Y-92040324D01*
X135236753Y-92040115D01*
X135242516Y-92039894D01*
X135247269Y-92039661D01*
X135251128Y-92039417D01*
X135254211Y-92039160D01*
X135256634Y-92038892D01*
X135258514Y-92038609D01*
X135259968Y-92038314D01*
X135261113Y-92038006D01*
X135261533Y-92037871D01*
X135287402Y-92026586D01*
X135309859Y-92011331D01*
X135328640Y-91992361D01*
X135343484Y-91969931D01*
X135352645Y-91948821D01*
X135358877Y-91930775D01*
X135358877Y-89869226D01*
X135352645Y-89851180D01*
X135341276Y-89826073D01*
X135325788Y-89804220D01*
X135306519Y-89785949D01*
X135283809Y-89771585D01*
X135260200Y-89762112D01*
X135259063Y-89761800D01*
X135257663Y-89761501D01*
X135255881Y-89761215D01*
X135253603Y-89760942D01*
X135250711Y-89760682D01*
X135247088Y-89760434D01*
X135242617Y-89760199D01*
X135237183Y-89759975D01*
X135230668Y-89759762D01*
X135222955Y-89759561D01*
X135213929Y-89759371D01*
X135203472Y-89759191D01*
X135191468Y-89759021D01*
X135177799Y-89758862D01*
X135162350Y-89758712D01*
X135145004Y-89758570D01*
X135125643Y-89758441D01*
X135104151Y-89758317D01*
X135080413Y-89758203D01*
X135054310Y-89758097D01*
X135025727Y-89757998D01*
X134994546Y-89757908D01*
X134960651Y-89757824D01*
X134923926Y-89757748D01*
X134884252Y-89757678D01*
X134841515Y-89757614D01*
X134795597Y-89757557D01*
X134746383Y-89757505D01*
X134693753Y-89757459D01*
X134637592Y-89757418D01*
X134577784Y-89757381D01*
X134514212Y-89757350D01*
X134446759Y-89757322D01*
X134375308Y-89757298D01*
X134299745Y-89757279D01*
X134219950Y-89757262D01*
X134135807Y-89757249D01*
X134047200Y-89757238D01*
X133954012Y-89757229D01*
X133856127Y-89757223D01*
X133753427Y-89757219D01*
X133645796Y-89757216D01*
X133533119Y-89757215D01*
X133415277Y-89757214D01*
X133239774Y-89757214D01*
X133124764Y-89757215D01*
X133014855Y-89757217D01*
X132909930Y-89757220D01*
X132809872Y-89757226D01*
X132714564Y-89757234D01*
X132623891Y-89757243D01*
X132537734Y-89757256D01*
X132455977Y-89757271D01*
X132378506Y-89757289D01*
X132305201Y-89757311D01*
X132235947Y-89757337D01*
X132170626Y-89757366D01*
X132109122Y-89757400D01*
X132051319Y-89757440D01*
X131997099Y-89757483D01*
X131946347Y-89757532D01*
X131898946Y-89757587D01*
X131854778Y-89757648D01*
X131813728Y-89757715D01*
X131775677Y-89757788D01*
X131740511Y-89757869D01*
X131708111Y-89757956D01*
X131678362Y-89758051D01*
X131651147Y-89758154D01*
X131626349Y-89758264D01*
X131603851Y-89758383D01*
X131583537Y-89758510D01*
X131565290Y-89758647D01*
X131548993Y-89758793D01*
X131534530Y-89758948D01*
X131521784Y-89759113D01*
X131510639Y-89759288D01*
X131500977Y-89759473D01*
X131492682Y-89759670D01*
X131485637Y-89759877D01*
X131479726Y-89760096D01*
X131474833Y-89760326D01*
X131470840Y-89760568D01*
X131467630Y-89760822D01*
X131465086Y-89761089D01*
X131463093Y-89761369D01*
X131461534Y-89761662D01*
X131460293Y-89761968D01*
X131459800Y-89762112D01*
X131434091Y-89772590D01*
X131411717Y-89787210D01*
X131392802Y-89805854D01*
X131377476Y-89828404D01*
X131368252Y-89848212D01*
X131361124Y-89866559D01*
X131360393Y-90887999D01*
X131360338Y-90974731D01*
X131360297Y-91058463D01*
X131360272Y-91139078D01*
X131360261Y-91216464D01*
X131251779Y-91216464D01*
X131251779Y-89861225D01*
X131257810Y-89837550D01*
X131269312Y-89802658D01*
X131285155Y-89770529D01*
X131304995Y-89741465D01*
X131328485Y-89715766D01*
X131355276Y-89693733D01*
X131385028Y-89675665D01*
X131417393Y-89661864D01*
X131452023Y-89652629D01*
X131474492Y-89649328D01*
X131478914Y-89649148D01*
X131488504Y-89648973D01*
X131503095Y-89648805D01*
X131522521Y-89648643D01*
X131546615Y-89648484D01*
X131575212Y-89648333D01*
X131608145Y-89648188D01*
X131645247Y-89648047D01*
X131686352Y-89647912D01*
X131731295Y-89647784D01*
X131779907Y-89647661D01*
X131832024Y-89647542D01*
X131887479Y-89647432D01*
X131946106Y-89647326D01*
X132007738Y-89647225D01*
X132072208Y-89647131D01*
X132139351Y-89647042D01*
X132209001Y-89646959D01*
X132280990Y-89646881D01*
X132355153Y-89646810D01*
X132431323Y-89646744D01*
X132509334Y-89646683D01*
X132589020Y-89646629D01*
X132670214Y-89646580D01*
X132752750Y-89646537D01*
X132836461Y-89646499D01*
X132921181Y-89646468D01*
X133006745Y-89646442D01*
X133092985Y-89646421D01*
X133179735Y-89646406D01*
X133266830Y-89646398D01*
X133354101Y-89646394D01*
X133441384Y-89646397D01*
G37*
D13*
%TO.C,J4*%
X159370163Y-61460296D02*
X157066535Y-62790296D01*
X162176535Y-71641076D02*
X157066535Y-62790296D01*
X163476535Y-73892742D02*
X162811535Y-72740928D01*
X164480163Y-70311076D02*
X159370163Y-61460296D01*
X164480163Y-70311076D02*
X162176535Y-71641076D01*
X164628349Y-73227742D02*
X163476535Y-73892742D01*
%TO.C,C7*%
X142776233Y-76790000D02*
X143068766Y-76790000D01*
X142776234Y-77810000D02*
X143068767Y-77810000D01*
%TO.C,J1*%
X114403186Y-87413777D02*
X115555000Y-86748777D01*
X115068186Y-88565591D02*
X114403186Y-87413777D01*
X115703186Y-89665443D02*
X118006814Y-88335443D01*
X115703186Y-89665443D02*
X120813186Y-98516223D01*
X118006814Y-88335443D02*
X123116814Y-97186223D01*
X120813186Y-98516223D02*
X123116814Y-97186223D01*
%TO.C,C4*%
X160325276Y-74800211D02*
X160578618Y-74653944D01*
X160835276Y-75683556D02*
X161088618Y-75537289D01*
%TO.C,J5*%
X133650000Y-54070000D02*
X133650000Y-56730000D01*
X143870000Y-54070000D02*
X133650000Y-54070000D01*
X143870000Y-54070000D02*
X143870000Y-56730000D01*
X143870000Y-56730000D02*
X133650000Y-56730000D01*
X145140000Y-54070000D02*
X146470000Y-54070000D01*
X146470000Y-54070000D02*
X146470000Y-55400000D01*
%TO.C,TP1*%
X123360000Y-50300000D02*
X125760000Y-50300000D01*
X123360000Y-52700000D02*
X123360000Y-50300000D01*
X125760000Y-50300000D02*
X125760000Y-52700000D01*
X125760000Y-52700000D02*
X123360000Y-52700000D01*
%TO.C,U2*%
X130600000Y-70215000D02*
X130600000Y-69980000D01*
X130600000Y-73960000D02*
X130600000Y-73485000D01*
X131075000Y-69740000D02*
X130900000Y-69740000D01*
X131075000Y-73960000D02*
X130600000Y-73960000D01*
X134345000Y-69740000D02*
X134820000Y-69740000D01*
X134345000Y-73960000D02*
X134820000Y-73960000D01*
X134820000Y-69740000D02*
X134820000Y-70215000D01*
X134820000Y-73960000D02*
X134820000Y-73485000D01*
X130600000Y-69740000D02*
X130360000Y-69410000D01*
X130840000Y-69410000D01*
X130600000Y-69740000D01*
G36*
X130600000Y-69740000D02*
G01*
X130360000Y-69410000D01*
X130840000Y-69410000D01*
X130600000Y-69740000D01*
G37*
%TO.C,C14*%
X124200000Y-72996267D02*
X124200000Y-72703733D01*
X125220000Y-72996267D02*
X125220000Y-72703733D01*
%TO.C,C10*%
X125543766Y-89810000D02*
X125251233Y-89809999D01*
X125543767Y-88790001D02*
X125251234Y-88790000D01*
D15*
%TO.C,LED2*%
X140210785Y-90719802D02*
X139431362Y-90269802D01*
X139881362Y-89490379D01*
X140210785Y-90719802D01*
G36*
X140210785Y-90719802D02*
G01*
X139431362Y-90269802D01*
X139881362Y-89490379D01*
X140210785Y-90719802D01*
G37*
%TO.C,LED11*%
X119560000Y-85251904D02*
X118660000Y-85251904D01*
X118660000Y-84351904D01*
X119560000Y-85251904D01*
G36*
X119560000Y-85251904D02*
G01*
X118660000Y-85251904D01*
X118660000Y-84351904D01*
X119560000Y-85251904D01*
G37*
%TO.C,LED8*%
X138010000Y-71121902D02*
X137110002Y-71121904D01*
X137110000Y-70221903D01*
X138010000Y-71121902D01*
G36*
X138010000Y-71121902D02*
G01*
X137110002Y-71121904D01*
X137110000Y-70221903D01*
X138010000Y-71121902D01*
G37*
%TO.C,LED9*%
X137110000Y-61721904D02*
X136210000Y-61721904D01*
X136210000Y-60821904D01*
X137110000Y-61721904D01*
G36*
X137110000Y-61721904D02*
G01*
X136210000Y-61721904D01*
X136210000Y-60821904D01*
X137110000Y-61721904D01*
G37*
%TO.C,LED1*%
X137510000Y-102921904D02*
X136610000Y-102921904D01*
X136610000Y-102021904D01*
X137510000Y-102921904D01*
G36*
X137510000Y-102921904D02*
G01*
X136610000Y-102921904D01*
X136610000Y-102021904D01*
X137510000Y-102921904D01*
G37*
%TO.C,LED3*%
X146698881Y-79188815D02*
X145919458Y-78738815D01*
X146369458Y-77959392D01*
X146698881Y-79188815D01*
G36*
X146698881Y-79188815D02*
G01*
X145919458Y-78738815D01*
X146369458Y-77959392D01*
X146698881Y-79188815D01*
G37*
%TO.C,LED5*%
X157229802Y-95633418D02*
X156450380Y-95183418D01*
X157679802Y-94853995D01*
X157229802Y-95633418D01*
G36*
X157229802Y-95633418D02*
G01*
X156450380Y-95183418D01*
X157679802Y-94853995D01*
X157229802Y-95633418D01*
G37*
%TO.C,LED13*%
X120419802Y-75753418D02*
X119640379Y-75303418D01*
X120869802Y-74973995D01*
X120419802Y-75753418D01*
G36*
X120419802Y-75753418D02*
G01*
X119640379Y-75303418D01*
X120869802Y-74973995D01*
X120419802Y-75753418D01*
G37*
%TO.C,LED6*%
X149129802Y-92033418D02*
X148350379Y-91583418D01*
X149579802Y-91253995D01*
X149129802Y-92033418D01*
G36*
X149129802Y-92033418D02*
G01*
X148350379Y-91583418D01*
X149579802Y-91253995D01*
X149129802Y-92033418D01*
G37*
%TO.C,LED10*%
X117141159Y-87457909D02*
X116691159Y-86678486D01*
X117470582Y-86228486D01*
X117141159Y-87457909D01*
G36*
X117141159Y-87457909D02*
G01*
X116691159Y-86678486D01*
X117470582Y-86228486D01*
X117141159Y-87457909D01*
G37*
%TO.C,LED4*%
X155161479Y-68598175D02*
X154711479Y-67818752D01*
X155490902Y-67368752D01*
X155161479Y-68598175D01*
G36*
X155161479Y-68598175D02*
G01*
X154711479Y-67818752D01*
X155490902Y-67368752D01*
X155161479Y-68598175D01*
G37*
%TO.C,LED7*%
X140210000Y-82421904D02*
X139310000Y-82421904D01*
X139310000Y-81521904D01*
X140210000Y-82421904D01*
G36*
X140210000Y-82421904D02*
G01*
X139310000Y-82421904D01*
X139310000Y-81521904D01*
X140210000Y-82421904D01*
G37*
%TO.C,LED12*%
X119560000Y-79311904D02*
X118660000Y-79311904D01*
X118660000Y-78411904D01*
X119560000Y-79311904D01*
G36*
X119560000Y-79311904D02*
G01*
X118660000Y-79311904D01*
X118660000Y-78411904D01*
X119560000Y-79311904D01*
G37*
%TD*%
M02*
