%TF.GenerationSoftware,KiCad,Pcbnew,8.0.8*%
%TF.CreationDate,2025-04-07T13:45:20-04:00*%
%TF.ProjectId,pcb_tile_game_tile_ssa,7063625f-7469-46c6-955f-67616d655f74,1.0*%
%TF.SameCoordinates,Original*%
%TF.FileFunction,Copper,L2,Bot*%
%TF.FilePolarity,Positive*%
%FSLAX46Y46*%
G04 Gerber Fmt 4.6, Leading zero omitted, Abs format (unit mm)*
G04 Created by KiCad (PCBNEW 8.0.8) date 2025-04-07 13:45:20*
%MOMM*%
%LPD*%
G01*
G04 APERTURE LIST*
G04 Aperture macros list*
%AMHorizOval*
0 Thick line with rounded ends*
0 $1 width*
0 $2 $3 position (X,Y) of the first rounded end (center of the circle)*
0 $4 $5 position (X,Y) of the second rounded end (center of the circle)*
0 Add line between two ends*
20,1,$1,$2,$3,$4,$5,0*
0 Add two circle primitives to create the rounded ends*
1,1,$1,$2,$3*
1,1,$1,$4,$5*%
%AMRotRect*
0 Rectangle, with rotation*
0 The origin of the aperture is its center*
0 $1 length*
0 $2 width*
0 $3 Rotation angle, in degrees counterclockwise*
0 Add horizontal line*
21,1,$1,$2,0,0,$3*%
G04 Aperture macros list end*
%TA.AperFunction,ComponentPad*%
%ADD10R,1.700000X1.700000*%
%TD*%
%TA.AperFunction,ComponentPad*%
%ADD11O,1.700000X1.700000*%
%TD*%
%TA.AperFunction,ComponentPad*%
%ADD12RotRect,1.700000X1.700000X150.000000*%
%TD*%
%TA.AperFunction,ComponentPad*%
%ADD13HorizOval,1.700000X0.000000X0.000000X0.000000X0.000000X0*%
%TD*%
%TA.AperFunction,ComponentPad*%
%ADD14RotRect,1.700000X1.700000X330.000000*%
%TD*%
%TA.AperFunction,ComponentPad*%
%ADD15HorizOval,1.700000X0.000000X0.000000X0.000000X0.000000X0*%
%TD*%
%TA.AperFunction,ComponentPad*%
%ADD16RotRect,1.700000X1.700000X210.000000*%
%TD*%
%TA.AperFunction,ComponentPad*%
%ADD17HorizOval,1.700000X0.000000X0.000000X0.000000X0.000000X0*%
%TD*%
%TA.AperFunction,ComponentPad*%
%ADD18RotRect,1.700000X1.700000X30.000000*%
%TD*%
%TA.AperFunction,ComponentPad*%
%ADD19HorizOval,1.700000X0.000000X0.000000X0.000000X0.000000X0*%
%TD*%
%TA.AperFunction,ViaPad*%
%ADD20C,0.600000*%
%TD*%
%TA.AperFunction,Conductor*%
%ADD21C,0.200000*%
%TD*%
G04 APERTURE END LIST*
D10*
%TO.P,J2,1,Pin_1*%
%TO.N,VCC*%
X134980000Y-104600000D03*
D11*
%TO.P,J2,2,Pin_2*%
%TO.N,/TX_J2*%
X137520000Y-104600000D03*
%TO.P,J2,3,Pin_3*%
%TO.N,/DATA_J2*%
X140060000Y-104600000D03*
%TO.P,J2,4,Pin_4*%
%TO.N,/RX_J2*%
X142600000Y-104600000D03*
%TO.P,J2,5,Pin_5*%
%TO.N,GND*%
X145140000Y-104600000D03*
%TD*%
D12*
%TO.P,J3,1,Pin_1*%
%TO.N,GND*%
X158920000Y-96689409D03*
D13*
%TO.P,J3,2,Pin_2*%
%TO.N,/TX_J3*%
X160190000Y-94489704D03*
%TO.P,J3,3,Pin_3*%
%TO.N,/DATA_J3*%
X161460000Y-92290000D03*
%TO.P,J3,4,Pin_4*%
%TO.N,/RX_J3*%
X162730000Y-90090295D03*
%TO.P,J3,5,Pin_5*%
%TO.N,VCC*%
X164000000Y-87890591D03*
%TD*%
D14*
%TO.P,J6,1,Pin_1*%
%TO.N,VCC*%
X121300000Y-63300591D03*
D15*
%TO.P,J6,2,Pin_2*%
%TO.N,/TX_J6*%
X120030000Y-65500296D03*
%TO.P,J6,3,Pin_3*%
%TO.N,/DATA_J6*%
X118760000Y-67700000D03*
%TO.P,J6,4,Pin_4*%
%TO.N,/RX_J6*%
X117490000Y-69899705D03*
%TO.P,J6,5,Pin_5*%
%TO.N,GND*%
X116220000Y-72099409D03*
%TD*%
D16*
%TO.P,J4,1,Pin_1*%
%TO.N,VCC*%
X163963349Y-72075928D03*
D17*
%TO.P,J4,2,Pin_2*%
%TO.N,/TX_J4*%
X162693349Y-69876223D03*
%TO.P,J4,3,Pin_3*%
%TO.N,/DATA_J4*%
X161423349Y-67676519D03*
%TO.P,J4,4,Pin_4*%
%TO.N,/RX_J4*%
X160153349Y-65476814D03*
%TO.P,J4,5,Pin_5*%
%TO.N,GND*%
X158883349Y-63277110D03*
%TD*%
D18*
%TO.P,J1,1,Pin_1*%
%TO.N,GND*%
X116220000Y-87900591D03*
D19*
%TO.P,J1,2,Pin_2*%
%TO.N,/TX_J1*%
X117490000Y-90100296D03*
%TO.P,J1,3,Pin_3*%
%TO.N,/DATA_J1*%
X118760000Y-92300000D03*
%TO.P,J1,4,Pin_4*%
%TO.N,/RX_J1*%
X120030000Y-94499705D03*
%TO.P,J1,5,Pin_5*%
%TO.N,VCC*%
X121300000Y-96699409D03*
%TD*%
D10*
%TO.P,J5,1,Pin_1*%
%TO.N,GND*%
X145140000Y-55400000D03*
D11*
%TO.P,J5,2,Pin_2*%
%TO.N,/TX_J5*%
X142600000Y-55400000D03*
%TO.P,J5,3,Pin_3*%
%TO.N,/DATA_J5*%
X140060000Y-55400000D03*
%TO.P,J5,4,Pin_4*%
%TO.N,/RX_J5*%
X137520000Y-55400000D03*
%TO.P,J5,5,Pin_5*%
%TO.N,VCC*%
X134980000Y-55400000D03*
%TD*%
D20*
%TO.N,VCC*%
X126510000Y-82171285D03*
X126460000Y-67400000D03*
X145460000Y-77300000D03*
X155160000Y-80400000D03*
X126460000Y-77300000D03*
X122860000Y-67700000D03*
X159185480Y-87550000D03*
X123560000Y-88200000D03*
X152460000Y-83100000D03*
X143660000Y-66300000D03*
X144760000Y-58900000D03*
X146460000Y-98700000D03*
X147753667Y-92012907D03*
X126160000Y-73712500D03*
X161360000Y-73500000D03*
%TO.N,Net-(LED1-DOUT)*%
X137860000Y-88400000D03*
X137760000Y-98000000D03*
X144960000Y-101600000D03*
X144960000Y-98100000D03*
%TO.N,Net-(LED2-DOUT)*%
X138860000Y-93200000D03*
X138860000Y-76300000D03*
%TO.N,Net-(LED3-DOUT)*%
X154560000Y-81500000D03*
X154560000Y-66700000D03*
%TO.N,Net-(LED5-DOUT)*%
X145960000Y-88500000D03*
X157960000Y-86900000D03*
X149960000Y-91900000D03*
X160460000Y-86900000D03*
%TO.N,/DATA_J1*%
X128560000Y-93099998D03*
X128560000Y-75300000D03*
%TO.N,/TX_J1*%
X121376017Y-85661070D03*
X127850928Y-85600000D03*
X127850928Y-74750000D03*
%TO.N,/RX_J1*%
X129460000Y-94500000D03*
X129460000Y-75900000D03*
%TO.N,/TX_J2*%
X132110222Y-76219506D03*
%TO.N,/DATA_J2*%
X132810000Y-76744159D03*
%TO.N,/RX_J2*%
X133460000Y-77400000D03*
%TO.N,/RX_J3*%
X157260000Y-73100000D03*
X162760000Y-78900000D03*
X157260000Y-78900000D03*
%TO.N,/DATA_J3*%
X135760000Y-95900000D03*
X156560000Y-95900000D03*
X135610000Y-75000000D03*
%TO.N,/TX_J3*%
X134959999Y-96899999D03*
X156460000Y-97000000D03*
X134860000Y-76400000D03*
%TO.N,/TX_J4*%
X153760000Y-76800000D03*
X153760000Y-72300000D03*
X162460000Y-76800000D03*
%TO.N,/RX_J4*%
X149360000Y-65500000D03*
X149360000Y-71100000D03*
%TO.N,/DATA_J4*%
X150260000Y-66100000D03*
X150260000Y-71600000D03*
%TO.N,/UPDI*%
X124560000Y-51500000D03*
X125660000Y-69200000D03*
%TO.N,/RX_J5*%
X132054139Y-67496185D03*
%TO.N,/TX_J5*%
X133610000Y-68400000D03*
%TO.N,/DATA_J5*%
X132960000Y-66999998D03*
%TO.N,Net-(LED7-DOUT)*%
X136960000Y-82700000D03*
X136960000Y-68300000D03*
%TO.N,Net-(LED6-DOUT)*%
X149760000Y-83400000D03*
X139160000Y-79600000D03*
X139160000Y-83300000D03*
X151760000Y-84200000D03*
%TO.N,Net-(LED11-DOUT)*%
X127060000Y-75400000D03*
X127160000Y-83900000D03*
%TO.N,/DATA_J6*%
X123960000Y-66900000D03*
X123960000Y-70400000D03*
%TO.N,/RX_J6*%
X123476386Y-71130021D03*
%TO.N,/TX_J6*%
X124610002Y-65649998D03*
X124822352Y-69950000D03*
%TO.N,/LED_J1-J6*%
X130460000Y-76200000D03*
X130460000Y-86300000D03*
%TO.N,/LED_J2-J5*%
X134110000Y-75059620D03*
X134264952Y-97645056D03*
%TO.N,/LED_J3-J4*%
X136260000Y-69800000D03*
X136410000Y-94050000D03*
%TO.N,Net-(LED10-DOUT)*%
X124960000Y-92400000D03*
X124960000Y-80700000D03*
%TO.N,Net-(LED8-DOUT)*%
X134410002Y-59000000D03*
X145660000Y-69900000D03*
X145660000Y-63000000D03*
X134410002Y-63000000D03*
%TO.N,Net-(LED12-DOUT)*%
X118060000Y-79500000D03*
X118060000Y-74400000D03*
%TD*%
D21*
%TO.N,Net-(LED1-DOUT)*%
X137760000Y-98000000D02*
X137760000Y-88500000D01*
X137760000Y-88500000D02*
X137860000Y-88400000D01*
X144960000Y-101600000D02*
X144960000Y-98100000D01*
%TO.N,Net-(LED2-DOUT)*%
X138510000Y-92850000D02*
X138510000Y-76650000D01*
X138860000Y-93200000D02*
X138510000Y-92850000D01*
X138510000Y-76650000D02*
X138860000Y-76300000D01*
%TO.N,Net-(LED3-DOUT)*%
X154560000Y-81500000D02*
X154560000Y-66700000D01*
%TO.N,Net-(LED5-DOUT)*%
X149360000Y-91900000D02*
X149960000Y-91900000D01*
X160460000Y-86900000D02*
X157960000Y-86900000D01*
X145960000Y-88500000D02*
X149360000Y-91900000D01*
%TO.N,/DATA_J1*%
X128560000Y-75300000D02*
X128560000Y-92000000D01*
X128560000Y-92000000D02*
X128560000Y-93099998D01*
%TO.N,/TX_J1*%
X117721860Y-89868436D02*
X117721860Y-88036549D01*
X120097339Y-85661070D02*
X121376017Y-85661070D01*
X117721860Y-88036549D02*
X120097339Y-85661070D01*
X117490000Y-90100296D02*
X117721860Y-89868436D01*
X127850928Y-74750000D02*
X127850928Y-85600000D01*
%TO.N,/RX_J1*%
X129460000Y-93800000D02*
X129460000Y-94500000D01*
X129460000Y-75900000D02*
X129460000Y-93800000D01*
%TO.N,/TX_J2*%
X132110222Y-99190222D02*
X132110222Y-76219506D01*
X137520000Y-104600000D02*
X132110222Y-99190222D01*
%TO.N,/DATA_J2*%
X132810000Y-98050000D02*
X132810000Y-76744159D01*
X139360000Y-104600000D02*
X132810000Y-98050000D01*
%TO.N,/RX_J2*%
X141450000Y-103450000D02*
X142600000Y-104600000D01*
X133460000Y-77400000D02*
X133460000Y-97759343D01*
X133460000Y-97759343D02*
X139150657Y-103450000D01*
X139150657Y-103450000D02*
X141450000Y-103450000D01*
%TO.N,/RX_J3*%
X162730000Y-78930000D02*
X162760000Y-78900000D01*
X157260000Y-73100000D02*
X157260000Y-78900000D01*
X162730000Y-90090295D02*
X162730000Y-78930000D01*
%TO.N,/DATA_J3*%
X135760000Y-95900000D02*
X135760000Y-75150000D01*
X156560000Y-95900000D02*
X160170000Y-92290000D01*
X135760000Y-75150000D02*
X135610000Y-75000000D01*
X160170000Y-92290000D02*
X161460000Y-92290000D01*
%TO.N,/TX_J3*%
X134860000Y-76400000D02*
X134860000Y-96800000D01*
X158970296Y-94489704D02*
X156460000Y-97000000D01*
X134860000Y-96800000D02*
X134959999Y-96899999D01*
X160190000Y-94489704D02*
X158970296Y-94489704D01*
%TO.N,/TX_J4*%
X162693349Y-69876223D02*
X161843349Y-70726223D01*
X161843349Y-73083349D02*
X162460000Y-73700000D01*
X161843349Y-70726223D02*
X161843349Y-73083349D01*
X153760000Y-76800000D02*
X153760000Y-72300000D01*
X162460000Y-73700000D02*
X162460000Y-76800000D01*
%TO.N,/RX_J4*%
X149360000Y-71100000D02*
X149360000Y-65800000D01*
X149360000Y-65800000D02*
X149360000Y-65500000D01*
%TO.N,/DATA_J4*%
X150260000Y-71600000D02*
X150260000Y-66100000D01*
%TO.N,/UPDI*%
X125660000Y-52600000D02*
X124560000Y-51500000D01*
X125660000Y-69200000D02*
X125660000Y-52600000D01*
%TO.N,/RX_J5*%
X132054139Y-58205861D02*
X132054139Y-67496185D01*
X136370000Y-56550000D02*
X133710000Y-56550000D01*
X136370000Y-56550000D02*
X137520000Y-55400000D01*
X133710000Y-56550000D02*
X132054139Y-58205861D01*
%TO.N,/TX_J5*%
X133760000Y-58300000D02*
X134560000Y-57500000D01*
X133760000Y-68250000D02*
X133760000Y-58300000D01*
X134560000Y-57500000D02*
X140500000Y-57500000D01*
X140500000Y-57500000D02*
X142600000Y-55400000D01*
X133610000Y-68400000D02*
X133760000Y-68250000D01*
%TO.N,/DATA_J5*%
X138360000Y-57100000D02*
X140060000Y-55400000D01*
X138360000Y-57100000D02*
X134060000Y-57100000D01*
X134060000Y-57100000D02*
X132960000Y-58200000D01*
X132960000Y-58200000D02*
X132960000Y-66999998D01*
%TO.N,Net-(LED7-DOUT)*%
X136960000Y-68300000D02*
X136960000Y-82700000D01*
%TO.N,Net-(LED6-DOUT)*%
X150960000Y-83400000D02*
X149760000Y-83400000D01*
X139160000Y-83300000D02*
X139160000Y-79600000D01*
X151760000Y-84200000D02*
X150960000Y-83400000D01*
%TO.N,Net-(LED11-DOUT)*%
X127160000Y-83900000D02*
X127160000Y-75500000D01*
X127160000Y-75500000D02*
X127060000Y-75400000D01*
%TO.N,/DATA_J6*%
X123960000Y-70400000D02*
X123960000Y-67700000D01*
X123960000Y-67700000D02*
X123960000Y-66900000D01*
%TO.N,/RX_J6*%
X123345858Y-70085858D02*
X121749951Y-68489951D01*
X121749951Y-68489951D02*
X119596395Y-68489951D01*
X123476386Y-71130021D02*
X123345858Y-70999493D01*
X123345858Y-70999493D02*
X123345858Y-70085858D01*
X119596395Y-68489951D02*
X118186641Y-69899705D01*
X118186641Y-69899705D02*
X117490000Y-69899705D01*
%TO.N,/TX_J6*%
X124610002Y-65649998D02*
X124822352Y-65862348D01*
X124822352Y-65862348D02*
X124822352Y-69950000D01*
%TO.N,/LED_J1-J6*%
X130460000Y-76200000D02*
X130460000Y-86300000D01*
%TO.N,/LED_J2-J5*%
X134110000Y-75059620D02*
X134110000Y-97490104D01*
X134110000Y-97490104D02*
X134264952Y-97645056D01*
%TO.N,/LED_J3-J4*%
X136260000Y-69800000D02*
X136260000Y-93900000D01*
X136260000Y-93900000D02*
X136410000Y-94050000D01*
%TO.N,Net-(LED10-DOUT)*%
X125016806Y-92343194D02*
X125016806Y-80756806D01*
X124960000Y-92400000D02*
X125016806Y-92343194D01*
X125016806Y-80756806D02*
X124960000Y-80700000D01*
%TO.N,Net-(LED8-DOUT)*%
X134360000Y-59050002D02*
X134360000Y-62949998D01*
X145660000Y-69900000D02*
X145660000Y-63100000D01*
X134410002Y-59000000D02*
X134360000Y-59050002D01*
X134360000Y-62949998D02*
X134410002Y-63000000D01*
X145660000Y-63100000D02*
X145660000Y-63000000D01*
%TO.N,Net-(LED12-DOUT)*%
X118060000Y-79500000D02*
X118060000Y-74400000D01*
%TD*%
%TA.AperFunction,Conductor*%
%TO.N,VCC*%
G36*
X157092577Y-50519407D02*
G01*
X157120122Y-50549999D01*
X164597097Y-63500499D01*
X174094509Y-79950500D01*
X174107230Y-80010348D01*
X174094509Y-80049500D01*
X166355185Y-93454403D01*
X159310831Y-105655583D01*
X157120123Y-109450000D01*
X157074653Y-109490941D01*
X157034386Y-109499500D01*
X123085614Y-109499500D01*
X123027423Y-109480593D01*
X122999877Y-109450000D01*
X120799246Y-105638396D01*
X115638316Y-96699404D01*
X120244919Y-96699404D01*
X120244919Y-96699413D01*
X120265190Y-96905239D01*
X120265191Y-96905245D01*
X120325230Y-97103163D01*
X120325236Y-97103180D01*
X120343019Y-97136450D01*
X120343020Y-97136450D01*
X121004231Y-96754698D01*
X121020444Y-96815205D01*
X121059940Y-96883614D01*
X121104231Y-96927905D01*
X120442661Y-97309863D01*
X120442661Y-97309864D01*
X120553947Y-97445466D01*
X120713829Y-97576677D01*
X120713839Y-97576684D01*
X120896232Y-97674174D01*
X120896237Y-97674176D01*
X121094163Y-97734217D01*
X121094169Y-97734218D01*
X121299996Y-97754490D01*
X121300004Y-97754490D01*
X121505830Y-97734218D01*
X121505836Y-97734217D01*
X121703761Y-97674177D01*
X121737042Y-97656387D01*
X121355291Y-96995176D01*
X121415796Y-96978965D01*
X121484205Y-96939469D01*
X121528497Y-96895176D01*
X121910455Y-97556746D01*
X122046049Y-97445468D01*
X122046058Y-97445459D01*
X122177268Y-97285579D01*
X122177275Y-97285569D01*
X122274765Y-97103176D01*
X122274767Y-97103171D01*
X122334808Y-96905245D01*
X122334809Y-96905239D01*
X122355081Y-96699413D01*
X122355081Y-96699404D01*
X122334809Y-96493578D01*
X122334808Y-96493572D01*
X122274767Y-96295646D01*
X122274765Y-96295641D01*
X122256979Y-96262366D01*
X122256978Y-96262366D01*
X121595767Y-96644116D01*
X121579556Y-96583613D01*
X121540060Y-96515204D01*
X121495766Y-96470910D01*
X122157337Y-96088953D01*
X122157337Y-96088952D01*
X122046052Y-95953351D01*
X121886170Y-95822140D01*
X121886160Y-95822133D01*
X121703767Y-95724643D01*
X121703762Y-95724641D01*
X121505836Y-95664600D01*
X121505830Y-95664599D01*
X121300004Y-95644328D01*
X121299996Y-95644328D01*
X121094169Y-95664599D01*
X121094163Y-95664600D01*
X120896241Y-95724640D01*
X120896232Y-95724643D01*
X120862956Y-95742429D01*
X120862956Y-95742430D01*
X121244708Y-96403641D01*
X121184204Y-96419853D01*
X121115795Y-96459349D01*
X121071502Y-96503641D01*
X120689544Y-95842070D01*
X120689543Y-95842070D01*
X120553942Y-95953356D01*
X120422731Y-96113238D01*
X120422724Y-96113248D01*
X120325234Y-96295641D01*
X120325232Y-96295646D01*
X120265191Y-96493572D01*
X120265190Y-96493578D01*
X120244919Y-96699404D01*
X115638316Y-96699404D01*
X114368317Y-94499701D01*
X118974417Y-94499701D01*
X118974417Y-94499708D01*
X118994698Y-94705634D01*
X118994699Y-94705639D01*
X119054768Y-94903659D01*
X119152316Y-95086157D01*
X119275382Y-95236114D01*
X119283590Y-95246115D01*
X119283595Y-95246119D01*
X119443547Y-95377388D01*
X119443548Y-95377388D01*
X119443550Y-95377390D01*
X119626046Y-95474937D01*
X119749896Y-95512506D01*
X119824065Y-95535005D01*
X119824070Y-95535006D01*
X120029997Y-95555288D01*
X120030000Y-95555288D01*
X120030003Y-95555288D01*
X120235929Y-95535006D01*
X120235934Y-95535005D01*
X120433954Y-95474937D01*
X120616450Y-95377390D01*
X120776410Y-95246115D01*
X120907685Y-95086155D01*
X121005232Y-94903659D01*
X121065300Y-94705639D01*
X121065301Y-94705634D01*
X121085583Y-94499708D01*
X121085583Y-94499701D01*
X121065301Y-94293775D01*
X121065300Y-94293770D01*
X121033580Y-94189204D01*
X121005232Y-94095751D01*
X120907685Y-93913255D01*
X120906654Y-93911999D01*
X120776414Y-93753300D01*
X120776410Y-93753295D01*
X120672303Y-93667857D01*
X120616452Y-93622021D01*
X120433954Y-93524473D01*
X120235934Y-93464404D01*
X120235929Y-93464403D01*
X120030003Y-93444122D01*
X120029997Y-93444122D01*
X119824070Y-93464403D01*
X119824065Y-93464404D01*
X119626045Y-93524473D01*
X119443547Y-93622021D01*
X119283595Y-93753290D01*
X119283585Y-93753300D01*
X119152316Y-93913252D01*
X119054768Y-94095750D01*
X118994699Y-94293770D01*
X118994698Y-94293775D01*
X118974417Y-94499701D01*
X114368317Y-94499701D01*
X110394097Y-87616150D01*
X114856199Y-87616150D01*
X114856199Y-87616154D01*
X114875363Y-87672611D01*
X114875365Y-87672615D01*
X114875366Y-87672617D01*
X115745114Y-89179065D01*
X115745116Y-89179068D01*
X115784426Y-89223893D01*
X115784428Y-89223894D01*
X115784430Y-89223896D01*
X115855969Y-89259174D01*
X115935562Y-89264392D01*
X115992026Y-89245225D01*
X117272861Y-88505733D01*
X117332708Y-88493012D01*
X117388604Y-88517899D01*
X117419197Y-88570887D01*
X117421360Y-88591470D01*
X117421360Y-88961744D01*
X117402453Y-89019935D01*
X117352953Y-89055899D01*
X117332065Y-89060267D01*
X117284070Y-89064994D01*
X117284065Y-89064995D01*
X117086045Y-89125064D01*
X116903547Y-89222612D01*
X116743595Y-89353881D01*
X116743585Y-89353891D01*
X116612316Y-89513843D01*
X116514768Y-89696341D01*
X116454699Y-89894361D01*
X116454698Y-89894366D01*
X116434417Y-90100292D01*
X116434417Y-90100299D01*
X116454698Y-90306225D01*
X116454699Y-90306230D01*
X116514768Y-90504250D01*
X116612316Y-90686748D01*
X116735382Y-90836705D01*
X116743590Y-90846706D01*
X116743595Y-90846710D01*
X116903547Y-90977979D01*
X116903548Y-90977979D01*
X116903550Y-90977981D01*
X117086046Y-91075528D01*
X117223997Y-91117374D01*
X117284065Y-91135596D01*
X117284070Y-91135597D01*
X117489997Y-91155879D01*
X117490000Y-91155879D01*
X117490003Y-91155879D01*
X117695929Y-91135597D01*
X117695934Y-91135596D01*
X117893954Y-91075528D01*
X118076450Y-90977981D01*
X118236410Y-90846706D01*
X118367685Y-90686746D01*
X118465232Y-90504250D01*
X118525300Y-90306230D01*
X118525301Y-90306224D01*
X118535968Y-90197918D01*
X118545054Y-90105660D01*
X118569573Y-90049604D01*
X118622360Y-90018665D01*
X118683251Y-90024662D01*
X118728987Y-90065304D01*
X118729313Y-90065865D01*
X119088993Y-90688848D01*
X119089061Y-90688987D01*
X119111716Y-90728213D01*
X119124985Y-90778122D01*
X119124865Y-90807982D01*
X119124865Y-90808091D01*
X119124788Y-90823091D01*
X119124802Y-90823349D01*
X119124725Y-90842619D01*
X119156834Y-91022387D01*
X119213488Y-91173458D01*
X119216218Y-91234582D01*
X119182498Y-91285637D01*
X119125208Y-91307121D01*
X119092054Y-91302957D01*
X118965934Y-91264699D01*
X118965929Y-91264698D01*
X118760003Y-91244417D01*
X118759997Y-91244417D01*
X118554070Y-91264698D01*
X118554065Y-91264699D01*
X118356045Y-91324768D01*
X118173547Y-91422316D01*
X118013595Y-91553585D01*
X118013585Y-91553595D01*
X117882316Y-91713547D01*
X117784768Y-91896045D01*
X117724699Y-92094065D01*
X117724698Y-92094070D01*
X117704417Y-92299996D01*
X117704417Y-92300003D01*
X117724698Y-92505929D01*
X117724699Y-92505934D01*
X117784768Y-92703954D01*
X117882316Y-92886452D01*
X118008398Y-93040084D01*
X118013590Y-93046410D01*
X118013595Y-93046414D01*
X118173547Y-93177683D01*
X118173548Y-93177683D01*
X118173550Y-93177685D01*
X118356046Y-93275232D01*
X118493997Y-93317078D01*
X118554065Y-93335300D01*
X118554070Y-93335301D01*
X118759997Y-93355583D01*
X118760000Y-93355583D01*
X118760003Y-93355583D01*
X118965929Y-93335301D01*
X118965934Y-93335300D01*
X119163954Y-93275232D01*
X119346450Y-93177685D01*
X119506410Y-93046410D01*
X119637685Y-92886450D01*
X119735232Y-92703954D01*
X119795300Y-92505934D01*
X119795301Y-92505929D01*
X119815583Y-92300003D01*
X119815583Y-92299996D01*
X119795301Y-92094070D01*
X119795300Y-92094065D01*
X119772386Y-92018527D01*
X119735232Y-91896046D01*
X119712356Y-91853249D01*
X119701601Y-91793019D01*
X119728302Y-91737967D01*
X119782262Y-91709124D01*
X119829100Y-91712059D01*
X119915345Y-91738914D01*
X119915355Y-91738917D01*
X120096654Y-91760747D01*
X120278910Y-91749397D01*
X120456099Y-91705241D01*
X120622368Y-91629738D01*
X120772222Y-91525384D01*
X120900709Y-91395627D01*
X120911029Y-91380531D01*
X120911825Y-91379517D01*
X120915094Y-91374724D01*
X120939424Y-91339046D01*
X120971711Y-91309092D01*
X121009119Y-91287495D01*
X121009119Y-91287494D01*
X121032087Y-91274234D01*
X121032089Y-91274231D01*
X122149722Y-90628966D01*
X122191677Y-90615992D01*
X122192097Y-90615959D01*
X122199395Y-90615403D01*
X122234851Y-90612745D01*
X122234852Y-90612744D01*
X122240823Y-90612297D01*
X122241669Y-90612176D01*
X122260227Y-90610761D01*
X122436834Y-90564357D01*
X122602123Y-90486749D01*
X122750633Y-90380504D01*
X122877457Y-90249130D01*
X122978404Y-90096968D01*
X123050139Y-89929047D01*
X123090292Y-89750915D01*
X123097536Y-89568457D01*
X123071631Y-89387702D01*
X123030169Y-89264392D01*
X123013438Y-89214631D01*
X123013434Y-89214622D01*
X122924867Y-89054935D01*
X122808863Y-88913928D01*
X122808862Y-88913927D01*
X122808858Y-88913922D01*
X122669238Y-88796237D01*
X122653298Y-88787119D01*
X122652318Y-88786470D01*
X122613401Y-88764264D01*
X122576723Y-88727767D01*
X122554078Y-88688532D01*
X122554001Y-88688417D01*
X121831720Y-87437391D01*
X121831709Y-87437369D01*
X121809208Y-87398399D01*
X121795943Y-87348379D01*
X121796032Y-87331336D01*
X121796146Y-87309411D01*
X121796145Y-87309408D01*
X121796174Y-87303902D01*
X121796063Y-87302098D01*
X121796136Y-87284022D01*
X121764022Y-87104279D01*
X121699902Y-86933319D01*
X121605895Y-86776789D01*
X121593157Y-86762349D01*
X121485108Y-86639861D01*
X121378310Y-86555957D01*
X121341529Y-86527060D01*
X121341525Y-86527058D01*
X121341524Y-86527057D01*
X121180559Y-86442456D01*
X121179903Y-86442111D01*
X121005572Y-86387823D01*
X121005569Y-86387822D01*
X121005570Y-86387822D01*
X120824300Y-86365987D01*
X120824293Y-86365986D01*
X120642053Y-86377327D01*
X120464883Y-86421465D01*
X120418646Y-86442457D01*
X120298624Y-86496947D01*
X120255377Y-86527057D01*
X120148778Y-86601274D01*
X120020289Y-86731006D01*
X120020285Y-86731010D01*
X120009899Y-86746197D01*
X120008839Y-86747552D01*
X119981552Y-86787587D01*
X119949216Y-86817583D01*
X119906745Y-86842082D01*
X119906383Y-86842323D01*
X119220036Y-87238587D01*
X119160188Y-87251309D01*
X119104292Y-87226422D01*
X119073699Y-87173434D01*
X119080095Y-87112584D01*
X119100532Y-87082847D01*
X119452370Y-86731010D01*
X120192814Y-85990566D01*
X120247331Y-85962789D01*
X120262818Y-85961570D01*
X120928934Y-85961570D01*
X120987125Y-85980477D01*
X121003750Y-85995737D01*
X121044889Y-86043213D01*
X121165964Y-86121023D01*
X121261144Y-86148970D01*
X121304052Y-86161569D01*
X121304053Y-86161569D01*
X121304056Y-86161570D01*
X121304058Y-86161570D01*
X121447976Y-86161570D01*
X121447978Y-86161570D01*
X121586070Y-86121023D01*
X121707145Y-86043213D01*
X121801394Y-85934443D01*
X121861182Y-85803527D01*
X121881664Y-85661070D01*
X121861182Y-85518613D01*
X121801394Y-85387697D01*
X121765108Y-85345821D01*
X121741292Y-85289462D01*
X121755151Y-85229867D01*
X121789960Y-85195527D01*
X121792517Y-85194033D01*
X121842485Y-85180502D01*
X121881392Y-85180507D01*
X121881394Y-85180506D01*
X121887842Y-85180507D01*
X121887963Y-85180500D01*
X123377507Y-85180500D01*
X123427462Y-85194028D01*
X123465686Y-85216368D01*
X123467527Y-85217286D01*
X123483077Y-85226348D01*
X123573832Y-85259153D01*
X123654787Y-85288416D01*
X123654790Y-85288416D01*
X123654799Y-85288420D01*
X123834920Y-85318381D01*
X124017488Y-85315240D01*
X124196472Y-85279103D01*
X124365958Y-85211163D01*
X124520344Y-85113664D01*
X124550165Y-85086144D01*
X124605751Y-85060574D01*
X124665751Y-85072560D01*
X124707246Y-85117524D01*
X124716306Y-85158897D01*
X124716306Y-91907608D01*
X124697399Y-91965799D01*
X124670830Y-91990892D01*
X124628872Y-92017856D01*
X124534622Y-92126628D01*
X124474834Y-92257543D01*
X124454353Y-92399997D01*
X124454353Y-92400002D01*
X124474834Y-92542456D01*
X124528143Y-92659185D01*
X124534623Y-92673373D01*
X124594324Y-92742272D01*
X124628873Y-92782144D01*
X124698089Y-92826626D01*
X124749947Y-92859953D01*
X124850787Y-92889562D01*
X124888035Y-92900499D01*
X124888036Y-92900499D01*
X124888039Y-92900500D01*
X124888041Y-92900500D01*
X125031959Y-92900500D01*
X125031961Y-92900500D01*
X125170053Y-92859953D01*
X125291128Y-92782143D01*
X125385377Y-92673373D01*
X125445165Y-92542457D01*
X125452164Y-92493779D01*
X125465647Y-92400002D01*
X125465647Y-92399997D01*
X125445165Y-92257543D01*
X125432908Y-92230704D01*
X125385377Y-92126627D01*
X125381335Y-92121962D01*
X125341486Y-92075972D01*
X125317669Y-92019612D01*
X125317306Y-92011142D01*
X125317306Y-81088855D01*
X125336213Y-81030664D01*
X125341471Y-81024043D01*
X125385377Y-80973373D01*
X125445165Y-80842457D01*
X125462880Y-80719245D01*
X125465647Y-80700002D01*
X125465647Y-80699997D01*
X125445165Y-80557543D01*
X125442464Y-80551628D01*
X125385377Y-80426627D01*
X125291128Y-80317857D01*
X125291127Y-80317856D01*
X125291126Y-80317855D01*
X125170057Y-80240049D01*
X125170054Y-80240047D01*
X125170053Y-80240047D01*
X125170050Y-80240046D01*
X125031964Y-80199500D01*
X125031961Y-80199500D01*
X124888039Y-80199500D01*
X124888035Y-80199500D01*
X124749949Y-80240046D01*
X124749942Y-80240049D01*
X124628873Y-80317855D01*
X124534622Y-80426628D01*
X124474834Y-80557543D01*
X124454353Y-80699997D01*
X124454353Y-80700002D01*
X124474834Y-80842456D01*
X124499212Y-80895835D01*
X124534623Y-80973373D01*
X124628872Y-81082143D01*
X124633509Y-81087494D01*
X124632357Y-81088491D01*
X124659752Y-81133917D01*
X124654517Y-81194878D01*
X124614450Y-81241120D01*
X124554854Y-81254979D01*
X124510464Y-81240048D01*
X124365977Y-81148802D01*
X124196485Y-81080858D01*
X124196484Y-81080857D01*
X124196480Y-81080856D01*
X124017494Y-81044719D01*
X124017485Y-81044718D01*
X123834918Y-81041577D01*
X123654795Y-81071539D01*
X123654792Y-81071539D01*
X123654790Y-81071540D01*
X123654788Y-81071540D01*
X123654778Y-81071543D01*
X123483062Y-81133613D01*
X123467166Y-81142875D01*
X123466035Y-81143441D01*
X123427459Y-81165978D01*
X123377513Y-81179496D01*
X123338608Y-81179494D01*
X123338606Y-81179494D01*
X123332148Y-81179494D01*
X123332042Y-81179501D01*
X121888038Y-81179501D01*
X121887933Y-81179494D01*
X121842485Y-81179497D01*
X121792538Y-81165978D01*
X121754159Y-81143556D01*
X121752496Y-81142727D01*
X121742464Y-81136881D01*
X121736921Y-81133650D01*
X121736918Y-81133649D01*
X121565211Y-81071583D01*
X121565196Y-81071579D01*
X121385075Y-81041618D01*
X121202519Y-81044759D01*
X121202510Y-81044760D01*
X121023529Y-81080896D01*
X120854041Y-81148838D01*
X120699650Y-81246339D01*
X120565473Y-81370166D01*
X120565470Y-81370169D01*
X120455920Y-81516246D01*
X120374618Y-81679749D01*
X120374615Y-81679756D01*
X120324261Y-81855253D01*
X120324259Y-81855262D01*
X120306504Y-82036995D01*
X120321939Y-82218935D01*
X120367898Y-82387179D01*
X120370056Y-82395078D01*
X120377204Y-82409973D01*
X120378007Y-82411646D01*
X120378648Y-82413237D01*
X120399681Y-82456892D01*
X120409493Y-82499892D01*
X120409478Y-82549213D01*
X120409501Y-82549562D01*
X120409501Y-83810488D01*
X120409492Y-83810626D01*
X120409497Y-83860104D01*
X120399757Y-83902935D01*
X120396857Y-83908980D01*
X120396792Y-83909116D01*
X120378458Y-83947183D01*
X120378119Y-83948024D01*
X120370022Y-83964897D01*
X120370019Y-83964907D01*
X120348835Y-84042456D01*
X120321900Y-84141055D01*
X120306463Y-84323004D01*
X120324219Y-84504742D01*
X120374579Y-84680263D01*
X120455881Y-84843768D01*
X120565438Y-84989855D01*
X120565441Y-84989857D01*
X120565443Y-84989860D01*
X120620184Y-85040378D01*
X120699595Y-85113664D01*
X120699627Y-85113693D01*
X120699629Y-85113695D01*
X120801239Y-85177865D01*
X120840344Y-85224923D01*
X120844321Y-85285979D01*
X120811650Y-85337711D01*
X120754811Y-85360361D01*
X120748377Y-85360570D01*
X120136901Y-85360570D01*
X120057777Y-85360570D01*
X120011000Y-85373103D01*
X119981346Y-85381049D01*
X119912832Y-85420606D01*
X117524183Y-87809255D01*
X117469666Y-87837032D01*
X117409234Y-87827461D01*
X117368442Y-87788751D01*
X116694886Y-86622117D01*
X116694883Y-86622114D01*
X116694883Y-86622113D01*
X116655573Y-86577288D01*
X116655571Y-86577287D01*
X116655570Y-86577286D01*
X116584031Y-86542008D01*
X116557500Y-86540268D01*
X116504440Y-86536790D01*
X116504436Y-86536790D01*
X116447979Y-86555954D01*
X114941522Y-87425707D01*
X114896697Y-87465017D01*
X114896696Y-87465019D01*
X114861417Y-87536559D01*
X114861417Y-87536561D01*
X114856199Y-87616150D01*
X110394097Y-87616150D01*
X106025488Y-80049497D01*
X106012768Y-79989652D01*
X106025487Y-79950503D01*
X109230073Y-74399997D01*
X117554353Y-74399997D01*
X117554353Y-74400002D01*
X117574834Y-74542456D01*
X117609268Y-74617855D01*
X117634623Y-74673373D01*
X117680768Y-74726628D01*
X117733509Y-74787494D01*
X117731471Y-74789259D01*
X117756925Y-74831458D01*
X117759500Y-74853893D01*
X117759500Y-79046105D01*
X117740593Y-79104296D01*
X117733258Y-79112289D01*
X117733509Y-79112506D01*
X117728872Y-79117856D01*
X117728872Y-79117857D01*
X117660915Y-79196283D01*
X117634622Y-79226628D01*
X117574834Y-79357543D01*
X117554353Y-79499997D01*
X117554353Y-79500002D01*
X117574834Y-79642456D01*
X117620504Y-79742457D01*
X117634623Y-79773373D01*
X117663600Y-79806814D01*
X117728873Y-79882144D01*
X117849942Y-79959950D01*
X117849947Y-79959953D01*
X117943744Y-79987494D01*
X117988035Y-80000499D01*
X117988036Y-80000499D01*
X117988039Y-80000500D01*
X117988041Y-80000500D01*
X118131959Y-80000500D01*
X118131961Y-80000500D01*
X118270053Y-79959953D01*
X118391128Y-79882143D01*
X118485377Y-79773373D01*
X118545165Y-79642457D01*
X118555251Y-79572307D01*
X118565647Y-79500002D01*
X118565647Y-79499997D01*
X118545165Y-79357543D01*
X118531046Y-79326627D01*
X118485377Y-79226627D01*
X118391128Y-79117857D01*
X118391127Y-79117856D01*
X118386491Y-79112506D01*
X118388524Y-79110743D01*
X118363067Y-79068505D01*
X118360500Y-79046105D01*
X118360500Y-78383004D01*
X120306463Y-78383004D01*
X120309720Y-78416336D01*
X120324218Y-78564737D01*
X120324219Y-78564742D01*
X120374579Y-78740263D01*
X120455881Y-78903768D01*
X120565438Y-79049855D01*
X120565441Y-79049857D01*
X120565443Y-79049860D01*
X120637783Y-79116620D01*
X120699595Y-79173664D01*
X120699627Y-79173693D01*
X120699629Y-79173695D01*
X120854015Y-79271194D01*
X120854016Y-79271194D01*
X120854022Y-79271198D01*
X121023514Y-79339142D01*
X121023517Y-79339142D01*
X121023518Y-79339143D01*
X121058283Y-79346162D01*
X121202505Y-79375281D01*
X121364794Y-79378073D01*
X121385080Y-79378422D01*
X121385080Y-79378421D01*
X121385081Y-79378422D01*
X121565210Y-79348460D01*
X121736938Y-79286386D01*
X121752741Y-79277176D01*
X121753849Y-79276624D01*
X121758864Y-79273693D01*
X121758870Y-79273692D01*
X121792537Y-79254021D01*
X121842485Y-79240502D01*
X121881392Y-79240507D01*
X121881394Y-79240506D01*
X121887842Y-79240507D01*
X121887963Y-79240500D01*
X123377507Y-79240500D01*
X123427462Y-79254028D01*
X123465686Y-79276368D01*
X123467527Y-79277286D01*
X123483077Y-79286348D01*
X123579235Y-79321106D01*
X123654787Y-79348416D01*
X123654790Y-79348416D01*
X123654799Y-79348420D01*
X123834920Y-79378381D01*
X124017488Y-79375240D01*
X124196472Y-79339103D01*
X124365958Y-79271163D01*
X124520344Y-79173664D01*
X124654531Y-79049829D01*
X124764083Y-78903748D01*
X124845382Y-78740250D01*
X124895741Y-78564736D01*
X124913496Y-78383006D01*
X124898060Y-78201064D01*
X124849944Y-78024922D01*
X124842025Y-78008422D01*
X124841494Y-78007100D01*
X124820300Y-77963083D01*
X124810499Y-77920134D01*
X124810499Y-76559889D01*
X124820245Y-76517055D01*
X124823913Y-76509412D01*
X124823969Y-76509297D01*
X124836030Y-76484247D01*
X124839019Y-76478040D01*
X124839019Y-76478039D01*
X124841626Y-76472625D01*
X124841923Y-76471884D01*
X124849982Y-76455093D01*
X124898100Y-76278944D01*
X124913537Y-76096994D01*
X124895781Y-75915257D01*
X124895026Y-75912625D01*
X124845422Y-75739742D01*
X124845421Y-75739740D01*
X124845420Y-75739736D01*
X124764118Y-75576231D01*
X124654562Y-75430145D01*
X124654558Y-75430141D01*
X124654556Y-75430139D01*
X124621895Y-75399997D01*
X126554353Y-75399997D01*
X126554353Y-75400002D01*
X126574834Y-75542456D01*
X126613275Y-75626628D01*
X126634623Y-75673373D01*
X126707556Y-75757543D01*
X126728873Y-75782144D01*
X126814023Y-75836866D01*
X126852754Y-75884232D01*
X126859500Y-75920150D01*
X126859500Y-83446105D01*
X126840593Y-83504296D01*
X126833258Y-83512289D01*
X126833509Y-83512506D01*
X126828872Y-83517856D01*
X126828872Y-83517857D01*
X126769572Y-83586293D01*
X126734622Y-83626628D01*
X126674834Y-83757543D01*
X126654353Y-83899997D01*
X126654353Y-83900002D01*
X126674834Y-84042456D01*
X126719861Y-84141050D01*
X126734623Y-84173373D01*
X126826554Y-84279468D01*
X126828873Y-84282144D01*
X126949942Y-84359950D01*
X126949947Y-84359953D01*
X127056403Y-84391211D01*
X127088035Y-84400499D01*
X127088036Y-84400499D01*
X127088039Y-84400500D01*
X127088041Y-84400500D01*
X127231959Y-84400500D01*
X127231961Y-84400500D01*
X127370053Y-84359953D01*
X127397905Y-84342053D01*
X127457078Y-84326498D01*
X127514095Y-84348696D01*
X127547175Y-84400168D01*
X127550428Y-84425337D01*
X127550428Y-85146105D01*
X127531521Y-85204296D01*
X127524186Y-85212289D01*
X127524437Y-85212506D01*
X127519800Y-85217856D01*
X127519800Y-85217857D01*
X127466697Y-85279142D01*
X127425550Y-85326628D01*
X127365762Y-85457543D01*
X127345281Y-85599997D01*
X127345281Y-85600002D01*
X127365762Y-85742456D01*
X127402414Y-85822711D01*
X127425551Y-85873373D01*
X127519800Y-85982143D01*
X127519801Y-85982144D01*
X127614830Y-86043215D01*
X127640875Y-86059953D01*
X127738129Y-86088509D01*
X127778963Y-86100499D01*
X127778964Y-86100499D01*
X127778967Y-86100500D01*
X127778969Y-86100500D01*
X127922887Y-86100500D01*
X127922889Y-86100500D01*
X128060981Y-86059953D01*
X128106978Y-86030392D01*
X128166151Y-86014838D01*
X128223168Y-86037037D01*
X128256247Y-86088509D01*
X128259500Y-86113677D01*
X128259500Y-92646103D01*
X128240593Y-92704294D01*
X128233258Y-92712287D01*
X128233509Y-92712504D01*
X128228872Y-92717854D01*
X128228872Y-92717855D01*
X128216560Y-92732064D01*
X128134622Y-92826626D01*
X128074834Y-92957541D01*
X128054353Y-93099995D01*
X128054353Y-93100000D01*
X128074834Y-93242454D01*
X128122424Y-93346659D01*
X128134623Y-93373371D01*
X128187263Y-93434121D01*
X128228873Y-93482142D01*
X128349942Y-93559948D01*
X128349947Y-93559951D01*
X128437563Y-93585677D01*
X128488035Y-93600497D01*
X128488036Y-93600497D01*
X128488039Y-93600498D01*
X128488041Y-93600498D01*
X128631959Y-93600498D01*
X128631961Y-93600498D01*
X128770053Y-93559951D01*
X128891128Y-93482141D01*
X128985377Y-93373371D01*
X128985378Y-93373368D01*
X128985680Y-93373020D01*
X129038076Y-93341424D01*
X129099037Y-93346659D01*
X129145278Y-93386727D01*
X129159500Y-93437851D01*
X129159500Y-94046105D01*
X129140593Y-94104296D01*
X129133258Y-94112289D01*
X129133509Y-94112506D01*
X129128872Y-94117856D01*
X129128872Y-94117857D01*
X129084437Y-94169138D01*
X129034622Y-94226628D01*
X128974834Y-94357543D01*
X128954353Y-94499997D01*
X128954353Y-94500002D01*
X128974834Y-94642456D01*
X129034622Y-94773371D01*
X129034623Y-94773373D01*
X129113206Y-94864063D01*
X129128873Y-94882144D01*
X129249942Y-94959950D01*
X129249947Y-94959953D01*
X129356403Y-94991211D01*
X129388035Y-95000499D01*
X129388036Y-95000499D01*
X129388039Y-95000500D01*
X129388041Y-95000500D01*
X129531959Y-95000500D01*
X129531961Y-95000500D01*
X129670053Y-94959953D01*
X129791128Y-94882143D01*
X129885377Y-94773373D01*
X129945165Y-94642457D01*
X129958386Y-94550500D01*
X129965647Y-94500002D01*
X129965647Y-94499997D01*
X129945165Y-94357543D01*
X129916041Y-94293771D01*
X129885377Y-94226627D01*
X129791128Y-94117857D01*
X129791127Y-94117856D01*
X129786491Y-94112506D01*
X129788524Y-94110743D01*
X129763067Y-94068505D01*
X129760500Y-94046105D01*
X129760500Y-86335924D01*
X129770597Y-86304847D01*
X129760500Y-86264075D01*
X129760500Y-76353893D01*
X129779407Y-76295702D01*
X129786740Y-76287713D01*
X129786489Y-76287496D01*
X129791126Y-76282144D01*
X129791128Y-76282143D01*
X129799292Y-76272720D01*
X129851685Y-76241124D01*
X129912646Y-76246359D01*
X129958888Y-76286425D01*
X129972103Y-76323461D01*
X129974834Y-76342456D01*
X130020504Y-76442457D01*
X130034623Y-76473373D01*
X130089991Y-76537272D01*
X130133509Y-76587494D01*
X130131471Y-76589259D01*
X130156925Y-76631458D01*
X130159500Y-76653893D01*
X130159500Y-85846105D01*
X130140593Y-85904296D01*
X130133258Y-85912289D01*
X130133509Y-85912506D01*
X130128872Y-85917856D01*
X130128872Y-85917857D01*
X130111322Y-85938111D01*
X130034622Y-86026628D01*
X129974834Y-86157543D01*
X129957492Y-86278164D01*
X129947782Y-86297911D01*
X129957492Y-86321835D01*
X129974834Y-86442456D01*
X130026668Y-86555954D01*
X130034623Y-86573373D01*
X130092235Y-86639861D01*
X130128873Y-86682144D01*
X130237240Y-86751787D01*
X130249947Y-86759953D01*
X130344061Y-86787587D01*
X130388035Y-86800499D01*
X130388036Y-86800499D01*
X130388039Y-86800500D01*
X130388041Y-86800500D01*
X130531959Y-86800500D01*
X130531961Y-86800500D01*
X130670053Y-86759953D01*
X130791128Y-86682143D01*
X130885377Y-86573373D01*
X130945165Y-86442457D01*
X130961102Y-86331614D01*
X130965647Y-86300002D01*
X130965647Y-86299997D01*
X130945165Y-86157543D01*
X130919114Y-86100500D01*
X130885377Y-86026627D01*
X130791128Y-85917857D01*
X130791127Y-85917856D01*
X130786491Y-85912506D01*
X130788524Y-85910743D01*
X130763067Y-85868505D01*
X130760500Y-85846105D01*
X130760500Y-76653893D01*
X130779407Y-76595702D01*
X130786741Y-76587711D01*
X130786491Y-76587494D01*
X130798727Y-76573373D01*
X130885377Y-76473373D01*
X130945165Y-76342457D01*
X130953793Y-76282445D01*
X130962843Y-76219503D01*
X131604575Y-76219503D01*
X131604575Y-76219508D01*
X131625056Y-76361962D01*
X131684845Y-76492879D01*
X131723311Y-76537272D01*
X131783731Y-76607000D01*
X131781693Y-76608765D01*
X131807147Y-76650964D01*
X131809722Y-76673399D01*
X131809722Y-99229786D01*
X131830199Y-99306207D01*
X131830201Y-99306212D01*
X131855328Y-99349734D01*
X131869760Y-99374730D01*
X131869762Y-99374733D01*
X133952572Y-101457543D01*
X135876025Y-103380996D01*
X135903802Y-103435513D01*
X135894231Y-103495945D01*
X135850966Y-103539210D01*
X135806021Y-103550000D01*
X135080001Y-103550000D01*
X135080000Y-103550001D01*
X135080000Y-104316211D01*
X135019496Y-104300000D01*
X134940504Y-104300000D01*
X134880000Y-104316211D01*
X134880000Y-103550001D01*
X134879999Y-103550000D01*
X134110299Y-103550000D01*
X134051963Y-103561603D01*
X133985810Y-103605806D01*
X133985806Y-103605810D01*
X133941603Y-103671963D01*
X133930000Y-103730299D01*
X133930000Y-104499999D01*
X133930001Y-104500000D01*
X134696212Y-104500000D01*
X134680000Y-104560504D01*
X134680000Y-104639496D01*
X134696212Y-104700000D01*
X133930001Y-104700000D01*
X133930000Y-104700001D01*
X133930000Y-105469700D01*
X133941603Y-105528036D01*
X133985806Y-105594189D01*
X133985810Y-105594193D01*
X134051963Y-105638396D01*
X134110299Y-105649999D01*
X134110303Y-105650000D01*
X134879999Y-105650000D01*
X134880000Y-105649999D01*
X134880000Y-104883788D01*
X134940504Y-104900000D01*
X135019496Y-104900000D01*
X135080000Y-104883788D01*
X135080000Y-105649999D01*
X135080001Y-105650000D01*
X135849697Y-105650000D01*
X135849700Y-105649999D01*
X135908036Y-105638396D01*
X135974189Y-105594193D01*
X135974193Y-105594189D01*
X136018396Y-105528036D01*
X136029999Y-105469700D01*
X136030000Y-105469697D01*
X136030000Y-104700001D01*
X136029999Y-104700000D01*
X135263788Y-104700000D01*
X135280000Y-104639496D01*
X135280000Y-104560504D01*
X135263788Y-104500000D01*
X136029999Y-104500000D01*
X136030000Y-104499999D01*
X136030000Y-103773978D01*
X136048907Y-103715787D01*
X136098407Y-103679823D01*
X136159593Y-103679823D01*
X136199004Y-103703975D01*
X136543812Y-104048784D01*
X136571589Y-104103300D01*
X136562018Y-104163732D01*
X136561120Y-104165453D01*
X136544769Y-104196044D01*
X136544766Y-104196052D01*
X136484699Y-104394065D01*
X136484698Y-104394070D01*
X136464417Y-104599996D01*
X136464417Y-104600003D01*
X136484698Y-104805929D01*
X136484699Y-104805934D01*
X136544768Y-105003954D01*
X136642316Y-105186452D01*
X136773585Y-105346404D01*
X136773590Y-105346410D01*
X136773595Y-105346414D01*
X136933547Y-105477683D01*
X136933548Y-105477683D01*
X136933550Y-105477685D01*
X137116046Y-105575232D01*
X137253997Y-105617078D01*
X137314065Y-105635300D01*
X137314070Y-105635301D01*
X137519997Y-105655583D01*
X137520000Y-105655583D01*
X137520003Y-105655583D01*
X137725929Y-105635301D01*
X137725934Y-105635300D01*
X137923954Y-105575232D01*
X138106450Y-105477685D01*
X138266410Y-105346410D01*
X138397685Y-105186450D01*
X138495232Y-105003954D01*
X138555300Y-104805934D01*
X138555301Y-104805929D01*
X138575583Y-104600003D01*
X138575583Y-104599997D01*
X138563433Y-104476639D01*
X138576545Y-104416875D01*
X138622282Y-104376232D01*
X138683172Y-104370235D01*
X138731960Y-104396931D01*
X138986950Y-104651921D01*
X139014727Y-104706438D01*
X139015469Y-104712220D01*
X139024700Y-104805934D01*
X139024701Y-104805939D01*
X139084768Y-105003954D01*
X139182316Y-105186452D01*
X139313585Y-105346404D01*
X139313590Y-105346410D01*
X139313595Y-105346414D01*
X139473547Y-105477683D01*
X139473548Y-105477683D01*
X139473550Y-105477685D01*
X139656046Y-105575232D01*
X139793997Y-105617078D01*
X139854065Y-105635300D01*
X139854070Y-105635301D01*
X140059997Y-105655583D01*
X140060000Y-105655583D01*
X140060003Y-105655583D01*
X140265929Y-105635301D01*
X140265934Y-105635300D01*
X140463954Y-105575232D01*
X140646450Y-105477685D01*
X140806410Y-105346410D01*
X140937685Y-105186450D01*
X141035232Y-105003954D01*
X141095300Y-104805934D01*
X141095301Y-104805929D01*
X141115583Y-104600003D01*
X141115583Y-104599996D01*
X141095301Y-104394070D01*
X141095300Y-104394065D01*
X141066766Y-104300000D01*
X141035232Y-104196046D01*
X140937685Y-104013550D01*
X140930379Y-104004648D01*
X140854596Y-103912305D01*
X140832296Y-103855328D01*
X140847745Y-103796125D01*
X140895042Y-103757310D01*
X140931124Y-103750500D01*
X141284521Y-103750500D01*
X141342712Y-103769407D01*
X141354525Y-103779496D01*
X141623812Y-104048783D01*
X141651589Y-104103300D01*
X141642018Y-104163732D01*
X141641120Y-104165453D01*
X141624769Y-104196044D01*
X141624766Y-104196052D01*
X141564699Y-104394065D01*
X141564698Y-104394070D01*
X141544417Y-104599996D01*
X141544417Y-104600003D01*
X141564698Y-104805929D01*
X141564699Y-104805934D01*
X141624768Y-105003954D01*
X141722316Y-105186452D01*
X141853585Y-105346404D01*
X141853590Y-105346410D01*
X141853595Y-105346414D01*
X142013547Y-105477683D01*
X142013548Y-105477683D01*
X142013550Y-105477685D01*
X142196046Y-105575232D01*
X142333997Y-105617078D01*
X142394065Y-105635300D01*
X142394070Y-105635301D01*
X142599997Y-105655583D01*
X142600000Y-105655583D01*
X142600003Y-105655583D01*
X142805929Y-105635301D01*
X142805934Y-105635300D01*
X143003954Y-105575232D01*
X143186450Y-105477685D01*
X143346410Y-105346410D01*
X143477685Y-105186450D01*
X143575232Y-105003954D01*
X143635300Y-104805934D01*
X143635301Y-104805929D01*
X143655583Y-104600003D01*
X143655583Y-104599996D01*
X144084417Y-104599996D01*
X144084417Y-104600003D01*
X144104698Y-104805929D01*
X144104699Y-104805934D01*
X144164768Y-105003954D01*
X144262316Y-105186452D01*
X144393585Y-105346404D01*
X144393590Y-105346410D01*
X144393595Y-105346414D01*
X144553547Y-105477683D01*
X144553548Y-105477683D01*
X144553550Y-105477685D01*
X144736046Y-105575232D01*
X144873997Y-105617078D01*
X144934065Y-105635300D01*
X144934070Y-105635301D01*
X145139997Y-105655583D01*
X145140000Y-105655583D01*
X145140003Y-105655583D01*
X145345929Y-105635301D01*
X145345934Y-105635300D01*
X145543954Y-105575232D01*
X145726450Y-105477685D01*
X145886410Y-105346410D01*
X146017685Y-105186450D01*
X146115232Y-105003954D01*
X146175300Y-104805934D01*
X146175301Y-104805929D01*
X146195583Y-104600003D01*
X146195583Y-104599996D01*
X146175301Y-104394070D01*
X146175300Y-104394065D01*
X146146766Y-104300000D01*
X146115232Y-104196046D01*
X146017685Y-104013550D01*
X146010379Y-104004648D01*
X145886414Y-103853595D01*
X145886410Y-103853590D01*
X145886404Y-103853585D01*
X145726452Y-103722316D01*
X145543954Y-103624768D01*
X145345934Y-103564699D01*
X145345929Y-103564698D01*
X145140003Y-103544417D01*
X145139997Y-103544417D01*
X144934070Y-103564698D01*
X144934065Y-103564699D01*
X144736045Y-103624768D01*
X144553547Y-103722316D01*
X144393595Y-103853585D01*
X144393585Y-103853595D01*
X144262316Y-104013547D01*
X144164768Y-104196045D01*
X144104699Y-104394065D01*
X144104698Y-104394070D01*
X144084417Y-104599996D01*
X143655583Y-104599996D01*
X143635301Y-104394070D01*
X143635300Y-104394065D01*
X143606766Y-104300000D01*
X143575232Y-104196046D01*
X143477685Y-104013550D01*
X143470379Y-104004648D01*
X143346414Y-103853595D01*
X143346410Y-103853590D01*
X143346404Y-103853585D01*
X143186452Y-103722316D01*
X143003954Y-103624768D01*
X142805934Y-103564699D01*
X142805929Y-103564698D01*
X142600003Y-103544417D01*
X142599997Y-103544417D01*
X142394070Y-103564698D01*
X142394065Y-103564699D01*
X142196052Y-103624766D01*
X142196049Y-103624766D01*
X142196046Y-103624768D01*
X142196044Y-103624768D01*
X142196044Y-103624769D01*
X142165453Y-103641120D01*
X142105220Y-103651874D01*
X142050169Y-103625171D01*
X142048784Y-103623812D01*
X141634510Y-103209539D01*
X141565992Y-103169980D01*
X141565988Y-103169978D01*
X141489564Y-103149500D01*
X141489562Y-103149500D01*
X139551809Y-103149500D01*
X139493618Y-103130593D01*
X139457654Y-103081093D01*
X139457654Y-103019907D01*
X139493618Y-102970407D01*
X139518155Y-102957396D01*
X139584293Y-102933488D01*
X139686938Y-102896386D01*
X139702741Y-102887176D01*
X139703849Y-102886624D01*
X139708864Y-102883693D01*
X139708870Y-102883692D01*
X139742537Y-102864021D01*
X139792485Y-102850502D01*
X139831392Y-102850507D01*
X139831394Y-102850506D01*
X139837842Y-102850507D01*
X139837963Y-102850500D01*
X141327507Y-102850500D01*
X141377462Y-102864028D01*
X141415686Y-102886368D01*
X141417527Y-102887286D01*
X141433077Y-102896348D01*
X141530796Y-102931670D01*
X141604787Y-102958416D01*
X141604790Y-102958416D01*
X141604799Y-102958420D01*
X141784920Y-102988381D01*
X141967488Y-102985240D01*
X142146472Y-102949103D01*
X142315958Y-102881163D01*
X142470344Y-102783664D01*
X142604531Y-102659829D01*
X142714083Y-102513748D01*
X142795382Y-102350250D01*
X142845741Y-102174736D01*
X142863496Y-101993006D01*
X142848060Y-101811064D01*
X142799944Y-101634922D01*
X142792025Y-101618422D01*
X142791494Y-101617100D01*
X142770300Y-101573083D01*
X142760499Y-101530134D01*
X142760499Y-100169889D01*
X142770245Y-100127055D01*
X142773913Y-100119412D01*
X142773969Y-100119297D01*
X142786030Y-100094247D01*
X142789019Y-100088040D01*
X142789019Y-100088039D01*
X142791626Y-100082625D01*
X142791923Y-100081884D01*
X142799982Y-100065093D01*
X142848100Y-99888944D01*
X142863537Y-99706994D01*
X142845781Y-99525257D01*
X142802592Y-99374733D01*
X142795422Y-99349742D01*
X142795419Y-99349734D01*
X142714125Y-99186246D01*
X142714118Y-99186231D01*
X142604562Y-99040145D01*
X142604558Y-99040141D01*
X142604556Y-99040139D01*
X142470374Y-98916307D01*
X142470371Y-98916305D01*
X142470370Y-98916304D01*
X142315977Y-98818802D01*
X142146485Y-98750858D01*
X142146484Y-98750857D01*
X142146480Y-98750856D01*
X141967494Y-98714719D01*
X141967485Y-98714718D01*
X141784918Y-98711577D01*
X141604795Y-98741539D01*
X141604792Y-98741539D01*
X141604790Y-98741540D01*
X141604788Y-98741540D01*
X141604778Y-98741543D01*
X141433062Y-98803613D01*
X141417166Y-98812875D01*
X141416035Y-98813441D01*
X141377459Y-98835978D01*
X141327513Y-98849496D01*
X141288608Y-98849494D01*
X141288606Y-98849494D01*
X141282148Y-98849494D01*
X141282042Y-98849501D01*
X139838038Y-98849501D01*
X139837933Y-98849494D01*
X139792485Y-98849497D01*
X139742538Y-98835978D01*
X139704159Y-98813556D01*
X139702496Y-98812727D01*
X139692464Y-98806881D01*
X139686921Y-98803650D01*
X139686918Y-98803649D01*
X139515211Y-98741583D01*
X139515196Y-98741579D01*
X139335075Y-98711618D01*
X139152519Y-98714759D01*
X139152510Y-98714760D01*
X138973529Y-98750896D01*
X138804041Y-98818838D01*
X138649650Y-98916339D01*
X138515473Y-99040166D01*
X138515470Y-99040169D01*
X138405920Y-99186246D01*
X138324618Y-99349749D01*
X138324615Y-99349756D01*
X138274261Y-99525253D01*
X138274259Y-99525262D01*
X138256504Y-99706995D01*
X138271939Y-99888935D01*
X138320054Y-100065072D01*
X138320056Y-100065078D01*
X138327204Y-100079973D01*
X138328007Y-100081646D01*
X138328648Y-100083237D01*
X138349681Y-100126892D01*
X138359493Y-100169892D01*
X138359478Y-100219213D01*
X138359501Y-100219562D01*
X138359501Y-101480488D01*
X138359492Y-101480626D01*
X138359497Y-101530104D01*
X138349757Y-101572935D01*
X138346857Y-101578980D01*
X138346792Y-101579116D01*
X138328458Y-101617183D01*
X138328119Y-101618024D01*
X138320022Y-101634897D01*
X138320019Y-101634904D01*
X138320019Y-101634906D01*
X138271900Y-101811055D01*
X138263693Y-101907783D01*
X138239934Y-101964166D01*
X138187571Y-101995816D01*
X138126605Y-101990643D01*
X138095044Y-101969416D01*
X134404088Y-98278460D01*
X134376311Y-98223943D01*
X134385882Y-98163511D01*
X134429147Y-98120246D01*
X134446199Y-98113466D01*
X134475005Y-98105009D01*
X134596080Y-98027199D01*
X134619650Y-97999997D01*
X137254353Y-97999997D01*
X137254353Y-98000002D01*
X137274834Y-98142456D01*
X137326921Y-98256509D01*
X137334623Y-98273373D01*
X137370433Y-98314700D01*
X137428873Y-98382144D01*
X137549942Y-98459950D01*
X137549947Y-98459953D01*
X137643744Y-98487494D01*
X137688035Y-98500499D01*
X137688036Y-98500499D01*
X137688039Y-98500500D01*
X137688041Y-98500500D01*
X137831959Y-98500500D01*
X137831961Y-98500500D01*
X137970053Y-98459953D01*
X138091128Y-98382143D01*
X138185377Y-98273373D01*
X138245165Y-98142457D01*
X138251270Y-98099997D01*
X144454353Y-98099997D01*
X144454353Y-98100002D01*
X144474834Y-98242456D01*
X144534623Y-98373373D01*
X144609644Y-98459953D01*
X144633509Y-98487494D01*
X144631471Y-98489259D01*
X144656925Y-98531458D01*
X144659500Y-98553893D01*
X144659500Y-101146105D01*
X144640593Y-101204296D01*
X144633258Y-101212289D01*
X144633509Y-101212506D01*
X144534622Y-101326628D01*
X144474834Y-101457543D01*
X144454353Y-101599997D01*
X144454353Y-101600002D01*
X144474834Y-101742456D01*
X144506163Y-101811055D01*
X144534623Y-101873373D01*
X144628872Y-101982143D01*
X144628873Y-101982144D01*
X144749942Y-102059950D01*
X144749947Y-102059953D01*
X144856403Y-102091211D01*
X144888035Y-102100499D01*
X144888036Y-102100499D01*
X144888039Y-102100500D01*
X144888041Y-102100500D01*
X145031959Y-102100500D01*
X145031961Y-102100500D01*
X145170053Y-102059953D01*
X145291128Y-101982143D01*
X145385377Y-101873373D01*
X145445165Y-101742457D01*
X145460628Y-101634907D01*
X145465647Y-101600002D01*
X145465647Y-101599997D01*
X145445165Y-101457543D01*
X145385377Y-101326628D01*
X145385377Y-101326627D01*
X145291128Y-101217857D01*
X145291127Y-101217856D01*
X145286491Y-101212506D01*
X145288524Y-101210743D01*
X145263067Y-101168505D01*
X145260500Y-101146105D01*
X145260500Y-98553893D01*
X145279407Y-98495702D01*
X145286741Y-98487711D01*
X145286491Y-98487494D01*
X145291128Y-98482143D01*
X145385377Y-98373373D01*
X145445165Y-98242457D01*
X145464927Y-98105009D01*
X145465647Y-98100002D01*
X145465647Y-98099997D01*
X145445165Y-97957543D01*
X145438913Y-97943854D01*
X145385377Y-97826627D01*
X145291128Y-97717857D01*
X145291127Y-97717856D01*
X145291126Y-97717855D01*
X145170057Y-97640049D01*
X145170054Y-97640047D01*
X145170053Y-97640047D01*
X145153229Y-97635107D01*
X145031964Y-97599500D01*
X145031961Y-97599500D01*
X144888039Y-97599500D01*
X144888035Y-97599500D01*
X144749949Y-97640046D01*
X144749942Y-97640049D01*
X144628873Y-97717855D01*
X144534622Y-97826628D01*
X144474834Y-97957543D01*
X144454353Y-98099997D01*
X138251270Y-98099997D01*
X138260752Y-98034045D01*
X138265647Y-98000002D01*
X138265647Y-97999997D01*
X138245165Y-97857543D01*
X138231046Y-97826627D01*
X138185377Y-97726627D01*
X138091128Y-97617857D01*
X138091127Y-97617856D01*
X138086491Y-97612506D01*
X138088524Y-97610743D01*
X138063067Y-97568505D01*
X138060500Y-97546105D01*
X138060500Y-93041915D01*
X138079407Y-92983724D01*
X138128907Y-92947760D01*
X138190093Y-92947760D01*
X138239593Y-92983724D01*
X138245232Y-92992407D01*
X138258557Y-93015487D01*
X138258558Y-93015491D01*
X138258559Y-93015491D01*
X138269538Y-93034508D01*
X138269539Y-93034510D01*
X138329453Y-93094425D01*
X138357230Y-93148942D01*
X138357441Y-93178514D01*
X138354354Y-93199997D01*
X138354353Y-93200002D01*
X138374834Y-93342456D01*
X138425960Y-93454404D01*
X138434623Y-93473373D01*
X138528872Y-93582143D01*
X138528873Y-93582144D01*
X138649942Y-93659950D01*
X138649947Y-93659953D01*
X138756403Y-93691211D01*
X138788035Y-93700499D01*
X138788036Y-93700499D01*
X138788039Y-93700500D01*
X138788041Y-93700500D01*
X138931959Y-93700500D01*
X138931961Y-93700500D01*
X139070053Y-93659953D01*
X139191128Y-93582143D01*
X139285377Y-93473373D01*
X139345165Y-93342457D01*
X139365647Y-93200000D01*
X139362438Y-93177683D01*
X139345165Y-93057543D01*
X139335511Y-93036404D01*
X139285377Y-92926627D01*
X139191128Y-92817857D01*
X139191127Y-92817856D01*
X139191126Y-92817855D01*
X139070057Y-92740049D01*
X139070054Y-92740047D01*
X139070053Y-92740047D01*
X139070050Y-92740046D01*
X138931964Y-92699500D01*
X138931961Y-92699500D01*
X138909500Y-92699500D01*
X138851309Y-92680593D01*
X138815345Y-92631093D01*
X138810500Y-92600500D01*
X138810500Y-90814296D01*
X141190757Y-90814296D01*
X141212592Y-90995576D01*
X141212593Y-90995579D01*
X141266880Y-91169908D01*
X141266881Y-91169913D01*
X141348270Y-91324768D01*
X141351827Y-91331535D01*
X141447832Y-91453738D01*
X141464627Y-91475116D01*
X141477939Y-91486859D01*
X141601551Y-91595906D01*
X141753910Y-91687413D01*
X141758081Y-91689918D01*
X141787333Y-91700890D01*
X141929038Y-91754043D01*
X142108780Y-91786164D01*
X142127111Y-91786091D01*
X142128538Y-91786179D01*
X142134208Y-91786149D01*
X142134211Y-91786150D01*
X142173157Y-91785945D01*
X142223176Y-91799207D01*
X143552549Y-92566721D01*
X143589039Y-92603400D01*
X143610895Y-92641710D01*
X143612258Y-92643771D01*
X143621075Y-92659185D01*
X143724711Y-92782143D01*
X143738746Y-92798794D01*
X143738747Y-92798796D01*
X143738749Y-92798797D01*
X143738751Y-92798800D01*
X143879756Y-92914807D01*
X144039431Y-93003371D01*
X144212498Y-93061567D01*
X144212501Y-93061568D01*
X144393246Y-93087474D01*
X144575694Y-93080233D01*
X144753818Y-93040085D01*
X144921731Y-92968355D01*
X145073885Y-92867414D01*
X145205253Y-92740598D01*
X145311494Y-92592096D01*
X145389098Y-92426816D01*
X145435500Y-92250218D01*
X145436893Y-92231958D01*
X145437072Y-92230704D01*
X145438609Y-92210261D01*
X145440745Y-92181834D01*
X145453735Y-92139745D01*
X145475304Y-92102400D01*
X145475304Y-92102396D01*
X145478828Y-92096296D01*
X145478877Y-92096194D01*
X145480104Y-92094070D01*
X145797921Y-91543595D01*
X146107263Y-91007799D01*
X146107273Y-91007784D01*
X146112279Y-90999111D01*
X146112281Y-90999111D01*
X146133871Y-90961714D01*
X146163826Y-90929423D01*
X146199516Y-90905083D01*
X146199518Y-90905080D01*
X146204004Y-90902021D01*
X146205569Y-90900794D01*
X146220364Y-90890681D01*
X146350120Y-90762202D01*
X146454474Y-90612355D01*
X146529977Y-90446094D01*
X146574134Y-90268910D01*
X146585485Y-90086661D01*
X146563656Y-89905368D01*
X146559757Y-89892848D01*
X146512660Y-89741595D01*
X146513412Y-89680414D01*
X146549981Y-89631360D01*
X146608400Y-89613169D01*
X146666354Y-89632791D01*
X146677187Y-89642158D01*
X149119540Y-92084511D01*
X149119539Y-92084511D01*
X149175489Y-92140460D01*
X149244007Y-92180019D01*
X149244011Y-92180021D01*
X149320435Y-92200499D01*
X149320437Y-92200500D01*
X149320438Y-92200500D01*
X149399562Y-92200500D01*
X149512917Y-92200500D01*
X149571108Y-92219407D01*
X149587733Y-92234667D01*
X149628872Y-92282143D01*
X149749947Y-92359953D01*
X149856403Y-92391211D01*
X149888035Y-92400499D01*
X149888036Y-92400499D01*
X149888039Y-92400500D01*
X149888041Y-92400500D01*
X150031959Y-92400500D01*
X150031961Y-92400500D01*
X150170053Y-92359953D01*
X150291128Y-92282143D01*
X150385377Y-92173373D01*
X150445165Y-92042457D01*
X150456781Y-91961666D01*
X150465647Y-91900002D01*
X150465647Y-91899997D01*
X150445165Y-91757543D01*
X150436657Y-91738914D01*
X150410568Y-91681788D01*
X154773469Y-91681788D01*
X154780717Y-91864231D01*
X154780718Y-91864234D01*
X154820870Y-92042352D01*
X154820871Y-92042356D01*
X154820872Y-92042357D01*
X154892598Y-92210256D01*
X154892602Y-92210265D01*
X154993533Y-92362405D01*
X154993538Y-92362412D01*
X155120350Y-92493779D01*
X155268845Y-92600023D01*
X155434119Y-92677632D01*
X155434123Y-92677633D01*
X155434129Y-92677635D01*
X155610699Y-92724041D01*
X155610704Y-92724041D01*
X155610710Y-92724043D01*
X155628946Y-92725435D01*
X155629888Y-92725570D01*
X155635840Y-92726019D01*
X155635842Y-92726020D01*
X155679148Y-92729290D01*
X155721191Y-92742271D01*
X156814287Y-93373371D01*
X156899236Y-93422416D01*
X156931538Y-93452391D01*
X156959022Y-93492710D01*
X156959756Y-93493647D01*
X156963572Y-93499226D01*
X156970265Y-93509013D01*
X156970268Y-93509016D01*
X157098751Y-93638744D01*
X157098754Y-93638746D01*
X157098755Y-93638747D01*
X157248608Y-93743079D01*
X157248609Y-93743079D01*
X157248610Y-93743080D01*
X157259128Y-93747855D01*
X157414870Y-93818563D01*
X157592049Y-93862704D01*
X157774292Y-93874044D01*
X157929548Y-93855343D01*
X157989583Y-93867155D01*
X158031208Y-93911999D01*
X158038526Y-93972745D01*
X158011392Y-94023636D01*
X156664524Y-95370504D01*
X156610007Y-95398281D01*
X156594520Y-95399500D01*
X156488035Y-95399500D01*
X156349949Y-95440046D01*
X156349942Y-95440049D01*
X156228873Y-95517855D01*
X156134622Y-95626628D01*
X156074834Y-95757543D01*
X156054353Y-95899997D01*
X156054353Y-95900002D01*
X156074834Y-96042456D01*
X156121071Y-96143698D01*
X156134623Y-96173373D01*
X156228872Y-96282143D01*
X156228873Y-96282144D01*
X156328568Y-96346214D01*
X156367300Y-96393580D01*
X156370793Y-96454666D01*
X156337713Y-96506138D01*
X156302937Y-96524488D01*
X156249947Y-96540047D01*
X156249942Y-96540049D01*
X156128873Y-96617855D01*
X156034622Y-96726628D01*
X155974834Y-96857543D01*
X155954353Y-96999997D01*
X155954353Y-97000002D01*
X155974834Y-97142456D01*
X155994311Y-97185103D01*
X156034623Y-97273373D01*
X156128872Y-97382143D01*
X156128873Y-97382144D01*
X156228089Y-97445906D01*
X156249947Y-97459953D01*
X156356403Y-97491211D01*
X156388035Y-97500499D01*
X156388036Y-97500499D01*
X156388039Y-97500500D01*
X156388041Y-97500500D01*
X156531959Y-97500500D01*
X156531961Y-97500500D01*
X156670053Y-97459953D01*
X156791128Y-97382143D01*
X156885377Y-97273373D01*
X156945165Y-97142457D01*
X156965647Y-97000000D01*
X156962558Y-96978517D01*
X156972990Y-96918228D01*
X156990543Y-96894426D01*
X157873876Y-96011093D01*
X157928391Y-95983318D01*
X157988823Y-95992889D01*
X158032088Y-96036154D01*
X158041659Y-96096586D01*
X158029615Y-96130599D01*
X157575363Y-96917388D01*
X157556199Y-96973845D01*
X157556199Y-96973849D01*
X157557875Y-96999409D01*
X157561417Y-97053440D01*
X157596695Y-97124979D01*
X157596696Y-97124980D01*
X157596697Y-97124982D01*
X157641522Y-97164292D01*
X157641523Y-97164292D01*
X157641526Y-97164295D01*
X159147974Y-98034043D01*
X159147977Y-98034044D01*
X159147979Y-98034045D01*
X159175376Y-98043344D01*
X159204438Y-98053210D01*
X159284031Y-98047992D01*
X159355570Y-98012714D01*
X159394886Y-97967883D01*
X160264634Y-96461435D01*
X160283801Y-96404971D01*
X160278583Y-96325378D01*
X160243305Y-96253839D01*
X160243303Y-96253837D01*
X160243302Y-96253835D01*
X160198477Y-96214525D01*
X160198474Y-96214523D01*
X158707502Y-95353710D01*
X158666562Y-95308241D01*
X158660166Y-95247391D01*
X158687000Y-95197970D01*
X159045967Y-94839004D01*
X159100483Y-94811227D01*
X159160915Y-94820798D01*
X159204180Y-94864063D01*
X159210707Y-94880270D01*
X159214768Y-94893658D01*
X159312316Y-95076156D01*
X159320524Y-95086157D01*
X159443590Y-95236114D01*
X159443595Y-95236118D01*
X159603547Y-95367387D01*
X159603548Y-95367387D01*
X159603550Y-95367389D01*
X159786046Y-95464936D01*
X159895615Y-95498173D01*
X159984065Y-95525004D01*
X159984070Y-95525005D01*
X160189997Y-95545287D01*
X160190000Y-95545287D01*
X160190003Y-95545287D01*
X160395929Y-95525005D01*
X160395934Y-95525004D01*
X160593954Y-95464936D01*
X160776450Y-95367389D01*
X160936410Y-95236114D01*
X161067685Y-95076154D01*
X161165232Y-94893658D01*
X161225300Y-94695638D01*
X161225301Y-94695633D01*
X161245583Y-94489707D01*
X161245583Y-94489700D01*
X161225301Y-94283774D01*
X161225300Y-94283769D01*
X161197601Y-94192457D01*
X161165232Y-94085750D01*
X161067685Y-93903254D01*
X161043712Y-93874043D01*
X160944622Y-93753300D01*
X160936410Y-93743294D01*
X160884264Y-93700499D01*
X160776452Y-93612020D01*
X160593954Y-93514472D01*
X160395934Y-93454403D01*
X160395929Y-93454402D01*
X160190003Y-93434121D01*
X160189997Y-93434121D01*
X159984070Y-93454402D01*
X159984065Y-93454403D01*
X159786045Y-93514472D01*
X159603547Y-93612020D01*
X159443595Y-93743289D01*
X159443585Y-93743299D01*
X159312316Y-93903251D01*
X159214768Y-94085749D01*
X159214767Y-94085751D01*
X159204700Y-94118941D01*
X159169716Y-94169138D01*
X159111908Y-94189185D01*
X159109963Y-94189204D01*
X158934775Y-94189204D01*
X158876584Y-94170297D01*
X158840620Y-94120797D01*
X158840620Y-94059611D01*
X158864771Y-94020200D01*
X160265475Y-92619496D01*
X160319992Y-92591719D01*
X160335479Y-92590500D01*
X160379963Y-92590500D01*
X160438154Y-92609407D01*
X160474118Y-92658907D01*
X160474700Y-92660763D01*
X160484767Y-92693952D01*
X160484768Y-92693954D01*
X160582316Y-92876452D01*
X160713585Y-93036404D01*
X160713590Y-93036410D01*
X160713595Y-93036414D01*
X160873547Y-93167683D01*
X160873548Y-93167683D01*
X160873550Y-93167685D01*
X161056046Y-93265232D01*
X161192739Y-93306697D01*
X161254065Y-93325300D01*
X161254070Y-93325301D01*
X161459997Y-93345583D01*
X161460000Y-93345583D01*
X161460003Y-93345583D01*
X161665929Y-93325301D01*
X161665934Y-93325300D01*
X161863954Y-93265232D01*
X162046450Y-93167685D01*
X162206410Y-93036410D01*
X162337685Y-92876450D01*
X162435232Y-92693954D01*
X162495300Y-92495934D01*
X162495301Y-92495929D01*
X162515583Y-92290003D01*
X162515583Y-92289996D01*
X162495301Y-92084070D01*
X162495300Y-92084065D01*
X162460527Y-91969434D01*
X162435232Y-91886046D01*
X162337685Y-91703550D01*
X162335657Y-91701079D01*
X162206414Y-91543595D01*
X162206410Y-91543590D01*
X162184226Y-91525384D01*
X162046452Y-91412316D01*
X161863954Y-91314768D01*
X161665934Y-91254699D01*
X161665929Y-91254698D01*
X161460003Y-91234417D01*
X161459997Y-91234417D01*
X161254070Y-91254698D01*
X161254065Y-91254699D01*
X161056045Y-91314768D01*
X160873547Y-91412316D01*
X160713595Y-91543585D01*
X160713585Y-91543595D01*
X160582316Y-91703547D01*
X160484768Y-91886045D01*
X160484767Y-91886047D01*
X160474700Y-91919237D01*
X160439716Y-91969434D01*
X160381908Y-91989481D01*
X160379963Y-91989500D01*
X160130435Y-91989500D01*
X160054014Y-92009977D01*
X160054010Y-92009979D01*
X159997941Y-92042349D01*
X159997942Y-92042350D01*
X159985490Y-92049539D01*
X158896658Y-93138370D01*
X158842141Y-93166147D01*
X158781709Y-93156576D01*
X158738444Y-93113311D01*
X158728873Y-93052879D01*
X158729174Y-93051087D01*
X158746167Y-92955982D01*
X158746094Y-92937678D01*
X158746176Y-92936330D01*
X158746146Y-92930591D01*
X158746147Y-92930589D01*
X158745944Y-92891618D01*
X158759209Y-92841600D01*
X158778677Y-92807885D01*
X158778677Y-92807883D01*
X158782712Y-92800896D01*
X158782729Y-92800860D01*
X158817840Y-92740047D01*
X159077673Y-92290003D01*
X159526722Y-91512228D01*
X159563405Y-91475735D01*
X159597251Y-91456430D01*
X159597251Y-91456429D01*
X159601970Y-91453738D01*
X159603579Y-91452672D01*
X159619213Y-91443730D01*
X159758828Y-91326050D01*
X159763489Y-91320385D01*
X159874832Y-91185042D01*
X159891007Y-91155879D01*
X159963396Y-91025362D01*
X160021591Y-90852290D01*
X160047495Y-90671542D01*
X160040251Y-90489091D01*
X160000100Y-90310966D01*
X159928368Y-90143052D01*
X159928365Y-90143048D01*
X159928364Y-90143045D01*
X159893366Y-90090291D01*
X161674417Y-90090291D01*
X161674417Y-90090298D01*
X161694698Y-90296224D01*
X161694699Y-90296229D01*
X161754768Y-90494249D01*
X161852316Y-90676747D01*
X161967655Y-90817288D01*
X161983590Y-90836705D01*
X162002584Y-90852293D01*
X162143547Y-90967978D01*
X162143548Y-90967978D01*
X162143550Y-90967980D01*
X162326046Y-91065527D01*
X162463997Y-91107373D01*
X162524065Y-91125595D01*
X162524070Y-91125596D01*
X162729997Y-91145878D01*
X162730000Y-91145878D01*
X162730003Y-91145878D01*
X162935929Y-91125596D01*
X162935934Y-91125595D01*
X163133954Y-91065527D01*
X163316450Y-90967980D01*
X163476410Y-90836705D01*
X163607685Y-90676745D01*
X163705232Y-90494249D01*
X163765300Y-90296229D01*
X163765301Y-90296224D01*
X163785583Y-90090298D01*
X163785583Y-90090291D01*
X163765301Y-89884365D01*
X163765300Y-89884360D01*
X163741083Y-89804527D01*
X163705232Y-89686341D01*
X163607685Y-89503845D01*
X163592269Y-89485061D01*
X163484622Y-89353891D01*
X163476410Y-89343885D01*
X163433493Y-89308664D01*
X163316452Y-89212611D01*
X163133958Y-89115065D01*
X163133957Y-89115064D01*
X163133954Y-89115063D01*
X163133948Y-89115061D01*
X163133945Y-89115060D01*
X163100759Y-89104992D01*
X163050563Y-89070006D01*
X163030519Y-89012197D01*
X163030500Y-89010256D01*
X163030500Y-88641064D01*
X163049407Y-88582873D01*
X163098907Y-88546909D01*
X163160093Y-88546909D01*
X163206028Y-88578260D01*
X163253938Y-88636640D01*
X163253941Y-88636643D01*
X163389543Y-88747928D01*
X163389544Y-88747928D01*
X163771502Y-88086358D01*
X163815795Y-88130651D01*
X163884204Y-88170147D01*
X163944707Y-88186358D01*
X163562957Y-88847569D01*
X163562957Y-88847570D01*
X163596232Y-88865356D01*
X163596237Y-88865358D01*
X163794163Y-88925399D01*
X163794169Y-88925400D01*
X163999996Y-88945672D01*
X164000004Y-88945672D01*
X164205830Y-88925400D01*
X164205836Y-88925399D01*
X164403762Y-88865358D01*
X164403767Y-88865356D01*
X164586160Y-88767866D01*
X164586170Y-88767859D01*
X164746050Y-88636649D01*
X164746059Y-88636640D01*
X164857337Y-88501046D01*
X164857337Y-88501045D01*
X164195768Y-88119087D01*
X164240060Y-88074796D01*
X164279556Y-88006387D01*
X164295767Y-87945882D01*
X164956978Y-88327633D01*
X164974768Y-88294352D01*
X165034808Y-88096427D01*
X165034809Y-88096421D01*
X165055081Y-87890595D01*
X165055081Y-87890586D01*
X165034809Y-87684760D01*
X165034808Y-87684754D01*
X164974767Y-87486828D01*
X164974765Y-87486823D01*
X164877275Y-87304430D01*
X164877268Y-87304420D01*
X164746057Y-87144538D01*
X164610455Y-87033252D01*
X164610454Y-87033252D01*
X164228496Y-87694822D01*
X164184205Y-87650531D01*
X164115796Y-87611035D01*
X164055290Y-87594822D01*
X164437041Y-86933610D01*
X164403771Y-86915827D01*
X164403754Y-86915821D01*
X164205836Y-86855782D01*
X164205830Y-86855781D01*
X164000004Y-86835510D01*
X163999996Y-86835510D01*
X163794169Y-86855781D01*
X163794163Y-86855782D01*
X163596237Y-86915823D01*
X163596232Y-86915825D01*
X163413839Y-87013315D01*
X163413829Y-87013322D01*
X163253949Y-87144531D01*
X163253940Y-87144540D01*
X163206028Y-87202922D01*
X163154497Y-87235909D01*
X163093417Y-87232307D01*
X163046120Y-87193492D01*
X163030500Y-87140117D01*
X163030500Y-79375164D01*
X163049407Y-79316973D01*
X163075974Y-79291881D01*
X163091128Y-79282143D01*
X163185377Y-79173373D01*
X163245165Y-79042457D01*
X163263478Y-78915085D01*
X163265647Y-78900002D01*
X163265647Y-78899997D01*
X163245165Y-78757543D01*
X163231881Y-78728456D01*
X163185377Y-78626627D01*
X163091128Y-78517857D01*
X163091127Y-78517856D01*
X163091126Y-78517855D01*
X162970057Y-78440049D01*
X162970054Y-78440047D01*
X162970053Y-78440047D01*
X162970050Y-78440046D01*
X162831964Y-78399500D01*
X162831961Y-78399500D01*
X162688039Y-78399500D01*
X162688035Y-78399500D01*
X162549949Y-78440046D01*
X162549942Y-78440049D01*
X162428873Y-78517855D01*
X162334622Y-78626628D01*
X162274834Y-78757543D01*
X162254353Y-78899997D01*
X162254353Y-78900002D01*
X162274834Y-79042456D01*
X162308704Y-79116620D01*
X162334623Y-79173373D01*
X162405320Y-79254962D01*
X162429137Y-79311322D01*
X162429500Y-79319793D01*
X162429500Y-89010256D01*
X162410593Y-89068447D01*
X162361093Y-89104411D01*
X162359241Y-89104992D01*
X162326054Y-89115060D01*
X162326041Y-89115065D01*
X162143547Y-89212611D01*
X161983595Y-89343880D01*
X161983585Y-89343890D01*
X161852316Y-89503842D01*
X161754768Y-89686340D01*
X161694699Y-89884360D01*
X161694698Y-89884365D01*
X161674417Y-90090291D01*
X159893366Y-90090291D01*
X159840286Y-90010282D01*
X159827425Y-89990896D01*
X159827420Y-89990891D01*
X159827418Y-89990888D01*
X159700607Y-89859528D01*
X159552102Y-89753286D01*
X159386821Y-89675682D01*
X159210221Y-89629280D01*
X159210222Y-89629280D01*
X159191904Y-89627882D01*
X159190465Y-89627678D01*
X159141843Y-89624031D01*
X159099735Y-89611036D01*
X159078611Y-89598835D01*
X159062422Y-89589485D01*
X159062420Y-89589484D01*
X159056900Y-89586296D01*
X159056735Y-89586214D01*
X157921712Y-88930906D01*
X157889422Y-88900950D01*
X157876595Y-88882143D01*
X157865093Y-88865277D01*
X157865091Y-88865275D01*
X157862137Y-88860944D01*
X157860748Y-88859169D01*
X157850664Y-88844419D01*
X157850662Y-88844417D01*
X157850661Y-88844415D01*
X157722183Y-88714665D01*
X157722177Y-88714661D01*
X157722175Y-88714659D01*
X157572344Y-88610321D01*
X157572335Y-88610316D01*
X157406079Y-88534819D01*
X157228908Y-88490667D01*
X157228905Y-88490666D01*
X157156005Y-88486126D01*
X157046659Y-88479316D01*
X157046657Y-88479316D01*
X157046656Y-88479316D01*
X156865374Y-88501143D01*
X156865372Y-88501143D01*
X156865371Y-88501144D01*
X156705071Y-88551058D01*
X156691027Y-88555431D01*
X156691024Y-88555432D01*
X156529402Y-88640375D01*
X156529396Y-88640379D01*
X156385816Y-88753180D01*
X156385813Y-88753182D01*
X156385812Y-88753184D01*
X156373498Y-88767144D01*
X156265018Y-88890120D01*
X156171013Y-89046657D01*
X156171012Y-89046657D01*
X156106896Y-89217627D01*
X156074788Y-89397381D01*
X156074862Y-89415730D01*
X156074788Y-89416954D01*
X156075017Y-89461720D01*
X156061754Y-89511726D01*
X156039797Y-89549754D01*
X156039777Y-89549793D01*
X155316136Y-90803179D01*
X155316107Y-90803223D01*
X155294243Y-90841099D01*
X155257560Y-90877594D01*
X155242999Y-90885901D01*
X155218799Y-90899706D01*
X155217673Y-90900451D01*
X155201688Y-90909597D01*
X155062096Y-91027278D01*
X155062089Y-91027285D01*
X154946099Y-91168298D01*
X154946098Y-91168300D01*
X154857550Y-91327973D01*
X154799365Y-91501046D01*
X154799363Y-91501055D01*
X154773470Y-91681782D01*
X154773469Y-91681788D01*
X150410568Y-91681788D01*
X150385377Y-91626627D01*
X150291128Y-91517857D01*
X150291127Y-91517856D01*
X150291126Y-91517855D01*
X150170057Y-91440049D01*
X150170054Y-91440047D01*
X150170053Y-91440047D01*
X150170050Y-91440046D01*
X150031964Y-91399500D01*
X150031961Y-91399500D01*
X149888039Y-91399500D01*
X149888035Y-91399500D01*
X149749949Y-91440046D01*
X149749942Y-91440049D01*
X149628876Y-91517854D01*
X149628870Y-91517859D01*
X149593566Y-91558601D01*
X149541170Y-91590197D01*
X149480209Y-91584960D01*
X149448744Y-91563773D01*
X147021126Y-89136155D01*
X146993349Y-89081638D01*
X147002920Y-89021206D01*
X147046185Y-88977941D01*
X147106617Y-88968370D01*
X147148733Y-88985635D01*
X147168845Y-89000024D01*
X147334118Y-89077633D01*
X147334124Y-89077634D01*
X147334128Y-89077636D01*
X147510705Y-89124043D01*
X147510706Y-89124043D01*
X147510710Y-89124044D01*
X147528975Y-89125438D01*
X147530705Y-89125685D01*
X147536200Y-89126095D01*
X147536201Y-89126096D01*
X147579091Y-89129303D01*
X147621237Y-89142308D01*
X147658449Y-89163810D01*
X147658451Y-89163810D01*
X147664056Y-89167049D01*
X147664414Y-89167225D01*
X148756234Y-89797589D01*
X148756331Y-89797654D01*
X148799236Y-89822419D01*
X148831539Y-89852387D01*
X148859128Y-89892848D01*
X148859770Y-89893667D01*
X148870264Y-89909012D01*
X148870268Y-89909016D01*
X148998751Y-90038744D01*
X148998754Y-90038746D01*
X148998755Y-90038747D01*
X149148608Y-90143079D01*
X149314870Y-90218563D01*
X149492049Y-90262704D01*
X149674292Y-90274044D01*
X149855576Y-90252208D01*
X150029914Y-90197918D01*
X150191544Y-90112967D01*
X150335127Y-90000163D01*
X150455919Y-89863231D01*
X150549929Y-89706697D01*
X150614051Y-89535731D01*
X150646167Y-89355982D01*
X150646094Y-89337678D01*
X150646176Y-89336330D01*
X150646146Y-89330591D01*
X150646147Y-89330589D01*
X150645944Y-89291617D01*
X150659204Y-89241608D01*
X151426722Y-87912226D01*
X151463405Y-87875735D01*
X151497251Y-87856430D01*
X151497252Y-87856428D01*
X151501969Y-87853738D01*
X151503579Y-87852672D01*
X151519213Y-87843730D01*
X151658827Y-87726051D01*
X151774833Y-87585041D01*
X151863396Y-87425363D01*
X151921591Y-87252290D01*
X151947495Y-87071542D01*
X151940684Y-86899997D01*
X157454353Y-86899997D01*
X157454353Y-86900002D01*
X157474834Y-87042456D01*
X157503068Y-87104278D01*
X157534623Y-87173373D01*
X157613420Y-87264310D01*
X157628873Y-87282144D01*
X157705225Y-87331212D01*
X157749947Y-87359953D01*
X157846765Y-87388381D01*
X157888035Y-87400499D01*
X157888036Y-87400499D01*
X157888039Y-87400500D01*
X157888041Y-87400500D01*
X158031959Y-87400500D01*
X158031961Y-87400500D01*
X158170053Y-87359953D01*
X158291128Y-87282143D01*
X158332264Y-87234668D01*
X158384660Y-87203073D01*
X158407083Y-87200500D01*
X160012917Y-87200500D01*
X160071108Y-87219407D01*
X160087733Y-87234667D01*
X160128872Y-87282143D01*
X160249947Y-87359953D01*
X160346765Y-87388381D01*
X160388035Y-87400499D01*
X160388036Y-87400499D01*
X160388039Y-87400500D01*
X160388041Y-87400500D01*
X160531959Y-87400500D01*
X160531961Y-87400500D01*
X160670053Y-87359953D01*
X160791128Y-87282143D01*
X160885377Y-87173373D01*
X160945165Y-87042457D01*
X160962450Y-86922237D01*
X160965647Y-86900002D01*
X160965647Y-86899997D01*
X160945165Y-86757543D01*
X160910731Y-86682144D01*
X160885377Y-86626627D01*
X160791128Y-86517857D01*
X160791127Y-86517856D01*
X160791126Y-86517855D01*
X160670057Y-86440049D01*
X160670054Y-86440047D01*
X160670053Y-86440047D01*
X160670050Y-86440046D01*
X160531964Y-86399500D01*
X160531961Y-86399500D01*
X160388039Y-86399500D01*
X160388035Y-86399500D01*
X160249949Y-86440046D01*
X160249942Y-86440049D01*
X160128876Y-86517854D01*
X160128875Y-86517855D01*
X160128872Y-86517857D01*
X160095859Y-86555957D01*
X160087736Y-86565331D01*
X160035340Y-86596927D01*
X160012917Y-86599500D01*
X158407083Y-86599500D01*
X158348892Y-86580593D01*
X158332264Y-86565331D01*
X158291128Y-86517857D01*
X158258182Y-86496684D01*
X158170057Y-86440049D01*
X158170054Y-86440047D01*
X158170053Y-86440047D01*
X158170050Y-86440046D01*
X158031964Y-86399500D01*
X158031961Y-86399500D01*
X157888039Y-86399500D01*
X157888035Y-86399500D01*
X157749949Y-86440046D01*
X157749942Y-86440049D01*
X157628873Y-86517855D01*
X157534622Y-86626628D01*
X157474834Y-86757543D01*
X157454353Y-86899997D01*
X151940684Y-86899997D01*
X151940251Y-86889091D01*
X151900100Y-86710966D01*
X151828368Y-86543051D01*
X151828365Y-86543047D01*
X151828364Y-86543044D01*
X151727425Y-86390896D01*
X151600606Y-86259527D01*
X151452103Y-86153286D01*
X151286819Y-86075681D01*
X151110219Y-86029279D01*
X151110221Y-86029279D01*
X151091894Y-86027880D01*
X151090625Y-86027700D01*
X151041830Y-86024033D01*
X150999747Y-86011046D01*
X150958067Y-85986979D01*
X150958014Y-85986952D01*
X149821713Y-85330908D01*
X149789423Y-85300951D01*
X149765094Y-85265276D01*
X149765092Y-85265274D01*
X149762128Y-85260928D01*
X149760738Y-85259153D01*
X149750660Y-85244413D01*
X149622180Y-85114663D01*
X149472342Y-85010320D01*
X149472333Y-85010315D01*
X149351474Y-84955433D01*
X149306079Y-84934819D01*
X149306078Y-84934818D01*
X149128903Y-84890666D01*
X149056003Y-84886126D01*
X148946657Y-84879316D01*
X148946655Y-84879316D01*
X148946654Y-84879316D01*
X148765372Y-84901144D01*
X148765370Y-84901144D01*
X148765369Y-84901145D01*
X148657228Y-84934818D01*
X148591026Y-84955432D01*
X148591023Y-84955433D01*
X148429397Y-85040378D01*
X148285813Y-85153184D01*
X148165017Y-85290121D01*
X148071012Y-85446657D01*
X148071009Y-85446664D01*
X148006897Y-85617625D01*
X148006896Y-85617628D01*
X147974788Y-85797383D01*
X147974862Y-85815820D01*
X147974789Y-85817037D01*
X147975018Y-85861718D01*
X147961755Y-85911724D01*
X147942283Y-85945450D01*
X147942282Y-85945452D01*
X147939783Y-85949781D01*
X147939777Y-85949793D01*
X147215832Y-87203703D01*
X147215812Y-87203735D01*
X147195948Y-87238145D01*
X147195939Y-87238160D01*
X147194233Y-87241114D01*
X147157558Y-87277595D01*
X147118805Y-87299701D01*
X147117673Y-87300450D01*
X147101688Y-87309596D01*
X146962093Y-87427279D01*
X146962086Y-87427286D01*
X146846104Y-87568289D01*
X146846093Y-87568305D01*
X146757552Y-87727967D01*
X146757546Y-87727980D01*
X146699366Y-87901043D01*
X146699363Y-87901054D01*
X146673469Y-88081782D01*
X146673468Y-88081786D01*
X146680715Y-88264230D01*
X146680717Y-88264242D01*
X146720868Y-88442352D01*
X146792597Y-88610258D01*
X146792599Y-88610261D01*
X146831602Y-88669054D01*
X146832280Y-88670075D01*
X146848693Y-88729018D01*
X146827326Y-88786351D01*
X146776340Y-88820176D01*
X146715210Y-88817571D01*
X146679779Y-88794808D01*
X146490546Y-88605575D01*
X146462769Y-88551058D01*
X146462558Y-88521482D01*
X146465647Y-88500000D01*
X146464642Y-88493012D01*
X146445165Y-88357543D01*
X146417819Y-88297664D01*
X146385377Y-88226627D01*
X146291128Y-88117857D01*
X146291127Y-88117856D01*
X146291126Y-88117855D01*
X146170057Y-88040049D01*
X146170054Y-88040047D01*
X146170053Y-88040047D01*
X146170050Y-88040046D01*
X146031964Y-87999500D01*
X146031961Y-87999500D01*
X145888039Y-87999500D01*
X145888035Y-87999500D01*
X145749949Y-88040046D01*
X145749942Y-88040049D01*
X145628873Y-88117855D01*
X145534622Y-88226628D01*
X145474834Y-88357543D01*
X145454353Y-88499997D01*
X145454353Y-88500002D01*
X145474834Y-88642456D01*
X145530552Y-88764459D01*
X145534623Y-88773373D01*
X145610503Y-88860944D01*
X145628873Y-88882144D01*
X145707314Y-88932555D01*
X145746046Y-88979921D01*
X145749539Y-89041007D01*
X145716459Y-89092479D01*
X145659443Y-89114678D01*
X145654188Y-89114838D01*
X145648952Y-89114859D01*
X145647621Y-89114779D01*
X145641991Y-89114808D01*
X145641989Y-89114808D01*
X145621034Y-89114918D01*
X145603065Y-89115013D01*
X145553045Y-89101751D01*
X144965294Y-88762413D01*
X144257412Y-88353717D01*
X144257411Y-88353716D01*
X144245868Y-88347052D01*
X144227005Y-88336162D01*
X144227002Y-88336159D01*
X144227002Y-88336160D01*
X144223682Y-88334243D01*
X144187252Y-88297665D01*
X144185426Y-88294473D01*
X144168176Y-88264233D01*
X144164971Y-88258614D01*
X144164511Y-88257917D01*
X144155211Y-88241665D01*
X144155210Y-88241663D01*
X144037518Y-88102063D01*
X144037517Y-88102062D01*
X143896505Y-87986076D01*
X143896503Y-87986075D01*
X143896501Y-87986073D01*
X143736818Y-87897524D01*
X143736814Y-87897522D01*
X143736809Y-87897520D01*
X143563754Y-87839344D01*
X143563738Y-87839340D01*
X143383004Y-87813448D01*
X143382999Y-87813447D01*
X143200553Y-87820697D01*
X143200544Y-87820699D01*
X143022435Y-87860851D01*
X143022427Y-87860854D01*
X142854526Y-87932583D01*
X142854513Y-87932590D01*
X142702368Y-88033527D01*
X142702364Y-88033530D01*
X142570999Y-88160341D01*
X142464755Y-88308840D01*
X142387148Y-88474113D01*
X142387143Y-88474126D01*
X142340736Y-88650703D01*
X142340734Y-88650712D01*
X142339333Y-88669054D01*
X142339088Y-88670789D01*
X142335476Y-88719089D01*
X142322471Y-88761235D01*
X142297854Y-88803836D01*
X142297667Y-88804216D01*
X141666794Y-89896919D01*
X141666747Y-89896991D01*
X141642361Y-89939237D01*
X141612393Y-89971538D01*
X141572062Y-89999037D01*
X141571058Y-89999823D01*
X141555768Y-90010280D01*
X141555766Y-90010282D01*
X141426036Y-90138776D01*
X141321712Y-90288623D01*
X141321708Y-90288630D01*
X141246233Y-90454880D01*
X141202095Y-90632054D01*
X141202095Y-90632058D01*
X141199639Y-90671542D01*
X141190757Y-90814296D01*
X138810500Y-90814296D01*
X138810500Y-83850316D01*
X138829407Y-83792125D01*
X138878907Y-83756161D01*
X138940093Y-83756161D01*
X138949471Y-83759813D01*
X138949946Y-83759952D01*
X138949947Y-83759953D01*
X139025527Y-83782145D01*
X139088035Y-83800499D01*
X139088036Y-83800499D01*
X139088039Y-83800500D01*
X139088041Y-83800500D01*
X139231959Y-83800500D01*
X139231961Y-83800500D01*
X139370053Y-83759953D01*
X139491128Y-83682143D01*
X139585377Y-83573373D01*
X139645165Y-83442457D01*
X139651270Y-83399997D01*
X149254353Y-83399997D01*
X149254353Y-83400002D01*
X149274834Y-83542456D01*
X149313275Y-83626628D01*
X149334623Y-83673373D01*
X149428870Y-83782141D01*
X149428873Y-83782144D01*
X149549942Y-83859950D01*
X149549947Y-83859953D01*
X149628051Y-83882886D01*
X149688035Y-83900499D01*
X149688036Y-83900499D01*
X149688039Y-83900500D01*
X149688041Y-83900500D01*
X149831959Y-83900500D01*
X149831961Y-83900500D01*
X149970053Y-83859953D01*
X150091128Y-83782143D01*
X150132264Y-83734668D01*
X150184660Y-83703073D01*
X150207083Y-83700500D01*
X150794521Y-83700500D01*
X150852712Y-83719407D01*
X150864525Y-83729496D01*
X151229453Y-84094424D01*
X151257230Y-84148941D01*
X151257441Y-84178514D01*
X151254354Y-84199997D01*
X151254353Y-84200002D01*
X151274834Y-84342456D01*
X151312685Y-84425337D01*
X151334623Y-84473373D01*
X151361807Y-84504745D01*
X151428873Y-84582144D01*
X151549942Y-84659950D01*
X151549947Y-84659953D01*
X151656403Y-84691211D01*
X151688035Y-84700499D01*
X151688036Y-84700499D01*
X151688039Y-84700500D01*
X151688041Y-84700500D01*
X151831959Y-84700500D01*
X151831961Y-84700500D01*
X151970053Y-84659953D01*
X152091128Y-84582143D01*
X152185377Y-84473373D01*
X152245165Y-84342457D01*
X152258557Y-84249316D01*
X152265647Y-84200002D01*
X152265647Y-84199997D01*
X152245165Y-84057543D01*
X152202859Y-83964907D01*
X152185377Y-83926627D01*
X152091128Y-83817857D01*
X152091127Y-83817856D01*
X152091126Y-83817855D01*
X151970057Y-83740049D01*
X151970054Y-83740047D01*
X151970053Y-83740047D01*
X151970050Y-83740046D01*
X151831964Y-83699500D01*
X151831961Y-83699500D01*
X151725479Y-83699500D01*
X151667288Y-83680593D01*
X151655475Y-83670504D01*
X151427427Y-83442456D01*
X151144511Y-83159540D01*
X151141054Y-83157544D01*
X151141052Y-83157542D01*
X151141052Y-83157543D01*
X151075989Y-83119979D01*
X151075988Y-83119978D01*
X151075987Y-83119978D01*
X150999564Y-83099500D01*
X150999562Y-83099500D01*
X150207083Y-83099500D01*
X150148892Y-83080593D01*
X150132264Y-83065331D01*
X150091128Y-83017857D01*
X150058182Y-82996684D01*
X149970057Y-82940049D01*
X149970054Y-82940047D01*
X149970053Y-82940047D01*
X149970050Y-82940046D01*
X149831964Y-82899500D01*
X149831961Y-82899500D01*
X149688039Y-82899500D01*
X149688035Y-82899500D01*
X149549949Y-82940046D01*
X149549942Y-82940049D01*
X149428873Y-83017855D01*
X149334622Y-83126628D01*
X149274834Y-83257543D01*
X149254353Y-83399997D01*
X139651270Y-83399997D01*
X139665647Y-83300000D01*
X139645165Y-83157543D01*
X139585377Y-83026627D01*
X139491128Y-82917857D01*
X139491127Y-82917856D01*
X139486491Y-82912506D01*
X139488524Y-82910743D01*
X139463067Y-82868505D01*
X139460500Y-82846105D01*
X139460500Y-81493004D01*
X140956463Y-81493004D01*
X140974219Y-81674742D01*
X141024579Y-81850263D01*
X141105881Y-82013768D01*
X141215438Y-82159855D01*
X141215441Y-82159857D01*
X141215443Y-82159860D01*
X141349627Y-82283693D01*
X141349629Y-82283695D01*
X141504015Y-82381194D01*
X141504016Y-82381194D01*
X141504022Y-82381198D01*
X141673514Y-82449142D01*
X141673517Y-82449142D01*
X141673518Y-82449143D01*
X141708283Y-82456162D01*
X141852505Y-82485281D01*
X142014794Y-82488073D01*
X142035080Y-82488422D01*
X142035080Y-82488421D01*
X142035081Y-82488422D01*
X142215210Y-82458460D01*
X142386938Y-82396386D01*
X142402741Y-82387176D01*
X142403849Y-82386624D01*
X142408864Y-82383693D01*
X142408870Y-82383692D01*
X142442537Y-82364021D01*
X142492485Y-82350502D01*
X142531392Y-82350507D01*
X142531394Y-82350506D01*
X142537842Y-82350507D01*
X142537963Y-82350500D01*
X144027510Y-82350500D01*
X144077462Y-82364026D01*
X144111050Y-82383657D01*
X144111052Y-82383657D01*
X144115709Y-82386379D01*
X144117524Y-82387284D01*
X144133078Y-82396348D01*
X144133082Y-82396349D01*
X144133083Y-82396350D01*
X144304787Y-82458415D01*
X144304790Y-82458415D01*
X144304799Y-82458419D01*
X144484920Y-82488380D01*
X144667489Y-82485239D01*
X144846472Y-82449102D01*
X145015958Y-82381161D01*
X145170344Y-82283663D01*
X145304530Y-82159828D01*
X145414082Y-82013747D01*
X145495381Y-81850249D01*
X145545740Y-81674735D01*
X145563495Y-81493005D01*
X145548059Y-81311063D01*
X145499942Y-81134921D01*
X145492020Y-81118415D01*
X145491561Y-81117271D01*
X145486264Y-81106264D01*
X145470294Y-81073082D01*
X145460501Y-81030140D01*
X145460507Y-80987008D01*
X145460506Y-80987005D01*
X145460507Y-80980627D01*
X145460499Y-80980489D01*
X145460499Y-79669888D01*
X145470247Y-79627051D01*
X145473576Y-79620115D01*
X145473630Y-79620003D01*
X145483261Y-79600000D01*
X145489020Y-79588040D01*
X145489020Y-79588038D01*
X145491607Y-79582666D01*
X145491916Y-79581899D01*
X145499983Y-79565090D01*
X145548101Y-79388941D01*
X145557063Y-79283305D01*
X147678843Y-79283305D01*
X147678844Y-79283314D01*
X147700680Y-79464582D01*
X147700680Y-79464584D01*
X147700681Y-79464586D01*
X147754970Y-79638918D01*
X147754972Y-79638923D01*
X147754973Y-79638924D01*
X147839916Y-79800541D01*
X147839919Y-79800547D01*
X147844843Y-79806814D01*
X147952717Y-79944125D01*
X148089643Y-80064916D01*
X148245377Y-80158451D01*
X148246166Y-80158925D01*
X148246167Y-80158926D01*
X148246168Y-80158926D01*
X148246171Y-80158928D01*
X148417130Y-80223054D01*
X148545111Y-80245925D01*
X148596463Y-80255103D01*
X148596872Y-80255176D01*
X148596874Y-80255175D01*
X148596875Y-80255176D01*
X148597131Y-80255174D01*
X148615191Y-80255103D01*
X148616629Y-80255192D01*
X148622308Y-80255162D01*
X148622311Y-80255163D01*
X148661254Y-80254958D01*
X148711272Y-80268220D01*
X150027337Y-81028050D01*
X150027336Y-81028050D01*
X150040644Y-81035733D01*
X150077138Y-81072415D01*
X150096447Y-81106264D01*
X150096449Y-81106266D01*
X150098947Y-81110645D01*
X150100420Y-81112872D01*
X150109185Y-81128196D01*
X150126554Y-81148802D01*
X150226863Y-81267808D01*
X150297364Y-81325809D01*
X150351288Y-81370172D01*
X150367866Y-81383810D01*
X150527539Y-81472372D01*
X150700605Y-81530566D01*
X150881347Y-81556471D01*
X151063792Y-81549231D01*
X151241912Y-81509083D01*
X151409822Y-81437356D01*
X151424790Y-81427427D01*
X151561971Y-81336422D01*
X151561971Y-81336421D01*
X151561974Y-81336420D01*
X151693341Y-81209608D01*
X151799582Y-81061111D01*
X151877188Y-80895835D01*
X151923593Y-80719242D01*
X151924981Y-80701040D01*
X151925167Y-80699743D01*
X151925602Y-80693950D01*
X151925603Y-80693948D01*
X151928841Y-80650846D01*
X151941832Y-80608757D01*
X151963405Y-80571401D01*
X151963405Y-80571400D01*
X151966700Y-80565695D01*
X151966741Y-80565609D01*
X152596305Y-79475172D01*
X152596331Y-79475136D01*
X152621937Y-79430778D01*
X152651786Y-79398557D01*
X152666032Y-79388813D01*
X152666050Y-79388840D01*
X152666141Y-79388738D01*
X152687620Y-79374089D01*
X152687620Y-79374088D01*
X152692670Y-79370645D01*
X152693190Y-79370236D01*
X152708605Y-79359693D01*
X152838321Y-79231197D01*
X152942637Y-79081344D01*
X153018106Y-78915085D01*
X153062236Y-78737912D01*
X153073569Y-78555678D01*
X153051730Y-78374403D01*
X152997441Y-78200075D01*
X152997437Y-78200068D01*
X152997435Y-78200062D01*
X152912500Y-78038460D01*
X152912496Y-78038452D01*
X152799700Y-77894874D01*
X152662779Y-77774084D01*
X152506257Y-77680071D01*
X152506256Y-77680070D01*
X152506255Y-77680070D01*
X152335304Y-77615942D01*
X152335299Y-77615941D01*
X152155563Y-77583813D01*
X152137180Y-77583884D01*
X152135646Y-77583791D01*
X152091162Y-77584026D01*
X152041141Y-77570764D01*
X150711803Y-76803270D01*
X150675372Y-76766695D01*
X150668071Y-76753933D01*
X150668070Y-76753931D01*
X150668093Y-76753918D01*
X150668008Y-76753824D01*
X150655973Y-76732724D01*
X150655972Y-76732723D01*
X150652976Y-76727470D01*
X150652643Y-76726966D01*
X150643323Y-76710675D01*
X150525632Y-76571073D01*
X150525626Y-76571067D01*
X150384617Y-76455081D01*
X150384608Y-76455075D01*
X150224929Y-76366525D01*
X150224921Y-76366522D01*
X150051853Y-76308340D01*
X150051849Y-76308339D01*
X149871105Y-76282445D01*
X149871101Y-76282444D01*
X149688649Y-76289695D01*
X149688640Y-76289697D01*
X149510529Y-76329850D01*
X149510527Y-76329851D01*
X149454251Y-76353893D01*
X149342612Y-76401587D01*
X149342610Y-76401588D01*
X149342604Y-76401591D01*
X149190457Y-76502531D01*
X149059088Y-76629351D01*
X148952843Y-76777855D01*
X148875236Y-76943135D01*
X148828827Y-77119735D01*
X148828826Y-77119742D01*
X148827428Y-77138052D01*
X148827194Y-77139705D01*
X148823572Y-77188106D01*
X148810566Y-77230249D01*
X148786010Y-77272743D01*
X148785814Y-77273140D01*
X148154751Y-78366173D01*
X148154710Y-78366236D01*
X148130467Y-78408234D01*
X148100618Y-78440454D01*
X148096517Y-78443259D01*
X148096396Y-78443342D01*
X148060071Y-78468108D01*
X148059295Y-78468716D01*
X148043841Y-78479286D01*
X148043840Y-78479287D01*
X147914116Y-78607778D01*
X147867239Y-78675113D01*
X147821885Y-78740263D01*
X147809789Y-78757638D01*
X147754678Y-78879038D01*
X147738312Y-78915092D01*
X147734314Y-78923898D01*
X147690181Y-79101062D01*
X147690179Y-79101070D01*
X147678843Y-79283305D01*
X145557063Y-79283305D01*
X145563537Y-79206992D01*
X145545781Y-79025255D01*
X145524402Y-78950744D01*
X145495422Y-78849740D01*
X145495421Y-78849738D01*
X145495420Y-78849734D01*
X145414117Y-78686229D01*
X145304561Y-78540144D01*
X145304559Y-78540142D01*
X145304555Y-78540138D01*
X145170370Y-78416305D01*
X145170368Y-78416303D01*
X145015980Y-78318803D01*
X145015977Y-78318802D01*
X145015976Y-78318801D01*
X144846485Y-78250858D01*
X144846483Y-78250857D01*
X144846482Y-78250857D01*
X144667494Y-78214719D01*
X144667485Y-78214718D01*
X144484918Y-78211577D01*
X144304795Y-78241539D01*
X144304792Y-78241539D01*
X144304790Y-78241540D01*
X144304788Y-78241540D01*
X144304778Y-78241543D01*
X144133062Y-78303613D01*
X144117166Y-78312875D01*
X144116042Y-78313437D01*
X144077461Y-78335978D01*
X144027514Y-78349496D01*
X143988608Y-78349494D01*
X143988606Y-78349494D01*
X143982995Y-78349494D01*
X143982873Y-78349501D01*
X142538038Y-78349501D01*
X142537933Y-78349494D01*
X142492485Y-78349497D01*
X142442539Y-78335978D01*
X142404202Y-78313581D01*
X142402527Y-78312744D01*
X142386925Y-78303653D01*
X142386924Y-78303652D01*
X142386923Y-78303652D01*
X142257925Y-78257023D01*
X142215206Y-78241581D01*
X142215203Y-78241580D01*
X142215202Y-78241580D01*
X142125141Y-78226599D01*
X142035077Y-78211618D01*
X141852520Y-78214759D01*
X141852511Y-78214760D01*
X141673531Y-78250896D01*
X141673529Y-78250896D01*
X141673528Y-78250897D01*
X141527794Y-78309316D01*
X141504038Y-78318839D01*
X141349656Y-78416335D01*
X141349654Y-78416337D01*
X141215475Y-78540165D01*
X141215471Y-78540169D01*
X141105920Y-78686246D01*
X141105918Y-78686248D01*
X141105917Y-78686251D01*
X141070423Y-78757633D01*
X141024618Y-78849749D01*
X141024615Y-78849756D01*
X140974261Y-79025253D01*
X140974259Y-79025262D01*
X140956504Y-79206995D01*
X140971939Y-79388935D01*
X141002279Y-79500002D01*
X141020056Y-79565078D01*
X141027204Y-79579973D01*
X141028007Y-79581646D01*
X141028646Y-79583231D01*
X141031019Y-79588157D01*
X141031020Y-79588159D01*
X141049681Y-79626893D01*
X141059493Y-79669891D01*
X141059478Y-79718915D01*
X141059500Y-79719264D01*
X141059500Y-80980686D01*
X141059491Y-80980828D01*
X141059496Y-81030105D01*
X141049756Y-81072936D01*
X141047059Y-81078557D01*
X141046437Y-81079854D01*
X141037615Y-81098173D01*
X141028454Y-81117196D01*
X141028120Y-81118023D01*
X141020021Y-81134901D01*
X141020019Y-81134906D01*
X141007837Y-81179500D01*
X140983715Y-81267805D01*
X140971900Y-81311055D01*
X140956463Y-81493004D01*
X139460500Y-81493004D01*
X139460500Y-80053893D01*
X139479407Y-79995702D01*
X139486741Y-79987711D01*
X139486491Y-79987494D01*
X139509500Y-79960940D01*
X139585377Y-79873373D01*
X139645165Y-79742457D01*
X139658837Y-79647364D01*
X139665647Y-79600002D01*
X139665647Y-79599997D01*
X139645165Y-79457543D01*
X139619114Y-79400500D01*
X139585377Y-79326627D01*
X139491128Y-79217857D01*
X139491127Y-79217856D01*
X139491126Y-79217855D01*
X139370057Y-79140049D01*
X139370054Y-79140047D01*
X139370053Y-79140047D01*
X139370050Y-79140046D01*
X139231964Y-79099500D01*
X139231961Y-79099500D01*
X139088039Y-79099500D01*
X139088035Y-79099500D01*
X138957060Y-79137958D01*
X138949951Y-79140046D01*
X138943153Y-79142042D01*
X138942742Y-79140642D01*
X138889834Y-79146710D01*
X138836559Y-79116620D01*
X138811145Y-79060962D01*
X138810500Y-79049683D01*
X138810500Y-76899500D01*
X138829407Y-76841309D01*
X138878907Y-76805345D01*
X138909500Y-76800500D01*
X138931959Y-76800500D01*
X138931961Y-76800500D01*
X139070053Y-76759953D01*
X139191128Y-76682143D01*
X139285377Y-76573373D01*
X139345165Y-76442457D01*
X139356738Y-76361962D01*
X139365647Y-76300002D01*
X139365647Y-76299997D01*
X139345165Y-76157543D01*
X139317513Y-76096994D01*
X139285377Y-76026627D01*
X139191128Y-75917857D01*
X139191127Y-75917856D01*
X139191126Y-75917855D01*
X139070057Y-75840049D01*
X139070054Y-75840047D01*
X139070053Y-75840047D01*
X139070050Y-75840046D01*
X138931964Y-75799500D01*
X138931961Y-75799500D01*
X138788039Y-75799500D01*
X138788035Y-75799500D01*
X138649949Y-75840046D01*
X138649942Y-75840049D01*
X138528873Y-75917855D01*
X138434622Y-76026628D01*
X138374834Y-76157543D01*
X138355834Y-76289696D01*
X138354353Y-76300000D01*
X138356361Y-76313965D01*
X138357442Y-76321485D01*
X138347007Y-76381774D01*
X138329453Y-76405575D01*
X138325489Y-76409540D01*
X138325488Y-76409539D01*
X138269539Y-76465489D01*
X138229980Y-76534007D01*
X138229978Y-76534011D01*
X138209500Y-76610435D01*
X138209500Y-87849683D01*
X138190593Y-87907874D01*
X138141093Y-87943838D01*
X138079907Y-87943838D01*
X138070530Y-87940187D01*
X137931964Y-87899500D01*
X137931961Y-87899500D01*
X137788039Y-87899500D01*
X137788035Y-87899500D01*
X137649949Y-87940046D01*
X137649942Y-87940049D01*
X137528873Y-88017855D01*
X137434622Y-88126628D01*
X137374834Y-88257543D01*
X137354353Y-88399997D01*
X137354353Y-88400002D01*
X137374834Y-88542456D01*
X137434623Y-88673373D01*
X137435316Y-88674173D01*
X137435660Y-88674989D01*
X137438453Y-88679334D01*
X137437701Y-88679816D01*
X137459136Y-88730531D01*
X137459500Y-88739008D01*
X137459500Y-97546105D01*
X137440593Y-97604296D01*
X137433258Y-97612289D01*
X137433509Y-97612506D01*
X137428872Y-97617856D01*
X137428872Y-97617857D01*
X137380072Y-97674176D01*
X137334622Y-97726628D01*
X137274834Y-97857543D01*
X137254353Y-97999997D01*
X134619650Y-97999997D01*
X134690329Y-97918429D01*
X134750117Y-97787513D01*
X134770599Y-97645056D01*
X134769879Y-97640049D01*
X134750634Y-97506195D01*
X134761067Y-97445906D01*
X134804945Y-97403264D01*
X134865508Y-97394556D01*
X134876519Y-97397117D01*
X134882348Y-97398828D01*
X134888038Y-97400499D01*
X134888040Y-97400499D01*
X135031958Y-97400499D01*
X135031960Y-97400499D01*
X135170052Y-97359952D01*
X135291127Y-97282142D01*
X135385376Y-97173372D01*
X135445164Y-97042456D01*
X135459971Y-96939469D01*
X135465646Y-96900001D01*
X135465646Y-96899996D01*
X135445164Y-96757542D01*
X135435331Y-96736012D01*
X135385376Y-96626626D01*
X135291127Y-96517856D01*
X135291126Y-96517855D01*
X135291125Y-96517854D01*
X135205977Y-96463133D01*
X135167245Y-96415767D01*
X135160500Y-96379849D01*
X135160500Y-96237853D01*
X135179407Y-96179662D01*
X135228907Y-96143698D01*
X135290093Y-96143698D01*
X135334320Y-96173022D01*
X135334621Y-96173370D01*
X135334623Y-96173373D01*
X135428872Y-96282143D01*
X135428873Y-96282144D01*
X135549942Y-96359950D01*
X135549947Y-96359953D01*
X135656403Y-96391211D01*
X135688035Y-96400499D01*
X135688036Y-96400499D01*
X135688039Y-96400500D01*
X135688041Y-96400500D01*
X135831959Y-96400500D01*
X135831961Y-96400500D01*
X135970053Y-96359953D01*
X136091128Y-96282143D01*
X136185377Y-96173373D01*
X136245165Y-96042457D01*
X136253668Y-95983318D01*
X136265647Y-95900002D01*
X136265647Y-95899997D01*
X136245165Y-95757543D01*
X136230139Y-95724641D01*
X136185377Y-95626627D01*
X136091128Y-95517857D01*
X136091127Y-95517856D01*
X136086491Y-95512506D01*
X136088524Y-95510743D01*
X136063067Y-95468505D01*
X136060500Y-95446105D01*
X136060500Y-94600316D01*
X136079407Y-94542125D01*
X136128907Y-94506161D01*
X136190093Y-94506161D01*
X136199471Y-94509813D01*
X136199946Y-94509952D01*
X136199947Y-94509953D01*
X136279049Y-94533179D01*
X136338035Y-94550499D01*
X136338036Y-94550499D01*
X136338039Y-94550500D01*
X136338041Y-94550500D01*
X136481959Y-94550500D01*
X136481961Y-94550500D01*
X136620053Y-94509953D01*
X136741128Y-94432143D01*
X136835377Y-94323373D01*
X136895165Y-94192457D01*
X136906914Y-94110743D01*
X136915647Y-94050002D01*
X136915647Y-94049997D01*
X136895165Y-93907543D01*
X136869894Y-93852208D01*
X136835377Y-93776627D01*
X136741128Y-93667857D01*
X136741127Y-93667856D01*
X136741126Y-93667855D01*
X136620055Y-93590048D01*
X136618367Y-93589277D01*
X136617226Y-93588230D01*
X136614097Y-93586219D01*
X136614445Y-93585677D01*
X136573293Y-93547901D01*
X136560500Y-93499226D01*
X136560500Y-83219507D01*
X136579407Y-83161316D01*
X136628907Y-83125352D01*
X136690093Y-83125352D01*
X136713023Y-83136223D01*
X136749947Y-83159953D01*
X136856403Y-83191211D01*
X136888035Y-83200499D01*
X136888036Y-83200499D01*
X136888039Y-83200500D01*
X136888041Y-83200500D01*
X137031959Y-83200500D01*
X137031961Y-83200500D01*
X137170053Y-83159953D01*
X137291128Y-83082143D01*
X137385377Y-82973373D01*
X137445165Y-82842457D01*
X137465647Y-82700000D01*
X137445165Y-82557543D01*
X137385377Y-82426627D01*
X137291128Y-82317857D01*
X137291127Y-82317856D01*
X137286491Y-82312506D01*
X137288524Y-82310743D01*
X137263067Y-82268505D01*
X137260500Y-82246105D01*
X137260500Y-72299997D01*
X153254353Y-72299997D01*
X153254353Y-72300002D01*
X153274834Y-72442456D01*
X153324133Y-72550403D01*
X153334623Y-72573373D01*
X153426228Y-72679092D01*
X153433509Y-72687494D01*
X153431471Y-72689259D01*
X153456925Y-72731458D01*
X153459500Y-72753893D01*
X153459500Y-76346105D01*
X153440593Y-76404296D01*
X153433258Y-76412289D01*
X153433509Y-76412506D01*
X153428872Y-76417856D01*
X153428872Y-76417857D01*
X153363866Y-76492879D01*
X153334622Y-76526628D01*
X153274834Y-76657543D01*
X153254353Y-76799997D01*
X153254353Y-76800002D01*
X153274834Y-76942456D01*
X153309269Y-77017857D01*
X153334623Y-77073373D01*
X153396860Y-77145199D01*
X153428873Y-77182144D01*
X153539170Y-77253027D01*
X153549947Y-77259953D01*
X153643288Y-77287360D01*
X153688035Y-77300499D01*
X153688036Y-77300499D01*
X153688039Y-77300500D01*
X153688041Y-77300500D01*
X153831959Y-77300500D01*
X153831961Y-77300500D01*
X153970053Y-77259953D01*
X154091128Y-77182143D01*
X154091133Y-77182137D01*
X154095666Y-77178210D01*
X154152025Y-77154390D01*
X154211621Y-77168247D01*
X154251690Y-77214486D01*
X154259500Y-77253027D01*
X154259500Y-81046105D01*
X154240593Y-81104296D01*
X154233258Y-81112289D01*
X154233509Y-81112506D01*
X154228872Y-81117856D01*
X154228872Y-81117857D01*
X154175458Y-81179501D01*
X154134622Y-81226628D01*
X154074834Y-81357543D01*
X154054353Y-81499997D01*
X154054353Y-81500002D01*
X154074834Y-81642456D01*
X154091866Y-81679750D01*
X154134623Y-81773373D01*
X154228872Y-81882143D01*
X154228873Y-81882144D01*
X154349942Y-81959950D01*
X154349947Y-81959953D01*
X154456403Y-81991211D01*
X154488035Y-82000499D01*
X154488036Y-82000499D01*
X154488039Y-82000500D01*
X154488041Y-82000500D01*
X154631959Y-82000500D01*
X154631961Y-82000500D01*
X154770053Y-81959953D01*
X154891128Y-81882143D01*
X154985377Y-81773373D01*
X155045165Y-81642457D01*
X155058569Y-81549229D01*
X155065647Y-81500002D01*
X155065647Y-81499997D01*
X155045165Y-81357543D01*
X155004184Y-81267808D01*
X154985377Y-81226627D01*
X154891128Y-81117857D01*
X154891127Y-81117856D01*
X154886491Y-81112506D01*
X154888524Y-81110743D01*
X154863067Y-81068505D01*
X154860500Y-81046105D01*
X154860500Y-69698491D01*
X155843809Y-69698491D01*
X155843810Y-69698497D01*
X155869701Y-69879227D01*
X155869703Y-69879235D01*
X155927878Y-70052287D01*
X155927884Y-70052300D01*
X156016425Y-70211967D01*
X156016433Y-70211979D01*
X156132412Y-70352979D01*
X156132418Y-70352985D01*
X156272013Y-70470670D01*
X156272018Y-70470674D01*
X156287960Y-70479795D01*
X156289135Y-70480571D01*
X156327874Y-70502669D01*
X156364558Y-70539162D01*
X157132071Y-71868534D01*
X157145333Y-71918553D01*
X157145101Y-71962726D01*
X157145234Y-71964927D01*
X157145164Y-71982933D01*
X157145165Y-71982938D01*
X157145165Y-71982941D01*
X157145396Y-71984233D01*
X157177287Y-72162672D01*
X157241411Y-72333617D01*
X157241413Y-72333621D01*
X157311028Y-72449528D01*
X157324781Y-72509146D01*
X157300864Y-72565463D01*
X157248412Y-72596967D01*
X157226159Y-72599500D01*
X157188035Y-72599500D01*
X157049949Y-72640046D01*
X157049942Y-72640049D01*
X156928873Y-72717855D01*
X156834622Y-72826628D01*
X156774834Y-72957543D01*
X156754353Y-73099997D01*
X156754353Y-73100002D01*
X156774834Y-73242456D01*
X156786436Y-73267860D01*
X156834623Y-73373373D01*
X156880826Y-73426695D01*
X156933509Y-73487494D01*
X156931471Y-73489259D01*
X156956925Y-73531458D01*
X156959500Y-73553893D01*
X156959500Y-78446105D01*
X156940593Y-78504296D01*
X156933258Y-78512289D01*
X156933509Y-78512506D01*
X156928872Y-78517856D01*
X156928872Y-78517857D01*
X156870294Y-78585460D01*
X156834622Y-78626628D01*
X156774834Y-78757543D01*
X156754353Y-78899997D01*
X156754353Y-78900002D01*
X156774834Y-79042456D01*
X156808704Y-79116620D01*
X156834623Y-79173373D01*
X156919358Y-79271163D01*
X156928873Y-79282144D01*
X157042050Y-79354878D01*
X157049947Y-79359953D01*
X157144875Y-79387826D01*
X157188035Y-79400499D01*
X157188036Y-79400499D01*
X157188039Y-79400500D01*
X157188041Y-79400500D01*
X157331959Y-79400500D01*
X157331961Y-79400500D01*
X157470053Y-79359953D01*
X157591128Y-79282143D01*
X157685377Y-79173373D01*
X157745165Y-79042457D01*
X157763478Y-78915085D01*
X157765647Y-78900002D01*
X157765647Y-78899997D01*
X157745165Y-78757543D01*
X157731881Y-78728456D01*
X157685377Y-78626627D01*
X157591128Y-78517857D01*
X157591127Y-78517856D01*
X157586491Y-78512506D01*
X157588524Y-78510743D01*
X157563067Y-78468505D01*
X157560500Y-78446105D01*
X157560500Y-73553893D01*
X157579407Y-73495702D01*
X157586741Y-73487711D01*
X157586491Y-73487494D01*
X157610714Y-73459539D01*
X157685377Y-73373373D01*
X157745165Y-73242457D01*
X157751992Y-73194971D01*
X157765647Y-73100002D01*
X157765647Y-73099997D01*
X157746744Y-72968524D01*
X157757177Y-72908235D01*
X157801055Y-72865593D01*
X157861618Y-72856885D01*
X157874171Y-72859912D01*
X157935715Y-72879078D01*
X157935716Y-72879079D01*
X158003370Y-72887229D01*
X158116986Y-72900916D01*
X158299214Y-72889582D01*
X158476380Y-72845452D01*
X158642632Y-72769982D01*
X158792477Y-72665668D01*
X158920967Y-72535953D01*
X158931289Y-72520859D01*
X158932143Y-72519773D01*
X158935383Y-72515021D01*
X158935387Y-72515019D01*
X158959745Y-72479308D01*
X158992033Y-72449358D01*
X159029411Y-72427782D01*
X159029412Y-72427780D01*
X159035927Y-72424020D01*
X159035988Y-72423979D01*
X159146057Y-72360431D01*
X160126391Y-71794434D01*
X160126462Y-71794400D01*
X160132698Y-71790799D01*
X160170064Y-71769220D01*
X160212152Y-71756232D01*
X160255247Y-71752995D01*
X160255249Y-71752994D01*
X160260418Y-71752606D01*
X160262852Y-71752259D01*
X160280542Y-71750910D01*
X160280544Y-71750909D01*
X160280548Y-71750909D01*
X160457119Y-71704511D01*
X160457124Y-71704508D01*
X160457131Y-71704507D01*
X160622403Y-71626905D01*
X160770899Y-71520670D01*
X160897711Y-71389310D01*
X160998651Y-71237165D01*
X161063070Y-71086382D01*
X161070382Y-71069267D01*
X161070382Y-71069266D01*
X161070384Y-71069262D01*
X161110539Y-70891149D01*
X161117790Y-70708709D01*
X161114631Y-70686661D01*
X161114631Y-70686658D01*
X161542849Y-70686658D01*
X161542849Y-73122913D01*
X161551445Y-73154992D01*
X161563328Y-73199338D01*
X161588222Y-73242456D01*
X161588223Y-73242458D01*
X161588224Y-73242458D01*
X161602889Y-73267860D01*
X162130505Y-73795476D01*
X162158281Y-73849991D01*
X162159500Y-73865478D01*
X162159500Y-76346105D01*
X162140593Y-76404296D01*
X162133258Y-76412289D01*
X162133509Y-76412506D01*
X162128872Y-76417856D01*
X162128872Y-76417857D01*
X162063866Y-76492879D01*
X162034622Y-76526628D01*
X161974834Y-76657543D01*
X161954353Y-76799997D01*
X161954353Y-76800002D01*
X161974834Y-76942456D01*
X162009269Y-77017857D01*
X162034623Y-77073373D01*
X162096860Y-77145199D01*
X162128873Y-77182144D01*
X162239170Y-77253027D01*
X162249947Y-77259953D01*
X162343288Y-77287360D01*
X162388035Y-77300499D01*
X162388036Y-77300499D01*
X162388039Y-77300500D01*
X162388041Y-77300500D01*
X162531959Y-77300500D01*
X162531961Y-77300500D01*
X162670053Y-77259953D01*
X162791128Y-77182143D01*
X162885377Y-77073373D01*
X162945165Y-76942457D01*
X162954060Y-76880593D01*
X162965647Y-76800002D01*
X162965647Y-76799997D01*
X162945165Y-76657543D01*
X162940196Y-76646662D01*
X162885377Y-76526627D01*
X162791128Y-76417857D01*
X162791127Y-76417856D01*
X162786491Y-76412506D01*
X162788524Y-76410743D01*
X162763067Y-76368505D01*
X162760500Y-76346105D01*
X162760500Y-73660437D01*
X162760499Y-73660435D01*
X162752079Y-73629013D01*
X162740021Y-73584011D01*
X162722632Y-73553893D01*
X162700460Y-73515489D01*
X162644511Y-73459539D01*
X162644511Y-73459540D01*
X162172845Y-72987874D01*
X162145068Y-72933357D01*
X162143849Y-72917870D01*
X162143849Y-71791419D01*
X162600053Y-71791419D01*
X162600054Y-71791424D01*
X162619171Y-71847743D01*
X163004021Y-72514324D01*
X163667580Y-72131217D01*
X163683793Y-72191724D01*
X163723289Y-72260133D01*
X163767580Y-72304424D01*
X163104022Y-72687531D01*
X163488873Y-73354112D01*
X163528088Y-73398828D01*
X163528091Y-73398830D01*
X163599447Y-73434019D01*
X163678840Y-73439223D01*
X163678845Y-73439222D01*
X163735164Y-73420105D01*
X164401745Y-73035254D01*
X164018639Y-72371696D01*
X164079145Y-72355484D01*
X164147554Y-72315988D01*
X164191846Y-72271695D01*
X164574952Y-72935253D01*
X165241533Y-72550403D01*
X165286249Y-72511188D01*
X165286251Y-72511185D01*
X165321440Y-72439829D01*
X165326644Y-72360436D01*
X165326643Y-72360431D01*
X165307526Y-72304112D01*
X164922675Y-71637530D01*
X164259116Y-72020636D01*
X164242905Y-71960132D01*
X164203409Y-71891723D01*
X164159115Y-71847429D01*
X164822674Y-71464323D01*
X164437824Y-70797743D01*
X164398609Y-70753027D01*
X164398606Y-70753025D01*
X164327250Y-70717836D01*
X164247857Y-70712632D01*
X164247852Y-70712633D01*
X164191533Y-70731750D01*
X163524951Y-71116600D01*
X163908058Y-71780160D01*
X163847553Y-71796372D01*
X163779144Y-71835868D01*
X163734851Y-71880160D01*
X163351744Y-71216601D01*
X163351743Y-71216601D01*
X162685171Y-71601447D01*
X162685165Y-71601451D01*
X162640448Y-71640667D01*
X162640446Y-71640670D01*
X162605257Y-71712026D01*
X162600053Y-71791419D01*
X162143849Y-71791419D01*
X162143849Y-70938830D01*
X162162756Y-70880639D01*
X162212256Y-70844675D01*
X162273442Y-70844675D01*
X162288194Y-70850957D01*
X162289390Y-70851452D01*
X162289395Y-70851455D01*
X162406744Y-70887052D01*
X162487414Y-70911523D01*
X162487419Y-70911524D01*
X162693346Y-70931806D01*
X162693349Y-70931806D01*
X162693352Y-70931806D01*
X162899278Y-70911524D01*
X162899283Y-70911523D01*
X162938275Y-70899695D01*
X163097303Y-70851455D01*
X163279799Y-70753908D01*
X163439759Y-70622633D01*
X163571034Y-70462673D01*
X163668581Y-70280177D01*
X163728649Y-70082157D01*
X163728650Y-70082152D01*
X163748932Y-69876226D01*
X163748932Y-69876219D01*
X163728650Y-69670293D01*
X163728649Y-69670288D01*
X163701911Y-69582144D01*
X163668581Y-69472269D01*
X163571034Y-69289773D01*
X163563417Y-69280492D01*
X163439763Y-69129818D01*
X163439759Y-69129813D01*
X163439753Y-69129808D01*
X163279801Y-68998539D01*
X163097303Y-68900991D01*
X162899283Y-68840922D01*
X162899278Y-68840921D01*
X162693352Y-68820640D01*
X162693346Y-68820640D01*
X162487419Y-68840921D01*
X162487414Y-68840922D01*
X162289394Y-68900991D01*
X162106896Y-68998539D01*
X161946944Y-69129808D01*
X161946934Y-69129818D01*
X161815665Y-69289770D01*
X161718117Y-69472268D01*
X161658048Y-69670288D01*
X161658047Y-69670293D01*
X161637766Y-69876219D01*
X161637766Y-69876226D01*
X161658047Y-70082152D01*
X161658048Y-70082157D01*
X161718117Y-70280177D01*
X161718119Y-70280182D01*
X161734467Y-70310767D01*
X161745223Y-70371000D01*
X161718521Y-70426051D01*
X161717161Y-70427438D01*
X161658838Y-70485762D01*
X161602888Y-70541712D01*
X161563329Y-70610230D01*
X161563327Y-70610234D01*
X161542849Y-70686658D01*
X161114631Y-70686658D01*
X161103682Y-70610230D01*
X161091898Y-70527970D01*
X161065855Y-70450500D01*
X161033721Y-70354912D01*
X161033720Y-70354910D01*
X161033718Y-70354904D01*
X160960779Y-70223373D01*
X160945173Y-70195231D01*
X160945172Y-70195230D01*
X160945171Y-70195228D01*
X160829185Y-70054218D01*
X160829183Y-70054216D01*
X160829182Y-70054215D01*
X160689593Y-69936535D01*
X160689583Y-69936528D01*
X160673691Y-69927436D01*
X160672502Y-69926649D01*
X160637085Y-69906447D01*
X160633725Y-69904530D01*
X160597039Y-69868034D01*
X160574324Y-69828688D01*
X160574312Y-69828669D01*
X160087172Y-68984920D01*
X159829527Y-68538666D01*
X159816265Y-68488645D01*
X159816471Y-68449712D01*
X159816470Y-68449708D01*
X159816498Y-68444428D01*
X159816363Y-68442216D01*
X159816434Y-68424264D01*
X159816433Y-68424263D01*
X159816434Y-68424259D01*
X159784311Y-68244528D01*
X159720186Y-68073580D01*
X159659501Y-67972542D01*
X159626178Y-67917060D01*
X159626176Y-67917057D01*
X159505399Y-67780150D01*
X159505397Y-67780149D01*
X159505394Y-67780145D01*
X159402831Y-67699569D01*
X159373486Y-67676515D01*
X160367766Y-67676515D01*
X160367766Y-67676522D01*
X160388047Y-67882448D01*
X160388048Y-67882453D01*
X160448117Y-68080473D01*
X160545665Y-68262971D01*
X160614849Y-68347272D01*
X160676939Y-68422929D01*
X160676944Y-68422933D01*
X160836896Y-68554202D01*
X160836897Y-68554202D01*
X160836899Y-68554204D01*
X161019395Y-68651751D01*
X161137941Y-68687711D01*
X161217414Y-68711819D01*
X161217419Y-68711820D01*
X161423346Y-68732102D01*
X161423349Y-68732102D01*
X161423352Y-68732102D01*
X161629278Y-68711820D01*
X161629283Y-68711819D01*
X161659374Y-68702691D01*
X161827303Y-68651751D01*
X162009799Y-68554204D01*
X162169759Y-68422929D01*
X162301034Y-68262969D01*
X162398581Y-68080473D01*
X162458649Y-67882453D01*
X162458650Y-67882448D01*
X162478932Y-67676522D01*
X162478932Y-67676515D01*
X162458650Y-67470589D01*
X162458649Y-67470584D01*
X162440427Y-67410516D01*
X162398581Y-67272565D01*
X162301034Y-67090069D01*
X162300369Y-67089259D01*
X162186819Y-66950897D01*
X162169759Y-66930109D01*
X162147178Y-66911577D01*
X162009801Y-66798835D01*
X161827303Y-66701287D01*
X161629283Y-66641218D01*
X161629278Y-66641217D01*
X161423352Y-66620936D01*
X161423346Y-66620936D01*
X161217419Y-66641217D01*
X161217414Y-66641218D01*
X161019394Y-66701287D01*
X160836896Y-66798835D01*
X160676944Y-66930104D01*
X160676934Y-66930114D01*
X160545665Y-67090066D01*
X160448117Y-67272564D01*
X160388048Y-67470584D01*
X160388047Y-67470589D01*
X160367766Y-67676515D01*
X159373486Y-67676515D01*
X159361824Y-67667353D01*
X159361818Y-67667350D01*
X159200212Y-67582412D01*
X159200207Y-67582410D01*
X159200206Y-67582409D01*
X159200205Y-67582409D01*
X159025883Y-67528122D01*
X159025880Y-67528121D01*
X158844622Y-67506285D01*
X158844614Y-67506284D01*
X158672467Y-67516991D01*
X158662387Y-67517619D01*
X158573804Y-67539684D01*
X158485220Y-67561749D01*
X158318966Y-67637220D01*
X158169122Y-67741533D01*
X158169119Y-67741536D01*
X158040636Y-67871244D01*
X158040633Y-67871247D01*
X158030259Y-67886415D01*
X158029090Y-67887907D01*
X158001868Y-67927854D01*
X157969533Y-67957853D01*
X157927047Y-67982364D01*
X157926743Y-67982566D01*
X156834430Y-68613215D01*
X156834201Y-68613328D01*
X156791544Y-68637968D01*
X156749431Y-68650964D01*
X156701410Y-68654565D01*
X156698801Y-68654934D01*
X156681074Y-68656288D01*
X156681065Y-68656289D01*
X156504473Y-68702691D01*
X156339198Y-68780293D01*
X156190705Y-68886526D01*
X156063889Y-69017888D01*
X156063888Y-69017890D01*
X155962954Y-69170025D01*
X155962951Y-69170030D01*
X155891217Y-69337932D01*
X155891216Y-69337937D01*
X155851061Y-69516044D01*
X155851060Y-69516050D01*
X155843809Y-69698491D01*
X154860500Y-69698491D01*
X154860500Y-67153893D01*
X154879407Y-67095702D01*
X154886741Y-67087711D01*
X154886491Y-67087494D01*
X154919413Y-67049500D01*
X154985377Y-66973373D01*
X155045165Y-66842457D01*
X155065647Y-66700000D01*
X155060571Y-66664698D01*
X155045165Y-66557543D01*
X155024418Y-66512114D01*
X154985377Y-66426627D01*
X154891128Y-66317857D01*
X154891127Y-66317856D01*
X154891126Y-66317855D01*
X154770057Y-66240049D01*
X154770054Y-66240047D01*
X154770053Y-66240047D01*
X154770050Y-66240046D01*
X154631964Y-66199500D01*
X154631961Y-66199500D01*
X154488039Y-66199500D01*
X154488035Y-66199500D01*
X154349949Y-66240046D01*
X154349942Y-66240049D01*
X154228873Y-66317855D01*
X154134622Y-66426628D01*
X154074834Y-66557543D01*
X154054353Y-66699997D01*
X154054353Y-66700002D01*
X154074834Y-66842456D01*
X154124358Y-66950897D01*
X154134623Y-66973373D01*
X154200584Y-67049497D01*
X154233509Y-67087494D01*
X154231471Y-67089259D01*
X154256925Y-67131458D01*
X154259500Y-67153893D01*
X154259500Y-71846972D01*
X154240593Y-71905163D01*
X154191093Y-71941127D01*
X154129907Y-71941127D01*
X154095671Y-71921793D01*
X154091127Y-71917856D01*
X153970057Y-71840049D01*
X153970054Y-71840047D01*
X153970053Y-71840047D01*
X153970050Y-71840046D01*
X153831964Y-71799500D01*
X153831961Y-71799500D01*
X153688039Y-71799500D01*
X153688035Y-71799500D01*
X153549949Y-71840046D01*
X153549942Y-71840049D01*
X153428873Y-71917855D01*
X153334622Y-72026628D01*
X153274834Y-72157543D01*
X153254353Y-72299997D01*
X137260500Y-72299997D01*
X137260500Y-70193003D01*
X138756462Y-70193003D01*
X138756680Y-70195231D01*
X138774216Y-70374735D01*
X138774218Y-70374747D01*
X138824575Y-70550256D01*
X138824580Y-70550268D01*
X138905878Y-70713767D01*
X138942160Y-70762146D01*
X139015418Y-70859830D01*
X139015438Y-70859856D01*
X139015442Y-70859860D01*
X139149626Y-70983694D01*
X139149628Y-70983695D01*
X139149629Y-70983696D01*
X139189339Y-71008774D01*
X139303966Y-71081165D01*
X139304022Y-71081200D01*
X139473515Y-71149143D01*
X139473516Y-71149143D01*
X139473518Y-71149144D01*
X139519651Y-71158458D01*
X139652507Y-71185282D01*
X139798568Y-71187794D01*
X139835082Y-71188423D01*
X139835082Y-71188422D01*
X139835084Y-71188423D01*
X140015212Y-71158460D01*
X140186942Y-71096386D01*
X140202757Y-71087168D01*
X140204002Y-71086549D01*
X140208946Y-71083659D01*
X140208951Y-71083658D01*
X140242546Y-71064023D01*
X140292497Y-71050497D01*
X141827510Y-71050497D01*
X141877460Y-71064024D01*
X141911050Y-71083656D01*
X141911051Y-71083656D01*
X141915715Y-71086382D01*
X141917481Y-71087262D01*
X141933077Y-71096351D01*
X141933081Y-71096352D01*
X141933082Y-71096353D01*
X142104787Y-71158419D01*
X142104790Y-71158419D01*
X142104799Y-71158423D01*
X142284920Y-71188384D01*
X142467489Y-71185243D01*
X142646474Y-71149106D01*
X142815959Y-71081165D01*
X142970346Y-70983666D01*
X143104533Y-70859830D01*
X143214086Y-70713750D01*
X143295385Y-70550251D01*
X143345744Y-70374736D01*
X143363499Y-70193006D01*
X143348063Y-70011063D01*
X143299946Y-69834921D01*
X143292011Y-69818387D01*
X143291484Y-69817074D01*
X143270300Y-69773078D01*
X143260499Y-69730129D01*
X143260499Y-69050908D01*
X143260499Y-68369880D01*
X143270251Y-68327041D01*
X143273655Y-68319949D01*
X143289020Y-68288041D01*
X143289020Y-68288038D01*
X143291627Y-68282625D01*
X143291937Y-68281854D01*
X143299982Y-68265092D01*
X143348100Y-68088943D01*
X143363537Y-67906994D01*
X143345781Y-67725256D01*
X143338535Y-67700003D01*
X143295422Y-67549742D01*
X143295421Y-67549740D01*
X143295420Y-67549736D01*
X143214118Y-67386231D01*
X143104562Y-67240145D01*
X143104558Y-67240141D01*
X143104556Y-67240139D01*
X142970372Y-67116306D01*
X142815983Y-67018805D01*
X142815982Y-67018804D01*
X142815978Y-67018802D01*
X142646486Y-66950858D01*
X142646485Y-66950857D01*
X142646481Y-66950856D01*
X142467495Y-66914719D01*
X142467486Y-66914718D01*
X142284920Y-66911577D01*
X142284919Y-66911577D01*
X142104799Y-66941536D01*
X142104789Y-66941539D01*
X141933063Y-67003613D01*
X141917167Y-67012875D01*
X141915891Y-67013513D01*
X141877465Y-67035972D01*
X141827510Y-67049500D01*
X140337281Y-67049500D01*
X140337162Y-67049493D01*
X140292496Y-67049497D01*
X140242539Y-67035973D01*
X140204323Y-67013641D01*
X140202524Y-67012742D01*
X140186917Y-67003648D01*
X140015201Y-66941579D01*
X140015191Y-66941577D01*
X139835076Y-66911618D01*
X139652518Y-66914759D01*
X139652509Y-66914760D01*
X139473530Y-66950895D01*
X139304037Y-67018839D01*
X139149658Y-67116333D01*
X139015469Y-67240170D01*
X139015467Y-67240173D01*
X138905921Y-67386244D01*
X138824619Y-67549746D01*
X138824616Y-67549753D01*
X138774262Y-67725248D01*
X138774260Y-67725257D01*
X138756504Y-67906991D01*
X138771938Y-68088927D01*
X138771939Y-68088932D01*
X138820053Y-68265069D01*
X138820057Y-68265081D01*
X138828023Y-68281681D01*
X138828493Y-68282845D01*
X138830952Y-68287955D01*
X138830953Y-68287957D01*
X138846351Y-68319949D01*
X138849707Y-68326922D01*
X138859501Y-68369856D01*
X138859501Y-69681266D01*
X138859494Y-69681406D01*
X138859499Y-69730099D01*
X138849758Y-69772933D01*
X138849322Y-69773841D01*
X138846219Y-69780308D01*
X138839764Y-69793712D01*
X138828433Y-69817240D01*
X138828112Y-69818038D01*
X138820020Y-69834899D01*
X138820020Y-69834900D01*
X138820019Y-69834903D01*
X138808731Y-69876223D01*
X138775418Y-69998173D01*
X138771899Y-70011053D01*
X138756462Y-70193003D01*
X137260500Y-70193003D01*
X137260500Y-68753893D01*
X137279407Y-68695702D01*
X137286741Y-68687711D01*
X137286491Y-68687494D01*
X137298727Y-68673373D01*
X137385377Y-68573373D01*
X137445165Y-68442457D01*
X137458838Y-68347361D01*
X137465647Y-68300002D01*
X137465647Y-68299997D01*
X137445165Y-68157543D01*
X137413831Y-68088932D01*
X137385377Y-68026627D01*
X137291128Y-67917857D01*
X137291127Y-67917856D01*
X137291126Y-67917855D01*
X137170057Y-67840049D01*
X137170054Y-67840047D01*
X137170053Y-67840047D01*
X137170050Y-67840046D01*
X137031964Y-67799500D01*
X137031961Y-67799500D01*
X136888039Y-67799500D01*
X136888035Y-67799500D01*
X136749949Y-67840046D01*
X136749942Y-67840049D01*
X136628873Y-67917855D01*
X136534622Y-68026628D01*
X136474834Y-68157543D01*
X136454353Y-68299997D01*
X136454353Y-68300002D01*
X136474834Y-68442456D01*
X136520504Y-68542457D01*
X136534623Y-68573373D01*
X136606470Y-68656290D01*
X136633509Y-68687494D01*
X136631471Y-68689259D01*
X136656925Y-68731458D01*
X136659500Y-68753893D01*
X136659500Y-69280492D01*
X136640593Y-69338683D01*
X136591093Y-69374647D01*
X136529907Y-69374647D01*
X136506977Y-69363776D01*
X136470057Y-69340049D01*
X136470054Y-69340047D01*
X136470053Y-69340047D01*
X136462850Y-69337932D01*
X136331964Y-69299500D01*
X136331961Y-69299500D01*
X136188039Y-69299500D01*
X136188035Y-69299500D01*
X136049949Y-69340046D01*
X136049942Y-69340049D01*
X135928873Y-69417855D01*
X135834622Y-69526628D01*
X135774834Y-69657543D01*
X135754353Y-69799997D01*
X135754353Y-69800002D01*
X135774834Y-69942456D01*
X135831712Y-70066998D01*
X135834623Y-70073373D01*
X135914188Y-70165197D01*
X135933509Y-70187494D01*
X135931471Y-70189259D01*
X135956925Y-70231458D01*
X135959500Y-70253893D01*
X135959500Y-74449683D01*
X135940593Y-74507874D01*
X135891093Y-74543838D01*
X135829907Y-74543838D01*
X135820530Y-74540187D01*
X135681964Y-74499500D01*
X135681961Y-74499500D01*
X135538039Y-74499500D01*
X135538035Y-74499500D01*
X135399949Y-74540046D01*
X135399942Y-74540049D01*
X135278873Y-74617855D01*
X135184622Y-74726628D01*
X135124834Y-74857543D01*
X135104353Y-74999997D01*
X135104353Y-75000002D01*
X135124834Y-75142456D01*
X135184622Y-75273371D01*
X135184623Y-75273373D01*
X135236284Y-75332993D01*
X135278873Y-75382144D01*
X135399940Y-75459949D01*
X135399942Y-75459950D01*
X135399947Y-75459953D01*
X135399951Y-75459954D01*
X135401624Y-75460718D01*
X135402761Y-75461762D01*
X135405903Y-75463781D01*
X135405553Y-75464324D01*
X135446702Y-75502089D01*
X135459500Y-75550773D01*
X135459500Y-76062146D01*
X135440593Y-76120337D01*
X135391093Y-76156301D01*
X135329907Y-76156301D01*
X135285681Y-76126977D01*
X135191129Y-76017858D01*
X135191127Y-76017856D01*
X135070057Y-75940049D01*
X135070054Y-75940047D01*
X135070053Y-75940047D01*
X135070050Y-75940046D01*
X134931964Y-75899500D01*
X134931961Y-75899500D01*
X134788039Y-75899500D01*
X134788035Y-75899500D01*
X134649949Y-75940046D01*
X134649942Y-75940049D01*
X134563023Y-75995909D01*
X134503848Y-76011464D01*
X134446832Y-75989265D01*
X134413752Y-75937792D01*
X134410500Y-75912625D01*
X134410500Y-75513513D01*
X134429407Y-75455322D01*
X134436741Y-75447331D01*
X134436491Y-75447114D01*
X134442615Y-75440047D01*
X134535377Y-75332993D01*
X134595165Y-75202077D01*
X134609609Y-75101618D01*
X134615647Y-75059622D01*
X134615647Y-75059617D01*
X134595165Y-74917163D01*
X134583882Y-74892457D01*
X134535377Y-74786247D01*
X134441128Y-74677477D01*
X134441127Y-74677476D01*
X134441126Y-74677475D01*
X134320057Y-74599669D01*
X134320054Y-74599667D01*
X134320053Y-74599667D01*
X134320050Y-74599666D01*
X134181964Y-74559120D01*
X134181961Y-74559120D01*
X134038039Y-74559120D01*
X134038035Y-74559120D01*
X133899949Y-74599666D01*
X133899942Y-74599669D01*
X133778873Y-74677475D01*
X133684622Y-74786248D01*
X133624834Y-74917163D01*
X133604353Y-75059617D01*
X133604353Y-75059622D01*
X133624834Y-75202076D01*
X133657394Y-75273371D01*
X133684623Y-75332993D01*
X133777384Y-75440046D01*
X133783509Y-75447114D01*
X133781471Y-75448879D01*
X133806925Y-75491078D01*
X133809500Y-75513513D01*
X133809500Y-76849683D01*
X133790593Y-76907874D01*
X133741093Y-76943838D01*
X133679907Y-76943838D01*
X133670530Y-76940187D01*
X133531964Y-76899500D01*
X133531961Y-76899500D01*
X133407565Y-76899500D01*
X133349374Y-76880593D01*
X133313410Y-76831093D01*
X133309573Y-76786412D01*
X133315647Y-76744163D01*
X133315647Y-76744156D01*
X133295165Y-76601702D01*
X133282227Y-76573373D01*
X133235377Y-76470786D01*
X133141128Y-76362016D01*
X133141127Y-76362015D01*
X133141126Y-76362014D01*
X133020057Y-76284208D01*
X133020054Y-76284206D01*
X133020053Y-76284206D01*
X133014056Y-76282445D01*
X132881964Y-76243659D01*
X132881961Y-76243659D01*
X132738039Y-76243659D01*
X132738037Y-76243659D01*
X132738033Y-76243660D01*
X132733769Y-76244912D01*
X132672609Y-76243162D01*
X132624158Y-76205797D01*
X132607890Y-76164009D01*
X132595387Y-76077050D01*
X132588581Y-76062146D01*
X132535599Y-75946133D01*
X132441350Y-75837363D01*
X132441349Y-75837362D01*
X132441348Y-75837361D01*
X132320279Y-75759555D01*
X132320276Y-75759553D01*
X132320275Y-75759553D01*
X132320272Y-75759552D01*
X132182186Y-75719006D01*
X132182183Y-75719006D01*
X132038261Y-75719006D01*
X132038257Y-75719006D01*
X131900171Y-75759552D01*
X131900164Y-75759555D01*
X131779095Y-75837361D01*
X131684844Y-75946134D01*
X131625056Y-76077049D01*
X131604575Y-76219503D01*
X130962843Y-76219503D01*
X130965647Y-76200002D01*
X130965647Y-76199997D01*
X130945165Y-76057543D01*
X130913983Y-75989265D01*
X130885377Y-75926627D01*
X130791128Y-75817857D01*
X130791127Y-75817856D01*
X130791126Y-75817855D01*
X130670057Y-75740049D01*
X130670054Y-75740047D01*
X130670053Y-75740047D01*
X130669062Y-75739756D01*
X130531964Y-75699500D01*
X130531961Y-75699500D01*
X130388039Y-75699500D01*
X130388035Y-75699500D01*
X130249949Y-75740046D01*
X130249942Y-75740049D01*
X130128872Y-75817856D01*
X130128871Y-75817857D01*
X130120705Y-75827281D01*
X130068307Y-75858875D01*
X130007347Y-75853637D01*
X129961107Y-75813567D01*
X129947895Y-75776534D01*
X129945454Y-75759555D01*
X129945165Y-75757543D01*
X129885377Y-75626627D01*
X129791128Y-75517857D01*
X129791127Y-75517856D01*
X129791126Y-75517855D01*
X129670057Y-75440049D01*
X129670054Y-75440047D01*
X129670053Y-75440047D01*
X129670050Y-75440046D01*
X129531964Y-75399500D01*
X129531961Y-75399500D01*
X129388039Y-75399500D01*
X129388035Y-75399500D01*
X129249949Y-75440046D01*
X129249943Y-75440048D01*
X129207063Y-75467606D01*
X129147888Y-75483159D01*
X129090872Y-75460960D01*
X129057793Y-75409487D01*
X129055549Y-75370231D01*
X129065647Y-75300001D01*
X129065647Y-75299997D01*
X129045165Y-75157543D01*
X129033308Y-75131580D01*
X128985377Y-75026627D01*
X128891128Y-74917857D01*
X128891127Y-74917856D01*
X128891126Y-74917855D01*
X128770057Y-74840049D01*
X128770054Y-74840047D01*
X128770053Y-74840047D01*
X128770050Y-74840046D01*
X128631964Y-74799500D01*
X128631961Y-74799500D01*
X128488039Y-74799500D01*
X128488037Y-74799500D01*
X128488033Y-74799501D01*
X128478351Y-74802344D01*
X128417191Y-74800596D01*
X128368738Y-74763233D01*
X128352469Y-74721442D01*
X128337576Y-74617857D01*
X128336093Y-74607543D01*
X128276305Y-74476627D01*
X128182056Y-74367857D01*
X128182055Y-74367856D01*
X128182054Y-74367855D01*
X128060985Y-74290049D01*
X128060982Y-74290047D01*
X128060981Y-74290047D01*
X128060978Y-74290046D01*
X127922892Y-74249500D01*
X127922889Y-74249500D01*
X127778967Y-74249500D01*
X127778963Y-74249500D01*
X127640877Y-74290046D01*
X127640870Y-74290049D01*
X127519801Y-74367855D01*
X127425550Y-74476628D01*
X127365762Y-74607543D01*
X127345281Y-74749997D01*
X127345281Y-74750002D01*
X127355202Y-74819007D01*
X127344769Y-74879296D01*
X127300891Y-74921939D01*
X127240328Y-74930646D01*
X127229319Y-74928086D01*
X127131964Y-74899500D01*
X127131961Y-74899500D01*
X126988039Y-74899500D01*
X126988035Y-74899500D01*
X126849949Y-74940046D01*
X126849942Y-74940049D01*
X126728873Y-75017855D01*
X126634622Y-75126628D01*
X126574834Y-75257543D01*
X126554353Y-75399997D01*
X124621895Y-75399997D01*
X124520374Y-75306307D01*
X124520371Y-75306305D01*
X124520370Y-75306304D01*
X124365977Y-75208802D01*
X124196485Y-75140858D01*
X124196484Y-75140857D01*
X124196480Y-75140856D01*
X124017494Y-75104719D01*
X124017485Y-75104718D01*
X123834918Y-75101577D01*
X123654795Y-75131539D01*
X123654792Y-75131539D01*
X123654790Y-75131540D01*
X123654788Y-75131540D01*
X123654778Y-75131543D01*
X123483062Y-75193613D01*
X123467166Y-75202875D01*
X123466035Y-75203441D01*
X123427459Y-75225978D01*
X123377513Y-75239496D01*
X123338608Y-75239494D01*
X123338606Y-75239494D01*
X123332148Y-75239494D01*
X123332042Y-75239501D01*
X121888038Y-75239501D01*
X121887933Y-75239494D01*
X121842485Y-75239497D01*
X121792538Y-75225978D01*
X121754159Y-75203556D01*
X121752496Y-75202727D01*
X121742464Y-75196881D01*
X121736921Y-75193650D01*
X121736918Y-75193649D01*
X121565211Y-75131583D01*
X121565196Y-75131579D01*
X121385075Y-75101618D01*
X121202519Y-75104759D01*
X121202510Y-75104760D01*
X121023529Y-75140896D01*
X120854041Y-75208838D01*
X120699650Y-75306339D01*
X120565473Y-75430166D01*
X120565470Y-75430169D01*
X120455920Y-75576246D01*
X120374618Y-75739749D01*
X120374615Y-75739756D01*
X120324261Y-75915253D01*
X120324259Y-75915262D01*
X120306504Y-76096995D01*
X120321939Y-76278935D01*
X120359888Y-76417857D01*
X120370056Y-76455078D01*
X120375052Y-76465489D01*
X120378007Y-76471646D01*
X120378648Y-76473237D01*
X120399681Y-76516892D01*
X120409493Y-76559892D01*
X120409478Y-76609213D01*
X120409501Y-76609562D01*
X120409501Y-77870488D01*
X120409492Y-77870626D01*
X120409497Y-77920104D01*
X120399757Y-77962935D01*
X120396857Y-77968980D01*
X120396792Y-77969116D01*
X120378458Y-78007183D01*
X120378119Y-78008024D01*
X120370022Y-78024897D01*
X120370019Y-78024904D01*
X120370019Y-78024906D01*
X120349449Y-78100204D01*
X120322168Y-78200075D01*
X120321900Y-78201055D01*
X120306463Y-78383004D01*
X118360500Y-78383004D01*
X118360500Y-74853893D01*
X118379407Y-74795702D01*
X118386741Y-74787711D01*
X118386491Y-74787494D01*
X118418978Y-74750002D01*
X118485377Y-74673373D01*
X118545165Y-74542457D01*
X118565647Y-74400000D01*
X118561025Y-74367855D01*
X118545165Y-74257543D01*
X118485377Y-74126628D01*
X118485377Y-74126627D01*
X118391128Y-74017857D01*
X118391127Y-74017856D01*
X118391126Y-74017855D01*
X118270057Y-73940049D01*
X118270054Y-73940047D01*
X118270053Y-73940047D01*
X118264999Y-73938563D01*
X118131964Y-73899500D01*
X118131961Y-73899500D01*
X117988039Y-73899500D01*
X117988035Y-73899500D01*
X117849949Y-73940046D01*
X117849942Y-73940049D01*
X117728873Y-74017855D01*
X117634622Y-74126628D01*
X117574834Y-74257543D01*
X117554353Y-74399997D01*
X109230073Y-74399997D01*
X110558321Y-72099405D01*
X115164417Y-72099405D01*
X115164417Y-72099412D01*
X115184698Y-72305338D01*
X115184699Y-72305343D01*
X115244768Y-72503363D01*
X115342316Y-72685861D01*
X115457840Y-72826628D01*
X115473590Y-72845819D01*
X115473595Y-72845823D01*
X115633547Y-72977092D01*
X115633548Y-72977092D01*
X115633550Y-72977094D01*
X115816046Y-73074641D01*
X115953997Y-73116487D01*
X116014065Y-73134709D01*
X116014070Y-73134710D01*
X116219997Y-73154992D01*
X116220000Y-73154992D01*
X116220003Y-73154992D01*
X116425929Y-73134710D01*
X116425934Y-73134709D01*
X116623954Y-73074641D01*
X116806450Y-72977094D01*
X116966410Y-72845819D01*
X117097685Y-72685859D01*
X117195232Y-72503363D01*
X117255300Y-72305343D01*
X117255301Y-72305338D01*
X117275583Y-72099412D01*
X117275583Y-72099405D01*
X117255301Y-71893479D01*
X117255300Y-71893474D01*
X117233312Y-71820989D01*
X117195232Y-71695455D01*
X117097685Y-71512959D01*
X117097033Y-71512165D01*
X116966414Y-71353004D01*
X116966410Y-71352999D01*
X116934277Y-71326628D01*
X116806452Y-71221725D01*
X116623954Y-71124177D01*
X116425934Y-71064108D01*
X116425929Y-71064107D01*
X116220003Y-71043826D01*
X116219997Y-71043826D01*
X116014070Y-71064107D01*
X116014065Y-71064108D01*
X115816045Y-71124177D01*
X115633547Y-71221725D01*
X115473595Y-71352994D01*
X115473585Y-71353004D01*
X115342316Y-71512956D01*
X115244768Y-71695454D01*
X115184699Y-71893474D01*
X115184698Y-71893479D01*
X115164417Y-72099405D01*
X110558321Y-72099405D01*
X111828321Y-69899701D01*
X116434417Y-69899701D01*
X116434417Y-69899708D01*
X116454698Y-70105634D01*
X116454699Y-70105639D01*
X116514768Y-70303659D01*
X116612316Y-70486157D01*
X116714140Y-70610230D01*
X116743590Y-70646115D01*
X116770872Y-70668505D01*
X116903547Y-70777388D01*
X116903548Y-70777388D01*
X116903550Y-70777390D01*
X117086046Y-70874937D01*
X117206659Y-70911524D01*
X117284065Y-70935005D01*
X117284070Y-70935006D01*
X117489997Y-70955288D01*
X117490000Y-70955288D01*
X117490003Y-70955288D01*
X117695929Y-70935006D01*
X117695934Y-70935005D01*
X117721064Y-70927382D01*
X117893954Y-70874937D01*
X118076450Y-70777390D01*
X118236410Y-70646115D01*
X118367685Y-70486155D01*
X118465232Y-70303659D01*
X118525300Y-70105639D01*
X118525301Y-70105633D01*
X118534897Y-70008200D01*
X118559416Y-69952143D01*
X118563399Y-69947916D01*
X119100804Y-69410511D01*
X119155319Y-69382736D01*
X119215751Y-69392307D01*
X119259016Y-69435572D01*
X119268587Y-69496004D01*
X119268264Y-69497923D01*
X119264788Y-69517380D01*
X119264862Y-69535820D01*
X119264789Y-69537037D01*
X119264818Y-69542710D01*
X119264818Y-69542711D01*
X119264985Y-69575395D01*
X119265018Y-69581718D01*
X119251755Y-69631724D01*
X119232283Y-69665450D01*
X119232282Y-69665452D01*
X119229783Y-69669781D01*
X119229777Y-69669793D01*
X118505832Y-70923703D01*
X118505812Y-70923735D01*
X118503707Y-70927382D01*
X118486296Y-70957543D01*
X118485948Y-70958145D01*
X118485939Y-70958160D01*
X118484233Y-70961114D01*
X118447558Y-70997595D01*
X118408805Y-71019701D01*
X118407673Y-71020450D01*
X118391688Y-71029596D01*
X118252093Y-71147279D01*
X118252086Y-71147286D01*
X118136104Y-71288289D01*
X118136093Y-71288305D01*
X118047552Y-71447967D01*
X118047546Y-71447980D01*
X117989366Y-71621043D01*
X117989363Y-71621054D01*
X117963469Y-71801782D01*
X117963468Y-71801786D01*
X117970715Y-71984230D01*
X117970717Y-71984242D01*
X118010868Y-72162352D01*
X118082597Y-72330258D01*
X118082599Y-72330261D01*
X118183537Y-72482413D01*
X118294119Y-72596967D01*
X118310352Y-72613783D01*
X118380911Y-72664265D01*
X118458845Y-72720024D01*
X118624118Y-72797633D01*
X118624124Y-72797634D01*
X118624128Y-72797636D01*
X118800705Y-72844043D01*
X118800706Y-72844043D01*
X118800710Y-72844044D01*
X118818975Y-72845438D01*
X118820705Y-72845685D01*
X118826200Y-72846095D01*
X118826201Y-72846096D01*
X118869091Y-72849303D01*
X118911237Y-72862308D01*
X118948449Y-72883810D01*
X118948451Y-72883810D01*
X118954056Y-72887049D01*
X118954414Y-72887225D01*
X120089239Y-73542418D01*
X120121538Y-73572390D01*
X120149024Y-73612713D01*
X120149756Y-73613647D01*
X120160264Y-73629012D01*
X120160265Y-73629013D01*
X120160268Y-73629016D01*
X120288751Y-73758744D01*
X120288754Y-73758746D01*
X120288755Y-73758747D01*
X120438608Y-73863079D01*
X120604870Y-73938563D01*
X120782049Y-73982704D01*
X120964292Y-73994044D01*
X121145576Y-73972208D01*
X121319914Y-73917918D01*
X121481544Y-73832967D01*
X121625127Y-73720163D01*
X121745919Y-73583231D01*
X121839929Y-73426697D01*
X121904051Y-73255731D01*
X121936167Y-73075982D01*
X121936094Y-73057678D01*
X121936176Y-73056330D01*
X121936146Y-73050591D01*
X121936147Y-73050589D01*
X121935944Y-73011617D01*
X121949204Y-72961608D01*
X122716722Y-71632226D01*
X122753405Y-71595735D01*
X122787251Y-71576430D01*
X122787252Y-71576428D01*
X122791969Y-71573738D01*
X122793579Y-71572672D01*
X122809213Y-71563730D01*
X122948827Y-71446051D01*
X122948828Y-71446049D01*
X122952274Y-71443145D01*
X122953244Y-71444296D01*
X123002086Y-71419019D01*
X123062578Y-71428207D01*
X123093011Y-71451867D01*
X123097929Y-71457543D01*
X123145259Y-71512165D01*
X123241069Y-71573738D01*
X123266333Y-71589974D01*
X123372146Y-71621043D01*
X123404421Y-71630520D01*
X123404422Y-71630520D01*
X123404425Y-71630521D01*
X123404427Y-71630521D01*
X123548345Y-71630521D01*
X123548347Y-71630521D01*
X123686439Y-71589974D01*
X123807514Y-71512164D01*
X123901763Y-71403394D01*
X123961551Y-71272478D01*
X123977944Y-71158459D01*
X123982033Y-71130023D01*
X123982033Y-71130018D01*
X123964601Y-71008774D01*
X123975034Y-70948485D01*
X124018912Y-70905842D01*
X124034700Y-70899695D01*
X124170053Y-70859953D01*
X124291128Y-70782143D01*
X124385377Y-70673373D01*
X124445165Y-70542457D01*
X124454818Y-70475312D01*
X124481813Y-70420408D01*
X124535926Y-70391853D01*
X124596489Y-70400560D01*
X124606334Y-70406120D01*
X124610881Y-70409041D01*
X124612299Y-70409953D01*
X124718755Y-70441211D01*
X124750387Y-70450499D01*
X124750388Y-70450499D01*
X124750391Y-70450500D01*
X124750393Y-70450500D01*
X124894311Y-70450500D01*
X124894313Y-70450500D01*
X125032405Y-70409953D01*
X125153480Y-70332143D01*
X125247729Y-70223373D01*
X125307517Y-70092457D01*
X125318606Y-70015332D01*
X125327999Y-69950002D01*
X125327999Y-69949997D01*
X125307518Y-69807545D01*
X125302100Y-69795681D01*
X125293009Y-69775776D01*
X125286034Y-69714992D01*
X125316120Y-69661715D01*
X125371776Y-69636297D01*
X125431743Y-69648446D01*
X125436575Y-69651359D01*
X125449947Y-69659953D01*
X125542089Y-69687008D01*
X125588035Y-69700499D01*
X125588036Y-69700499D01*
X125588039Y-69700500D01*
X125588041Y-69700500D01*
X125731959Y-69700500D01*
X125731961Y-69700500D01*
X125870053Y-69659953D01*
X125991128Y-69582143D01*
X126085377Y-69473373D01*
X126145165Y-69342457D01*
X126165647Y-69200000D01*
X126161338Y-69170033D01*
X126145165Y-69057543D01*
X126111999Y-68984920D01*
X126085377Y-68926627D01*
X125991128Y-68817857D01*
X125991127Y-68817856D01*
X125986491Y-68812506D01*
X125988524Y-68810743D01*
X125963067Y-68768505D01*
X125960500Y-68746105D01*
X125960500Y-67496182D01*
X131548492Y-67496182D01*
X131548492Y-67496187D01*
X131568973Y-67638641D01*
X131628761Y-67769556D01*
X131628762Y-67769558D01*
X131716875Y-67871247D01*
X131723012Y-67878329D01*
X131844081Y-67956135D01*
X131844086Y-67956138D01*
X131927898Y-67980747D01*
X131982174Y-67996684D01*
X131982175Y-67996684D01*
X131982178Y-67996685D01*
X131982180Y-67996685D01*
X132126098Y-67996685D01*
X132126100Y-67996685D01*
X132264192Y-67956138D01*
X132385267Y-67878328D01*
X132479516Y-67769558D01*
X132539304Y-67638642D01*
X132547389Y-67582409D01*
X132558717Y-67503623D01*
X132585713Y-67448715D01*
X132639827Y-67420162D01*
X132700390Y-67428869D01*
X132710232Y-67434428D01*
X132749947Y-67459951D01*
X132856403Y-67491209D01*
X132888035Y-67500497D01*
X132888036Y-67500497D01*
X132888039Y-67500498D01*
X132888041Y-67500498D01*
X133031959Y-67500498D01*
X133031961Y-67500498D01*
X133170053Y-67459951D01*
X133291128Y-67382141D01*
X133291133Y-67382135D01*
X133295666Y-67378208D01*
X133352025Y-67354388D01*
X133411621Y-67368245D01*
X133451690Y-67414484D01*
X133459500Y-67453025D01*
X133459500Y-67849226D01*
X133440593Y-67907417D01*
X133405720Y-67935934D01*
X133405903Y-67936219D01*
X133403425Y-67937811D01*
X133401633Y-67939277D01*
X133399944Y-67940048D01*
X133278873Y-68017855D01*
X133184622Y-68126628D01*
X133124834Y-68257543D01*
X133104353Y-68399997D01*
X133104353Y-68400002D01*
X133124834Y-68542456D01*
X133176202Y-68654934D01*
X133184623Y-68673373D01*
X133277269Y-68780293D01*
X133278873Y-68782144D01*
X133375237Y-68844073D01*
X133399947Y-68859953D01*
X133490454Y-68886528D01*
X133538035Y-68900499D01*
X133538036Y-68900499D01*
X133538039Y-68900500D01*
X133538041Y-68900500D01*
X133681959Y-68900500D01*
X133681961Y-68900500D01*
X133820053Y-68859953D01*
X133941128Y-68782143D01*
X134035377Y-68673373D01*
X134095165Y-68542457D01*
X134109577Y-68442216D01*
X134115647Y-68400002D01*
X134115647Y-68399997D01*
X134095165Y-68257543D01*
X134069447Y-68201229D01*
X134060500Y-68160102D01*
X134060500Y-63550315D01*
X134079407Y-63492124D01*
X134128907Y-63456160D01*
X134190093Y-63456160D01*
X134199479Y-63459814D01*
X134199946Y-63459951D01*
X134199949Y-63459953D01*
X134309515Y-63492124D01*
X134338037Y-63500499D01*
X134338038Y-63500499D01*
X134338041Y-63500500D01*
X134338043Y-63500500D01*
X134481961Y-63500500D01*
X134481963Y-63500500D01*
X134620055Y-63459953D01*
X134741130Y-63382143D01*
X134835379Y-63273373D01*
X134895167Y-63142457D01*
X134915649Y-63000000D01*
X134915649Y-62999997D01*
X145154353Y-62999997D01*
X145154353Y-63000002D01*
X145174834Y-63142456D01*
X145234623Y-63273373D01*
X145333509Y-63387494D01*
X145331471Y-63389259D01*
X145356925Y-63431458D01*
X145359500Y-63453893D01*
X145359500Y-69446105D01*
X145340593Y-69504296D01*
X145333258Y-69512289D01*
X145333509Y-69512506D01*
X145328872Y-69517856D01*
X145328872Y-69517857D01*
X145273537Y-69581718D01*
X145234622Y-69626628D01*
X145174834Y-69757543D01*
X145154353Y-69899997D01*
X145154353Y-69900002D01*
X145174834Y-70042456D01*
X145209935Y-70119315D01*
X145234623Y-70173373D01*
X145327173Y-70280182D01*
X145328873Y-70282144D01*
X145442103Y-70354912D01*
X145449947Y-70359953D01*
X145556403Y-70391211D01*
X145588035Y-70400499D01*
X145588036Y-70400499D01*
X145588039Y-70400500D01*
X145588041Y-70400500D01*
X145731959Y-70400500D01*
X145731961Y-70400500D01*
X145870053Y-70359953D01*
X145991128Y-70282143D01*
X146085377Y-70173373D01*
X146145165Y-70042457D01*
X146155159Y-69972947D01*
X146165647Y-69900002D01*
X146165647Y-69899997D01*
X146145165Y-69757543D01*
X146122073Y-69706979D01*
X146085377Y-69626627D01*
X145991128Y-69517857D01*
X145991127Y-69517856D01*
X145986491Y-69512506D01*
X145988524Y-69510743D01*
X145963067Y-69468505D01*
X145960500Y-69446105D01*
X145960500Y-65499997D01*
X148854353Y-65499997D01*
X148854353Y-65500002D01*
X148874834Y-65642456D01*
X148883285Y-65660960D01*
X148934623Y-65773373D01*
X148980768Y-65826628D01*
X149033509Y-65887494D01*
X149031471Y-65889259D01*
X149056925Y-65931458D01*
X149059500Y-65953893D01*
X149059500Y-70646105D01*
X149040593Y-70704296D01*
X149033258Y-70712289D01*
X149033509Y-70712506D01*
X149028872Y-70717856D01*
X149028872Y-70717857D01*
X148977289Y-70777388D01*
X148934622Y-70826628D01*
X148874834Y-70957543D01*
X148854353Y-71099997D01*
X148854353Y-71100002D01*
X148874834Y-71242456D01*
X148913275Y-71326628D01*
X148934623Y-71373373D01*
X149002640Y-71451869D01*
X149028873Y-71482144D01*
X149122408Y-71542255D01*
X149149947Y-71559953D01*
X149252180Y-71589971D01*
X149288035Y-71600499D01*
X149288036Y-71600499D01*
X149288039Y-71600500D01*
X149288041Y-71600500D01*
X149431959Y-71600500D01*
X149431961Y-71600500D01*
X149570053Y-71559953D01*
X149603901Y-71538200D01*
X149663073Y-71522645D01*
X149720090Y-71544843D01*
X149753170Y-71596314D01*
X149755415Y-71607395D01*
X149774834Y-71742456D01*
X149810740Y-71821078D01*
X149834623Y-71873373D01*
X149914751Y-71965846D01*
X149928873Y-71982144D01*
X150049942Y-72059950D01*
X150049947Y-72059953D01*
X150156403Y-72091211D01*
X150188035Y-72100499D01*
X150188036Y-72100499D01*
X150188039Y-72100500D01*
X150188041Y-72100500D01*
X150331959Y-72100500D01*
X150331961Y-72100500D01*
X150470053Y-72059953D01*
X150591128Y-71982143D01*
X150685377Y-71873373D01*
X150745165Y-71742457D01*
X150762622Y-71621043D01*
X150765647Y-71600002D01*
X150765647Y-71599997D01*
X150745165Y-71457543D01*
X150738590Y-71443145D01*
X150685377Y-71326627D01*
X150591128Y-71217857D01*
X150591127Y-71217856D01*
X150586491Y-71212506D01*
X150588524Y-71210743D01*
X150563067Y-71168505D01*
X150560500Y-71146105D01*
X150560500Y-66553893D01*
X150579407Y-66495702D01*
X150586741Y-66487711D01*
X150586491Y-66487494D01*
X150591128Y-66482143D01*
X150685377Y-66373373D01*
X150745165Y-66242457D01*
X150764216Y-66109952D01*
X150765647Y-66100002D01*
X150765647Y-66099997D01*
X150745165Y-65957543D01*
X150729558Y-65923369D01*
X150685377Y-65826627D01*
X150591128Y-65717857D01*
X150591127Y-65717856D01*
X150591126Y-65717855D01*
X150470057Y-65640049D01*
X150470054Y-65640047D01*
X150470053Y-65640047D01*
X150470050Y-65640046D01*
X150331964Y-65599500D01*
X150331961Y-65599500D01*
X150188039Y-65599500D01*
X150188035Y-65599500D01*
X150049949Y-65640046D01*
X150049943Y-65640048D01*
X150007063Y-65667606D01*
X149947888Y-65683159D01*
X149890872Y-65660960D01*
X149857793Y-65609487D01*
X149855549Y-65570231D01*
X149865647Y-65500001D01*
X149865647Y-65499997D01*
X149862313Y-65476810D01*
X159097766Y-65476810D01*
X159097766Y-65476817D01*
X159118047Y-65682743D01*
X159118048Y-65682748D01*
X159178117Y-65880768D01*
X159275665Y-66063266D01*
X159387469Y-66199500D01*
X159406939Y-66223224D01*
X159406944Y-66223228D01*
X159566896Y-66354497D01*
X159566897Y-66354497D01*
X159566899Y-66354499D01*
X159749395Y-66452046D01*
X159887346Y-66493892D01*
X159947414Y-66512114D01*
X159947419Y-66512115D01*
X160153346Y-66532397D01*
X160153349Y-66532397D01*
X160153352Y-66532397D01*
X160359278Y-66512115D01*
X160359283Y-66512114D01*
X160393198Y-66501826D01*
X160557303Y-66452046D01*
X160739799Y-66354499D01*
X160899759Y-66223224D01*
X161031034Y-66063264D01*
X161128581Y-65880768D01*
X161188649Y-65682748D01*
X161188650Y-65682743D01*
X161208932Y-65476817D01*
X161208932Y-65476810D01*
X161188650Y-65270884D01*
X161188649Y-65270879D01*
X161164128Y-65190044D01*
X161128581Y-65072860D01*
X161031034Y-64890364D01*
X160899759Y-64730404D01*
X160899753Y-64730399D01*
X160739801Y-64599130D01*
X160557303Y-64501582D01*
X160359283Y-64441513D01*
X160359278Y-64441512D01*
X160153352Y-64421231D01*
X160153346Y-64421231D01*
X159947419Y-64441512D01*
X159947414Y-64441513D01*
X159749394Y-64501582D01*
X159566896Y-64599130D01*
X159406944Y-64730399D01*
X159406934Y-64730409D01*
X159275665Y-64890361D01*
X159178117Y-65072859D01*
X159118048Y-65270879D01*
X159118047Y-65270884D01*
X159097766Y-65476810D01*
X149862313Y-65476810D01*
X149845165Y-65357543D01*
X149785377Y-65226627D01*
X149691128Y-65117857D01*
X149691127Y-65117856D01*
X149691126Y-65117855D01*
X149570057Y-65040049D01*
X149570054Y-65040047D01*
X149570053Y-65040047D01*
X149570050Y-65040046D01*
X149431964Y-64999500D01*
X149431961Y-64999500D01*
X149288039Y-64999500D01*
X149288035Y-64999500D01*
X149149949Y-65040046D01*
X149149942Y-65040049D01*
X149028873Y-65117855D01*
X148934622Y-65226628D01*
X148874834Y-65357543D01*
X148854353Y-65499997D01*
X145960500Y-65499997D01*
X145960500Y-63453893D01*
X145979407Y-63395702D01*
X145986741Y-63387711D01*
X145986491Y-63387494D01*
X146027569Y-63340087D01*
X146082142Y-63277106D01*
X157827766Y-63277106D01*
X157827766Y-63277113D01*
X157848047Y-63483039D01*
X157848048Y-63483044D01*
X157908117Y-63681064D01*
X158005665Y-63863562D01*
X158136934Y-64023514D01*
X158136939Y-64023520D01*
X158136944Y-64023524D01*
X158296896Y-64154793D01*
X158296897Y-64154793D01*
X158296899Y-64154795D01*
X158479395Y-64252342D01*
X158617346Y-64294188D01*
X158677414Y-64312410D01*
X158677419Y-64312411D01*
X158883346Y-64332693D01*
X158883349Y-64332693D01*
X158883352Y-64332693D01*
X159089278Y-64312411D01*
X159089283Y-64312410D01*
X159287303Y-64252342D01*
X159469799Y-64154795D01*
X159629759Y-64023520D01*
X159761034Y-63863560D01*
X159858581Y-63681064D01*
X159918649Y-63483044D01*
X159918650Y-63483039D01*
X159938932Y-63277113D01*
X159938932Y-63277106D01*
X159918650Y-63071180D01*
X159918649Y-63071175D01*
X159900427Y-63011107D01*
X159858581Y-62873156D01*
X159761034Y-62690660D01*
X159759660Y-62688986D01*
X159629763Y-62530705D01*
X159629759Y-62530700D01*
X159629753Y-62530695D01*
X159469801Y-62399426D01*
X159287303Y-62301878D01*
X159089283Y-62241809D01*
X159089278Y-62241808D01*
X158883352Y-62221527D01*
X158883346Y-62221527D01*
X158677419Y-62241808D01*
X158677414Y-62241809D01*
X158479394Y-62301878D01*
X158296896Y-62399426D01*
X158136944Y-62530695D01*
X158136934Y-62530705D01*
X158005665Y-62690657D01*
X157908117Y-62873155D01*
X157848048Y-63071175D01*
X157848047Y-63071180D01*
X157827766Y-63277106D01*
X146082142Y-63277106D01*
X146085377Y-63273373D01*
X146145165Y-63142457D01*
X146165647Y-63000000D01*
X146156544Y-62936689D01*
X146145165Y-62857543D01*
X146085377Y-62726628D01*
X146085377Y-62726627D01*
X145991128Y-62617857D01*
X145991127Y-62617856D01*
X145991126Y-62617855D01*
X145870057Y-62540049D01*
X145870054Y-62540047D01*
X145870053Y-62540047D01*
X145870050Y-62540046D01*
X145731964Y-62499500D01*
X145731961Y-62499500D01*
X145588039Y-62499500D01*
X145588035Y-62499500D01*
X145449949Y-62540046D01*
X145449942Y-62540049D01*
X145328873Y-62617855D01*
X145234622Y-62726628D01*
X145174834Y-62857543D01*
X145154353Y-62999997D01*
X134915649Y-62999997D01*
X134906546Y-62936689D01*
X134895167Y-62857543D01*
X134835379Y-62726628D01*
X134835379Y-62726627D01*
X134741130Y-62617857D01*
X134741129Y-62617856D01*
X134741128Y-62617855D01*
X134705975Y-62595263D01*
X134667245Y-62547896D01*
X134660500Y-62511980D01*
X134660500Y-59488018D01*
X134679407Y-59429827D01*
X134705976Y-59404734D01*
X134741130Y-59382143D01*
X134835379Y-59273373D01*
X134895167Y-59142457D01*
X134901994Y-59094971D01*
X134915649Y-59000002D01*
X134915649Y-58999997D01*
X134895167Y-58857543D01*
X134835379Y-58726628D01*
X134835379Y-58726627D01*
X134741130Y-58617857D01*
X134741129Y-58617856D01*
X134741128Y-58617855D01*
X134620059Y-58540049D01*
X134620056Y-58540047D01*
X134620055Y-58540047D01*
X134608922Y-58536778D01*
X134481966Y-58499500D01*
X134481963Y-58499500D01*
X134338041Y-58499500D01*
X134338037Y-58499500D01*
X134211081Y-58536778D01*
X134149921Y-58535030D01*
X134101468Y-58497667D01*
X134084230Y-58438960D01*
X134104792Y-58381333D01*
X134113178Y-58371792D01*
X134655475Y-57829496D01*
X134709992Y-57801719D01*
X134725479Y-57800500D01*
X137947229Y-57800500D01*
X138005420Y-57819407D01*
X138041384Y-57868907D01*
X138041384Y-57930093D01*
X138026431Y-57958897D01*
X138005920Y-57986246D01*
X137924618Y-58149749D01*
X137924615Y-58149756D01*
X137874261Y-58325253D01*
X137874259Y-58325262D01*
X137856504Y-58506995D01*
X137871939Y-58688935D01*
X137920054Y-58865072D01*
X137920056Y-58865078D01*
X137927204Y-58879973D01*
X137928007Y-58881646D01*
X137928648Y-58883237D01*
X137949681Y-58926892D01*
X137959493Y-58969892D01*
X137959478Y-59019213D01*
X137959501Y-59019562D01*
X137959501Y-60280488D01*
X137959492Y-60280626D01*
X137959497Y-60330103D01*
X137949755Y-60372938D01*
X137945920Y-60380931D01*
X137945862Y-60381051D01*
X137928461Y-60417192D01*
X137928156Y-60417948D01*
X137920020Y-60434902D01*
X137920019Y-60434906D01*
X137871900Y-60611055D01*
X137859869Y-60752861D01*
X137856463Y-60793003D01*
X137874218Y-60974737D01*
X137874219Y-60974742D01*
X137924579Y-61150263D01*
X138005881Y-61313768D01*
X138115438Y-61459855D01*
X138249595Y-61583664D01*
X138249627Y-61583693D01*
X138249629Y-61583695D01*
X138404015Y-61681194D01*
X138404016Y-61681194D01*
X138404022Y-61681198D01*
X138573514Y-61749142D01*
X138573517Y-61749142D01*
X138573518Y-61749143D01*
X138608283Y-61756162D01*
X138752505Y-61785281D01*
X138914794Y-61788073D01*
X138935080Y-61788422D01*
X138935080Y-61788421D01*
X138935081Y-61788422D01*
X139115210Y-61758460D01*
X139286938Y-61696386D01*
X139302741Y-61687176D01*
X139303849Y-61686624D01*
X139308864Y-61683693D01*
X139308870Y-61683692D01*
X139342537Y-61664021D01*
X139392485Y-61650502D01*
X139431392Y-61650507D01*
X139431394Y-61650506D01*
X139437842Y-61650507D01*
X139437963Y-61650500D01*
X140927507Y-61650500D01*
X140977462Y-61664028D01*
X141015686Y-61686368D01*
X141017527Y-61687286D01*
X141033077Y-61696348D01*
X141130796Y-61731670D01*
X141204787Y-61758416D01*
X141204790Y-61758416D01*
X141204799Y-61758420D01*
X141384920Y-61788381D01*
X141567488Y-61785240D01*
X141746472Y-61749103D01*
X141915958Y-61681163D01*
X142070344Y-61583664D01*
X142204531Y-61459829D01*
X142314083Y-61313748D01*
X142395382Y-61150250D01*
X142445741Y-60974736D01*
X142463496Y-60793006D01*
X142448060Y-60611064D01*
X142399944Y-60434922D01*
X142392025Y-60418422D01*
X142391494Y-60417100D01*
X142370300Y-60373083D01*
X142360499Y-60330134D01*
X142360499Y-58969889D01*
X142370245Y-58927055D01*
X142373913Y-58919412D01*
X142373969Y-58919297D01*
X142386030Y-58894247D01*
X142389019Y-58888040D01*
X142389019Y-58888039D01*
X142391626Y-58882625D01*
X142391923Y-58881884D01*
X142399982Y-58865093D01*
X142448100Y-58688944D01*
X142463537Y-58506994D01*
X142445781Y-58325257D01*
X142445778Y-58325246D01*
X142395422Y-58149742D01*
X142395421Y-58149740D01*
X142395420Y-58149736D01*
X142314118Y-57986231D01*
X142204562Y-57840145D01*
X142204558Y-57840141D01*
X142204556Y-57840139D01*
X142070374Y-57716307D01*
X142070371Y-57716305D01*
X142070370Y-57716304D01*
X141915977Y-57618802D01*
X141746485Y-57550858D01*
X141746484Y-57550857D01*
X141746480Y-57550856D01*
X141567494Y-57514719D01*
X141567485Y-57514718D01*
X141384918Y-57511577D01*
X141204795Y-57541539D01*
X141204793Y-57541539D01*
X141204790Y-57541540D01*
X141204785Y-57541541D01*
X141204784Y-57541542D01*
X141119292Y-57572444D01*
X141058140Y-57574443D01*
X141007491Y-57540116D01*
X140986692Y-57482574D01*
X141003687Y-57423797D01*
X141015631Y-57409339D01*
X142048784Y-56376185D01*
X142103299Y-56348410D01*
X142163731Y-56357981D01*
X142165454Y-56358881D01*
X142196040Y-56375229D01*
X142196046Y-56375232D01*
X142333997Y-56417078D01*
X142394065Y-56435300D01*
X142394070Y-56435301D01*
X142599997Y-56455583D01*
X142600000Y-56455583D01*
X142600003Y-56455583D01*
X142805929Y-56435301D01*
X142805934Y-56435300D01*
X143003954Y-56375232D01*
X143186450Y-56277685D01*
X143346410Y-56146410D01*
X143477685Y-55986450D01*
X143575232Y-55803954D01*
X143635300Y-55605934D01*
X143635301Y-55605929D01*
X143655583Y-55400003D01*
X143655583Y-55399996D01*
X143635301Y-55194070D01*
X143635300Y-55194065D01*
X143606766Y-55100000D01*
X143575232Y-54996046D01*
X143477685Y-54813550D01*
X143346410Y-54653590D01*
X143196123Y-54530253D01*
X144089500Y-54530253D01*
X144089500Y-56269746D01*
X144089501Y-56269758D01*
X144101132Y-56328227D01*
X144101134Y-56328233D01*
X144133177Y-56376188D01*
X144145448Y-56394552D01*
X144211769Y-56438867D01*
X144256231Y-56447711D01*
X144270241Y-56450498D01*
X144270246Y-56450498D01*
X144270252Y-56450500D01*
X144270253Y-56450500D01*
X146009747Y-56450500D01*
X146009748Y-56450500D01*
X146068231Y-56438867D01*
X146134552Y-56394552D01*
X146178867Y-56328231D01*
X146190500Y-56269748D01*
X146190500Y-54530252D01*
X146188921Y-54522316D01*
X146187711Y-54516231D01*
X146178867Y-54471769D01*
X146134552Y-54405448D01*
X146134548Y-54405445D01*
X146068233Y-54361134D01*
X146068231Y-54361133D01*
X146068228Y-54361132D01*
X146068227Y-54361132D01*
X146009758Y-54349501D01*
X146009748Y-54349500D01*
X144270252Y-54349500D01*
X144270251Y-54349500D01*
X144270241Y-54349501D01*
X144211772Y-54361132D01*
X144211766Y-54361134D01*
X144145451Y-54405445D01*
X144145445Y-54405451D01*
X144101134Y-54471766D01*
X144101132Y-54471772D01*
X144089501Y-54530241D01*
X144089500Y-54530253D01*
X143196123Y-54530253D01*
X143186452Y-54522316D01*
X143003954Y-54424768D01*
X142805934Y-54364699D01*
X142805929Y-54364698D01*
X142600003Y-54344417D01*
X142599997Y-54344417D01*
X142394070Y-54364698D01*
X142394065Y-54364699D01*
X142196045Y-54424768D01*
X142013547Y-54522316D01*
X141853595Y-54653585D01*
X141853585Y-54653595D01*
X141722316Y-54813547D01*
X141624768Y-54996045D01*
X141564699Y-55194065D01*
X141564698Y-55194070D01*
X141544417Y-55399996D01*
X141544417Y-55400003D01*
X141564698Y-55605929D01*
X141564699Y-55605934D01*
X141593234Y-55700000D01*
X141624768Y-55803954D01*
X141641118Y-55834543D01*
X141651874Y-55894775D01*
X141625173Y-55949826D01*
X141623812Y-55951215D01*
X140404525Y-57170504D01*
X140350008Y-57198281D01*
X140334521Y-57199500D01*
X138924479Y-57199500D01*
X138866288Y-57180593D01*
X138830324Y-57131093D01*
X138830324Y-57069907D01*
X138854475Y-57030497D01*
X139508782Y-56376188D01*
X139563299Y-56348410D01*
X139623731Y-56357981D01*
X139625454Y-56358881D01*
X139656040Y-56375229D01*
X139656046Y-56375232D01*
X139793997Y-56417078D01*
X139854065Y-56435300D01*
X139854070Y-56435301D01*
X140059997Y-56455583D01*
X140060000Y-56455583D01*
X140060003Y-56455583D01*
X140265929Y-56435301D01*
X140265934Y-56435300D01*
X140463954Y-56375232D01*
X140646450Y-56277685D01*
X140806410Y-56146410D01*
X140937685Y-55986450D01*
X141035232Y-55803954D01*
X141095300Y-55605934D01*
X141095301Y-55605929D01*
X141115583Y-55400003D01*
X141115583Y-55399996D01*
X141095301Y-55194070D01*
X141095300Y-55194065D01*
X141066766Y-55100000D01*
X141035232Y-54996046D01*
X140937685Y-54813550D01*
X140806410Y-54653590D01*
X140656123Y-54530253D01*
X140646452Y-54522316D01*
X140463954Y-54424768D01*
X140265934Y-54364699D01*
X140265929Y-54364698D01*
X140060003Y-54344417D01*
X140059997Y-54344417D01*
X139854070Y-54364698D01*
X139854065Y-54364699D01*
X139656045Y-54424768D01*
X139473547Y-54522316D01*
X139313595Y-54653585D01*
X139313585Y-54653595D01*
X139182316Y-54813547D01*
X139084768Y-54996045D01*
X139024699Y-55194065D01*
X139024698Y-55194070D01*
X139004417Y-55399996D01*
X139004417Y-55400003D01*
X139024698Y-55605929D01*
X139024699Y-55605934D01*
X139053234Y-55700000D01*
X139084768Y-55803954D01*
X139101118Y-55834543D01*
X139111874Y-55894775D01*
X139085173Y-55949826D01*
X139083812Y-55951214D01*
X138264525Y-56770503D01*
X138210008Y-56798281D01*
X138194521Y-56799500D01*
X136784478Y-56799500D01*
X136726287Y-56780593D01*
X136690323Y-56731093D01*
X136690323Y-56669907D01*
X136714474Y-56630497D01*
X136894472Y-56450498D01*
X136968784Y-56376185D01*
X137023299Y-56348409D01*
X137083731Y-56357980D01*
X137085431Y-56358868D01*
X137116046Y-56375232D01*
X137253997Y-56417078D01*
X137314065Y-56435300D01*
X137314070Y-56435301D01*
X137519997Y-56455583D01*
X137520000Y-56455583D01*
X137520003Y-56455583D01*
X137725929Y-56435301D01*
X137725934Y-56435300D01*
X137923954Y-56375232D01*
X138106450Y-56277685D01*
X138266410Y-56146410D01*
X138397685Y-55986450D01*
X138495232Y-55803954D01*
X138555300Y-55605934D01*
X138555301Y-55605929D01*
X138575583Y-55400003D01*
X138575583Y-55399996D01*
X138555301Y-55194070D01*
X138555300Y-55194065D01*
X138526766Y-55100000D01*
X138495232Y-54996046D01*
X138397685Y-54813550D01*
X138266410Y-54653590D01*
X138116123Y-54530253D01*
X138106452Y-54522316D01*
X137923954Y-54424768D01*
X137725934Y-54364699D01*
X137725929Y-54364698D01*
X137520003Y-54344417D01*
X137519997Y-54344417D01*
X137314070Y-54364698D01*
X137314065Y-54364699D01*
X137116045Y-54424768D01*
X136933547Y-54522316D01*
X136773595Y-54653585D01*
X136773585Y-54653595D01*
X136642316Y-54813547D01*
X136544768Y-54996045D01*
X136484699Y-55194065D01*
X136484698Y-55194070D01*
X136464417Y-55399996D01*
X136464417Y-55400003D01*
X136484698Y-55605929D01*
X136484699Y-55605934D01*
X136544768Y-55803954D01*
X136544770Y-55803959D01*
X136561118Y-55834544D01*
X136571874Y-55894777D01*
X136545172Y-55949828D01*
X136543812Y-55951215D01*
X136274526Y-56220503D01*
X136220009Y-56248281D01*
X136204522Y-56249500D01*
X135850478Y-56249500D01*
X135792287Y-56230593D01*
X135756323Y-56181093D01*
X135756323Y-56119907D01*
X135773950Y-56087695D01*
X135857268Y-55986170D01*
X135857275Y-55986160D01*
X135954765Y-55803767D01*
X135954767Y-55803762D01*
X136014808Y-55605836D01*
X136014809Y-55605831D01*
X136025232Y-55500000D01*
X135263788Y-55500000D01*
X135280000Y-55439496D01*
X135280000Y-55360504D01*
X135263788Y-55300000D01*
X136025232Y-55300000D01*
X136025232Y-55299999D01*
X136014809Y-55194168D01*
X136014808Y-55194163D01*
X135954767Y-54996237D01*
X135954765Y-54996232D01*
X135857275Y-54813839D01*
X135857268Y-54813829D01*
X135726059Y-54653949D01*
X135726050Y-54653940D01*
X135566170Y-54522731D01*
X135566160Y-54522724D01*
X135383767Y-54425234D01*
X135383762Y-54425232D01*
X135185836Y-54365191D01*
X135185831Y-54365190D01*
X135080000Y-54354767D01*
X135080000Y-55116211D01*
X135019496Y-55100000D01*
X134940504Y-55100000D01*
X134880000Y-55116211D01*
X134880000Y-54354767D01*
X134879999Y-54354767D01*
X134774168Y-54365190D01*
X134774163Y-54365191D01*
X134576237Y-54425232D01*
X134576232Y-54425234D01*
X134393839Y-54522724D01*
X134393829Y-54522731D01*
X134233949Y-54653940D01*
X134233940Y-54653949D01*
X134102731Y-54813829D01*
X134102724Y-54813839D01*
X134005234Y-54996232D01*
X134005232Y-54996237D01*
X133945191Y-55194163D01*
X133945190Y-55194168D01*
X133934767Y-55299999D01*
X133934768Y-55300000D01*
X134696212Y-55300000D01*
X134680000Y-55360504D01*
X134680000Y-55439496D01*
X134696212Y-55500000D01*
X133934767Y-55500000D01*
X133945190Y-55605831D01*
X133945191Y-55605836D01*
X134005232Y-55803762D01*
X134005234Y-55803767D01*
X134102724Y-55986160D01*
X134102731Y-55986170D01*
X134186050Y-56087695D01*
X134208350Y-56144672D01*
X134192901Y-56203875D01*
X134145604Y-56242690D01*
X134109522Y-56249500D01*
X133670435Y-56249500D01*
X133594011Y-56269978D01*
X133594007Y-56269980D01*
X133525491Y-56309538D01*
X131869628Y-57965401D01*
X131869627Y-57965400D01*
X131813678Y-58021350D01*
X131774119Y-58089868D01*
X131774117Y-58089872D01*
X131753639Y-58166296D01*
X131753639Y-67042290D01*
X131734732Y-67100481D01*
X131727397Y-67108474D01*
X131727648Y-67108691D01*
X131723011Y-67114041D01*
X131723011Y-67114042D01*
X131707920Y-67131458D01*
X131628761Y-67222813D01*
X131568973Y-67353728D01*
X131548492Y-67496182D01*
X125960500Y-67496182D01*
X125960500Y-52560437D01*
X125960499Y-52560435D01*
X125940021Y-52484011D01*
X125940019Y-52484007D01*
X125900460Y-52415489D01*
X125844511Y-52359539D01*
X125844511Y-52359540D01*
X125090546Y-51605575D01*
X125062769Y-51551058D01*
X125062558Y-51521482D01*
X125065647Y-51500000D01*
X125045165Y-51357543D01*
X124985377Y-51226627D01*
X124891128Y-51117857D01*
X124891127Y-51117856D01*
X124891126Y-51117855D01*
X124770057Y-51040049D01*
X124770054Y-51040047D01*
X124770053Y-51040047D01*
X124770050Y-51040046D01*
X124631964Y-50999500D01*
X124631961Y-50999500D01*
X124488039Y-50999500D01*
X124488035Y-50999500D01*
X124349949Y-51040046D01*
X124349942Y-51040049D01*
X124228873Y-51117855D01*
X124134622Y-51226628D01*
X124074834Y-51357543D01*
X124054353Y-51499997D01*
X124054353Y-51500002D01*
X124074834Y-51642456D01*
X124134622Y-51773371D01*
X124134623Y-51773373D01*
X124228872Y-51882143D01*
X124228873Y-51882144D01*
X124349942Y-51959950D01*
X124349947Y-51959953D01*
X124456403Y-51991211D01*
X124488035Y-52000499D01*
X124488036Y-52000499D01*
X124488039Y-52000500D01*
X124488041Y-52000500D01*
X124594521Y-52000500D01*
X124652712Y-52019407D01*
X124664525Y-52029496D01*
X125330504Y-52695475D01*
X125358281Y-52749992D01*
X125359500Y-52765479D01*
X125359500Y-68746105D01*
X125340593Y-68804296D01*
X125333258Y-68812289D01*
X125333508Y-68812506D01*
X125296671Y-68855018D01*
X125244275Y-68886614D01*
X125183314Y-68881378D01*
X125137073Y-68841310D01*
X125122852Y-68790187D01*
X125122852Y-65822786D01*
X125114724Y-65792454D01*
X125107250Y-65764563D01*
X125104886Y-65724851D01*
X125115649Y-65649999D01*
X125115649Y-65649995D01*
X125095167Y-65507541D01*
X125035379Y-65376626D01*
X125035379Y-65376625D01*
X124941130Y-65267855D01*
X124941129Y-65267854D01*
X124941128Y-65267853D01*
X124820059Y-65190047D01*
X124820056Y-65190045D01*
X124820055Y-65190045D01*
X124820052Y-65190044D01*
X124681966Y-65149498D01*
X124681963Y-65149498D01*
X124538041Y-65149498D01*
X124538037Y-65149498D01*
X124399951Y-65190044D01*
X124399944Y-65190047D01*
X124278875Y-65267853D01*
X124184624Y-65376626D01*
X124124836Y-65507541D01*
X124104355Y-65649995D01*
X124104355Y-65650000D01*
X124124836Y-65792454D01*
X124184624Y-65923369D01*
X124184625Y-65923371D01*
X124278874Y-66032141D01*
X124278875Y-66032142D01*
X124363841Y-66086746D01*
X124399949Y-66109951D01*
X124450742Y-66124864D01*
X124501249Y-66159398D01*
X124521812Y-66217025D01*
X124521852Y-66219854D01*
X124521852Y-66518697D01*
X124502945Y-66576888D01*
X124453445Y-66612852D01*
X124392259Y-66612852D01*
X124348033Y-66583528D01*
X124291129Y-66517858D01*
X124291127Y-66517856D01*
X124170057Y-66440049D01*
X124170054Y-66440047D01*
X124170053Y-66440047D01*
X124162581Y-66437853D01*
X124031964Y-66399500D01*
X124031961Y-66399500D01*
X123888039Y-66399500D01*
X123888035Y-66399500D01*
X123749949Y-66440046D01*
X123749942Y-66440049D01*
X123628873Y-66517855D01*
X123534622Y-66626628D01*
X123474834Y-66757543D01*
X123454353Y-66899997D01*
X123454353Y-66900002D01*
X123474834Y-67042456D01*
X123508561Y-67116306D01*
X123534623Y-67173373D01*
X123628142Y-67281301D01*
X123633509Y-67287494D01*
X123631471Y-67289259D01*
X123656925Y-67331458D01*
X123659500Y-67353893D01*
X123659500Y-69735521D01*
X123640593Y-69793712D01*
X123591093Y-69829676D01*
X123529907Y-69829676D01*
X123490496Y-69805525D01*
X122723951Y-69038980D01*
X121934462Y-68249491D01*
X121925866Y-68244528D01*
X121895539Y-68227018D01*
X121895539Y-68227019D01*
X121865940Y-68209930D01*
X121865939Y-68209929D01*
X121865938Y-68209929D01*
X121789515Y-68189451D01*
X121789513Y-68189451D01*
X119842782Y-68189451D01*
X119784591Y-68170544D01*
X119748627Y-68121044D01*
X119748045Y-68061714D01*
X119795300Y-67905934D01*
X119795301Y-67905929D01*
X119815583Y-67700003D01*
X119815583Y-67699996D01*
X119795301Y-67494070D01*
X119795300Y-67494065D01*
X119762589Y-67386231D01*
X119735232Y-67296046D01*
X119637685Y-67113550D01*
X119633697Y-67108691D01*
X119506414Y-66953595D01*
X119506410Y-66953590D01*
X119503079Y-66950856D01*
X119346452Y-66822316D01*
X119163954Y-66724768D01*
X118965934Y-66664699D01*
X118965929Y-66664698D01*
X118760003Y-66644417D01*
X118759997Y-66644417D01*
X118554070Y-66664698D01*
X118554065Y-66664699D01*
X118356045Y-66724768D01*
X118173547Y-66822316D01*
X118013595Y-66953585D01*
X118013585Y-66953595D01*
X117882316Y-67113547D01*
X117784768Y-67296045D01*
X117724699Y-67494065D01*
X117724698Y-67494070D01*
X117704417Y-67699996D01*
X117704417Y-67700003D01*
X117724698Y-67905929D01*
X117724699Y-67905934D01*
X117784768Y-68103954D01*
X117882316Y-68286452D01*
X117986176Y-68413006D01*
X118013590Y-68446410D01*
X118017614Y-68449712D01*
X118173547Y-68577683D01*
X118173548Y-68577683D01*
X118173550Y-68577685D01*
X118356046Y-68675232D01*
X118446571Y-68702692D01*
X118554065Y-68735300D01*
X118554070Y-68735301D01*
X118684408Y-68748138D01*
X118740465Y-68772658D01*
X118771404Y-68825444D01*
X118765407Y-68886335D01*
X118744708Y-68916665D01*
X118436103Y-69225270D01*
X118381586Y-69253047D01*
X118321154Y-69243476D01*
X118289571Y-69218071D01*
X118236412Y-69153297D01*
X118236403Y-69153290D01*
X118137968Y-69072506D01*
X118076452Y-69022021D01*
X117893954Y-68924473D01*
X117695934Y-68864404D01*
X117695929Y-68864403D01*
X117490003Y-68844122D01*
X117489997Y-68844122D01*
X117284070Y-68864403D01*
X117284065Y-68864404D01*
X117086045Y-68924473D01*
X116903547Y-69022021D01*
X116743595Y-69153290D01*
X116743585Y-69153300D01*
X116612316Y-69313252D01*
X116514768Y-69495750D01*
X116454699Y-69693770D01*
X116454698Y-69693775D01*
X116434417Y-69899701D01*
X111828321Y-69899701D01*
X114368321Y-65500292D01*
X118974417Y-65500292D01*
X118974417Y-65500299D01*
X118994698Y-65706225D01*
X118994699Y-65706230D01*
X119054768Y-65904250D01*
X119152316Y-66086748D01*
X119261553Y-66219854D01*
X119283590Y-66246706D01*
X119283595Y-66246710D01*
X119443547Y-66377979D01*
X119443548Y-66377979D01*
X119443550Y-66377981D01*
X119626046Y-66475528D01*
X119746659Y-66512115D01*
X119824065Y-66535596D01*
X119824070Y-66535597D01*
X120029997Y-66555879D01*
X120030000Y-66555879D01*
X120030003Y-66555879D01*
X120235929Y-66535597D01*
X120235934Y-66535596D01*
X120249575Y-66531458D01*
X120433954Y-66475528D01*
X120616450Y-66377981D01*
X120776410Y-66246706D01*
X120907685Y-66086746D01*
X121005232Y-65904250D01*
X121065300Y-65706230D01*
X121065301Y-65706225D01*
X121085583Y-65500299D01*
X121085583Y-65500292D01*
X121065301Y-65294366D01*
X121065300Y-65294361D01*
X121033656Y-65190044D01*
X121005232Y-65096342D01*
X120907685Y-64913846D01*
X120888411Y-64890361D01*
X120776414Y-64753891D01*
X120776410Y-64753886D01*
X120747791Y-64730399D01*
X120616452Y-64622612D01*
X120433954Y-64525064D01*
X120235934Y-64464995D01*
X120235929Y-64464994D01*
X120030003Y-64444713D01*
X120029997Y-64444713D01*
X119824070Y-64464994D01*
X119824065Y-64464995D01*
X119626045Y-64525064D01*
X119443547Y-64622612D01*
X119283595Y-64753881D01*
X119283585Y-64753891D01*
X119152316Y-64913843D01*
X119054768Y-65096341D01*
X118994699Y-65294361D01*
X118994698Y-65294366D01*
X118974417Y-65500292D01*
X114368321Y-65500292D01*
X115474058Y-63585099D01*
X119936704Y-63585099D01*
X119941908Y-63664492D01*
X119977097Y-63735848D01*
X119977099Y-63735851D01*
X120021815Y-63775066D01*
X120688395Y-64159916D01*
X121071501Y-63496357D01*
X121115795Y-63540651D01*
X121184204Y-63580147D01*
X121244708Y-63596358D01*
X120861602Y-64259917D01*
X121528184Y-64644768D01*
X121584503Y-64663885D01*
X121584508Y-64663886D01*
X121663901Y-64658682D01*
X121735257Y-64623493D01*
X121735260Y-64623491D01*
X121774475Y-64578775D01*
X122159325Y-63912194D01*
X121495767Y-63529088D01*
X121540060Y-63484796D01*
X121579556Y-63416387D01*
X121595768Y-63355881D01*
X122259326Y-63738987D01*
X122644177Y-63072406D01*
X122663294Y-63016087D01*
X122663295Y-63016082D01*
X122658091Y-62936689D01*
X122622902Y-62865333D01*
X122622900Y-62865330D01*
X122578184Y-62826115D01*
X121911603Y-62441264D01*
X121528496Y-63104822D01*
X121484205Y-63060531D01*
X121415796Y-63021035D01*
X121355289Y-63004822D01*
X121738396Y-62341263D01*
X121071815Y-61956413D01*
X121015496Y-61937296D01*
X121015491Y-61937295D01*
X120936098Y-61942499D01*
X120864742Y-61977688D01*
X120864739Y-61977690D01*
X120825523Y-62022407D01*
X120825519Y-62022413D01*
X120440673Y-62688985D01*
X120440673Y-62688986D01*
X121104232Y-63072093D01*
X121059940Y-63116386D01*
X121020444Y-63184795D01*
X121004232Y-63245300D01*
X120340672Y-62862193D01*
X119955822Y-63528775D01*
X119936705Y-63585094D01*
X119936704Y-63585099D01*
X115474058Y-63585099D01*
X122999877Y-50549999D01*
X123045347Y-50509059D01*
X123085614Y-50500500D01*
X157034386Y-50500500D01*
X157092577Y-50519407D01*
G37*
%TD.AperFunction*%
%TD*%
M02*
