%TF.GenerationSoftware,KiCad,Pcbnew,8.0.8*%
%TF.CreationDate,2025-04-07T13:45:20-04:00*%
%TF.ProjectId,pcb_tile_game_tile_ssa,7063625f-7469-46c6-955f-67616d655f74,1.0*%
%TF.SameCoordinates,Original*%
%TF.FileFunction,Paste,Top*%
%TF.FilePolarity,Positive*%
%FSLAX46Y46*%
G04 Gerber Fmt 4.6, Leading zero omitted, Abs format (unit mm)*
G04 Created by KiCad (PCBNEW 8.0.8) date 2025-04-07 13:45:20*
%MOMM*%
%LPD*%
G01*
G04 APERTURE LIST*
G04 Aperture macros list*
%AMRoundRect*
0 Rectangle with rounded corners*
0 $1 Rounding radius*
0 $2 $3 $4 $5 $6 $7 $8 $9 X,Y pos of 4 corners*
0 Add a 4 corners polygon primitive as box body*
4,1,4,$2,$3,$4,$5,$6,$7,$8,$9,$2,$3,0*
0 Add four circle primitives for the rounded corners*
1,1,$1+$1,$2,$3*
1,1,$1+$1,$4,$5*
1,1,$1+$1,$6,$7*
1,1,$1+$1,$8,$9*
0 Add four rect primitives between the rounded corners*
20,1,$1+$1,$2,$3,$4,$5,0*
20,1,$1+$1,$4,$5,$6,$7,0*
20,1,$1+$1,$6,$7,$8,$9,0*
20,1,$1+$1,$8,$9,$2,$3,0*%
G04 Aperture macros list end*
%ADD10RoundRect,0.237500X0.237500X-0.300000X0.237500X0.300000X-0.237500X0.300000X-0.237500X-0.300000X0*%
%ADD11RoundRect,0.237500X0.300000X0.237500X-0.300000X0.237500X-0.300000X-0.237500X0.300000X-0.237500X0*%
%ADD12RoundRect,0.237500X-0.237500X0.250000X-0.237500X-0.250000X0.237500X-0.250000X0.237500X0.250000X0*%
%ADD13RoundRect,0.237500X-0.378558X-0.055681X0.141058X-0.355681X0.378558X0.055681X-0.141058X0.355681X0*%
%ADD14RoundRect,0.237500X-0.300000X-0.237500X0.300000X-0.237500X0.300000X0.237500X-0.300000X0.237500X0*%
%ADD15RoundRect,0.237500X-0.141058X-0.355681X0.378558X-0.055681X0.141058X0.355681X-0.378558X0.055681X0*%
%ADD16RoundRect,0.250000X-0.275000X-0.275000X0.275000X-0.275000X0.275000X0.275000X-0.275000X0.275000X0*%
%ADD17RoundRect,0.062500X-0.350000X-0.062500X0.350000X-0.062500X0.350000X0.062500X-0.350000X0.062500X0*%
%ADD18RoundRect,0.062500X-0.062500X-0.350000X0.062500X-0.350000X0.062500X0.350000X-0.062500X0.350000X0*%
%ADD19RoundRect,0.082000X-0.457806X0.643056X-0.785806X0.074944X0.457806X-0.643056X0.785806X-0.074944X0*%
%ADD20RoundRect,0.082000X-0.718000X0.328000X-0.718000X-0.328000X0.718000X-0.328000X0.718000X0.328000X0*%
%ADD21RoundRect,0.082000X-0.643056X-0.457806X-0.074944X-0.785806X0.643056X0.457806X0.074944X0.785806X0*%
%ADD22RoundRect,0.082000X-0.074944X0.785806X-0.643056X0.457806X0.074944X-0.785806X0.643056X-0.457806X0*%
G04 APERTURE END LIST*
D10*
%TO.C,C2*%
X149260000Y-94900000D03*
X149260000Y-93175000D03*
%TD*%
D11*
%TO.C,C12*%
X129660000Y-78800000D03*
X127935000Y-78800002D03*
%TD*%
D10*
%TO.C,C3*%
X156260000Y-82125000D03*
X156260000Y-80400000D03*
%TD*%
D12*
%TO.C,R1*%
X127710000Y-67437500D03*
X127710000Y-69262500D03*
%TD*%
D10*
%TO.C,C8*%
X147260000Y-70000000D03*
X147260000Y-68275000D03*
%TD*%
%TO.C,C15*%
X127710000Y-73712500D03*
X127710000Y-71987500D03*
%TD*%
D13*
%TO.C,C6*%
X149560000Y-81900000D03*
X151053894Y-82762500D03*
%TD*%
D11*
%TO.C,C13*%
X128385000Y-65400002D03*
X126660000Y-65400000D03*
%TD*%
D10*
%TO.C,C9*%
X146360000Y-60525000D03*
X146360000Y-58800000D03*
%TD*%
D11*
%TO.C,C11*%
X129622500Y-81000000D03*
X127897500Y-81000000D03*
%TD*%
%TO.C,C5*%
X160960000Y-85200000D03*
X159235000Y-85200000D03*
%TD*%
D10*
%TO.C,C1*%
X146460000Y-101725000D03*
X146460000Y-100000000D03*
%TD*%
D14*
%TO.C,C7*%
X142060000Y-77300000D03*
X143785000Y-77300000D03*
%TD*%
D15*
%TO.C,C4*%
X159960000Y-75600000D03*
X161453894Y-74737500D03*
%TD*%
D16*
%TO.C,U2*%
X132060000Y-71200000D03*
X132060000Y-72500000D03*
X133360000Y-71200000D03*
X133360000Y-72500000D03*
D17*
X130772500Y-70600000D03*
X130772500Y-71100000D03*
X130772500Y-71600000D03*
X130772500Y-72100000D03*
X130772500Y-72600000D03*
X130772500Y-73100000D03*
D18*
X131460000Y-73787500D03*
X131960000Y-73787500D03*
X132460000Y-73787500D03*
X132960000Y-73787500D03*
X133460000Y-73787500D03*
X133960000Y-73787500D03*
D17*
X134647500Y-73100000D03*
X134647500Y-72600000D03*
X134647500Y-72100000D03*
X134647500Y-71600000D03*
X134647500Y-71100000D03*
X134647500Y-70600000D03*
D18*
X133960000Y-69912500D03*
X133460000Y-69912500D03*
X132960000Y-69912500D03*
X132460000Y-69912500D03*
X131960000Y-69912500D03*
X131460000Y-69912500D03*
%TD*%
D10*
%TO.C,C14*%
X124710000Y-73712500D03*
X124710000Y-71987500D03*
%TD*%
D11*
%TO.C,C10*%
X126260000Y-89300000D03*
X124535000Y-89300000D03*
%TD*%
D19*
%TO.C,LED2*%
X146514780Y-91100961D03*
X145764780Y-92400000D03*
X141261448Y-89800000D03*
X142011448Y-88500961D03*
%TD*%
D20*
%TO.C,LED11*%
X125210000Y-82430000D03*
X125210000Y-83930000D03*
X120010000Y-83930000D03*
X120010000Y-82430000D03*
%TD*%
%TO.C,LED8*%
X143660002Y-68299999D03*
X143660000Y-69800000D03*
X138460001Y-69799999D03*
X138460000Y-68300000D03*
%TD*%
%TO.C,LED9*%
X142760000Y-58900000D03*
X142760000Y-60400000D03*
X137560000Y-60400000D03*
X137560000Y-58900000D03*
%TD*%
%TO.C,LED1*%
X143160000Y-100100000D03*
X143160000Y-101600000D03*
X137960000Y-101600000D03*
X137960000Y-100100000D03*
%TD*%
D19*
%TO.C,LED3*%
X153002876Y-79569974D03*
X152252876Y-80869013D03*
X147749544Y-78269013D03*
X148499544Y-76969974D03*
%TD*%
D21*
%TO.C,LED5*%
X158060961Y-88550000D03*
X159360000Y-89300000D03*
X156760000Y-93803332D03*
X155460961Y-93053331D03*
%TD*%
%TO.C,LED13*%
X121250961Y-68670000D03*
X122550000Y-69420000D03*
X119950000Y-73923332D03*
X118650961Y-73173332D03*
%TD*%
%TO.C,LED6*%
X149960961Y-84950000D03*
X151260000Y-85700000D03*
X148660000Y-90203332D03*
X147360961Y-89453332D03*
%TD*%
D22*
%TO.C,LED10*%
X122410000Y-90940000D03*
X121110961Y-91690000D03*
X118510961Y-87186668D03*
X119810000Y-86436668D03*
%TD*%
%TO.C,LED4*%
X160430320Y-72080266D03*
X159131281Y-72830266D03*
X156531281Y-68326934D03*
X157830320Y-67576934D03*
%TD*%
D20*
%TO.C,LED7*%
X145860000Y-79600000D03*
X145860000Y-81100000D03*
X140660000Y-81100000D03*
X140660000Y-79600000D03*
%TD*%
%TO.C,LED12*%
X125210000Y-76490000D03*
X125210000Y-77990000D03*
X120010000Y-77990000D03*
X120010000Y-76490000D03*
%TD*%
M02*
